G04 ================== begin FILE IDENTIFICATION RECORD ==================*
G04 Layout Name:  pc069a_toplevel_13.brd*
G04 Film Name:    art_SILK_BOT_pc069a*
G04 File Format:  Gerber RS274X*
G04 File Origin:  Cadence Allegro 17.4-S026*
G04 Origin Date:  Thu Jun 30 14:02:14 2022*
G04 *
G04 Layer:  REF DES/SILKSCREEN_BOTTOM*
G04 Layer:  PACKAGE GEOMETRY/SILKSCREEN_BOTTOM*
G04 Layer:  BOARD GEOMETRY/SILKSCREEN_BOTTOM*
G04 *
G04 Offset:    (0.0000 0.0000)*
G04 Mirror:    No*
G04 Mode:      Positive*
G04 Rotation:  0*
G04 FullContactRelief:  No*
G04 UndefLineWidth:     0.2540*
G04 ================== end FILE IDENTIFICATION RECORD ====================*
%FSLAX25Y25*MOMM*%
%IR0*IPPOS*OFA0.00000B0.00000*MIA0B0*SFA1.00000B1.00000*%
%ADD10C,.1*%
%ADD11C,.2*%
%ADD12C,.203*%
%ADD13C,.25*%
%ADD14C,.127*%
%ADD15C,.1524*%
G75*
%LPD*%
G75*
G36*
G01X-6490680Y5422290D02*
X-6485310D01*
X-6482360Y5418230D01*
X-6473300Y5406190D01*
X-6463950Y5396120D01*
X-6454800Y5390910D01*
X-6446310Y5389430D01*
X-6443490D01*
X-6399580D01*
X-6398190D01*
X-6394060Y5390030D01*
X-6390360Y5391930D01*
X-6388280Y5395350D01*
X-6387630Y5399210D01*
Y5400480D01*
Y5538180D01*
Y5539730D01*
X-6387880Y5544390D01*
X-6388720Y5549210D01*
X-6390270Y5552850D01*
X-6392590Y5555430D01*
X-6395850Y5557150D01*
X-6400110Y5558180D01*
X-6405500Y5558670D01*
X-6410460Y5558790D01*
X-6412120D01*
X-6423180D01*
Y5564470D01*
X-6335070D01*
Y5558790D01*
X-6339250D01*
X-6342150D01*
X-6350870Y5557520D01*
X-6358100Y5553530D01*
X-6361800Y5546580D01*
X-6362840Y5538950D01*
Y5536400D01*
Y5404070D01*
Y5401690D01*
X-6361830Y5394570D01*
X-6358580Y5388500D01*
X-6352760Y5385300D01*
X-6346210Y5384350D01*
X-6344030D01*
X-6334180D01*
Y5378680D01*
X-6467690D01*
X-6490680Y5422290D01*
G37*
G36*
G01X-6421330Y5727450D02*
X-6398960D01*
Y5744290D01*
Y5747890D01*
X-6400560Y5758680D01*
X-6405280Y5769400D01*
X-6412980Y5776100D01*
X-6420900Y5778400D01*
X-6423550D01*
X-6425990D01*
X-6433320Y5776710D01*
X-6440810Y5772970D01*
X-6446160Y5769240D01*
X-6448630Y5767550D01*
X-6449470D01*
X-6449870D01*
X-6451130Y5768960D01*
X-6453110Y5772190D01*
X-6454750Y5775770D01*
X-6455450Y5777570D01*
Y5778170D01*
Y5778930D01*
X-6453620Y5781210D01*
X-6448680Y5784630D01*
X-6441420Y5787430D01*
X-6434820Y5788580D01*
X-6432630D01*
X-6430700D01*
X-6424940Y5787660D01*
X-6417150Y5784790D01*
X-6409230Y5779900D01*
X-6403070Y5774750D01*
X-6401180Y5772860D01*
X-6398910Y5770590D01*
X-6393000Y5762840D01*
X-6387750Y5752150D01*
X-6384950Y5740460D01*
X-6384130Y5730700D01*
Y5727450D01*
X-6382910Y5726790D01*
X-6369270Y5721800D01*
X-6367730Y5721470D01*
Y5717700D01*
X-6384130D01*
Y5659230D01*
Y5657330D01*
X-6383570Y5651620D01*
X-6381410Y5646940D01*
X-6376830Y5644590D01*
X-6371000Y5643940D01*
X-6369060D01*
Y5639740D01*
X-6423770D01*
Y5643940D01*
X-6415350D01*
X-6413400D01*
X-6407550Y5644550D01*
X-6402500Y5646660D01*
X-6399780Y5650680D01*
X-6398960Y5655430D01*
Y5657020D01*
Y5717700D01*
X-6422880D01*
X-6421330Y5727450D01*
G37*
G36*
G01X-6328910Y5471220D02*
X-6326710Y5454910D01*
X-6320440Y5435140D01*
X-6310540Y5417630D01*
X-6297470Y5402640D01*
X-6281690Y5390500D01*
X-6263630Y5381470D01*
X-6243780Y5375840D01*
X-6227880Y5373900D01*
X-6222590D01*
X-6217210D01*
X-6201130Y5375630D01*
X-6181030Y5380660D01*
X-6162730Y5388750D01*
X-6146700Y5399700D01*
X-6133420Y5413260D01*
X-6123350Y5429220D01*
X-6116960Y5447340D01*
X-6114740Y5462380D01*
Y5467390D01*
Y5472750D01*
X-6116820Y5488830D01*
X-6122870Y5508340D01*
X-6132550Y5525650D01*
X-6145540Y5540470D01*
X-6161520Y5552490D01*
X-6180140Y5561440D01*
X-6201100Y5567020D01*
X-6218320Y5568950D01*
X-6224070D01*
X-6229250D01*
X-6244780Y5567190D01*
X-6264260Y5562090D01*
X-6282050Y5553930D01*
X-6297660Y5542960D01*
X-6310620Y5529480D01*
X-6320460Y5513760D01*
X-6326720Y5496060D01*
X-6328910Y5481500D01*
Y5476640D01*
Y5471220D01*
G37*
G36*
G01X-6031060Y5553710D02*
X-6083030D01*
X-6084080D01*
X-6087210Y5553360D01*
X-6090840Y5552230D01*
X-6093990Y5550150D01*
X-6096730Y5546990D01*
X-6099110Y5542600D01*
X-6101220Y5536840D01*
X-6103090Y5529530D01*
X-6104440Y5522810D01*
X-6104830Y5520560D01*
X-6110210D01*
X-6105430Y5568950D01*
X-6099760D01*
X-6099660Y5568360D01*
X-6098640Y5566740D01*
X-6096460Y5565370D01*
X-6093620Y5564680D01*
X-6091270Y5564470D01*
X-6090490D01*
X-5946820D01*
X-5945430D01*
X-5941280Y5565210D01*
X-5940830Y5565360D01*
X-5940380Y5565510D01*
X-5937630Y5568500D01*
X-5937560Y5568950D01*
X-5931880D01*
X-5927100Y5520560D01*
X-5932470D01*
X-5932850Y5522810D01*
X-5934200Y5529530D01*
X-5936080Y5536840D01*
X-5938180Y5542600D01*
X-5940570Y5546990D01*
X-5943300Y5550150D01*
X-5946460Y5552230D01*
X-5950090Y5553360D01*
X-5953220Y5553710D01*
X-5954280D01*
X-6006260D01*
Y5406160D01*
Y5403610D01*
X-6005130Y5395940D01*
X-6001300Y5389200D01*
X-5994040Y5385500D01*
X-5985510Y5384350D01*
X-5982670D01*
X-5971610D01*
Y5378680D01*
X-6065710D01*
Y5384350D01*
X-6054640D01*
X-6051790D01*
X-6043260Y5385500D01*
X-6036010Y5389200D01*
X-6032180Y5395940D01*
X-6031060Y5403610D01*
Y5406160D01*
Y5553710D01*
G37*
G36*
G01X-6020660Y5731000D02*
X-6017330D01*
X-5988540Y5721020D01*
Y5717480D01*
X-5998950Y5715490D01*
X-5999840Y5715320D01*
X-6002450Y5714540D01*
X-6004540Y5712890D01*
X-6005550Y5709830D01*
X-6005820Y5705940D01*
Y5704640D01*
Y5660110D01*
Y5658240D01*
X-6004840Y5652630D01*
X-6001690Y5647630D01*
X-5996000Y5644820D01*
X-5989570Y5643940D01*
X-5987430D01*
Y5639740D01*
X-6036600D01*
Y5643940D01*
X-6034740D01*
X-6029160Y5644830D01*
X-6024230Y5647360D01*
X-6021490Y5651330D01*
X-6020660Y5655270D01*
Y5656570D01*
Y5731000D01*
G37*
G36*
G01X-6010640Y5780830D02*
X-6007840Y5780170D01*
X-6004820Y5778370D01*
X-6002790Y5775700D01*
X-6002050Y5773240D01*
Y5772420D01*
Y5771600D01*
X-6002790Y5769140D01*
X-6004820Y5766460D01*
X-6007840Y5764660D01*
X-6010640Y5764000D01*
X-6011570D01*
X-6012510D01*
X-6015340Y5764660D01*
X-6018440Y5766460D01*
X-6020550Y5769140D01*
X-6021330Y5771600D01*
Y5772420D01*
Y5773240D01*
X-6020550Y5775700D01*
X-6018440Y5778370D01*
X-6015340Y5780170D01*
X-6012510Y5780830D01*
X-6011570D01*
X-6010640D01*
G37*
G36*
G01X-6068060Y5727450D02*
Y5749380D01*
X-6064290D01*
X-6063370Y5746930D01*
X-6060020Y5739790D01*
X-6054980Y5731750D01*
X-6049270Y5725500D01*
X-6044700Y5722080D01*
X-6043030Y5721250D01*
Y5717700D01*
X-6053210D01*
Y5662770D01*
Y5660210D01*
X-6054870Y5652500D01*
X-6059490Y5644370D01*
X-6066570Y5639020D01*
X-6073330Y5637090D01*
X-6075580D01*
X-6077410D01*
X-6082900Y5638310D01*
X-6089490Y5641850D01*
X-6095140Y5647550D01*
X-6098790Y5653220D01*
X-6099730Y5655240D01*
X-6096190Y5658570D01*
X-6095130Y5656750D01*
X-6089680Y5650300D01*
X-6084420Y5647490D01*
X-6082670D01*
X-6081610D01*
X-6078420Y5648450D01*
X-6073620Y5651570D01*
X-6069680Y5657310D01*
X-6068060Y5663910D01*
Y5666100D01*
Y5717700D01*
X-6096190D01*
X-6099730Y5727450D01*
X-6068060D01*
G37*
G36*
G01X-6168510Y5655910D02*
X-6143490Y5709950D01*
X-6142810Y5711380D01*
X-6141380Y5715960D01*
X-6142080Y5720120D01*
X-6146130Y5722580D01*
X-6152110Y5723440D01*
X-6154120Y5723460D01*
Y5727450D01*
X-6109600D01*
Y5723460D01*
X-6111110Y5723440D01*
X-6115660Y5722610D01*
X-6120260Y5720260D01*
X-6123890Y5716240D01*
X-6126390Y5711910D01*
X-6127090Y5710390D01*
X-6161420Y5637520D01*
X-6154780Y5620910D01*
X-6154330Y5619810D01*
X-6151260Y5613860D01*
X-6147860Y5608900D01*
X-6147250Y5608280D01*
X-6146230Y5607270D01*
X-6142040Y5605290D01*
X-6135980Y5603410D01*
X-6130960Y5600880D01*
X-6128870Y5597140D01*
Y5595880D01*
Y5595110D01*
X-6129530Y5592800D01*
X-6131410Y5590350D01*
X-6134290Y5588730D01*
X-6137030Y5588140D01*
X-6137960D01*
X-6139290D01*
X-6143330Y5589540D01*
X-6148100Y5593840D01*
X-6152680Y5601210D01*
X-6156350Y5609130D01*
X-6157440Y5611830D01*
X-6195100Y5705740D01*
X-6195820Y5707550D01*
X-6198460Y5712750D01*
X-6202450Y5718090D01*
X-6207360Y5721700D01*
X-6211910Y5723280D01*
X-6213470Y5723460D01*
Y5727450D01*
X-6176710D01*
Y5723460D01*
X-6178730Y5723400D01*
X-6184810Y5722430D01*
X-6189410Y5719310D01*
X-6190320Y5713130D01*
X-6188320Y5705340D01*
X-6187350Y5702860D01*
X-6168510Y5655910D01*
G37*
G36*
G01X-6263190Y5688000D02*
X-6267420Y5703170D01*
X-6278470Y5717880D01*
X-6293830Y5726860D01*
X-6306720Y5729890D01*
X-6311030D01*
X-6315740D01*
X-6329870Y5726330D01*
X-6344970Y5716510D01*
X-6355010Y5701760D01*
X-6358650Y5687970D01*
Y5683370D01*
Y5678810D01*
X-6355020Y5665120D01*
X-6345060Y5650430D01*
X-6330150Y5640650D01*
X-6316310Y5637090D01*
X-6311700D01*
X-6306900D01*
X-6292530Y5640610D01*
X-6277140Y5650300D01*
X-6266910Y5664840D01*
X-6263190Y5678410D01*
Y5682930D01*
Y5688000D01*
G37*
G36*
G01X-5796280Y5424080D02*
X-5802550Y5378680D01*
X-5807620D01*
X-5807920Y5379130D01*
X-5810050Y5381010D01*
X-5812710Y5381970D01*
X-5813600D01*
X-5815080D01*
X-5819540Y5380710D01*
X-5829760Y5377940D01*
X-5842280Y5375160D01*
X-5851900Y5373900D01*
X-5855120D01*
X-5861180D01*
X-5879370Y5377770D01*
X-5898680Y5388470D01*
X-5911430Y5404650D01*
X-5916050Y5419900D01*
Y5424980D01*
Y5429660D01*
X-5911920Y5443690D01*
X-5901060Y5459180D01*
X-5885700Y5472350D01*
X-5868100Y5484040D01*
X-5850490Y5495150D01*
X-5835130Y5506560D01*
X-5824270Y5519110D01*
X-5820160Y5530060D01*
Y5533700D01*
Y5536570D01*
X-5822610Y5545150D01*
X-5829490Y5554020D01*
X-5840070Y5559740D01*
X-5850230Y5561770D01*
X-5853620D01*
X-5857370D01*
X-5868650Y5559300D01*
X-5882250Y5552230D01*
X-5893560Y5541120D01*
X-5900210Y5530380D01*
X-5901710Y5526530D01*
X-5906780D01*
X-5901710Y5564470D01*
X-5896940D01*
X-5896490Y5563880D01*
X-5894460Y5562090D01*
X-5892280Y5561490D01*
X-5891560D01*
X-5889750D01*
X-5884320Y5562660D01*
X-5876730Y5565220D01*
X-5866390Y5567780D01*
X-5854800Y5568950D01*
X-5850940D01*
X-5845640D01*
X-5829770Y5565670D01*
X-5812930Y5556600D01*
X-5801790Y5542870D01*
X-5797770Y5529950D01*
Y5525630D01*
Y5521160D01*
X-5801880Y5507740D01*
X-5812740Y5492690D01*
X-5828100Y5479700D01*
X-5845710Y5467960D01*
X-5863300Y5456630D01*
X-5878660Y5444950D01*
X-5889520Y5432070D01*
X-5893640Y5420930D01*
Y5417200D01*
Y5413340D01*
X-5890010Y5401750D01*
X-5880530Y5390740D01*
X-5867310Y5384160D01*
X-5856150Y5381970D01*
X-5852440D01*
X-5848220D01*
X-5835590Y5384810D01*
X-5820810Y5393060D01*
X-5809200Y5406290D01*
X-5803040Y5419470D01*
X-5801950Y5424080D01*
X-5796280D01*
G37*
G36*
G01X-5779890Y5384350D02*
X-5781640D01*
Y5378680D01*
X-5713930D01*
X-5709790Y5378530D01*
X-5697340Y5378500D01*
X-5683670Y5379340D01*
X-5672310Y5381290D01*
X-5662630Y5384450D01*
X-5654010Y5388900D01*
X-5645850Y5394740D01*
X-5637530Y5402050D01*
X-5630680Y5408690D01*
X-5628450Y5410930D01*
X-5608740Y5430650D01*
X-5606440Y5432950D01*
X-5599390Y5439680D01*
X-5591110Y5447090D01*
X-5583940Y5452920D01*
X-5579480Y5456220D01*
X-5577960Y5457230D01*
X-5576090Y5457160D01*
X-5568020Y5456820D01*
X-5560230Y5456620D01*
X-5557640D01*
X-5555550D01*
X-5549340Y5456820D01*
X-5543590Y5457160D01*
X-5542400Y5457230D01*
Y5406760D01*
Y5403990D01*
X-5543780Y5395700D01*
X-5548070Y5388840D01*
X-5555500Y5385340D01*
X-5563600Y5384350D01*
X-5566290D01*
X-5573180D01*
Y5378680D01*
X-5488640D01*
Y5384350D01*
X-5493710D01*
X-5495230D01*
X-5499790Y5384600D01*
X-5504880Y5385420D01*
X-5509010Y5386920D01*
X-5512260Y5389240D01*
X-5514680Y5392500D01*
X-5516350Y5396830D01*
X-5517300Y5402330D01*
X-5517600Y5407440D01*
Y5409140D01*
Y5534890D01*
Y5536480D01*
X-5517340Y5541240D01*
X-5516530Y5546450D01*
X-5515080Y5550610D01*
X-5512900Y5553800D01*
X-5509900Y5556120D01*
X-5506010Y5557670D01*
X-5501140Y5558530D01*
X-5496690Y5558790D01*
X-5495210D01*
X-5488640D01*
Y5564470D01*
X-5490430D01*
X-5495810Y5564680D01*
X-5505540Y5565150D01*
X-5516230Y5565730D01*
X-5523750Y5566140D01*
X-5526260Y5566260D01*
X-5528330Y5566360D01*
X-5534570Y5566660D01*
X-5542390Y5566940D01*
X-5551550Y5567110D01*
X-5560810Y5567150D01*
X-5563910D01*
X-5568730D01*
X-5583210Y5566130D01*
X-5599730Y5563130D01*
X-5613520Y5558370D01*
X-5624660Y5551990D01*
X-5633210Y5544200D01*
X-5639220Y5535150D01*
X-5642790Y5525020D01*
X-5643960Y5516750D01*
Y5513990D01*
Y5509990D01*
X-5641200Y5497990D01*
X-5633290Y5484090D01*
X-5620780Y5473040D01*
X-5608560Y5466870D01*
X-5604250Y5465600D01*
X-5606270Y5464010D01*
X-5612250Y5459060D01*
X-5620160Y5452090D01*
X-5628600Y5444090D01*
X-5635890Y5436940D01*
X-5638290Y5434520D01*
X-5661870Y5410930D01*
X-5664630Y5408160D01*
X-5673180Y5400070D01*
X-5683850Y5392020D01*
X-5695730Y5386800D01*
X-5706910Y5384660D01*
X-5710660Y5384450D01*
X-5712110Y5384560D01*
X-5716460Y5385080D01*
X-5721130Y5386200D01*
X-5724750Y5387930D01*
X-5727470Y5390390D01*
X-5729380Y5393720D01*
X-5730610Y5398010D01*
X-5731270Y5403420D01*
X-5731460Y5408380D01*
Y5410040D01*
Y5537290D01*
Y5539800D01*
X-5730310Y5547340D01*
X-5726530Y5553760D01*
X-5719600Y5557330D01*
X-5711700Y5558650D01*
X-5709060Y5558790D01*
Y5564470D01*
X-5781640D01*
Y5558790D01*
X-5780010D01*
X-5775140Y5558580D01*
X-5769740Y5557830D01*
X-5765340Y5556410D01*
X-5761890Y5554200D01*
X-5759320Y5551050D01*
X-5757570Y5546820D01*
X-5756560Y5541380D01*
X-5756250Y5536290D01*
Y5534590D01*
Y5407950D01*
Y5406430D01*
X-5756490Y5401880D01*
X-5757310Y5396830D01*
X-5758850Y5392740D01*
X-5761210Y5389550D01*
X-5764540Y5387170D01*
X-5768980Y5385560D01*
X-5774630Y5384650D01*
X-5779890Y5384350D01*
G37*
G36*
G01X-5622520Y5731000D02*
X-5619190D01*
X-5590400Y5721020D01*
Y5717480D01*
X-5600810Y5715490D01*
X-5601690Y5715320D01*
X-5604300Y5714540D01*
X-5606400Y5712890D01*
X-5607410Y5709830D01*
X-5607680Y5705940D01*
Y5704640D01*
Y5660110D01*
Y5658240D01*
X-5606700Y5652630D01*
X-5603540Y5647630D01*
X-5597860Y5644820D01*
X-5591430Y5643940D01*
X-5589290D01*
Y5639740D01*
X-5638470D01*
Y5643940D01*
X-5636600D01*
X-5631020Y5644830D01*
X-5626090Y5647360D01*
X-5623350Y5651330D01*
X-5622520Y5655270D01*
Y5656570D01*
Y5731000D01*
G37*
G36*
G01X-5612500Y5780830D02*
X-5609700Y5780170D01*
X-5606670Y5778370D01*
X-5604650Y5775700D01*
X-5603910Y5773240D01*
Y5772420D01*
Y5771600D01*
X-5604650Y5769140D01*
X-5606670Y5766460D01*
X-5609700Y5764660D01*
X-5612500Y5764000D01*
X-5613440D01*
X-5614370D01*
X-5617200Y5764660D01*
X-5620290Y5766460D01*
X-5622400Y5769140D01*
X-5623180Y5771600D01*
Y5772420D01*
Y5773240D01*
X-5622400Y5775700D01*
X-5620290Y5778370D01*
X-5617200Y5780170D01*
X-5614370Y5780830D01*
X-5613440D01*
X-5612500D01*
G37*
G36*
G01X-5695470Y5637740D02*
X-5726030Y5707300D01*
X-5726740Y5708950D01*
X-5729340Y5713720D01*
X-5733190Y5718460D01*
X-5737830Y5721660D01*
X-5742060Y5723200D01*
X-5743520Y5723460D01*
Y5727450D01*
X-5704990D01*
Y5723460D01*
X-5707400Y5723310D01*
X-5714580Y5721680D01*
X-5719630Y5718150D01*
X-5720910Y5713130D01*
X-5719810Y5708330D01*
X-5719170Y5706850D01*
X-5696570Y5655680D01*
X-5673090Y5710840D01*
X-5672330Y5712320D01*
X-5670880Y5717150D01*
X-5672230Y5720900D01*
X-5677100Y5722770D01*
X-5683390Y5723400D01*
X-5685490Y5723460D01*
Y5727450D01*
X-5640300D01*
Y5723460D01*
X-5647180Y5722360D01*
X-5648060Y5722190D01*
X-5652130Y5719480D01*
X-5656090Y5713220D01*
X-5656920Y5711280D01*
X-5689040Y5637740D01*
X-5695470D01*
G37*
G36*
G01X-5761480Y5695990D02*
X-5761360Y5695170D01*
X-5760590Y5689020D01*
Y5686700D01*
Y5682770D01*
X-5763390Y5670960D01*
X-5770850Y5658790D01*
X-5781610Y5650940D01*
X-5791100Y5648150D01*
X-5794260D01*
X-5796230D01*
X-5802130Y5649000D01*
X-5809310Y5651620D01*
X-5816000Y5656100D01*
X-5820930Y5660820D01*
X-5822390Y5662550D01*
X-5824830Y5659900D01*
X-5823030Y5657640D01*
X-5817010Y5651390D01*
X-5807680Y5644090D01*
X-5797070Y5639000D01*
X-5788300Y5637090D01*
X-5785390D01*
X-5781590D01*
X-5770220Y5640570D01*
X-5757990Y5650160D01*
X-5749830Y5664560D01*
X-5746860Y5678010D01*
Y5682490D01*
Y5686820D01*
X-5749730Y5699800D01*
X-5758100Y5715000D01*
X-5771520Y5725780D01*
X-5785080Y5729890D01*
X-5789610D01*
X-5792070D01*
X-5799460Y5728950D01*
X-5806900Y5726420D01*
X-5812380Y5722700D01*
X-5816350Y5718230D01*
X-5819260Y5713420D01*
X-5821560Y5708670D01*
X-5823710Y5704430D01*
X-5825430Y5701820D01*
X-5826160Y5701100D01*
Y5695990D01*
X-5761480D01*
G37*
G36*
G01X-5868870Y5698880D02*
X-5869300Y5699710D01*
X-5875230Y5708960D01*
X-5875950Y5709950D01*
X-5876500Y5710730D01*
X-5879600Y5714000D01*
X-5883340Y5715710D01*
X-5884590D01*
X-5886380D01*
X-5891740Y5713780D01*
X-5892350Y5713500D01*
X-5893390Y5713000D01*
X-5898540Y5711140D01*
X-5903250Y5710060D01*
X-5904090Y5709950D01*
X-5909400Y5723240D01*
X-5908070Y5723630D01*
X-5902480Y5725160D01*
X-5898430Y5726350D01*
X-5897880Y5726560D01*
X-5896830Y5727000D01*
X-5893530Y5728220D01*
X-5891140Y5728560D01*
X-5890350D01*
X-5889140D01*
X-5885530Y5727630D01*
X-5881240Y5724180D01*
X-5876240Y5717360D01*
X-5871010Y5709000D01*
X-5869310Y5706190D01*
X-5868870D01*
Y5729670D01*
X-5864430D01*
X-5839180Y5720810D01*
Y5717040D01*
X-5854020Y5711730D01*
Y5660560D01*
Y5658680D01*
X-5853290Y5653040D01*
X-5850840Y5647940D01*
X-5846260Y5644990D01*
X-5840950Y5643980D01*
X-5839180Y5643940D01*
Y5639740D01*
X-5891680D01*
Y5643940D01*
X-5883260D01*
X-5881520D01*
X-5876340Y5644550D01*
X-5871910Y5646520D01*
X-5869550Y5650210D01*
X-5868870Y5654480D01*
Y5655910D01*
Y5698880D01*
G37*
G36*
G01X-5921150Y5662110D02*
X-5923590Y5637300D01*
X-5926910D01*
X-5927180Y5637740D01*
X-5929730Y5639960D01*
X-5930670D01*
X-5932010D01*
X-5936040Y5638800D01*
X-5936650Y5638630D01*
X-5937260Y5638410D01*
X-5940860Y5637530D01*
X-5945010Y5637090D01*
X-5946400D01*
X-5949100D01*
X-5957220Y5639010D01*
X-5965940Y5644320D01*
X-5971750Y5652320D01*
X-5973860Y5659830D01*
Y5662330D01*
Y5664610D01*
X-5972090Y5671430D01*
X-5967420Y5678780D01*
X-5960830Y5684840D01*
X-5953270Y5690080D01*
X-5945700Y5694970D01*
X-5939110Y5699960D01*
X-5934440Y5705540D01*
X-5932670Y5710510D01*
Y5712170D01*
Y5713430D01*
X-5933760Y5717200D01*
X-5936680Y5721120D01*
X-5940980Y5723670D01*
X-5944870Y5724570D01*
X-5946180D01*
X-5947750D01*
X-5952460Y5723300D01*
X-5957770Y5719620D01*
X-5961720Y5713830D01*
X-5963630Y5708140D01*
X-5963900Y5706190D01*
X-5967660D01*
X-5967220Y5726340D01*
X-5965830Y5726890D01*
X-5958530Y5728950D01*
X-5951760Y5729890D01*
X-5949500D01*
X-5946620D01*
X-5937970Y5728080D01*
X-5929010Y5722970D01*
X-5923210Y5715130D01*
X-5921150Y5707590D01*
Y5705080D01*
Y5703550D01*
X-5921920Y5698910D01*
X-5924120Y5693970D01*
X-5927510Y5689870D01*
X-5931860Y5686250D01*
X-5936950Y5682770D01*
X-5942540Y5679040D01*
X-5948420Y5674720D01*
X-5952960Y5670830D01*
X-5954370Y5669420D01*
X-5955310Y5668480D01*
X-5957990Y5665440D01*
X-5960150Y5662160D01*
X-5961190Y5659140D01*
X-5961460Y5656720D01*
Y5655910D01*
Y5654500D01*
X-5960240Y5650270D01*
X-5956910Y5645620D01*
X-5951920Y5642460D01*
X-5947280Y5641290D01*
X-5945740D01*
X-5943950D01*
X-5938610Y5642680D01*
X-5932470Y5646720D01*
X-5927690Y5653250D01*
X-5925150Y5659840D01*
X-5924700Y5662110D01*
X-5921150D01*
G37*
G36*
G01X-5341380Y5532820D02*
Y5534320D01*
X-5341240Y5538820D01*
X-5340730Y5544060D01*
X-5339610Y5548520D01*
X-5337710Y5552190D01*
X-5334840Y5555060D01*
X-5330780Y5557120D01*
X-5325360Y5558370D01*
X-5320120Y5558790D01*
X-5318380D01*
X-5307910D01*
Y5564470D01*
X-5309960Y5564550D01*
X-5316100Y5564830D01*
X-5326620Y5565360D01*
X-5337200Y5565900D01*
X-5343460Y5566190D01*
X-5345550Y5566260D01*
X-5348830Y5566380D01*
X-5358690Y5566660D01*
X-5371990Y5566940D01*
X-5383270Y5567110D01*
X-5388590Y5567150D01*
X-5390360D01*
X-5395100D01*
X-5409320Y5566430D01*
X-5426200Y5564240D01*
X-5440170Y5560600D01*
X-5448110Y5557150D01*
X-5450400Y5555500D01*
X-5452530Y5553990D01*
X-5458410Y5548690D01*
X-5464100Y5541060D01*
X-5467500Y5532360D01*
X-5468620Y5524850D01*
Y5522340D01*
Y5520770D01*
X-5467970Y5516040D01*
X-5466110Y5509980D01*
X-5463120Y5504280D01*
X-5459100Y5499100D01*
X-5454140Y5494530D01*
X-5448340Y5490730D01*
X-5441780Y5487810D01*
X-5436400Y5486240D01*
X-5434580Y5485910D01*
Y5485310D01*
X-5439440Y5483870D01*
X-5453370Y5477270D01*
X-5467350Y5465980D01*
X-5476060Y5451880D01*
X-5479070Y5439540D01*
Y5435430D01*
Y5433130D01*
X-5478260Y5426220D01*
X-5475750Y5416610D01*
X-5471330Y5407110D01*
X-5464840Y5398210D01*
X-5456100Y5390420D01*
X-5444920Y5384230D01*
X-5431130Y5380160D01*
X-5418690Y5378680D01*
X-5414550D01*
X-5305220D01*
Y5384350D01*
X-5312110D01*
X-5314180D01*
X-5320390Y5384640D01*
X-5327010Y5385540D01*
X-5332130Y5387140D01*
X-5335920Y5389550D01*
X-5338570Y5392830D01*
X-5340250Y5397080D01*
X-5341120Y5402390D01*
X-5341380Y5407240D01*
Y5408850D01*
Y5532820D01*
G37*
G36*
G01X-5227730Y5612440D02*
X-5199770Y5606940D01*
X-5167940Y5606120D01*
X-5139730Y5610310D01*
X-5113630Y5616910D01*
X-5088160Y5623320D01*
X-5061820Y5626930D01*
X-5033130Y5625140D01*
X-5008390Y5618630D01*
X-5000610Y5615370D01*
X-5000600Y5612680D01*
X-5000590Y5605080D01*
Y5593270D01*
Y5577950D01*
X-5000580Y5559840D01*
X-5000590Y5539660D01*
Y5518080D01*
Y5495840D01*
Y5473630D01*
X-5000600Y5452170D01*
Y5432160D01*
Y5414310D01*
Y5399320D01*
X-5000610Y5387900D01*
Y5380760D01*
Y5378600D01*
X-5005020Y5380250D01*
X-5018530Y5384460D01*
X-5034490Y5388120D01*
X-5048830Y5389870D01*
X-5061870Y5390030D01*
X-5073930Y5388890D01*
X-5085360Y5386760D01*
X-5096470Y5383960D01*
X-5107600Y5380780D01*
X-5119070Y5377540D01*
X-5131210Y5374540D01*
X-5144360Y5372080D01*
X-5158840Y5370460D01*
X-5174990Y5370000D01*
X-5193120Y5371010D01*
X-5213580Y5373770D01*
X-5230950Y5377220D01*
X-5236690Y5378600D01*
Y5379290D01*
Y5381310D01*
Y5388940D01*
Y5400790D01*
Y5416140D01*
Y5434280D01*
Y5454520D01*
Y5476130D01*
Y5498400D01*
Y5520640D01*
Y5542110D01*
Y5562140D01*
Y5579960D01*
Y5594920D01*
Y5606280D01*
Y5613330D01*
Y5615370D01*
X-5227730Y5612440D01*
G37*
G36*
G01X-5421700Y5777510D02*
Y5773300D01*
X-5423240Y5773230D01*
X-5427900Y5772810D01*
X-5432830Y5771870D01*
X-5436630Y5770320D01*
X-5439430Y5767990D01*
X-5441380Y5764700D01*
X-5442590Y5760280D01*
X-5443220Y5754570D01*
X-5443400Y5749190D01*
Y5747380D01*
Y5695780D01*
Y5692560D01*
X-5442250Y5682900D01*
X-5439030Y5672390D01*
X-5434020Y5664030D01*
X-5427540Y5657630D01*
X-5419870Y5652990D01*
X-5411350Y5649930D01*
X-5402260Y5648230D01*
X-5395240Y5647710D01*
X-5392910D01*
X-5387440D01*
X-5371080Y5650980D01*
X-5355270Y5660430D01*
X-5345640Y5675470D01*
X-5342400Y5690540D01*
Y5695560D01*
Y5757130D01*
Y5759110D01*
X-5343420Y5765080D01*
X-5346580Y5770040D01*
X-5352020Y5772590D01*
X-5357930Y5773300D01*
X-5359900D01*
X-5361890D01*
Y5777510D01*
X-5304970D01*
Y5773300D01*
X-5307300Y5773280D01*
X-5314300Y5772610D01*
X-5320130Y5770230D01*
X-5323150Y5765230D01*
X-5324020Y5758830D01*
Y5756680D01*
Y5692010D01*
Y5686490D01*
X-5328060Y5669940D01*
X-5340150Y5652240D01*
X-5360170Y5640470D01*
X-5381050Y5636200D01*
X-5388020D01*
X-5392170D01*
X-5404630Y5637520D01*
X-5418550Y5641240D01*
X-5429890Y5646980D01*
X-5438830Y5654360D01*
X-5445520Y5663040D01*
X-5450100Y5672650D01*
X-5452740Y5682790D01*
X-5453590Y5690540D01*
Y5693120D01*
Y5752920D01*
Y5755210D01*
X-5454650Y5762060D01*
X-5458100Y5768350D01*
X-5464330Y5772030D01*
X-5471390Y5773280D01*
X-5473750Y5773300D01*
Y5777510D01*
X-5421700D01*
G37*
G36*
G01X-5502850Y5707080D02*
X-5504930Y5708520D01*
X-5511310Y5712660D01*
X-5519240Y5717160D01*
X-5526330Y5720160D01*
X-5530810Y5721250D01*
X-5532310D01*
X-5533920D01*
X-5538780Y5720120D01*
X-5544380Y5716270D01*
X-5548320Y5709110D01*
X-5549800Y5700770D01*
Y5697990D01*
Y5693090D01*
X-5549670Y5678380D01*
X-5549060Y5663610D01*
X-5547650Y5653580D01*
X-5546150Y5649150D01*
X-5545160Y5648150D01*
X-5544550Y5647550D01*
X-5540330Y5645220D01*
X-5534130Y5644000D01*
X-5532530Y5643940D01*
Y5639740D01*
X-5580150D01*
Y5643940D01*
X-5575280D01*
X-5573830D01*
X-5569480Y5644490D01*
X-5565580Y5646140D01*
X-5563440Y5648910D01*
X-5562840Y5651850D01*
X-5562880Y5652810D01*
X-5562910Y5654400D01*
X-5563250Y5659170D01*
X-5563850Y5666930D01*
X-5564400Y5678600D01*
X-5564650Y5692150D01*
Y5696660D01*
Y5700300D01*
X-5563060Y5711200D01*
X-5558450Y5721590D01*
X-5551010Y5727820D01*
X-5543470Y5729890D01*
X-5540950D01*
X-5536560D01*
X-5523400Y5724630D01*
X-5506560Y5714720D01*
X-5502850Y5712390D01*
Y5729670D01*
X-5499310D01*
X-5473840Y5720370D01*
Y5716820D01*
X-5481370Y5715260D01*
X-5482250Y5715100D01*
X-5484830Y5714270D01*
X-5486850Y5712500D01*
X-5487780Y5709410D01*
X-5488020Y5705670D01*
Y5704410D01*
Y5657900D01*
Y5656450D01*
X-5487060Y5652080D01*
X-5484240Y5647690D01*
X-5479600Y5644910D01*
X-5474780Y5643940D01*
X-5473170D01*
Y5639740D01*
X-5517700D01*
Y5643940D01*
X-5515850D01*
X-5510330Y5644590D01*
X-5505780Y5646910D01*
X-5503480Y5651520D01*
X-5502850Y5657140D01*
Y5659010D01*
Y5707080D01*
G37*
G36*
G01X-5096430Y5810110D02*
X-5094140Y5798010D01*
X-5088370Y5788870D01*
X-5083560Y5783530D01*
X-5081960Y5781770D01*
X-5080250Y5779900D01*
X-5075390Y5774030D01*
X-5070330Y5765380D01*
X-5067360Y5754250D01*
X-5066830Y5742830D01*
X-5067100Y5739060D01*
X-5067930Y5739770D01*
X-5070480Y5741840D01*
X-5076970Y5747120D01*
X-5086120Y5754500D01*
X-5097460Y5763650D01*
X-5110550Y5774190D01*
X-5124900Y5785730D01*
X-5140070Y5797930D01*
X-5155590Y5810410D01*
X-5171000Y5822800D01*
X-5185860Y5834730D01*
X-5199690Y5845840D01*
X-5212030Y5855750D01*
X-5222440Y5864110D01*
X-5230440Y5870530D01*
X-5235580Y5874650D01*
X-5237400Y5876110D01*
X-5235970Y5874270D01*
X-5231960Y5869060D01*
X-5225710Y5860940D01*
X-5217580Y5850370D01*
X-5207920Y5837830D01*
X-5197090Y5823760D01*
X-5185440Y5808630D01*
X-5173350Y5792910D01*
X-5161150Y5777050D01*
X-5149210Y5761520D01*
X-5137880Y5746780D01*
X-5127530Y5733300D01*
X-5118500Y5721520D01*
X-5111160Y5711940D01*
X-5105870Y5704990D01*
X-5103680Y5702100D01*
X-5102970Y5701130D01*
X-5106530Y5700750D01*
X-5117440Y5701240D01*
X-5129620Y5704810D01*
X-5140150Y5711560D01*
X-5147510Y5718650D01*
X-5149680Y5721240D01*
X-5152020Y5724030D01*
X-5161750Y5730140D01*
X-5174630Y5732110D01*
X-5186840Y5730180D01*
X-5194420Y5728050D01*
X-5196960Y5727400D01*
X-5199930Y5726640D01*
X-5209350Y5726250D01*
X-5219960Y5729550D01*
X-5229270Y5737170D01*
X-5235890Y5745880D01*
X-5237740Y5748990D01*
X-5237440Y5744840D01*
X-5235060Y5732490D01*
X-5230140Y5720300D01*
X-5223640Y5711750D01*
X-5216190Y5706210D01*
X-5208440Y5703000D01*
X-5201020Y5701490D01*
X-5194580Y5701000D01*
X-5190970Y5700950D01*
X-5189770Y5700900D01*
X-5188260Y5700850D01*
X-5183780Y5700210D01*
X-5179130Y5698640D01*
X-5175540Y5696320D01*
X-5172740Y5693380D01*
X-5170430Y5689960D01*
X-5168340Y5686180D01*
X-5166210Y5682170D01*
X-5164390Y5679060D01*
X-5163730Y5678060D01*
X-5162390Y5676060D01*
X-5156210Y5671490D01*
X-5145010Y5667100D01*
X-5131680Y5664770D01*
X-5121280Y5664230D01*
X-5117820Y5664350D01*
X-5121310Y5661830D01*
X-5133030Y5656000D01*
X-5151280Y5649780D01*
X-5170990Y5645380D01*
X-5190620Y5642480D01*
X-5208600Y5640790D01*
X-5223370Y5639970D01*
X-5233370Y5639700D01*
X-5237060Y5639680D01*
X-5236830Y5639550D01*
X-5231230Y5637620D01*
X-5213960Y5633190D01*
X-5193050Y5630210D01*
X-5173740Y5629960D01*
X-5155710Y5631810D01*
X-5138580Y5635100D01*
X-5122020Y5639190D01*
X-5105690Y5643450D01*
X-5093380Y5646390D01*
X-5089250Y5647220D01*
X-5088820Y5652580D01*
X-5084210Y5668400D01*
X-5071990Y5690040D01*
X-5052240Y5709200D01*
X-5031880Y5720640D01*
X-5024620Y5722950D01*
X-5028250Y5721190D01*
X-5038600Y5714730D01*
X-5049590Y5705470D01*
X-5057930Y5695550D01*
X-5063990Y5685360D01*
X-5068100Y5675320D01*
X-5070630Y5665790D01*
X-5071920Y5657170D01*
X-5072310Y5651690D01*
X-5072330Y5649860D01*
X-5068320Y5650300D01*
X-5056210Y5650750D01*
X-5039150Y5649670D01*
X-5020900Y5646150D01*
X-5006000Y5641590D01*
X-5001180Y5639680D01*
X-5000630D01*
Y5642350D01*
Y5649850D01*
Y5661510D01*
Y5676640D01*
Y5694530D01*
Y5714510D01*
Y5735870D01*
Y5757920D01*
Y5779980D01*
Y5801340D01*
Y5821320D01*
Y5839220D01*
Y5854350D01*
Y5866010D01*
Y5873520D01*
Y5875510D01*
Y5876170D01*
X-5001470Y5872890D01*
X-5003890Y5863000D01*
X-5008010Y5845910D01*
X-5012620Y5826560D01*
X-5017350Y5806620D01*
X-5021810Y5787760D01*
X-5025640Y5771610D01*
X-5028450Y5759860D01*
X-5029470Y5755560D01*
X-5029870Y5754130D01*
X-5029950Y5757600D01*
X-5030640Y5767960D01*
X-5032930Y5781800D01*
X-5037780Y5793800D01*
X-5043710Y5800730D01*
X-5046200Y5802100D01*
X-5046780Y5802420D01*
X-5048620Y5803200D01*
X-5051610Y5804440D01*
X-5054860Y5806030D01*
X-5058080Y5808230D01*
X-5060950Y5811270D01*
X-5063150Y5815390D01*
X-5064390Y5820820D01*
X-5064530Y5826070D01*
X-5064370Y5827800D01*
X-5064070Y5830770D01*
X-5064520Y5839780D01*
X-5067180Y5849820D01*
X-5071880Y5858040D01*
X-5078120Y5864590D01*
X-5085400Y5869580D01*
X-5093220Y5873140D01*
X-5101120Y5875380D01*
X-5106690Y5876320D01*
X-5108570Y5876450D01*
X-5104880Y5873520D01*
X-5094850Y5863390D01*
X-5088390Y5851570D01*
X-5087980Y5839600D01*
X-5091020Y5829330D01*
X-5092460Y5826080D01*
X-5094090Y5822380D01*
X-5096430Y5810110D01*
G37*
G36*
G01X-4968280Y5618630D02*
X-4943540Y5625140D01*
X-4914850Y5626930D01*
X-4888520Y5623320D01*
X-4863040Y5616910D01*
X-4836950Y5610310D01*
X-4808730Y5606120D01*
X-4776910Y5606940D01*
X-4748940Y5612440D01*
X-4740000Y5615370D01*
Y5613330D01*
Y5606280D01*
Y5594920D01*
Y5579960D01*
Y5562140D01*
Y5542110D01*
Y5520640D01*
Y5498400D01*
Y5476130D01*
Y5454520D01*
Y5434280D01*
Y5416140D01*
Y5400790D01*
Y5388940D01*
Y5381310D01*
Y5379290D01*
Y5378600D01*
X-4745720Y5377220D01*
X-4763100Y5373770D01*
X-4783560Y5371010D01*
X-4801700Y5370000D01*
X-4817840Y5370460D01*
X-4832320Y5372080D01*
X-4845470Y5374540D01*
X-4857620Y5377540D01*
X-4869090Y5380780D01*
X-4880210Y5383960D01*
X-4891320Y5386760D01*
X-4902740Y5388890D01*
X-4914800Y5390030D01*
X-4927840Y5389870D01*
X-4942180Y5388120D01*
X-4958140Y5384460D01*
X-4971660Y5380250D01*
X-4976080Y5378600D01*
X-4976070Y5380760D01*
Y5387900D01*
X-4976080Y5399320D01*
Y5414310D01*
Y5432160D01*
Y5452170D01*
Y5473630D01*
Y5495840D01*
Y5518080D01*
Y5539660D01*
X-4976100Y5559840D01*
X-4976080Y5577950D01*
Y5593270D01*
Y5605080D01*
Y5612680D01*
Y5615370D01*
X-4968280Y5618630D01*
G37*
G36*
G01X-4927650Y5876170D02*
Y5850640D01*
X-4897840D01*
Y5876170D01*
X-4870430D01*
Y5850640D01*
X-4843020D01*
Y5876170D01*
X-4815840D01*
Y5850640D01*
X-4788200D01*
Y5876170D01*
X-4740000D01*
Y5873510D01*
Y5865960D01*
Y5854260D01*
Y5839080D01*
Y5821110D01*
Y5801070D01*
Y5779640D01*
Y5757530D01*
Y5735430D01*
Y5714040D01*
Y5694070D01*
Y5676190D01*
Y5661120D01*
Y5649540D01*
Y5642170D01*
Y5639680D01*
X-4748540Y5636720D01*
X-4775320Y5631120D01*
X-4806240Y5630120D01*
X-4834120Y5634110D01*
X-4860340Y5640540D01*
X-4886280Y5646880D01*
X-4913300Y5650540D01*
X-4942760Y5649000D01*
X-4968070Y5642840D01*
X-4976080Y5639680D01*
Y5640510D01*
Y5642970D01*
Y5650940D01*
Y5662920D01*
Y5678240D01*
Y5696220D01*
Y5716180D01*
Y5737450D01*
Y5759360D01*
Y5781210D01*
Y5802350D01*
Y5822090D01*
Y5839750D01*
Y5854680D01*
Y5866170D01*
Y5873560D01*
Y5876170D01*
X-4927650D01*
G37*
%LPC*%
G75*
G36*
G01X-6300830Y5471800D02*
X-6299210Y5486810D01*
X-6294550Y5505030D01*
X-6287080Y5521170D01*
X-6277040Y5534980D01*
X-6264700Y5546180D01*
X-6250300Y5554510D01*
X-6234080Y5559700D01*
X-6220740Y5561490D01*
X-6211730D01*
X-6198050Y5559320D01*
X-6182640Y5553280D01*
X-6169950Y5544100D01*
X-6159840Y5532520D01*
X-6152210Y5519250D01*
X-6146910Y5505030D01*
X-6143820Y5490590D01*
X-6142830Y5480140D01*
Y5471620D01*
X-6144550Y5456520D01*
X-6149500Y5438200D01*
X-6157360Y5421960D01*
X-6167800Y5408070D01*
X-6180490Y5396790D01*
X-6195110Y5388410D01*
X-6211340Y5383190D01*
X-6224470Y5381380D01*
X-6233110D01*
X-6245910Y5383310D01*
X-6260630Y5388760D01*
X-6273020Y5397230D01*
X-6283090Y5408180D01*
X-6290880Y5421130D01*
X-6296420Y5435560D01*
X-6299730Y5450950D01*
X-6300830Y5462840D01*
Y5471800D01*
G37*
G36*
G01X-6279800Y5685760D02*
X-6282480Y5671650D01*
X-6289820Y5656380D01*
X-6300730Y5646140D01*
X-6310770Y5642390D01*
X-6315360D01*
X-6319070Y5643010D01*
X-6324000Y5644820D01*
X-6328700Y5647770D01*
X-6332990Y5651810D01*
X-6336660Y5656890D01*
X-6339510Y5662960D01*
X-6341380Y5669960D01*
X-6342040Y5675860D01*
Y5682320D01*
X-6339330Y5695790D01*
X-6331960Y5710670D01*
X-6321100Y5720830D01*
X-6311220Y5724570D01*
X-6306570D01*
X-6302520Y5723890D01*
X-6297360Y5721930D01*
X-6292600Y5718810D01*
X-6288380Y5714670D01*
X-6284840Y5709630D01*
X-6282140Y5703830D01*
X-6280400Y5697400D01*
X-6279800Y5692200D01*
Y5685760D01*
G37*
G36*
G01X-5566560Y5462310D02*
X-5583510Y5465060D01*
X-5600850Y5473820D01*
X-5611970Y5489280D01*
X-5615890Y5506470D01*
Y5514720D01*
X-5615260Y5522290D01*
X-5613210Y5531620D01*
X-5609500Y5540000D01*
X-5603870Y5547260D01*
X-5596090Y5553210D01*
X-5585900Y5557700D01*
X-5573060Y5560520D01*
X-5561270Y5561490D01*
X-5555430D01*
X-5549750Y5561410D01*
X-5543740Y5561040D01*
X-5542400Y5560890D01*
Y5462910D01*
X-5544180Y5462690D01*
X-5551770Y5462280D01*
X-5558630Y5462310D01*
X-5566560D01*
G37*
G36*
G01X-5807550Y5701760D02*
X-5807120Y5704270D01*
X-5804580Y5711580D01*
X-5799660Y5719120D01*
X-5793190Y5723970D01*
X-5787510Y5725680D01*
X-5784110D01*
X-5779580Y5724840D01*
X-5773040Y5721450D01*
X-5766930Y5714190D01*
X-5762920Y5704970D01*
X-5762140Y5701760D01*
X-5807550D01*
G37*
G36*
G01X-5366160Y5417510D02*
Y5415560D01*
X-5366590Y5409680D01*
X-5367950Y5403130D01*
X-5370310Y5397800D01*
X-5373770Y5393610D01*
X-5378410Y5390500D01*
X-5384300Y5388350D01*
X-5391550Y5387130D01*
X-5398040Y5386740D01*
X-5403590D01*
X-5413710Y5387840D01*
X-5424780Y5390930D01*
X-5433610Y5395720D01*
X-5440390Y5401900D01*
X-5445320Y5409170D01*
X-5448600Y5417240D01*
X-5450420Y5425790D01*
X-5451000Y5432340D01*
Y5438780D01*
X-5447690Y5451510D01*
X-5437810Y5466460D01*
X-5421370Y5477090D01*
X-5404150Y5481140D01*
X-5366160D01*
Y5417510D01*
G37*
G36*
G01Y5486800D02*
X-5403420D01*
X-5417540Y5488950D01*
X-5430980Y5495400D01*
X-5439050Y5506210D01*
X-5441740Y5517650D01*
Y5525230D01*
X-5439190Y5536530D01*
X-5430870Y5549310D01*
X-5415650Y5558180D01*
X-5398250Y5561490D01*
X-5389240D01*
X-5379640Y5561150D01*
X-5368030Y5560660D01*
X-5366160Y5560580D01*
Y5486800D01*
G37*
G36*
G01X-5148980Y5435610D02*
X-5150730Y5437560D01*
X-5152370Y5440040D01*
X-5153310Y5441950D01*
X-5153620Y5442700D01*
X-5154230Y5441930D01*
X-5155930Y5439860D01*
X-5158480Y5436950D01*
X-5160850Y5434430D01*
X-5161670Y5433620D01*
X-5161450Y5433270D01*
X-5160350Y5432460D01*
X-5157550Y5430420D01*
X-5153740Y5427810D01*
X-5149420Y5424930D01*
X-5145090Y5422090D01*
X-5141290Y5419590D01*
X-5138480Y5417740D01*
X-5137420Y5417050D01*
X-5137180Y5416830D01*
X-5136920Y5416620D01*
X-5135270Y5416310D01*
X-5133530Y5416920D01*
X-5133240Y5417170D01*
X-5133000Y5417380D01*
X-5131920Y5417550D01*
X-5130710Y5416940D01*
X-5130040Y5415690D01*
X-5130180Y5414470D01*
X-5130380Y5414150D01*
X-5130780Y5413520D01*
X-5131710Y5411210D01*
X-5131860Y5410150D01*
X-5130940Y5409190D01*
X-5128380Y5406990D01*
X-5124480Y5404570D01*
X-5120800Y5403160D01*
X-5119530Y5402960D01*
X-5119350Y5403130D01*
X-5119570Y5404910D01*
X-5120510Y5408920D01*
X-5122080Y5413770D01*
X-5123430Y5417180D01*
X-5123980Y5418270D01*
X-5124520Y5419330D01*
X-5126690Y5422570D01*
X-5129250Y5424380D01*
X-5129980Y5424720D01*
X-5130700Y5425060D01*
X-5133540Y5426480D01*
X-5138820Y5429250D01*
X-5144260Y5432330D01*
X-5147370Y5434280D01*
X-5148310Y5435050D01*
X-5148980Y5435610D01*
G37*
G36*
G01X-5182670Y5587770D02*
X-5178850Y5584240D01*
X-5175810Y5579260D01*
X-5174620Y5573980D01*
X-5174910Y5568670D01*
X-5176300Y5563600D01*
X-5178430Y5559040D01*
X-5180920Y5555260D01*
X-5182730Y5553140D01*
X-5183430Y5552520D01*
X-5182500Y5554670D01*
X-5180540Y5561500D01*
X-5179910Y5569210D01*
X-5181100Y5575660D01*
X-5183710Y5580900D01*
X-5187310Y5584930D01*
X-5191510Y5587780D01*
X-5195900Y5589480D01*
X-5199000Y5590040D01*
X-5201160D01*
X-5204510Y5589840D01*
X-5209080Y5588820D01*
X-5213350Y5586380D01*
X-5216270Y5583170D01*
X-5216950Y5581930D01*
X-5217850Y5580300D01*
X-5218950Y5574490D01*
X-5217230Y5568560D01*
X-5213540Y5564560D01*
X-5210640Y5563040D01*
X-5209640Y5562970D01*
X-5210780Y5563500D01*
X-5213760Y5566060D01*
X-5215540Y5569770D01*
X-5215470Y5573480D01*
X-5214580Y5575900D01*
X-5214090Y5576560D01*
X-5213340Y5577610D01*
X-5209530Y5579630D01*
X-5203770Y5579680D01*
X-5198470Y5577110D01*
X-5195620Y5573650D01*
X-5195250Y5572340D01*
X-5194720Y5570480D01*
X-5194800Y5564440D01*
X-5197320Y5557880D01*
X-5201070Y5552100D01*
X-5203700Y5547990D01*
X-5204330Y5546520D01*
X-5205160Y5547690D01*
X-5208880Y5550300D01*
X-5214750Y5551750D01*
X-5220690Y5550670D01*
X-5224560Y5548060D01*
X-5225400Y5546870D01*
X-5224170Y5546810D01*
X-5219000Y5545810D01*
X-5215200Y5544010D01*
X-5214670Y5543550D01*
X-5213400Y5542480D01*
X-5211210Y5537390D01*
X-5210930Y5529760D01*
X-5210750Y5521510D01*
X-5208830Y5515180D01*
X-5207590Y5513520D01*
X-5206750Y5512130D01*
X-5203240Y5508560D01*
X-5196860Y5504840D01*
X-5189150Y5503690D01*
X-5182660Y5505330D01*
X-5180860Y5506440D01*
X-5182100Y5506890D01*
X-5185600Y5508840D01*
X-5189400Y5512570D01*
X-5191280Y5517820D01*
X-5190850Y5523150D01*
X-5190280Y5524760D01*
X-5189550Y5526840D01*
X-5186440Y5532740D01*
X-5182060Y5538050D01*
X-5177180Y5542980D01*
X-5173010Y5548020D01*
X-5171840Y5549830D01*
X-5170580Y5551760D01*
X-5168390Y5558560D01*
X-5167940Y5569770D01*
X-5172500Y5580720D01*
X-5180900Y5587540D01*
X-5184110Y5588660D01*
X-5182670Y5587770D01*
G37*
G36*
G01X-5060650Y5496980D02*
X-5061250Y5492450D01*
X-5062420Y5488130D01*
X-5062770Y5487590D01*
X-5062220Y5487370D01*
X-5059090Y5486620D01*
X-5057050Y5486330D01*
X-5055790Y5487370D01*
X-5052900Y5489730D01*
X-5049730Y5492400D01*
X-5048000Y5493910D01*
X-5047620Y5494290D01*
X-5047550Y5494350D01*
X-5046250Y5494950D01*
X-5046150Y5494930D01*
X-5045940Y5494900D01*
X-5043630Y5494230D01*
X-5043420Y5494120D01*
X-5043280Y5494060D01*
X-5042470Y5493100D01*
X-5042430Y5493010D01*
X-5042180Y5492510D01*
X-5041380Y5490110D01*
X-5039960Y5485510D01*
X-5038580Y5480730D01*
X-5037830Y5478050D01*
X-5037630Y5477300D01*
X-5037430Y5476560D01*
X-5036300Y5474430D01*
X-5034730Y5473500D01*
X-5034330Y5473370D01*
X-5033980Y5473270D01*
X-5033190Y5471300D01*
X-5033720Y5469360D01*
X-5034040Y5469260D01*
X-5034650Y5469070D01*
X-5036330Y5467990D01*
X-5037040Y5466530D01*
X-5036920Y5465340D01*
X-5036720Y5464860D01*
X-5036710Y5464430D01*
X-5035930Y5461460D01*
X-5034030Y5457140D01*
X-5031660Y5453630D01*
X-5030680Y5452640D01*
X-5030050Y5453870D01*
X-5028120Y5459540D01*
X-5027210Y5463320D01*
X-5027100Y5463600D01*
X-5026980Y5463890D01*
X-5026550Y5467090D01*
X-5026590Y5467370D01*
X-5026620Y5467660D01*
X-5026490Y5470990D01*
X-5026250Y5474370D01*
X-5026220Y5474690D01*
X-5026180Y5475000D01*
X-5027050Y5477760D01*
X-5027190Y5477990D01*
X-5027430Y5478440D01*
X-5028830Y5481100D01*
X-5031720Y5486760D01*
X-5034980Y5493520D01*
X-5037120Y5498310D01*
X-5037760Y5499930D01*
X-5037980Y5500520D01*
X-5039450Y5502000D01*
X-5042220Y5503740D01*
X-5045090Y5504810D01*
X-5046660Y5505070D01*
X-5047060Y5504890D01*
X-5047460Y5504730D01*
X-5048580Y5503990D01*
X-5050900Y5502440D01*
X-5054680Y5500310D01*
X-5059090Y5498250D01*
X-5060590Y5497640D01*
X-5060650Y5496980D01*
G37*
G36*
G01X-5070190Y5434650D02*
X-5069630Y5435100D01*
X-5066910Y5438050D01*
X-5064110Y5441050D01*
X-5063510Y5441500D01*
X-5062910Y5441960D01*
X-5060630Y5443230D01*
X-5058710Y5444380D01*
X-5058280Y5444760D01*
X-5057900Y5445110D01*
X-5056090Y5447020D01*
X-5054810Y5450380D01*
X-5054680Y5451440D01*
X-5054550Y5452510D01*
X-5053390Y5456130D01*
X-5051000Y5462360D01*
X-5048510Y5468080D01*
X-5047210Y5470840D01*
X-5046970Y5471230D01*
X-5046720Y5471630D01*
X-5046600Y5473230D01*
X-5047230Y5475580D01*
X-5048320Y5477760D01*
X-5049090Y5478940D01*
X-5049370Y5479280D01*
X-5049620Y5479580D01*
X-5051620Y5480480D01*
X-5054360Y5481050D01*
X-5054990Y5481190D01*
X-5055930Y5481400D01*
X-5061690Y5483370D01*
X-5066650Y5485270D01*
X-5067180Y5485440D01*
X-5066480Y5486780D01*
X-5064870Y5491050D01*
X-5063950Y5496060D01*
X-5064120Y5500420D01*
X-5065040Y5504110D01*
X-5066400Y5507100D01*
X-5067900Y5509370D01*
X-5069210Y5510860D01*
X-5069800Y5511430D01*
X-5070020Y5511570D01*
X-5070490Y5513870D01*
X-5072480Y5520640D01*
X-5075350Y5527570D01*
X-5078060Y5532500D01*
X-5079610Y5534840D01*
X-5080130Y5535560D01*
X-5081030Y5535750D01*
X-5083760Y5536400D01*
X-5087160Y5537980D01*
X-5090070Y5541230D01*
X-5091930Y5545540D01*
X-5092290Y5547040D01*
X-5092530Y5548050D01*
X-5092630Y5551210D01*
X-5091950Y5555100D01*
X-5090660Y5558300D01*
X-5089650Y5559950D01*
X-5089200Y5560400D01*
X-5089460Y5559110D01*
X-5089600Y5552540D01*
X-5087840Y5546450D01*
X-5087150Y5545400D01*
X-5086510Y5544450D01*
X-5083810Y5542120D01*
X-5080220Y5540630D01*
X-5077100Y5540270D01*
X-5075690Y5540290D01*
X-5074710D01*
X-5073200Y5540280D01*
X-5071710Y5539720D01*
X-5071450Y5539440D01*
X-5071220Y5539200D01*
X-5068870Y5537090D01*
X-5065960Y5534880D01*
X-5065450Y5534590D01*
X-5065060Y5534380D01*
X-5064170Y5533230D01*
X-5064000Y5531810D01*
X-5063960Y5531450D01*
X-5063910Y5531110D01*
X-5063530Y5529720D01*
X-5062470Y5528900D01*
X-5062090Y5528830D01*
X-5061690Y5528770D01*
X-5059280Y5529210D01*
X-5057370Y5529770D01*
X-5056430D01*
X-5055500Y5530670D01*
X-5056820Y5532510D01*
X-5057170Y5532980D01*
X-5057420Y5533340D01*
X-5058660Y5534080D01*
X-5059770Y5533950D01*
X-5060080Y5534020D01*
X-5060460Y5534110D01*
X-5062050Y5534790D01*
X-5063460Y5536220D01*
X-5063770Y5536670D01*
X-5063980Y5537000D01*
X-5064090Y5538320D01*
X-5062950Y5539170D01*
X-5061230Y5539230D01*
X-5060070Y5538820D01*
X-5059830Y5538560D01*
X-5059470Y5538190D01*
X-5057470Y5535760D01*
X-5055580Y5533420D01*
X-5055280Y5533070D01*
X-5054970Y5532730D01*
X-5053610Y5531810D01*
X-5052490Y5532500D01*
X-5052370Y5532820D01*
X-5052250Y5533130D01*
X-5051360Y5537320D01*
X-5051340Y5537610D01*
X-5050870Y5537740D01*
X-5049680Y5538850D01*
X-5049720Y5540570D01*
X-5050450Y5542090D01*
X-5050920Y5542750D01*
X-5061960Y5556230D01*
X-5060950Y5557390D01*
X-5060880Y5560100D01*
X-5061280Y5560740D01*
X-5061510Y5561130D01*
X-5062930Y5562930D01*
X-5066030Y5566500D01*
X-5069830Y5570390D01*
X-5072600Y5572880D01*
X-5073610Y5573590D01*
X-5073370Y5574250D01*
X-5069410Y5580900D01*
X-5068730Y5581550D01*
X-5069490Y5581420D01*
X-5071790Y5581040D01*
X-5074920Y5580110D01*
X-5078490Y5578050D01*
X-5081840Y5575170D01*
X-5082860Y5574100D01*
X-5083270Y5573680D01*
X-5085180Y5573050D01*
X-5085880Y5574330D01*
X-5085780Y5574620D01*
X-5085610Y5575110D01*
X-5084330Y5577330D01*
X-5082240Y5579990D01*
X-5081670Y5580700D01*
X-5083420Y5581160D01*
X-5088900Y5581720D01*
X-5095160Y5580990D01*
X-5100470Y5578980D01*
X-5104850Y5576150D01*
X-5108350Y5572980D01*
X-5110970Y5569910D01*
X-5112740Y5567420D01*
X-5113450Y5566320D01*
X-5113710Y5565970D01*
X-5112730Y5566030D01*
X-5108560Y5565820D01*
X-5105370Y5565180D01*
X-5104910Y5565030D01*
X-5104610Y5564930D01*
X-5103860Y5564200D01*
X-5105310Y5563600D01*
X-5105820Y5563540D01*
X-5106860Y5563420D01*
X-5109960Y5563020D01*
X-5112570Y5562620D01*
X-5114260Y5562260D01*
X-5115320Y5561970D01*
X-5115680Y5561860D01*
X-5116260Y5561190D01*
X-5117540Y5558740D01*
X-5118890Y5555000D01*
X-5119680Y5551790D01*
X-5119910Y5550390D01*
X-5119870Y5550290D01*
X-5119150Y5550260D01*
X-5115050Y5550390D01*
X-5110360Y5550320D01*
X-5109360Y5550170D01*
X-5108830Y5550100D01*
X-5107370Y5549100D01*
X-5108260Y5548270D01*
X-5108570Y5548230D01*
X-5109700Y5548090D01*
X-5115160Y5546930D01*
X-5120040Y5545300D01*
X-5120900Y5544920D01*
X-5121180Y5543350D01*
X-5121760Y5537290D01*
Y5534360D01*
X-5120470Y5534500D01*
X-5117490Y5534770D01*
X-5114110Y5535020D01*
X-5112170Y5535090D01*
X-5111650Y5535040D01*
X-5111360Y5535020D01*
X-5110580Y5533980D01*
X-5112140Y5532660D01*
X-5112670Y5532470D01*
X-5113150Y5532310D01*
X-5116700Y5530840D01*
X-5120580Y5528510D01*
X-5121240Y5527910D01*
X-5121230Y5527440D01*
X-5120730Y5523730D01*
X-5119830Y5519800D01*
X-5119640Y5519230D01*
X-5119450Y5518670D01*
X-5119720Y5516210D01*
X-5122210Y5514500D01*
X-5123130Y5514310D01*
X-5124950Y5513950D01*
X-5130450Y5512970D01*
X-5138010Y5511960D01*
X-5146550Y5511400D01*
X-5154300Y5511300D01*
X-5156880Y5511340D01*
X-5159180Y5511400D01*
X-5166130Y5510170D01*
X-5173670Y5506590D01*
X-5179460Y5501160D01*
X-5183450Y5494430D01*
X-5185620Y5486970D01*
X-5185910Y5479340D01*
X-5184300Y5472090D01*
X-5181860Y5467170D01*
X-5180750Y5465770D01*
X-5179840Y5464650D01*
X-5177430Y5461010D01*
X-5175700Y5457230D01*
X-5175130Y5454290D01*
X-5175160Y5452610D01*
X-5175270Y5452070D01*
X-5175550Y5450500D01*
X-5178700Y5443310D01*
X-5184190Y5437560D01*
X-5185650Y5436710D01*
X-5186070Y5436470D01*
X-5186930Y5435000D01*
X-5186670Y5432870D01*
X-5185670Y5430800D01*
X-5184950Y5429620D01*
X-5184740Y5429230D01*
X-5184530Y5428850D01*
X-5182630Y5425580D01*
X-5178650Y5418580D01*
X-5174330Y5410730D01*
X-5171900Y5406030D01*
X-5171260Y5404490D01*
X-5170960Y5403780D01*
X-5169180Y5401980D01*
X-5167710Y5401800D01*
X-5167500Y5401760D01*
X-5167280Y5401720D01*
X-5165410Y5400970D01*
X-5164120Y5398740D01*
X-5164180Y5398050D01*
X-5164230Y5397510D01*
X-5164160Y5395710D01*
X-5163990Y5394990D01*
X-5146690D01*
X-5146870Y5395620D01*
X-5149010Y5399250D01*
X-5154150Y5403430D01*
X-5155840Y5404330D01*
X-5156380Y5404610D01*
X-5159240Y5406890D01*
X-5161980Y5410010D01*
X-5162470Y5410720D01*
X-5162720Y5411100D01*
X-5164000Y5413300D01*
X-5166460Y5417680D01*
X-5168930Y5422240D01*
X-5170210Y5424740D01*
X-5170470Y5425350D01*
X-5170670Y5425840D01*
X-5170930Y5428810D01*
X-5170260Y5431660D01*
X-5170010Y5432080D01*
X-5169760Y5432520D01*
X-5168020Y5435300D01*
X-5165660Y5438140D01*
X-5165100Y5438590D01*
X-5163750Y5439670D01*
X-5159860Y5443080D01*
X-5155310Y5447940D01*
X-5150980Y5453980D01*
X-5147480Y5460010D01*
X-5146430Y5462060D01*
X-5146240Y5462420D01*
X-5145840Y5463570D01*
X-5144740Y5464660D01*
X-5141760Y5464800D01*
X-5137050Y5463900D01*
X-5135520Y5463490D01*
X-5131060Y5462310D01*
X-5117090Y5460940D01*
X-5102440Y5462270D01*
X-5092620Y5465080D01*
X-5088910Y5466740D01*
X-5088690Y5466920D01*
X-5088840Y5467840D01*
X-5089450Y5470560D01*
X-5090090Y5473790D01*
X-5090000Y5476480D01*
X-5089070Y5478170D01*
X-5088600Y5478510D01*
X-5088190Y5477700D01*
X-5086010Y5474110D01*
X-5083220Y5470560D01*
X-5082520Y5469770D01*
X-5082290Y5469520D01*
X-5080890Y5469070D01*
X-5078920Y5469220D01*
X-5078420Y5469260D01*
X-5077900Y5469310D01*
X-5075100Y5469650D01*
X-5069650Y5470380D01*
X-5064170Y5471160D01*
X-5061330Y5471620D01*
X-5060770Y5471740D01*
X-5060530Y5471790D01*
X-5059670Y5471620D01*
X-5058340Y5470800D01*
X-5057600Y5469140D01*
X-5057970Y5467040D01*
X-5058280Y5466430D01*
X-5058380Y5466260D01*
X-5059010Y5465100D01*
X-5060520Y5462520D01*
X-5062550Y5459180D01*
X-5064270Y5456450D01*
X-5064870Y5455550D01*
X-5065300Y5454910D01*
X-5065530Y5452250D01*
X-5065110Y5449890D01*
X-5065220Y5449390D01*
X-5065320Y5448920D01*
X-5066140Y5447410D01*
X-5067100Y5446950D01*
X-5067280Y5446980D01*
X-5067450Y5447030D01*
X-5068150Y5447580D01*
X-5069570Y5448550D01*
X-5071280Y5449030D01*
X-5072730Y5448520D01*
X-5073050Y5448190D01*
X-5073580Y5447620D01*
X-5075740Y5441890D01*
X-5077040Y5433830D01*
X-5077160Y5432080D01*
X-5076690Y5432050D01*
X-5073870Y5432600D01*
X-5070790Y5434180D01*
X-5070190Y5434650D01*
G37*
G36*
G01X-4825820Y5478920D02*
X-4827930Y5472740D01*
X-4831860Y5466460D01*
X-4832720Y5465020D01*
X-4833940Y5462970D01*
X-4837010Y5456420D01*
X-4839040Y5449280D01*
X-4839210Y5443500D01*
X-4837970Y5439000D01*
X-4835750Y5435660D01*
X-4832950Y5433410D01*
X-4830010Y5432130D01*
X-4828000Y5431740D01*
X-4827350D01*
X-4829060Y5433670D01*
X-4832730Y5440800D01*
X-4833280Y5449400D01*
X-4830760Y5457780D01*
X-4827880Y5464100D01*
X-4826930Y5466200D01*
X-4826160Y5467870D01*
X-4824570Y5473220D01*
X-4824450Y5477520D01*
X-4825310Y5479700D01*
X-4825880Y5480300D01*
X-4825820Y5478920D01*
G37*
G36*
G01X-4847370Y5581170D02*
X-4846170Y5578360D01*
X-4845620Y5575330D01*
X-4846050Y5572270D01*
X-4847250Y5569940D01*
X-4847820Y5569300D01*
X-4848450Y5568590D01*
X-4850880Y5566880D01*
X-4854140Y5565930D01*
X-4857420Y5566100D01*
X-4860540Y5567020D01*
X-4863280Y5568360D01*
X-4865470Y5569760D01*
X-4866920Y5570850D01*
X-4867460Y5571290D01*
X-4867640Y5570810D01*
X-4868230Y5569580D01*
X-4869300Y5567980D01*
X-4870950Y5566360D01*
X-4873240Y5565110D01*
X-4876250Y5564580D01*
X-4880070Y5565160D01*
X-4883650Y5566560D01*
X-4884760Y5567180D01*
X-4884780Y5566510D01*
X-4885050Y5564700D01*
X-4885840Y5562130D01*
X-4886940Y5559820D01*
X-4887410Y5559120D01*
X-4887820Y5558500D01*
X-4889260Y5556750D01*
X-4891250Y5554610D01*
X-4892860Y5553070D01*
X-4893520Y5552480D01*
X-4892750Y5552860D01*
X-4890340Y5553780D01*
X-4884900Y5555470D01*
X-4877730Y5557080D01*
X-4869320Y5558120D01*
X-4860210Y5558100D01*
X-4850910Y5556540D01*
X-4841950Y5552950D01*
X-4835610Y5548610D01*
X-4833830Y5546830D01*
X-4835110Y5547530D01*
X-4838770Y5549190D01*
X-4844520Y5551230D01*
X-4852070Y5553000D01*
X-4861140Y5553910D01*
X-4871440Y5553320D01*
X-4882700Y5550630D01*
X-4891810Y5546830D01*
X-4894630Y5545200D01*
X-4895080Y5545010D01*
X-4898270Y5543320D01*
X-4907090Y5536780D01*
X-4916140Y5526550D01*
X-4922020Y5514870D01*
X-4924480Y5502250D01*
X-4923280Y5489240D01*
X-4918190Y5476380D01*
X-4908970Y5464190D01*
X-4899040Y5455540D01*
X-4895400Y5453190D01*
X-4894070Y5452140D01*
X-4891110Y5447660D01*
X-4890670Y5442450D01*
X-4892210Y5438510D01*
X-4893520Y5436850D01*
X-4893890Y5436710D01*
X-4893730Y5437980D01*
X-4894400Y5443460D01*
X-4897130Y5447690D01*
X-4898010Y5448310D01*
X-4898900Y5446570D01*
X-4903820Y5442440D01*
X-4911730Y5440420D01*
X-4919820Y5441350D01*
X-4924820Y5443280D01*
X-4926200Y5444300D01*
X-4927450Y5445320D01*
X-4930170Y5449660D01*
X-4930530Y5455840D01*
X-4926750Y5461490D01*
X-4920500Y5464760D01*
X-4918290Y5465230D01*
X-4919150Y5465590D01*
X-4922100Y5466140D01*
X-4927730Y5465980D01*
X-4934310Y5463630D01*
X-4939570Y5459620D01*
X-4940950Y5457960D01*
X-4941720Y5457040D01*
X-4943530Y5453820D01*
X-4944710Y5449530D01*
X-4944600Y5445280D01*
X-4943320Y5441220D01*
X-4940990Y5437520D01*
X-4937730Y5434340D01*
X-4933660Y5431850D01*
X-4930120Y5430480D01*
X-4928910Y5430210D01*
X-4927970Y5429990D01*
X-4925290Y5428790D01*
X-4924680Y5427280D01*
X-4925830Y5425970D01*
X-4927060Y5425330D01*
X-4927500Y5425220D01*
X-4927990Y5425100D01*
X-4929520Y5424850D01*
X-4931750Y5424500D01*
X-4932490Y5424350D01*
X-4932260Y5423780D01*
X-4930470Y5422510D01*
X-4925750Y5421000D01*
X-4918320Y5420740D01*
X-4910650Y5421930D01*
X-4908190Y5422620D01*
X-4907680Y5422770D01*
X-4906100Y5423630D01*
X-4903460Y5424930D01*
X-4901090Y5425260D01*
X-4899860Y5423890D01*
X-4899790Y5423380D01*
X-4899710Y5422810D01*
X-4900980Y5419260D01*
X-4903100Y5416270D01*
X-4903450Y5415970D01*
X-4902290Y5415620D01*
X-4898550Y5415410D01*
X-4892640Y5416700D01*
X-4886990Y5420750D01*
X-4883490Y5426380D01*
X-4882880Y5428410D01*
X-4882580Y5429390D01*
X-4881020Y5432100D01*
X-4878960Y5432890D01*
X-4876930Y5431970D01*
X-4875650Y5430900D01*
X-4875230Y5430530D01*
X-4874500Y5429540D01*
X-4873100Y5425990D01*
X-4872390Y5421120D01*
X-4872850Y5416970D01*
X-4873740Y5414930D01*
X-4874250Y5414600D01*
X-4872260Y5414760D01*
X-4866380Y5416520D01*
X-4859810Y5420520D01*
X-4855040Y5426040D01*
X-4852610Y5432520D01*
X-4853040Y5439400D01*
X-4856860Y5446130D01*
X-4864590Y5452150D01*
X-4873620Y5456040D01*
X-4876750Y5456870D01*
X-4881000Y5458020D01*
X-4892540Y5466060D01*
X-4899060Y5479830D01*
X-4896430Y5494020D01*
X-4888160Y5502940D01*
X-4884750Y5504450D01*
X-4883310Y5505100D01*
X-4878630Y5506220D01*
X-4873420Y5506390D01*
X-4869800Y5505840D01*
X-4868440Y5505460D01*
X-4869740Y5507850D01*
X-4872240Y5515820D01*
X-4872560Y5523860D01*
X-4871340Y5529060D01*
X-4870510Y5530900D01*
X-4870160Y5529870D01*
X-4868480Y5526960D01*
X-4865340Y5523240D01*
X-4861540Y5519840D01*
X-4857470Y5516840D01*
X-4853580Y5514350D01*
X-4850270Y5512450D01*
X-4847980Y5511240D01*
X-4847130Y5510820D01*
X-4848470Y5511030D01*
X-4851780Y5511570D01*
X-4855880Y5512330D01*
X-4858710Y5512910D01*
X-4859640Y5513160D01*
X-4860700Y5513430D01*
X-4864460Y5516010D01*
X-4866090Y5518030D01*
X-4866480Y5516460D01*
X-4865280Y5511170D01*
X-4860440Y5505770D01*
X-4853790Y5500930D01*
X-4848960Y5497220D01*
X-4847610Y5495750D01*
X-4846330Y5494380D01*
X-4843130Y5489680D01*
X-4840640Y5483700D01*
X-4839700Y5478020D01*
X-4839900Y5472890D01*
X-4840790Y5468520D01*
X-4841960Y5465120D01*
X-4842980Y5462920D01*
X-4843410Y5462130D01*
X-4842190Y5462540D01*
X-4839270Y5464200D01*
X-4835690Y5467830D01*
X-4833080Y5472450D01*
X-4832550Y5474090D01*
X-4832040Y5475650D01*
X-4830000Y5480120D01*
X-4827610Y5483140D01*
X-4825560Y5484160D01*
X-4824390Y5484210D01*
X-4824020Y5484140D01*
X-4823670Y5484090D01*
X-4822690Y5483600D01*
X-4821420Y5481890D01*
X-4820590Y5478350D01*
X-4820480Y5473820D01*
X-4820580Y5472310D01*
X-4820710Y5470390D01*
X-4820990Y5464590D01*
X-4820980Y5458550D01*
X-4820470Y5453340D01*
X-4819730Y5449440D01*
X-4819250Y5447520D01*
X-4817850Y5444600D01*
X-4814240Y5439610D01*
X-4808750Y5435970D01*
X-4803080Y5435820D01*
X-4801530Y5436500D01*
X-4800830Y5436820D01*
X-4798990Y5438280D01*
X-4797650Y5440570D01*
X-4797380Y5443090D01*
X-4798090Y5445520D01*
X-4799670Y5447580D01*
X-4802010Y5448920D01*
X-4805000Y5449260D01*
X-4807720Y5448660D01*
X-4808540Y5448280D01*
X-4809450Y5448670D01*
X-4811530Y5450270D01*
X-4813760Y5453770D01*
X-4815010Y5458290D01*
X-4815140Y5459810D01*
X-4815100Y5459620D01*
X-4814920Y5459150D01*
X-4813140Y5456940D01*
X-4809880Y5455130D01*
X-4808990Y5454840D01*
X-4806490Y5454060D01*
X-4797910Y5455190D01*
X-4789140Y5462720D01*
X-4783820Y5475920D01*
X-4782650Y5489070D01*
X-4783090Y5493360D01*
X-4783450Y5496990D01*
X-4785970Y5507740D01*
X-4790110Y5517570D01*
X-4793840Y5523210D01*
X-4795460Y5525000D01*
X-4795020Y5526740D01*
X-4794480Y5531520D01*
X-4794950Y5538680D01*
X-4797560Y5547570D01*
X-4803440Y5557530D01*
X-4813730Y5567910D01*
X-4829540Y5578050D01*
X-4846250Y5585420D01*
X-4852010Y5587300D01*
X-4851540Y5586850D01*
X-4850400Y5585570D01*
X-4848890Y5583630D01*
X-4847370Y5581170D01*
G37*
G36*
G01X-4910820Y5749070D02*
X-4901130Y5750480D01*
X-4892740Y5750230D01*
X-4888160Y5749000D01*
X-4886780Y5748250D01*
X-4886860Y5749240D01*
X-4887400Y5752070D01*
X-4888780Y5756540D01*
X-4891430Y5762450D01*
X-4895730Y5769620D01*
X-4902090Y5777850D01*
X-4910930Y5786940D01*
X-4919600Y5794390D01*
X-4922640Y5796690D01*
X-4920930Y5793270D01*
X-4916980Y5782410D01*
X-4914020Y5768960D01*
X-4913190Y5757280D01*
X-4913550Y5750470D01*
X-4913960Y5748250D01*
X-4910820Y5749070D01*
G37*
G36*
G01X-4823480Y5676920D02*
X-4820480Y5680110D01*
X-4816510Y5685870D01*
X-4813180Y5692910D01*
X-4811320Y5698760D01*
X-4810940Y5700740D01*
X-4810660Y5702160D01*
X-4808550Y5706130D01*
X-4804990Y5709290D01*
X-4801730Y5710770D01*
X-4800320Y5711130D01*
X-4798950Y5717880D01*
X-4800050Y5717720D01*
X-4803000Y5717290D01*
X-4807240Y5716670D01*
X-4812250Y5715940D01*
X-4817460Y5715190D01*
X-4822350Y5714510D01*
X-4826370Y5713970D01*
X-4828320Y5713710D01*
X-4828980Y5713650D01*
X-4830010Y5712010D01*
X-4834250Y5707810D01*
X-4840460Y5704220D01*
X-4846580Y5702400D01*
X-4850340Y5701890D01*
X-4851600D01*
X-4851620Y5704420D01*
X-4851660Y5710040D01*
X-4851700Y5715850D01*
X-4851710Y5718660D01*
Y5718890D01*
X-4852020Y5719340D01*
X-4855100Y5721270D01*
X-4857530Y5722310D01*
X-4857760Y5702110D01*
X-4860200D01*
X-4867490Y5703640D01*
X-4875290Y5707630D01*
X-4880440Y5713210D01*
X-4882240Y5717930D01*
X-4882200Y5719480D01*
X-4882160Y5721210D01*
X-4880120Y5726330D01*
X-4874530Y5732000D01*
X-4865810Y5735810D01*
X-4857200Y5737110D01*
X-4854340Y5737060D01*
X-4851630Y5737010D01*
X-4843520Y5735520D01*
X-4836190Y5732230D01*
X-4831710Y5728450D01*
X-4829900Y5726160D01*
X-4829440Y5725410D01*
X-4827690Y5727160D01*
X-4823170Y5733130D01*
X-4819190Y5740920D01*
X-4817090Y5748450D01*
X-4816370Y5755360D01*
X-4816600Y5761340D01*
X-4817330Y5766030D01*
X-4818110Y5769100D01*
X-4818470Y5770190D01*
X-4817750Y5769630D01*
X-4815990Y5767890D01*
X-4813770Y5764900D01*
X-4811710Y5760580D01*
X-4810370Y5754870D01*
Y5747690D01*
X-4812310Y5738970D01*
X-4815450Y5731100D01*
X-4816760Y5728610D01*
X-4815280Y5729010D01*
X-4810710Y5729700D01*
X-4805070Y5729730D01*
X-4799960Y5728870D01*
X-4795500Y5727300D01*
X-4791830Y5725200D01*
X-4789090Y5722740D01*
X-4787380Y5720090D01*
X-4786810Y5718080D01*
X-4786840Y5717420D01*
X-4786810Y5716310D01*
X-4787710Y5712950D01*
X-4790500Y5709330D01*
X-4795200Y5706840D01*
X-4800130Y5705830D01*
X-4801800Y5705770D01*
X-4798820Y5705190D01*
X-4789730Y5704330D01*
X-4780210Y5705020D01*
X-4773240Y5707430D01*
X-4768760Y5711110D01*
X-4766760Y5715630D01*
X-4767200Y5720580D01*
X-4770060Y5725510D01*
X-4773860Y5729060D01*
X-4775310Y5729980D01*
X-4776480Y5729790D01*
X-4780010Y5729180D01*
X-4782990Y5728650D01*
X-4785480Y5728160D01*
X-4787960Y5727650D01*
X-4788780Y5727480D01*
X-4786030Y5730230D01*
X-4780280Y5740980D01*
X-4779540Y5754440D01*
X-4784690Y5766350D01*
X-4791200Y5773510D01*
X-4793810Y5775210D01*
X-4797100Y5775810D01*
X-4806990Y5777560D01*
X-4816420Y5779150D01*
X-4822080Y5780060D01*
X-4823960Y5780350D01*
X-4825620Y5782620D01*
X-4829910Y5788000D01*
X-4835780Y5794320D01*
X-4840480Y5798390D01*
X-4842240Y5799420D01*
X-4845310Y5799710D01*
X-4856070Y5801050D01*
X-4874490Y5803510D01*
X-4890600Y5805750D01*
X-4897510Y5806730D01*
X-4895850Y5805090D01*
X-4891830Y5800400D01*
X-4886830Y5793080D01*
X-4882250Y5783530D01*
X-4879460Y5772170D01*
X-4879870Y5759380D01*
X-4884870Y5745560D01*
X-4892690Y5734330D01*
X-4895850Y5731130D01*
X-4907940D01*
X-4919110Y5731120D01*
X-4927320Y5731110D01*
X-4930520Y5731100D01*
X-4930370Y5730110D01*
X-4929970Y5727490D01*
X-4929360Y5723810D01*
X-4928780Y5720640D01*
X-4928580Y5719590D01*
X-4927720Y5719510D01*
X-4924490Y5719210D01*
X-4922300Y5719050D01*
X-4921960Y5719020D01*
X-4921880Y5715990D01*
X-4920010Y5706900D01*
X-4916180Y5697600D01*
X-4912450Y5691650D01*
X-4910760Y5689550D01*
X-4911650Y5689430D01*
X-4914110Y5689030D01*
X-4917830Y5688330D01*
X-4922490Y5687270D01*
X-4927790Y5685830D01*
X-4933400Y5683970D01*
X-4939020Y5681650D01*
X-4943050Y5679610D01*
X-4944330Y5678820D01*
X-4937200Y5680180D01*
X-4915390Y5682050D01*
X-4892230Y5680520D01*
X-4873190Y5675950D01*
X-4856620Y5669990D01*
X-4840860Y5664380D01*
X-4824260Y5660790D01*
X-4805160Y5660930D01*
X-4787540Y5664570D01*
X-4781920Y5666480D01*
X-4785720Y5665420D01*
X-4797600Y5663860D01*
X-4812190Y5664510D01*
X-4825840Y5667600D01*
X-4838690Y5672280D01*
X-4850900Y5677720D01*
X-4862620Y5683090D01*
X-4873990Y5687550D01*
X-4882340Y5689850D01*
X-4885180Y5690240D01*
X-4879780Y5690310D01*
X-4863580Y5688390D01*
X-4846770Y5683800D01*
X-4834040Y5678880D01*
X-4827040Y5676360D01*
X-4824650Y5676070D01*
X-4823480Y5676920D01*
G37*
G36*
G01X-4799180Y5807520D02*
X-4793450Y5809010D01*
X-4789510Y5811940D01*
X-4788280Y5815040D01*
X-4788470Y5816760D01*
X-4788780Y5817130D01*
Y5816940D01*
X-4788910Y5816380D01*
X-4789560Y5815220D01*
X-4791060Y5814030D01*
X-4793760Y5813160D01*
X-4798010Y5812990D01*
X-4804140Y5813880D01*
X-4812530Y5816210D01*
X-4820790Y5819210D01*
X-4823500Y5820320D01*
X-4824620Y5820790D01*
X-4828110Y5821940D01*
X-4830360Y5822040D01*
X-4831000Y5821090D01*
X-4830890Y5819910D01*
X-4830810Y5819530D01*
X-4830710Y5819050D01*
X-4830380Y5817610D01*
X-4830200Y5815670D01*
X-4830960Y5814350D01*
X-4832760Y5814150D01*
X-4833330Y5814270D01*
X-4835580Y5814780D01*
X-4842170Y5817100D01*
X-4849690Y5820640D01*
X-4855060Y5823800D01*
X-4857280Y5825290D01*
X-4857530Y5825460D01*
Y5810620D01*
X-4857080Y5810400D01*
X-4854310Y5809220D01*
X-4848130Y5806930D01*
X-4840210Y5804650D01*
X-4833850Y5803450D01*
X-4831730Y5803310D01*
X-4830930Y5803260D01*
X-4828530Y5803580D01*
X-4826490Y5804720D01*
X-4825390Y5806440D01*
X-4825020Y5808480D01*
X-4825110Y5810550D01*
X-4825460Y5812370D01*
X-4825830Y5813670D01*
X-4826010Y5814160D01*
X-4825790Y5814020D01*
X-4823280Y5812790D01*
X-4817310Y5810370D01*
X-4809460Y5808160D01*
X-4803180Y5807320D01*
X-4801110Y5807420D01*
X-4799180Y5807520D01*
G37*
%LPD*%
G75*
G36*
G01X-4811910Y5474640D02*
X-4812050Y5473160D01*
X-4813060Y5471390D01*
X-4813550Y5470950D01*
X-4813470Y5470880D01*
X-4811390Y5471520D01*
X-4809030Y5473920D01*
X-4808820Y5474700D01*
X-4808500Y5476710D01*
X-4808690Y5480360D01*
X-4808950Y5481180D01*
X-4809110Y5481690D01*
X-4810250Y5483010D01*
X-4812130Y5483600D01*
X-4813950Y5483080D01*
X-4814960Y5482000D01*
X-4815080Y5481570D01*
X-4815210Y5481110D01*
X-4815320Y5479640D01*
X-4814980Y5477510D01*
X-4813880Y5475770D01*
X-4812360Y5474970D01*
X-4811840Y5474930D01*
X-4811910Y5474640D01*
G37*
G36*
G01X-5066480Y5554590D02*
X-5065420Y5555200D01*
X-5065280Y5556080D01*
X-5065710Y5556840D01*
X-5066020Y5557160D01*
X-5066350Y5557480D01*
X-5069650Y5560780D01*
X-5070050Y5561120D01*
X-5070330Y5561360D01*
X-5071530Y5561640D01*
X-5073230Y5561390D01*
X-5074280Y5560420D01*
X-5074010Y5559120D01*
X-5073770Y5558820D01*
X-5073420Y5558400D01*
X-5071890Y5557060D01*
X-5070230Y5556580D01*
X-5069810D01*
X-5069500Y5556590D01*
X-5067950Y5556920D01*
X-5067890Y5556870D01*
X-5067460Y5556510D01*
X-5066580Y5555020D01*
X-5066870Y5554510D01*
X-5066480Y5554590D01*
G37*
G54D10*
G01X-6318500Y3638000D02*
X-6323830Y3633000D01*
X-6329830Y3630000D01*
X-6335170D01*
X-6340500Y3633000D01*
X-6344500Y3638000D01*
X-6346500Y3645000D01*
X-6345170Y3652000D01*
X-6341830Y3658000D01*
X-6335830Y3662000D01*
X-6327830Y3664000D01*
X-6323170Y3668000D01*
X-6321170Y3675000D01*
X-6322500Y3682000D01*
X-6325830Y3687000D01*
X-6330500Y3690000D01*
X-6335170D01*
X-6339830Y3688000D01*
X-6343830Y3683000D01*
G01X-6364830Y3630000D02*
Y3690000D01*
X-6390170D01*
G01X-6380830Y3661000D02*
X-6364830D01*
G01X-6409170Y3630000D02*
Y3690000D01*
X-6425170D01*
X-6430500Y3687000D01*
X-6434500Y3680000D01*
X-6435830Y3672000D01*
X-6434500Y3664000D01*
X-6431170Y3658000D01*
X-6425170Y3655000D01*
X-6409170D01*
G01X-6467500Y3630000D02*
Y3690000D01*
X-6459500Y3678000D01*
G01Y3630000D02*
X-6475500D01*
G01X-5610000Y876670D02*
X-5670000D01*
Y903330D01*
G01X-5658000Y920330D02*
X-5665000Y924330D01*
X-5669000Y929670D01*
X-5670000Y935670D01*
X-5669000Y941000D01*
X-5664000Y946330D01*
X-5658000Y949670D01*
X-5652000Y950330D01*
X-5645000Y949000D01*
X-5640000Y944330D01*
X-5638000Y939670D01*
Y933670D01*
G01Y939670D02*
X-5635000Y943670D01*
X-5630000Y947000D01*
X-5624000Y948330D01*
X-5618000Y947000D01*
X-5613000Y943670D01*
X-5610000Y937670D01*
X-5611000Y931670D01*
X-5615000Y925670D01*
G01X-5455000Y845000D02*
Y1125000D01*
X-5595000D01*
Y845000D01*
X-5455000D01*
G01X-5690000Y1159670D02*
X-5687000Y1155670D01*
X-5685000Y1151000D01*
Y1145670D01*
X-5688000Y1139670D01*
X-5693000Y1135000D01*
X-5699000Y1131670D01*
X-5709000Y1129000D01*
X-5718000Y1128330D01*
X-5727000Y1129670D01*
X-5733000Y1131670D01*
X-5739000Y1135670D01*
X-5743000Y1140330D01*
X-5745000Y1145000D01*
Y1149670D01*
X-5743000Y1154330D01*
X-5740000Y1158330D01*
X-5736000Y1161670D01*
G01X-5695000Y1177330D02*
X-5689000Y1181330D01*
X-5686000Y1186000D01*
X-5685000Y1191330D01*
X-5687000Y1198000D01*
X-5692000Y1202670D01*
X-5698000Y1204000D01*
X-5704000Y1203330D01*
X-5709000Y1200670D01*
X-5719000Y1187330D01*
X-5726000Y1181330D01*
X-5736000Y1177330D01*
X-5745000Y1176000D01*
Y1204000D01*
G01X-5695000Y1222330D02*
X-5689000Y1226330D01*
X-5686000Y1231000D01*
X-5685000Y1236330D01*
X-5687000Y1243000D01*
X-5692000Y1247670D01*
X-5698000Y1249000D01*
X-5704000Y1248330D01*
X-5709000Y1245670D01*
X-5719000Y1232330D01*
X-5726000Y1226330D01*
X-5736000Y1222330D01*
X-5745000Y1221000D01*
Y1249000D01*
G01X-5665000Y1280000D02*
Y1460000D01*
X-5755000D01*
Y1280000D01*
X-5665000D01*
G01X-5835000Y1144670D02*
X-5832000Y1140670D01*
X-5830000Y1136000D01*
Y1130670D01*
X-5833000Y1124670D01*
X-5838000Y1120000D01*
X-5844000Y1116670D01*
X-5854000Y1114000D01*
X-5863000Y1113330D01*
X-5872000Y1114670D01*
X-5878000Y1116670D01*
X-5884000Y1120670D01*
X-5888000Y1125330D01*
X-5890000Y1130000D01*
Y1134670D01*
X-5888000Y1139330D01*
X-5885000Y1143330D01*
X-5881000Y1146670D01*
G01X-5840000Y1162330D02*
X-5834000Y1166330D01*
X-5831000Y1171000D01*
X-5830000Y1176330D01*
X-5832000Y1183000D01*
X-5837000Y1187670D01*
X-5843000Y1189000D01*
X-5849000Y1188330D01*
X-5854000Y1185670D01*
X-5864000Y1172330D01*
X-5871000Y1166330D01*
X-5881000Y1162330D01*
X-5890000Y1161000D01*
Y1189000D01*
G01Y1220000D02*
X-5889000Y1224670D01*
X-5886000Y1230000D01*
X-5881000Y1233330D01*
X-5874000Y1234670D01*
X-5867000Y1233330D01*
X-5861000Y1229330D01*
X-5858000Y1223330D01*
Y1216670D01*
X-5856000Y1212670D01*
X-5851000Y1209330D01*
X-5844000Y1208000D01*
X-5837000Y1210000D01*
X-5832000Y1214670D01*
X-5830000Y1220000D01*
X-5832000Y1225330D01*
X-5837000Y1230000D01*
X-5844000Y1232000D01*
X-5851000Y1230670D01*
X-5856000Y1227330D01*
X-5858000Y1223330D01*
Y1216670D01*
X-5861000Y1210670D01*
X-5867000Y1206670D01*
X-5874000Y1205330D01*
X-5881000Y1206670D01*
X-5886000Y1210000D01*
X-5889000Y1215330D01*
X-5890000Y1220000D01*
G01X-5815000Y1270000D02*
Y1450000D01*
X-5905000D01*
Y1270000D01*
X-5815000D01*
G01X-5625000Y1295330D02*
X-5628000Y1299330D01*
X-5630000Y1304000D01*
Y1309330D01*
X-5627000Y1315330D01*
X-5622000Y1320000D01*
X-5616000Y1323330D01*
X-5606000Y1326000D01*
X-5597000Y1326670D01*
X-5588000Y1325330D01*
X-5582000Y1323330D01*
X-5576000Y1319330D01*
X-5572000Y1314670D01*
X-5570000Y1310000D01*
Y1305330D01*
X-5572000Y1300670D01*
X-5575000Y1296670D01*
X-5579000Y1293330D01*
G01X-5570000Y1265000D02*
X-5630000D01*
X-5618000Y1273000D01*
G01X-5570000D02*
Y1257000D01*
G01X-5630000Y1220000D02*
X-5628000Y1225330D01*
X-5623000Y1229330D01*
X-5617000Y1232000D01*
X-5609000Y1234000D01*
X-5600000Y1234670D01*
X-5591000Y1234000D01*
X-5583000Y1232000D01*
X-5577000Y1229330D01*
X-5572000Y1225330D01*
X-5570000Y1220000D01*
X-5572000Y1214670D01*
X-5577000Y1210670D01*
X-5583000Y1208000D01*
X-5591000Y1206000D01*
X-5600000Y1205330D01*
X-5609000Y1206000D01*
X-5617000Y1208000D01*
X-5623000Y1210670D01*
X-5628000Y1214670D01*
X-5630000Y1220000D01*
G01X-5555000Y1360000D02*
Y1180000D01*
X-5465000D01*
Y1360000D01*
X-5555000D01*
G01X-5161670Y2180000D02*
Y2240000D01*
X-5178330D01*
X-5183670Y2237000D01*
X-5187000Y2233000D01*
X-5188330Y2225000D01*
X-5187000Y2217000D01*
X-5183000Y2212000D01*
X-5178330Y2209000D01*
X-5161670D01*
G01X-5178330D02*
X-5188330Y2180000D01*
G01X-5207330Y2230000D02*
X-5211330Y2236000D01*
X-5216000Y2239000D01*
X-5221330Y2240000D01*
X-5228000Y2238000D01*
X-5232670Y2233000D01*
X-5234000Y2227000D01*
X-5233330Y2221000D01*
X-5230670Y2216000D01*
X-5217330Y2206000D01*
X-5211330Y2199000D01*
X-5207330Y2189000D01*
X-5206000Y2180000D01*
X-5234000D01*
G01X-5265000Y2240000D02*
X-5259670Y2238000D01*
X-5255670Y2233000D01*
X-5253000Y2227000D01*
X-5251000Y2219000D01*
X-5250330Y2210000D01*
X-5251000Y2201000D01*
X-5253000Y2193000D01*
X-5255670Y2187000D01*
X-5259670Y2182000D01*
X-5265000Y2180000D01*
X-5270330Y2182000D01*
X-5274330Y2187000D01*
X-5277000Y2193000D01*
X-5279000Y2201000D01*
X-5279670Y2210000D01*
X-5279000Y2219000D01*
X-5277000Y2227000D01*
X-5274330Y2233000D01*
X-5270330Y2238000D01*
X-5265000Y2240000D01*
G01X-5176670Y2370000D02*
Y2430000D01*
X-5193330D01*
X-5198670Y2427000D01*
X-5202000Y2423000D01*
X-5203330Y2415000D01*
X-5202000Y2407000D01*
X-5198000Y2402000D01*
X-5193330Y2399000D01*
X-5176670D01*
G01X-5193330D02*
X-5203330Y2370000D01*
G01X-5222330Y2420000D02*
X-5226330Y2426000D01*
X-5231000Y2429000D01*
X-5236330Y2430000D01*
X-5243000Y2428000D01*
X-5247670Y2423000D01*
X-5249000Y2417000D01*
X-5248330Y2411000D01*
X-5245670Y2406000D01*
X-5232330Y2396000D01*
X-5226330Y2389000D01*
X-5222330Y2379000D01*
X-5221000Y2370000D01*
X-5249000D01*
G01X-5280000D02*
Y2430000D01*
X-5272000Y2418000D01*
G01Y2370000D02*
X-5288000D01*
G01X-5240330Y2490000D02*
X-5244330Y2487000D01*
X-5249000Y2485000D01*
X-5254330D01*
X-5260330Y2488000D01*
X-5265000Y2493000D01*
X-5268330Y2499000D01*
X-5271000Y2509000D01*
X-5271670Y2518000D01*
X-5270330Y2527000D01*
X-5268330Y2533000D01*
X-5264330Y2539000D01*
X-5259670Y2543000D01*
X-5255000Y2545000D01*
X-5250330D01*
X-5245670Y2543000D01*
X-5241670Y2540000D01*
X-5238330Y2536000D01*
G01X-5202000Y2545000D02*
Y2485000D01*
X-5226670Y2528000D01*
X-5193330D01*
G01X-5176330Y2538000D02*
X-5171670Y2543000D01*
X-5166330Y2545000D01*
X-5161000Y2543000D01*
X-5156330Y2537000D01*
X-5153000Y2528000D01*
X-5151670Y2519000D01*
Y2508000D01*
X-5153000Y2499000D01*
X-5156330Y2491000D01*
X-5160330Y2487000D01*
X-5165000Y2485000D01*
X-5170330Y2487000D01*
X-5174330Y2491000D01*
X-5177000Y2497000D01*
X-5178330Y2505000D01*
X-5177000Y2512000D01*
X-5173670Y2519000D01*
X-5169670Y2523000D01*
X-5165000Y2524000D01*
X-5159670Y2522000D01*
X-5155670Y2517000D01*
X-5151670Y2508000D01*
G01X-5265330Y2870000D02*
X-5269330Y2867000D01*
X-5274000Y2865000D01*
X-5279330D01*
X-5285330Y2868000D01*
X-5290000Y2873000D01*
X-5293330Y2879000D01*
X-5296000Y2889000D01*
X-5296670Y2898000D01*
X-5295330Y2907000D01*
X-5293330Y2913000D01*
X-5289330Y2919000D01*
X-5284670Y2923000D01*
X-5280000Y2925000D01*
X-5275330D01*
X-5270670Y2923000D01*
X-5266670Y2920000D01*
X-5263330Y2916000D01*
G01X-5227000Y2925000D02*
Y2865000D01*
X-5251670Y2908000D01*
X-5218330D01*
G01X-5202670Y2900000D02*
X-5198000Y2893000D01*
X-5194000Y2889000D01*
X-5188670Y2887000D01*
X-5184000Y2889000D01*
X-5180670Y2893000D01*
X-5178000Y2899000D01*
X-5177330Y2906000D01*
X-5178000Y2912000D01*
X-5180670Y2918000D01*
X-5184670Y2923000D01*
X-5189330Y2925000D01*
X-5194670Y2923000D01*
X-5199330Y2917000D01*
X-5202000Y2908000D01*
X-5202670Y2898000D01*
X-5201330Y2885000D01*
X-5199330Y2878000D01*
X-5196000Y2871000D01*
X-5191330Y2866000D01*
X-5186670Y2865000D01*
X-5182000Y2867000D01*
X-5178670Y2872000D01*
G01X-5167000Y2850000D02*
X-4987000D01*
Y2940000D01*
X-5167000D01*
Y2850000D01*
G01X-5270330Y2695000D02*
X-5274330Y2692000D01*
X-5279000Y2690000D01*
X-5284330D01*
X-5290330Y2693000D01*
X-5295000Y2698000D01*
X-5298330Y2704000D01*
X-5301000Y2714000D01*
X-5301670Y2723000D01*
X-5300330Y2732000D01*
X-5298330Y2738000D01*
X-5294330Y2744000D01*
X-5289670Y2748000D01*
X-5285000Y2750000D01*
X-5280330D01*
X-5275670Y2748000D01*
X-5271670Y2745000D01*
X-5268330Y2741000D01*
G01X-5232000Y2750000D02*
Y2690000D01*
X-5256670Y2733000D01*
X-5223330D01*
G01X-5195000Y2750000D02*
X-5190330Y2749000D01*
X-5185000Y2746000D01*
X-5181670Y2741000D01*
X-5180330Y2734000D01*
X-5181670Y2727000D01*
X-5185670Y2721000D01*
X-5191670Y2718000D01*
X-5198330D01*
X-5202330Y2716000D01*
X-5205670Y2711000D01*
X-5207000Y2704000D01*
X-5205000Y2697000D01*
X-5200330Y2692000D01*
X-5195000Y2690000D01*
X-5189670Y2692000D01*
X-5185000Y2697000D01*
X-5183000Y2704000D01*
X-5184330Y2711000D01*
X-5187670Y2716000D01*
X-5191670Y2718000D01*
X-5198330D01*
X-5204330Y2721000D01*
X-5208330Y2727000D01*
X-5209670Y2734000D01*
X-5208330Y2741000D01*
X-5205000Y2746000D01*
X-5199670Y2749000D01*
X-5195000Y2750000D01*
G01X-5064670Y3415000D02*
X-5060670Y3418000D01*
X-5056000Y3420000D01*
X-5050670D01*
X-5044670Y3417000D01*
X-5040000Y3412000D01*
X-5036670Y3406000D01*
X-5034000Y3396000D01*
X-5033330Y3387000D01*
X-5034670Y3378000D01*
X-5036670Y3372000D01*
X-5040670Y3366000D01*
X-5045330Y3362000D01*
X-5050000Y3360000D01*
X-5054670D01*
X-5059330Y3362000D01*
X-5063330Y3365000D01*
X-5066670Y3369000D01*
G01X-5080330Y3372000D02*
X-5084330Y3365000D01*
X-5089670Y3361000D01*
X-5095670Y3360000D01*
X-5101000Y3361000D01*
X-5106330Y3366000D01*
X-5109670Y3372000D01*
X-5110330Y3378000D01*
X-5109000Y3385000D01*
X-5104330Y3390000D01*
X-5099670Y3392000D01*
X-5093670D01*
G01X-5099670D02*
X-5103670Y3395000D01*
X-5107000Y3400000D01*
X-5108330Y3406000D01*
X-5107000Y3412000D01*
X-5103670Y3417000D01*
X-5097670Y3420000D01*
X-5091670Y3419000D01*
X-5085670Y3415000D01*
G01X-5125330Y3369000D02*
X-5129330Y3364000D01*
X-5134000Y3361000D01*
X-5140000Y3360000D01*
X-5146000Y3362000D01*
X-5150670Y3366000D01*
X-5154000Y3373000D01*
X-5154670Y3381000D01*
X-5153330Y3389000D01*
X-5150000Y3394000D01*
X-5145330Y3398000D01*
X-5140670Y3399000D01*
X-5136000Y3398000D01*
X-5130000Y3394000D01*
X-5132000Y3420000D01*
X-5150000D01*
G01X-5209670Y3120000D02*
X-5205670Y3123000D01*
X-5201000Y3125000D01*
X-5195670D01*
X-5189670Y3122000D01*
X-5185000Y3117000D01*
X-5181670Y3111000D01*
X-5179000Y3101000D01*
X-5178330Y3092000D01*
X-5179670Y3083000D01*
X-5181670Y3077000D01*
X-5185670Y3071000D01*
X-5190330Y3067000D01*
X-5195000Y3065000D01*
X-5199670D01*
X-5204330Y3067000D01*
X-5208330Y3070000D01*
X-5211670Y3074000D01*
G01X-5227330Y3115000D02*
X-5231330Y3121000D01*
X-5236000Y3124000D01*
X-5241330Y3125000D01*
X-5248000Y3123000D01*
X-5252670Y3118000D01*
X-5254000Y3112000D01*
X-5253330Y3106000D01*
X-5250670Y3101000D01*
X-5237330Y3091000D01*
X-5231330Y3084000D01*
X-5227330Y3074000D01*
X-5226000Y3065000D01*
X-5254000D01*
G01X-5285000Y3125000D02*
X-5279670Y3123000D01*
X-5275670Y3118000D01*
X-5273000Y3112000D01*
X-5271000Y3104000D01*
X-5270330Y3095000D01*
X-5271000Y3086000D01*
X-5273000Y3078000D01*
X-5275670Y3072000D01*
X-5279670Y3067000D01*
X-5285000Y3065000D01*
X-5290330Y3067000D01*
X-5294330Y3072000D01*
X-5297000Y3078000D01*
X-5299000Y3086000D01*
X-5299670Y3095000D01*
X-5299000Y3104000D01*
X-5297000Y3112000D01*
X-5294330Y3118000D01*
X-5290330Y3123000D01*
X-5285000Y3125000D01*
G01X-4712000Y1708330D02*
X-4772000D01*
Y1691670D01*
X-4769000Y1686330D01*
X-4765000Y1683000D01*
X-4757000Y1681670D01*
X-4749000Y1683000D01*
X-4744000Y1687000D01*
X-4741000Y1691670D01*
Y1708330D01*
G01Y1691670D02*
X-4712000Y1681670D01*
G01Y1650000D02*
X-4772000D01*
X-4760000Y1658000D01*
G01X-4712000D02*
Y1642000D01*
G01X-4772000Y1605000D02*
X-4770000Y1610330D01*
X-4765000Y1614330D01*
X-4759000Y1617000D01*
X-4751000Y1619000D01*
X-4742000Y1619670D01*
X-4733000Y1619000D01*
X-4725000Y1617000D01*
X-4719000Y1614330D01*
X-4714000Y1610330D01*
X-4712000Y1605000D01*
X-4714000Y1599670D01*
X-4719000Y1595670D01*
X-4725000Y1593000D01*
X-4733000Y1591000D01*
X-4742000Y1590330D01*
X-4751000Y1591000D01*
X-4759000Y1593000D01*
X-4765000Y1595670D01*
X-4770000Y1599670D01*
X-4772000Y1605000D01*
G01X-4600000Y2035000D02*
X-4780000D01*
Y1945000D01*
X-4600000D01*
Y2035000D01*
G01X-4947000Y2240000D02*
X-5127000D01*
Y2150000D01*
X-4947000D01*
Y2240000D01*
G01X-4937000Y2440000D02*
X-5117000D01*
Y2350000D01*
X-4937000D01*
Y2440000D01*
G01X-5142000Y2465000D02*
X-4962000D01*
Y2555000D01*
X-5142000D01*
Y2465000D01*
G01X-5157000Y2685000D02*
X-4977000D01*
Y2775000D01*
X-5157000D01*
Y2685000D01*
G01X-4880000Y3386670D02*
X-4820000D01*
Y3403330D01*
X-4823000Y3408670D01*
X-4827000Y3412000D01*
X-4835000Y3413330D01*
X-4843000Y3412000D01*
X-4848000Y3408000D01*
X-4851000Y3403330D01*
Y3386670D01*
G01Y3403330D02*
X-4880000Y3413330D01*
G01X-4830000Y3432330D02*
X-4824000Y3436330D01*
X-4821000Y3441000D01*
X-4820000Y3446330D01*
X-4822000Y3453000D01*
X-4827000Y3457670D01*
X-4833000Y3459000D01*
X-4839000Y3458330D01*
X-4844000Y3455670D01*
X-4854000Y3442330D01*
X-4861000Y3436330D01*
X-4871000Y3432330D01*
X-4880000Y3431000D01*
Y3459000D01*
G01X-4855000Y3477330D02*
X-4848000Y3482000D01*
X-4844000Y3486000D01*
X-4842000Y3491330D01*
X-4844000Y3496000D01*
X-4848000Y3499330D01*
X-4854000Y3502000D01*
X-4861000Y3502670D01*
X-4867000Y3502000D01*
X-4873000Y3499330D01*
X-4878000Y3495330D01*
X-4880000Y3490670D01*
X-4878000Y3485330D01*
X-4872000Y3480670D01*
X-4863000Y3478000D01*
X-4853000Y3477330D01*
X-4840000Y3478670D01*
X-4833000Y3480670D01*
X-4826000Y3484000D01*
X-4821000Y3488670D01*
X-4820000Y3493330D01*
X-4822000Y3498000D01*
X-4827000Y3501330D01*
G01X-4705000Y3350000D02*
Y3530000D01*
X-4795000D01*
Y3350000D01*
X-4705000D01*
G01X-5025330Y3235000D02*
X-5029330Y3232000D01*
X-5034000Y3230000D01*
X-5039330D01*
X-5045330Y3233000D01*
X-5050000Y3238000D01*
X-5053330Y3244000D01*
X-5056000Y3254000D01*
X-5056670Y3263000D01*
X-5055330Y3272000D01*
X-5053330Y3278000D01*
X-5049330Y3284000D01*
X-5044670Y3288000D01*
X-5040000Y3290000D01*
X-5035330D01*
X-5030670Y3288000D01*
X-5026670Y3285000D01*
X-5023330Y3281000D01*
G01X-5009670Y3278000D02*
X-5005670Y3285000D01*
X-5000330Y3289000D01*
X-4994330Y3290000D01*
X-4989000Y3289000D01*
X-4983670Y3284000D01*
X-4980330Y3278000D01*
X-4979670Y3272000D01*
X-4981000Y3265000D01*
X-4985670Y3260000D01*
X-4990330Y3258000D01*
X-4996330D01*
G01X-4990330D02*
X-4986330Y3255000D01*
X-4983000Y3250000D01*
X-4981670Y3244000D01*
X-4983000Y3238000D01*
X-4986330Y3233000D01*
X-4992330Y3230000D01*
X-4998330Y3231000D01*
X-5004330Y3235000D01*
G01X-4950000Y3290000D02*
Y3230000D01*
X-4958000Y3242000D01*
G01Y3290000D02*
X-4942000D01*
G01X-4920000Y3220000D02*
X-4740000D01*
Y3310000D01*
X-4920000D01*
Y3220000D01*
G01X-4836570Y3780500D02*
X-4832570Y3783500D01*
X-4827900Y3785500D01*
X-4822570D01*
X-4816570Y3782500D01*
X-4811900Y3777500D01*
X-4808570Y3771500D01*
X-4805900Y3761500D01*
X-4805230Y3752500D01*
X-4806570Y3743500D01*
X-4808570Y3737500D01*
X-4812570Y3731500D01*
X-4817230Y3727500D01*
X-4821900Y3725500D01*
X-4826570D01*
X-4831230Y3727500D01*
X-4835230Y3730500D01*
X-4838570Y3734500D01*
G01X-4874900Y3725500D02*
Y3785500D01*
X-4850230Y3742500D01*
X-4883570D01*
G01X-4911900Y3725500D02*
Y3785500D01*
X-4903900Y3773500D01*
G01Y3725500D02*
X-4919900D01*
G01X-4295000Y1419670D02*
X-4292000Y1415670D01*
X-4290000Y1411000D01*
Y1405670D01*
X-4293000Y1399670D01*
X-4298000Y1395000D01*
X-4304000Y1391670D01*
X-4314000Y1389000D01*
X-4323000Y1388330D01*
X-4332000Y1389670D01*
X-4338000Y1391670D01*
X-4344000Y1395670D01*
X-4348000Y1400330D01*
X-4350000Y1405000D01*
Y1409670D01*
X-4348000Y1414330D01*
X-4345000Y1418330D01*
X-4341000Y1421670D01*
G01X-4300000Y1437330D02*
X-4294000Y1441330D01*
X-4291000Y1446000D01*
X-4290000Y1451330D01*
X-4292000Y1458000D01*
X-4297000Y1462670D01*
X-4303000Y1464000D01*
X-4309000Y1463330D01*
X-4314000Y1460670D01*
X-4324000Y1447330D01*
X-4331000Y1441330D01*
X-4341000Y1437330D01*
X-4350000Y1436000D01*
Y1464000D01*
G01Y1495000D02*
X-4290000D01*
X-4302000Y1487000D01*
G01X-4350000D02*
Y1503000D01*
G01X-4255000Y1530000D02*
Y1710000D01*
X-4345000D01*
Y1530000D01*
X-4255000D01*
G01X-4480000Y1419670D02*
X-4477000Y1415670D01*
X-4475000Y1411000D01*
Y1405670D01*
X-4478000Y1399670D01*
X-4483000Y1395000D01*
X-4489000Y1391670D01*
X-4499000Y1389000D01*
X-4508000Y1388330D01*
X-4517000Y1389670D01*
X-4523000Y1391670D01*
X-4529000Y1395670D01*
X-4533000Y1400330D01*
X-4535000Y1405000D01*
Y1409670D01*
X-4533000Y1414330D01*
X-4530000Y1418330D01*
X-4526000Y1421670D01*
G01X-4485000Y1437330D02*
X-4479000Y1441330D01*
X-4476000Y1446000D01*
X-4475000Y1451330D01*
X-4477000Y1458000D01*
X-4482000Y1462670D01*
X-4488000Y1464000D01*
X-4494000Y1463330D01*
X-4499000Y1460670D01*
X-4509000Y1447330D01*
X-4516000Y1441330D01*
X-4526000Y1437330D01*
X-4535000Y1436000D01*
Y1464000D01*
G01X-4526000Y1480330D02*
X-4531000Y1484330D01*
X-4534000Y1489000D01*
X-4535000Y1495000D01*
X-4533000Y1501000D01*
X-4529000Y1505670D01*
X-4522000Y1509000D01*
X-4514000Y1509670D01*
X-4506000Y1508330D01*
X-4501000Y1505000D01*
X-4497000Y1500330D01*
X-4496000Y1495670D01*
X-4497000Y1491000D01*
X-4501000Y1485000D01*
X-4475000Y1487000D01*
Y1505000D01*
G01X-4465000Y1530000D02*
Y1710000D01*
X-4555000D01*
Y1530000D01*
X-4465000D01*
G01X-4682000Y1705000D02*
Y1525000D01*
X-4592000D01*
Y1705000D01*
X-4682000D01*
G01X-4293670Y2070000D02*
Y2130000D01*
X-4310330D01*
X-4315670Y2127000D01*
X-4319000Y2123000D01*
X-4320330Y2115000D01*
X-4319000Y2107000D01*
X-4315000Y2102000D01*
X-4310330Y2099000D01*
X-4293670D01*
G01X-4310330D02*
X-4320330Y2070000D01*
G01X-4350670D02*
X-4352000Y2083000D01*
X-4354000Y2094000D01*
X-4356670Y2104000D01*
X-4360000Y2115000D01*
X-4365330Y2130000D01*
X-4338670D01*
G01X-4297000Y2040000D02*
X-4477000D01*
Y1950000D01*
X-4297000D01*
Y2040000D01*
G01X-4596670Y2065000D02*
Y2125000D01*
X-4613330D01*
X-4618670Y2122000D01*
X-4622000Y2118000D01*
X-4623330Y2110000D01*
X-4622000Y2102000D01*
X-4618000Y2097000D01*
X-4613330Y2094000D01*
X-4596670D01*
G01X-4613330D02*
X-4623330Y2065000D01*
G01X-4655000D02*
X-4659670Y2066000D01*
X-4665000Y2069000D01*
X-4668330Y2074000D01*
X-4669670Y2081000D01*
X-4668330Y2088000D01*
X-4664330Y2094000D01*
X-4658330Y2097000D01*
X-4651670D01*
X-4647670Y2099000D01*
X-4644330Y2104000D01*
X-4643000Y2111000D01*
X-4645000Y2118000D01*
X-4649670Y2123000D01*
X-4655000Y2125000D01*
X-4660330Y2123000D01*
X-4665000Y2118000D01*
X-4667000Y2111000D01*
X-4665670Y2104000D01*
X-4662330Y2099000D01*
X-4658330Y2097000D01*
X-4651670D01*
X-4645670Y2094000D01*
X-4641670Y2088000D01*
X-4640330Y2081000D01*
X-4641670Y2074000D01*
X-4645000Y2069000D01*
X-4650330Y2066000D01*
X-4655000Y2065000D01*
G01X-4495000Y3309670D02*
X-4492000Y3305670D01*
X-4490000Y3301000D01*
Y3295670D01*
X-4493000Y3289670D01*
X-4498000Y3285000D01*
X-4504000Y3281670D01*
X-4514000Y3279000D01*
X-4523000Y3278330D01*
X-4532000Y3279670D01*
X-4538000Y3281670D01*
X-4544000Y3285670D01*
X-4548000Y3290330D01*
X-4550000Y3295000D01*
Y3299670D01*
X-4548000Y3304330D01*
X-4545000Y3308330D01*
X-4541000Y3311670D01*
G01X-4550000Y3348000D02*
X-4490000D01*
X-4533000Y3323330D01*
Y3356670D01*
G01X-4490000Y3385000D02*
X-4492000Y3379670D01*
X-4497000Y3375670D01*
X-4503000Y3373000D01*
X-4511000Y3371000D01*
X-4520000Y3370330D01*
X-4529000Y3371000D01*
X-4537000Y3373000D01*
X-4543000Y3375670D01*
X-4548000Y3379670D01*
X-4550000Y3385000D01*
X-4548000Y3390330D01*
X-4543000Y3394330D01*
X-4537000Y3397000D01*
X-4529000Y3399000D01*
X-4520000Y3399670D01*
X-4511000Y3399000D01*
X-4503000Y3397000D01*
X-4497000Y3394330D01*
X-4492000Y3390330D01*
X-4490000Y3385000D01*
G01X-4407000Y3415000D02*
Y3235000D01*
X-4317000D01*
Y3415000D01*
X-4407000D01*
G01X-4555000Y3541670D02*
X-4495000D01*
Y3558330D01*
X-4498000Y3563670D01*
X-4502000Y3567000D01*
X-4510000Y3568330D01*
X-4518000Y3567000D01*
X-4523000Y3563000D01*
X-4526000Y3558330D01*
Y3541670D01*
G01Y3558330D02*
X-4555000Y3568330D01*
G01Y3600000D02*
X-4495000D01*
X-4507000Y3592000D01*
G01X-4555000D02*
Y3608000D01*
G01X-4543000Y3630330D02*
X-4550000Y3634330D01*
X-4554000Y3639670D01*
X-4555000Y3645670D01*
X-4554000Y3651000D01*
X-4549000Y3656330D01*
X-4543000Y3659670D01*
X-4537000Y3660330D01*
X-4530000Y3659000D01*
X-4525000Y3654330D01*
X-4523000Y3649670D01*
Y3643670D01*
G01Y3649670D02*
X-4520000Y3653670D01*
X-4515000Y3657000D01*
X-4509000Y3658330D01*
X-4503000Y3657000D01*
X-4498000Y3653670D01*
X-4495000Y3647670D01*
X-4496000Y3641670D01*
X-4500000Y3635670D01*
G01X-4387000Y3485000D02*
Y3665000D01*
X-4477000D01*
Y3485000D01*
X-4387000D01*
G01X-4370000Y3520330D02*
X-4373000Y3524330D01*
X-4375000Y3529000D01*
Y3534330D01*
X-4372000Y3540330D01*
X-4367000Y3545000D01*
X-4361000Y3548330D01*
X-4351000Y3551000D01*
X-4342000Y3551670D01*
X-4333000Y3550330D01*
X-4327000Y3548330D01*
X-4321000Y3544330D01*
X-4317000Y3539670D01*
X-4315000Y3535000D01*
Y3530330D01*
X-4317000Y3525670D01*
X-4320000Y3521670D01*
X-4324000Y3518330D01*
G01X-4327000Y3504670D02*
X-4320000Y3500670D01*
X-4316000Y3495330D01*
X-4315000Y3489330D01*
X-4316000Y3484000D01*
X-4321000Y3478670D01*
X-4327000Y3475330D01*
X-4333000Y3474670D01*
X-4340000Y3476000D01*
X-4345000Y3480670D01*
X-4347000Y3485330D01*
Y3491330D01*
G01Y3485330D02*
X-4350000Y3481330D01*
X-4355000Y3478000D01*
X-4361000Y3476670D01*
X-4367000Y3478000D01*
X-4372000Y3481330D01*
X-4375000Y3487330D01*
X-4374000Y3493330D01*
X-4370000Y3499330D01*
G01X-4365000Y3457670D02*
X-4371000Y3453670D01*
X-4374000Y3449000D01*
X-4375000Y3443670D01*
X-4373000Y3437000D01*
X-4368000Y3432330D01*
X-4362000Y3431000D01*
X-4356000Y3431670D01*
X-4351000Y3434330D01*
X-4341000Y3447670D01*
X-4334000Y3453670D01*
X-4324000Y3457670D01*
X-4315000Y3459000D01*
Y3431000D01*
G01X-4306670Y6000000D02*
Y6060000D01*
X-4323330D01*
X-4328670Y6057000D01*
X-4332000Y6053000D01*
X-4333330Y6045000D01*
X-4332000Y6037000D01*
X-4328000Y6032000D01*
X-4323330Y6029000D01*
X-4306670D01*
G01X-4323330D02*
X-4333330Y6000000D01*
G01X-4373000D02*
Y6060000D01*
X-4348330Y6017000D01*
X-4381670D01*
G01X-4408670Y6000000D02*
X-4410000Y6013000D01*
X-4412000Y6024000D01*
X-4414670Y6034000D01*
X-4418000Y6045000D01*
X-4423330Y6060000D01*
X-4396670D01*
G01X-4082000Y1465000D02*
Y1405000D01*
G01X-4066670Y1465000D02*
X-4097330D01*
G01X-4113670Y1405000D02*
Y1465000D01*
X-4129670D01*
X-4135000Y1462000D01*
X-4139000Y1455000D01*
X-4140330Y1447000D01*
X-4139000Y1439000D01*
X-4135670Y1433000D01*
X-4129670Y1430000D01*
X-4113670D01*
G01X-4160670Y1412000D02*
X-4165330Y1407000D01*
X-4170670Y1405000D01*
X-4176000Y1407000D01*
X-4180670Y1413000D01*
X-4184000Y1422000D01*
X-4185330Y1431000D01*
Y1442000D01*
X-4184000Y1451000D01*
X-4180670Y1459000D01*
X-4176670Y1463000D01*
X-4172000Y1465000D01*
X-4166670Y1463000D01*
X-4162670Y1459000D01*
X-4160000Y1453000D01*
X-4158670Y1445000D01*
X-4160000Y1438000D01*
X-4163330Y1431000D01*
X-4167330Y1427000D01*
X-4172000Y1426000D01*
X-4177330Y1428000D01*
X-4181330Y1433000D01*
X-4185330Y1442000D01*
G01X-4105000Y1726670D02*
X-4045000D01*
Y1743330D01*
X-4048000Y1748670D01*
X-4052000Y1752000D01*
X-4060000Y1753330D01*
X-4068000Y1752000D01*
X-4073000Y1748000D01*
X-4076000Y1743330D01*
Y1726670D01*
G01Y1743330D02*
X-4105000Y1753330D01*
G01Y1785000D02*
X-4045000D01*
X-4057000Y1777000D01*
G01X-4105000D02*
Y1793000D01*
G01Y1828670D02*
X-4092000Y1830000D01*
X-4081000Y1832000D01*
X-4071000Y1834670D01*
X-4060000Y1838000D01*
X-4045000Y1843330D01*
Y1816670D01*
G01X-4005000Y1510000D02*
Y1690000D01*
X-4095000D01*
Y1510000D01*
X-4005000D01*
G01X-4205000Y1716670D02*
X-4145000D01*
Y1733330D01*
X-4148000Y1738670D01*
X-4152000Y1742000D01*
X-4160000Y1743330D01*
X-4168000Y1742000D01*
X-4173000Y1738000D01*
X-4176000Y1733330D01*
Y1716670D01*
G01Y1733330D02*
X-4205000Y1743330D01*
G01Y1775000D02*
X-4145000D01*
X-4157000Y1767000D01*
G01X-4205000D02*
Y1783000D01*
G01X-4198000Y1808670D02*
X-4203000Y1813330D01*
X-4205000Y1818670D01*
X-4203000Y1824000D01*
X-4197000Y1828670D01*
X-4188000Y1832000D01*
X-4179000Y1833330D01*
X-4168000D01*
X-4159000Y1832000D01*
X-4151000Y1828670D01*
X-4147000Y1824670D01*
X-4145000Y1820000D01*
X-4147000Y1814670D01*
X-4151000Y1810670D01*
X-4157000Y1808000D01*
X-4165000Y1806670D01*
X-4172000Y1808000D01*
X-4179000Y1811330D01*
X-4183000Y1815330D01*
X-4184000Y1820000D01*
X-4182000Y1825330D01*
X-4177000Y1829330D01*
X-4168000Y1833330D01*
G01X-4115000Y1510000D02*
Y1690000D01*
X-4205000D01*
Y1510000D01*
X-4115000D01*
G01X-4133330Y1935000D02*
Y1875000D01*
X-4116670D01*
X-4111330Y1878000D01*
X-4108000Y1882000D01*
X-4106670Y1890000D01*
X-4108000Y1898000D01*
X-4112000Y1903000D01*
X-4116670Y1906000D01*
X-4133330D01*
G01X-4116670D02*
X-4106670Y1935000D01*
G01X-4075000D02*
Y1875000D01*
X-4083000Y1887000D01*
G01Y1935000D02*
X-4067000D01*
G01X-4030000D02*
Y1875000D01*
X-4038000Y1887000D01*
G01Y1935000D02*
X-4022000D01*
G01X-4130000Y1965000D02*
X-3950000D01*
Y2055000D01*
X-4130000D01*
Y1965000D01*
G01X-4287000Y3415000D02*
Y3235000D01*
X-4197000D01*
Y3415000D01*
X-4287000D01*
G01X-4080000Y3464670D02*
X-4077000Y3460670D01*
X-4075000Y3456000D01*
Y3450670D01*
X-4078000Y3444670D01*
X-4083000Y3440000D01*
X-4089000Y3436670D01*
X-4099000Y3434000D01*
X-4108000Y3433330D01*
X-4117000Y3434670D01*
X-4123000Y3436670D01*
X-4129000Y3440670D01*
X-4133000Y3445330D01*
X-4135000Y3450000D01*
Y3454670D01*
X-4133000Y3459330D01*
X-4130000Y3463330D01*
X-4126000Y3466670D01*
G01X-4135000Y3495000D02*
X-4075000D01*
X-4087000Y3487000D01*
G01X-4135000D02*
Y3503000D01*
G01X-4128000Y3528670D02*
X-4133000Y3533330D01*
X-4135000Y3538670D01*
X-4133000Y3544000D01*
X-4127000Y3548670D01*
X-4118000Y3552000D01*
X-4109000Y3553330D01*
X-4098000D01*
X-4089000Y3552000D01*
X-4081000Y3548670D01*
X-4077000Y3544670D01*
X-4075000Y3540000D01*
X-4077000Y3534670D01*
X-4081000Y3530670D01*
X-4087000Y3528000D01*
X-4095000Y3526670D01*
X-4102000Y3528000D01*
X-4109000Y3531330D01*
X-4113000Y3535330D01*
X-4114000Y3540000D01*
X-4112000Y3545330D01*
X-4107000Y3549330D01*
X-4098000Y3553330D01*
G01X-4260000Y3525330D02*
X-4263000Y3529330D01*
X-4265000Y3534000D01*
Y3539330D01*
X-4262000Y3545330D01*
X-4257000Y3550000D01*
X-4251000Y3553330D01*
X-4241000Y3556000D01*
X-4232000Y3556670D01*
X-4223000Y3555330D01*
X-4217000Y3553330D01*
X-4211000Y3549330D01*
X-4207000Y3544670D01*
X-4205000Y3540000D01*
Y3535330D01*
X-4207000Y3530670D01*
X-4210000Y3526670D01*
X-4214000Y3523330D01*
G01X-4205000Y3487000D02*
X-4265000D01*
X-4222000Y3511670D01*
Y3478330D01*
G01X-4214000Y3464670D02*
X-4209000Y3460670D01*
X-4206000Y3456000D01*
X-4205000Y3450000D01*
X-4207000Y3444000D01*
X-4211000Y3439330D01*
X-4218000Y3436000D01*
X-4226000Y3435330D01*
X-4234000Y3436670D01*
X-4239000Y3440000D01*
X-4243000Y3444670D01*
X-4244000Y3449330D01*
X-4243000Y3454000D01*
X-4239000Y3460000D01*
X-4265000Y3458000D01*
Y3440000D01*
G01X-3616670Y1455000D02*
Y1515000D01*
X-3633330D01*
X-3638670Y1512000D01*
X-3642000Y1508000D01*
X-3643330Y1500000D01*
X-3642000Y1492000D01*
X-3638000Y1487000D01*
X-3633330Y1484000D01*
X-3616670D01*
G01X-3633330D02*
X-3643330Y1455000D01*
G01X-3662330Y1480000D02*
X-3667000Y1487000D01*
X-3671000Y1491000D01*
X-3676330Y1493000D01*
X-3681000Y1491000D01*
X-3684330Y1487000D01*
X-3687000Y1481000D01*
X-3687670Y1474000D01*
X-3687000Y1468000D01*
X-3684330Y1462000D01*
X-3680330Y1457000D01*
X-3675670Y1455000D01*
X-3670330Y1457000D01*
X-3665670Y1463000D01*
X-3663000Y1472000D01*
X-3662330Y1482000D01*
X-3663670Y1495000D01*
X-3665670Y1502000D01*
X-3669000Y1509000D01*
X-3673670Y1514000D01*
X-3678330Y1515000D01*
X-3683000Y1513000D01*
X-3686330Y1508000D01*
G01X-3720000Y1455000D02*
Y1515000D01*
X-3712000Y1503000D01*
G01Y1455000D02*
X-3728000D01*
G01X-3577000Y1635000D02*
X-3757000D01*
Y1545000D01*
X-3577000D01*
Y1635000D01*
G01X-3220000Y1600000D02*
X-3500000D01*
Y1460000D01*
X-3220000D01*
Y1600000D01*
G01X-3734670Y2145000D02*
X-3730670Y2148000D01*
X-3726000Y2150000D01*
X-3720670D01*
X-3714670Y2147000D01*
X-3710000Y2142000D01*
X-3706670Y2136000D01*
X-3704000Y2126000D01*
X-3703330Y2117000D01*
X-3704670Y2108000D01*
X-3706670Y2102000D01*
X-3710670Y2096000D01*
X-3715330Y2092000D01*
X-3720000Y2090000D01*
X-3724670D01*
X-3729330Y2092000D01*
X-3733330Y2095000D01*
X-3736670Y2099000D01*
G01X-3752330Y2140000D02*
X-3756330Y2146000D01*
X-3761000Y2149000D01*
X-3766330Y2150000D01*
X-3773000Y2148000D01*
X-3777670Y2143000D01*
X-3779000Y2137000D01*
X-3778330Y2131000D01*
X-3775670Y2126000D01*
X-3762330Y2116000D01*
X-3756330Y2109000D01*
X-3752330Y2099000D01*
X-3751000Y2090000D01*
X-3779000D01*
G01X-3797330Y2115000D02*
X-3802000Y2122000D01*
X-3806000Y2126000D01*
X-3811330Y2128000D01*
X-3816000Y2126000D01*
X-3819330Y2122000D01*
X-3822000Y2116000D01*
X-3822670Y2109000D01*
X-3822000Y2103000D01*
X-3819330Y2097000D01*
X-3815330Y2092000D01*
X-3810670Y2090000D01*
X-3805330Y2092000D01*
X-3800670Y2098000D01*
X-3798000Y2107000D01*
X-3797330Y2117000D01*
X-3798670Y2130000D01*
X-3800670Y2137000D01*
X-3804000Y2144000D01*
X-3808670Y2149000D01*
X-3813330Y2150000D01*
X-3818000Y2148000D01*
X-3821330Y2143000D01*
G01X-3422000Y2140000D02*
Y2320000D01*
X-3512000D01*
Y2140000D01*
X-3422000D01*
G01X-3414500Y1905000D02*
X-3430500D01*
G01X-3422500D02*
Y1845000D01*
G01X-3414500D02*
X-3430500D01*
G01X-3482170Y1900000D02*
X-3478170Y1903000D01*
X-3473500Y1905000D01*
X-3468170D01*
X-3462170Y1902000D01*
X-3457500Y1897000D01*
X-3454170Y1891000D01*
X-3451500Y1881000D01*
X-3450830Y1872000D01*
X-3452170Y1863000D01*
X-3454170Y1857000D01*
X-3458170Y1851000D01*
X-3462830Y1847000D01*
X-3467500Y1845000D01*
X-3472170D01*
X-3476830Y1847000D01*
X-3480830Y1850000D01*
X-3484170Y1854000D01*
G01X-3512500Y1845000D02*
Y1905000D01*
X-3504500Y1893000D01*
G01Y1845000D02*
X-3520500D01*
G01X-3557500D02*
Y1905000D01*
X-3549500Y1893000D01*
G01Y1845000D02*
X-3565500D01*
G01X-3565330Y2450000D02*
X-3569330Y2447000D01*
X-3574000Y2445000D01*
X-3579330D01*
X-3585330Y2448000D01*
X-3590000Y2453000D01*
X-3593330Y2459000D01*
X-3596000Y2469000D01*
X-3596670Y2478000D01*
X-3595330Y2487000D01*
X-3593330Y2493000D01*
X-3589330Y2499000D01*
X-3584670Y2503000D01*
X-3580000Y2505000D01*
X-3575330D01*
X-3570670Y2503000D01*
X-3566670Y2500000D01*
X-3563330Y2496000D01*
G01X-3535000Y2505000D02*
Y2445000D01*
X-3543000Y2457000D01*
G01Y2505000D02*
X-3527000D01*
G01X-3504670Y2493000D02*
X-3500670Y2500000D01*
X-3495330Y2504000D01*
X-3489330Y2505000D01*
X-3484000Y2504000D01*
X-3478670Y2499000D01*
X-3475330Y2493000D01*
X-3474670Y2487000D01*
X-3476000Y2480000D01*
X-3480670Y2475000D01*
X-3485330Y2473000D01*
X-3491330D01*
G01X-3485330D02*
X-3481330Y2470000D01*
X-3478000Y2465000D01*
X-3476670Y2459000D01*
X-3478000Y2453000D01*
X-3481330Y2448000D01*
X-3487330Y2445000D01*
X-3493330Y2446000D01*
X-3499330Y2450000D01*
G01X-3534670Y2400000D02*
X-3530670Y2403000D01*
X-3526000Y2405000D01*
X-3520670D01*
X-3514670Y2402000D01*
X-3510000Y2397000D01*
X-3506670Y2391000D01*
X-3504000Y2381000D01*
X-3503330Y2372000D01*
X-3504670Y2363000D01*
X-3506670Y2357000D01*
X-3510670Y2351000D01*
X-3515330Y2347000D01*
X-3520000Y2345000D01*
X-3524670D01*
X-3529330Y2347000D01*
X-3533330Y2350000D01*
X-3536670Y2354000D01*
G01X-3552330Y2395000D02*
X-3556330Y2401000D01*
X-3561000Y2404000D01*
X-3566330Y2405000D01*
X-3573000Y2403000D01*
X-3577670Y2398000D01*
X-3579000Y2392000D01*
X-3578330Y2386000D01*
X-3575670Y2381000D01*
X-3562330Y2371000D01*
X-3556330Y2364000D01*
X-3552330Y2354000D01*
X-3551000Y2345000D01*
X-3579000D01*
G01X-3595330Y2357000D02*
X-3599330Y2350000D01*
X-3604670Y2346000D01*
X-3610670Y2345000D01*
X-3616000Y2346000D01*
X-3621330Y2351000D01*
X-3624670Y2357000D01*
X-3625330Y2363000D01*
X-3624000Y2370000D01*
X-3619330Y2375000D01*
X-3614670Y2377000D01*
X-3608670D01*
G01X-3614670D02*
X-3618670Y2380000D01*
X-3622000Y2385000D01*
X-3623330Y2391000D01*
X-3622000Y2397000D01*
X-3618670Y2402000D01*
X-3612670Y2405000D01*
X-3606670Y2404000D01*
X-3600670Y2400000D01*
G01X-3767000Y2730000D02*
Y2550000D01*
X-3677000D01*
Y2730000D01*
X-3767000D01*
G01X-3797000Y2733330D02*
X-3857000D01*
Y2716670D01*
X-3854000Y2711330D01*
X-3850000Y2708000D01*
X-3842000Y2706670D01*
X-3834000Y2708000D01*
X-3829000Y2712000D01*
X-3826000Y2716670D01*
Y2733330D01*
G01Y2716670D02*
X-3797000Y2706670D01*
G01Y2675000D02*
X-3857000D01*
X-3845000Y2683000D01*
G01X-3797000D02*
Y2667000D01*
G01Y2630000D02*
X-3798000Y2625330D01*
X-3801000Y2620000D01*
X-3806000Y2616670D01*
X-3813000Y2615330D01*
X-3820000Y2616670D01*
X-3826000Y2620670D01*
X-3829000Y2626670D01*
Y2633330D01*
X-3831000Y2637330D01*
X-3836000Y2640670D01*
X-3843000Y2642000D01*
X-3850000Y2640000D01*
X-3855000Y2635330D01*
X-3857000Y2630000D01*
X-3855000Y2624670D01*
X-3850000Y2620000D01*
X-3843000Y2618000D01*
X-3836000Y2619330D01*
X-3831000Y2622670D01*
X-3829000Y2626670D01*
Y2633330D01*
X-3826000Y2639330D01*
X-3820000Y2643330D01*
X-3813000Y2644670D01*
X-3806000Y2643330D01*
X-3801000Y2640000D01*
X-3798000Y2634670D01*
X-3797000Y2630000D01*
G01X-3706670Y2925000D02*
X-3702670Y2928000D01*
X-3698000Y2930000D01*
X-3692670D01*
X-3686670Y2927000D01*
X-3682000Y2922000D01*
X-3678670Y2916000D01*
X-3676000Y2906000D01*
X-3675330Y2897000D01*
X-3676670Y2888000D01*
X-3678670Y2882000D01*
X-3682670Y2876000D01*
X-3687330Y2872000D01*
X-3692000Y2870000D01*
X-3696670D01*
X-3701330Y2872000D01*
X-3705330Y2875000D01*
X-3708670Y2879000D01*
G01X-3745000Y2870000D02*
Y2930000D01*
X-3720330Y2887000D01*
X-3753670D01*
G01X-3780670Y2870000D02*
X-3782000Y2883000D01*
X-3784000Y2894000D01*
X-3786670Y2904000D01*
X-3790000Y2915000D01*
X-3795330Y2930000D01*
X-3768670D01*
G01X-3682000Y2840000D02*
X-3862000D01*
Y2750000D01*
X-3682000D01*
Y2840000D01*
G01X-3507000Y3430000D02*
Y3370000D01*
G01X-3491670Y3430000D02*
X-3522330D01*
G01X-3538670Y3370000D02*
Y3430000D01*
X-3554670D01*
X-3560000Y3427000D01*
X-3564000Y3420000D01*
X-3565330Y3412000D01*
X-3564000Y3404000D01*
X-3560670Y3398000D01*
X-3554670Y3395000D01*
X-3538670D01*
G01X-3597000Y3370000D02*
Y3430000D01*
X-3589000Y3418000D01*
G01Y3370000D02*
X-3605000D01*
G01X-3642000Y3430000D02*
X-3636670Y3428000D01*
X-3632670Y3423000D01*
X-3630000Y3417000D01*
X-3628000Y3409000D01*
X-3627330Y3400000D01*
X-3628000Y3391000D01*
X-3630000Y3383000D01*
X-3632670Y3377000D01*
X-3636670Y3372000D01*
X-3642000Y3370000D01*
X-3647330Y3372000D01*
X-3651330Y3377000D01*
X-3654000Y3383000D01*
X-3656000Y3391000D01*
X-3656670Y3400000D01*
X-3656000Y3409000D01*
X-3654000Y3417000D01*
X-3651330Y3423000D01*
X-3647330Y3428000D01*
X-3642000Y3430000D01*
G01X-3627900Y6188900D02*
X-3643900D01*
G01X-3635900D02*
Y6128900D01*
G01X-3627900D02*
X-3643900D01*
G01X-3695570Y6183900D02*
X-3691570Y6186900D01*
X-3686900Y6188900D01*
X-3681570D01*
X-3675570Y6185900D01*
X-3670900Y6180900D01*
X-3667570Y6174900D01*
X-3664900Y6164900D01*
X-3664230Y6155900D01*
X-3665570Y6146900D01*
X-3667570Y6140900D01*
X-3671570Y6134900D01*
X-3676230Y6130900D01*
X-3680900Y6128900D01*
X-3685570D01*
X-3690230Y6130900D01*
X-3694230Y6133900D01*
X-3697570Y6137900D01*
G01X-3714570Y6135900D02*
X-3719230Y6130900D01*
X-3724570Y6128900D01*
X-3729900Y6130900D01*
X-3734570Y6136900D01*
X-3737900Y6145900D01*
X-3739230Y6154900D01*
Y6165900D01*
X-3737900Y6174900D01*
X-3734570Y6182900D01*
X-3730570Y6186900D01*
X-3725900Y6188900D01*
X-3720570Y6186900D01*
X-3716570Y6182900D01*
X-3713900Y6176900D01*
X-3712570Y6168900D01*
X-3713900Y6161900D01*
X-3717230Y6154900D01*
X-3721230Y6150900D01*
X-3725900Y6149900D01*
X-3731230Y6151900D01*
X-3735230Y6156900D01*
X-3739230Y6165900D01*
G01X-3269670Y1685000D02*
X-3265670Y1688000D01*
X-3261000Y1690000D01*
X-3255670D01*
X-3249670Y1687000D01*
X-3245000Y1682000D01*
X-3241670Y1676000D01*
X-3239000Y1666000D01*
X-3238330Y1657000D01*
X-3239670Y1648000D01*
X-3241670Y1642000D01*
X-3245670Y1636000D01*
X-3250330Y1632000D01*
X-3255000Y1630000D01*
X-3259670D01*
X-3264330Y1632000D01*
X-3268330Y1635000D01*
X-3271670Y1639000D01*
G01X-3308000Y1630000D02*
Y1690000D01*
X-3283330Y1647000D01*
X-3316670D01*
G01X-3332330Y1680000D02*
X-3336330Y1686000D01*
X-3341000Y1689000D01*
X-3346330Y1690000D01*
X-3353000Y1688000D01*
X-3357670Y1683000D01*
X-3359000Y1677000D01*
X-3358330Y1671000D01*
X-3355670Y1666000D01*
X-3342330Y1656000D01*
X-3336330Y1649000D01*
X-3332330Y1639000D01*
X-3331000Y1630000D01*
X-3359000D01*
G01X-3392000Y2136670D02*
X-3332000D01*
Y2153330D01*
X-3335000Y2158670D01*
X-3339000Y2162000D01*
X-3347000Y2163330D01*
X-3355000Y2162000D01*
X-3360000Y2158000D01*
X-3363000Y2153330D01*
Y2136670D01*
G01Y2153330D02*
X-3392000Y2163330D01*
G01Y2195000D02*
X-3332000D01*
X-3344000Y2187000D01*
G01X-3392000D02*
Y2203000D01*
G01X-3367000Y2227330D02*
X-3360000Y2232000D01*
X-3356000Y2236000D01*
X-3354000Y2241330D01*
X-3356000Y2246000D01*
X-3360000Y2249330D01*
X-3366000Y2252000D01*
X-3373000Y2252670D01*
X-3379000Y2252000D01*
X-3385000Y2249330D01*
X-3390000Y2245330D01*
X-3392000Y2240670D01*
X-3390000Y2235330D01*
X-3384000Y2230670D01*
X-3375000Y2228000D01*
X-3365000Y2227330D01*
X-3352000Y2228670D01*
X-3345000Y2230670D01*
X-3338000Y2234000D01*
X-3333000Y2238670D01*
X-3332000Y2243330D01*
X-3334000Y2248000D01*
X-3339000Y2251330D01*
G01X-3390000Y3475330D02*
X-3393000Y3479330D01*
X-3395000Y3484000D01*
Y3489330D01*
X-3392000Y3495330D01*
X-3387000Y3500000D01*
X-3381000Y3503330D01*
X-3371000Y3506000D01*
X-3362000Y3506670D01*
X-3353000Y3505330D01*
X-3347000Y3503330D01*
X-3341000Y3499330D01*
X-3337000Y3494670D01*
X-3335000Y3490000D01*
Y3485330D01*
X-3337000Y3480670D01*
X-3340000Y3476670D01*
X-3344000Y3473330D01*
G01X-3385000Y3457670D02*
X-3391000Y3453670D01*
X-3394000Y3449000D01*
X-3395000Y3443670D01*
X-3393000Y3437000D01*
X-3388000Y3432330D01*
X-3382000Y3431000D01*
X-3376000Y3431670D01*
X-3371000Y3434330D01*
X-3361000Y3447670D01*
X-3354000Y3453670D01*
X-3344000Y3457670D01*
X-3335000Y3459000D01*
Y3431000D01*
G01Y3392000D02*
X-3395000D01*
X-3352000Y3416670D01*
Y3383330D01*
G01X-3305000Y3500000D02*
Y3320000D01*
X-3215000D01*
Y3500000D01*
X-3305000D01*
G01X-3140000Y3475330D02*
X-3143000Y3479330D01*
X-3145000Y3484000D01*
Y3489330D01*
X-3142000Y3495330D01*
X-3137000Y3500000D01*
X-3131000Y3503330D01*
X-3121000Y3506000D01*
X-3112000Y3506670D01*
X-3103000Y3505330D01*
X-3097000Y3503330D01*
X-3091000Y3499330D01*
X-3087000Y3494670D01*
X-3085000Y3490000D01*
Y3485330D01*
X-3087000Y3480670D01*
X-3090000Y3476670D01*
X-3094000Y3473330D01*
G01X-3135000Y3457670D02*
X-3141000Y3453670D01*
X-3144000Y3449000D01*
X-3145000Y3443670D01*
X-3143000Y3437000D01*
X-3138000Y3432330D01*
X-3132000Y3431000D01*
X-3126000Y3431670D01*
X-3121000Y3434330D01*
X-3111000Y3447670D01*
X-3104000Y3453670D01*
X-3094000Y3457670D01*
X-3085000Y3459000D01*
Y3431000D01*
G01Y3401330D02*
X-3098000Y3400000D01*
X-3109000Y3398000D01*
X-3119000Y3395330D01*
X-3130000Y3392000D01*
X-3145000Y3386670D01*
Y3413330D01*
G01X-3043170Y5751600D02*
Y5811600D01*
X-3059830D01*
X-3065170Y5808600D01*
X-3068500Y5804600D01*
X-3069830Y5796600D01*
X-3068500Y5788600D01*
X-3064500Y5783600D01*
X-3059830Y5780600D01*
X-3043170D01*
G01X-3059830D02*
X-3069830Y5751600D01*
G01X-3109500D02*
Y5811600D01*
X-3084830Y5768600D01*
X-3118170D01*
G01X-3146500Y5751600D02*
X-3151170Y5752600D01*
X-3156500Y5755600D01*
X-3159830Y5760600D01*
X-3161170Y5767600D01*
X-3159830Y5774600D01*
X-3155830Y5780600D01*
X-3149830Y5783600D01*
X-3143170D01*
X-3139170Y5785600D01*
X-3135830Y5790600D01*
X-3134500Y5797600D01*
X-3136500Y5804600D01*
X-3141170Y5809600D01*
X-3146500Y5811600D01*
X-3151830Y5809600D01*
X-3156500Y5804600D01*
X-3158500Y5797600D01*
X-3157170Y5790600D01*
X-3153830Y5785600D01*
X-3149830Y5783600D01*
X-3143170D01*
X-3137170Y5780600D01*
X-3133170Y5774600D01*
X-3131830Y5767600D01*
X-3133170Y5760600D01*
X-3136500Y5755600D01*
X-3141830Y5752600D01*
X-3146500Y5751600D01*
G01X-3030470Y6331600D02*
Y6391600D01*
X-3047130D01*
X-3052470Y6388600D01*
X-3055800Y6384600D01*
X-3057130Y6376600D01*
X-3055800Y6368600D01*
X-3051800Y6363600D01*
X-3047130Y6360600D01*
X-3030470D01*
G01X-3047130D02*
X-3057130Y6331600D01*
G01X-3096800D02*
Y6391600D01*
X-3072130Y6348600D01*
X-3105470D01*
G01X-3122470Y6338600D02*
X-3127130Y6333600D01*
X-3132470Y6331600D01*
X-3137800Y6333600D01*
X-3142470Y6339600D01*
X-3145800Y6348600D01*
X-3147130Y6357600D01*
Y6368600D01*
X-3145800Y6377600D01*
X-3142470Y6385600D01*
X-3138470Y6389600D01*
X-3133800Y6391600D01*
X-3128470Y6389600D01*
X-3124470Y6385600D01*
X-3121800Y6379600D01*
X-3120470Y6371600D01*
X-3121800Y6364600D01*
X-3125130Y6357600D01*
X-3129130Y6353600D01*
X-3133800Y6352600D01*
X-3139130Y6354600D01*
X-3143130Y6359600D01*
X-3147130Y6368600D01*
G01X-2635000Y2994670D02*
X-2632000Y2990670D01*
X-2630000Y2986000D01*
Y2980670D01*
X-2633000Y2974670D01*
X-2638000Y2970000D01*
X-2644000Y2966670D01*
X-2654000Y2964000D01*
X-2663000Y2963330D01*
X-2672000Y2964670D01*
X-2678000Y2966670D01*
X-2684000Y2970670D01*
X-2688000Y2975330D01*
X-2690000Y2980000D01*
Y2984670D01*
X-2688000Y2989330D01*
X-2685000Y2993330D01*
X-2681000Y2996670D01*
G01X-2690000Y3033000D02*
X-2630000D01*
X-2673000Y3008330D01*
Y3041670D01*
G01X-3055000Y3500000D02*
Y3320000D01*
X-2965000D01*
Y3500000D01*
X-3055000D01*
G01X-2445000Y2114670D02*
X-2442000Y2110670D01*
X-2440000Y2106000D01*
Y2100670D01*
X-2443000Y2094670D01*
X-2448000Y2090000D01*
X-2454000Y2086670D01*
X-2464000Y2084000D01*
X-2473000Y2083330D01*
X-2482000Y2084670D01*
X-2488000Y2086670D01*
X-2494000Y2090670D01*
X-2498000Y2095330D01*
X-2500000Y2100000D01*
Y2104670D01*
X-2498000Y2109330D01*
X-2495000Y2113330D01*
X-2491000Y2116670D01*
G01X-2488000Y2130330D02*
X-2495000Y2134330D01*
X-2499000Y2139670D01*
X-2500000Y2145670D01*
X-2499000Y2151000D01*
X-2494000Y2156330D01*
X-2488000Y2159670D01*
X-2482000Y2160330D01*
X-2475000Y2159000D01*
X-2470000Y2154330D01*
X-2468000Y2149670D01*
Y2143670D01*
G01Y2149670D02*
X-2465000Y2153670D01*
X-2460000Y2157000D01*
X-2454000Y2158330D01*
X-2448000Y2157000D01*
X-2443000Y2153670D01*
X-2440000Y2147670D01*
X-2441000Y2141670D01*
X-2445000Y2135670D01*
G01X-2500000Y2190000D02*
X-2499000Y2194670D01*
X-2496000Y2200000D01*
X-2491000Y2203330D01*
X-2484000Y2204670D01*
X-2477000Y2203330D01*
X-2471000Y2199330D01*
X-2468000Y2193330D01*
Y2186670D01*
X-2466000Y2182670D01*
X-2461000Y2179330D01*
X-2454000Y2178000D01*
X-2447000Y2180000D01*
X-2442000Y2184670D01*
X-2440000Y2190000D01*
X-2442000Y2195330D01*
X-2447000Y2200000D01*
X-2454000Y2202000D01*
X-2461000Y2200670D01*
X-2466000Y2197330D01*
X-2468000Y2193330D01*
Y2186670D01*
X-2471000Y2180670D01*
X-2477000Y2176670D01*
X-2484000Y2175330D01*
X-2491000Y2176670D01*
X-2496000Y2180000D01*
X-2499000Y2185330D01*
X-2500000Y2190000D01*
G01X-2290000Y2164670D02*
X-2287000Y2160670D01*
X-2285000Y2156000D01*
Y2150670D01*
X-2288000Y2144670D01*
X-2293000Y2140000D01*
X-2299000Y2136670D01*
X-2309000Y2134000D01*
X-2318000Y2133330D01*
X-2327000Y2134670D01*
X-2333000Y2136670D01*
X-2339000Y2140670D01*
X-2343000Y2145330D01*
X-2345000Y2150000D01*
Y2154670D01*
X-2343000Y2159330D01*
X-2340000Y2163330D01*
X-2336000Y2166670D01*
G01X-2345000Y2193670D02*
X-2332000Y2195000D01*
X-2321000Y2197000D01*
X-2311000Y2199670D01*
X-2300000Y2203000D01*
X-2285000Y2208330D01*
Y2181670D01*
G01X-2255000Y2250000D02*
Y2430000D01*
X-2345000D01*
Y2250000D01*
X-2255000D01*
G01X-2561670Y2545000D02*
Y2605000D01*
X-2578330D01*
X-2583670Y2602000D01*
X-2587000Y2598000D01*
X-2588330Y2590000D01*
X-2587000Y2582000D01*
X-2583000Y2577000D01*
X-2578330Y2574000D01*
X-2561670D01*
G01X-2578330D02*
X-2588330Y2545000D01*
G01X-2605330Y2557000D02*
X-2609330Y2550000D01*
X-2614670Y2546000D01*
X-2620670Y2545000D01*
X-2626000Y2546000D01*
X-2631330Y2551000D01*
X-2634670Y2557000D01*
X-2635330Y2563000D01*
X-2634000Y2570000D01*
X-2629330Y2575000D01*
X-2624670Y2577000D01*
X-2618670D01*
G01X-2624670D02*
X-2628670Y2580000D01*
X-2632000Y2585000D01*
X-2633330Y2591000D01*
X-2632000Y2597000D01*
X-2628670Y2602000D01*
X-2622670Y2605000D01*
X-2616670Y2604000D01*
X-2610670Y2600000D01*
G01X-2520000Y2510000D02*
X-2240000D01*
Y2650000D01*
X-2520000D01*
Y2510000D01*
G01X-2431670Y3605000D02*
Y3665000D01*
X-2448330D01*
X-2453670Y3662000D01*
X-2457000Y3658000D01*
X-2458330Y3650000D01*
X-2457000Y3642000D01*
X-2453000Y3637000D01*
X-2448330Y3634000D01*
X-2431670D01*
G01X-2448330D02*
X-2458330Y3605000D01*
G01X-2475330Y3614000D02*
X-2479330Y3609000D01*
X-2484000Y3606000D01*
X-2490000Y3605000D01*
X-2496000Y3607000D01*
X-2500670Y3611000D01*
X-2504000Y3618000D01*
X-2504670Y3626000D01*
X-2503330Y3634000D01*
X-2500000Y3639000D01*
X-2495330Y3643000D01*
X-2490670Y3644000D01*
X-2486000Y3643000D01*
X-2480000Y3639000D01*
X-2482000Y3665000D01*
X-2500000D01*
G01X-2325000Y3745330D02*
X-2328000Y3749330D01*
X-2330000Y3754000D01*
Y3759330D01*
X-2327000Y3765330D01*
X-2322000Y3770000D01*
X-2316000Y3773330D01*
X-2306000Y3776000D01*
X-2297000Y3776670D01*
X-2288000Y3775330D01*
X-2282000Y3773330D01*
X-2276000Y3769330D01*
X-2272000Y3764670D01*
X-2270000Y3760000D01*
Y3755330D01*
X-2272000Y3750670D01*
X-2275000Y3746670D01*
X-2279000Y3743330D01*
G01X-2320000Y3727670D02*
X-2326000Y3723670D01*
X-2329000Y3719000D01*
X-2330000Y3713670D01*
X-2328000Y3707000D01*
X-2323000Y3702330D01*
X-2317000Y3701000D01*
X-2311000Y3701670D01*
X-2306000Y3704330D01*
X-2296000Y3717670D01*
X-2289000Y3723670D01*
X-2279000Y3727670D01*
X-2270000Y3729000D01*
Y3701000D01*
G01X-2265000Y3500000D02*
Y3680000D01*
X-2355000D01*
Y3500000D01*
X-2265000D01*
G01X-2244170Y4212000D02*
X-2247500Y4206000D01*
X-2251500Y4202000D01*
X-2256170Y4200000D01*
X-2261500Y4202000D01*
X-2265500Y4206000D01*
X-2269500Y4212000D01*
X-2270830Y4220000D01*
Y4260000D01*
G01X-2310500Y4200000D02*
Y4260000D01*
X-2285830Y4217000D01*
X-2319170D01*
G01X-2187000Y4538330D02*
X-2247000D01*
Y4521670D01*
X-2244000Y4516330D01*
X-2240000Y4513000D01*
X-2232000Y4511670D01*
X-2224000Y4513000D01*
X-2219000Y4517000D01*
X-2216000Y4521670D01*
Y4538330D01*
G01Y4521670D02*
X-2187000Y4511670D01*
G01X-2212000Y4492670D02*
X-2219000Y4488000D01*
X-2223000Y4484000D01*
X-2225000Y4478670D01*
X-2223000Y4474000D01*
X-2219000Y4470670D01*
X-2213000Y4468000D01*
X-2206000Y4467330D01*
X-2200000Y4468000D01*
X-2194000Y4470670D01*
X-2189000Y4474670D01*
X-2187000Y4479330D01*
X-2189000Y4484670D01*
X-2195000Y4489330D01*
X-2204000Y4492000D01*
X-2214000Y4492670D01*
X-2227000Y4491330D01*
X-2234000Y4489330D01*
X-2241000Y4486000D01*
X-2246000Y4481330D01*
X-2247000Y4476670D01*
X-2245000Y4472000D01*
X-2240000Y4468670D01*
G01X-2247000Y4435000D02*
X-2245000Y4440330D01*
X-2240000Y4444330D01*
X-2234000Y4447000D01*
X-2226000Y4449000D01*
X-2217000Y4449670D01*
X-2208000Y4449000D01*
X-2200000Y4447000D01*
X-2194000Y4444330D01*
X-2189000Y4440330D01*
X-2187000Y4435000D01*
X-2189000Y4429670D01*
X-2194000Y4425670D01*
X-2200000Y4423000D01*
X-2208000Y4421000D01*
X-2217000Y4420330D01*
X-2226000Y4421000D01*
X-2234000Y4423000D01*
X-2240000Y4425670D01*
X-2245000Y4429670D01*
X-2247000Y4435000D01*
G01X-2240000Y5356670D02*
X-2180000D01*
Y5373330D01*
X-2183000Y5378670D01*
X-2187000Y5382000D01*
X-2195000Y5383330D01*
X-2203000Y5382000D01*
X-2208000Y5378000D01*
X-2211000Y5373330D01*
Y5356670D01*
G01Y5373330D02*
X-2240000Y5383330D01*
G01X-2231000Y5400330D02*
X-2236000Y5404330D01*
X-2239000Y5409000D01*
X-2240000Y5415000D01*
X-2238000Y5421000D01*
X-2234000Y5425670D01*
X-2227000Y5429000D01*
X-2219000Y5429670D01*
X-2211000Y5428330D01*
X-2206000Y5425000D01*
X-2202000Y5420330D01*
X-2201000Y5415670D01*
X-2202000Y5411000D01*
X-2206000Y5405000D01*
X-2180000Y5407000D01*
Y5425000D01*
G01Y5460000D02*
X-2182000Y5454670D01*
X-2187000Y5450670D01*
X-2193000Y5448000D01*
X-2201000Y5446000D01*
X-2210000Y5445330D01*
X-2219000Y5446000D01*
X-2227000Y5448000D01*
X-2233000Y5450670D01*
X-2238000Y5454670D01*
X-2240000Y5460000D01*
X-2238000Y5465330D01*
X-2233000Y5469330D01*
X-2227000Y5472000D01*
X-2219000Y5474000D01*
X-2210000Y5474670D01*
X-2201000Y5474000D01*
X-2193000Y5472000D01*
X-2187000Y5469330D01*
X-2182000Y5465330D01*
X-2180000Y5460000D01*
G01X-2145000Y2174670D02*
X-2142000Y2170670D01*
X-2140000Y2166000D01*
Y2160670D01*
X-2143000Y2154670D01*
X-2148000Y2150000D01*
X-2154000Y2146670D01*
X-2164000Y2144000D01*
X-2173000Y2143330D01*
X-2182000Y2144670D01*
X-2188000Y2146670D01*
X-2194000Y2150670D01*
X-2198000Y2155330D01*
X-2200000Y2160000D01*
Y2164670D01*
X-2198000Y2169330D01*
X-2195000Y2173330D01*
X-2191000Y2176670D01*
G01X-2200000Y2205000D02*
X-2199000Y2209670D01*
X-2196000Y2215000D01*
X-2191000Y2218330D01*
X-2184000Y2219670D01*
X-2177000Y2218330D01*
X-2171000Y2214330D01*
X-2168000Y2208330D01*
Y2201670D01*
X-2166000Y2197670D01*
X-2161000Y2194330D01*
X-2154000Y2193000D01*
X-2147000Y2195000D01*
X-2142000Y2199670D01*
X-2140000Y2205000D01*
X-2142000Y2210330D01*
X-2147000Y2215000D01*
X-2154000Y2217000D01*
X-2161000Y2215670D01*
X-2166000Y2212330D01*
X-2168000Y2208330D01*
Y2201670D01*
X-2171000Y2195670D01*
X-2177000Y2191670D01*
X-2184000Y2190330D01*
X-2191000Y2191670D01*
X-2196000Y2195000D01*
X-2199000Y2200330D01*
X-2200000Y2205000D01*
G01X-1995000Y2174670D02*
X-1992000Y2170670D01*
X-1990000Y2166000D01*
Y2160670D01*
X-1993000Y2154670D01*
X-1998000Y2150000D01*
X-2004000Y2146670D01*
X-2014000Y2144000D01*
X-2023000Y2143330D01*
X-2032000Y2144670D01*
X-2038000Y2146670D01*
X-2044000Y2150670D01*
X-2048000Y2155330D01*
X-2050000Y2160000D01*
Y2164670D01*
X-2048000Y2169330D01*
X-2045000Y2173330D01*
X-2041000Y2176670D01*
G01X-2050000Y2205000D02*
X-1990000D01*
X-2002000Y2197000D01*
G01X-2050000D02*
Y2213000D01*
G01X-1965000Y2250000D02*
Y2430000D01*
X-2055000D01*
Y2250000D01*
X-1965000D01*
G01X-1841670Y2550000D02*
Y2610000D01*
X-1858330D01*
X-1863670Y2607000D01*
X-1867000Y2603000D01*
X-1868330Y2595000D01*
X-1867000Y2587000D01*
X-1863000Y2582000D01*
X-1858330Y2579000D01*
X-1841670D01*
G01X-1858330D02*
X-1868330Y2550000D01*
G01X-1887330Y2600000D02*
X-1891330Y2606000D01*
X-1896000Y2609000D01*
X-1901330Y2610000D01*
X-1908000Y2608000D01*
X-1912670Y2603000D01*
X-1914000Y2597000D01*
X-1913330Y2591000D01*
X-1910670Y2586000D01*
X-1897330Y2576000D01*
X-1891330Y2569000D01*
X-1887330Y2559000D01*
X-1886000Y2550000D01*
X-1914000D01*
G01X-1950000Y2650000D02*
X-2230000D01*
Y2510000D01*
X-1950000D01*
Y2650000D01*
G01X-1905000Y2980000D02*
Y2800000D01*
X-1815000D01*
Y2980000D01*
X-1905000D01*
G01X-1832830Y2740000D02*
Y2697000D01*
X-1835500Y2688000D01*
X-1840830Y2682000D01*
X-1847500Y2680000D01*
X-1854170Y2682000D01*
X-1859500Y2688000D01*
X-1862170Y2697000D01*
Y2740000D01*
G01X-1892500Y2680000D02*
Y2740000D01*
X-1884500Y2728000D01*
G01Y2680000D02*
X-1900500D01*
G01X-1946670Y3600000D02*
Y3660000D01*
X-1963330D01*
X-1968670Y3657000D01*
X-1972000Y3653000D01*
X-1973330Y3645000D01*
X-1972000Y3637000D01*
X-1968000Y3632000D01*
X-1963330Y3629000D01*
X-1946670D01*
G01X-1963330D02*
X-1973330Y3600000D01*
G01X-1992330Y3625000D02*
X-1997000Y3632000D01*
X-2001000Y3636000D01*
X-2006330Y3638000D01*
X-2011000Y3636000D01*
X-2014330Y3632000D01*
X-2017000Y3626000D01*
X-2017670Y3619000D01*
X-2017000Y3613000D01*
X-2014330Y3607000D01*
X-2010330Y3602000D01*
X-2005670Y3600000D01*
X-2000330Y3602000D01*
X-1995670Y3608000D01*
X-1993000Y3617000D01*
X-1992330Y3627000D01*
X-1993670Y3640000D01*
X-1995670Y3647000D01*
X-1999000Y3654000D01*
X-2003670Y3659000D01*
X-2008330Y3660000D01*
X-2013000Y3658000D01*
X-2016330Y3653000D01*
G01X-2150000Y3734670D02*
X-2147000Y3730670D01*
X-2145000Y3726000D01*
Y3720670D01*
X-2148000Y3714670D01*
X-2153000Y3710000D01*
X-2159000Y3706670D01*
X-2169000Y3704000D01*
X-2178000Y3703330D01*
X-2187000Y3704670D01*
X-2193000Y3706670D01*
X-2199000Y3710670D01*
X-2203000Y3715330D01*
X-2205000Y3720000D01*
Y3724670D01*
X-2203000Y3729330D01*
X-2200000Y3733330D01*
X-2196000Y3736670D01*
G01X-2193000Y3750330D02*
X-2200000Y3754330D01*
X-2204000Y3759670D01*
X-2205000Y3765670D01*
X-2204000Y3771000D01*
X-2199000Y3776330D01*
X-2193000Y3779670D01*
X-2187000Y3780330D01*
X-2180000Y3779000D01*
X-2175000Y3774330D01*
X-2173000Y3769670D01*
Y3763670D01*
G01Y3769670D02*
X-2170000Y3773670D01*
X-2165000Y3777000D01*
X-2159000Y3778330D01*
X-2153000Y3777000D01*
X-2148000Y3773670D01*
X-2145000Y3767670D01*
X-2146000Y3761670D01*
X-2150000Y3755670D01*
G01X-2198000Y3798670D02*
X-2203000Y3803330D01*
X-2205000Y3808670D01*
X-2203000Y3814000D01*
X-2197000Y3818670D01*
X-2188000Y3822000D01*
X-2179000Y3823330D01*
X-2168000D01*
X-2159000Y3822000D01*
X-2151000Y3818670D01*
X-2147000Y3814670D01*
X-2145000Y3810000D01*
X-2147000Y3804670D01*
X-2151000Y3800670D01*
X-2157000Y3798000D01*
X-2165000Y3796670D01*
X-2172000Y3798000D01*
X-2179000Y3801330D01*
X-2183000Y3805330D01*
X-2184000Y3810000D01*
X-2182000Y3815330D01*
X-2177000Y3819330D01*
X-2168000Y3823330D01*
G01X-2135000Y3500000D02*
Y3680000D01*
X-2225000D01*
Y3500000D01*
X-2135000D01*
G01X-2172000Y4565000D02*
Y4385000D01*
X-2082000D01*
Y4565000D01*
X-2172000D01*
G01X-1844500Y4970000D02*
X-1860500D01*
G01X-1852500D02*
Y4910000D01*
G01X-1844500D02*
X-1860500D01*
G01X-1912170Y4965000D02*
X-1908170Y4968000D01*
X-1903500Y4970000D01*
X-1898170D01*
X-1892170Y4967000D01*
X-1887500Y4962000D01*
X-1884170Y4956000D01*
X-1881500Y4946000D01*
X-1880830Y4937000D01*
X-1882170Y4928000D01*
X-1884170Y4922000D01*
X-1888170Y4916000D01*
X-1892830Y4912000D01*
X-1897500Y4910000D01*
X-1902170D01*
X-1906830Y4912000D01*
X-1910830Y4915000D01*
X-1914170Y4919000D01*
G01X-1942500Y4910000D02*
Y4970000D01*
X-1934500Y4958000D01*
G01Y4910000D02*
X-1950500D01*
G01X-1987500D02*
X-1992170Y4911000D01*
X-1997500Y4914000D01*
X-2000830Y4919000D01*
X-2002170Y4926000D01*
X-2000830Y4933000D01*
X-1996830Y4939000D01*
X-1990830Y4942000D01*
X-1984170D01*
X-1980170Y4944000D01*
X-1976830Y4949000D01*
X-1975500Y4956000D01*
X-1977500Y4963000D01*
X-1982170Y4968000D01*
X-1987500Y4970000D01*
X-1992830Y4968000D01*
X-1997500Y4963000D01*
X-1999500Y4956000D01*
X-1998170Y4949000D01*
X-1994830Y4944000D01*
X-1990830Y4942000D01*
X-1984170D01*
X-1978170Y4939000D01*
X-1974170Y4933000D01*
X-1972830Y4926000D01*
X-1974170Y4919000D01*
X-1977500Y4914000D01*
X-1982830Y4911000D01*
X-1987500Y4910000D01*
G01X-2063700Y4903000D02*
G03I-6300J0D01*
G01X-1930000Y5356670D02*
X-1870000D01*
Y5373330D01*
X-1873000Y5378670D01*
X-1877000Y5382000D01*
X-1885000Y5383330D01*
X-1893000Y5382000D01*
X-1898000Y5378000D01*
X-1901000Y5373330D01*
Y5356670D01*
G01Y5373330D02*
X-1930000Y5383330D01*
G01X-1921000Y5400330D02*
X-1926000Y5404330D01*
X-1929000Y5409000D01*
X-1930000Y5415000D01*
X-1928000Y5421000D01*
X-1924000Y5425670D01*
X-1917000Y5429000D01*
X-1909000Y5429670D01*
X-1901000Y5428330D01*
X-1896000Y5425000D01*
X-1892000Y5420330D01*
X-1891000Y5415670D01*
X-1892000Y5411000D01*
X-1896000Y5405000D01*
X-1870000Y5407000D01*
Y5425000D01*
G01X-1905000Y5447330D02*
X-1898000Y5452000D01*
X-1894000Y5456000D01*
X-1892000Y5461330D01*
X-1894000Y5466000D01*
X-1898000Y5469330D01*
X-1904000Y5472000D01*
X-1911000Y5472670D01*
X-1917000Y5472000D01*
X-1923000Y5469330D01*
X-1928000Y5465330D01*
X-1930000Y5460670D01*
X-1928000Y5455330D01*
X-1922000Y5450670D01*
X-1913000Y5448000D01*
X-1903000Y5447330D01*
X-1890000Y5448670D01*
X-1883000Y5450670D01*
X-1876000Y5454000D01*
X-1871000Y5458670D01*
X-1870000Y5463330D01*
X-1872000Y5468000D01*
X-1877000Y5471330D01*
G01X-2090000Y5356670D02*
X-2030000D01*
Y5373330D01*
X-2033000Y5378670D01*
X-2037000Y5382000D01*
X-2045000Y5383330D01*
X-2053000Y5382000D01*
X-2058000Y5378000D01*
X-2061000Y5373330D01*
Y5356670D01*
G01Y5373330D02*
X-2090000Y5383330D01*
G01X-2081000Y5400330D02*
X-2086000Y5404330D01*
X-2089000Y5409000D01*
X-2090000Y5415000D01*
X-2088000Y5421000D01*
X-2084000Y5425670D01*
X-2077000Y5429000D01*
X-2069000Y5429670D01*
X-2061000Y5428330D01*
X-2056000Y5425000D01*
X-2052000Y5420330D01*
X-2051000Y5415670D01*
X-2052000Y5411000D01*
X-2056000Y5405000D01*
X-2030000Y5407000D01*
Y5425000D01*
G01X-2090000Y5460000D02*
X-2030000D01*
X-2042000Y5452000D01*
G01X-2090000D02*
Y5468000D01*
G01X-1982000Y6290000D02*
X-1998000D01*
G01X-1990000D02*
Y6230000D01*
G01X-1982000D02*
X-1998000D01*
G01X-2049670Y6285000D02*
X-2045670Y6288000D01*
X-2041000Y6290000D01*
X-2035670D01*
X-2029670Y6287000D01*
X-2025000Y6282000D01*
X-2021670Y6276000D01*
X-2019000Y6266000D01*
X-2018330Y6257000D01*
X-2019670Y6248000D01*
X-2021670Y6242000D01*
X-2025670Y6236000D01*
X-2030330Y6232000D01*
X-2035000Y6230000D01*
X-2039670D01*
X-2044330Y6232000D01*
X-2048330Y6235000D01*
X-2051670Y6239000D01*
G01X-2080000Y6230000D02*
X-2084670Y6231000D01*
X-2090000Y6234000D01*
X-2093330Y6239000D01*
X-2094670Y6246000D01*
X-2093330Y6253000D01*
X-2089330Y6259000D01*
X-2083330Y6262000D01*
X-2076670D01*
X-2072670Y6264000D01*
X-2069330Y6269000D01*
X-2068000Y6276000D01*
X-2070000Y6283000D01*
X-2074670Y6288000D01*
X-2080000Y6290000D01*
X-2085330Y6288000D01*
X-2090000Y6283000D01*
X-2092000Y6276000D01*
X-2090670Y6269000D01*
X-2087330Y6264000D01*
X-2083330Y6262000D01*
X-2076670D01*
X-2070670Y6259000D01*
X-2066670Y6253000D01*
X-2065330Y6246000D01*
X-2066670Y6239000D01*
X-2070000Y6234000D01*
X-2075330Y6231000D01*
X-2080000Y6230000D01*
G01X-1568000Y45000D02*
X-1578000D01*
Y30000D01*
X-1575000Y25000D01*
X-1571500Y21670D01*
X-1566500Y20000D01*
X-1561500Y21670D01*
X-1558000Y25000D01*
X-1555000Y30000D01*
X-1553000Y35830D01*
X-1552000Y42500D01*
Y48330D01*
X-1553000Y53330D01*
X-1555000Y59170D01*
X-1558000Y64170D01*
X-1561000Y67500D01*
X-1565000Y70000D01*
X-1568500D01*
X-1572500Y68330D01*
X-1575500Y65000D01*
G01X-1588500Y20000D02*
Y70000D01*
X-1611500Y20000D01*
Y70000D01*
G01X-1624000Y20000D02*
Y70000D01*
X-1634000D01*
X-1638000Y67500D01*
X-1641000Y64170D01*
X-1643500Y59170D01*
X-1645500Y53330D01*
X-1646000Y45000D01*
X-1645500Y36670D01*
X-1643500Y30830D01*
X-1641000Y25830D01*
X-1638000Y22500D01*
X-1634000Y20000D01*
X-1624000D01*
G01X-1528330Y3030000D02*
Y2970000D01*
X-1511670D01*
X-1506330Y2973000D01*
X-1503000Y2977000D01*
X-1501670Y2985000D01*
X-1503000Y2993000D01*
X-1507000Y2998000D01*
X-1511670Y3001000D01*
X-1528330D01*
G01X-1511670D02*
X-1501670Y3030000D01*
G01X-1462000D02*
Y2970000D01*
X-1486670Y3013000D01*
X-1453330D01*
G01X-1437670Y2980000D02*
X-1433670Y2974000D01*
X-1429000Y2971000D01*
X-1423670Y2970000D01*
X-1417000Y2972000D01*
X-1412330Y2977000D01*
X-1411000Y2983000D01*
X-1411670Y2989000D01*
X-1414330Y2994000D01*
X-1427670Y3004000D01*
X-1433670Y3011000D01*
X-1437670Y3021000D01*
X-1439000Y3030000D01*
X-1411000D01*
G01X-1795000Y2900330D02*
X-1798000Y2904330D01*
X-1800000Y2909000D01*
Y2914330D01*
X-1797000Y2920330D01*
X-1792000Y2925000D01*
X-1786000Y2928330D01*
X-1776000Y2931000D01*
X-1767000Y2931670D01*
X-1758000Y2930330D01*
X-1752000Y2928330D01*
X-1746000Y2924330D01*
X-1742000Y2919670D01*
X-1740000Y2915000D01*
Y2910330D01*
X-1742000Y2905670D01*
X-1745000Y2901670D01*
X-1749000Y2898330D01*
G01X-1752000Y2884670D02*
X-1745000Y2880670D01*
X-1741000Y2875330D01*
X-1740000Y2869330D01*
X-1741000Y2864000D01*
X-1746000Y2858670D01*
X-1752000Y2855330D01*
X-1758000Y2854670D01*
X-1765000Y2856000D01*
X-1770000Y2860670D01*
X-1772000Y2865330D01*
Y2871330D01*
G01Y2865330D02*
X-1775000Y2861330D01*
X-1780000Y2858000D01*
X-1786000Y2856670D01*
X-1792000Y2858000D01*
X-1797000Y2861330D01*
X-1800000Y2867330D01*
X-1799000Y2873330D01*
X-1795000Y2879330D01*
G01X-1780000Y3166670D02*
X-1720000D01*
Y3183330D01*
X-1723000Y3188670D01*
X-1727000Y3192000D01*
X-1735000Y3193330D01*
X-1743000Y3192000D01*
X-1748000Y3188000D01*
X-1751000Y3183330D01*
Y3166670D01*
G01Y3183330D02*
X-1780000Y3193330D01*
G01Y3225000D02*
X-1720000D01*
X-1732000Y3217000D01*
G01X-1780000D02*
Y3233000D01*
G01Y3278000D02*
X-1720000D01*
X-1763000Y3253330D01*
Y3286670D01*
G01X-1720000Y3315000D02*
X-1722000Y3309670D01*
X-1727000Y3305670D01*
X-1733000Y3303000D01*
X-1741000Y3301000D01*
X-1750000Y3300330D01*
X-1759000Y3301000D01*
X-1767000Y3303000D01*
X-1773000Y3305670D01*
X-1778000Y3309670D01*
X-1780000Y3315000D01*
X-1778000Y3320330D01*
X-1773000Y3324330D01*
X-1767000Y3327000D01*
X-1759000Y3329000D01*
X-1750000Y3329670D01*
X-1741000Y3329000D01*
X-1733000Y3327000D01*
X-1727000Y3324330D01*
X-1722000Y3320330D01*
X-1720000Y3315000D01*
G01X-1235000Y3532600D02*
X-1251000D01*
G01X-1243000D02*
Y3472600D01*
G01X-1235000D02*
X-1251000D01*
G01X-1302670Y3527600D02*
X-1298670Y3530600D01*
X-1294000Y3532600D01*
X-1288670D01*
X-1282670Y3529600D01*
X-1278000Y3524600D01*
X-1274670Y3518600D01*
X-1272000Y3508600D01*
X-1271330Y3499600D01*
X-1272670Y3490600D01*
X-1274670Y3484600D01*
X-1278670Y3478600D01*
X-1283330Y3474600D01*
X-1288000Y3472600D01*
X-1292670D01*
X-1297330Y3474600D01*
X-1301330Y3477600D01*
X-1304670Y3481600D01*
G01X-1333000Y3472600D02*
Y3532600D01*
X-1325000Y3520600D01*
G01Y3472600D02*
X-1341000D01*
G01X-1363330Y3481600D02*
X-1367330Y3476600D01*
X-1372000Y3473600D01*
X-1378000Y3472600D01*
X-1384000Y3474600D01*
X-1388670Y3478600D01*
X-1392000Y3485600D01*
X-1392670Y3493600D01*
X-1391330Y3501600D01*
X-1388000Y3506600D01*
X-1383330Y3510600D01*
X-1378670Y3511600D01*
X-1374000Y3510600D01*
X-1368000Y3506600D01*
X-1370000Y3532600D01*
X-1388000D01*
G01X-1760000Y3411670D02*
X-1700000D01*
Y3428330D01*
X-1703000Y3433670D01*
X-1707000Y3437000D01*
X-1715000Y3438330D01*
X-1723000Y3437000D01*
X-1728000Y3433000D01*
X-1731000Y3428330D01*
Y3411670D01*
G01Y3428330D02*
X-1760000Y3438330D01*
G01Y3478000D02*
X-1700000D01*
X-1743000Y3453330D01*
Y3486670D01*
G01X-1760000Y3515000D02*
X-1700000D01*
X-1712000Y3507000D01*
G01X-1760000D02*
Y3523000D01*
G01Y3560000D02*
X-1700000D01*
X-1712000Y3552000D01*
G01X-1760000D02*
Y3568000D01*
G01X-1530000Y4305000D02*
X-1350000D01*
Y4395000D01*
X-1530000D01*
Y4305000D01*
G01Y4425000D02*
X-1350000D01*
Y4515000D01*
X-1530000D01*
Y4425000D01*
G01X-1455500Y5791570D02*
X-1452500Y5787570D01*
X-1450500Y5782900D01*
Y5777570D01*
X-1453500Y5771570D01*
X-1458500Y5766900D01*
X-1464500Y5763570D01*
X-1474500Y5760900D01*
X-1483500Y5760230D01*
X-1492500Y5761570D01*
X-1498500Y5763570D01*
X-1504500Y5767570D01*
X-1508500Y5772230D01*
X-1510500Y5776900D01*
Y5781570D01*
X-1508500Y5786230D01*
X-1505500Y5790230D01*
X-1501500Y5793570D01*
G01X-1498500Y5807230D02*
X-1505500Y5811230D01*
X-1509500Y5816570D01*
X-1510500Y5822570D01*
X-1509500Y5827900D01*
X-1504500Y5833230D01*
X-1498500Y5836570D01*
X-1492500Y5837230D01*
X-1485500Y5835900D01*
X-1480500Y5831230D01*
X-1478500Y5826570D01*
Y5820570D01*
G01Y5826570D02*
X-1475500Y5830570D01*
X-1470500Y5833900D01*
X-1464500Y5835230D01*
X-1458500Y5833900D01*
X-1453500Y5830570D01*
X-1450500Y5824570D01*
X-1451500Y5818570D01*
X-1455500Y5812570D01*
G01X-1510500Y5874900D02*
X-1450500D01*
X-1493500Y5850230D01*
Y5883570D01*
G01X-1445700Y6046270D02*
X-1442700Y6042270D01*
X-1440700Y6037600D01*
Y6032270D01*
X-1443700Y6026270D01*
X-1448700Y6021600D01*
X-1454700Y6018270D01*
X-1464700Y6015600D01*
X-1473700Y6014930D01*
X-1482700Y6016270D01*
X-1488700Y6018270D01*
X-1494700Y6022270D01*
X-1498700Y6026930D01*
X-1500700Y6031600D01*
Y6036270D01*
X-1498700Y6040930D01*
X-1495700Y6044930D01*
X-1491700Y6048270D01*
G01X-1488700Y6061930D02*
X-1495700Y6065930D01*
X-1499700Y6071270D01*
X-1500700Y6077270D01*
X-1499700Y6082600D01*
X-1494700Y6087930D01*
X-1488700Y6091270D01*
X-1482700Y6091930D01*
X-1475700Y6090600D01*
X-1470700Y6085930D01*
X-1468700Y6081270D01*
Y6075270D01*
G01Y6081270D02*
X-1465700Y6085270D01*
X-1460700Y6088600D01*
X-1454700Y6089930D01*
X-1448700Y6088600D01*
X-1443700Y6085270D01*
X-1440700Y6079270D01*
X-1441700Y6073270D01*
X-1445700Y6067270D01*
G01X-1488700Y6106930D02*
X-1495700Y6110930D01*
X-1499700Y6116270D01*
X-1500700Y6122270D01*
X-1499700Y6127600D01*
X-1494700Y6132930D01*
X-1488700Y6136270D01*
X-1482700Y6136930D01*
X-1475700Y6135600D01*
X-1470700Y6130930D01*
X-1468700Y6126270D01*
Y6120270D01*
G01Y6126270D02*
X-1465700Y6130270D01*
X-1460700Y6133600D01*
X-1454700Y6134930D01*
X-1448700Y6133600D01*
X-1443700Y6130270D01*
X-1440700Y6124270D01*
X-1441700Y6118270D01*
X-1445700Y6112270D01*
G01X-1209500Y36670D02*
X-1221500D01*
G01X-1215000Y47500D02*
Y25830D01*
G01X-1250000Y20000D02*
Y70000D01*
X-1244000Y60000D01*
G01Y20000D02*
X-1256000D01*
G01X-1272500Y70000D02*
X-1285000Y20000D01*
X-1297500Y70000D01*
G01X-1320000Y20000D02*
X-1323500Y20830D01*
X-1327500Y23330D01*
X-1330000Y27500D01*
X-1331000Y33330D01*
X-1330000Y39170D01*
X-1327000Y44170D01*
X-1322500Y46670D01*
X-1317500D01*
X-1314500Y48330D01*
X-1312000Y52500D01*
X-1311000Y58330D01*
X-1312500Y64170D01*
X-1316000Y68330D01*
X-1320000Y70000D01*
X-1324000Y68330D01*
X-1327500Y64170D01*
X-1329000Y58330D01*
X-1328000Y52500D01*
X-1325500Y48330D01*
X-1322500Y46670D01*
X-1317500D01*
X-1313000Y44170D01*
X-1310000Y39170D01*
X-1309000Y33330D01*
X-1310000Y27500D01*
X-1312500Y23330D01*
X-1316500Y20830D01*
X-1320000Y20000D01*
G01X-959500Y36670D02*
X-971500D01*
G01X-965000Y47500D02*
Y25830D01*
G01X-989000Y30000D02*
X-992000Y24170D01*
X-996000Y20830D01*
X-1000500Y20000D01*
X-1004500Y20830D01*
X-1008500Y25000D01*
X-1011000Y30000D01*
X-1011500Y35000D01*
X-1010500Y40830D01*
X-1007000Y45000D01*
X-1003500Y46670D01*
X-999000D01*
G01X-1003500D02*
X-1006500Y49170D01*
X-1009000Y53330D01*
X-1010000Y58330D01*
X-1009000Y63330D01*
X-1006500Y67500D01*
X-1002000Y70000D01*
X-997500Y69170D01*
X-993000Y65830D01*
G01X-1022500Y70000D02*
X-1035000Y20000D01*
X-1047500Y70000D01*
G01X-1059000Y30000D02*
X-1062000Y24170D01*
X-1066000Y20830D01*
X-1070500Y20000D01*
X-1074500Y20830D01*
X-1078500Y25000D01*
X-1081000Y30000D01*
X-1081500Y35000D01*
X-1080500Y40830D01*
X-1077000Y45000D01*
X-1073500Y46670D01*
X-1069000D01*
G01X-1073500D02*
X-1076500Y49170D01*
X-1079000Y53330D01*
X-1080000Y58330D01*
X-1079000Y63330D01*
X-1076500Y67500D01*
X-1072000Y70000D01*
X-1067500Y69170D01*
X-1063000Y65830D01*
G01X-1208060Y2379170D02*
X-1213010Y2379870D01*
X-1217720Y2381760D01*
X-1221490Y2385530D01*
X-1223610Y2391900D01*
X-1223380Y2398730D01*
X-1221490Y2405330D01*
X-1216310Y2414290D01*
X-1210420Y2421120D01*
X-1203110Y2426540D01*
X-1197450Y2429370D01*
X-1190380Y2430790D01*
X-1184250Y2430310D01*
X-1179540Y2428430D01*
X-1176240Y2425130D01*
X-1174350Y2420410D01*
X-1173640Y2415460D01*
X-1174110Y2410280D01*
G01X-1148660Y2397550D02*
X-1156910Y2387420D01*
X-1163270Y2378220D01*
X-1168460Y2369270D01*
X-1173880Y2359130D01*
X-1180720Y2344750D01*
X-1199570Y2363610D01*
G01X-1115900Y2364790D02*
X-1158320Y2322360D01*
X-1155500Y2336500D01*
G01X-1121550Y2370440D02*
X-1110240Y2359130D01*
G01X-1303330Y4365000D02*
Y4305000D01*
X-1286670D01*
X-1281330Y4308000D01*
X-1278000Y4312000D01*
X-1276670Y4320000D01*
X-1278000Y4328000D01*
X-1282000Y4333000D01*
X-1286670Y4336000D01*
X-1303330D01*
G01X-1286670D02*
X-1276670Y4365000D01*
G01X-1259670Y4356000D02*
X-1255670Y4361000D01*
X-1251000Y4364000D01*
X-1245000Y4365000D01*
X-1239000Y4363000D01*
X-1234330Y4359000D01*
X-1231000Y4352000D01*
X-1230330Y4344000D01*
X-1231670Y4336000D01*
X-1235000Y4331000D01*
X-1239670Y4327000D01*
X-1244330Y4326000D01*
X-1249000Y4327000D01*
X-1255000Y4331000D01*
X-1253000Y4305000D01*
X-1235000D01*
G01X-1200000Y4365000D02*
X-1195330Y4364000D01*
X-1190000Y4361000D01*
X-1186670Y4356000D01*
X-1185330Y4349000D01*
X-1186670Y4342000D01*
X-1190670Y4336000D01*
X-1196670Y4333000D01*
X-1203330D01*
X-1207330Y4331000D01*
X-1210670Y4326000D01*
X-1212000Y4319000D01*
X-1210000Y4312000D01*
X-1205330Y4307000D01*
X-1200000Y4305000D01*
X-1194670Y4307000D01*
X-1190000Y4312000D01*
X-1188000Y4319000D01*
X-1189330Y4326000D01*
X-1192670Y4331000D01*
X-1196670Y4333000D01*
X-1203330D01*
X-1209330Y4336000D01*
X-1213330Y4342000D01*
X-1214670Y4349000D01*
X-1213330Y4356000D01*
X-1210000Y4361000D01*
X-1204670Y4364000D01*
X-1200000Y4365000D01*
G01X-1308330Y4480000D02*
Y4420000D01*
X-1291670D01*
X-1286330Y4423000D01*
X-1283000Y4427000D01*
X-1281670Y4435000D01*
X-1283000Y4443000D01*
X-1287000Y4448000D01*
X-1291670Y4451000D01*
X-1308330D01*
G01X-1291670D02*
X-1281670Y4480000D01*
G01X-1264670Y4471000D02*
X-1260670Y4476000D01*
X-1256000Y4479000D01*
X-1250000Y4480000D01*
X-1244000Y4478000D01*
X-1239330Y4474000D01*
X-1236000Y4467000D01*
X-1235330Y4459000D01*
X-1236670Y4451000D01*
X-1240000Y4446000D01*
X-1244670Y4442000D01*
X-1249330Y4441000D01*
X-1254000Y4442000D01*
X-1260000Y4446000D01*
X-1258000Y4420000D01*
X-1240000D01*
G01X-1216330Y4473000D02*
X-1211670Y4478000D01*
X-1206330Y4480000D01*
X-1201000Y4478000D01*
X-1196330Y4472000D01*
X-1193000Y4463000D01*
X-1191670Y4454000D01*
Y4443000D01*
X-1193000Y4434000D01*
X-1196330Y4426000D01*
X-1200330Y4422000D01*
X-1205000Y4420000D01*
X-1210330Y4422000D01*
X-1214330Y4426000D01*
X-1217000Y4432000D01*
X-1218330Y4440000D01*
X-1217000Y4447000D01*
X-1213670Y4454000D01*
X-1209670Y4458000D01*
X-1205000Y4459000D01*
X-1199670Y4457000D01*
X-1195670Y4452000D01*
X-1191670Y4443000D01*
G01X-1212000Y5320000D02*
X-1228000D01*
G01X-1220000D02*
Y5260000D01*
G01X-1212000D02*
X-1228000D01*
G01X-1279670Y5315000D02*
X-1275670Y5318000D01*
X-1271000Y5320000D01*
X-1265670D01*
X-1259670Y5317000D01*
X-1255000Y5312000D01*
X-1251670Y5306000D01*
X-1249000Y5296000D01*
X-1248330Y5287000D01*
X-1249670Y5278000D01*
X-1251670Y5272000D01*
X-1255670Y5266000D01*
X-1260330Y5262000D01*
X-1265000Y5260000D01*
X-1269670D01*
X-1274330Y5262000D01*
X-1278330Y5265000D01*
X-1281670Y5269000D01*
G01X-1310000Y5260000D02*
Y5320000D01*
X-1302000Y5308000D01*
G01Y5260000D02*
X-1318000D01*
G01X-1355000Y5320000D02*
X-1349670Y5318000D01*
X-1345670Y5313000D01*
X-1343000Y5307000D01*
X-1341000Y5299000D01*
X-1340330Y5290000D01*
X-1341000Y5281000D01*
X-1343000Y5273000D01*
X-1345670Y5267000D01*
X-1349670Y5262000D01*
X-1355000Y5260000D01*
X-1360330Y5262000D01*
X-1364330Y5267000D01*
X-1367000Y5273000D01*
X-1369000Y5281000D01*
X-1369670Y5290000D01*
X-1369000Y5299000D01*
X-1367000Y5307000D01*
X-1364330Y5313000D01*
X-1360330Y5318000D01*
X-1355000Y5320000D01*
G01X-935000Y5584670D02*
X-932000Y5580670D01*
X-930000Y5576000D01*
Y5570670D01*
X-933000Y5564670D01*
X-938000Y5560000D01*
X-944000Y5556670D01*
X-954000Y5554000D01*
X-963000Y5553330D01*
X-972000Y5554670D01*
X-978000Y5556670D01*
X-984000Y5560670D01*
X-988000Y5565330D01*
X-990000Y5570000D01*
Y5574670D01*
X-988000Y5579330D01*
X-985000Y5583330D01*
X-981000Y5586670D01*
G01Y5600330D02*
X-986000Y5604330D01*
X-989000Y5609000D01*
X-990000Y5615000D01*
X-988000Y5621000D01*
X-984000Y5625670D01*
X-977000Y5629000D01*
X-969000Y5629670D01*
X-961000Y5628330D01*
X-956000Y5625000D01*
X-952000Y5620330D01*
X-951000Y5615670D01*
X-952000Y5611000D01*
X-956000Y5605000D01*
X-930000Y5607000D01*
Y5625000D01*
G01X-978000Y5645330D02*
X-985000Y5649330D01*
X-989000Y5654670D01*
X-990000Y5660670D01*
X-989000Y5666000D01*
X-984000Y5671330D01*
X-978000Y5674670D01*
X-972000Y5675330D01*
X-965000Y5674000D01*
X-960000Y5669330D01*
X-958000Y5664670D01*
Y5658670D01*
G01Y5664670D02*
X-955000Y5668670D01*
X-950000Y5672000D01*
X-944000Y5673330D01*
X-938000Y5672000D01*
X-933000Y5668670D01*
X-930000Y5662670D01*
X-931000Y5656670D01*
X-935000Y5650670D01*
G01X-1180000Y5566670D02*
X-1120000D01*
Y5583330D01*
X-1123000Y5588670D01*
X-1127000Y5592000D01*
X-1135000Y5593330D01*
X-1143000Y5592000D01*
X-1148000Y5588000D01*
X-1151000Y5583330D01*
Y5566670D01*
G01Y5583330D02*
X-1180000Y5593330D01*
G01X-1168000Y5610330D02*
X-1175000Y5614330D01*
X-1179000Y5619670D01*
X-1180000Y5625670D01*
X-1179000Y5631000D01*
X-1174000Y5636330D01*
X-1168000Y5639670D01*
X-1162000Y5640330D01*
X-1155000Y5639000D01*
X-1150000Y5634330D01*
X-1148000Y5629670D01*
Y5623670D01*
G01Y5629670D02*
X-1145000Y5633670D01*
X-1140000Y5637000D01*
X-1134000Y5638330D01*
X-1128000Y5637000D01*
X-1123000Y5633670D01*
X-1120000Y5627670D01*
X-1121000Y5621670D01*
X-1125000Y5615670D01*
G01X-1180000Y5670000D02*
X-1179000Y5674670D01*
X-1176000Y5680000D01*
X-1171000Y5683330D01*
X-1164000Y5684670D01*
X-1157000Y5683330D01*
X-1151000Y5679330D01*
X-1148000Y5673330D01*
Y5666670D01*
X-1146000Y5662670D01*
X-1141000Y5659330D01*
X-1134000Y5658000D01*
X-1127000Y5660000D01*
X-1122000Y5664670D01*
X-1120000Y5670000D01*
X-1122000Y5675330D01*
X-1127000Y5680000D01*
X-1134000Y5682000D01*
X-1141000Y5680670D01*
X-1146000Y5677330D01*
X-1148000Y5673330D01*
Y5666670D01*
X-1151000Y5660670D01*
X-1157000Y5656670D01*
X-1164000Y5655330D01*
X-1171000Y5656670D01*
X-1176000Y5660000D01*
X-1179000Y5665330D01*
X-1180000Y5670000D01*
G01X-935000Y6164670D02*
X-932000Y6160670D01*
X-930000Y6156000D01*
Y6150670D01*
X-933000Y6144670D01*
X-938000Y6140000D01*
X-944000Y6136670D01*
X-954000Y6134000D01*
X-963000Y6133330D01*
X-972000Y6134670D01*
X-978000Y6136670D01*
X-984000Y6140670D01*
X-988000Y6145330D01*
X-990000Y6150000D01*
Y6154670D01*
X-988000Y6159330D01*
X-985000Y6163330D01*
X-981000Y6166670D01*
G01Y6180330D02*
X-986000Y6184330D01*
X-989000Y6189000D01*
X-990000Y6195000D01*
X-988000Y6201000D01*
X-984000Y6205670D01*
X-977000Y6209000D01*
X-969000Y6209670D01*
X-961000Y6208330D01*
X-956000Y6205000D01*
X-952000Y6200330D01*
X-951000Y6195670D01*
X-952000Y6191000D01*
X-956000Y6185000D01*
X-930000Y6187000D01*
Y6205000D01*
G01X-940000Y6227330D02*
X-934000Y6231330D01*
X-931000Y6236000D01*
X-930000Y6241330D01*
X-932000Y6248000D01*
X-937000Y6252670D01*
X-943000Y6254000D01*
X-949000Y6253330D01*
X-954000Y6250670D01*
X-964000Y6237330D01*
X-971000Y6231330D01*
X-981000Y6227330D01*
X-990000Y6226000D01*
Y6254000D01*
G01X-1105000Y6136670D02*
X-1045000D01*
Y6153330D01*
X-1048000Y6158670D01*
X-1052000Y6162000D01*
X-1060000Y6163330D01*
X-1068000Y6162000D01*
X-1073000Y6158000D01*
X-1076000Y6153330D01*
Y6136670D01*
G01Y6153330D02*
X-1105000Y6163330D01*
G01X-1093000Y6180330D02*
X-1100000Y6184330D01*
X-1104000Y6189670D01*
X-1105000Y6195670D01*
X-1104000Y6201000D01*
X-1099000Y6206330D01*
X-1093000Y6209670D01*
X-1087000Y6210330D01*
X-1080000Y6209000D01*
X-1075000Y6204330D01*
X-1073000Y6199670D01*
Y6193670D01*
G01Y6199670D02*
X-1070000Y6203670D01*
X-1065000Y6207000D01*
X-1059000Y6208330D01*
X-1053000Y6207000D01*
X-1048000Y6203670D01*
X-1045000Y6197670D01*
X-1046000Y6191670D01*
X-1050000Y6185670D01*
G01X-1080000Y6227330D02*
X-1073000Y6232000D01*
X-1069000Y6236000D01*
X-1067000Y6241330D01*
X-1069000Y6246000D01*
X-1073000Y6249330D01*
X-1079000Y6252000D01*
X-1086000Y6252670D01*
X-1092000Y6252000D01*
X-1098000Y6249330D01*
X-1103000Y6245330D01*
X-1105000Y6240670D01*
X-1103000Y6235330D01*
X-1097000Y6230670D01*
X-1088000Y6228000D01*
X-1078000Y6227330D01*
X-1065000Y6228670D01*
X-1058000Y6230670D01*
X-1051000Y6234000D01*
X-1046000Y6238670D01*
X-1045000Y6243330D01*
X-1047000Y6248000D01*
X-1052000Y6251330D01*
G01X-726000Y65830D02*
X-723000Y68330D01*
X-719500Y70000D01*
X-715500D01*
X-711000Y67500D01*
X-707500Y63330D01*
X-705000Y58330D01*
X-703000Y50000D01*
X-702500Y42500D01*
X-703500Y35000D01*
X-705000Y30000D01*
X-708000Y25000D01*
X-711500Y21670D01*
X-715000Y20000D01*
X-718500D01*
X-722000Y21670D01*
X-725000Y24170D01*
X-727500Y27500D01*
G01X-737500Y70000D02*
X-750000Y20000D01*
X-762500Y70000D01*
G01X-796000Y65830D02*
X-793000Y68330D01*
X-789500Y70000D01*
X-785500D01*
X-781000Y67500D01*
X-777500Y63330D01*
X-775000Y58330D01*
X-773000Y50000D01*
X-772500Y42500D01*
X-773500Y35000D01*
X-775000Y30000D01*
X-778000Y25000D01*
X-781500Y21670D01*
X-785000Y20000D01*
X-788500D01*
X-792000Y21670D01*
X-795000Y24170D01*
X-797500Y27500D01*
G01X-831000Y65830D02*
X-828000Y68330D01*
X-824500Y70000D01*
X-820500D01*
X-816000Y67500D01*
X-812500Y63330D01*
X-810000Y58330D01*
X-808000Y50000D01*
X-807500Y42500D01*
X-808500Y35000D01*
X-810000Y30000D01*
X-813000Y25000D01*
X-816500Y21670D01*
X-820000Y20000D01*
X-823500D01*
X-827000Y21670D01*
X-830000Y24170D01*
X-832500Y27500D01*
G01X-827000Y1420000D02*
X-843000D01*
G01X-835000D02*
Y1360000D01*
G01X-827000D02*
X-843000D01*
G01X-894670Y1415000D02*
X-890670Y1418000D01*
X-886000Y1420000D01*
X-880670D01*
X-874670Y1417000D01*
X-870000Y1412000D01*
X-866670Y1406000D01*
X-864000Y1396000D01*
X-863330Y1387000D01*
X-864670Y1378000D01*
X-866670Y1372000D01*
X-870670Y1366000D01*
X-875330Y1362000D01*
X-880000Y1360000D01*
X-884670D01*
X-889330Y1362000D01*
X-893330Y1365000D01*
X-896670Y1369000D01*
G01X-912330Y1410000D02*
X-916330Y1416000D01*
X-921000Y1419000D01*
X-926330Y1420000D01*
X-933000Y1418000D01*
X-937670Y1413000D01*
X-939000Y1407000D01*
X-938330Y1401000D01*
X-935670Y1396000D01*
X-922330Y1386000D01*
X-916330Y1379000D01*
X-912330Y1369000D01*
X-911000Y1360000D01*
X-939000D01*
G01X-656000Y2128000D02*
X-661330Y2123000D01*
X-667330Y2120000D01*
X-672670D01*
X-678000Y2123000D01*
X-682000Y2128000D01*
X-684000Y2135000D01*
X-682670Y2142000D01*
X-679330Y2148000D01*
X-673330Y2152000D01*
X-665330Y2154000D01*
X-660670Y2158000D01*
X-658670Y2165000D01*
X-660000Y2172000D01*
X-663330Y2177000D01*
X-668000Y2180000D01*
X-672670D01*
X-677330Y2178000D01*
X-681330Y2173000D01*
G01X-729670Y2175000D02*
X-725670Y2178000D01*
X-721000Y2180000D01*
X-715670D01*
X-709670Y2177000D01*
X-705000Y2172000D01*
X-701670Y2166000D01*
X-699000Y2156000D01*
X-698330Y2147000D01*
X-699670Y2138000D01*
X-701670Y2132000D01*
X-705670Y2126000D01*
X-710330Y2122000D01*
X-715000Y2120000D01*
X-719670D01*
X-724330Y2122000D01*
X-728330Y2125000D01*
X-731670Y2129000D01*
G01X-746670Y2180000D02*
Y2120000D01*
X-773330D01*
G01X-656000Y2388000D02*
X-661330Y2383000D01*
X-667330Y2380000D01*
X-672670D01*
X-678000Y2383000D01*
X-682000Y2388000D01*
X-684000Y2395000D01*
X-682670Y2402000D01*
X-679330Y2408000D01*
X-673330Y2412000D01*
X-665330Y2414000D01*
X-660670Y2418000D01*
X-658670Y2425000D01*
X-660000Y2432000D01*
X-663330Y2437000D01*
X-668000Y2440000D01*
X-672670D01*
X-677330Y2438000D01*
X-681330Y2433000D01*
G01X-700330Y2380000D02*
Y2440000D01*
X-713670D01*
X-719000Y2437000D01*
X-723000Y2433000D01*
X-726330Y2427000D01*
X-729000Y2420000D01*
X-729670Y2410000D01*
X-729000Y2400000D01*
X-726330Y2393000D01*
X-723000Y2387000D01*
X-719000Y2383000D01*
X-713670Y2380000D01*
X-700330D01*
G01X-743330D02*
X-760000Y2440000D01*
X-776670Y2380000D01*
G01X-770670Y2401000D02*
X-749330D01*
G01X-900000Y2416670D02*
X-840000D01*
Y2433330D01*
X-843000Y2438670D01*
X-847000Y2442000D01*
X-855000Y2443330D01*
X-863000Y2442000D01*
X-868000Y2438000D01*
X-871000Y2433330D01*
Y2416670D01*
G01Y2433330D02*
X-900000Y2443330D01*
G01Y2483000D02*
X-840000D01*
X-883000Y2458330D01*
Y2491670D01*
G01X-888000Y2505330D02*
X-895000Y2509330D01*
X-899000Y2514670D01*
X-900000Y2520670D01*
X-899000Y2526000D01*
X-894000Y2531330D01*
X-888000Y2534670D01*
X-882000Y2535330D01*
X-875000Y2534000D01*
X-870000Y2529330D01*
X-868000Y2524670D01*
Y2518670D01*
G01Y2524670D02*
X-865000Y2528670D01*
X-860000Y2532000D01*
X-854000Y2533330D01*
X-848000Y2532000D01*
X-843000Y2528670D01*
X-840000Y2522670D01*
X-841000Y2516670D01*
X-845000Y2510670D01*
G01X-664000Y2660000D02*
X-677330D01*
Y2642000D01*
X-673330Y2636000D01*
X-668670Y2632000D01*
X-662000Y2630000D01*
X-655330Y2632000D01*
X-650670Y2636000D01*
X-646670Y2642000D01*
X-644000Y2649000D01*
X-642670Y2657000D01*
Y2664000D01*
X-644000Y2670000D01*
X-646670Y2677000D01*
X-650670Y2683000D01*
X-654670Y2687000D01*
X-660000Y2690000D01*
X-664670D01*
X-670000Y2688000D01*
X-674000Y2684000D01*
G01X-689670Y2630000D02*
Y2690000D01*
X-720330Y2630000D01*
Y2690000D01*
G01X-735330Y2630000D02*
Y2690000D01*
X-748670D01*
X-754000Y2687000D01*
X-758000Y2683000D01*
X-761330Y2677000D01*
X-764000Y2670000D01*
X-764670Y2660000D01*
X-764000Y2650000D01*
X-761330Y2643000D01*
X-758000Y2637000D01*
X-754000Y2633000D01*
X-748670Y2630000D01*
X-735330D01*
G01X-602000Y2960000D02*
X-618000D01*
G01X-610000D02*
Y2900000D01*
G01X-602000D02*
X-618000D01*
G01X-642330Y2950000D02*
X-646330Y2956000D01*
X-651000Y2959000D01*
X-656330Y2960000D01*
X-663000Y2958000D01*
X-667670Y2953000D01*
X-669000Y2947000D01*
X-668330Y2941000D01*
X-665670Y2936000D01*
X-652330Y2926000D01*
X-646330Y2919000D01*
X-642330Y2909000D01*
X-641000Y2900000D01*
X-669000D01*
G01X-714670Y2955000D02*
X-710670Y2958000D01*
X-706000Y2960000D01*
X-700670D01*
X-694670Y2957000D01*
X-690000Y2952000D01*
X-686670Y2946000D01*
X-684000Y2936000D01*
X-683330Y2927000D01*
X-684670Y2918000D01*
X-686670Y2912000D01*
X-690670Y2906000D01*
X-695330Y2902000D01*
X-700000Y2900000D01*
X-704670D01*
X-709330Y2902000D01*
X-713330Y2905000D01*
X-716670Y2909000D01*
G01X-725000Y2880000D02*
X-765000D01*
G01X-804670Y2955000D02*
X-800670Y2958000D01*
X-796000Y2960000D01*
X-790670D01*
X-784670Y2957000D01*
X-780000Y2952000D01*
X-776670Y2946000D01*
X-774000Y2936000D01*
X-773330Y2927000D01*
X-774670Y2918000D01*
X-776670Y2912000D01*
X-780670Y2906000D01*
X-785330Y2902000D01*
X-790000Y2900000D01*
X-794670D01*
X-799330Y2902000D01*
X-803330Y2905000D01*
X-806670Y2909000D01*
G01X-821670Y2960000D02*
Y2900000D01*
X-848330D01*
G01X-865330D02*
Y2960000D01*
G01X-890670D02*
X-865330Y2923000D01*
G01X-894670Y2900000D02*
X-876670Y2940000D01*
G01X-900000Y2616670D02*
X-840000D01*
Y2633330D01*
X-843000Y2638670D01*
X-847000Y2642000D01*
X-855000Y2643330D01*
X-863000Y2642000D01*
X-868000Y2638000D01*
X-871000Y2633330D01*
Y2616670D01*
G01Y2633330D02*
X-900000Y2643330D01*
G01X-850000Y2662330D02*
X-844000Y2666330D01*
X-841000Y2671000D01*
X-840000Y2676330D01*
X-842000Y2683000D01*
X-847000Y2687670D01*
X-853000Y2689000D01*
X-859000Y2688330D01*
X-864000Y2685670D01*
X-874000Y2672330D01*
X-881000Y2666330D01*
X-891000Y2662330D01*
X-900000Y2661000D01*
Y2689000D01*
G01Y2728000D02*
X-840000D01*
X-883000Y2703330D01*
Y2736670D01*
G01X-850000Y2752330D02*
X-844000Y2756330D01*
X-841000Y2761000D01*
X-840000Y2766330D01*
X-842000Y2773000D01*
X-847000Y2777670D01*
X-853000Y2779000D01*
X-859000Y2778330D01*
X-864000Y2775670D01*
X-874000Y2762330D01*
X-881000Y2756330D01*
X-891000Y2752330D01*
X-900000Y2751000D01*
Y2779000D01*
G01X-840000Y3331670D02*
X-780000D01*
Y3348330D01*
X-783000Y3353670D01*
X-787000Y3357000D01*
X-795000Y3358330D01*
X-803000Y3357000D01*
X-808000Y3353000D01*
X-811000Y3348330D01*
Y3331670D01*
G01Y3348330D02*
X-840000Y3358330D01*
G01Y3390000D02*
X-780000D01*
X-792000Y3382000D01*
G01X-840000D02*
Y3398000D01*
G01Y3443000D02*
X-780000D01*
X-823000Y3418330D01*
Y3451670D01*
G01X-828000Y3465330D02*
X-835000Y3469330D01*
X-839000Y3474670D01*
X-840000Y3480670D01*
X-839000Y3486000D01*
X-834000Y3491330D01*
X-828000Y3494670D01*
X-822000Y3495330D01*
X-815000Y3494000D01*
X-810000Y3489330D01*
X-808000Y3484670D01*
Y3478670D01*
G01Y3484670D02*
X-805000Y3488670D01*
X-800000Y3492000D01*
X-794000Y3493330D01*
X-788000Y3492000D01*
X-783000Y3488670D01*
X-780000Y3482670D01*
X-781000Y3476670D01*
X-785000Y3470670D01*
G01X-840000Y3061670D02*
X-780000D01*
Y3078330D01*
X-783000Y3083670D01*
X-787000Y3087000D01*
X-795000Y3088330D01*
X-803000Y3087000D01*
X-808000Y3083000D01*
X-811000Y3078330D01*
Y3061670D01*
G01Y3078330D02*
X-840000Y3088330D01*
G01Y3120000D02*
X-780000D01*
X-792000Y3112000D01*
G01X-840000D02*
Y3128000D01*
G01Y3173000D02*
X-780000D01*
X-823000Y3148330D01*
Y3181670D01*
G01X-790000Y3197330D02*
X-784000Y3201330D01*
X-781000Y3206000D01*
X-780000Y3211330D01*
X-782000Y3218000D01*
X-787000Y3222670D01*
X-793000Y3224000D01*
X-799000Y3223330D01*
X-804000Y3220670D01*
X-814000Y3207330D01*
X-821000Y3201330D01*
X-831000Y3197330D01*
X-840000Y3196000D01*
Y3224000D01*
G01X-656000Y3808000D02*
X-661330Y3803000D01*
X-667330Y3800000D01*
X-672670D01*
X-678000Y3803000D01*
X-682000Y3808000D01*
X-684000Y3815000D01*
X-682670Y3822000D01*
X-679330Y3828000D01*
X-673330Y3832000D01*
X-665330Y3834000D01*
X-660670Y3838000D01*
X-658670Y3845000D01*
X-660000Y3852000D01*
X-663330Y3857000D01*
X-668000Y3860000D01*
X-672670D01*
X-677330Y3858000D01*
X-681330Y3853000D01*
G01X-700330Y3800000D02*
Y3860000D01*
X-713670D01*
X-719000Y3857000D01*
X-723000Y3853000D01*
X-726330Y3847000D01*
X-729000Y3840000D01*
X-729670Y3830000D01*
X-729000Y3820000D01*
X-726330Y3813000D01*
X-723000Y3807000D01*
X-719000Y3803000D01*
X-713670Y3800000D01*
X-700330D01*
G01X-743330D02*
X-760000Y3860000D01*
X-776670Y3800000D01*
G01X-770670Y3821000D02*
X-749330D01*
G01X-656000Y3548000D02*
X-661330Y3543000D01*
X-667330Y3540000D01*
X-672670D01*
X-678000Y3543000D01*
X-682000Y3548000D01*
X-684000Y3555000D01*
X-682670Y3562000D01*
X-679330Y3568000D01*
X-673330Y3572000D01*
X-665330Y3574000D01*
X-660670Y3578000D01*
X-658670Y3585000D01*
X-660000Y3592000D01*
X-663330Y3597000D01*
X-668000Y3600000D01*
X-672670D01*
X-677330Y3598000D01*
X-681330Y3593000D01*
G01X-729670Y3595000D02*
X-725670Y3598000D01*
X-721000Y3600000D01*
X-715670D01*
X-709670Y3597000D01*
X-705000Y3592000D01*
X-701670Y3586000D01*
X-699000Y3576000D01*
X-698330Y3567000D01*
X-699670Y3558000D01*
X-701670Y3552000D01*
X-705670Y3546000D01*
X-710330Y3542000D01*
X-715000Y3540000D01*
X-719670D01*
X-724330Y3542000D01*
X-728330Y3545000D01*
X-731670Y3549000D01*
G01X-746670Y3600000D02*
Y3540000D01*
X-773330D01*
G01X-674000Y4080000D02*
X-687330D01*
Y4062000D01*
X-683330Y4056000D01*
X-678670Y4052000D01*
X-672000Y4050000D01*
X-665330Y4052000D01*
X-660670Y4056000D01*
X-656670Y4062000D01*
X-654000Y4069000D01*
X-652670Y4077000D01*
Y4084000D01*
X-654000Y4090000D01*
X-656670Y4097000D01*
X-660670Y4103000D01*
X-664670Y4107000D01*
X-670000Y4110000D01*
X-674670D01*
X-680000Y4108000D01*
X-684000Y4104000D01*
G01X-699670Y4050000D02*
Y4110000D01*
X-730330Y4050000D01*
Y4110000D01*
G01X-745330Y4050000D02*
Y4110000D01*
X-758670D01*
X-764000Y4107000D01*
X-768000Y4103000D01*
X-771330Y4097000D01*
X-774000Y4090000D01*
X-774670Y4080000D01*
X-774000Y4070000D01*
X-771330Y4063000D01*
X-768000Y4057000D01*
X-764000Y4053000D01*
X-758670Y4050000D01*
X-745330D01*
G01X-592000Y4380000D02*
X-608000D01*
G01X-600000D02*
Y4320000D01*
G01X-592000D02*
X-608000D01*
G01X-632330Y4370000D02*
X-636330Y4376000D01*
X-641000Y4379000D01*
X-646330Y4380000D01*
X-653000Y4378000D01*
X-657670Y4373000D01*
X-659000Y4367000D01*
X-658330Y4361000D01*
X-655670Y4356000D01*
X-642330Y4346000D01*
X-636330Y4339000D01*
X-632330Y4329000D01*
X-631000Y4320000D01*
X-659000D01*
G01X-704670Y4375000D02*
X-700670Y4378000D01*
X-696000Y4380000D01*
X-690670D01*
X-684670Y4377000D01*
X-680000Y4372000D01*
X-676670Y4366000D01*
X-674000Y4356000D01*
X-673330Y4347000D01*
X-674670Y4338000D01*
X-676670Y4332000D01*
X-680670Y4326000D01*
X-685330Y4322000D01*
X-690000Y4320000D01*
X-694670D01*
X-699330Y4322000D01*
X-703330Y4325000D01*
X-706670Y4329000D01*
G01X-715000Y4300000D02*
X-755000D01*
G01X-766000Y4328000D02*
X-771330Y4323000D01*
X-777330Y4320000D01*
X-782670D01*
X-788000Y4323000D01*
X-792000Y4328000D01*
X-794000Y4335000D01*
X-792670Y4342000D01*
X-789330Y4348000D01*
X-783330Y4352000D01*
X-775330Y4354000D01*
X-770670Y4358000D01*
X-768670Y4365000D01*
X-770000Y4372000D01*
X-773330Y4377000D01*
X-778000Y4380000D01*
X-782670D01*
X-787330Y4378000D01*
X-791330Y4373000D01*
G01X-812330Y4320000D02*
Y4380000D01*
X-837670D01*
G01X-828330Y4351000D02*
X-812330D01*
G01X-856670Y4320000D02*
Y4380000D01*
X-872670D01*
X-878000Y4377000D01*
X-882000Y4370000D01*
X-883330Y4362000D01*
X-882000Y4354000D01*
X-878670Y4348000D01*
X-872670Y4345000D01*
X-856670D01*
G01X-637000Y5420000D02*
X-653000D01*
G01X-645000D02*
Y5360000D01*
G01X-637000D02*
X-653000D01*
G01X-704670Y5415000D02*
X-700670Y5418000D01*
X-696000Y5420000D01*
X-690670D01*
X-684670Y5417000D01*
X-680000Y5412000D01*
X-676670Y5406000D01*
X-674000Y5396000D01*
X-673330Y5387000D01*
X-674670Y5378000D01*
X-676670Y5372000D01*
X-680670Y5366000D01*
X-685330Y5362000D01*
X-690000Y5360000D01*
X-694670D01*
X-699330Y5362000D01*
X-703330Y5365000D01*
X-706670Y5369000D01*
G01X-733670Y5360000D02*
X-735000Y5373000D01*
X-737000Y5384000D01*
X-739670Y5394000D01*
X-743000Y5405000D01*
X-748330Y5420000D01*
X-721670D01*
G01X-716670Y5890000D02*
Y5950000D01*
X-733330D01*
X-738670Y5947000D01*
X-742000Y5943000D01*
X-743330Y5935000D01*
X-742000Y5927000D01*
X-738000Y5922000D01*
X-733330Y5919000D01*
X-716670D01*
G01X-733330D02*
X-743330Y5890000D01*
G01X-760330Y5902000D02*
X-764330Y5895000D01*
X-769670Y5891000D01*
X-775670Y5890000D01*
X-781000Y5891000D01*
X-786330Y5896000D01*
X-789670Y5902000D01*
X-790330Y5908000D01*
X-789000Y5915000D01*
X-784330Y5920000D01*
X-779670Y5922000D01*
X-773670D01*
G01X-779670D02*
X-783670Y5925000D01*
X-787000Y5930000D01*
X-788330Y5936000D01*
X-787000Y5942000D01*
X-783670Y5947000D01*
X-777670Y5950000D01*
X-771670Y5949000D01*
X-765670Y5945000D01*
G01X-818670Y5890000D02*
X-820000Y5903000D01*
X-822000Y5914000D01*
X-824670Y5924000D01*
X-828000Y5935000D01*
X-833330Y5950000D01*
X-806670D01*
G01X-562000Y6030000D02*
X-578000D01*
G01X-570000D02*
Y5970000D01*
G01X-562000D02*
X-578000D01*
G01X-629670Y6025000D02*
X-625670Y6028000D01*
X-621000Y6030000D01*
X-615670D01*
X-609670Y6027000D01*
X-605000Y6022000D01*
X-601670Y6016000D01*
X-599000Y6006000D01*
X-598330Y5997000D01*
X-599670Y5988000D01*
X-601670Y5982000D01*
X-605670Y5976000D01*
X-610330Y5972000D01*
X-615000Y5970000D01*
X-619670D01*
X-624330Y5972000D01*
X-628330Y5975000D01*
X-631670Y5979000D01*
G01X-647330Y5995000D02*
X-652000Y6002000D01*
X-656000Y6006000D01*
X-661330Y6008000D01*
X-666000Y6006000D01*
X-669330Y6002000D01*
X-672000Y5996000D01*
X-672670Y5989000D01*
X-672000Y5983000D01*
X-669330Y5977000D01*
X-665330Y5972000D01*
X-660670Y5970000D01*
X-655330Y5972000D01*
X-650670Y5978000D01*
X-648000Y5987000D01*
X-647330Y5997000D01*
X-648670Y6010000D01*
X-650670Y6017000D01*
X-654000Y6024000D01*
X-658670Y6029000D01*
X-663330Y6030000D01*
X-668000Y6028000D01*
X-671330Y6023000D01*
G01X-706670Y6470000D02*
Y6530000D01*
X-723330D01*
X-728670Y6527000D01*
X-732000Y6523000D01*
X-733330Y6515000D01*
X-732000Y6507000D01*
X-728000Y6502000D01*
X-723330Y6499000D01*
X-706670D01*
G01X-723330D02*
X-733330Y6470000D01*
G01X-750330Y6482000D02*
X-754330Y6475000D01*
X-759670Y6471000D01*
X-765670Y6470000D01*
X-771000Y6471000D01*
X-776330Y6476000D01*
X-779670Y6482000D01*
X-780330Y6488000D01*
X-779000Y6495000D01*
X-774330Y6500000D01*
X-769670Y6502000D01*
X-763670D01*
G01X-769670D02*
X-773670Y6505000D01*
X-777000Y6510000D01*
X-778330Y6516000D01*
X-777000Y6522000D01*
X-773670Y6527000D01*
X-767670Y6530000D01*
X-761670Y6529000D01*
X-755670Y6525000D01*
G01X-795330Y6479000D02*
X-799330Y6474000D01*
X-804000Y6471000D01*
X-810000Y6470000D01*
X-816000Y6472000D01*
X-820670Y6476000D01*
X-824000Y6483000D01*
X-824670Y6491000D01*
X-823330Y6499000D01*
X-820000Y6504000D01*
X-815330Y6508000D01*
X-810670Y6509000D01*
X-806000Y6508000D01*
X-800000Y6504000D01*
X-802000Y6530000D01*
X-820000D01*
G01X-432300Y6176530D02*
X-435300Y6180530D01*
X-437300Y6185200D01*
Y6190530D01*
X-434300Y6196530D01*
X-429300Y6201200D01*
X-423300Y6204530D01*
X-413300Y6207200D01*
X-404300Y6207870D01*
X-395300Y6206530D01*
X-389300Y6204530D01*
X-383300Y6200530D01*
X-379300Y6195870D01*
X-377300Y6191200D01*
Y6186530D01*
X-379300Y6181870D01*
X-382300Y6177870D01*
X-386300Y6174530D01*
G01X-389300Y6160870D02*
X-382300Y6156870D01*
X-378300Y6151530D01*
X-377300Y6145530D01*
X-378300Y6140200D01*
X-383300Y6134870D01*
X-389300Y6131530D01*
X-395300Y6130870D01*
X-402300Y6132200D01*
X-407300Y6136870D01*
X-409300Y6141530D01*
Y6147530D01*
G01Y6141530D02*
X-412300Y6137530D01*
X-417300Y6134200D01*
X-423300Y6132870D01*
X-429300Y6134200D01*
X-434300Y6137530D01*
X-437300Y6143530D01*
X-436300Y6149530D01*
X-432300Y6155530D01*
G01X-402300Y6113870D02*
X-409300Y6109200D01*
X-413300Y6105200D01*
X-415300Y6099870D01*
X-413300Y6095200D01*
X-409300Y6091870D01*
X-403300Y6089200D01*
X-396300Y6088530D01*
X-390300Y6089200D01*
X-384300Y6091870D01*
X-379300Y6095870D01*
X-377300Y6100530D01*
X-379300Y6105870D01*
X-385300Y6110530D01*
X-394300Y6113200D01*
X-404300Y6113870D01*
X-417300Y6112530D01*
X-424300Y6110530D01*
X-431300Y6107200D01*
X-436300Y6102530D01*
X-437300Y6097870D01*
X-435300Y6093200D01*
X-430300Y6089870D01*
G01X935830Y240000D02*
Y300000D01*
X919830D01*
X914500Y297000D01*
X910500Y290000D01*
X909170Y282000D01*
X910500Y274000D01*
X913830Y268000D01*
X919830Y265000D01*
X935830D01*
G01X877500Y240000D02*
Y300000D01*
X885500Y288000D01*
G01Y240000D02*
X869500D01*
G54D11*
G01X-5390000Y1250000D02*
Y1050000D01*
G01X-4822000Y2210000D02*
X-4837000D01*
Y2225000D01*
G01X-4822000Y3110000D02*
X-4837000D01*
Y3095000D01*
G01X-4690000Y1250000D02*
Y1050000D01*
G01X-3952000Y2210000D02*
X-3949000D01*
X-3937000Y2222000D01*
Y2225000D01*
G01X-3952000Y3110000D02*
X-3937000D01*
Y3095000D01*
G01X-2620000Y4000000D02*
X-3390000D01*
G01Y4960000D02*
Y5100000D01*
G01X-2700000D02*
X-2620000Y5020000D01*
G01X-2120000Y2890000D02*
X-2500000D01*
Y3230000D01*
X-1980000D01*
Y2990000D01*
G01X-2620000Y4000000D02*
Y4100000D01*
G01Y4950000D02*
Y5020000D01*
G01X-1980000Y2990000D02*
X-2120000Y2890000D01*
G01X-1960000Y4605000D02*
Y4630000D01*
X-1935000D01*
G01X-1960000Y4355000D02*
Y4350000D01*
X-1940000Y4330000D01*
X-1935000D01*
G01X-1660000Y4605000D02*
Y4630000D01*
X-1685000D01*
G01X-1660000Y4355000D02*
Y4330000D01*
X-1685000D01*
G01X-870000Y6200000D02*
X-670000D01*
G01X838500Y433500D02*
Y5873500D01*
X-441500D01*
Y433500D01*
X838500D01*
G01X-536500Y423500D02*
Y5883500D01*
X-476500Y5943500D01*
X123500D01*
G01X933500Y5883500D02*
Y423500D01*
X873500Y363500D01*
X-476500D01*
G01D02*
X-536500Y423500D01*
G01X273500Y5943500D02*
X873500D01*
G01X274500Y5942500D02*
Y6031500D01*
X122500D01*
Y5942500D01*
G01X933500Y5883500D02*
X873500Y5943500D01*
G54D12*
G01X-2215000Y5007000D02*
X-2245000D01*
Y4871000D01*
X-2215000D01*
G01X-2056000D02*
X-2025000D01*
Y5007000D01*
X-2056000D01*
G54D13*
G01X-5419000Y1460000D02*
G02I-12500J0D01*
G01X-3999500Y2100000D02*
G02I-12500J0D01*
G01X-2042500Y4405000D02*
G02I-12500J0D01*
G01X-622500Y6070000D02*
G02I-12500J0D01*
G01X973500Y5642500D02*
G03I0J-12500D01*
G54D14*
G01X-7272400Y3823200D02*
Y3798200D01*
X-7222400D01*
G02X-6947400Y3775700I0J-1691806D01*
G03X-6672400Y3753200I275000J1669306D01*
G01Y3778200D01*
G01X-7272400Y3993100D02*
X-7192400D01*
G01X-7272400Y4143100D02*
X-7192400D01*
G01X-6180400Y3823200D02*
X-7272400D01*
Y5273000D01*
G01Y4473100D02*
X-7192400D01*
G01X-7272400Y4623100D02*
X-7192400D01*
G01X-7272400Y4953100D02*
X-7192400D01*
G01X-7272400Y5273000D02*
Y5298000D01*
X-7222400D01*
G03X-6947400Y5320500I0J1691806D01*
G02X-6672400Y5343000I275000J-1669306D01*
G01Y5318000D01*
G01X-7272400Y5103100D02*
X-7192400D01*
G01X-7272400Y5273000D02*
X-5685700D01*
G01X-7247400Y3823200D02*
X-7197400D01*
G02X-6922400Y3800700I0J-1691806D01*
G03X-6672400Y3778200I277752J1685994D01*
G01X-7192400Y3993100D02*
X-6722400Y4018100D01*
G01X-7192400Y4143100D02*
X-6722400Y4118100D01*
G01X-7192400Y4128100D02*
Y4008100D01*
G01Y4473100D02*
X-6722400Y4498100D01*
G01X-7192400Y4608100D02*
Y4488100D01*
G01Y4623100D02*
X-6722400Y4598100D01*
G01X-7192400Y4953100D02*
X-6722400Y4978100D01*
G01X-7192400Y5088100D02*
Y4968100D01*
G01X-7247400Y5273000D02*
X-7197400D01*
G03X-6922400Y5295500I0J1691806D01*
G02X-6672400Y5318000I277752J-1685994D01*
G01X-7192400Y5103100D02*
X-6722400Y5078100D01*
G01X-6560010Y164990D02*
X-5460010D01*
G01X-6560010D02*
Y294990D01*
G01X-6660010Y614990D02*
X-5460010D01*
G01X-6522400Y3823200D02*
Y3798200D01*
X-6322400D01*
Y3823200D01*
G01X-6722400Y4038100D02*
Y4098100D01*
G01Y4118100D02*
G02Y4018100I0J-50000D01*
G01Y4598100D02*
G02Y4498100I0J-50000D01*
G01Y4518100D02*
Y4578100D01*
G01Y4998100D02*
Y5058100D01*
G01Y5078100D02*
G02Y4978100I0J-50000D01*
G01X-6560010Y6269990D02*
X-5460010D01*
G01X-6560010Y6139990D02*
Y6269990D01*
G01X-5184900Y3823200D02*
X-6000000D01*
G01X-5992400Y4548100D02*
G02X-6159200Y4622500I-99993J0D01*
G01X-6022700Y4619800D02*
G02X-5992400Y4548100I-69683J-71700D01*
G01X-5767600Y3823200D02*
Y3923200D01*
X-5967600D01*
Y3823200D01*
G01X-5767600Y3848000D02*
X-5967600D01*
G01X-5542400Y4943100D02*
G02I-100000J0D01*
G01X-5460010Y164990D02*
G03Y614990I0J225000D01*
G01X-5310000Y1705000D02*
X-5311670Y1715670D01*
X-5318330Y1725000D01*
X-5328330Y1733000D01*
X-5340000Y1738330D01*
X-5353330Y1741000D01*
X-5366670D01*
X-5380000Y1738330D01*
X-5391670Y1733000D01*
X-5401670Y1725000D01*
X-5408330Y1715670D01*
X-5410000Y1705000D01*
X-5408330Y1694330D01*
X-5401670Y1685000D01*
X-5391670Y1677000D01*
X-5380000Y1671670D01*
X-5366670Y1669000D01*
X-5353330D01*
X-5340000Y1671670D01*
X-5328330Y1677000D01*
X-5318330Y1685000D01*
X-5311670Y1694330D01*
X-5310000Y1705000D01*
G01X-5336670Y1694330D02*
X-5310000Y1678330D01*
G01X-5410000Y1645330D02*
Y1594670D01*
X-5310000Y1645330D01*
Y1594670D01*
G01Y1535000D02*
X-5410000D01*
X-5390000Y1551000D01*
G01X-5310000D02*
Y1519000D01*
G01X-5265000Y3445000D02*
X-4935000D01*
Y3615000D01*
X-5265000D01*
Y3445000D01*
G01X-5092400Y4548100D02*
G02I-100000J0D01*
G01X-5497300Y5273000D02*
X-4684900D01*
G01X-5460010Y5819990D02*
G03Y6269990I1458J225000D01*
G01X-5142000Y3045000D02*
X-4962000D01*
Y3135000D01*
X-5142000D01*
Y3045000D01*
G01X-4875000Y3615000D02*
X-4695000D01*
Y3705000D01*
X-4875000D01*
Y3615000D01*
G01X-4867600Y3823200D02*
Y3923200D01*
X-5067600D01*
G01X-4867600Y3848000D02*
X-4996400D01*
G01X-4185000Y3823200D02*
X-5000500D01*
G01X-4665000Y3420000D02*
Y3240000D01*
X-4575000D01*
Y3420000D01*
X-4665000D01*
G01X-4522400Y3823200D02*
Y3798200D01*
X-4322400D01*
Y3823200D01*
G01X-4192400Y4548100D02*
G02I-100000J0D01*
G01X-4497500Y5273000D02*
X-3905900D01*
G01X-4200000Y5980000D02*
X-4480000D01*
Y5840000D01*
X-4200000D01*
Y5980000D01*
G01X-4257000Y1390000D02*
Y1140000D01*
X-4007000D01*
Y1390000D01*
X-4257000D01*
G01X-3689000Y2045000D02*
X-3721000D01*
G01X-3705000D02*
Y1945000D01*
G01X-3689000D02*
X-3721000D01*
G01X-3819330Y2036670D02*
X-3811330Y2041670D01*
X-3802000Y2045000D01*
X-3791330D01*
X-3779330Y2040000D01*
X-3770000Y2031670D01*
X-3763330Y2021670D01*
X-3758000Y2005000D01*
X-3756670Y1990000D01*
X-3759330Y1975000D01*
X-3763330Y1965000D01*
X-3771330Y1955000D01*
X-3780670Y1948330D01*
X-3790000Y1945000D01*
X-3799330D01*
X-3808670Y1948330D01*
X-3816670Y1953330D01*
X-3823330Y1960000D01*
G01X-3845670Y1965000D02*
X-3853670Y1953330D01*
X-3864330Y1946670D01*
X-3876330Y1945000D01*
X-3887000Y1946670D01*
X-3897670Y1955000D01*
X-3904330Y1965000D01*
X-3905670Y1975000D01*
X-3903000Y1986660D01*
X-3893670Y1995000D01*
X-3884330Y1998330D01*
X-3872330D01*
G01X-3884330D02*
X-3892330Y2003330D01*
X-3899000Y2011660D01*
X-3901670Y2021670D01*
X-3899000Y2031670D01*
X-3892330Y2040000D01*
X-3880330Y2045000D01*
X-3868330Y2043330D01*
X-3856330Y2036670D01*
G01X-4162000Y3415000D02*
Y3235000D01*
X-4072000D01*
Y3415000D01*
X-4162000D01*
G01X-3900800Y3823200D02*
X-3996600D01*
G01X-3967600Y3848000D02*
X-4001100D01*
G01X-3967600Y3823200D02*
Y3923200D01*
X-4167600D01*
Y3886400D01*
G01X-3477000Y5619000D02*
Y5595000D01*
X-3917000D01*
Y5619000D01*
G01Y6071000D02*
Y6095000D01*
X-3477000D01*
Y6071000D01*
G01X-3627000Y2530000D02*
X-3807000D01*
Y2440000D01*
X-3627000D01*
Y2530000D01*
G01X-3640000Y2355000D02*
X-3820000D01*
Y2265000D01*
X-3640000D01*
Y2355000D01*
G01Y2255000D02*
X-3820000D01*
Y2165000D01*
X-3640000D01*
Y2255000D01*
G01X-3692000Y3355000D02*
Y3105000D01*
X-3442000D01*
Y3355000D01*
X-3692000D01*
G01X-3433200Y3823200D02*
X-3715400D01*
G01X-3500800Y5273000D02*
X-3432300D01*
G01X-3721400D02*
X-3685200D01*
G01X-3535000Y6010000D02*
G03I-30000J0D01*
G01X-3178200Y3823200D02*
X-3247700D01*
G01X-3067600Y3923200D02*
X-3267600D01*
Y3884900D01*
G01X-3177900Y3848000D02*
X-3247700D01*
G01X-3370000Y4148100D02*
Y3998100D01*
G01D02*
X-2630000D01*
Y4098100D01*
G01X-3370000Y4108100D02*
X-3410000D01*
Y3998100D01*
X-3370000D01*
G01Y5098100D02*
X-3410000D01*
Y4988100D01*
X-3370000D01*
G01X-2690000Y5098100D02*
X-3370000D01*
Y4978100D01*
G01X-3246800Y5273000D02*
X-2933400D01*
G01X-3240000Y5580000D02*
X-2960000D01*
Y5720000D01*
X-3240000D01*
Y5580000D01*
G01Y6160000D02*
X-2960000D01*
Y6300000D01*
X-3240000D01*
Y6160000D01*
G01X-2934300Y3823200D02*
X-2999800D01*
G01X-2367600Y3969500D02*
Y3893200D01*
G02X-2437600Y3823200I-70000J0D01*
G01X-2743900D01*
G01X-2690000Y5098100D02*
X-2630000Y5038100D01*
G01X-2748900Y5273000D02*
X-2682400D01*
G01X-2415000Y2250000D02*
Y2430000D01*
X-2505000D01*
Y2250000D01*
X-2415000D01*
G01X-2615000Y3090000D02*
Y2910000D01*
X-2525000D01*
Y3090000D01*
X-2615000D01*
G01X-2550000Y3495000D02*
X-2370000D01*
Y3585000D01*
X-2550000D01*
Y3495000D01*
G01X-2392400Y3971500D02*
Y3898000D01*
G02X-2442400Y3848000I-50000J0D01*
G01X-2567600D01*
G01X-2592400Y3823200D02*
X-2431200Y3984400D01*
G01X-2367600Y4455400D02*
Y4167100D01*
G01Y4932000D02*
Y4644900D01*
G01X-2630000Y4948100D02*
Y5038100D01*
G01X-2392400Y5122500D02*
Y5198200D01*
G03X-2442400Y5248200I-50000J0D01*
G01X-2496000D01*
G01X-2492900Y5273000D02*
X-2437600D01*
G02X-2367600Y5203000I0J-70000D01*
G01Y5122500D01*
G01X-2516800Y5197400D02*
X-2434000Y5114600D01*
G01X-2255000Y5260000D02*
Y5080000D01*
X-2165000D01*
Y5260000D01*
X-2255000D01*
G01X-1951000Y6195000D02*
Y5707000D01*
X-2296000D01*
Y6193000D01*
X-1951500D01*
G01X-2125000Y2250000D02*
Y2430000D01*
X-2215000D01*
Y2250000D01*
X-2125000D01*
G01X-1885000Y3545000D02*
Y3365000D01*
X-1795000D01*
Y3545000D01*
X-1885000D01*
G01X-1795000Y3025000D02*
Y3205000D01*
X-1885000D01*
Y3025000D01*
X-1795000D01*
G01X-1940000Y3585000D02*
X-2120000D01*
Y3495000D01*
X-1940000D01*
Y3585000D01*
G01X-1951000Y4155000D02*
X-1919000D01*
G01X-1935000D02*
Y4255000D01*
G01X-1951000D02*
X-1919000D01*
G01X-1820670Y4163330D02*
X-1828670Y4158330D01*
X-1838000Y4155000D01*
X-1848670D01*
X-1860670Y4160000D01*
X-1870000Y4168330D01*
X-1876670Y4178330D01*
X-1882000Y4195000D01*
X-1883330Y4210000D01*
X-1880670Y4225000D01*
X-1876670Y4235000D01*
X-1868670Y4245000D01*
X-1859330Y4251670D01*
X-1850000Y4255000D01*
X-1840670D01*
X-1831330Y4251670D01*
X-1823330Y4246670D01*
X-1816670Y4240000D01*
G01X-1749000Y4255000D02*
Y4155000D01*
X-1798330Y4226670D01*
X-1731670D01*
G01X-1955000Y5260000D02*
Y5080000D01*
X-1865000D01*
Y5260000D01*
X-1955000D01*
G01X-2105000D02*
Y5080000D01*
X-2015000D01*
Y5260000D01*
X-2105000D01*
G01X-2179000Y6190000D02*
Y6120000D01*
X-2069000D01*
Y6190000D01*
G01X-1560000Y3060000D02*
X-1740000D01*
Y2970000D01*
X-1560000D01*
Y3060000D01*
G01X-1206000Y3133800D02*
X-1431000D01*
Y3433800D01*
X-1206000D01*
Y3133800D01*
G01X-1620000Y5910000D02*
Y5730000D01*
X-1530000D01*
Y5910000D01*
X-1620000D01*
G01X-1520000Y5985000D02*
Y6165000D01*
X-1610000D01*
Y5985000D01*
X-1520000D01*
G01X-1185000Y817500D02*
Y1122500D01*
X-695000D01*
Y817500D01*
X-1185000D01*
G01X-1005000Y2580000D02*
Y2400000D01*
X-915000D01*
Y2580000D01*
X-1005000D01*
G01X-1145460Y2276820D02*
X-1018180Y2149540D01*
X-954540Y2213180D01*
X-1081820Y2340460D01*
X-1145460Y2276820D01*
G01X-915000Y2600000D02*
Y2780000D01*
X-1005000D01*
Y2600000D01*
X-915000D01*
G01X-1306000Y3433800D02*
X-1206000Y3333800D01*
G01X-1286000Y3433800D02*
X-1206000Y3353800D01*
G01X-1266000Y3433800D02*
X-1206000Y3373800D01*
G01X-1246000Y3433800D02*
X-1206000Y3393800D01*
G01X-1036000Y3453800D02*
G03I-12500J0D01*
G01X-1226000Y3433800D02*
X-1206000Y3413800D01*
G01X-1244200Y4621800D02*
G03I-30000J0D01*
G01X-922200Y4700500D02*
Y4676500D01*
X-1362200D01*
Y4700500D01*
G01Y5212500D02*
Y5236500D01*
X-922200D01*
Y5212500D01*
G01X-1005000Y5875000D02*
Y5695000D01*
X-915000D01*
Y5875000D01*
X-1005000D01*
G01X-1105000D02*
Y5695000D01*
X-1015000D01*
Y5875000D01*
X-1105000D01*
G01X-1005000Y6460000D02*
Y6280000D01*
X-915000D01*
Y6460000D01*
X-1005000D01*
G01X-1105000D02*
Y6280000D01*
X-1015000D01*
Y6460000D01*
X-1105000D01*
G01X-652500Y650000D02*
G03I-12500J0D01*
G01X-770000Y917500D02*
G02I-25000J0D01*
G01X-859100Y3281000D02*
Y3461000D01*
X-949100D01*
Y3281000D01*
X-859100D01*
G01X-949100Y3257800D02*
Y3077800D01*
X-859100D01*
Y3257800D01*
X-949100D01*
G01X-622500Y5485000D02*
G02I-12500J0D01*
G01X-900000Y5780000D02*
X-720000D01*
Y5870000D01*
X-900000D01*
Y5780000D01*
G01X-870000Y5615000D02*
X-670000D01*
G01X-900000Y6365000D02*
X-720000D01*
Y6455000D01*
X-900000D01*
Y6365000D01*
G01X-455000Y6095000D02*
Y6275000D01*
X-545000D01*
Y6095000D01*
X-455000D01*
G54D15*
G01X-3629530Y1657210D02*
X-3784470D01*
G01Y1852790D02*
X-3629530D01*
G01X-3526170Y1805010D02*
G02I-10167J3D01*
M02*
