G04 ================== begin FILE IDENTIFICATION RECORD ==================*
G04 Layout Name:  pc069a_toplevel_13.brd*
G04 Film Name:    art_L5_PWR_pc069a*
G04 File Format:  Gerber RS274X*
G04 File Origin:  Cadence Allegro 17.4-S026*
G04 Origin Date:  Thu Jun 30 14:02:11 2022*
G04 *
G04 Layer:  VIA CLASS/L5_PWR*
G04 Layer:  PIN/L5_PWR*
G04 Layer:  ETCH/L5_PWR*
G04 *
G04 Offset:    (0.0000 0.0000)*
G04 Mirror:    No*
G04 Mode:      Positive*
G04 Rotation:  0*
G04 FullContactRelief:  No*
G04 UndefLineWidth:     0.2540*
G04 ================== end FILE IDENTIFICATION RECORD ====================*
%FSLAX25Y25*MOMM*%
%IR0*IPPOS*OFA0.00000B0.00000*MIA0B0*SFA1.00000B1.00000*%
%ADD10C,.6*%
%ADD18C,1.*%
%ADD13C,1.2*%
%ADD15C,1.6*%
%ADD16C,1.7*%
%ADD12C,3.302*%
%ADD17C,1.524*%
%ADD11C,1.75*%
%ADD14C,1.397*%
%ADD19C,.1*%
%ADD20C,.4*%
%ADD27C,2.2044*%
%ADD23C,1.0544*%
%ADD28C,2.0544*%
%ADD30C,2.0068*%
%ADD21C,2.1544*%
%ADD25C,1.8514*%
%ADD26C,1.6544*%
%ADD24C,1.9068*%
%ADD22C,3.7564*%
%ADD29C,1.9784*%
G75*
%LPD*%
G75*
G36*
G01X-828680Y6536490D02*
X1026490D01*
Y-63500D01*
X330200D01*
Y-236490D01*
X-4276490D01*
Y-140000D01*
G03X-4440000Y23510I-163510J0D01*
G01X-5346490D01*
Y70000D01*
G03X-5396500Y187700I-163510J0D01*
G02X-5393070Y204510I7049J7317D01*
G03X-5272180Y380000I-66930J175490D01*
G03X-5647820I-187820J0D01*
G03X-5596190Y250670I187817J8D01*
G02X-5603560Y233510I-7368J-6998D01*
G01X-6490000D01*
Y6206490D01*
X-5608350D01*
G02X-5601510Y6188820I-3J-10160D01*
G03X-5662820Y6050000I126505J-138820D01*
G03X-5287180I187820J0D01*
G03X-5348490Y6188820I-187815J0D01*
G02X-5341650Y6206490I6843J7510D01*
G01X-3950000D01*
G03X-3786490Y6370000I0J163510D01*
G01Y6536490D01*
X-1111320D01*
G02X-1103030Y6520460I-2J-10160D01*
G03X-1112720Y6490000I43030J-30460D01*
G03X-1060000Y6437280I52720J0D01*
G03X-1018080Y6458030I0J52719D01*
G02X-1001920I8080J-6159D01*
G03X-960000Y6437280I41920J31969D01*
G03X-923520Y6451940I0J52718D01*
G02X-916480I3520J-3663D01*
G03X-880000Y6437280I36480J38058D01*
G03X-827280Y6490000I0J52720D01*
G03X-836970Y6520460I-52720J0D01*
G02X-828680Y6536490I8292J5870D01*
G37*
%LPC*%
G75*
G36*
G01X-678060Y1376480D02*
G03Y1383520I-3663J3520D01*
G02X-692720Y1420000I38058J36480D01*
G02X-587280I52720J0D01*
G02X-601940Y1383520I-52718J0D01*
G03Y1376480I3663J-3520D01*
G02X-587280Y1340000I-38058J-36480D01*
G02X-692720I-52720J0D01*
G02X-678060Y1376480I52718J0D01*
G37*
G36*
G01X-3026980Y1651630D02*
G03X-3013010Y1658330I4144J9274D01*
G02X-2962000Y1697720I51010J-13334D01*
G02Y1592280I0J-52720D01*
G02X-2983520Y1596870I-5J52721D01*
G03X-2997490Y1590170I-4144J-9274D01*
G02X-3048500Y1550780I-51010J13334D01*
G02Y1656220I0J52720D01*
G02X-3026980Y1651630I5J-52721D01*
G37*
G36*
G01X-5128040Y1731790D02*
G03X-5143870Y1737450I-9836J-2541D01*
G02X-5175000Y1727280I-31130J42559D01*
G02Y1832720I0J52720D01*
G02X-5123960Y1793210I0J-52722D01*
G03X-5108130Y1787550I9836J2541D01*
G02X-5077000Y1797720I31130J-42559D01*
G02Y1692280I0J-52720D01*
G02X-5128040Y1731790I0J52722D01*
G37*
G36*
G01X-2617690Y1876200D02*
G03X-2632230Y1875390I-6876J-7480D01*
G02X-2672000Y1857280I-39770J34613D01*
G02Y1962720I0J52720D01*
G02X-2636310Y1948800I0J-52713D01*
G03X-2621770Y1949610I6876J7480D01*
G02X-2582000Y1967720I39770J-34613D01*
G02Y1862280I0J-52720D01*
G02X-2617690Y1876200I0J52713D01*
G37*
G36*
G01X-3110340Y2150020D02*
G03X-3097090Y2158100I3210J9640D01*
G02X-3045000Y2202720I52090J-8095D01*
G02Y2097280I0J-52720D01*
G02X-3061660Y2099980I-5J52721D01*
G03X-3074910Y2091900I-3210J-9640D01*
G02X-3127000Y2047280I-52090J8095D01*
G02Y2152720I0J52720D01*
G02X-3110340Y2150020I5J-52721D01*
G37*
G36*
G01X-1083620Y2380040D02*
G03X-1088300Y2395560I-8206J5991D01*
G02X-1122720Y2445000I18297J49440D01*
G02X-1017280I52720J0D01*
G02X-1027400Y2413940I-52724J0D01*
G03X-1022720Y2398420I8206J-5991D01*
G02X-988300Y2348980I-18297J-49440D01*
G02X-1093740I-52720J0D01*
G02X-1083620Y2380040I52724J0D01*
G37*
G36*
G01X-3261290Y2611910D02*
G03X-3262530Y2628870I-6162J8075D01*
G02X-3289720Y2675000I25537J46130D01*
G02X-3184280I52720J0D01*
G02X-3205010Y2633090I-52730J0D01*
G03X-3203770Y2616130I6162J-8075D01*
G02X-3176580Y2570000I-25537J-46130D01*
G02X-3282020I-52720J0D01*
G02X-3261290Y2611910I52730J0D01*
G37*
G36*
G01X-1892580Y4216380D02*
G03X-1899210Y4217430I-3912J-3244D01*
G02X-1927380Y4209270I-28174J44559D01*
G02Y4314710I0J52720D01*
G02X-1886800Y4295640I0J-52711D01*
G03X-1880170Y4294590I3912J3244D01*
G02X-1852000Y4302750I28174J-44559D01*
G02X-1815410Y4287980I0J-52708D01*
G03X-1808380Y4287960I3525J3658D01*
G02X-1772000Y4302520I36380J-38170D01*
G02X-1741900Y4293080I0J-52708D01*
G03X-1735110Y4293980I2902J4170D01*
G02X-1694800Y4312720I40310J-33984D01*
G02Y4207280I0J-52720D01*
G02X-1724900Y4216720I0J52708D01*
G03X-1731690Y4215820I-2902J-4170D01*
G02X-1772000Y4197080I-40310J33984D01*
G02X-1808590Y4211850I0J52708D01*
G03X-1815620Y4211870I-3525J-3658D01*
G02X-1852000Y4197310I-36380J38170D01*
G02X-1892580Y4216380I0J52711D01*
G37*
G36*
G01X-1891970Y4471920D02*
G03Y4488080I-6159J8080D01*
G02X-1912720Y4530000I31969J41920D01*
G02X-1860000Y4582720I52720J0D01*
G02X-1818080Y4561970I0J-52719D01*
G03X-1801920I8080J6159D01*
G02X-1760000Y4582720I41920J-31969D01*
G02X-1707280Y4530000I0J-52720D01*
G02X-1728030Y4488080I-52719J0D01*
G03Y4471920I6159J-8080D01*
G02X-1707280Y4430000I-31969J-41920D01*
G02X-1760000Y4377280I-52720J0D01*
G02X-1801920Y4398030I0J52719D01*
G03X-1818080I-8080J-6159D01*
G02X-1860000Y4377280I-41920J31969D01*
G02X-1912720Y4430000I0J52720D01*
G02X-1891970Y4471920I52719J0D01*
G37*
G36*
G01X-2784840Y4637300D02*
G03X-2775380Y4647850I-690J10135D01*
G02X-2775420Y4650000I52682J2055D01*
G02X-2669980I52720J0D01*
G02X-2719160Y4597400I-52719J0D01*
G03X-2728620Y4586850I690J-10135D01*
G02X-2728580Y4584700I-52682J-2055D01*
G02X-2834020I-52720J0D01*
G02X-2784840Y4637300I52719J0D01*
G37*
G36*
G01X-1041290Y4848500D02*
G03X-1029460Y4859000I1683J10018D01*
G02X-1029520Y4861500I52660J2515D01*
G02X-976800Y4808780I52720J0D01*
G02X-985510Y4809500I-27J52722D01*
G03X-997340Y4799000I-1683J-10018D01*
G02X-997280Y4796500I-52660J-2515D01*
G02X-997440Y4792380I-52721J-16D01*
G03X-989360Y4781640I10127J-791D01*
G02X-947280Y4730000I-10646J-51640D01*
G02X-1052720I-52720J0D01*
G02X-1052560Y4734120I52721J16D01*
G03X-1060640Y4744860I-10127J791D01*
G02X-1102720Y4796500I10646J51640D01*
G02X-1050000Y4849220I52720J0D01*
G02X-1041290Y4848500I27J-52722D01*
G37*
G36*
G01X-353240Y5029080D02*
G03X-370030Y5029180I-8429J-5674D01*
G02X-413400Y5006440I-43370J29988D01*
G02Y5111880I0J52720D01*
G02X-369660Y5088580I-6J-52717D01*
G03X-352870Y5088480I8429J5674D01*
G02X-309500Y5111220I43370J-29988D01*
G02Y5005780I0J-52720D01*
G02X-353240Y5029080I6J52717D01*
G37*
G36*
G01X-2278070Y4992540D02*
G03X-2284710Y4989740I-1930J-4697D01*
G02X-2380000Y4925380I-95290J38362D01*
G02Y5130820I0J102720D01*
G02X-2295120Y5085950I0J-102718D01*
G03X-2288030Y5084640I4195J2864D01*
G02X-2258010Y5094020I30020J-43348D01*
G02Y4988580I0J-52720D01*
G02X-2278070Y4992540I-13J52723D01*
G37*
G36*
G01X-3089230Y5044860D02*
G03X-3102950Y5055840I-10048J1507D01*
G02X-3122000Y5052280I-19045J49161D01*
G02Y5157720I0J52720D01*
G02X-3070020Y5113800I0J-52720D01*
G03X-3053570Y5107640I10015J1700D01*
G02X-2990000Y5130340I63563J-77642D01*
G02X-3090340Y5030000I0J-100340D01*
G02X-3089230Y5044860I100338J-24D01*
G37*
G36*
G01X-3798670Y5814170D02*
G03X-3814750Y5812630I-7452J-6907D01*
G02X-3859500Y5787780I-44750J27868D01*
G02Y5893220I0J52720D01*
G02X-3820830Y5876330I0J-52713D01*
G03X-3804750Y5877870I7452J6907D01*
G02X-3760000Y5902720I44750J-27868D01*
G02Y5797280I0J-52720D01*
G02X-3798670Y5814170I0J52713D01*
G37*
G36*
G01X-1001920Y5870730D02*
G03X-1018080I-8080J-6159D01*
G02X-1060000Y5849980I-41920J31969D01*
G02Y5955420I0J52720D01*
G02X-1018080Y5934670I0J-52719D01*
G03X-1001920I8080J6159D01*
G02X-960000Y5955420I41920J-31969D01*
G02X-922230Y5939480I0J-52718D01*
G03X-915200Y5939250I3635J3548D01*
G02X-880000Y5952720I35200J-39258D01*
G02Y5847280I0J-52720D01*
G02X-917770Y5863220I0J52718D01*
G03X-924800Y5863450I-3635J-3548D01*
G02X-960000Y5849980I-35200J39258D01*
G02X-1001920Y5870730I0J52719D01*
G37*
G36*
G01X-1572150Y5912750D02*
G03X-1576100Y5918460I-5023J746D01*
G02X-1617720Y5970000I11102J51540D01*
G02X-1512280I52720J0D01*
G02X-1512850Y5962250I-52721J-18D01*
G03X-1508900Y5956540I5023J-746D01*
G02X-1467280Y5905000I-11102J-51540D01*
G02X-1572720I-52720J0D01*
G02X-1572150Y5912750I52721J18D01*
G37*
G36*
G01X-4113890Y1446450D02*
G02X-4160000Y1419280I-46110J25541D01*
G02Y1524720I0J52720D01*
G02X-4113890Y1497550I0J-52711D01*
G03X-4096110I8890J4927D01*
G02X-4050000Y1524720I46110J-25541D01*
G02Y1419280I0J-52720D01*
G02X-4096110Y1446450I0J52711D01*
G03X-4113890I-8890J-4927D01*
G37*
G36*
G01X-5552840Y1457490D02*
G02X-5629720Y1540000I5836J82510D01*
G02X-5464280I82720J0D01*
G02X-5500670Y1471470I-82723J0D01*
G03X-5497400Y1453190I5695J-8414D01*
G02X-5457280Y1402000I-12597J-51190D01*
G02X-5562720I-52720J0D01*
G02X-5546520Y1440020I52715J0D01*
G03X-5552840Y1457490I-7034J7334D01*
G37*
G36*
G01X-3369210Y1662670D02*
G02X-3387000Y1659580I-17784J49631D01*
G02X-3334280Y1712300I0J52720D01*
G02X-3337970Y1692920I-52721J-3D01*
G03X-3325090Y1679630I9450J-3728D01*
G02X-3307300Y1682720I17784J-49631D01*
G02X-3360020Y1630000I0J-52720D01*
G02X-3356330Y1649380I52721J3D01*
G03X-3369210Y1662670I-9450J3728D01*
G37*
G36*
G01X-3239660Y1950000D02*
G02X-3264920Y1995000I27453J45000D01*
G02X-3159480I52720J0D01*
G02X-3188760Y1947780I-52716J0D01*
G03X-3189540Y1930000I4512J-9105D01*
G02X-3164280Y1885000I-27453J-45000D01*
G02X-3168480Y1864380I-52717J0D01*
G03X-3161950Y1850640I9350J-3978D01*
G02X-3123880Y1800000I-14645J-50640D01*
G02X-3229320I-52720J0D01*
G02X-3225120Y1820620I52717J0D01*
G03X-3231650Y1834360I-9350J3978D01*
G02X-3269720Y1885000I14645J50640D01*
G02X-3240440Y1932220I52716J0D01*
G03X-3239660Y1950000I-4512J9105D01*
G37*
G36*
G01X-2158360Y1999900D02*
G02X-2159440Y2010500I51638J10616D01*
G02X-2106720Y2063220I52720J0D01*
G02X-2058660Y2032170I0J-52719D01*
G03X-2040140I9260J4181D01*
G02X-1992080Y2063220I48060J-21669D01*
G02Y1957780I0J-52720D01*
G02X-2040140Y1988830I0J52719D01*
G03X-2058660I-9260J-4181D01*
G02X-2106720Y1957780I-48060J21669D01*
G02X-2108130Y1957800I43J52719D01*
G03X-2118360Y1945600I-276J-10157D01*
G02X-2117280Y1935000I-51638J-10616D01*
G02X-2170000Y1987720I-52720J0D01*
G02X-2168590Y1987700I-43J-52719D01*
G03X-2158360Y1999900I276J10157D01*
G37*
G36*
G01X-2608650Y2164980D02*
G02X-2644720Y2215000I16648J50020D01*
G02X-2539280I52720J0D01*
G02X-2566970Y2168600I-52721J0D01*
G03X-2565350Y2150020I4828J-8940D01*
G02X-2529280Y2100000I-16648J-50020D01*
G02X-2634720I-52720J0D01*
G02X-2607030Y2146400I52721J0D01*
G03X-2608650Y2164980I-4828J8940D01*
G37*
G36*
G01X-3401750Y2222540D02*
G02X-3407000Y2222280I-5230J52461D01*
G02X-3354280Y2275000I0J52720D01*
G02X-3357750Y2256190I-52717J0D01*
G03X-3347250Y2242460I9492J-3621D01*
G02X-3342000Y2242720I5230J-52461D01*
G02X-3394720Y2190000I0J-52720D01*
G02X-3391250Y2208810I52717J0D01*
G03X-3401750Y2222540I-9492J3621D01*
G37*
G36*
G01X-5384210Y2808620D02*
G02X-5400700Y2805980I-16474J50082D01*
G02X-5347980Y2858700I0J52720D01*
G02X-5350620Y2842210I-52722J-16D01*
G03X-5337800Y2829390I9648J-3172D01*
G02X-5321310Y2832030I16474J-50082D01*
G02X-5374030Y2779310I0J-52720D01*
G02X-5371390Y2795800I52722J16D01*
G03X-5384210Y2808620I-9648J3172D01*
G37*
G36*
G01X-615050Y3462610D02*
G02X-622720Y3490000I45051J27385D01*
G02X-570000Y3437280I52720J0D01*
G02X-576940Y3437740I9J52719D01*
G03X-586950Y3422390I-1330J-10072D01*
G02X-579280Y3395000I-45051J-27385D01*
G02X-632000Y3447720I-52720J0D01*
G02X-625060Y3447260I-9J-52719D01*
G03X-615050Y3462610I1330J10072D01*
G37*
G36*
G01X-3234500Y3598570D02*
G03X-3221090Y3604230I3949J9361D01*
G02X-3172000Y3637720I49090J-19233D01*
G02X-3126320Y3611320I0J-52720D01*
G03X-3108760Y3611250I8800J5074D01*
G02X-3063290Y3637280I45470J-26699D01*
G02Y3531840I0J-52720D01*
G02X-3108970Y3558240I0J52720D01*
G03X-3126530Y3558310I-8800J-5074D01*
G02X-3172000Y3532280I-45470J26699D01*
G02X-3192500Y3536430I0J52708D01*
G03X-3205910Y3530770I-3949J-9361D01*
G02X-3255000Y3497280I-49090J19233D01*
G02Y3602720I0J52720D01*
G02X-3234500Y3598570I0J-52708D01*
G37*
G36*
G01X-4644810Y3629270D02*
G02X-4672720Y3675790I24814J46520D01*
G02X-4567280I52720J0D01*
G02X-4595190Y3629270I-52724J0D01*
G03Y3611350I4784J-8960D01*
G02X-4567280Y3564830I-24814J-46520D01*
G02X-4604050Y3514580I-52721J0D01*
G03X-4608090Y3497640I3073J-9685D01*
G02X-4592280Y3460000I-36901J-37640D01*
G02X-4697720I-52720J0D01*
G02X-4660950Y3510250I52721J0D01*
G03X-4656910Y3527190I-3073J9685D01*
G02X-4672720Y3564830I36901J37640D01*
G02X-4644810Y3611350I52724J0D01*
G03Y3629270I-4784J8960D01*
G37*
G36*
G01X-1181200Y3835610D02*
G02X-1197690Y3832970I-16474J50082D01*
G02X-1144970Y3885690I0J52720D01*
G02X-1147610Y3869200I-52722J-16D01*
G03X-1134790Y3856380I9648J-3172D01*
G02X-1118300Y3859020I16474J-50082D01*
G02X-1065580Y3806300I0J-52720D01*
G02X-1108520Y3754500I-52714J0D01*
G03X-1114830Y3738510I1886J-9984D01*
G02X-1104660Y3707380I-42559J-31130D01*
G02X-1210100I-52720J0D01*
G02X-1167160Y3759180I52714J0D01*
G03X-1160850Y3775170I-1886J9984D01*
G02X-1171020Y3806300I42559J31130D01*
G02X-1168380Y3822790I52722J16D01*
G03X-1181200Y3835610I-9648J3172D01*
G37*
G36*
G01X-3855550Y4483890D02*
G02X-3882720Y4530000I25541J46110D01*
G02X-3777280I52720J0D01*
G02X-3804450Y4483890I-52711J0D01*
G03Y4466110I4927J-8890D01*
G02X-3777280Y4420000I-25541J-46110D01*
G02X-3882720I-52720J0D01*
G02X-3855550Y4466110I52711J0D01*
G03Y4483890I-4927J8890D01*
G37*
G36*
G01X-2399330Y4447210D02*
G02X-2482720Y4548100I19336J100890D01*
G02X-2277280I102720J0D01*
G02X-2338740Y4454030I-102721J0D01*
G03X-2339080Y4435580I4080J-9303D01*
G02X-2309280Y4388100I-22925J-47480D01*
G02X-2414720I-52720J0D01*
G02X-2394900Y4429300I52731J0D01*
G03X-2399330Y4447210I-6340J7935D01*
G37*
G36*
G01X-1822980Y4739010D02*
G03X-1806020I8480J5596D01*
G02X-1762000Y4762720I44020J-29009D01*
G02X-1709280Y4710000I0J-52720D01*
G02X-1713440Y4689470I-52721J-4D01*
G03X-1701320Y4675740I9357J-3954D01*
G02X-1687000Y4677720I14313J-50741D01*
G02X-1739720Y4625000I0J-52720D01*
G02X-1735560Y4645530I52721J4D01*
G03X-1747680Y4659260I-9357J3954D01*
G02X-1762000Y4657280I-14313J50741D01*
G02X-1806020Y4680990I0J52719D01*
G03X-1822980I-8480J-5596D01*
G02X-1867000Y4657280I-44020J29009D01*
G02X-1876690Y4658180I10J52719D01*
G03X-1888000Y4644440I-1866J-9989D01*
G02X-1884280Y4625000I-48998J-19452D01*
G02X-1937000Y4677720I-52720J0D01*
G02X-1927310Y4676820I-10J-52719D01*
G03X-1916000Y4690560I1866J9989D01*
G02X-1919720Y4710000I48998J19452D01*
G02X-1867000Y4762720I52720J0D01*
G02X-1822980Y4739010I0J-52719D01*
G37*
G36*
G01X-3713520Y5225350D02*
G02X-3810000Y5157880I-96480J35247D01*
G02Y5363320I0J102720D01*
G02X-3713520Y5295850I0J-102717D01*
G03X-3694360Y5296070I9541J3490D01*
G02X-3590000Y5370820I104360J-35475D01*
G02Y5150380I0J-110220D01*
G02X-3694360Y5225130I0J110225D01*
G03X-3713520Y5225350I-9619J-3270D01*
G37*
G36*
G01X-621890Y5617430D02*
G02X-652940Y5665490I21669J48060D01*
G02X-547500I52720J0D01*
G02X-578550Y5617430I-52719J0D01*
G03Y5598910I4181J-9260D01*
G02X-547500Y5550850I-21669J-48060D01*
G02X-652940I-52720J0D01*
G02X-621890Y5598910I52719J0D01*
G03Y5617430I-4181J9260D01*
G37*
G36*
G01X-1721670Y5831940D02*
G02X-1752720Y5880000I21669J48060D01*
G02X-1647280I52720J0D01*
G02X-1678330Y5831940I-52719J0D01*
G03Y5813420I4181J-9260D01*
G02X-1647280Y5765360I-21669J-48060D01*
G02X-1752720I-52720J0D01*
G02X-1721670Y5813420I52719J0D01*
G03Y5831940I-4181J9260D01*
G37*
G36*
G01Y6086580D02*
G02X-1752720Y6134640I21669J48060D01*
G02X-1647280I52720J0D01*
G02X-1678330Y6086580I-52719J0D01*
G03Y6068060I4181J-9260D01*
G02X-1647280Y6020000I-21669J-48060D01*
G02X-1752720I-52720J0D01*
G02X-1721670Y6068060I52719J0D01*
G03Y6086580I-4181J9260D01*
G37*
G36*
G01X-621890Y6202430D02*
G02X-652940Y6250490I21669J48060D01*
G02X-547500I52720J0D01*
G02X-578550Y6202430I-52719J0D01*
G03Y6183910I4181J-9260D01*
G02X-547500Y6135850I-21669J-48060D01*
G02X-652940I-52720J0D01*
G02X-621890Y6183910I52719J0D01*
G03Y6202430I-4181J9260D01*
G37*
G54D27*
X-6090000Y3835600D03*
X-5090000D03*
X-4090000D03*
X-6090000Y4693600D03*
X-4090000Y4403600D03*
Y4943600D03*
X-5590000Y5260600D03*
X-4590000D03*
X-2590000D03*
G54D23*
X-780000Y215000D03*
X-5635000Y910000D03*
X-5849710Y800400D03*
X-5760110Y890000D03*
X-5525000Y822300D03*
X-1003500Y580000D03*
X-1203200Y705000D03*
X-876500Y900000D03*
X-749500D03*
X-436500Y740500D03*
X-309500Y613500D03*
Y867500D03*
X-182500Y740500D03*
Y613500D03*
X-55500D03*
X198500Y867500D03*
X199500Y739500D03*
X-55500Y867500D03*
X198500Y613500D03*
X-55500Y740500D03*
X706500Y613500D03*
X452500D03*
Y867500D03*
X579500D03*
X325500Y740500D03*
X579500D03*
X-6152000Y1320000D03*
X-5940000Y1030000D03*
X-4786000Y1221000D03*
X-4352000Y1120000D03*
X-3892000Y1195000D03*
X-2890000Y1215000D03*
X-1982000Y980000D03*
X-1612000Y985000D03*
X-309500Y1248500D03*
X-182500Y1121500D03*
X-309000Y1121000D03*
X198500Y1248500D03*
X-55500D03*
X195000Y1125000D03*
X452500Y1248500D03*
Y994500D03*
X706500D03*
X579500Y1248500D03*
X452500Y1121500D03*
X325500Y994500D03*
X706500Y1121500D03*
X-5962000Y1460000D03*
X-6332000D03*
X-4642000Y1370000D03*
X-4637000Y1490000D03*
X-3787010Y1655000D03*
X-3557000Y1755000D03*
X-3767000Y1535000D03*
X-3857000Y1755000D03*
X-3510000Y1530000D03*
X-2915830Y1752500D03*
X-1987000Y1435000D03*
X-2122000Y1645000D03*
X-1657000Y1420000D03*
X-1000000Y1480000D03*
X-1130500Y1360000D03*
X-436500Y1629500D03*
X-182500D03*
X-309500D03*
X-52500Y1632500D03*
X198500Y1629500D03*
X706500Y1502500D03*
X579500Y1756500D03*
X452500Y1629500D03*
X579500Y1375500D03*
X706500Y1629500D03*
X325500D03*
X452500Y1756500D03*
X-5587000Y2060000D03*
X-5787000Y1910000D03*
X-5382000Y1920000D03*
X-5467000Y2005000D03*
X-5082000Y2110000D03*
X-4902000Y2070000D03*
X-4987400Y1834600D03*
X-4554100Y1997900D03*
X-4262000Y2095000D03*
X-3457000Y2070000D03*
X-3650000Y1920000D03*
X-3810000Y1880000D03*
X-3497000Y1890000D03*
X-2785000Y2150000D03*
X-2467000Y1990000D03*
X-2377400Y1900400D03*
X-1982000Y1860000D03*
X-1422140Y2032440D03*
X-1632000Y1850000D03*
X-1752000Y1900000D03*
X-1382000Y1905000D03*
X-1110000Y2130000D03*
X-182500Y1883500D03*
X-436500D03*
X-311000Y2139000D03*
X-182500Y2137500D03*
X200000Y2012000D03*
X-59000Y2141000D03*
X-55500Y2010500D03*
X452500D03*
X325500Y2137500D03*
X706500Y2010500D03*
X452500Y2137500D03*
X323000Y2013000D03*
X579500Y1883500D03*
X706500Y2137500D03*
X452500Y1883500D03*
X-5971740Y2549740D03*
X-6256740D03*
X-5937000Y2310000D03*
X-5737000D03*
X-5172000Y2510000D03*
X-5072000Y2315000D03*
X-4952000Y2295000D03*
X-4585750Y2593750D03*
X-4453250D03*
X-4320750D03*
X-4585750Y2461250D03*
X-4453250D03*
X-4320750D03*
X-4188250Y2593750D03*
Y2461250D03*
X-3617000Y2210000D03*
X-3597000Y2485000D03*
X-3847000D03*
X-3237000Y2285000D03*
X-3384500Y2467500D03*
X-2455000Y2470000D03*
X-2305000D03*
X-1902000Y2215000D03*
X-2015000Y2475000D03*
X-2165000D03*
X-1757000Y2355000D03*
X-1427000Y2340000D03*
X-1194070Y2214070D03*
X-182500Y2391500D03*
X-437500Y2392500D03*
X-309500Y2391500D03*
X-182500Y2518500D03*
Y2264500D03*
X-55500Y2391500D03*
X200000Y2270000D03*
X579500Y2264500D03*
X452500Y2518500D03*
X325500D03*
X328500Y2388500D03*
X579500Y2391500D03*
X706500Y2518500D03*
X-6117000Y2645000D03*
X-5947000Y2790000D03*
X-5577000Y2795000D03*
X-5587000Y2610000D03*
X-5787000Y2710000D03*
X-5187000Y2900000D03*
Y2730000D03*
X-5437000Y2610000D03*
X-4320750Y2726250D03*
X-4453250D03*
X-4585750D03*
Y2858750D03*
X-4453250D03*
X-4320750D03*
X-4188250Y2726250D03*
Y2858750D03*
X-3567000Y2675000D03*
X-3727000Y2870000D03*
X-3597000Y3005000D03*
X-3187000D03*
X-2570000Y2870000D03*
X-1942000Y2845000D03*
X-1402000Y2770000D03*
X-1752000Y2780000D03*
X-1647000Y2925000D03*
X-1080000Y2680000D03*
X-182500Y2772500D03*
X-436500Y2645500D03*
X-309500Y2899500D03*
X-182500Y2645500D03*
X71500D03*
X77000Y2767000D03*
X-58800Y2775800D03*
X-58000Y2902000D03*
X706500Y2645500D03*
X704500Y2774500D03*
X452500Y2645500D03*
X329000Y2769000D03*
X-5952000Y3245000D03*
X-5622000Y3230000D03*
X-5162000Y3155000D03*
X-5437000Y3292700D03*
Y3411590D03*
X-4897000Y3185000D03*
X-4927000Y3035000D03*
X-4022000Y3385000D03*
X-4112000Y3192700D03*
X-2520000Y3340000D03*
X-2431000Y3201000D03*
X-1842000Y3251300D03*
X-1760800Y3335000D03*
X-1060000Y3065000D03*
X-980000Y3381300D03*
X-904100Y3035000D03*
X-655360Y3273360D03*
X-436500Y3407500D03*
X-182500Y3153500D03*
X-436500D03*
X-299000Y3270000D03*
X77500Y3147500D03*
X198000Y3408000D03*
X71500Y3280500D03*
X-55500Y3026500D03*
Y3153500D03*
Y3280500D03*
Y3407500D03*
X325500Y3026500D03*
X452500Y3153500D03*
X579500Y3407500D03*
X325500Y3153500D03*
X452500Y3280500D03*
X325500Y3407500D03*
X579500Y3026500D03*
X706500Y3153500D03*
Y3280500D03*
X-5597000Y3660000D03*
X-5947000Y3670000D03*
X-5315000Y3530000D03*
X-4920000Y3660000D03*
X-4750000Y3555000D03*
X-4362000Y3455000D03*
X-4481590Y3669590D03*
X-4242000Y3455000D03*
X-2590000Y3540000D03*
X-1985000Y3612700D03*
X-1760000Y3595000D03*
X-904100Y3495000D03*
X-742000Y3465000D03*
X-309500Y3661500D03*
X198500D03*
X-55500D03*
X579000Y3661000D03*
X580500Y3789500D03*
X325000Y3790000D03*
X706500Y3661500D03*
X579500Y3534500D03*
X706500Y3788500D03*
X325500Y3661500D03*
Y3534500D03*
X-3581400Y4156300D03*
X-3225800Y4254500D03*
X-2580000Y4064100D03*
X-1197000Y4125000D03*
X-436500Y3915500D03*
X-182500D03*
X-309500D03*
X201500Y3918500D03*
X-55500Y3915500D03*
X198500Y4169500D03*
X579500Y3915500D03*
X452500Y4042500D03*
X325500Y3915500D03*
X579500Y4042500D03*
X706500Y4169500D03*
X452500D03*
X579500D03*
X327660Y4043680D03*
X-3240000Y4572000D03*
X-3225800Y4381500D03*
X-2730000Y4416820D03*
X-2110000Y4312000D03*
X-2070000Y4647000D03*
X-2042000Y4485900D03*
X-795000Y4630000D03*
X-309500Y4296500D03*
X-482600Y4614000D03*
X-182500Y4296500D03*
Y4550500D03*
X71500Y4677500D03*
X200500Y4679500D03*
X198500Y4423500D03*
X-51000Y4419000D03*
X-55880Y4551680D03*
X-53340Y4676140D03*
X706500Y4296500D03*
X579500D03*
X706500Y4550500D03*
X579500Y4677500D03*
X325500Y4550500D03*
X580680Y4423880D03*
X453860Y4425660D03*
X453000Y4297000D03*
X329500Y4300500D03*
X-3607040Y4894030D03*
X-3677000Y5060000D03*
X-3240000Y4699000D03*
Y4953000D03*
Y4820000D03*
X-2566600Y4957700D03*
X-2130000Y4770000D03*
X-1652000Y4855000D03*
X-1313500Y4861500D03*
X-1107000Y4985000D03*
X-590000Y4895000D03*
X-680000Y4991500D03*
X-309500Y4804500D03*
X-182500Y5058500D03*
X70000Y5060000D03*
X-55500Y4804500D03*
Y4931500D03*
X325500Y4804500D03*
X579500Y4931500D03*
X706500Y4804500D03*
X325500Y5058500D03*
Y4931500D03*
X579500Y5058500D03*
X572500Y4797500D03*
X-3917000Y5520000D03*
X-2796000Y5502100D03*
X-2482100D03*
X-2210000Y5297300D03*
X-2060000D03*
X-1910000D03*
X-1498600Y5500400D03*
X-1757000Y5160000D03*
X-1627000Y5190000D03*
X-1307600Y5186500D03*
X-970000Y5470000D03*
X-1193200Y5500400D03*
X-1077000Y5165000D03*
X-713600Y5190000D03*
X-310000Y5430000D03*
X-182500Y5439500D03*
X-319000Y5249000D03*
X-182500Y5185500D03*
Y5312500D03*
X71500Y5185500D03*
Y5439500D03*
X-55500Y5312500D03*
Y5439500D03*
X706500Y5185500D03*
X325000Y5185000D03*
X579500Y5439500D03*
X325500D03*
X706500Y5312500D03*
X326500Y5313500D03*
X578500Y5311500D03*
X577000Y5183000D03*
X-4962700Y5762500D03*
X-4667500D03*
X-4527500Y5910000D03*
X-3551970Y5571410D03*
X-3769430D03*
X-3400000Y5588250D03*
X-2796000Y5797100D03*
X-2910000Y5649600D03*
X-2270000Y5758200D03*
X-2060000Y5642700D03*
X-1910000D03*
X-1193200Y5795400D03*
X-1060000Y5645000D03*
X-770000Y5615000D03*
X-309500Y5693500D03*
X-436500Y5566500D03*
X-180000Y5690000D03*
X-55500Y5693500D03*
X71500Y5566500D03*
X-55500D03*
X706500Y5693500D03*
X326000Y5694000D03*
X577500Y5692500D03*
X325000Y5565000D03*
X579500Y5566500D03*
X-4962700Y6057500D03*
X-4652500D03*
X-3804200Y6117900D03*
X-2792700Y6082500D03*
X-2910000Y6230000D03*
X-970000Y6055000D03*
X-1193200Y6085400D03*
X-1060000Y6230000D03*
X-770000Y6200000D03*
X-500000Y6065000D03*
X-2792700Y6377500D03*
X-2492500D03*
X-1498600Y6380400D03*
X-1193200D03*
G54D28*
X-3810000Y3835600D03*
X-3340000D03*
X-2840000D03*
X-2380000Y4068100D03*
X-3340000Y5260600D03*
X-2840000D03*
G54D30*
X-2990000Y4070000D03*
G54D21*
X-1531000Y-110000D03*
X-1023000D03*
X-1277000D03*
X-769000D03*
X-1412000Y481000D03*
Y735000D03*
Y989000D03*
X-710000Y2530000D03*
Y2276000D03*
Y2784000D03*
X-3010000Y3190000D03*
X-3264000D03*
X-2756000D03*
X-3966000Y3580000D03*
X-3712000D03*
X-3458000D03*
X-710000Y3696000D03*
Y3950000D03*
Y4204000D03*
G54D25*
X-4132000Y1265000D03*
X-3567000Y3230000D03*
G54D26*
X-5547000Y1745000D03*
X-5737000Y1630000D03*
X-4300000Y1810000D03*
X-4510000D03*
X-3997000Y1805000D03*
G54D24*
X-106500Y434500D03*
X198500Y5872500D03*
G54D22*
X0Y0D03*
Y6300000D03*
G54D29*
X-3090000Y3835600D03*
%LPD*%
G75*
G54D10*
X-6152000Y1320000D03*
X-5962000Y1460000D03*
X-6332000D03*
X-5962000Y2090000D03*
X-6247000D03*
X-6117000Y1970000D03*
X-5971740Y2549740D03*
X-6256740D03*
X-6117000Y2645000D03*
X-5635000Y910000D03*
X-5849710Y800400D03*
X-5760110Y890000D03*
X-5660000Y1080000D03*
X-5940000Y1030000D03*
X-5587000Y2060000D03*
X-5787000Y1910000D03*
X-5937000Y2310000D03*
X-5737000D03*
X-5947000Y2790000D03*
X-5577000Y2795000D03*
X-5587000Y2610000D03*
X-5787000Y2710000D03*
X-5952000Y3245000D03*
X-5622000Y3230000D03*
X-5597000Y3660000D03*
X-5947000Y3670000D03*
X-5525000Y822300D03*
X-5510000Y1402000D03*
X-5382000Y1920000D03*
X-5467000Y2005000D03*
X-5175000Y1780000D03*
X-5172000Y2510000D03*
X-5187000Y2900000D03*
Y2730000D03*
X-5437000Y2610000D03*
X-5321310Y2779310D03*
X-5400700Y2858700D03*
X-5162000Y3155000D03*
X-5437000Y3292700D03*
Y3411590D03*
X-5315000Y3530000D03*
X-4786000Y1221000D03*
X-5077000Y1745000D03*
X-5032380Y1937620D03*
X-5082000Y2110000D03*
X-4902000Y2070000D03*
X-4987400Y1834600D03*
X-4922000Y2525000D03*
X-5072000Y2315000D03*
X-4952000Y2295000D03*
X-4919700Y2885000D03*
Y2735000D03*
X-4762000Y3192700D03*
X-4897000Y3185000D03*
X-4927000Y3035000D03*
X-4890000Y3530000D03*
X-4920000Y3660000D03*
X-4750000Y3555000D03*
X-4962700Y5762500D03*
Y6057500D03*
X-4352000Y1120000D03*
X-4642000Y1370000D03*
X-4637000Y1490000D03*
X-4612000Y2130000D03*
X-4554100Y1997900D03*
X-4585750Y2593750D03*
X-4453250D03*
X-4320750D03*
X-4585750Y2461250D03*
X-4453250D03*
X-4320750D03*
Y2726250D03*
X-4453250D03*
X-4585750D03*
Y2858750D03*
X-4453250D03*
X-4320750D03*
X-4612000Y3192700D03*
X-4412000Y3190000D03*
X-4342000Y3635000D03*
X-4700000Y3625000D03*
X-4362000Y3455000D03*
X-4645000Y3460000D03*
X-4481590Y3669590D03*
X-4620000Y3564830D03*
Y3675790D03*
X-4667500Y5762500D03*
X-4527500Y5910000D03*
X-4652500Y6057500D03*
X-3892000Y1195000D03*
X-4050000Y1472000D03*
X-4160000D03*
X-4262000Y2095000D03*
X-4188250Y2593750D03*
Y2461250D03*
Y2726250D03*
Y2858750D03*
X-4262000Y3190000D03*
X-4022000Y3385000D03*
X-4112000Y3192700D03*
X-4242000Y3455000D03*
X-3917000Y5520000D03*
X-3787010Y1655000D03*
X-3557000Y1755000D03*
X-3767000Y1535000D03*
X-3857000Y1755000D03*
X-3510000Y1530000D03*
X-3457000Y2070000D03*
X-3650000Y1920000D03*
X-3810000Y1880000D03*
X-3497000Y1890000D03*
X-3617000Y2210000D03*
X-3597000Y2485000D03*
X-3847000D03*
X-3857000Y2885000D03*
X-3847000Y2635000D03*
X-3567000Y2675000D03*
X-3727000Y2870000D03*
X-3597000Y3005000D03*
X-3854300Y3035000D03*
X-3550000Y4254500D03*
X-3581400Y4156300D03*
X-3550000Y4381500D03*
Y4572000D03*
X-3830000Y4530000D03*
Y4420000D03*
X-3550000Y4826000D03*
Y4980000D03*
Y4699000D03*
X-3607040Y4894030D03*
X-3677000Y5060000D03*
X-3590000Y5930900D03*
X-3551970Y5571410D03*
X-3769430D03*
X-3760000Y5850000D03*
X-3859500Y5840500D03*
X-3590000Y6045200D03*
X-3804200Y6117900D03*
X-3307300Y1630000D03*
X-3048500Y1603500D03*
X-3387000Y1712300D03*
X-3045000Y2150000D03*
X-3127000Y2100000D03*
X-3212200Y1995000D03*
X-3217000Y1885000D03*
X-3176600Y1800000D03*
X-3229300Y2570000D03*
X-3237000Y2285000D03*
X-3407000Y2275000D03*
X-3384500Y2467500D03*
X-3342000Y2190000D03*
X-3237000Y2675000D03*
X-3187000Y3005000D03*
X-3255000Y3550000D03*
X-3063290Y3584560D03*
X-3172000Y3585000D03*
X-3225800Y4254500D03*
X-3240000Y4572000D03*
X-3225800Y4381500D03*
X-3240000Y4699000D03*
Y4953000D03*
X-3122000Y5105000D03*
X-3240000Y4820000D03*
X-3400000Y5588250D03*
X-2890000Y1215000D03*
X-2845000Y1547300D03*
X-2915830Y1752500D03*
X-2962000Y1645000D03*
X-2785000Y2150000D03*
X-2672000Y1910000D03*
X-2977000Y2285000D03*
X-2985000Y3530000D03*
X-2959100Y4241800D03*
X-2971800Y4419600D03*
X-2722700Y4650000D03*
X-2730000Y4416820D03*
X-2781300Y4584700D03*
X-2796000Y5502100D03*
Y5797100D03*
X-2910000Y5649600D03*
X-2792700Y6082500D03*
X-2910000Y6230000D03*
X-2792700Y6377500D03*
X-2582000Y2100000D03*
Y1915000D03*
X-2467000Y1990000D03*
X-2377400Y1900400D03*
X-2592000Y2215000D03*
X-2455000Y2470000D03*
X-2305000D03*
X-2602000Y2725000D03*
X-2570000Y2870000D03*
Y3130000D03*
X-2520000Y3340000D03*
X-2431000Y3201000D03*
X-2590000Y3540000D03*
X-2580000Y4064100D03*
X-2362000Y4388100D03*
X-2566600Y4957700D03*
X-2258010Y5041300D03*
X-2482100Y5502100D03*
X-2210000Y5297300D03*
Y5642700D03*
X-2270000Y5758200D03*
X-2240000Y6140000D03*
X-2492500Y6377500D03*
X-1982000Y980000D03*
X-1987000Y1435000D03*
X-2122000Y1645000D03*
X-2170000Y2057300D03*
X-1982000Y1860000D03*
X-2170000Y1935000D03*
X-2106720Y2010500D03*
X-1992080D03*
X-1902000Y2215000D03*
X-2015000Y2475000D03*
X-2165000D03*
X-1872000Y2725000D03*
X-1909590Y2984590D03*
X-1942000Y2845000D03*
X-1970000Y3340000D03*
X-2050000Y3190000D03*
X-1842000Y3251300D03*
X-1985000Y3612700D03*
X-1852000Y4250030D03*
X-1927380Y4261990D03*
X-2110000Y4312000D03*
X-1860000Y4530000D03*
Y4430000D03*
X-1810000Y4480000D03*
X-1937000Y4625000D03*
X-2070000Y4647000D03*
X-2042000Y4485900D03*
X-2137300Y5102450D03*
X-2130000Y4770000D03*
X-1867000Y4710000D03*
X-1972700Y5125000D03*
X-2060000Y5297300D03*
X-1910000D03*
X-2060000Y5642700D03*
X-1910000D03*
X-1612000Y985000D03*
X-1657000Y1420000D03*
X-1422140Y2032440D03*
X-1632000Y1850000D03*
X-1752000Y1900000D03*
X-1382000Y1905000D03*
X-1757000Y2355000D03*
X-1427000Y2340000D03*
X-1402000Y2770000D03*
X-1752000Y2780000D03*
X-1647000Y2925000D03*
X-1663700Y3381300D03*
X-1767300Y3095000D03*
X-1760800Y3335000D03*
X-1750000Y3500000D03*
X-1760000Y3595000D03*
X-1772000Y4249800D03*
X-1694800Y4260000D03*
X-1439200Y4669750D03*
X-1760000Y4530000D03*
Y4430000D03*
X-1687000Y4625000D03*
X-1570800Y4796500D03*
X-1762000Y4710000D03*
X-1652000Y4855000D03*
X-1498600Y5500400D03*
X-1757000Y5160000D03*
X-1627000Y5190000D03*
X-1575000Y5715000D03*
X-1520000Y5905000D03*
X-1700000Y5765360D03*
Y5880000D03*
X-1565000Y6200000D03*
Y5970000D03*
X-1700000Y6134640D03*
Y6020000D03*
X-1498600Y6380400D03*
X-1003500Y580000D03*
X-1203200Y705000D03*
X-1000000Y1480000D03*
X-1130500Y1360000D03*
X-977380Y2172380D03*
X-1110000Y2130000D03*
X-1041020Y2348980D03*
X-1070000Y2445000D03*
X-1194070Y2214070D03*
X-1080000Y2680000D03*
X-1060000Y3065000D03*
X-980000Y3381300D03*
X-1157380Y3707380D03*
X-1118300Y3806300D03*
X-1291820Y3911820D03*
X-1197000Y4125000D03*
X-1197690Y3885690D03*
X-1050000Y4796500D03*
X-976800Y4861500D03*
X-1313500D03*
X-1000000Y4730000D03*
X-1107000Y4985000D03*
X-1307600Y5186500D03*
X-970000Y5470000D03*
X-1193200Y5500400D03*
X-1077000Y5165000D03*
X-960000Y5902700D03*
X-1060000D03*
X-1193200Y5795400D03*
X-1060000Y5645000D03*
X-970000Y6055000D03*
X-1193200Y6085400D03*
X-1060000Y6230000D03*
X-1193200Y6380400D03*
X-960000Y6490000D03*
X-1060000D03*
X-780000Y130000D03*
Y215000D03*
X-876500Y900000D03*
X-749500D03*
X-640000Y1340000D03*
Y1420000D03*
X-904100Y3035000D03*
X-655360Y3273360D03*
X-632000Y3395000D03*
X-904100Y3495000D03*
X-742000Y3465000D03*
X-570000Y3490000D03*
X-795000Y4630000D03*
X-590000Y4895000D03*
X-680000Y4991500D03*
X-713600Y5190000D03*
X-680000Y5825000D03*
X-620000Y5900000D03*
X-770000Y5615000D03*
X-880000Y5900000D03*
X-600220Y5665490D03*
Y5550850D03*
X-770000Y6200000D03*
X-600220Y6250490D03*
Y6135850D03*
X-620000Y6410000D03*
Y6490000D03*
X-880000D03*
X-436500Y740500D03*
X-309500Y613500D03*
Y867500D03*
X-182500Y740500D03*
Y613500D03*
X-309500Y1248500D03*
X-182500Y1121500D03*
X-309000Y1121000D03*
X-436500Y1629500D03*
X-182500D03*
X-309500D03*
X-182500Y1883500D03*
X-436500D03*
X-311000Y2139000D03*
X-182500Y2137500D03*
Y2391500D03*
X-437500Y2392500D03*
X-309500Y2391500D03*
X-182500Y2518500D03*
Y2264500D03*
Y2772500D03*
X-436500Y2645500D03*
X-309500Y2899500D03*
X-182500Y2645500D03*
X-436500Y3407500D03*
X-182500Y3153500D03*
X-436500D03*
X-299000Y3270000D03*
X-309500Y3661500D03*
X-436500Y3915500D03*
X-182500D03*
X-309500D03*
Y4296500D03*
X-482600Y4614000D03*
X-182500Y4296500D03*
Y4550500D03*
X-309500Y4804500D03*
X-413400Y5059160D03*
X-182500Y5058500D03*
X-309500D03*
X-310000Y5430000D03*
X-182500Y5439500D03*
X-319000Y5249000D03*
X-182500Y5185500D03*
Y5312500D03*
X-309500Y5693500D03*
X-436500Y5566500D03*
X-180000Y5690000D03*
X-500000Y6305000D03*
Y6065000D03*
X-55500Y613500D03*
X198500Y867500D03*
X199500Y739500D03*
X-55500Y867500D03*
X198500Y613500D03*
X-55500Y740500D03*
X198500Y1248500D03*
X-55500D03*
X195000Y1125000D03*
X-52500Y1632500D03*
X198500Y1629500D03*
X200000Y2012000D03*
X-59000Y2141000D03*
X-55500Y2010500D03*
Y2391500D03*
X200000Y2270000D03*
X71500Y2645500D03*
X77000Y2767000D03*
X-58800Y2775800D03*
X-58000Y2902000D03*
X77500Y3147500D03*
X198000Y3408000D03*
X71500Y3280500D03*
X-55500Y3026500D03*
Y3153500D03*
Y3280500D03*
Y3407500D03*
X198500Y3661500D03*
X-55500D03*
X201500Y3918500D03*
X-55500Y3915500D03*
X198500Y4169500D03*
X71500Y4677500D03*
X200500Y4679500D03*
X198500Y4423500D03*
X-51000Y4419000D03*
X-55880Y4551680D03*
X-53340Y4676140D03*
X70000Y5060000D03*
X-55500Y4804500D03*
Y4931500D03*
X71500Y5185500D03*
Y5439500D03*
X-55500Y5312500D03*
Y5439500D03*
Y5693500D03*
X71500Y5566500D03*
X-55500D03*
X325500Y613500D03*
Y867500D03*
X452500Y740500D03*
X706500Y613500D03*
X452500D03*
Y867500D03*
X579500D03*
X325500Y740500D03*
X579500D03*
X325500Y1121500D03*
X452500Y1248500D03*
Y994500D03*
X706500D03*
X579500Y1248500D03*
X452500Y1121500D03*
X325500Y994500D03*
X706500Y1121500D03*
Y1502500D03*
X579500Y1756500D03*
X452500Y1629500D03*
X579500Y1375500D03*
X706500Y1629500D03*
X325500D03*
X452500Y1756500D03*
Y2010500D03*
X325500Y2137500D03*
X706500Y2010500D03*
X452500Y2137500D03*
X323000Y2013000D03*
X579500Y1883500D03*
X706500Y2137500D03*
X452500Y1883500D03*
X579500Y2264500D03*
X452500Y2518500D03*
X325500D03*
X328500Y2388500D03*
X579500Y2391500D03*
X706500Y2518500D03*
Y2645500D03*
X704500Y2774500D03*
X452500Y2645500D03*
X329000Y2769000D03*
X325500Y3026500D03*
X452500Y3153500D03*
X579500Y3407500D03*
X325500Y3153500D03*
X452500Y3280500D03*
X325500Y3407500D03*
X579500Y3026500D03*
X706500Y3153500D03*
Y3280500D03*
X579000Y3661000D03*
X580500Y3789500D03*
X325000Y3790000D03*
X706500Y3661500D03*
X579500Y3534500D03*
X706500Y3788500D03*
X325500Y3661500D03*
Y3534500D03*
X579500Y3915500D03*
X452500Y4042500D03*
X325500Y3915500D03*
X579500Y4042500D03*
X706500Y4169500D03*
X452500D03*
X579500D03*
X327660Y4043680D03*
X706500Y4296500D03*
X579500D03*
X706500Y4550500D03*
X579500Y4677500D03*
X325500Y4550500D03*
X580680Y4423880D03*
X453860Y4425660D03*
X453000Y4297000D03*
X329500Y4300500D03*
X325500Y4804500D03*
X579500Y4931500D03*
X706500Y4804500D03*
X325500Y5058500D03*
Y4931500D03*
X579500Y5058500D03*
X572500Y4797500D03*
X706500Y5185500D03*
X325000Y5185000D03*
X579500Y5439500D03*
X325500D03*
X706500Y5312500D03*
X326500Y5313500D03*
X578500Y5311500D03*
X577000Y5183000D03*
X706500Y5693500D03*
X326000Y5694000D03*
X577500Y5692500D03*
X325000Y5565000D03*
X579500Y5566500D03*
G54D20*
G01X-1023000Y-110000D02*
Y2800D01*
G01X-1135800Y-110000D02*
X-1023000D01*
G01D02*
X-910200D01*
G54D11*
X-6090000Y3835600D03*
Y4693600D03*
X-5590000Y5260600D03*
X-5090000Y3835600D03*
X-4590000Y5260600D03*
X-4090000Y3835600D03*
Y4403600D03*
Y4943600D03*
X-3590000Y5260600D03*
X-2590000D03*
G54D12*
X-5460000Y380000D03*
X-5475000Y6050000D03*
X0Y0D03*
Y6300000D03*
G54D13*
X-5547000Y1540000D03*
Y1745000D03*
X-5737000Y1630000D03*
X-4300000Y1810000D03*
X-4510000D03*
X-3997000Y1805000D03*
G54D14*
X-4132000Y1265000D03*
X-3567000Y3230000D03*
G54D15*
X-3810000Y3835600D03*
Y5260600D03*
X-3340000Y3835600D03*
Y5260600D03*
X-2840000Y3835600D03*
Y5260600D03*
X-2380000Y4068100D03*
Y4548100D03*
Y5028100D03*
G54D16*
X-3966000Y3580000D03*
X-3712000D03*
X-3458000D03*
X-3010000Y3190000D03*
X-3264000D03*
X-2756000D03*
X-1531000Y-110000D03*
X-1412000Y481000D03*
Y735000D03*
Y989000D03*
X-1023000Y-110000D03*
X-1277000D03*
X-769000D03*
X-710000Y2530000D03*
Y2276000D03*
Y2784000D03*
Y3696000D03*
Y3950000D03*
Y4204000D03*
G54D17*
X-3090000Y3835600D03*
G54D18*
X-2990000Y4070000D03*
Y5030000D03*
X-106500Y434500D03*
X198500Y5872500D03*
G54D19*
G01X820800Y-178500D02*
X826800Y-185170D01*
X833800Y-189170D01*
X842800Y-190500D01*
X851800Y-187830D01*
X858800Y-182500D01*
X863800Y-173170D01*
X864800Y-162500D01*
X862800Y-151830D01*
X857800Y-145170D01*
X850800Y-139830D01*
X843800Y-138500D01*
X836800Y-139830D01*
X827800Y-145170D01*
X830800Y-110500D01*
X857800D01*
M02*
