G04 ================== begin FILE IDENTIFICATION RECORD ==================*
G04 Layout Name:  pc069a_toplevel_13.brd*
G04 Film Name:    art_L3_SIGN_pc069a*
G04 File Format:  Gerber RS274X*
G04 File Origin:  Cadence Allegro 17.4-S026*
G04 Origin Date:  Thu Jun 30 14:02:34 2022*
G04 *
G04 Layer:  VIA CLASS/L3_SIGN*
G04 Layer:  PIN/L3_SIGN*
G04 Layer:  ETCH/L3_SIGN*
G04 *
G04 Offset:    (0.0000 0.0000)*
G04 Mirror:    No*
G04 Mode:      Positive*
G04 Rotation:  0*
G04 FullContactRelief:  No*
G04 UndefLineWidth:     0.0000*
G04 ================== end FILE IDENTIFICATION RECORD ====================*
%FSLAX25Y25*MOMM*%
%IR0*IPPOS*OFA0.00000B0.00000*MIA0B0*SFA1.00000B1.00000*%
%ADD10C,.6*%
%ADD18C,1.*%
%ADD13C,1.2*%
%ADD15C,1.6*%
%ADD16C,1.7*%
%ADD12C,3.302*%
%ADD17C,1.524*%
%ADD11C,1.75*%
%ADD14C,1.397*%
%ADD19C,.1*%
%ADD20C,.2*%
%ADD21C,.5*%
%ADD22C,.254*%
G75*
%LPD*%
G75*
G54D10*
X-6152000Y1320000D03*
X-5962000Y1460000D03*
X-6332000D03*
X-5962000Y2090000D03*
X-6247000D03*
X-6117000Y1970000D03*
X-5971740Y2549740D03*
X-6256740D03*
X-6117000Y2645000D03*
X-5635000Y910000D03*
X-5849710Y800400D03*
X-5760110Y890000D03*
X-5660000Y1080000D03*
X-5940000Y1030000D03*
X-5587000Y2060000D03*
X-5787000Y1910000D03*
X-5937000Y2310000D03*
X-5737000D03*
X-5947000Y2790000D03*
X-5577000Y2795000D03*
X-5587000Y2610000D03*
X-5787000Y2710000D03*
X-5952000Y3245000D03*
X-5622000Y3230000D03*
X-5597000Y3660000D03*
X-5947000Y3670000D03*
X-5525000Y822300D03*
X-5510000Y1402000D03*
X-5382000Y1920000D03*
X-5467000Y2005000D03*
X-5175000Y1780000D03*
X-5172000Y2510000D03*
X-5187000Y2900000D03*
Y2730000D03*
X-5437000Y2610000D03*
X-5321310Y2779310D03*
X-5400700Y2858700D03*
X-5162000Y3155000D03*
X-5437000Y3292700D03*
Y3411590D03*
X-5315000Y3530000D03*
X-4786000Y1221000D03*
X-5077000Y1745000D03*
X-5032380Y1937620D03*
X-5082000Y2110000D03*
X-4902000Y2070000D03*
X-4987400Y1834600D03*
X-4922000Y2525000D03*
X-5072000Y2315000D03*
X-4952000Y2295000D03*
X-4919700Y2885000D03*
Y2735000D03*
X-4762000Y3192700D03*
X-4897000Y3185000D03*
X-4927000Y3035000D03*
X-4890000Y3530000D03*
X-4920000Y3660000D03*
X-4750000Y3555000D03*
X-4962700Y5762500D03*
Y6057500D03*
X-4352000Y1120000D03*
X-4642000Y1370000D03*
X-4637000Y1490000D03*
X-4612000Y2130000D03*
X-4554100Y1997900D03*
X-4585750Y2593750D03*
X-4453250D03*
X-4320750D03*
X-4585750Y2461250D03*
X-4453250D03*
X-4320750D03*
Y2726250D03*
X-4453250D03*
X-4585750D03*
Y2858750D03*
X-4453250D03*
X-4320750D03*
X-4612000Y3192700D03*
X-4412000Y3190000D03*
X-4342000Y3635000D03*
X-4700000Y3625000D03*
X-4362000Y3455000D03*
X-4645000Y3460000D03*
X-4481590Y3669590D03*
X-4620000Y3564830D03*
Y3675790D03*
X-4667500Y5762500D03*
X-4527500Y5910000D03*
X-4652500Y6057500D03*
X-3892000Y1195000D03*
X-4050000Y1472000D03*
X-4160000D03*
X-4262000Y2095000D03*
X-4188250Y2593750D03*
Y2461250D03*
Y2726250D03*
Y2858750D03*
X-4262000Y3190000D03*
X-4022000Y3385000D03*
X-4112000Y3192700D03*
X-4242000Y3455000D03*
X-3917000Y5520000D03*
X-3787010Y1655000D03*
X-3557000Y1755000D03*
X-3767000Y1535000D03*
X-3857000Y1755000D03*
X-3510000Y1530000D03*
X-3457000Y2070000D03*
X-3650000Y1920000D03*
X-3810000Y1880000D03*
X-3497000Y1890000D03*
X-3617000Y2210000D03*
X-3597000Y2485000D03*
X-3847000D03*
X-3857000Y2885000D03*
X-3847000Y2635000D03*
X-3567000Y2675000D03*
X-3727000Y2870000D03*
X-3597000Y3005000D03*
X-3854300Y3035000D03*
X-3550000Y4254500D03*
X-3581400Y4156300D03*
X-3550000Y4381500D03*
Y4572000D03*
X-3830000Y4530000D03*
Y4420000D03*
X-3550000Y4826000D03*
Y4980000D03*
Y4699000D03*
X-3607040Y4894030D03*
X-3677000Y5060000D03*
X-3590000Y5930900D03*
X-3551970Y5571410D03*
X-3769430D03*
X-3760000Y5850000D03*
X-3859500Y5840500D03*
X-3590000Y6045200D03*
X-3804200Y6117900D03*
X-3307300Y1630000D03*
X-3048500Y1603500D03*
X-3387000Y1712300D03*
X-3045000Y2150000D03*
X-3127000Y2100000D03*
X-3212200Y1995000D03*
X-3217000Y1885000D03*
X-3176600Y1800000D03*
X-3229300Y2570000D03*
X-3237000Y2285000D03*
X-3407000Y2275000D03*
X-3384500Y2467500D03*
X-3342000Y2190000D03*
X-3237000Y2675000D03*
X-3187000Y3005000D03*
X-3255000Y3550000D03*
X-3063290Y3584560D03*
X-3172000Y3585000D03*
X-3225800Y4254500D03*
X-3240000Y4572000D03*
X-3225800Y4381500D03*
X-3240000Y4699000D03*
Y4953000D03*
X-3122000Y5105000D03*
X-3240000Y4820000D03*
X-3400000Y5588250D03*
X-2890000Y1215000D03*
X-2845000Y1547300D03*
X-2915830Y1752500D03*
X-2962000Y1645000D03*
X-2785000Y2150000D03*
X-2672000Y1910000D03*
X-2977000Y2285000D03*
X-2985000Y3530000D03*
X-2959100Y4241800D03*
X-2971800Y4419600D03*
X-2722700Y4650000D03*
X-2730000Y4416820D03*
X-2781300Y4584700D03*
X-2796000Y5502100D03*
Y5797100D03*
X-2910000Y5649600D03*
X-2792700Y6082500D03*
X-2910000Y6230000D03*
X-2792700Y6377500D03*
X-2582000Y2100000D03*
Y1915000D03*
X-2467000Y1990000D03*
X-2377400Y1900400D03*
X-2592000Y2215000D03*
X-2455000Y2470000D03*
X-2305000D03*
X-2602000Y2725000D03*
X-2570000Y2870000D03*
Y3130000D03*
X-2520000Y3340000D03*
X-2431000Y3201000D03*
X-2590000Y3540000D03*
X-2580000Y4064100D03*
X-2362000Y4388100D03*
X-2566600Y4957700D03*
X-2258010Y5041300D03*
X-2482100Y5502100D03*
X-2210000Y5297300D03*
Y5642700D03*
X-2270000Y5758200D03*
X-2240000Y6140000D03*
X-2492500Y6377500D03*
X-1982000Y980000D03*
X-1987000Y1435000D03*
X-2122000Y1645000D03*
X-2170000Y2057300D03*
X-1982000Y1860000D03*
X-2170000Y1935000D03*
X-2106720Y2010500D03*
X-1992080D03*
X-1902000Y2215000D03*
X-2015000Y2475000D03*
X-2165000D03*
X-1872000Y2725000D03*
X-1909590Y2984590D03*
X-1942000Y2845000D03*
X-1970000Y3340000D03*
X-2050000Y3190000D03*
X-1842000Y3251300D03*
X-1985000Y3612700D03*
X-1852000Y4250030D03*
X-1927380Y4261990D03*
X-2110000Y4312000D03*
X-1860000Y4530000D03*
Y4430000D03*
X-1810000Y4480000D03*
X-1937000Y4625000D03*
X-2070000Y4647000D03*
X-2042000Y4485900D03*
X-2137300Y5102450D03*
X-2130000Y4770000D03*
X-1867000Y4710000D03*
X-1972700Y5125000D03*
X-2060000Y5297300D03*
X-1910000D03*
X-2060000Y5642700D03*
X-1910000D03*
X-1612000Y985000D03*
X-1657000Y1420000D03*
X-1422140Y2032440D03*
X-1632000Y1850000D03*
X-1752000Y1900000D03*
X-1382000Y1905000D03*
X-1757000Y2355000D03*
X-1427000Y2340000D03*
X-1402000Y2770000D03*
X-1752000Y2780000D03*
X-1647000Y2925000D03*
X-1663700Y3381300D03*
X-1767300Y3095000D03*
X-1760800Y3335000D03*
X-1750000Y3500000D03*
X-1760000Y3595000D03*
X-1772000Y4249800D03*
X-1694800Y4260000D03*
X-1439200Y4669750D03*
X-1760000Y4530000D03*
Y4430000D03*
X-1687000Y4625000D03*
X-1570800Y4796500D03*
X-1762000Y4710000D03*
X-1652000Y4855000D03*
X-1498600Y5500400D03*
X-1757000Y5160000D03*
X-1627000Y5190000D03*
X-1575000Y5715000D03*
X-1520000Y5905000D03*
X-1700000Y5765360D03*
Y5880000D03*
X-1565000Y6200000D03*
Y5970000D03*
X-1700000Y6134640D03*
Y6020000D03*
X-1498600Y6380400D03*
X-1003500Y580000D03*
X-1203200Y705000D03*
X-1000000Y1480000D03*
X-1130500Y1360000D03*
X-977380Y2172380D03*
X-1110000Y2130000D03*
X-1041020Y2348980D03*
X-1070000Y2445000D03*
X-1194070Y2214070D03*
X-1080000Y2680000D03*
X-1060000Y3065000D03*
X-980000Y3381300D03*
X-1157380Y3707380D03*
X-1118300Y3806300D03*
X-1291820Y3911820D03*
X-1197000Y4125000D03*
X-1197690Y3885690D03*
X-1050000Y4796500D03*
X-976800Y4861500D03*
X-1313500D03*
X-1000000Y4730000D03*
X-1107000Y4985000D03*
X-1307600Y5186500D03*
X-970000Y5470000D03*
X-1193200Y5500400D03*
X-1077000Y5165000D03*
X-960000Y5902700D03*
X-1060000D03*
X-1193200Y5795400D03*
X-1060000Y5645000D03*
X-970000Y6055000D03*
X-1193200Y6085400D03*
X-1060000Y6230000D03*
X-1193200Y6380400D03*
X-960000Y6490000D03*
X-1060000D03*
X-780000Y130000D03*
Y215000D03*
X-876500Y900000D03*
X-749500D03*
X-640000Y1340000D03*
Y1420000D03*
X-904100Y3035000D03*
X-655360Y3273360D03*
X-632000Y3395000D03*
X-904100Y3495000D03*
X-742000Y3465000D03*
X-570000Y3490000D03*
X-795000Y4630000D03*
X-590000Y4895000D03*
X-680000Y4991500D03*
X-713600Y5190000D03*
X-680000Y5825000D03*
X-620000Y5900000D03*
X-770000Y5615000D03*
X-880000Y5900000D03*
X-600220Y5665490D03*
Y5550850D03*
X-770000Y6200000D03*
X-600220Y6250490D03*
Y6135850D03*
X-620000Y6410000D03*
Y6490000D03*
X-880000D03*
X-436500Y740500D03*
X-309500Y613500D03*
Y867500D03*
X-182500Y740500D03*
Y613500D03*
X-309500Y1248500D03*
X-182500Y1121500D03*
X-309000Y1121000D03*
X-436500Y1629500D03*
X-182500D03*
X-309500D03*
X-182500Y1883500D03*
X-436500D03*
X-311000Y2139000D03*
X-182500Y2137500D03*
Y2391500D03*
X-437500Y2392500D03*
X-309500Y2391500D03*
X-182500Y2518500D03*
Y2264500D03*
Y2772500D03*
X-436500Y2645500D03*
X-309500Y2899500D03*
X-182500Y2645500D03*
X-436500Y3407500D03*
X-182500Y3153500D03*
X-436500D03*
X-299000Y3270000D03*
X-309500Y3661500D03*
X-436500Y3915500D03*
X-182500D03*
X-309500D03*
Y4296500D03*
X-482600Y4614000D03*
X-182500Y4296500D03*
Y4550500D03*
X-309500Y4804500D03*
X-413400Y5059160D03*
X-182500Y5058500D03*
X-309500D03*
X-310000Y5430000D03*
X-182500Y5439500D03*
X-319000Y5249000D03*
X-182500Y5185500D03*
Y5312500D03*
X-309500Y5693500D03*
X-436500Y5566500D03*
X-180000Y5690000D03*
X-500000Y6305000D03*
Y6065000D03*
X-55500Y613500D03*
X198500Y867500D03*
X199500Y739500D03*
X-55500Y867500D03*
X198500Y613500D03*
X-55500Y740500D03*
X198500Y1248500D03*
X-55500D03*
X195000Y1125000D03*
X-52500Y1632500D03*
X198500Y1629500D03*
X200000Y2012000D03*
X-59000Y2141000D03*
X-55500Y2010500D03*
Y2391500D03*
X200000Y2270000D03*
X71500Y2645500D03*
X77000Y2767000D03*
X-58800Y2775800D03*
X-58000Y2902000D03*
X77500Y3147500D03*
X198000Y3408000D03*
X71500Y3280500D03*
X-55500Y3026500D03*
Y3153500D03*
Y3280500D03*
Y3407500D03*
X198500Y3661500D03*
X-55500D03*
X201500Y3918500D03*
X-55500Y3915500D03*
X198500Y4169500D03*
X71500Y4677500D03*
X200500Y4679500D03*
X198500Y4423500D03*
X-51000Y4419000D03*
X-55880Y4551680D03*
X-53340Y4676140D03*
X70000Y5060000D03*
X-55500Y4804500D03*
Y4931500D03*
X71500Y5185500D03*
Y5439500D03*
X-55500Y5312500D03*
Y5439500D03*
Y5693500D03*
X71500Y5566500D03*
X-55500D03*
X325500Y613500D03*
Y867500D03*
X452500Y740500D03*
X706500Y613500D03*
X452500D03*
Y867500D03*
X579500D03*
X325500Y740500D03*
X579500D03*
X325500Y1121500D03*
X452500Y1248500D03*
Y994500D03*
X706500D03*
X579500Y1248500D03*
X452500Y1121500D03*
X325500Y994500D03*
X706500Y1121500D03*
Y1502500D03*
X579500Y1756500D03*
X452500Y1629500D03*
X579500Y1375500D03*
X706500Y1629500D03*
X325500D03*
X452500Y1756500D03*
Y2010500D03*
X325500Y2137500D03*
X706500Y2010500D03*
X452500Y2137500D03*
X323000Y2013000D03*
X579500Y1883500D03*
X706500Y2137500D03*
X452500Y1883500D03*
X579500Y2264500D03*
X452500Y2518500D03*
X325500D03*
X328500Y2388500D03*
X579500Y2391500D03*
X706500Y2518500D03*
Y2645500D03*
X704500Y2774500D03*
X452500Y2645500D03*
X329000Y2769000D03*
X325500Y3026500D03*
X452500Y3153500D03*
X579500Y3407500D03*
X325500Y3153500D03*
X452500Y3280500D03*
X325500Y3407500D03*
X579500Y3026500D03*
X706500Y3153500D03*
Y3280500D03*
X579000Y3661000D03*
X580500Y3789500D03*
X325000Y3790000D03*
X706500Y3661500D03*
X579500Y3534500D03*
X706500Y3788500D03*
X325500Y3661500D03*
Y3534500D03*
X579500Y3915500D03*
X452500Y4042500D03*
X325500Y3915500D03*
X579500Y4042500D03*
X706500Y4169500D03*
X452500D03*
X579500D03*
X327660Y4043680D03*
X706500Y4296500D03*
X579500D03*
X706500Y4550500D03*
X579500Y4677500D03*
X325500Y4550500D03*
X580680Y4423880D03*
X453860Y4425660D03*
X453000Y4297000D03*
X329500Y4300500D03*
X325500Y4804500D03*
X579500Y4931500D03*
X706500Y4804500D03*
X325500Y5058500D03*
Y4931500D03*
X579500Y5058500D03*
X572500Y4797500D03*
X706500Y5185500D03*
X325000Y5185000D03*
X579500Y5439500D03*
X325500D03*
X706500Y5312500D03*
X326500Y5313500D03*
X578500Y5311500D03*
X577000Y5183000D03*
X706500Y5693500D03*
X326000Y5694000D03*
X577500Y5692500D03*
X325000Y5565000D03*
X579500Y5566500D03*
G54D20*
G01X-1700000Y5765360D02*
X-1665380Y5799980D01*
X-1278890D01*
X-1228270Y5850600D01*
X-1170330D01*
X-1138000Y5818270D01*
Y5806070D01*
X-1058830Y5726900D01*
X-1051100D01*
X-517300Y5193100D01*
Y4827290D01*
X-324610Y4634600D01*
X-183250D01*
X-141600Y4592950D01*
X-94580Y4592000D01*
X-55880Y4551680D01*
G01X-1700000Y5880000D02*
X-1665380Y5845380D01*
X-1284410D01*
X-1243190Y5886600D01*
X-1155410D01*
X-1041110Y5772300D01*
X-1032290D01*
X-471900Y5211910D01*
Y4846100D01*
X-305800Y4680000D01*
X-164440D01*
X-160580Y4676140D01*
X-53340D01*
G01X453000Y4297000D02*
X415060Y4334940D01*
Y4386390D01*
X306150Y4495300D01*
X302630D01*
X270300Y4527630D01*
Y4573370D01*
X310000Y4613070D01*
Y4734220D01*
X225400Y4818820D01*
Y5614600D01*
X45900Y5794100D01*
X-351180D01*
X-514410Y5630870D01*
X-565600D01*
X-600220Y5665490D01*
G01X329500Y4300500D02*
X369660Y4340660D01*
Y4367580D01*
X287340Y4449900D01*
X283820D01*
X224900Y4508820D01*
Y4592180D01*
X264600Y4631880D01*
Y4715410D01*
X180000Y4800010D01*
Y5595790D01*
X27090Y5748700D01*
X-332370D01*
X-495600Y5585470D01*
X-565600D01*
X-600220Y5550850D01*
G01Y6250490D02*
X-565600Y6215870D01*
X-185010D01*
X-78840Y6109700D01*
X250300D01*
X513290Y5846710D01*
Y4540560D01*
X540720Y4513130D01*
Y4463840D01*
X580680Y4423880D01*
G01X-600220Y6135850D02*
X-565600Y6170470D01*
X-203820D01*
X-97650Y6064300D01*
X231490D01*
X467890Y5827900D01*
Y4521740D01*
X495140Y4494490D01*
Y4465790D01*
X495130Y4465780D01*
X453860Y4425660D01*
G54D11*
X-6090000Y3835600D03*
Y4693600D03*
X-5590000Y5260600D03*
X-5090000Y3835600D03*
X-4590000Y5260600D03*
X-4090000Y3835600D03*
Y4403600D03*
Y4943600D03*
X-3590000Y5260600D03*
X-2590000D03*
G54D21*
G01X-2890000Y1215000D02*
X-2602000D01*
X-1277000Y-110000D01*
G54D12*
X-5460000Y380000D03*
X-5475000Y6050000D03*
X0Y0D03*
Y6300000D03*
G54D22*
G01X-4352000Y1120000D02*
X-3287000D01*
X-3117400Y1289600D01*
Y1880000D01*
X-3122400Y1885000D01*
X-3217000D01*
G01X-4262000Y2095000D02*
X-3580000D01*
X-3485000Y2190000D01*
X-3342000D01*
G01X-1627000Y5190000D02*
X-1997000Y5560000D01*
X-2819990D01*
X-2884990Y5495000D01*
X-3892000D01*
X-3917000Y5520000D01*
G01X-3176600Y1800000D02*
Y1340400D01*
X-3322000Y1195000D01*
X-3892000D01*
G01X-3830000Y4420000D02*
Y4113010D01*
X-3406990Y3690000D01*
X-2170000D01*
X-1895000Y3415000D01*
Y3304300D01*
X-1842000Y3251300D01*
G01X-1760800Y3335000D02*
X-1837000Y3411200D01*
Y3847000D01*
X-1950200Y3960200D01*
X-3542190D01*
X-3720000Y4138010D01*
Y4420000D01*
X-3830000Y4530000D01*
G01X-3677000Y5060000D02*
X-3165700D01*
X-3032680Y4926980D01*
X-2947320D01*
X-2831800Y5042500D01*
X-2547010D01*
X-2424710Y4920200D01*
X-2318630D01*
X-2258010Y4980820D01*
Y5041300D01*
G01X-1652000Y4855000D02*
X-1803890D01*
X-2012100Y4646790D01*
Y4623010D01*
X-2335410Y4299700D01*
X-3180600D01*
X-3225800Y4254500D01*
G01X-2070000Y4647000D02*
X-2137010D01*
X-2310010Y4820000D01*
X-3240000D01*
G01X-1757000Y5160000D02*
X-1872450Y5044550D01*
X-2161290D01*
X-2260920Y5144180D01*
X-3022340D01*
X-3061520Y5105000D01*
X-3122000D01*
G01X-2962000Y1645000D02*
X-2575000D01*
X-2470000Y1540000D01*
X-1060000D01*
X-1000000Y1480000D01*
G01X-3048500Y1603500D02*
Y1543020D01*
X-2865480Y1360000D01*
X-1130500D01*
G01X-2672000Y1910000D02*
X-2513500Y1751500D01*
X-1234500D01*
X-710000Y2276000D01*
G01X-2582000Y1915000D02*
X-2459100Y1792100D01*
X-1267050D01*
X-897000Y2162150D01*
Y2343000D01*
X-710000Y2530000D01*
G01X-2122000Y1645000D02*
X-802000D01*
X-436500Y2010500D01*
X-55500D01*
G01X-1000000Y1480000D02*
X-799990D01*
X-459990Y1820000D01*
X389000D01*
X452500Y1883500D01*
G01X-1130500Y1360000D02*
X-790010D01*
X-393510Y1756500D01*
X452500D01*
G01X-1197000Y4125000D02*
X-909100Y3837100D01*
X149900D01*
X325500Y3661500D01*
G01X-655360Y3273360D02*
X-822900Y3105820D01*
Y2642900D01*
X-710000Y2530000D01*
G01X-632000Y3395000D02*
X-570000Y3333000D01*
Y2416000D01*
X-710000Y2276000D01*
G01X-570000Y3490000D02*
X-525500Y3534500D01*
X325500D01*
G01X-795000Y4630000D02*
X-208680Y4043680D01*
X327660D01*
G54D13*
X-5547000Y1540000D03*
Y1745000D03*
X-5737000Y1630000D03*
X-4300000Y1810000D03*
X-4510000D03*
X-3997000Y1805000D03*
G54D14*
X-4132000Y1265000D03*
X-3567000Y3230000D03*
G54D15*
X-3810000Y3835600D03*
Y5260600D03*
X-3340000Y3835600D03*
Y5260600D03*
X-2840000Y3835600D03*
Y5260600D03*
X-2380000Y4068100D03*
Y4548100D03*
Y5028100D03*
G54D16*
X-3966000Y3580000D03*
X-3712000D03*
X-3458000D03*
X-3010000Y3190000D03*
X-3264000D03*
X-2756000D03*
X-1531000Y-110000D03*
X-1412000Y481000D03*
Y735000D03*
Y989000D03*
X-1023000Y-110000D03*
X-1277000D03*
X-769000D03*
X-710000Y2530000D03*
Y2276000D03*
Y2784000D03*
Y3696000D03*
Y3950000D03*
Y4204000D03*
G54D17*
X-3090000Y3835600D03*
G54D18*
X-2990000Y4070000D03*
Y5030000D03*
X-106500Y434500D03*
X198500Y5872500D03*
G54D19*
G01X592200Y-174500D02*
X598200Y-183830D01*
X606200Y-189170D01*
X615200Y-190500D01*
X623200Y-189170D01*
X631200Y-182500D01*
X636200Y-174500D01*
X637200Y-166500D01*
X635200Y-157170D01*
X628200Y-150500D01*
X621200Y-147830D01*
X612200D01*
G01X621200D02*
X627200Y-143830D01*
X632200Y-137170D01*
X634200Y-129170D01*
X632200Y-121170D01*
X627200Y-114500D01*
X618200Y-110500D01*
X609200Y-111830D01*
X600200Y-117170D01*
M02*
