G04 ================== begin FILE IDENTIFICATION RECORD ==================*
G04 Layout Name:  pc069a_toplevel_13.brd*
G04 Film Name:    art_SOLDERMASK_BOTTOM_pc069a*
G04 File Format:  Gerber RS274X*
G04 File Origin:  Cadence Allegro 17.4-S026*
G04 Origin Date:  Thu Jun 30 14:02:14 2022*
G04 *
G04 Layer:  VIA CLASS/SOLDERMASK_BOTTOM*
G04 Layer:  PIN/SOLDERMASK_BOTTOM*
G04 Layer:  PACKAGE GEOMETRY/SOLDERMASK_BOTTOM*
G04 Layer:  BOARD GEOMETRY/SOLDERMASK_BOTTOM*
G04 *
G04 Offset:    (0.0000 0.0000)*
G04 Mirror:    No*
G04 Mode:      Positive*
G04 Rotation:  0*
G04 FullContactRelief:  No*
G04 UndefLineWidth:     0.2540*
G04 ================== end FILE IDENTIFICATION RECORD ====================*
%FSLAX25Y25*MOMM*%
%IR0*IPPOS*OFA0.00000B0.00000*MIA0B0*SFA1.00000B1.00000*%
%ADD39R,.4X1.*%
%ADD26R,2.X.5*%
%ADD20R,.9X1.*%
%ADD14R,1.X.9*%
%ADD37R,.6X1.6*%
%ADD36R,1.5X.45*%
%ADD40C,.64*%
%AMMACRO38*
21,1,.6,.6,0.0,0.0,45.*%
%ADD38MACRO38*%
%ADD12R,.6X.6*%
%ADD24R,1.778X.381*%
%ADD29R,.889X1.905*%
%ADD30R,2.159X.889*%
%ADD31R,.889X2.286*%
%ADD16R,1.2X1.4*%
%ADD28C,1.*%
%ADD18R,.3X.8*%
%ADD17R,.8X.3*%
%ADD13C,1.2*%
%ADD22C,1.6*%
%ADD23C,1.7*%
%ADD11C,3.302*%
%ADD15R,1.55X1.65*%
%ADD33R,.25X.85*%
%ADD34R,.85X.25*%
%ADD27C,1.524*%
%ADD10C,1.75*%
%ADD32R,1.6X1.6*%
%ADD19R,5.3X5.3*%
%ADD21C,1.397*%
%ADD25R,.7112X.2286*%
%ADD35R,.508X.889*%
G75*
%LPD*%
G75*
G36*
G01X340000Y-70000D02*
Y-230000D01*
X1020000D01*
Y-70000D01*
X340000D01*
G37*
G54D10*
X-6090000Y3835600D03*
Y4693600D03*
X-5590000Y5260600D03*
X-5090000Y3835600D03*
X-4590000Y5260600D03*
X-4090000Y3835600D03*
Y4403600D03*
Y4943600D03*
X-3590000Y5260600D03*
X-2590000D03*
G54D11*
X-5460000Y380000D03*
X-5475000Y6050000D03*
X0Y0D03*
Y6300000D03*
G54D20*
X-4415000Y5910000D03*
X-4265000D03*
X-3435000Y1530000D03*
X-3285000D03*
X-3175000Y5650000D03*
Y6230000D03*
X-3025000Y5650000D03*
Y6230000D03*
X-2305000Y2580000D03*
X-2455000D03*
X-2165000D03*
X-2015000D03*
G54D21*
X-4132000Y1265000D03*
X-3567000Y3230000D03*
G54D30*
X-2410000Y5886000D03*
Y5759000D03*
Y6140000D03*
Y6013000D03*
X-1840000Y5759000D03*
Y5886000D03*
Y6013000D03*
Y6140000D03*
G54D12*
X-5710000Y1325000D03*
X-5860000Y1315000D03*
X-5710000Y1415000D03*
X-5860000Y1405000D03*
X-5510000Y1225000D03*
Y1315000D03*
X-4735000Y1990000D03*
X-5082000Y2195000D03*
X-4992000D03*
X-5072000Y2395000D03*
X-4982000D03*
X-5007000Y2510000D03*
X-5097000D03*
X-5032000Y2895000D03*
X-5122000D03*
X-5022000Y2730000D03*
X-5112000D03*
X-5007000Y3090000D03*
X-5097000D03*
X-4750000Y3395000D03*
X-4785000Y3265000D03*
X-4875000D03*
X-4740000Y3660000D03*
X-4830000D03*
X-4750000Y3485000D03*
X-4300000Y1665000D03*
Y1575000D03*
X-4510000Y1665000D03*
Y1575000D03*
X-4637000Y1570000D03*
Y1660000D03*
X-4432000Y1995000D03*
X-4342000D03*
X-4645000Y1990000D03*
X-4620000Y3285000D03*
Y3375000D03*
X-4362000Y3280000D03*
Y3370000D03*
X-4432000Y3620000D03*
Y3530000D03*
X-4050000Y1645000D03*
Y1555000D03*
X-4160000Y1645000D03*
Y1555000D03*
X-3995000Y2010000D03*
X-4085000D03*
X-4117000Y3280000D03*
Y3370000D03*
X-4242000Y3280000D03*
Y3370000D03*
X-3712000Y1590000D03*
X-3622000D03*
X-3762000Y2485000D03*
X-3672000D03*
X-3775000Y2310000D03*
X-3685000D03*
X-3775000Y2210000D03*
X-3685000D03*
X-3467000Y2275000D03*
Y2185000D03*
X-3722000Y2595000D03*
Y2685000D03*
X-3817000Y2795000D03*
X-3727000D03*
X-3260000Y3365000D03*
Y3455000D03*
X-3010000Y3365000D03*
Y3455000D03*
X-2460000Y2385000D03*
Y2295000D03*
X-2300000Y2385000D03*
Y2295000D03*
X-2570000Y2955000D03*
Y3045000D03*
X-2415000Y3540000D03*
X-2505000D03*
X-2310000Y3635000D03*
Y3545000D03*
X-2210000Y5125000D03*
Y5215000D03*
X-2170000Y2385000D03*
Y2295000D03*
X-2010000Y2385000D03*
Y2295000D03*
X-1860000Y2845000D03*
Y2935000D03*
X-1840000Y3410000D03*
Y3160000D03*
Y3070000D03*
X-2075000Y3540000D03*
X-1985000D03*
X-1840000Y3500000D03*
X-2180000Y3635000D03*
Y3545000D03*
X-2127000Y4430000D03*
Y4520000D03*
X-1910000Y5125000D03*
Y5215000D03*
X-2060000Y5125000D03*
Y5215000D03*
X-1695000Y3015000D03*
X-1605000D03*
X-1395000Y4350000D03*
X-1485000D03*
X-1395000Y4470000D03*
X-1485000D03*
X-1575000Y5775000D03*
Y5865000D03*
X-1565000Y6120000D03*
Y6030000D03*
X-960000Y2445000D03*
Y2535000D03*
Y2735000D03*
Y2645000D03*
Y5740000D03*
Y5830000D03*
X-1060000Y5740000D03*
Y5830000D03*
X-960000Y6325000D03*
X-1060000D03*
X-960000Y6415000D03*
X-1060000D03*
X-904100Y3416000D03*
Y3326000D03*
Y3122800D03*
Y3212800D03*
X-765000Y5825000D03*
X-855000D03*
X-765000Y6410000D03*
X-855000D03*
X-500000Y6230000D03*
Y6140000D03*
G54D22*
X-3810000Y3835600D03*
Y5260600D03*
X-3340000Y3835600D03*
Y5260600D03*
X-2840000Y3835600D03*
Y5260600D03*
X-2380000Y4068100D03*
Y4548100D03*
Y5028100D03*
G54D13*
X-5547000Y1540000D03*
Y1745000D03*
X-5737000Y1630000D03*
X-4300000Y1810000D03*
X-4510000D03*
X-3997000Y1805000D03*
G54D31*
X-2050000Y2780000D03*
G54D40*
X-373000Y677000D03*
Y804000D03*
X-246000Y677000D03*
Y804000D03*
X-119000Y677000D03*
Y804000D03*
X-373000Y931000D03*
Y1058000D03*
Y1185000D03*
Y1312000D03*
X-246000Y931000D03*
Y1058000D03*
Y1185000D03*
Y1312000D03*
X-119000Y931000D03*
Y1058000D03*
Y1185000D03*
Y1312000D03*
X-373000Y1439000D03*
Y1566000D03*
Y1693000D03*
X-246000Y1439000D03*
Y1566000D03*
Y1693000D03*
X-119000Y1439000D03*
Y1566000D03*
Y1693000D03*
X-373000Y1820000D03*
Y1947000D03*
Y2074000D03*
X-246000Y1820000D03*
Y1947000D03*
Y2074000D03*
X-119000Y1820000D03*
Y1947000D03*
Y2074000D03*
X-373000Y2201000D03*
Y2328000D03*
Y2455000D03*
Y2582000D03*
X-246000Y2201000D03*
Y2328000D03*
Y2455000D03*
Y2582000D03*
X-119000Y2201000D03*
Y2328000D03*
Y2455000D03*
Y2582000D03*
X-373000Y2709000D03*
Y2836000D03*
Y2963000D03*
X-246000Y2709000D03*
Y2836000D03*
Y2963000D03*
X-119000Y2709000D03*
Y2836000D03*
Y2963000D03*
X-373000Y3090000D03*
Y3217000D03*
Y3344000D03*
X-246000Y3090000D03*
Y3217000D03*
Y3344000D03*
X-119000Y3090000D03*
Y3217000D03*
Y3344000D03*
X-373000Y3471000D03*
Y3598000D03*
Y3725000D03*
X-246000Y3471000D03*
Y3598000D03*
Y3725000D03*
X-119000Y3471000D03*
Y3598000D03*
Y3725000D03*
X-373000Y3852000D03*
Y3979000D03*
Y4106000D03*
Y4233000D03*
X-246000Y3852000D03*
Y3979000D03*
Y4106000D03*
Y4233000D03*
X-119000Y3852000D03*
Y3979000D03*
Y4106000D03*
Y4233000D03*
X-373000Y4360000D03*
Y4487000D03*
Y4614000D03*
X-246000Y4360000D03*
Y4487000D03*
Y4614000D03*
X-119000Y4360000D03*
Y4487000D03*
Y4614000D03*
X-373000Y4741000D03*
Y4868000D03*
Y4995000D03*
X-246000Y4741000D03*
Y4868000D03*
Y4995000D03*
X-119000Y4741000D03*
Y4868000D03*
Y4995000D03*
X-373000Y5122000D03*
Y5376000D03*
Y5503000D03*
X-246000Y5122000D03*
Y5249000D03*
Y5376000D03*
Y5503000D03*
X-119000Y5122000D03*
Y5249000D03*
Y5376000D03*
Y5503000D03*
X-373000Y5630000D03*
X-246000D03*
X-119000D03*
X8000Y677000D03*
Y804000D03*
X135000Y677000D03*
Y804000D03*
X262000Y677000D03*
Y804000D03*
X8000Y931000D03*
Y1058000D03*
Y1185000D03*
Y1312000D03*
X135000Y931000D03*
Y1058000D03*
Y1185000D03*
Y1312000D03*
X262000Y931000D03*
Y1058000D03*
Y1185000D03*
Y1312000D03*
X8000Y1439000D03*
Y1566000D03*
Y1693000D03*
X135000Y1439000D03*
Y1566000D03*
Y1693000D03*
X262000Y1439000D03*
Y1566000D03*
Y1693000D03*
X8000Y1820000D03*
Y1947000D03*
Y2074000D03*
X135000Y1820000D03*
Y1947000D03*
Y2074000D03*
X262000Y1820000D03*
Y1947000D03*
Y2074000D03*
X8000Y2201000D03*
Y2328000D03*
Y2455000D03*
Y2582000D03*
X135000Y2201000D03*
Y2328000D03*
Y2455000D03*
Y2582000D03*
X262000Y2201000D03*
Y2328000D03*
Y2455000D03*
Y2582000D03*
X8000Y2709000D03*
Y2836000D03*
Y2963000D03*
X135000Y2709000D03*
Y2836000D03*
Y2963000D03*
X262000Y2709000D03*
Y2836000D03*
Y2963000D03*
X8000Y3090000D03*
Y3217000D03*
Y3344000D03*
X135000Y3090000D03*
Y3217000D03*
Y3344000D03*
X262000Y3090000D03*
Y3217000D03*
Y3344000D03*
X8000Y3471000D03*
Y3598000D03*
Y3725000D03*
X135000Y3471000D03*
Y3598000D03*
Y3725000D03*
X262000Y3471000D03*
Y3598000D03*
Y3725000D03*
X8000Y3852000D03*
Y3979000D03*
Y4106000D03*
Y4233000D03*
X135000Y3852000D03*
Y3979000D03*
Y4106000D03*
Y4233000D03*
X262000Y3852000D03*
Y3979000D03*
Y4106000D03*
Y4233000D03*
X8000Y4360000D03*
Y4487000D03*
Y4614000D03*
X135000Y4360000D03*
Y4487000D03*
Y4614000D03*
X262000Y4360000D03*
Y4487000D03*
Y4614000D03*
X8000Y4741000D03*
Y4868000D03*
Y4995000D03*
X135000Y4741000D03*
Y4868000D03*
Y4995000D03*
X262000Y4741000D03*
Y4868000D03*
Y4995000D03*
X8000Y5122000D03*
Y5249000D03*
Y5376000D03*
Y5503000D03*
X135000Y5122000D03*
Y5249000D03*
Y5376000D03*
Y5503000D03*
X262000Y5122000D03*
Y5249000D03*
Y5376000D03*
Y5503000D03*
X8000Y5630000D03*
X135000D03*
X262000D03*
X389000Y677000D03*
Y804000D03*
X516000Y677000D03*
Y804000D03*
X643000Y677000D03*
Y804000D03*
X389000Y931000D03*
Y1058000D03*
Y1185000D03*
Y1312000D03*
X516000Y931000D03*
Y1058000D03*
Y1185000D03*
Y1312000D03*
X643000Y931000D03*
Y1058000D03*
Y1185000D03*
Y1312000D03*
X389000Y1439000D03*
Y1566000D03*
Y1693000D03*
X516000Y1439000D03*
Y1566000D03*
Y1693000D03*
X643000Y1439000D03*
Y1566000D03*
Y1693000D03*
X389000Y1820000D03*
Y1947000D03*
Y2074000D03*
X516000Y1820000D03*
Y1947000D03*
Y2074000D03*
X643000Y1820000D03*
Y1947000D03*
Y2074000D03*
X389000Y2201000D03*
Y2328000D03*
Y2455000D03*
Y2582000D03*
X516000Y2201000D03*
Y2328000D03*
Y2455000D03*
Y2582000D03*
X643000Y2201000D03*
Y2328000D03*
Y2455000D03*
Y2582000D03*
X389000Y2709000D03*
Y2836000D03*
Y2963000D03*
X516000Y2709000D03*
Y2836000D03*
Y2963000D03*
X643000Y2709000D03*
Y2836000D03*
Y2963000D03*
X389000Y3090000D03*
Y3217000D03*
Y3344000D03*
X516000Y3090000D03*
Y3217000D03*
Y3344000D03*
X643000Y3090000D03*
Y3217000D03*
Y3344000D03*
X389000Y3471000D03*
Y3598000D03*
Y3725000D03*
X516000Y3471000D03*
Y3598000D03*
Y3725000D03*
X643000Y3471000D03*
Y3598000D03*
Y3725000D03*
X389000Y3852000D03*
Y3979000D03*
Y4106000D03*
Y4233000D03*
X516000Y3852000D03*
Y3979000D03*
Y4106000D03*
Y4233000D03*
X643000Y3852000D03*
Y3979000D03*
Y4106000D03*
Y4233000D03*
X389000Y4360000D03*
Y4487000D03*
Y4614000D03*
X516000Y4360000D03*
Y4487000D03*
Y4614000D03*
X643000Y4360000D03*
Y4487000D03*
Y4614000D03*
X389000Y4741000D03*
Y4868000D03*
Y4995000D03*
X516000Y4741000D03*
Y4868000D03*
Y4995000D03*
X643000Y4741000D03*
Y4868000D03*
Y4995000D03*
X389000Y5122000D03*
Y5249000D03*
Y5376000D03*
Y5503000D03*
X516000Y5122000D03*
Y5249000D03*
Y5376000D03*
Y5503000D03*
X643000Y5122000D03*
Y5249000D03*
Y5376000D03*
Y5503000D03*
X389000Y5630000D03*
X516000D03*
X643000D03*
X770000Y677000D03*
Y804000D03*
Y931000D03*
Y1058000D03*
Y1185000D03*
Y1312000D03*
Y1439000D03*
Y1566000D03*
Y1693000D03*
Y1820000D03*
Y1947000D03*
Y2074000D03*
Y2201000D03*
Y2328000D03*
Y2455000D03*
Y2582000D03*
Y2709000D03*
Y2836000D03*
Y2963000D03*
Y3090000D03*
Y3217000D03*
Y3344000D03*
Y3471000D03*
Y3598000D03*
Y3725000D03*
Y3852000D03*
Y3979000D03*
Y4106000D03*
Y4233000D03*
Y4360000D03*
Y4487000D03*
Y4614000D03*
Y4741000D03*
Y4868000D03*
Y4995000D03*
Y5122000D03*
Y5249000D03*
Y5376000D03*
Y5503000D03*
Y5630000D03*
G54D32*
X-1810000Y4480000D03*
G54D23*
X-3966000Y3580000D03*
X-3712000D03*
X-3458000D03*
X-3010000Y3190000D03*
X-3264000D03*
X-2756000D03*
X-1531000Y-110000D03*
X-1412000Y481000D03*
Y735000D03*
Y989000D03*
X-1023000Y-110000D03*
X-1277000D03*
X-769000D03*
X-710000Y2530000D03*
Y2276000D03*
Y2784000D03*
Y3696000D03*
Y3950000D03*
Y4204000D03*
G54D14*
X-5525000Y910000D03*
Y1060000D03*
G54D33*
X-1885000Y4335000D03*
X-1835000D03*
Y4625000D03*
X-1885000D03*
X-1785000Y4335000D03*
X-1735000D03*
Y4625000D03*
X-1785000D03*
G54D15*
X-5294000Y930000D03*
Y1370000D03*
X-5040000Y930000D03*
X-4786000D03*
Y1370000D03*
X-5040000D03*
G54D24*
X-3994000Y5910000D03*
Y5845000D03*
Y5780000D03*
Y5715000D03*
Y5650000D03*
Y6040000D03*
Y5975000D03*
X-3400000Y5650000D03*
Y5715000D03*
Y5780000D03*
Y5845000D03*
Y5910000D03*
Y5975000D03*
Y6040000D03*
X-1439200Y5056500D03*
Y4991500D03*
Y4926500D03*
Y4861500D03*
Y4796500D03*
Y4731500D03*
Y5186500D03*
Y5121500D03*
X-845200Y4731500D03*
Y4796500D03*
Y4861500D03*
Y4926500D03*
Y4991500D03*
Y5056500D03*
Y5186500D03*
Y5121500D03*
G54D25*
X-3787010Y1704990D03*
X-3626990D03*
X-3787010Y1805010D03*
Y1755000D03*
X-3626990D03*
Y1805010D03*
G54D34*
X-1955000Y4555000D03*
Y4505000D03*
Y4455000D03*
Y4405000D03*
X-1665000D03*
Y4455000D03*
Y4505000D03*
Y4555000D03*
G54D16*
X-5190000Y3530000D03*
X-5010000D03*
G54D35*
X-2070000Y5028000D03*
X-2135000D03*
X-2200000D03*
Y4850000D03*
X-2135000D03*
X-2070000D03*
G54D17*
X-4837000Y2535000D03*
Y2485000D03*
Y2435000D03*
Y2385000D03*
Y2335000D03*
Y2285000D03*
Y2985000D03*
Y2935000D03*
Y2885000D03*
Y2835000D03*
Y2785000D03*
Y2735000D03*
Y2685000D03*
Y2635000D03*
Y2585000D03*
Y3035000D03*
X-3937000Y2285000D03*
Y2335000D03*
Y2385000D03*
Y2435000D03*
Y2485000D03*
Y2535000D03*
Y2585000D03*
Y2635000D03*
Y2685000D03*
Y2735000D03*
Y2785000D03*
Y2835000D03*
Y2885000D03*
Y2935000D03*
Y2985000D03*
Y3035000D03*
G54D26*
X-3400000Y4210000D03*
Y4610000D03*
Y4530000D03*
Y4450000D03*
Y4370000D03*
Y4290000D03*
Y4930000D03*
Y4850000D03*
Y4770000D03*
Y4690000D03*
X-2580000Y4250000D03*
Y4170000D03*
Y4330000D03*
Y4410000D03*
Y4490000D03*
Y4570000D03*
Y4650000D03*
Y4730000D03*
Y4810000D03*
Y4890000D03*
G54D27*
X-3090000Y3835600D03*
G54D18*
X-4762000Y2210000D03*
Y3110000D03*
X-4712000Y2210000D03*
X-4662000D03*
X-4612000D03*
X-4562000D03*
X-4512000D03*
X-4462000D03*
X-4412000D03*
X-4362000D03*
Y3110000D03*
X-4412000D03*
X-4462000D03*
X-4512000D03*
X-4562000D03*
X-4612000D03*
X-4662000D03*
X-4712000D03*
X-4312000Y2210000D03*
X-4262000D03*
X-4212000D03*
X-4162000D03*
X-4112000D03*
X-4062000D03*
X-4012000D03*
Y3110000D03*
X-4062000D03*
X-4112000D03*
X-4162000D03*
X-4212000D03*
X-4262000D03*
X-4312000D03*
G54D36*
X-1538500Y3381300D03*
Y3316300D03*
Y3251300D03*
Y3186300D03*
X-1098500D03*
Y3251300D03*
Y3316300D03*
Y3381300D03*
G54D19*
X-4387000Y2660000D03*
G54D28*
X-2990000Y4070000D03*
Y5030000D03*
X-106500Y434500D03*
X198500Y5872500D03*
G54D37*
X-1130500Y705000D03*
X-1003500D03*
Y1235000D03*
X-1130500D03*
X-876500Y705000D03*
X-749500D03*
Y1235000D03*
X-876500D03*
G54D29*
X-2431000Y2780000D03*
X-2304000D03*
X-2177000D03*
X-2431000Y3340000D03*
X-2304000D03*
X-2177000D03*
X-2050000D03*
G54D38*
X-1018180Y2213180D03*
X-1081820Y2276820D03*
G54D39*
X-835000Y5510000D03*
X-770000D03*
X-705000D03*
Y5720000D03*
X-770000D03*
X-835000D03*
X-705000Y6305000D03*
X-770000D03*
X-835000D03*
Y6095000D03*
X-770000D03*
X-705000D03*
M02*
