G04 ================== begin FILE IDENTIFICATION RECORD ==================*
G04 Layout Name:  pc053e_toplevel_65.brd*
G04 Film Name:    art_L2_GND_cpy_pc053e*
G04 File Format:  Gerber RS274X*
G04 File Origin:  Cadence Allegro 17.4-S012*
G04 Origin Date:  Fri Apr 16 13:56:29 2021*
G04 *
G04 Layer:  VIA CLASS/LAYER_1*
G04 Layer:  PIN/LAYER_1*
G04 Layer:  ETCH/LAYER_1*
G04 *
G04 Offset:    (-315.1182 -288.1259)*
G04 Mirror:    No*
G04 Mode:      Positive*
G04 Rotation:  0*
G04 FullContactRelief:  No*
G04 UndefLineWidth:     0.2540*
G04 ================== end FILE IDENTIFICATION RECORD ====================*
%FSLAX25Y25*MOMM*%
%IR0*IPPOS*OFA-315.11820B-288.12590*MIA0B0*SFA1.00000B1.00000*%
%ADD11C,.6*%
%ADD12O,3.2X1.4*%
%ADD10O,2.6X1.4*%
%ADD17C,1.*%
%ADD16C,1.6*%
%ADD15C,1.7*%
%ADD14C,3.302*%
%ADD18C,1.524*%
%ADD13C,1.75*%
%ADD19C,1.397*%
%ADD20C,.4*%
%ADD23C,.8544*%
%ADD26C,2.0044*%
%ADD29C,1.6514*%
%ADD28C,1.7068*%
%ADD27C,1.8544*%
%ADD24C,1.8068*%
%ADD22C,1.9544*%
%ADD21C,3.5564*%
%ADD25C,1.7784*%
G75*
%LPD*%
G75*
G36*
G01X-581580Y6536490D02*
X1026490D01*
Y-63500D01*
X330200D01*
Y-236490D01*
X-4276490D01*
Y-140000D01*
G03X-4413800Y21400I-163513J0D01*
G02X-4416300Y40710I1630J10028D01*
G03X-4358280Y130000I-39697J89290D01*
G03X-4553720I-97720J0D01*
G03X-4499990Y42740I97722J0D01*
G02X-4504560Y23510I-4575J-9071D01*
G01X-4661440D01*
G02X-4666010Y42740I5J10159D01*
G03X-4612280Y130000I-43992J87260D01*
G03X-4807720I-97720J0D01*
G03X-4753990Y42740I97722J0D01*
G02X-4758560Y23510I-4575J-9071D01*
G01X-4915440D01*
G02X-4920010Y42740I5J10159D01*
G03X-4866280Y130000I-43992J87260D01*
G03X-5061720I-97720J0D01*
G03X-5007990Y42740I97722J0D01*
G02X-5012560Y23510I-4575J-9071D01*
G01X-5346490D01*
Y70000D01*
G03X-5404400Y194840I-163517J0D01*
G02X-5401200Y212180I6561J7754D01*
G03X-5282180Y380000I-58804J167820D01*
G03X-5637820I-177820J0D01*
G03X-5582430Y251040I177819J0D01*
G02X-5589420Y233510I-6993J-7370D01*
G01X-6496490D01*
Y1445080D01*
G02X-6481150Y1453830I10161J7D01*
G03X-6439000Y1442280I42159J71168D01*
G01X-6319000D01*
G03Y1607720I0J82720D01*
G01X-6439000D01*
G03X-6481150Y1596170I9J-82718D01*
G02X-6496490Y1604920I-5179J8743D01*
G01Y2895080D01*
G02X-6481150Y2903830I10161J7D01*
G03X-6439000Y2892280I42159J71168D01*
G01X-6319000D01*
G03Y3057720I0J82720D01*
G01X-6439000D01*
G03X-6481150Y3046170I9J-82718D01*
G02X-6496490Y3054920I-5179J8743D01*
G01Y6206490D01*
X-5593000D01*
G02X-5586620Y6188420I2J-10160D01*
G03X-5652820Y6050000I111614J-138420D01*
G03X-5297180I177820J0D01*
G03X-5363380Y6188420I-177814J0D01*
G02X-5357000Y6206490I6378J7910D01*
G01X-3950000D01*
G03X-3786490Y6370000I0J163510D01*
G01Y6536490D01*
X-658420D01*
G02X-651040Y6519350I-3J-10160D01*
G03X-662720Y6490000I31036J-29350D01*
G03X-647940Y6457690I42718J5D01*
G02Y6442310I-6647J-7690D01*
G03X-662720Y6410000I27938J-32315D01*
G03X-577280I42720J0D01*
G03X-592060Y6442310I-42718J-5D01*
G02Y6457690I6647J7690D01*
G03X-577280Y6490000I-27938J32315D01*
G03X-588960Y6519350I-42716J0D01*
G02X-581580Y6536490I7383J6980D01*
G37*
%LPC*%
G75*
G36*
G01X-5872000Y1607720D02*
X-5692000D01*
G02Y1442280I0J-82720D01*
G01X-5872000D01*
G02Y1607720I0J82720D01*
G37*
G36*
G01Y3057720D02*
X-5692000D01*
G02Y2892280I0J-82720D01*
G01X-5872000D01*
G02Y3057720I0J82720D01*
G37*
G36*
G01X-3280140Y702720D02*
G03X-3270020Y712840I-39J10159D01*
G02X-3227300Y755420I42720J-140D01*
G02Y669980I0J-42720D01*
G02X-3231930Y670230I-15J42721D01*
G03X-3237530Y664630I-552J-5048D01*
G02X-3237300Y661440I-42466J-4665D01*
G03X-3230930Y656700I5075J170D01*
G02X-3220000Y658120I10923J-41301D01*
G02Y572680I0J-42720D01*
G02X-3262260Y609160I0J42718D01*
G03X-3273790Y617730I-10051J-1481D01*
G02X-3280000Y617280I-6184J42272D01*
G02X-3322720Y660000I0J42720D01*
G02X-3280140Y702720I42720J0D01*
G37*
G36*
G01X-2923670Y787350D02*
G03X-2938490Y793090I-9697J-3034D01*
G02X-2960000Y787280I-21510J36913D01*
G02Y872720I0J42720D01*
G02X-2919230Y842750I0J-42716D01*
G03X-2904410Y837010I9697J3034D01*
G02X-2882900Y842820I21510J-36913D01*
G02Y757380I0J-42720D01*
G02X-2923670Y787350I0J42716D01*
G37*
G36*
G01X-4205300Y2644670D02*
G03X-4210490Y2657640I-9446J3744D01*
G02X-4235290Y2696420I17920J38780D01*
G02X-4149850I42720J0D01*
G02X-4152870Y2680650I-42719J7D01*
G03X-4147680Y2667680I9446J-3744D01*
G02X-4122880Y2628900I-17920J-38780D01*
G02X-4208320I-42720J0D01*
G02X-4205300Y2644670I42719J-7D01*
G37*
G36*
G01X-1966370Y3543580D02*
G03X-1967780Y3557540I-8013J6242D01*
G02X-1982720Y3590000I27793J32460D01*
G02X-1897280I42720J0D01*
G02X-1906300Y3563740I-42722J-5D01*
G03X-1904890Y3549780I8013J-6242D01*
G02X-1889950Y3517320I-27793J-32460D01*
G02X-1975390I-42720J0D01*
G02X-1966370Y3543580I42722J5D01*
G37*
G36*
G01X-1848260Y3902040D02*
G03X-1848420Y3917410I-6723J7616D01*
G02X-1863520Y3950000I27619J32590D01*
G02X-1778080I42720J0D01*
G02X-1792540Y3917960I-42727J0D01*
G03X-1792380Y3902590I6723J-7616D01*
G02X-1777280Y3870000I-27619J-32590D01*
G02X-1862720I-42720J0D01*
G02X-1848260Y3902040I42727J0D01*
G37*
G36*
G01X-1181030Y4825870D02*
G03Y4839830I-7375J6980D01*
G02X-1192720Y4869200I31033J29363D01*
G02X-1107280I42720J0D01*
G02X-1118970Y4839830I-42723J-7D01*
G03Y4825870I7375J-6980D01*
G02X-1107280Y4796500I-31033J-29363D01*
G02X-1192720I-42720J0D01*
G02X-1181030Y4825870I42723J7D01*
G37*
G36*
G01X-1266570Y4987290D02*
G03X-1265610Y5001700I-6648J7680D01*
G02X-1276320Y5030000I32013J28292D01*
G02X-1190880I42720J0D01*
G02X-1205630Y4997710I-42719J0D01*
G03X-1206590Y4983300I6648J-7680D01*
G02X-1195880Y4955000I-32013J-28292D01*
G02X-1281320I-42720J0D01*
G02X-1266570Y4987290I42719J0D01*
G37*
G36*
G01X-682080Y5034170D02*
G03X-672470Y5045410I-492J10148D01*
G02X-672720Y5050000I42469J4615D01*
G02X-587280I42720J0D01*
G02X-627920Y5007330I-42721J0D01*
G03X-637530Y4996090I492J-10148D01*
G02X-637280Y4991500I-42469J-4615D01*
G02X-722720I-42720J0D01*
G02X-682080Y5034170I42721J0D01*
G37*
G36*
G01X-3456970Y1782910D02*
G02X-3490000Y1767280I-33030J27085D01*
G02Y1852720I0J42720D01*
G02X-3453230Y1831760I0J-42733D01*
G03X-3436630Y1830490I8744J5170D01*
G02X-3403600Y1846120I33030J-27085D01*
G02X-3364030Y1819500I0J-42720D01*
G03X-3349390Y1814620I9411J3833D01*
G02X-3327400Y1820720I21999J-36618D01*
G02Y1735280I0J-42720D01*
G02X-3366970Y1761900I0J42720D01*
G03X-3381610Y1766780I-9411J-3833D01*
G02X-3403600Y1760680I-21999J36618D01*
G02X-3440370Y1781640I0J42733D01*
G03X-3456970Y1782910I-8744J-5170D01*
G37*
G36*
G01X-3208080Y1860640D02*
G02X-3212720Y1880000I38069J19360D01*
G02X-3127280I42720J0D01*
G02X-3165540Y1837510I-42724J0D01*
G03X-3173530Y1822800I1064J-10103D01*
G02X-3168890Y1803440I-38069J-19360D01*
G02X-3254330I-42720J0D01*
G02X-3216070Y1845930I42724J0D01*
G03X-3208080Y1860640I-1064J10103D01*
G37*
G36*
G01X-1634170Y3574030D02*
G03X-1618800Y3577870I6143J8092D01*
G02X-1580000Y3602720I38800J-17866D01*
G02Y3517280I0J-42720D01*
G02X-1605830Y3525970I0J42733D01*
G03X-1621200Y3522130I-6143J-8092D01*
G02X-1660000Y3497280I-38800J17866D01*
G02X-1698370Y3521230I0J42711D01*
G03X-1716630I-9130J-4468D01*
G02X-1755000Y3497280I-38370J18761D01*
G02Y3582720I0J42720D01*
G02X-1716630Y3558770I0J-42711D01*
G03X-1698370I9130J4468D01*
G02X-1660000Y3582720I38370J-18761D01*
G02X-1634170Y3574030I0J-42733D01*
G37*
G36*
G01X-3608990Y3545560D02*
G02X-3644900Y3525980I-35910J23140D01*
G02Y3611420I0J42720D01*
G02X-3608990Y3591840I0J-42720D01*
G03X-3591910I8540J5504D01*
G02X-3556000Y3611420I35910J-23140D01*
G02Y3525980I0J-42720D01*
G02X-3591910Y3545560I0J42720D01*
G03X-3608990I-8540J-5504D01*
G37*
G36*
G01X-706560Y4546540D02*
G02X-722720Y4580000I26560J33460D01*
G02X-637280I42720J0D01*
G02X-645130Y4555320I-42721J0D01*
G03X-643150Y4541490I8293J-5870D01*
G02X-626990Y4508030I-26560J-33460D01*
G02X-669710Y4465310I-42720J0D01*
G02X-706670Y4486600I0J42727D01*
G03X-724010Y4486980I-8786J-5098D01*
G02X-760000Y4467280I-35990J23025D01*
G02Y4552720I0J42720D01*
G02X-723040Y4531430I0J-42727D01*
G03X-705700Y4531050I8786J5098D01*
G02X-704580Y4532710I35964J-23057D01*
G03X-706560Y4546540I-8293J5870D01*
G37*
G36*
G01X-2436140Y4777390D02*
G02X-2455720Y4813300I23140J35910D01*
G02X-2370280I42720J0D01*
G02X-2389860Y4777390I-42720J0D01*
G03Y4760310I5504J-8540D01*
G02X-2370280Y4724400I-23140J-35910D01*
G02X-2455720I-42720J0D01*
G02X-2436140Y4760310I42720J0D01*
G03Y4777390I-5504J8540D01*
G37*
G54D23*
X-55500Y740500D03*
X-1370000Y4585000D03*
X-3590000Y6045200D03*
X-1630000Y2570000D03*
X-2580000Y820000D03*
X-2910000Y5649600D03*
X-680000Y5825000D03*
X325500Y3534500D03*
X-3225800Y4381500D03*
X-4697700Y1405000D03*
X-2260000Y4440000D03*
X-3240000Y4820000D03*
X-4140000Y2957600D03*
X-4658350Y931150D03*
X-3225800Y4254500D03*
X-1972700Y5125000D03*
X-1439200Y4660000D03*
X-3009900Y3644900D03*
X-2910000Y6230000D03*
X325500Y613500D03*
X-780000Y130000D03*
X-3269700Y3168100D03*
X-3550000Y4826000D03*
X-600220Y5665490D03*
X325500Y1629500D03*
X-3859500Y5840500D03*
X-3590000Y5930900D03*
X325500Y1121500D03*
X-3550000Y4381500D03*
X-710000Y5121500D03*
X-2781300Y3644900D03*
X-3550000Y4699000D03*
X-2755900Y800100D03*
X-749500Y900000D03*
X-4501150Y931150D03*
X-1910000Y5297300D03*
X-3009900Y520700D03*
X-4267200Y2895600D03*
X-1000000Y1480000D03*
X-4380000Y2670000D03*
X-3240000Y4572000D03*
X-3540000Y0D03*
X-49000Y3020000D03*
X-3810000Y2430000D03*
X-876500Y900000D03*
X452500Y994500D03*
X-3240000Y4953000D03*
X-53340Y4929340D03*
Y5056340D03*
X-55500Y4169500D03*
X-2391990Y3188610D03*
X-53340Y4676140D03*
X-3018150Y1738160D03*
X-2760000Y3130000D03*
X-55500Y4296500D03*
X325500Y867500D03*
X327660Y4043680D03*
X-1810000Y4115000D03*
X-2959100Y4241800D03*
X-2730000Y1241700D03*
X-3730000Y1683300D03*
X452500Y740500D03*
Y1883500D03*
X-3556000Y3124200D03*
X-870000Y305000D03*
X-53340Y5565140D03*
X-55880Y5440680D03*
X-3040000Y3130000D03*
X-3830000Y4420000D03*
X-2971800Y4419600D03*
X-3550000Y4980000D03*
X453860Y4425660D03*
X580680Y4423880D03*
X325500Y3661500D03*
X-1000000Y4730000D03*
X-55880Y4551680D03*
X-2693150Y1403150D03*
X-182500Y613500D03*
X452500Y1756500D03*
X-770000Y3400000D03*
X-2790000Y1550000D03*
X-2060000Y5297300D03*
X-3240000Y4699000D03*
X-2857500Y190500D03*
X452500Y1248500D03*
X-3550000Y4254500D03*
X-1370000Y4395000D03*
X-2210000Y5297300D03*
X-1700000Y6020000D03*
X329500Y4300500D03*
X-570000Y4930000D03*
X-3830000Y4530000D03*
X-3766100Y1430000D03*
X453000Y4297000D03*
X-820000Y4585000D03*
X-1700000Y6134640D03*
X-1723700Y3996300D03*
X-3543300Y2476500D03*
X-2810000Y2350000D03*
X-4400000Y2965000D03*
X-3149600Y825500D03*
X-2740000Y1070000D03*
X-3550000Y4572000D03*
X-4990000Y1021980D03*
X-2137300Y5102450D03*
X-2004600Y4860000D03*
X-2255400Y4850000D03*
X-1130500Y1360000D03*
X-964100Y4110000D03*
X-2340000Y2562300D03*
X-58800Y2775800D03*
X-2781300Y4584700D03*
X-3746500Y1143000D03*
X-964100Y3650000D03*
X-58000Y2902000D03*
X-3127700Y2700000D03*
X-177800Y4926800D03*
Y4799800D03*
X-4527500Y5910000D03*
X-2892300Y2860000D03*
X-61940Y2503220D03*
X-4150000Y2425700D03*
X-2892300Y2700000D03*
X-3127700Y2860000D03*
X-50800Y2641600D03*
X-2340000Y2797700D03*
X-600220Y6135850D03*
Y5550850D03*
Y6250490D03*
X-2240000Y6140000D03*
X-1700000Y5765360D03*
Y5880000D03*
X-620000Y5900000D03*
X-1060000Y5645000D03*
Y6230000D03*
X-570000Y3490000D03*
X-1092500Y2015000D03*
X-2391990Y3073970D03*
X-46000Y3290000D03*
X-1092500Y1820000D03*
X-4990000Y1136620D03*
X-1290000Y2398020D03*
X-820200Y1825000D03*
X-3470000Y2970000D03*
X-1080000Y2680000D03*
X-488020Y160000D03*
X-2050000Y1920000D03*
X-50000Y3413000D03*
X-4710000Y3031690D03*
X-4390000Y1610000D03*
X-1710000Y4660900D03*
X-1070000Y2445000D03*
X-820000Y3540000D03*
X-50000Y3148000D03*
X-3603380Y5520000D03*
X-3718020D03*
X-5456620Y2932120D03*
X-1730000Y2970000D03*
X-373380Y160000D03*
X-2050000Y2230000D03*
X-4322300Y1405000D03*
X-4380000Y2081980D03*
X-2200000Y3030000D03*
X-4380000Y2196620D03*
X-670000Y3460000D03*
X-4130000Y1850000D03*
X-1290000Y2283380D03*
X-2270000Y2320000D03*
X-178000Y2260000D03*
X-6415000Y3255000D03*
Y1245000D03*
X-1932670Y3402680D03*
X-2740000Y2910000D03*
X-2470000D03*
X-2730000Y2430000D03*
X-2470000D03*
X-2370000Y2350000D03*
X-1610000Y4470000D03*
X-2570000Y1067310D03*
Y958090D03*
X-182500Y2137500D03*
X-4710000Y3140910D03*
X-990000Y4322300D03*
X-1040000Y3996300D03*
X-1330000Y3220000D03*
X-1770000Y1370000D03*
X-5341980Y2932120D03*
X-3598000Y1820000D03*
X-2700000Y1920000D03*
X-640000Y1420000D03*
X-3860000Y880000D03*
X-1267500Y3517500D03*
X-896920Y3890000D03*
X-5000000Y1567320D03*
Y1452680D03*
X-1090000Y1680000D03*
X-1880000Y2320000D03*
X-1010000Y3010000D03*
X-1240000Y2910000D03*
X-1230000Y3220000D03*
X-1600000Y2440000D03*
X-1780000Y2320000D03*
X-1730000Y3170000D03*
X-1427210Y2820000D03*
X-1536430D03*
X-2085000Y2670000D03*
G54D26*
X-4090000Y3835600D03*
X-5090000D03*
X-6090000D03*
X-5590000Y5260600D03*
X-4590000D03*
X-3590000D03*
X-2590000D03*
X-4090000Y4403600D03*
Y4943600D03*
X-6090000Y4693600D03*
G54D29*
X-1850000Y710000D03*
X-2130000D03*
X-2410000D03*
G54D28*
X-106500Y434500D03*
X198500Y5872500D03*
G54D27*
X-3810000Y3835600D03*
Y5260600D03*
X-3340000Y3835600D03*
Y5260600D03*
X-2840000Y3835600D03*
Y5260600D03*
X-2380000Y4068100D03*
Y4548100D03*
Y5028100D03*
G54D24*
X-2990000Y5030000D03*
Y4070000D03*
G54D22*
X-4680000Y2804000D03*
X-4020900Y1387600D03*
X-4680000Y2296000D03*
Y2550000D03*
X-4020900Y1133600D03*
X-710000Y2276000D03*
Y2530000D03*
Y2784000D03*
X-5030000Y2804000D03*
Y2550000D03*
Y2296000D03*
X-4456000Y470000D03*
X-4710000D03*
X-4964000D03*
X-4020900Y1641600D03*
X-3586000Y470000D03*
X-3840000D03*
X-4094000D03*
X-769000Y-110000D03*
X-1023000D03*
X-1277000D03*
X-1531000D03*
X-710000Y3696000D03*
Y3950000D03*
Y4204000D03*
G54D21*
X0Y6300000D03*
Y0D03*
G54D25*
X-3090000Y3835600D03*
%LPD*%
G75*
G54D10*
X-6379000Y1525000D03*
Y2975000D03*
G54D20*
G01X-6090000Y3730300D02*
Y3835600D01*
G01D02*
Y3940900D01*
G01X-6195300Y3835600D02*
X-6090000D01*
G01D02*
X-5984700D01*
G01X-6090000Y4588300D02*
Y4693600D01*
G01D02*
Y4798900D01*
G01X-6195300Y4693600D02*
X-6090000D01*
G01D02*
X-5984700D01*
G01X-5590000Y5155300D02*
Y5260600D01*
G01D02*
Y5365900D01*
G01X-5695300Y5260600D02*
X-5590000D01*
G01D02*
X-5484700D01*
G01X-5132800Y2804000D02*
X-5030000D01*
G01X-5090000Y3730300D02*
Y3835600D01*
G01D02*
Y3940900D01*
G01X-5195300Y3835600D02*
X-5090000D01*
G01D02*
X-4984700D01*
G01X-4964000Y130000D02*
Y232800D01*
G01X-5066800Y130000D02*
X-4964000D01*
G01D02*
X-4861200D01*
G01X-4964000Y367200D02*
Y470000D01*
G01D02*
Y572800D01*
G01X-5066800Y470000D02*
X-4964000D01*
G01D02*
X-4861200D01*
G01X-4680000Y2701200D02*
Y2804000D01*
G01X-5030000Y2701200D02*
Y2804000D01*
G01X-4680000D02*
Y2906800D01*
G01X-4782800Y2804000D02*
X-4680000D01*
G01D02*
X-4577200D01*
G01X-5030000D02*
Y2906800D01*
G01Y2804000D02*
X-4927200D01*
G01X-4695300Y5260600D02*
X-4590000D01*
G01Y5155300D02*
Y5260600D01*
G01D02*
Y5365900D01*
G01Y5260600D02*
X-4484700D01*
G01X-4094000Y367200D02*
Y470000D01*
G01D02*
Y572800D01*
G01X-4196800Y470000D02*
X-4094000D01*
G01D02*
X-3991200D01*
G01X-4020900Y1538800D02*
Y1641600D01*
G01D02*
Y1744400D01*
G01X-4123700Y1641600D02*
X-4020900D01*
G01D02*
X-3918100D01*
G01X-3810000Y3737800D02*
Y3835600D01*
G01D02*
Y3933400D01*
G01X-3907800Y3835600D02*
X-3810000D01*
G01D02*
X-3712200D01*
G01X-4090000Y3730300D02*
Y3835600D01*
G01D02*
Y3940900D01*
G01X-4195300Y3835600D02*
X-4090000D01*
G01D02*
X-3984700D01*
G01X-4090000Y4298300D02*
Y4403600D01*
G01D02*
Y4508900D01*
G01X-4195300Y4403600D02*
X-4090000D01*
G01D02*
X-3984700D01*
G01X-4090000Y4838300D02*
Y4943600D01*
G01X-3810000Y5162800D02*
Y5260600D01*
G01D02*
Y5358400D01*
G01X-3907800Y5260600D02*
X-3810000D01*
G01D02*
X-3712200D01*
G01X-4090000Y4943600D02*
Y5048900D01*
G01X-4195300Y4943600D02*
X-4090000D01*
G01D02*
X-3984700D01*
G01X-3437800Y3835600D02*
X-3340000D01*
G01X-3590000Y5155300D02*
Y5260600D01*
G01D02*
Y5365900D01*
G01X-3695300Y5260600D02*
X-3590000D01*
G01D02*
X-3484700D01*
G01X-3437800D02*
X-3340000D01*
G01Y3737800D02*
Y3835600D01*
G01D02*
Y3933400D01*
G01Y3835600D02*
X-3242200D01*
G01X-3090000Y3741600D02*
Y3835600D01*
G01D02*
Y3929600D01*
G01X-3184000Y3835600D02*
X-3090000D01*
G01D02*
X-2996000D01*
G01X-3340000Y5162800D02*
Y5260600D01*
G01D02*
Y5358400D01*
G01Y5260600D02*
X-3242200D01*
G01X-2840000Y3737800D02*
Y3835600D01*
G01D02*
Y3933400D01*
G01X-2937800Y3835600D02*
X-2840000D01*
G01D02*
X-2742200D01*
G01X-2840000Y5162800D02*
Y5260600D01*
G01D02*
Y5358400D01*
G01X-2937800Y5260600D02*
X-2840000D01*
G01D02*
X-2742200D01*
G01X-2590000Y5155300D02*
Y5260600D01*
G01D02*
Y5365900D01*
G01X-2695300Y5260600D02*
X-2590000D01*
G01D02*
X-2484700D01*
G01X-2380000Y3970300D02*
Y4068100D01*
G01D02*
Y4165900D01*
G01X-2477800Y4068100D02*
X-2380000D01*
G01D02*
X-2282200D01*
G01X-2380000Y4450300D02*
Y4548100D01*
G01D02*
Y4645900D01*
G01X-2477800Y4548100D02*
X-2380000D01*
G01D02*
X-2282200D01*
G01X-2380000Y4930300D02*
Y5028100D01*
G01D02*
Y5125900D01*
G01X-2477800Y5028100D02*
X-2380000D01*
G01D02*
X-2282200D01*
G01X-1531000Y-212800D02*
Y-110000D01*
G01D02*
Y-7200D01*
G01X-1633800Y-110000D02*
X-1531000D01*
G01D02*
X-1428200D01*
G01X-710000Y2681200D02*
Y2784000D01*
G01D02*
Y2886800D01*
G01X-812800Y2784000D02*
X-710000D01*
G01D02*
X-607200D01*
G01X-710000Y4101200D02*
Y4204000D01*
G01D02*
Y4306800D01*
G01X-812800Y4204000D02*
X-710000D01*
G01D02*
X-607200D01*
G54D11*
X-6415000Y1245000D03*
Y3255000D03*
X-6135000Y1245000D03*
Y3255000D03*
X-5880200Y1900000D03*
Y2200000D03*
Y2650000D03*
Y2500000D03*
Y2350000D03*
X-5508030Y2983530D03*
X-5290570D03*
X-5341980Y2932120D03*
X-5456620D03*
X-5060000Y5762500D03*
X-4938590Y970570D03*
X-4658350Y931150D03*
X-4990000Y1021980D03*
X-4697700Y1405000D03*
X-4700000Y1195000D03*
X-4938590Y1188030D03*
X-5051410Y1401270D03*
X-5000000Y1452680D03*
X-4990000Y1136620D03*
X-4650000Y1610000D03*
X-5051410Y1618730D03*
X-5000000Y1567320D03*
X-4639860Y3160040D03*
X-4640000Y2990000D03*
X-4710000Y3140910D03*
Y3031690D03*
X-5050000Y6057500D03*
X-4501150Y931150D03*
X-4322300Y1405000D03*
X-4390000Y1610000D03*
X-4328590Y2030570D03*
Y2248030D03*
X-4380000Y2081980D03*
Y2196620D03*
Y2670000D03*
Y2410000D03*
X-4400000Y2965000D03*
X-4245000Y3125000D03*
X-4267200Y2895600D03*
X-4400000Y3375000D03*
X-4527500Y5910000D03*
X-3860000Y880000D03*
X-4120000D03*
X-4130000Y1850000D03*
X-3870000D03*
X-3920000Y2230000D03*
X-4165600Y2628900D03*
X-3810000Y2430000D03*
X-3911600Y2667000D03*
X-4160000Y2550000D03*
X-4150000Y2425700D03*
X-4192570Y2696420D03*
X-4140000Y2957600D03*
X-3810000Y2781300D03*
X-3924300Y2895600D03*
X-3858400Y3566300D03*
X-3830000Y4420000D03*
Y4530000D03*
X-3940000Y6120000D03*
X-3859500Y5840500D03*
X-3540000Y0D03*
X-3695700Y-95100D03*
X-3350000Y360000D03*
X-3766100Y1430000D03*
X-3416300Y1295400D03*
Y1143000D03*
Y1435100D03*
X-3746500Y1143000D03*
X-3730000Y1683300D03*
X-3403600Y1803400D03*
X-3490000Y1810000D03*
X-3598000Y1820000D03*
X-3540000Y2225000D03*
X-3543300Y2476500D03*
X-3695700Y2667000D03*
X-3470000Y2400000D03*
X-3556000Y3124200D03*
X-3470000Y2970000D03*
X-3695700Y2895600D03*
X-3365500Y3352800D03*
X-3644900Y3568700D03*
X-3556000D03*
X-3550000Y4381500D03*
Y4254500D03*
X-3581400Y4156300D03*
X-3550000Y4826000D03*
Y4699000D03*
Y4572000D03*
Y4980000D03*
X-3607040Y4894030D03*
X-3400000Y5560000D03*
X-3551970Y5571410D03*
X-3769430D03*
X-3718020Y5520000D03*
X-3603380D03*
X-3590000Y6045200D03*
Y5930900D03*
X-2930000Y-55000D03*
X-3090000D03*
X-3140000Y340000D03*
X-3220000Y615400D03*
X-3009900Y520700D03*
X-2960000Y830000D03*
X-3280000Y660000D03*
X-3227300Y712700D03*
X-3149600Y825500D03*
X-3124200Y1295400D03*
Y1143000D03*
X-3263900Y1435100D03*
Y1143000D03*
X-3116410Y1436660D03*
X-3269400Y1291700D03*
X-3211610Y1803440D03*
X-3018150Y1738160D03*
X-3327400Y1778000D03*
X-3170000Y1880000D03*
X-2985000Y2440000D03*
X-3127700Y2700000D03*
X-3269700Y3168100D03*
X-3040000Y3130000D03*
X-3220000Y2870000D03*
X-2927900Y3130000D03*
X-3210000Y2970000D03*
X-3127700Y2860000D03*
X-2933700Y3416300D03*
X-3009900Y3644900D03*
X-2971800Y4419600D03*
X-2959100Y4241800D03*
X-3225800Y4381500D03*
Y4254500D03*
X-3240000Y4572000D03*
Y4699000D03*
Y4820000D03*
Y4953000D03*
X-2850000Y30000D03*
X-2857500Y190500D03*
X-2882900Y520700D03*
X-2755900D03*
X-2850000Y360000D03*
X-2882900Y800100D03*
X-2755900D03*
X-2518590Y906680D03*
X-2580000Y820000D03*
X-2570000Y958090D03*
X-2730000Y1241700D03*
X-2693150Y1403150D03*
X-2740000Y1070000D03*
X-2518590Y1118720D03*
X-2570000Y1067310D03*
X-2790000Y1550000D03*
X-2700000Y1920000D03*
X-2730000Y2430000D03*
X-2810000Y2350000D03*
X-2701970Y2360290D03*
X-2575000Y2427500D03*
X-2600000Y2670000D03*
X-2630000Y2350000D03*
X-2892300Y2700000D03*
X-2760000Y3130000D03*
X-2740000Y2910000D03*
X-2649570Y2910440D03*
X-2575000Y2912500D03*
X-2892300Y2860000D03*
X-2857500Y3340100D03*
X-2781300Y3644900D03*
X-2895600D03*
X-2781300Y4445000D03*
Y4584700D03*
X-2566600Y4957700D03*
X-2781300Y4890000D03*
X-2910000Y5502100D03*
Y5649600D03*
Y6080000D03*
Y5797100D03*
Y6380000D03*
Y6230000D03*
X-2106000Y352700D03*
X-2495000Y1830000D03*
X-2310000Y2230000D03*
X-2400000Y1950000D03*
X-2270000Y2320000D03*
X-2470000Y2430000D03*
X-2370000Y2350000D03*
X-2085000Y2670000D03*
X-2340000Y2562300D03*
X-2470000Y2910000D03*
X-2340580Y3022560D03*
X-2200000Y3030000D03*
X-2391990Y3073970D03*
X-2340000Y2797700D03*
X-2340580Y3240020D03*
X-2391990Y3188610D03*
X-2260000Y4440000D03*
X-2130000Y4770000D03*
X-2255400Y4850000D03*
X-2413000Y4813300D03*
Y4724400D03*
X-2137300Y5102450D03*
X-2210000Y5297300D03*
X-2137560Y5657710D03*
X-2240000Y6140000D03*
X-2270000Y5758200D03*
X-1716000Y352700D03*
X-1846000D03*
X-1976000D03*
X-1770000Y1370000D03*
Y1100000D03*
X-2050000Y2230000D03*
Y1920000D03*
X-1880000Y2320000D03*
X-1780000D03*
X-1730000Y3170000D03*
Y2970000D03*
X-1940000Y3590000D03*
X-1880000Y3460000D03*
X-1868200Y3550940D03*
X-1660000Y3540000D03*
X-1755000D03*
X-1932670Y3517320D03*
Y3402680D03*
X-1723700Y3996300D03*
X-1820800Y3950000D03*
X-1820000Y3870000D03*
X-1810000Y4115000D03*
X-1820000Y4210000D03*
X-2004600Y4860000D03*
X-1710000Y4660900D03*
X-1972700Y5125000D03*
X-2060000Y5297300D03*
X-1910000D03*
X-1990000Y5660000D03*
X-1820000D03*
X-1700000Y5765360D03*
Y5880000D03*
Y6134640D03*
Y6020000D03*
X-1630000Y345000D03*
X-1260000Y705000D03*
X-1341410Y2231970D03*
X-1290000Y2283380D03*
X-1341410Y2449430D03*
X-1630000Y2570000D03*
X-1600000Y2440000D03*
X-1290000Y2398020D03*
X-1530000Y3120000D03*
X-1430000D03*
X-1530000Y3020000D03*
X-1430000D03*
X-1480000Y3070000D03*
X-1536430Y2820000D03*
X-1427210D03*
X-1240000Y2910000D03*
X-1630000Y3220000D03*
X-1320000Y3590000D03*
X-1267500Y3517500D03*
X-1330000Y3220000D03*
X-1580000Y3560000D03*
X-1230000Y3220000D03*
X-1370000Y4395000D03*
X-1439200Y4660000D03*
X-1370000Y4470000D03*
Y4585000D03*
X-1610000Y4470000D03*
X-1284700Y5186500D03*
X-1238600Y4955000D03*
X-1233600Y5030000D03*
X-1630000Y5740000D03*
Y6000000D03*
Y6160000D03*
Y5900000D03*
X-870000Y305000D03*
X-1002400Y550000D03*
X-1120000Y540000D03*
X-876500Y900000D03*
X-1000000Y1480000D03*
X-1130500Y1360000D03*
X-840000Y1680000D03*
X-820200Y1825000D03*
X-1092500Y1820000D03*
X-1090000Y1680000D03*
X-1092500Y1920000D03*
X-850000D03*
X-1092500Y2015000D03*
X-1070000Y2445000D03*
X-1080000Y2680000D03*
X-1010000Y3120000D03*
Y3010000D03*
X-1046050Y3272500D03*
X-820000Y3540000D03*
X-1120000Y3680000D03*
X-964100Y3650000D03*
X-1040000Y3996300D03*
X-896920Y3890000D03*
X-964100Y4110000D03*
X-990000Y4322300D03*
X-1050000Y4796500D03*
X-1110000Y4560000D03*
X-1000000Y4730000D03*
X-1150000Y4796500D03*
Y4869200D03*
X-820000Y4585000D03*
X-1000000Y4950000D03*
X-970000Y5470000D03*
X-1180000Y5500400D03*
X-1060000Y5645000D03*
X-970000Y6055000D03*
X-1180000Y6085400D03*
X-960000Y5902700D03*
X-1060000D03*
X-1160000Y5750000D03*
X-880000Y5900000D03*
X-1180000Y6380400D03*
X-960000Y6490000D03*
X-1060000D03*
X-880000D03*
X-1060000Y6230000D03*
X-780000Y130000D03*
X-539430Y108590D03*
X-488020Y160000D03*
X-373380D03*
X-780000Y215000D03*
X-436500Y740500D03*
X-749500Y900000D03*
X-640000Y1340000D03*
Y1420000D03*
X-436500Y1629500D03*
Y1883500D03*
X-570000Y1905000D03*
X-437500Y2392500D03*
X-436500Y2645500D03*
Y3153500D03*
Y3407500D03*
X-570000Y3490000D03*
X-770000Y3400000D03*
X-670000Y3460000D03*
X-436500Y3915500D03*
X-482600Y4614000D03*
X-680000Y4580000D03*
X-669710Y4508030D03*
X-760000Y4510000D03*
X-413400Y5059160D03*
X-600000Y5140000D03*
X-570000Y4930000D03*
X-680000Y4991500D03*
X-630000Y5050000D03*
X-710000Y5121500D03*
X-436500Y5566500D03*
X-770000Y5615000D03*
X-520000Y5500000D03*
Y5710000D03*
X-600220Y5665490D03*
Y5550850D03*
X-680000Y5825000D03*
X-620000Y5900000D03*
X-560000Y6070000D03*
X-600220Y6135850D03*
X-620000Y6410000D03*
Y6490000D03*
X-770000Y6200000D03*
X-562340Y6312550D03*
X-600220Y6250490D03*
X-321970Y108590D03*
X-55500Y613500D03*
X-309500D03*
X-182500D03*
X-309500Y867500D03*
X-55500D03*
X-182500Y740500D03*
X-55500D03*
Y1248500D03*
X-309500D03*
X-182500Y1121500D03*
X-309000Y1121000D03*
X-52500Y1632500D03*
X-182500Y1883500D03*
Y1629500D03*
X-309500D03*
X-59000Y2141000D03*
X-311000Y2139000D03*
X-182500Y2137500D03*
X-178000Y2260000D03*
X-55500Y2391500D03*
X-182500D03*
Y2645500D03*
X-309500Y2391500D03*
X-61940Y2503220D03*
X-50800Y2641600D03*
X-182500Y3153500D03*
X-309500Y2899500D03*
X-58800Y2775800D03*
X-58000Y2902000D03*
X-49000Y3020000D03*
X-50000Y3148000D03*
X-299000Y3270000D03*
X-46000Y3290000D03*
X-50000Y3413000D03*
X-309500Y3661500D03*
X-182500Y3915500D03*
X-55500D03*
Y3661500D03*
X-309500Y3915500D03*
Y4296500D03*
X-51000Y4419000D03*
X-182500Y4296500D03*
X-55500D03*
Y4169500D03*
Y4804500D03*
X-182500Y4550500D03*
X-309500Y4804500D03*
X-177800Y4799800D03*
X-55880Y4551680D03*
X-53340Y4676140D03*
X-182500Y5058500D03*
X-309500D03*
X-55500Y5312500D03*
X-319000Y5249000D03*
X-177800Y4926800D03*
X-53340Y4929340D03*
Y5056340D03*
X-55500Y5693500D03*
X-309500D03*
X-310000Y5430000D03*
X-180000Y5690000D03*
X-182500Y5439500D03*
X-55880Y5440680D03*
X-53340Y5565140D03*
X325500Y613500D03*
X452500D03*
X198500D03*
X325500Y867500D03*
X452500Y740500D03*
Y994500D03*
Y867500D03*
X198500D03*
X199500Y739500D03*
X325500Y994500D03*
Y740500D03*
Y1121500D03*
X452500Y1248500D03*
Y1121500D03*
X198500Y1248500D03*
X195000Y1125000D03*
X452500Y1629500D03*
X198500D03*
X325500D03*
X452500Y1883500D03*
Y1756500D03*
Y2010500D03*
X325500Y2137500D03*
X452500D03*
X200000Y2012000D03*
X323000Y2013000D03*
X200000Y2270000D03*
X452500Y2518500D03*
X325500D03*
X71500Y2645500D03*
X452500D03*
X328500Y2388500D03*
X325500Y3026500D03*
X452500Y3153500D03*
X325500D03*
X77500Y3147500D03*
X329000Y2769000D03*
X77000Y2767000D03*
X198000Y3408000D03*
X452500Y3280500D03*
X325500Y3407500D03*
X71500Y3280500D03*
X325500Y3534500D03*
X198500Y3661500D03*
X201500Y3918500D03*
X325500Y3915500D03*
X325000Y3790000D03*
X325500Y3661500D03*
X452500Y4042500D03*
Y4169500D03*
X198500Y4423500D03*
Y4169500D03*
X327660Y4043680D03*
X453860Y4425660D03*
X453000Y4297000D03*
X329500Y4300500D03*
X325500Y4804500D03*
X200500Y4679500D03*
X325500Y4550500D03*
X71500Y5185500D03*
X325000Y5185000D03*
X325500Y5058500D03*
X326500Y5313500D03*
X70000Y5060000D03*
X325500Y4931500D03*
Y5439500D03*
X326000Y5694000D03*
X71500Y5439500D03*
X325000Y5565000D03*
X71500Y5566500D03*
X706500Y613500D03*
Y994500D03*
X579500Y867500D03*
Y740500D03*
Y1248500D03*
Y1375500D03*
X706500Y1121500D03*
Y1502500D03*
X579500Y1756500D03*
X706500Y1629500D03*
X579500Y1883500D03*
Y2264500D03*
X706500Y2010500D03*
Y2137500D03*
Y2645500D03*
X579500Y2391500D03*
X706500Y2518500D03*
X704500Y2774500D03*
X579500Y3026500D03*
X706500Y3153500D03*
X579500Y3407500D03*
X706500Y3280500D03*
X579500Y3534500D03*
X579000Y3661000D03*
X579500Y3915500D03*
X580500Y3789500D03*
X706500Y3661500D03*
Y3788500D03*
Y4296500D03*
X579500D03*
Y4042500D03*
X706500Y4169500D03*
X579500D03*
X580680Y4423880D03*
X706500Y4804500D03*
Y4550500D03*
X579500Y4677500D03*
X572500Y4797500D03*
X579500Y4931500D03*
X706500Y5185500D03*
Y5312500D03*
X578500Y5311500D03*
X577000Y5183000D03*
X579500Y5058500D03*
Y5439500D03*
X706500Y5693500D03*
X577500Y5692500D03*
X579500Y5566500D03*
G54D12*
X-5782000Y1525000D03*
Y2975000D03*
G54D13*
X-6090000Y3835600D03*
Y4693600D03*
X-5590000Y5260600D03*
X-5090000Y3835600D03*
X-4590000Y5260600D03*
X-4090000Y3835600D03*
Y4403600D03*
Y4943600D03*
X-3590000Y5260600D03*
X-2590000D03*
G54D14*
X-5460000Y380000D03*
X-5475000Y6050000D03*
X0Y0D03*
Y6300000D03*
G54D15*
X-5030000Y2296000D03*
Y2550000D03*
Y2804000D03*
X-4710000Y130000D03*
X-4964000D03*
X-4710000Y470000D03*
X-4964000D03*
X-4680000Y2296000D03*
Y2550000D03*
Y2804000D03*
X-4456000Y130000D03*
Y470000D03*
X-3840000D03*
X-4094000D03*
X-4020900Y1387600D03*
Y1133600D03*
Y1641600D03*
X-3586000Y470000D03*
X-1277000Y-110000D03*
X-1531000D03*
X-1023000D03*
X-769000D03*
X-710000Y2276000D03*
Y2530000D03*
Y2784000D03*
Y3950000D03*
Y3696000D03*
Y4204000D03*
G54D16*
X-3810000Y3835600D03*
Y5260600D03*
X-3340000Y3835600D03*
Y5260600D03*
X-2840000Y3835600D03*
Y5260600D03*
X-2380000Y4068100D03*
Y4548100D03*
Y5028100D03*
G54D17*
X-2990000Y4070000D03*
Y5030000D03*
X-106500Y434500D03*
X198500Y5872500D03*
G54D18*
X-3090000Y3835600D03*
G54D19*
X-2130000Y710000D03*
X-2410000D03*
X-1850000D03*
M02*
