G04 ================== begin FILE IDENTIFICATION RECORD ==================*
G04 Layout Name:  pc053e_toplevel_66.brd*
G04 Film Name:    art_PASTEMASK_TOP_pc053e*
G04 File Format:  Gerber RS274X*
G04 File Origin:  Cadence Allegro 17.4-S012*
G04 Origin Date:  Fri Apr 16 14:45:17 2021*
G04 *
G04 Layer:  VIA CLASS/PASTEMASK_TOP*
G04 Layer:  PIN/PASTEMASK_TOP*
G04 Layer:  PACKAGE GEOMETRY/PASTEMASK_TOP*
G04 Layer:  BOARD GEOMETRY/TEXT_ETP*
G04 *
G04 Offset:    (-315.1182 -288.1259)*
G04 Mirror:    No*
G04 Mode:      Positive*
G04 Rotation:  0*
G04 FullContactRelief:  No*
G04 UndefLineWidth:     0.2540*
G04 ================== end FILE IDENTIFICATION RECORD ====================*
%FSLAX25Y25*MOMM*%
%IR0*IPPOS*OFA-315.11820B-288.12590*MIA0B0*SFA1.00000B1.00000*%
%ADD14R,1.X.5*%
%ADD17R,.9X1.*%
%ADD13R,1.X.8*%
%ADD20R,1.05X.6*%
%ADD10R,.6X.6*%
%ADD12R,1.X1.05*%
%ADD19R,1.4X1.2*%
%ADD11R,2.2X1.05*%
%ADD16R,1.55X2.7*%
%ADD15R,2.7X1.55*%
%ADD18R,.95X.7*%
%LPD*%
G75*
G54D10*
X-6415000Y1330000D03*
Y3170000D03*
X-6325000Y1330000D03*
X-6135000D03*
X-6225000D03*
X-6325000Y3170000D03*
X-6135000D03*
X-6225000D03*
X-4295000Y1190000D03*
Y1290000D03*
X-4260000Y2585000D03*
Y2495000D03*
X-3945000Y880000D03*
X-4035000D03*
X-4205000Y1190000D03*
Y1290000D03*
X-3790000Y1885000D03*
Y1975000D03*
X-4051300Y2647400D03*
Y2737400D03*
X-4170000Y3035000D03*
Y3125000D03*
X-3804200Y6045200D03*
Y5930900D03*
X-3651800Y1422400D03*
X-3561800D03*
X-3651800Y1143000D03*
X-3561800D03*
X-3690000Y1885000D03*
X-3390000D03*
X-3416300Y1593300D03*
Y1683300D03*
X-3530600Y1593300D03*
Y1683300D03*
X-3490000Y1885000D03*
X-3690000Y1975000D03*
X-3390000D03*
X-3490000D03*
X-3543300Y2571200D03*
Y2661200D03*
X-3778800Y2552700D03*
X-3688800D03*
X-3385000Y2970000D03*
X-3365500Y3168100D03*
X-3695700Y3118400D03*
Y3028400D03*
X-3365500Y3258100D03*
X-3435900Y4381500D03*
Y4254500D03*
Y4826000D03*
Y4572000D03*
Y4699000D03*
Y4953000D03*
X-3714200Y6045200D03*
Y5930900D03*
X-2965000Y300000D03*
X-3055000D03*
X-3149600Y907500D03*
Y997500D03*
X-2978700Y1117600D03*
Y1257300D03*
X-3187700Y1683300D03*
Y1593300D03*
X-2978700Y1536700D03*
X-3250000Y1885000D03*
X-3302000Y1593300D03*
Y1683300D03*
X-3250000Y1975000D03*
X-2985000Y2350000D03*
X-2965000Y2700000D03*
X-3055000D03*
X-3295000Y2970000D03*
X-2965000Y2860000D03*
X-3055000D03*
X-3345900Y4381500D03*
Y4254500D03*
Y4826000D03*
Y4572000D03*
Y4699000D03*
Y4953000D03*
X-2888700Y1117600D03*
Y1257300D03*
Y1536700D03*
X-2585000Y1920000D03*
X-2545000Y2350000D03*
X-2895000D03*
X-2837900Y3517900D03*
X-2927900D03*
X-2837900Y3238500D03*
X-2927900D03*
X-2558500Y4470400D03*
X-2648500D03*
Y4597400D03*
X-2558500D03*
X-2106000Y190000D03*
Y280000D03*
X-2495000Y1920000D03*
X-2135000Y2230000D03*
X-2225000D03*
X-2455000Y2350000D03*
X-2340000Y2725000D03*
Y2635000D03*
X-2130000Y5015000D03*
Y4925000D03*
X-2300000Y5985000D03*
Y5895000D03*
X-2410000Y5985000D03*
Y5895000D03*
X-1976000Y190000D03*
Y280000D03*
X-1846000Y190000D03*
Y280000D03*
X-1716000Y190000D03*
Y280000D03*
X-1730000Y4075000D03*
Y4165000D03*
X-1800000Y6035000D03*
Y6125000D03*
Y5865000D03*
Y5775000D03*
X-1275000Y440000D03*
X-1505000Y3590000D03*
X-1415000D03*
X-1450000Y4385000D03*
Y4475000D03*
X-860000Y125000D03*
X-1185000Y440000D03*
X-860000Y215000D03*
X-880000Y655000D03*
Y745000D03*
X-1120000Y1135000D03*
Y1225000D03*
X-1000000Y1135000D03*
Y1225000D03*
X-1140000Y3035000D03*
Y3125000D03*
X-1120000Y3945000D03*
Y3855000D03*
X-1110000Y4385000D03*
X-889500Y4759000D03*
Y4849000D03*
X-1110000Y4475000D03*
X-1060000Y5560000D03*
Y5470000D03*
Y6145000D03*
Y6055000D03*
X-740000Y655000D03*
Y745000D03*
X-670000Y1135000D03*
Y1225000D03*
X-650000Y1815000D03*
Y1905000D03*
X-795000Y5900000D03*
X-705000D03*
X-795000Y6490000D03*
X-705000D03*
G54D11*
X-4810000Y5762500D03*
Y6057500D03*
X-2590800Y43000D03*
Y338000D03*
X-2643300Y5502100D03*
Y5797100D03*
X-2640000Y6082500D03*
Y6377500D03*
X-1345900Y5500400D03*
Y5795400D03*
Y6085400D03*
Y6380400D03*
G54D20*
X-1250000Y115000D03*
Y305000D03*
X-990000Y115000D03*
Y305000D03*
Y210000D03*
G54D12*
X-4657500Y5910000D03*
X-2743300Y190500D03*
X-2795800Y5649600D03*
X-2792500Y6230000D03*
X-1193400Y5647900D03*
Y6232900D03*
G54D13*
X-4415000Y1405000D03*
Y1195000D03*
X-4605000D03*
Y1405000D03*
G54D14*
X-4415000Y1300000D03*
X-4605000D03*
G54D15*
X-2971800Y4556300D03*
Y4816300D03*
G54D16*
X-2562400Y4241800D03*
X-2822400D03*
G54D17*
X-2716600Y4762500D03*
X-2566600D03*
G54D18*
X-2210000Y5375000D03*
Y5565000D03*
X-2060000Y5375000D03*
Y5565000D03*
X-1910000Y5375000D03*
Y5565000D03*
G54D19*
X-1506000Y165000D03*
Y345000D03*
M02*
