G04 ================== begin FILE IDENTIFICATION RECORD ==================*
G04 Layout Name:  pc053e_toplevel_66.brd*
G04 Film Name:    art_DRILL-1-6_pc053e*
G04 File Format:  Gerber RS274X*
G04 File Origin:  Cadence Allegro 17.4-S012*
G04 Origin Date:  Fri Apr 16 14:59:15 2021*
G04 *
G04 Layer:  MANUFACTURING/NCLEGEND-1-6*
G04 Layer:  DRAWING FORMAT/OUTLINE*
G04 Layer:  DRAWING FORMAT/TITLE_BLOCK*
G04 Layer:  DRAWING FORMAT/TITLE_DATA*
G04 Layer:  DRAWING FORMAT/REVISION_BLOCK*
G04 Layer:  DRAWING FORMAT/REVISION_DATA*
G04 Layer:  BOARD GEOMETRY/DIMENSION*
G04 Layer:  BOARD GEOMETRY/DESIGN_OUTLINE*
G04 Layer:  BOARD GEOMETRY/CART_TOP*
G04 *
G04 Offset:    (0.0000 0.0000)*
G04 Mirror:    No*
G04 Mode:      Positive*
G04 Rotation:  0*
G04 FullContactRelief:  No*
G04 UndefLineWidth:     0.2540*
G04 ================== end FILE IDENTIFICATION RECORD ====================*
%FSLAX25Y25*MOMM*%
%IR0*IPPOS*OFA0.00000B0.00000*MIA0B0*SFA1.00000B1.00000*%
%AMMACRO19*
1,1,.254,.75,0.0*
20,1,.254,.75,0.0,.738606,-.130236,0.0*
1,1,.254,.738606,-.130236*
20,1,.254,.738606,-.130236,.704769,-.256515,0.0*
1,1,.254,.704769,-.256515*
20,1,.254,.704769,-.256515,.649519,-.375,0.0*
1,1,.254,.649519,-.375*
20,1,.254,.649519,-.375,.574533,-.482091,0.0*
1,1,.254,.574533,-.482091*
20,1,.254,.574533,-.482091,.482091,-.574533,0.0*
1,1,.254,.482091,-.574533*
20,1,.254,.482091,-.574533,.375,-.649519,0.0*
1,1,.254,.375,-.649519*
20,1,.254,.375,-.649519,.256515,-.704769,0.0*
1,1,.254,.256515,-.704769*
20,1,.254,.256515,-.704769,.130236,-.738606,0.0*
1,1,.254,.130236,-.738606*
20,1,.254,.130236,-.738606,0.0,-.75,0.0*
1,1,.254,0.0,-.75*
20,1,.254,0.0,-.75,-.130236,-.738606,0.0*
1,1,.254,-.130236,-.738606*
20,1,.254,-.130236,-.738606,-.256515,-.704769,0.0*
1,1,.254,-.256515,-.704769*
20,1,.254,-.256515,-.704769,-.375,-.649519,0.0*
1,1,.254,-.375,-.649519*
20,1,.254,-.375,-.649519,-.482091,-.574533,0.0*
1,1,.254,-.482091,-.574533*
20,1,.254,-.482091,-.574533,-.574533,-.482091,0.0*
1,1,.254,-.574533,-.482091*
20,1,.254,-.574533,-.482091,-.649519,-.375,0.0*
1,1,.254,-.649519,-.375*
20,1,.254,-.649519,-.375,-.704769,-.256515,0.0*
1,1,.254,-.704769,-.256515*
20,1,.254,-.704769,-.256515,-.738606,-.130236,0.0*
1,1,.254,-.738606,-.130236*
20,1,.254,-.738606,-.130236,-.75,0.0,0.0*
1,1,.254,-.75,0.0*
20,1,.254,-.75,0.0,-.738606,.130236,0.0*
1,1,.254,-.738606,.130236*
20,1,.254,-.738606,.130236,-.704769,.256515,0.0*
1,1,.254,-.704769,.256515*
20,1,.254,-.704769,.256515,-.649519,.375,0.0*
1,1,.254,-.649519,.375*
20,1,.254,-.649519,.375,-.574533,.482091,0.0*
1,1,.254,-.574533,.482091*
20,1,.254,-.574533,.482091,-.482091,.574533,0.0*
1,1,.254,-.482091,.574533*
20,1,.254,-.482091,.574533,-.375,.649519,0.0*
1,1,.254,-.375,.649519*
20,1,.254,-.375,.649519,-.256515,.704769,0.0*
1,1,.254,-.256515,.704769*
20,1,.254,-.256515,.704769,-.130236,.738606,0.0*
1,1,.254,-.130236,.738606*
20,1,.254,-.130236,.738606,0.0,.75,0.0*
1,1,.254,0.0,.75*
20,1,.254,0.0,.75,.130236,.738606,0.0*
1,1,.254,.130236,.738606*
20,1,.254,.130236,.738606,.256515,.704769,0.0*
1,1,.254,.256515,.704769*
20,1,.254,.256515,.704769,.375,.649519,0.0*
1,1,.254,.375,.649519*
20,1,.254,.375,.649519,.482091,.574533,0.0*
1,1,.254,.482091,.574533*
20,1,.254,.482091,.574533,.574533,.482091,0.0*
1,1,.254,.574533,.482091*
20,1,.254,.574533,.482091,.649519,.375,0.0*
1,1,.254,.649519,.375*
20,1,.254,.649519,.375,.704769,.256515,0.0*
1,1,.254,.704769,.256515*
20,1,.254,.704769,.256515,.738606,.130236,0.0*
1,1,.254,.738606,.130236*
20,1,.254,.738606,.130236,.75,0.0,0.0*
1,1,.254,.75,0.0*
%
%ADD19MACRO19*%
%AMMACRO15*
1,1,.254,.7,0.0*
20,1,.254,.7,0.0,-.7,0.0,0.0*
1,1,.254,-.7,0.0*
1,1,.254,0.0,.7*
20,1,.254,0.0,.7,0.0,-.7,0.0*
1,1,.254,0.0,-.7*
%
%ADD15MACRO15*%
%AMMACRO10*
1,1,.254,-.6,.45*
20,1,.254,-.6,.45,.6,.45,0.0*
1,1,.254,.6,.45*
20,1,.254,.6,.45,.678142,.443163,0.0*
1,1,.254,.678142,.443163*
20,1,.254,.678142,.443163,.753909,.422862,0.0*
1,1,.254,.753909,.422862*
20,1,.254,.753909,.422862,.825,.389711,0.0*
1,1,.254,.825,.389711*
20,1,.254,.825,.389711,.889254,.34472,0.0*
1,1,.254,.889254,.34472*
20,1,.254,.889254,.34472,.94472,.289254,0.0*
1,1,.254,.94472,.289254*
20,1,.254,.94472,.289254,.989711,.225,0.0*
1,1,.254,.989711,.225*
20,1,.254,.989711,.225,1.022862,.153909,0.0*
1,1,.254,1.022862,.153909*
20,1,.254,1.022862,.153909,1.043163,.078142,0.0*
1,1,.254,1.043163,.078142*
20,1,.254,1.043163,.078142,1.05,0.0,0.0*
1,1,.254,1.05,0.0*
20,1,.254,1.05,0.0,1.043163,-.078142,0.0*
1,1,.254,1.043163,-.078142*
20,1,.254,1.043163,-.078142,1.022862,-.153909,0.0*
1,1,.254,1.022862,-.153909*
20,1,.254,1.022862,-.153909,.989711,-.225,0.0*
1,1,.254,.989711,-.225*
20,1,.254,.989711,-.225,.94472,-.289254,0.0*
1,1,.254,.94472,-.289254*
20,1,.254,.94472,-.289254,.889254,-.34472,0.0*
1,1,.254,.889254,-.34472*
20,1,.254,.889254,-.34472,.825,-.389711,0.0*
1,1,.254,.825,-.389711*
20,1,.254,.825,-.389711,.753909,-.422862,0.0*
1,1,.254,.753909,-.422862*
20,1,.254,.753909,-.422862,.678142,-.443163,0.0*
1,1,.254,.678142,-.443163*
20,1,.254,.678142,-.443163,.6,-.45,0.0*
1,1,.254,.6,-.45*
20,1,.254,.6,-.45,-.6,-.45,0.0*
1,1,.254,-.6,-.45*
20,1,.254,-.6,-.45,-.678142,-.443163,0.0*
1,1,.254,-.678142,-.443163*
20,1,.254,-.678142,-.443163,-.753909,-.422862,0.0*
1,1,.254,-.753909,-.422862*
20,1,.254,-.753909,-.422862,-.825,-.389711,0.0*
1,1,.254,-.825,-.389711*
20,1,.254,-.825,-.389711,-.889254,-.34472,0.0*
1,1,.254,-.889254,-.34472*
20,1,.254,-.889254,-.34472,-.94472,-.289254,0.0*
1,1,.254,-.94472,-.289254*
20,1,.254,-.94472,-.289254,-.989711,-.225,0.0*
1,1,.254,-.989711,-.225*
20,1,.254,-.989711,-.225,-1.022862,-.153909,0.0*
1,1,.254,-1.022862,-.153909*
20,1,.254,-1.022862,-.153909,-1.043163,-.078142,0.0*
1,1,.254,-1.043163,-.078142*
20,1,.254,-1.043163,-.078142,-1.05,0.0,0.0*
1,1,.254,-1.05,0.0*
20,1,.254,-1.05,0.0,-1.043163,.078142,0.0*
1,1,.254,-1.043163,.078142*
20,1,.254,-1.043163,.078142,-1.022862,.153909,0.0*
1,1,.254,-1.022862,.153909*
20,1,.254,-1.022862,.153909,-.989711,.225,0.0*
1,1,.254,-.989711,.225*
20,1,.254,-.989711,.225,-.94472,.289254,0.0*
1,1,.254,-.94472,.289254*
20,1,.254,-.94472,.289254,-.889254,.34472,0.0*
1,1,.254,-.889254,.34472*
20,1,.254,-.889254,.34472,-.825,.389711,0.0*
1,1,.254,-.825,.389711*
20,1,.254,-.825,.389711,-.753909,.422862,0.0*
1,1,.254,-.753909,.422862*
20,1,.254,-.753909,.422862,-.678142,.443163,0.0*
1,1,.254,-.678142,.443163*
20,1,.254,-.678142,.443163,-.6,.45,0.0*
1,1,.254,-.6,.45*
%
%ADD10MACRO10*%
%AMMACRO12*
1,1,.254,-.9,.45*
20,1,.254,-.9,.45,.9,.45,0.0*
1,1,.254,.9,.45*
20,1,.254,.9,.45,.978142,.443163,0.0*
1,1,.254,.978142,.443163*
20,1,.254,.978142,.443163,1.053909,.422862,0.0*
1,1,.254,1.053909,.422862*
20,1,.254,1.053909,.422862,1.125,.389711,0.0*
1,1,.254,1.125,.389711*
20,1,.254,1.125,.389711,1.189254,.34472,0.0*
1,1,.254,1.189254,.34472*
20,1,.254,1.189254,.34472,1.24472,.289254,0.0*
1,1,.254,1.24472,.289254*
20,1,.254,1.24472,.289254,1.289711,.225,0.0*
1,1,.254,1.289711,.225*
20,1,.254,1.289711,.225,1.322862,.153909,0.0*
1,1,.254,1.322862,.153909*
20,1,.254,1.322862,.153909,1.343163,.078142,0.0*
1,1,.254,1.343163,.078142*
20,1,.254,1.343163,.078142,1.35,0.0,0.0*
1,1,.254,1.35,0.0*
20,1,.254,1.35,0.0,1.343163,-.078142,0.0*
1,1,.254,1.343163,-.078142*
20,1,.254,1.343163,-.078142,1.322862,-.153909,0.0*
1,1,.254,1.322862,-.153909*
20,1,.254,1.322862,-.153909,1.289711,-.225,0.0*
1,1,.254,1.289711,-.225*
20,1,.254,1.289711,-.225,1.24472,-.289254,0.0*
1,1,.254,1.24472,-.289254*
20,1,.254,1.24472,-.289254,1.189254,-.34472,0.0*
1,1,.254,1.189254,-.34472*
20,1,.254,1.189254,-.34472,1.125,-.389711,0.0*
1,1,.254,1.125,-.389711*
20,1,.254,1.125,-.389711,1.053909,-.422862,0.0*
1,1,.254,1.053909,-.422862*
20,1,.254,1.053909,-.422862,.978142,-.443163,0.0*
1,1,.254,.978142,-.443163*
20,1,.254,.978142,-.443163,.9,-.45,0.0*
1,1,.254,.9,-.45*
20,1,.254,.9,-.45,-.9,-.45,0.0*
1,1,.254,-.9,-.45*
20,1,.254,-.9,-.45,-.978142,-.443163,0.0*
1,1,.254,-.978142,-.443163*
20,1,.254,-.978142,-.443163,-1.053909,-.422862,0.0*
1,1,.254,-1.053909,-.422862*
20,1,.254,-1.053909,-.422862,-1.125,-.389711,0.0*
1,1,.254,-1.125,-.389711*
20,1,.254,-1.125,-.389711,-1.189254,-.34472,0.0*
1,1,.254,-1.189254,-.34472*
20,1,.254,-1.189254,-.34472,-1.24472,-.289254,0.0*
1,1,.254,-1.24472,-.289254*
20,1,.254,-1.24472,-.289254,-1.289711,-.225,0.0*
1,1,.254,-1.289711,-.225*
20,1,.254,-1.289711,-.225,-1.322862,-.153909,0.0*
1,1,.254,-1.322862,-.153909*
20,1,.254,-1.322862,-.153909,-1.343163,-.078142,0.0*
1,1,.254,-1.343163,-.078142*
20,1,.254,-1.343163,-.078142,-1.35,0.0,0.0*
1,1,.254,-1.35,0.0*
20,1,.254,-1.35,0.0,-1.343163,.078142,0.0*
1,1,.254,-1.343163,.078142*
20,1,.254,-1.343163,.078142,-1.322862,.153909,0.0*
1,1,.254,-1.322862,.153909*
20,1,.254,-1.322862,.153909,-1.289711,.225,0.0*
1,1,.254,-1.289711,.225*
20,1,.254,-1.289711,.225,-1.24472,.289254,0.0*
1,1,.254,-1.24472,.289254*
20,1,.254,-1.24472,.289254,-1.189254,.34472,0.0*
1,1,.254,-1.189254,.34472*
20,1,.254,-1.189254,.34472,-1.125,.389711,0.0*
1,1,.254,-1.125,.389711*
20,1,.254,-1.125,.389711,-1.053909,.422862,0.0*
1,1,.254,-1.053909,.422862*
20,1,.254,-1.053909,.422862,-.978142,.443163,0.0*
1,1,.254,-.978142,.443163*
20,1,.254,-.978142,.443163,-.9,.45,0.0*
1,1,.254,-.9,.45*
%
%ADD12MACRO12*%
%AMMACRO11*
1,1,.254,.35,0.0*
20,1,.254,.35,0.0,-.35,0.0,0.0*
1,1,.254,-.35,0.0*
1,1,.254,0.0,.35*
20,1,.254,0.0,.35,0.0,-.35,0.0*
1,1,.254,0.0,-.35*
%
%ADD11MACRO11*%
%AMMACRO20*
1,1,.254,1.,0.0*
20,1,.254,1.,0.0,0.0,-1.,0.0*
1,1,.254,0.0,-1.*
20,1,.254,0.0,-1.,-1.,0.0,0.0*
1,1,.254,-1.,0.0*
20,1,.254,-1.,0.0,0.0,1.,0.0*
1,1,.254,0.0,1.*
20,1,.254,0.0,1.,1.,0.0,0.0*
1,1,.254,1.,0.0*
1,1,.254,-.3833,-.5*
20,1,.254,-.3833,-.5,-.3833,.5,0.0*
1,1,.254,-.3833,.5*
20,1,.254,-.3833,.5,.3833,-.5,0.0*
1,1,.254,.3833,-.5*
20,1,.254,.3833,-.5,.3833,.5,0.0*
1,1,.254,.3833,.5*
%
%ADD20MACRO20*%
%AMMACRO17*
1,1,.254,.7,.7*
20,1,.254,.7,.7,.7,-.7,0.0*
1,1,.254,.7,-.7*
20,1,.254,.7,-.7,-.7,-.7,0.0*
1,1,.254,-.7,-.7*
20,1,.254,-.7,-.7,-.7,.7,0.0*
1,1,.254,-.7,.7*
20,1,.254,-.7,.7,.7,.7,0.0*
1,1,.254,.7,.7*
1,1,.254,-.2683,-.35*
20,1,.254,-.2683,-.35,-.2683,.35,0.0*
1,1,.254,-.2683,.35*
20,1,.254,-.2683,.35,.2683,-.35,0.0*
1,1,.254,.2683,-.35*
20,1,.254,.2683,-.35,.2683,.35,0.0*
1,1,.254,.2683,.35*
%
%ADD17MACRO17*%
%AMMACRO13*
1,1,.254,.7,.7*
20,1,.254,.7,.7,.7,-.7,0.0*
1,1,.254,.7,-.7*
20,1,.254,.7,-.7,-.7,-.7,0.0*
1,1,.254,-.7,-.7*
20,1,.254,-.7,-.7,-.7,.7,0.0*
1,1,.254,-.7,.7*
20,1,.254,-.7,.7,.7,.7,0.0*
1,1,.254,.7,.7*
1,1,.254,-.2333,-.35*
20,1,.254,-.2333,-.35,-.2333,.35,0.0*
1,1,.254,-.2333,.35*
20,1,.254,-.2333,.35,.0467,.35,0.0*
1,1,.254,.0467,.35*
20,1,.254,.0467,.35,.14,.315,0.0*
1,1,.254,.14,.315*
20,1,.254,.14,.315,.21,.2333,0.0*
1,1,.254,.21,.2333*
20,1,.254,.21,.2333,.2333,.14,0.0*
1,1,.254,.2333,.14*
20,1,.254,.2333,.14,.21,.0467,0.0*
1,1,.254,.21,.0467*
20,1,.254,.21,.0467,.1517,-.0233,0.0*
1,1,.254,.1517,-.0233*
20,1,.254,.1517,-.0233,.0467,-.0584,0.0*
1,1,.254,.0467,-.0584*
20,1,.254,.0467,-.0584,-.2333,-.0584,0.0*
1,1,.254,-.2333,-.0584*
%
%ADD13MACRO13*%
%AMMACRO14*
1,1,.254,0.0,1.35*
20,1,.254,0.0,1.35,.234425,1.32949,0.0*
1,1,.254,.234425,1.32949*
20,1,.254,.234425,1.32949,.461727,1.268585,0.0*
1,1,.254,.461727,1.268585*
20,1,.254,.461727,1.268585,.675,1.169134,0.0*
1,1,.254,.675,1.169134*
20,1,.254,.675,1.169134,.867763,1.03416,0.0*
1,1,.254,.867763,1.03416*
20,1,.254,.867763,1.03416,1.03416,.867763,0.0*
1,1,.254,1.03416,.867763*
20,1,.254,1.03416,.867763,1.169134,.675,0.0*
1,1,.254,1.169134,.675*
20,1,.254,1.169134,.675,1.268585,.461727,0.0*
1,1,.254,1.268585,.461727*
20,1,.254,1.268585,.461727,1.32949,.234425,0.0*
1,1,.254,1.32949,.234425*
20,1,.254,1.32949,.234425,1.35,0.0,0.0*
1,1,.254,1.35,0.0*
20,1,.254,1.35,0.0,1.32949,-.234425,0.0*
1,1,.254,1.32949,-.234425*
20,1,.254,1.32949,-.234425,1.268585,-.461727,0.0*
1,1,.254,1.268585,-.461727*
20,1,.254,1.268585,-.461727,1.169134,-.675,0.0*
1,1,.254,1.169134,-.675*
20,1,.254,1.169134,-.675,1.03416,-.867763,0.0*
1,1,.254,1.03416,-.867763*
20,1,.254,1.03416,-.867763,.867763,-1.03416,0.0*
1,1,.254,.867763,-1.03416*
20,1,.254,.867763,-1.03416,.675,-1.169134,0.0*
1,1,.254,.675,-1.169134*
20,1,.254,.675,-1.169134,.461727,-1.268585,0.0*
1,1,.254,.461727,-1.268585*
20,1,.254,.461727,-1.268585,.234425,-1.32949,0.0*
1,1,.254,.234425,-1.32949*
20,1,.254,.234425,-1.32949,0.0,-1.35,0.0*
1,1,.254,0.0,-1.35*
20,1,.254,0.0,-1.35,-.234425,-1.32949,0.0*
1,1,.254,-.234425,-1.32949*
20,1,.254,-.234425,-1.32949,-.461727,-1.268585,0.0*
1,1,.254,-.461727,-1.268585*
20,1,.254,-.461727,-1.268585,-.675,-1.169134,0.0*
1,1,.254,-.675,-1.169134*
20,1,.254,-.675,-1.169134,-.867763,-1.03416,0.0*
1,1,.254,-.867763,-1.03416*
20,1,.254,-.867763,-1.03416,-1.03416,-.867763,0.0*
1,1,.254,-1.03416,-.867763*
20,1,.254,-1.03416,-.867763,-1.169134,-.675,0.0*
1,1,.254,-1.169134,-.675*
20,1,.254,-1.169134,-.675,-1.268585,-.461727,0.0*
1,1,.254,-1.268585,-.461727*
20,1,.254,-1.268585,-.461727,-1.32949,-.234425,0.0*
1,1,.254,-1.32949,-.234425*
20,1,.254,-1.32949,-.234425,-1.35,0.0,0.0*
1,1,.254,-1.35,0.0*
20,1,.254,-1.35,0.0,-1.32949,.234425,0.0*
1,1,.254,-1.32949,.234425*
20,1,.254,-1.32949,.234425,-1.268585,.461727,0.0*
1,1,.254,-1.268585,.461727*
20,1,.254,-1.268585,.461727,-1.169134,.675,0.0*
1,1,.254,-1.169134,.675*
20,1,.254,-1.169134,.675,-1.03416,.867763,0.0*
1,1,.254,-1.03416,.867763*
20,1,.254,-1.03416,.867763,-.867763,1.03416,0.0*
1,1,.254,-.867763,1.03416*
20,1,.254,-.867763,1.03416,-.675,1.169134,0.0*
1,1,.254,-.675,1.169134*
20,1,.254,-.675,1.169134,-.461727,1.268585,0.0*
1,1,.254,-.461727,1.268585*
20,1,.254,-.461727,1.268585,-.234425,1.32949,0.0*
1,1,.254,-.234425,1.32949*
20,1,.254,-.234425,1.32949,0.0,1.35,0.0*
1,1,.254,0.0,1.35*
%
%ADD14MACRO14*%
%AMMACRO16*
1,1,.254,.341933,-.8255*
20,1,.254,.341933,-.8255,-.341933,-.8255,0.0*
1,1,.254,-.341933,-.8255*
20,1,.254,-.341933,-.8255,-.8255,-.341933,0.0*
1,1,.254,-.8255,-.341933*
20,1,.254,-.8255,-.341933,-.8255,.341933,0.0*
1,1,.254,-.8255,.341933*
20,1,.254,-.8255,.341933,-.341933,.8255,0.0*
1,1,.254,-.341933,.8255*
20,1,.254,-.341933,.8255,.341933,.8255,0.0*
1,1,.254,.341933,.8255*
20,1,.254,.341933,.8255,.8255,.341933,0.0*
1,1,.254,.8255,.341933*
20,1,.254,.8255,.341933,.8255,-.341933,0.0*
1,1,.254,.8255,-.341933*
20,1,.254,.8255,-.341933,.341933,-.8255,0.0*
1,1,.254,.341933,-.8255*
1,1,.254,-.2751,-.4127*
20,1,.254,-.2751,-.4127,-.2751,.4128,0.0*
1,1,.254,-.2751,.4128*
20,1,.254,-.2751,.4128,.0551,.4128,0.0*
1,1,.254,.0551,.4128*
20,1,.254,.0551,.4128,.1652,.3715,0.0*
1,1,.254,.1652,.3715*
20,1,.254,.1652,.3715,.2477,.2752,0.0*
1,1,.254,.2477,.2752*
20,1,.254,.2477,.2752,.2752,.1652,0.0*
1,1,.254,.2752,.1652*
20,1,.254,.2752,.1652,.2477,.0551,0.0*
1,1,.254,.2477,.0551*
20,1,.254,.2477,.0551,.1789,-.0275,0.0*
1,1,.254,.1789,-.0275*
20,1,.254,.1789,-.0275,.0551,-.0688,0.0*
1,1,.254,.0551,-.0688*
20,1,.254,.0551,-.0688,-.2751,-.0688,0.0*
1,1,.254,-.2751,-.0688*
%
%ADD16MACRO16*%
%AMMACRO18*
1,1,.254,0.0,.762*
20,1,.254,0.0,.762,.659911,-.381,0.0*
1,1,.254,.659911,-.381*
20,1,.254,.659911,-.381,-.659911,-.381,0.0*
1,1,.254,-.659911,-.381*
20,1,.254,-.659911,-.381,0.0,.762,0.0*
1,1,.254,0.0,.762*
%
%ADD18MACRO18*%
%ADD21C,.1*%
%ADD22C,.12*%
%ADD23C,.001*%
%ADD24C,.152*%
%ADD25C,.127*%
%ADD26C,.254*%
%ADD27C,.635*%
%ADD28C,.3048*%
G75*
%LPD*%
G75*
G36*
G01X-7792500Y-500000D02*
X-7830000Y-300000D01*
X-7867500Y-500000D01*
X-7792500D01*
G37*
G36*
G01X-7867500Y160000D02*
X-7830000Y-40000D01*
X-7792500Y160000D01*
X-7867500D01*
G37*
G36*
G01X-7382500Y-240000D02*
X-7420000Y-40000D01*
X-7457500Y-240000D01*
X-7382500D01*
G37*
G36*
G01X-7457500Y370000D02*
X-7420000Y170000D01*
X-7382500Y370000D01*
X-7457500D01*
G37*
G36*
G01X-7187500D02*
X-7150000Y170000D01*
X-7112500Y370000D01*
X-7187500D01*
G37*
G36*
G01X-7112500Y6070000D02*
X-7150000Y6270000D01*
X-7187500Y6070000D01*
X-7112500D01*
G37*
G36*
G01X-6360000Y-912500D02*
X-6560000Y-950000D01*
X-6360000Y-987500D01*
Y-912500D01*
G37*
G36*
G01X-6360010Y6837500D02*
X-6560010Y6800000D01*
X-6360010Y6762500D01*
Y6837500D01*
G37*
G36*
G01X-6360000Y7087500D02*
X-6560000Y7050000D01*
X-6360000Y7012500D01*
Y7087500D01*
G37*
G36*
G01X-5610000Y-987500D02*
X-5410000Y-950000D01*
X-5610000Y-912500D01*
Y-987500D01*
G37*
G36*
G01X-5538480Y-37070D02*
X-5439060Y140480D01*
X-5596040Y11010D01*
X-5538480Y-37070D01*
G37*
G36*
G01X-5210000Y-912500D02*
X-5410000Y-950000D01*
X-5210000Y-987500D01*
Y-912500D01*
G37*
G36*
G01X-4140000D02*
X-4340000Y-950000D01*
X-4140000Y-987500D01*
Y-912500D01*
G37*
G36*
G01X-4540000Y-987500D02*
X-4340000Y-950000D01*
X-4540000Y-912500D01*
Y-987500D01*
G37*
G36*
G01X-4494110Y-233050D02*
X-4359970Y-80040D01*
X-4540430Y-174070D01*
X-4494110Y-233050D01*
G37*
G36*
G01X-4031230Y6434140D02*
X-3870120Y6309850D01*
X-3975260Y6484070D01*
X-4031230Y6434140D01*
G37*
G36*
G01X-4050000Y6762500D02*
X-3850000Y6800000D01*
X-4050000Y6837500D01*
Y6762500D01*
G37*
G36*
G01X-3650000Y6837500D02*
X-3850000Y6800000D01*
X-3650000Y6762500D01*
Y6837500D01*
G37*
G36*
G01X200000Y-562500D02*
X0Y-600000D01*
X200000Y-637500D01*
Y-562500D01*
G37*
G36*
G01X890000Y-987500D02*
X1090000Y-950000D01*
X890000Y-912500D01*
Y-987500D01*
G37*
G36*
G01Y-637500D02*
X1090000Y-600000D01*
X890000Y-562500D01*
Y-637500D01*
G37*
G36*
G01Y6762500D02*
X1090000Y6800000D01*
X890000Y6837500D01*
Y6762500D01*
G37*
G36*
G01Y7012500D02*
X1090000Y7050000D01*
X890000Y7087500D01*
Y7012500D01*
G37*
G36*
G01X1437500Y-500000D02*
X1400000Y-300000D01*
X1362500Y-500000D01*
X1437500D01*
G37*
G36*
G01X1362500Y200000D02*
X1400000Y0D01*
X1437500Y200000D01*
X1362500D01*
G37*
G36*
G01X1712500Y-100000D02*
X1750000Y-300000D01*
X1787500Y-100000D01*
X1712500D01*
G37*
G36*
G01X1787500Y6400000D02*
X1750000Y6600000D01*
X1712500Y6400000D01*
X1787500D01*
G37*
G54D10*
X-6379000Y1525000D03*
Y2975000D03*
X3680800Y647500D03*
G54D20*
X-106500Y434500D03*
X198500Y5872500D03*
X3680800Y1917500D03*
G54D11*
X-6415000Y1245000D03*
Y3255000D03*
X-6135000Y1245000D03*
Y3255000D03*
X-5880200Y1900000D03*
Y2200000D03*
Y2650000D03*
Y2500000D03*
Y2350000D03*
X-5508030Y2983530D03*
X-5290570D03*
X-5341980Y2932120D03*
X-5456620D03*
X-5060000Y5762500D03*
X-4938590Y970570D03*
X-4658350Y931150D03*
X-4990000Y1021980D03*
X-4697700Y1405000D03*
X-4700000Y1195000D03*
X-4938590Y1188030D03*
X-5051410Y1401270D03*
X-5000000Y1452680D03*
X-4990000Y1136620D03*
X-4650000Y1610000D03*
X-5051410Y1618730D03*
X-5000000Y1567320D03*
X-4639860Y3160040D03*
X-4640000Y2990000D03*
X-4710000Y3140910D03*
Y3031690D03*
X-5050000Y6057500D03*
X-4501150Y931150D03*
X-4322300Y1405000D03*
X-4390000Y1610000D03*
X-4328590Y2030570D03*
Y2248030D03*
X-4380000Y2081980D03*
Y2196620D03*
Y2670000D03*
Y2410000D03*
X-4400000Y2965000D03*
X-4245000Y3125000D03*
X-4267200Y2895600D03*
X-4400000Y3375000D03*
X-4527500Y5910000D03*
X-3860000Y880000D03*
X-4120000D03*
X-4130000Y1850000D03*
X-3870000D03*
X-3920000Y2230000D03*
X-4165600Y2628900D03*
X-3810000Y2430000D03*
X-3911600Y2667000D03*
X-4160000Y2550000D03*
X-4150000Y2425700D03*
X-4192570Y2696420D03*
X-4140000Y2957600D03*
X-3810000Y2781300D03*
X-3924300Y2895600D03*
X-3858400Y3566300D03*
X-3830000Y4420000D03*
Y4530000D03*
X-3940000Y6120000D03*
X-3859500Y5840500D03*
X-3540000Y0D03*
X-3695700Y-95100D03*
X-3350000Y360000D03*
X-3766100Y1430000D03*
X-3416300Y1295400D03*
Y1143000D03*
Y1435100D03*
X-3746500Y1143000D03*
X-3730000Y1683300D03*
X-3403600Y1803400D03*
X-3490000Y1810000D03*
X-3598000Y1820000D03*
X-3540000Y2225000D03*
X-3543300Y2476500D03*
X-3695700Y2667000D03*
X-3470000Y2400000D03*
X-3556000Y3124200D03*
X-3470000Y2970000D03*
X-3695700Y2895600D03*
X-3365500Y3352800D03*
X-3644900Y3568700D03*
X-3556000D03*
X-3550000Y4381500D03*
Y4254500D03*
X-3581400Y4156300D03*
X-3550000Y4826000D03*
Y4699000D03*
Y4572000D03*
Y4980000D03*
X-3607040Y4894030D03*
X-3400000Y5560000D03*
X-3551970Y5571410D03*
X-3769430D03*
X-3718020Y5520000D03*
X-3603380D03*
X-3590000Y6045200D03*
Y5930900D03*
X-3760000Y5850000D03*
X-2930000Y-55000D03*
X-3090000D03*
X-3140000Y340000D03*
X-3220000Y615400D03*
X-3009900Y520700D03*
X-2960000Y830000D03*
X-3280000Y660000D03*
X-3227300Y712700D03*
X-3149600Y825500D03*
X-3124200Y1295400D03*
Y1143000D03*
X-3263900Y1435100D03*
Y1143000D03*
X-3116410Y1436660D03*
X-3269400Y1291700D03*
X-3211610Y1803440D03*
X-3018150Y1738160D03*
X-3327400Y1778000D03*
X-3170000Y1880000D03*
X-2985000Y2440000D03*
X-3127700Y2700000D03*
X-3269700Y3168100D03*
X-3040000Y3130000D03*
X-3220000Y2870000D03*
X-2927900Y3130000D03*
X-3210000Y2970000D03*
X-3127700Y2860000D03*
X-2933700Y3416300D03*
X-3009900Y3644900D03*
X-2971800Y4419600D03*
X-2959100Y4241800D03*
X-3225800Y4381500D03*
Y4254500D03*
X-3240000Y4572000D03*
Y4699000D03*
Y4820000D03*
Y4953000D03*
X-2850000Y30000D03*
X-2857500Y190500D03*
X-2882900Y520700D03*
X-2755900D03*
X-2850000Y360000D03*
X-2882900Y800100D03*
X-2755900D03*
X-2518590Y906680D03*
X-2580000Y820000D03*
X-2570000Y958090D03*
X-2730000Y1241700D03*
X-2693150Y1403150D03*
X-2740000Y1070000D03*
X-2518590Y1118720D03*
X-2570000Y1067310D03*
X-2790000Y1550000D03*
X-2700000Y1920000D03*
X-2730000Y2430000D03*
X-2810000Y2350000D03*
X-2701970Y2360290D03*
X-2575000Y2427500D03*
X-2600000Y2670000D03*
X-2630000Y2350000D03*
X-2892300Y2700000D03*
X-2760000Y3130000D03*
X-2740000Y2910000D03*
X-2649570Y2910440D03*
X-2575000Y2912500D03*
X-2892300Y2860000D03*
X-2857500Y3340100D03*
X-2781300Y3644900D03*
X-2895600D03*
X-2781300Y4445000D03*
Y4584700D03*
X-2566600Y4957700D03*
X-2781300Y4890000D03*
X-2910000Y5502100D03*
Y5649600D03*
Y6080000D03*
Y5797100D03*
Y6380000D03*
Y6230000D03*
X-2106000Y352700D03*
X-2495000Y1830000D03*
X-2310000Y2230000D03*
X-2400000Y1950000D03*
X-2270000Y2320000D03*
X-2470000Y2430000D03*
X-2370000Y2350000D03*
X-2085000Y2670000D03*
X-2340000Y2562300D03*
X-2470000Y2910000D03*
X-2340580Y3022560D03*
X-2200000Y3030000D03*
X-2391990Y3073970D03*
X-2340000Y2797700D03*
X-2340580Y3240020D03*
X-2391990Y3188610D03*
X-2260000Y4440000D03*
X-2130000Y4770000D03*
X-2255400Y4850000D03*
X-2413000Y4813300D03*
Y4724400D03*
X-2137300Y5102450D03*
X-2210000Y5297300D03*
X-2137560Y5657710D03*
X-2240000Y6140000D03*
X-2270000Y5758200D03*
X-1716000Y352700D03*
X-1846000D03*
X-1976000D03*
X-1770000Y1370000D03*
Y1100000D03*
X-2050000Y2230000D03*
Y1920000D03*
X-1880000Y2320000D03*
X-1780000D03*
X-1730000Y3170000D03*
Y2970000D03*
X-1940000Y3590000D03*
X-1880000Y3460000D03*
X-1868200Y3550940D03*
X-1660000Y3540000D03*
X-1755000D03*
X-1932670Y3517320D03*
Y3402680D03*
X-1723700Y3996300D03*
X-1820800Y3950000D03*
X-1820000Y3870000D03*
X-1810000Y4115000D03*
X-1820000Y4210000D03*
X-2004600Y4860000D03*
X-1710000Y4660900D03*
X-1972700Y5125000D03*
X-2060000Y5297300D03*
X-1910000D03*
X-1990000Y5660000D03*
X-1820000D03*
X-1700000Y5765360D03*
Y5880000D03*
Y6134640D03*
Y6020000D03*
X-1630000Y345000D03*
X-1260000Y705000D03*
X-1341410Y2231970D03*
X-1290000Y2283380D03*
X-1341410Y2449430D03*
X-1630000Y2570000D03*
X-1600000Y2440000D03*
X-1290000Y2398020D03*
X-1530000Y3120000D03*
X-1430000D03*
X-1530000Y3020000D03*
X-1430000D03*
X-1480000Y3070000D03*
X-1536430Y2820000D03*
X-1427210D03*
X-1240000Y2910000D03*
X-1630000Y3220000D03*
X-1320000Y3590000D03*
X-1267500Y3517500D03*
X-1330000Y3220000D03*
X-1580000Y3560000D03*
X-1230000Y3220000D03*
X-1370000Y4395000D03*
X-1439200Y4660000D03*
X-1370000Y4470000D03*
Y4585000D03*
X-1610000Y4470000D03*
X-1284700Y5186500D03*
X-1238600Y4955000D03*
X-1233600Y5030000D03*
X-1630000Y5740000D03*
Y6000000D03*
Y6160000D03*
Y5900000D03*
X-870000Y305000D03*
X-1002400Y550000D03*
X-1120000Y540000D03*
X-876500Y900000D03*
X-1000000Y1480000D03*
X-1130500Y1360000D03*
X-840000Y1680000D03*
X-820200Y1825000D03*
X-1092500Y1820000D03*
X-1090000Y1680000D03*
X-1092500Y1920000D03*
X-850000D03*
X-1092500Y2015000D03*
X-1070000Y2445000D03*
X-1080000Y2680000D03*
X-1010000Y3120000D03*
Y3010000D03*
X-1046050Y3272500D03*
X-820000Y3540000D03*
X-1120000Y3680000D03*
X-964100Y3650000D03*
X-1040000Y3996300D03*
X-896920Y3890000D03*
X-964100Y4110000D03*
X-990000Y4322300D03*
X-1050000Y4796500D03*
X-1110000Y4560000D03*
X-1000000Y4730000D03*
X-1150000Y4796500D03*
Y4869200D03*
X-820000Y4585000D03*
X-1000000Y4950000D03*
X-970000Y5470000D03*
X-1180000Y5500400D03*
X-1060000Y5645000D03*
X-970000Y6055000D03*
X-1180000Y6085400D03*
X-960000Y5902700D03*
X-1060000D03*
X-1160000Y5750000D03*
X-880000Y5900000D03*
X-1180000Y6380400D03*
X-960000Y6490000D03*
X-1060000D03*
X-880000D03*
X-1060000Y6230000D03*
X-780000Y130000D03*
X-539430Y108590D03*
X-488020Y160000D03*
X-373380D03*
X-780000Y215000D03*
X-436500Y740500D03*
X-749500Y900000D03*
X-640000Y1340000D03*
Y1420000D03*
X-436500Y1629500D03*
Y1883500D03*
X-570000Y1905000D03*
X-437500Y2392500D03*
X-436500Y2645500D03*
Y3153500D03*
Y3407500D03*
X-570000Y3490000D03*
X-770000Y3400000D03*
X-670000Y3460000D03*
X-436500Y3915500D03*
X-482600Y4614000D03*
X-680000Y4580000D03*
X-669710Y4508030D03*
X-760000Y4510000D03*
X-413400Y5059160D03*
X-600000Y5140000D03*
X-570000Y4930000D03*
X-680000Y4991500D03*
X-630000Y5050000D03*
X-710000Y5121500D03*
X-436500Y5566500D03*
X-770000Y5615000D03*
X-520000Y5500000D03*
Y5710000D03*
X-600220Y5665490D03*
Y5550850D03*
X-680000Y5825000D03*
X-620000Y5900000D03*
X-560000Y6070000D03*
X-600220Y6135850D03*
X-620000Y6410000D03*
Y6490000D03*
X-770000Y6200000D03*
X-562340Y6312550D03*
X-600220Y6250490D03*
X-321970Y108590D03*
X-55500Y613500D03*
X-309500D03*
X-182500D03*
X-309500Y867500D03*
X-55500D03*
X-182500Y740500D03*
X-55500D03*
Y1248500D03*
X-309500D03*
X-182500Y1121500D03*
X-309000Y1121000D03*
X-52500Y1632500D03*
X-182500Y1883500D03*
Y1629500D03*
X-309500D03*
X-59000Y2141000D03*
X-311000Y2139000D03*
X-182500Y2137500D03*
X-178000Y2260000D03*
X-55500Y2391500D03*
X-182500D03*
Y2645500D03*
X-309500Y2391500D03*
X-61940Y2503220D03*
X-50800Y2641600D03*
X-182500Y3153500D03*
X-309500Y2899500D03*
X-58800Y2775800D03*
X-58000Y2902000D03*
X-49000Y3020000D03*
X-50000Y3148000D03*
X-299000Y3270000D03*
X-46000Y3290000D03*
X-50000Y3413000D03*
X-309500Y3661500D03*
X-182500Y3915500D03*
X-55500D03*
Y3661500D03*
X-309500Y3915500D03*
Y4296500D03*
X-51000Y4419000D03*
X-182500Y4296500D03*
X-55500D03*
Y4169500D03*
Y4804500D03*
X-182500Y4550500D03*
X-309500Y4804500D03*
X-177800Y4799800D03*
X-55880Y4551680D03*
X-53340Y4676140D03*
X-182500Y5058500D03*
X-309500D03*
X-55500Y5312500D03*
X-319000Y5249000D03*
X-177800Y4926800D03*
X-53340Y4929340D03*
Y5056340D03*
X-55500Y5693500D03*
X-309500D03*
X-310000Y5430000D03*
X-180000Y5690000D03*
X-182500Y5439500D03*
X-55880Y5440680D03*
X-53340Y5565140D03*
X325500Y613500D03*
X452500D03*
X198500D03*
X325500Y867500D03*
X452500Y740500D03*
Y994500D03*
Y867500D03*
X198500D03*
X199500Y739500D03*
X325500Y994500D03*
Y740500D03*
Y1121500D03*
X452500Y1248500D03*
Y1121500D03*
X198500Y1248500D03*
X195000Y1125000D03*
X452500Y1629500D03*
X198500D03*
X325500D03*
X452500Y1883500D03*
Y1756500D03*
Y2010500D03*
X325500Y2137500D03*
X452500D03*
X200000Y2012000D03*
X323000Y2013000D03*
X200000Y2270000D03*
X452500Y2518500D03*
X325500D03*
X71500Y2645500D03*
X452500D03*
X328500Y2388500D03*
X325500Y3026500D03*
X452500Y3153500D03*
X325500D03*
X77500Y3147500D03*
X329000Y2769000D03*
X77000Y2767000D03*
X198000Y3408000D03*
X452500Y3280500D03*
X325500Y3407500D03*
X71500Y3280500D03*
X325500Y3534500D03*
X198500Y3661500D03*
X201500Y3918500D03*
X325500Y3915500D03*
X325000Y3790000D03*
X325500Y3661500D03*
X452500Y4042500D03*
Y4169500D03*
X198500Y4423500D03*
Y4169500D03*
X327660Y4043680D03*
X453860Y4425660D03*
X453000Y4297000D03*
X329500Y4300500D03*
X325500Y4804500D03*
X200500Y4679500D03*
X325500Y4550500D03*
X71500Y5185500D03*
X325000Y5185000D03*
X325500Y5058500D03*
X326500Y5313500D03*
X70000Y5060000D03*
X325500Y4931500D03*
Y5439500D03*
X326000Y5694000D03*
X71500Y5439500D03*
X325000Y5565000D03*
X71500Y5566500D03*
X706500Y613500D03*
Y994500D03*
X579500Y867500D03*
Y740500D03*
Y1248500D03*
Y1375500D03*
X706500Y1121500D03*
Y1502500D03*
X579500Y1756500D03*
X706500Y1629500D03*
X579500Y1883500D03*
Y2264500D03*
X706500Y2010500D03*
Y2137500D03*
Y2645500D03*
X579500Y2391500D03*
X706500Y2518500D03*
X704500Y2774500D03*
X579500Y3026500D03*
X706500Y3153500D03*
X579500Y3407500D03*
X706500Y3280500D03*
X579500Y3534500D03*
X579000Y3661000D03*
X579500Y3915500D03*
X580500Y3789500D03*
X706500Y3661500D03*
Y3788500D03*
Y4296500D03*
X579500D03*
Y4042500D03*
X706500Y4169500D03*
X579500D03*
X580680Y4423880D03*
X706500Y4804500D03*
Y4550500D03*
X579500Y4677500D03*
X572500Y4797500D03*
X579500Y4931500D03*
X706500Y5185500D03*
Y5312500D03*
X578500Y5311500D03*
X577000Y5183000D03*
X579500Y5058500D03*
Y5439500D03*
X706500Y5693500D03*
X577500Y5692500D03*
X579500Y5566500D03*
X3680800Y6362500D03*
G54D21*
G01X-7996000Y-183330D02*
X-7993000Y-178330D01*
X-7989500Y-175830D01*
X-7985500Y-175000D01*
X-7980500Y-176670D01*
X-7977000Y-180830D01*
X-7976000Y-185830D01*
X-7976500Y-190830D01*
X-7978500Y-195000D01*
X-7988500Y-203330D01*
X-7993000Y-209170D01*
X-7996000Y-217500D01*
X-7997000Y-225000D01*
X-7976000D01*
G01X-7951500Y-226670D02*
X-7952500Y-225830D01*
Y-224170D01*
X-7951500Y-223330D01*
X-7950500Y-224170D01*
Y-225830D01*
X-7951500Y-226670D01*
G01X-7926000Y-204170D02*
X-7922500Y-198330D01*
X-7919500Y-195000D01*
X-7915500Y-193330D01*
X-7912000Y-195000D01*
X-7909500Y-198330D01*
X-7907500Y-203330D01*
X-7907000Y-209170D01*
X-7907500Y-214170D01*
X-7909500Y-219170D01*
X-7912500Y-223330D01*
X-7916000Y-225000D01*
X-7920000Y-223330D01*
X-7923500Y-218330D01*
X-7925500Y-210830D01*
X-7926000Y-202500D01*
X-7925000Y-191670D01*
X-7923500Y-185830D01*
X-7921000Y-180000D01*
X-7917500Y-175830D01*
X-7914000Y-175000D01*
X-7910500Y-176670D01*
X-7908000Y-180830D01*
G01X-7586000Y36670D02*
X-7583000Y41670D01*
X-7579500Y44170D01*
X-7575500Y45000D01*
X-7570500Y43330D01*
X-7567000Y39170D01*
X-7566000Y34170D01*
X-7566500Y29170D01*
X-7568500Y25000D01*
X-7578500Y16670D01*
X-7583000Y10830D01*
X-7586000Y2500D01*
X-7587000Y-5000D01*
X-7566000D01*
G01X-7541500Y-6670D02*
X-7542500Y-5830D01*
Y-4170D01*
X-7541500Y-3330D01*
X-7540500Y-4170D01*
Y-5830D01*
X-7541500Y-6670D01*
G01X-7506500Y-5000D02*
Y45000D01*
X-7512500Y35000D01*
G01Y-5000D02*
X-7500500D01*
G01X-7255250Y3285830D02*
X-7251750Y3291670D01*
X-7248750Y3295000D01*
X-7244750Y3296670D01*
X-7241250Y3295000D01*
X-7238750Y3291670D01*
X-7236750Y3286670D01*
X-7236250Y3280830D01*
X-7236750Y3275830D01*
X-7238750Y3270830D01*
X-7241750Y3266670D01*
X-7245250Y3265000D01*
X-7249250Y3266670D01*
X-7252750Y3271670D01*
X-7254750Y3279170D01*
X-7255250Y3287500D01*
X-7254250Y3298330D01*
X-7252750Y3304170D01*
X-7250250Y3310000D01*
X-7246750Y3314170D01*
X-7243250Y3315000D01*
X-7239750Y3313330D01*
X-7237250Y3309170D01*
G01X-7210750Y3265000D02*
Y3315000D01*
X-7216750Y3305000D01*
G01Y3265000D02*
X-7204750D01*
G01X-6162250Y-1025000D02*
Y-965000D01*
X-6170250Y-977000D01*
G01Y-1025000D02*
X-6154250D01*
G01X-6117250D02*
Y-965000D01*
X-6125250Y-977000D01*
G01Y-1025000D02*
X-6109250D01*
G01X-6072250Y-1027000D02*
X-6073580Y-1026000D01*
Y-1024000D01*
X-6072250Y-1023000D01*
X-6070920Y-1024000D01*
Y-1026000D01*
X-6072250Y-1027000D01*
G01X-6041920Y-1016000D02*
X-6037920Y-1021000D01*
X-6033250Y-1024000D01*
X-6027250Y-1025000D01*
X-6021250Y-1023000D01*
X-6016580Y-1019000D01*
X-6013250Y-1012000D01*
X-6012580Y-1004000D01*
X-6013920Y-996000D01*
X-6017250Y-991000D01*
X-6021920Y-987000D01*
X-6026580Y-986000D01*
X-6031250Y-987000D01*
X-6037250Y-991000D01*
X-6035250Y-965000D01*
X-6017250D01*
G01X-6125750Y-235000D02*
Y-185000D01*
X-6113250D01*
X-6109250Y-187500D01*
X-6106750Y-190830D01*
X-6105750Y-197500D01*
X-6106750Y-204170D01*
X-6109750Y-208330D01*
X-6113250Y-210830D01*
X-6125750D01*
G01X-6113250D02*
X-6105750Y-235000D01*
G01X-6080750D02*
Y-185000D01*
X-6086750Y-195000D01*
G01Y-235000D02*
X-6074750D01*
G01X-5476750Y6766670D02*
X-5473750Y6771670D01*
X-5470250Y6774170D01*
X-5466250Y6775000D01*
X-5461250Y6773330D01*
X-5457750Y6769170D01*
X-5456750Y6764170D01*
X-5457250Y6759170D01*
X-5459250Y6755000D01*
X-5469250Y6746670D01*
X-5473750Y6740830D01*
X-5476750Y6732500D01*
X-5477750Y6725000D01*
X-5456750D01*
G01X-5433250D02*
X-5432250Y6735830D01*
X-5430750Y6745000D01*
X-5428750Y6753330D01*
X-5426250Y6762500D01*
X-5422250Y6775000D01*
X-5442250D01*
G01X-5397250Y6723330D02*
X-5398250Y6724170D01*
Y6725830D01*
X-5397250Y6726670D01*
X-5396250Y6725830D01*
Y6724170D01*
X-5397250Y6723330D01*
G01X-5362250Y6725000D02*
Y6775000D01*
X-5368250Y6765000D01*
G01Y6725000D02*
X-5356250D01*
G01X-5062250Y-1025000D02*
Y-965000D01*
X-5070250Y-977000D01*
G01Y-1025000D02*
X-5054250D01*
G01X-5017250Y-965000D02*
X-5022580Y-967000D01*
X-5026580Y-972000D01*
X-5029250Y-978000D01*
X-5031250Y-986000D01*
X-5031920Y-995000D01*
X-5031250Y-1004000D01*
X-5029250Y-1012000D01*
X-5026580Y-1018000D01*
X-5022580Y-1023000D01*
X-5017250Y-1025000D01*
X-5011920Y-1023000D01*
X-5007920Y-1018000D01*
X-5005250Y-1012000D01*
X-5003250Y-1004000D01*
X-5002580Y-995000D01*
X-5003250Y-986000D01*
X-5005250Y-978000D01*
X-5007920Y-972000D01*
X-5011920Y-967000D01*
X-5017250Y-965000D01*
G01X-4972250Y-1027000D02*
X-4973580Y-1026000D01*
Y-1024000D01*
X-4972250Y-1023000D01*
X-4970920Y-1024000D01*
Y-1026000D01*
X-4972250Y-1027000D01*
G01X-4928580Y-1025000D02*
X-4927250Y-1012000D01*
X-4925250Y-1001000D01*
X-4922580Y-991000D01*
X-4919250Y-980000D01*
X-4913920Y-965000D01*
X-4940580D01*
G01X-4955750Y-265000D02*
Y-215000D01*
X-4943250D01*
X-4939250Y-217500D01*
X-4936750Y-220830D01*
X-4935750Y-227500D01*
X-4936750Y-234170D01*
X-4939750Y-238330D01*
X-4943250Y-240830D01*
X-4955750D01*
G01X-4943250D02*
X-4935750Y-265000D01*
G01X-4910750D02*
Y-215000D01*
X-4916750Y-225000D01*
G01Y-265000D02*
X-4904750D01*
G01X-4625750Y6515000D02*
Y6565000D01*
X-4613250D01*
X-4609250Y6562500D01*
X-4606750Y6559170D01*
X-4605750Y6552500D01*
X-4606750Y6545830D01*
X-4609750Y6541670D01*
X-4613250Y6539170D01*
X-4625750D01*
G01X-4613250D02*
X-4605750Y6515000D01*
G01X-4580750D02*
Y6565000D01*
X-4586750Y6555000D01*
G01Y6515000D02*
X-4574750D01*
G01X-3068250Y6975000D02*
X-3067250Y6985830D01*
X-3065750Y6995000D01*
X-3063750Y7003330D01*
X-3061250Y7012500D01*
X-3057250Y7025000D01*
X-3077250D01*
G01X-3041750Y6995830D02*
X-3038250Y7001670D01*
X-3035250Y7005000D01*
X-3031250Y7006670D01*
X-3027750Y7005000D01*
X-3025250Y7001670D01*
X-3023250Y6996670D01*
X-3022750Y6990830D01*
X-3023250Y6985830D01*
X-3025250Y6980830D01*
X-3028250Y6976670D01*
X-3031750Y6975000D01*
X-3035750Y6976670D01*
X-3039250Y6981670D01*
X-3041250Y6989170D01*
X-3041750Y6997500D01*
X-3040750Y7008330D01*
X-3039250Y7014170D01*
X-3036750Y7020000D01*
X-3033250Y7024170D01*
X-3029750Y7025000D01*
X-3026250Y7023330D01*
X-3023750Y7019170D01*
G01X-2997250Y6973330D02*
X-2998250Y6974170D01*
Y6975830D01*
X-2997250Y6976670D01*
X-2996250Y6975830D01*
Y6974170D01*
X-2997250Y6973330D01*
G01X-2973250Y6982500D02*
X-2970250Y6978330D01*
X-2966750Y6975830D01*
X-2962250Y6975000D01*
X-2957750Y6976670D01*
X-2954250Y6980000D01*
X-2951750Y6985830D01*
X-2951250Y6992500D01*
X-2952250Y6999170D01*
X-2954750Y7003330D01*
X-2958250Y7006670D01*
X-2961750Y7007500D01*
X-2965250Y7006670D01*
X-2969750Y7003330D01*
X-2968250Y7025000D01*
X-2954750D01*
G01X-1826920Y-1016000D02*
X-1822920Y-1021000D01*
X-1818250Y-1024000D01*
X-1812250Y-1025000D01*
X-1806250Y-1023000D01*
X-1801580Y-1019000D01*
X-1798250Y-1012000D01*
X-1797580Y-1004000D01*
X-1798920Y-996000D01*
X-1802250Y-991000D01*
X-1806920Y-987000D01*
X-1811580Y-986000D01*
X-1816250Y-987000D01*
X-1822250Y-991000D01*
X-1820250Y-965000D01*
X-1802250D01*
G01X-1759250Y-1025000D02*
Y-965000D01*
X-1783920Y-1008000D01*
X-1750580D01*
G01X-1722250Y-1027000D02*
X-1723580Y-1026000D01*
Y-1024000D01*
X-1722250Y-1023000D01*
X-1720920Y-1024000D01*
Y-1026000D01*
X-1722250Y-1027000D01*
G01X-1691920Y-1013000D02*
X-1687920Y-1020000D01*
X-1682580Y-1024000D01*
X-1676580Y-1025000D01*
X-1671250Y-1024000D01*
X-1665920Y-1019000D01*
X-1662580Y-1013000D01*
X-1661920Y-1007000D01*
X-1663250Y-1000000D01*
X-1667920Y-995000D01*
X-1672580Y-993000D01*
X-1678580D01*
G01X-1672580D02*
X-1668580Y-990000D01*
X-1665250Y-985000D01*
X-1663920Y-979000D01*
X-1665250Y-973000D01*
X-1668580Y-968000D01*
X-1674580Y-965000D01*
X-1680580Y-966000D01*
X-1686580Y-970000D01*
G01X-1561250Y6725000D02*
Y6775000D01*
X-1579750Y6739170D01*
X-1554750D01*
G01X-1540750Y6730830D02*
X-1537250Y6726670D01*
X-1533250Y6725000D01*
X-1529250Y6726670D01*
X-1525750Y6731670D01*
X-1523250Y6739170D01*
X-1522250Y6746670D01*
Y6755830D01*
X-1523250Y6763330D01*
X-1525750Y6770000D01*
X-1528750Y6773330D01*
X-1532250Y6775000D01*
X-1536250Y6773330D01*
X-1539250Y6770000D01*
X-1541250Y6765000D01*
X-1542250Y6758330D01*
X-1541250Y6752500D01*
X-1538750Y6746670D01*
X-1535750Y6743330D01*
X-1532250Y6742500D01*
X-1528250Y6744170D01*
X-1525250Y6748330D01*
X-1522250Y6755830D01*
G01X-1497250Y6723330D02*
X-1498250Y6724170D01*
Y6725830D01*
X-1497250Y6726670D01*
X-1496250Y6725830D01*
Y6724170D01*
X-1497250Y6723330D01*
G01X-1456250Y6725000D02*
Y6775000D01*
X-1474750Y6739170D01*
X-1449750D01*
G01X287750Y-675000D02*
Y-615000D01*
X279750Y-627000D01*
G01Y-675000D02*
X295750D01*
G01X332750Y-615000D02*
X327420Y-617000D01*
X323420Y-622000D01*
X320750Y-628000D01*
X318750Y-636000D01*
X318080Y-645000D01*
X318750Y-654000D01*
X320750Y-662000D01*
X323420Y-668000D01*
X327420Y-673000D01*
X332750Y-675000D01*
X338080Y-673000D01*
X342080Y-668000D01*
X344750Y-662000D01*
X346750Y-654000D01*
X347420Y-645000D01*
X346750Y-636000D01*
X344750Y-628000D01*
X342080Y-622000D01*
X338080Y-617000D01*
X332750Y-615000D01*
G01X377750Y-677000D02*
X376420Y-676000D01*
Y-674000D01*
X377750Y-673000D01*
X379080Y-674000D01*
Y-676000D01*
X377750Y-677000D01*
G01X411420Y-668000D02*
X416080Y-673000D01*
X421420Y-675000D01*
X426750Y-673000D01*
X431420Y-667000D01*
X434750Y-658000D01*
X436080Y-649000D01*
Y-638000D01*
X434750Y-629000D01*
X431420Y-621000D01*
X427420Y-617000D01*
X422750Y-615000D01*
X417420Y-617000D01*
X413420Y-621000D01*
X410750Y-627000D01*
X409420Y-635000D01*
X410750Y-642000D01*
X414080Y-649000D01*
X418080Y-653000D01*
X422750Y-654000D01*
X428080Y-652000D01*
X432080Y-647000D01*
X436080Y-638000D01*
G01X1355330Y-213000D02*
X1359330Y-220000D01*
X1364670Y-224000D01*
X1370670Y-225000D01*
X1376000Y-224000D01*
X1381330Y-219000D01*
X1384670Y-213000D01*
X1385330Y-207000D01*
X1384000Y-200000D01*
X1379330Y-195000D01*
X1374670Y-193000D01*
X1368670D01*
G01X1374670D02*
X1378670Y-190000D01*
X1382000Y-185000D01*
X1383330Y-179000D01*
X1382000Y-173000D01*
X1378670Y-168000D01*
X1372670Y-165000D01*
X1366670Y-166000D01*
X1360670Y-170000D01*
G01X1646580Y3200000D02*
X1651250Y3207000D01*
X1655250Y3211000D01*
X1660580Y3213000D01*
X1665250Y3211000D01*
X1668580Y3207000D01*
X1671250Y3201000D01*
X1671920Y3194000D01*
X1671250Y3188000D01*
X1668580Y3182000D01*
X1664580Y3177000D01*
X1659920Y3175000D01*
X1654580Y3177000D01*
X1649920Y3183000D01*
X1647250Y3192000D01*
X1646580Y3202000D01*
X1647920Y3215000D01*
X1649920Y3222000D01*
X1653250Y3229000D01*
X1657920Y3234000D01*
X1662580Y3235000D01*
X1667250Y3233000D01*
X1670580Y3228000D01*
G01X1692920Y3182000D02*
X1697580Y3177000D01*
X1702920Y3175000D01*
X1708250Y3177000D01*
X1712920Y3183000D01*
X1716250Y3192000D01*
X1717580Y3201000D01*
Y3212000D01*
X1716250Y3221000D01*
X1712920Y3229000D01*
X1708920Y3233000D01*
X1704250Y3235000D01*
X1698920Y3233000D01*
X1694920Y3229000D01*
X1692250Y3223000D01*
X1690920Y3215000D01*
X1692250Y3208000D01*
X1695580Y3201000D01*
X1699580Y3197000D01*
X1704250Y3196000D01*
X1709580Y3198000D01*
X1713580Y3203000D01*
X1717580Y3212000D01*
G54D12*
X-5782000Y1525000D03*
Y2975000D03*
X3680800Y12500D03*
G54D22*
G01X-6220000Y3720000D02*
X-6310000D01*
X-6410000Y3620000D01*
Y3530000D01*
G01X-3310000Y3300000D02*
X-2810000D01*
G54D13*
X-6090000Y3835600D03*
Y4693600D03*
X-5590000Y5260600D03*
X-5090000Y3835600D03*
X-4590000Y5260600D03*
X-4090000Y3835600D03*
Y4403600D03*
Y4943600D03*
X-3590000Y5260600D03*
X-2590000D03*
X3680800Y3187500D03*
G54D23*
G01X-5823000Y4885000D02*
Y4850000D01*
G01Y4855250D02*
X-5824000Y4852330D01*
X-5825500Y4850580D01*
X-5827250Y4850000D01*
X-5829250Y4851170D01*
X-5830750Y4854080D01*
X-5831750Y4857580D01*
X-5832000Y4861670D01*
X-5831750Y4865750D01*
X-5830750Y4869250D01*
X-5829250Y4872170D01*
X-5827250Y4873330D01*
X-5825500Y4872750D01*
X-5824250Y4871580D01*
X-5823000Y4869250D01*
G01X-5807500Y4873330D02*
Y4850000D01*
G01Y4882670D02*
X-5808000Y4883250D01*
Y4884420D01*
X-5807500Y4885000D01*
X-5807000Y4884420D01*
Y4883250D01*
X-5807500Y4882670D01*
G01X-5783000Y4850000D02*
Y4873330D01*
G01Y4869250D02*
X-5784000Y4871580D01*
X-5785500Y4872750D01*
X-5787250Y4873330D01*
X-5789000Y4872170D01*
X-5790500Y4869830D01*
X-5791500Y4866330D01*
X-5792000Y4861670D01*
X-5791500Y4857000D01*
X-5790500Y4853500D01*
X-5789000Y4851170D01*
X-5787250Y4850000D01*
X-5785500Y4850580D01*
X-5784000Y4852330D01*
X-5783000Y4854670D01*
G01X-5747500Y4850000D02*
Y4885000D01*
X-5750500Y4878000D01*
G01Y4850000D02*
X-5744500D01*
G01X-5727500Y4848830D02*
X-5728000Y4849420D01*
Y4850580D01*
X-5727500Y4851170D01*
X-5727000Y4850580D01*
Y4849420D01*
X-5727500Y4848830D01*
G01X-5707500Y4885000D02*
X-5709500Y4883830D01*
X-5711000Y4880920D01*
X-5712000Y4877420D01*
X-5712750Y4872750D01*
X-5713000Y4867500D01*
X-5712750Y4862250D01*
X-5712000Y4857580D01*
X-5711000Y4854080D01*
X-5709500Y4851170D01*
X-5707500Y4850000D01*
X-5705500Y4851170D01*
X-5704000Y4854080D01*
X-5703000Y4857580D01*
X-5702250Y4862250D01*
X-5702000Y4867500D01*
X-5702250Y4872750D01*
X-5703000Y4877420D01*
X-5704000Y4880920D01*
X-5705500Y4883830D01*
X-5707500Y4885000D01*
G01X-5693000Y4855250D02*
X-5691500Y4852330D01*
X-5689750Y4850580D01*
X-5687500Y4850000D01*
X-5685250Y4851170D01*
X-5683500Y4853500D01*
X-5682250Y4857580D01*
X-5682000Y4862250D01*
X-5682500Y4866920D01*
X-5683750Y4869830D01*
X-5685500Y4872170D01*
X-5687250Y4872750D01*
X-5689000Y4872170D01*
X-5691250Y4869830D01*
X-5690500Y4885000D01*
X-5683750D01*
G01X-5675000Y4850000D02*
Y4873330D01*
G01Y4866920D02*
X-5674250Y4869830D01*
X-5673000Y4872170D01*
X-5671250Y4873330D01*
X-5669500Y4872170D01*
X-5668250Y4869830D01*
X-5667500Y4866920D01*
Y4850000D01*
G01Y4866920D02*
X-5666750Y4869830D01*
X-5665500Y4872170D01*
X-5663750Y4873330D01*
X-5662000Y4872170D01*
X-5660750Y4869830D01*
X-5660000Y4866330D01*
Y4850000D01*
G01X-5655000D02*
Y4873330D01*
G01Y4866920D02*
X-5654250Y4869830D01*
X-5653000Y4872170D01*
X-5651250Y4873330D01*
X-5649500Y4872170D01*
X-5648250Y4869830D01*
X-5647500Y4866920D01*
Y4850000D01*
G01Y4866920D02*
X-5646750Y4869830D01*
X-5645500Y4872170D01*
X-5643750Y4873330D01*
X-5642000Y4872170D01*
X-5640750Y4869830D01*
X-5640000Y4866330D01*
Y4850000D01*
G01X-5610250Y4861670D02*
X-5604250D01*
G01X-5607500Y4869250D02*
Y4854080D01*
G01X-5587500Y4885000D02*
X-5589500Y4883830D01*
X-5591000Y4880920D01*
X-5592000Y4877420D01*
X-5592750Y4872750D01*
X-5593000Y4867500D01*
X-5592750Y4862250D01*
X-5592000Y4857580D01*
X-5591000Y4854080D01*
X-5589500Y4851170D01*
X-5587500Y4850000D01*
X-5585500Y4851170D01*
X-5584000Y4854080D01*
X-5583000Y4857580D01*
X-5582250Y4862250D01*
X-5582000Y4867500D01*
X-5582250Y4872750D01*
X-5583000Y4877420D01*
X-5584000Y4880920D01*
X-5585500Y4883830D01*
X-5587500Y4885000D01*
G01X-5567500Y4848830D02*
X-5568000Y4849420D01*
Y4850580D01*
X-5567500Y4851170D01*
X-5567000Y4850580D01*
Y4849420D01*
X-5567500Y4848830D01*
G01X-5547500Y4885000D02*
X-5549500Y4883830D01*
X-5551000Y4880920D01*
X-5552000Y4877420D01*
X-5552750Y4872750D01*
X-5553000Y4867500D01*
X-5552750Y4862250D01*
X-5552000Y4857580D01*
X-5551000Y4854080D01*
X-5549500Y4851170D01*
X-5547500Y4850000D01*
X-5545500Y4851170D01*
X-5544000Y4854080D01*
X-5543000Y4857580D01*
X-5542250Y4862250D01*
X-5542000Y4867500D01*
X-5542250Y4872750D01*
X-5543000Y4877420D01*
X-5544000Y4880920D01*
X-5545500Y4883830D01*
X-5547500Y4885000D01*
G01X-5533000Y4855250D02*
X-5531500Y4852330D01*
X-5529750Y4850580D01*
X-5527500Y4850000D01*
X-5525250Y4851170D01*
X-5523500Y4853500D01*
X-5522250Y4857580D01*
X-5522000Y4862250D01*
X-5522500Y4866920D01*
X-5523750Y4869830D01*
X-5525500Y4872170D01*
X-5527250Y4872750D01*
X-5529000Y4872170D01*
X-5531250Y4869830D01*
X-5530500Y4885000D01*
X-5523750D01*
G01X-5512000Y4848830D02*
X-5503000Y4885000D01*
G01X-5490750Y4861670D02*
X-5484250D01*
G01X-5467500Y4885000D02*
X-5469500Y4883830D01*
X-5471000Y4880920D01*
X-5472000Y4877420D01*
X-5472750Y4872750D01*
X-5473000Y4867500D01*
X-5472750Y4862250D01*
X-5472000Y4857580D01*
X-5471000Y4854080D01*
X-5469500Y4851170D01*
X-5467500Y4850000D01*
X-5465500Y4851170D01*
X-5464000Y4854080D01*
X-5463000Y4857580D01*
X-5462250Y4862250D01*
X-5462000Y4867500D01*
X-5462250Y4872750D01*
X-5463000Y4877420D01*
X-5464000Y4880920D01*
X-5465500Y4883830D01*
X-5467500Y4885000D01*
G01X-5447500Y4848830D02*
X-5448000Y4849420D01*
Y4850580D01*
X-5447500Y4851170D01*
X-5447000Y4850580D01*
Y4849420D01*
X-5447500Y4848830D01*
G01X-5427500Y4885000D02*
X-5429500Y4883830D01*
X-5431000Y4880920D01*
X-5432000Y4877420D01*
X-5432750Y4872750D01*
X-5433000Y4867500D01*
X-5432750Y4862250D01*
X-5432000Y4857580D01*
X-5431000Y4854080D01*
X-5429500Y4851170D01*
X-5427500Y4850000D01*
X-5425500Y4851170D01*
X-5424000Y4854080D01*
X-5423000Y4857580D01*
X-5422250Y4862250D01*
X-5422000Y4867500D01*
X-5422250Y4872750D01*
X-5423000Y4877420D01*
X-5424000Y4880920D01*
X-5425500Y4883830D01*
X-5427500Y4885000D01*
G01X-5413000Y4855250D02*
X-5411500Y4852330D01*
X-5409750Y4850580D01*
X-5407500Y4850000D01*
X-5405250Y4851170D01*
X-5403500Y4853500D01*
X-5402250Y4857580D01*
X-5402000Y4862250D01*
X-5402500Y4866920D01*
X-5403750Y4869830D01*
X-5405500Y4872170D01*
X-5407250Y4872750D01*
X-5409000Y4872170D01*
X-5411250Y4869830D01*
X-5410500Y4885000D01*
X-5403750D01*
G01X-5827500Y4970000D02*
Y5005000D01*
X-5830500Y4998000D01*
G01Y4970000D02*
X-5824500D01*
G01X-5807500Y5005000D02*
X-5809500Y5003830D01*
X-5811000Y5000920D01*
X-5812000Y4997420D01*
X-5812750Y4992750D01*
X-5813000Y4987500D01*
X-5812750Y4982250D01*
X-5812000Y4977580D01*
X-5811000Y4974080D01*
X-5809500Y4971170D01*
X-5807500Y4970000D01*
X-5805500Y4971170D01*
X-5804000Y4974080D01*
X-5803000Y4977580D01*
X-5802250Y4982250D01*
X-5802000Y4987500D01*
X-5802250Y4992750D01*
X-5803000Y4997420D01*
X-5804000Y5000920D01*
X-5805500Y5003830D01*
X-5807500Y5005000D01*
G01X-5791250Y4993330D02*
X-5783750Y4970000D01*
G01Y4993330D02*
X-5791250Y4970000D01*
G01X-5752500D02*
Y5005000D01*
X-5746500D01*
X-5744500Y5003250D01*
X-5743000Y4999170D01*
X-5742500Y4994500D01*
X-5743000Y4989830D01*
X-5744250Y4986330D01*
X-5746500Y4984580D01*
X-5752500D01*
G01X-5732500Y4970000D02*
Y5005000D01*
X-5726250D01*
X-5724250Y5003250D01*
X-5723000Y5000920D01*
X-5722500Y4996250D01*
X-5723000Y4991580D01*
X-5724500Y4988670D01*
X-5726250Y4986920D01*
X-5732500D01*
G01X-5726250D02*
X-5722500Y4970000D01*
G01X-5702500D02*
X-5712500D01*
Y5005000D01*
X-5702500D01*
G01X-5706500Y4988080D02*
X-5712500D01*
G01X-5692750Y4974670D02*
X-5690750Y4971750D01*
X-5688500Y4970000D01*
X-5686500D01*
X-5684500Y4971750D01*
X-5683000Y4974670D01*
X-5682250Y4978750D01*
X-5682750Y4982830D01*
X-5684000Y4986330D01*
X-5686250Y4988670D01*
X-5689250Y4989830D01*
X-5691000Y4992170D01*
X-5691750Y4996250D01*
X-5691250Y5000330D01*
X-5690000Y5003250D01*
X-5688250Y5005000D01*
X-5686500D01*
X-5684750Y5003830D01*
X-5683250Y5000920D01*
G01X-5672750Y4974670D02*
X-5670750Y4971750D01*
X-5668500Y4970000D01*
X-5666500D01*
X-5664500Y4971750D01*
X-5663000Y4974670D01*
X-5662250Y4978750D01*
X-5662750Y4982830D01*
X-5664000Y4986330D01*
X-5666250Y4988670D01*
X-5669250Y4989830D01*
X-5671000Y4992170D01*
X-5671750Y4996250D01*
X-5671250Y5000330D01*
X-5670000Y5003250D01*
X-5668250Y5005000D01*
X-5666500D01*
X-5664750Y5003830D01*
X-5663250Y5000920D01*
G01X-5650750Y4981670D02*
X-5644250D01*
G01X-5632250Y4970000D02*
Y5005000D01*
X-5622750D01*
G01X-5626250Y4988080D02*
X-5632250D01*
G01X-5610500Y5005000D02*
X-5604500D01*
G01X-5607500D02*
Y4970000D01*
G01X-5610500D02*
X-5604500D01*
G01X-5587500Y5005000D02*
Y4970000D01*
G01X-5593250Y5005000D02*
X-5581750D01*
G01X-5547500D02*
Y4970000D01*
G01X-5553250Y5005000D02*
X-5541750D01*
G01X-5522500Y4970000D02*
X-5532500D01*
Y5005000D01*
X-5522500D01*
G01X-5526500Y4988080D02*
X-5532500D01*
G01X-5502000Y5002080D02*
X-5503500Y5003830D01*
X-5505250Y5005000D01*
X-5507250D01*
X-5509500Y5003250D01*
X-5511250Y5000330D01*
X-5512500Y4996830D01*
X-5513500Y4991000D01*
X-5513750Y4985750D01*
X-5513250Y4980500D01*
X-5512500Y4977000D01*
X-5511000Y4973500D01*
X-5509250Y4971170D01*
X-5507500Y4970000D01*
X-5505750D01*
X-5504000Y4971170D01*
X-5502500Y4972920D01*
X-5501250Y4975250D01*
G01X-5492750Y4970000D02*
Y5005000D01*
G01X-5482250D02*
Y4970000D01*
G01Y4987500D02*
X-5492750D01*
G01X-5473250Y4970000D02*
Y5005000D01*
X-5461750Y4970000D01*
Y5005000D01*
G01X-5447500Y4970000D02*
X-5449500Y4970580D01*
X-5451250Y4972920D01*
X-5452750Y4976420D01*
X-5453750Y4980500D01*
X-5454250Y4985170D01*
Y4989830D01*
X-5453750Y4994500D01*
X-5452750Y4998580D01*
X-5451250Y5002080D01*
X-5449500Y5004420D01*
X-5447500Y5005000D01*
X-5445500Y5004420D01*
X-5443750Y5002080D01*
X-5442250Y4998580D01*
X-5441250Y4994500D01*
X-5440750Y4989830D01*
Y4985170D01*
X-5441250Y4980500D01*
X-5442250Y4976420D01*
X-5443750Y4972920D01*
X-5445500Y4970580D01*
X-5447500Y4970000D01*
G01X-5432500Y5005000D02*
Y4970000D01*
X-5422500D01*
G01X-5407500D02*
X-5409500Y4970580D01*
X-5411250Y4972920D01*
X-5412750Y4976420D01*
X-5413750Y4980500D01*
X-5414250Y4985170D01*
Y4989830D01*
X-5413750Y4994500D01*
X-5412750Y4998580D01*
X-5411250Y5002080D01*
X-5409500Y5004420D01*
X-5407500Y5005000D01*
X-5405500Y5004420D01*
X-5403750Y5002080D01*
X-5402250Y4998580D01*
X-5401250Y4994500D01*
X-5400750Y4989830D01*
Y4985170D01*
X-5401250Y4980500D01*
X-5402250Y4976420D01*
X-5403750Y4972920D01*
X-5405500Y4970580D01*
X-5407500Y4970000D01*
G01X-5386000Y4987500D02*
X-5381000D01*
Y4977000D01*
X-5382500Y4973500D01*
X-5384250Y4971170D01*
X-5386750Y4970000D01*
X-5389250Y4971170D01*
X-5391000Y4973500D01*
X-5392500Y4977000D01*
X-5393500Y4981080D01*
X-5394000Y4985750D01*
Y4989830D01*
X-5393500Y4993330D01*
X-5392500Y4997420D01*
X-5391000Y5000920D01*
X-5389500Y5003250D01*
X-5387500Y5005000D01*
X-5385750D01*
X-5383750Y5003830D01*
X-5382250Y5001500D01*
G01X-5367500Y4970000D02*
Y4985750D01*
X-5372500Y5005000D01*
G01X-5362500D02*
X-5367500Y4985750D01*
G01X-4343000Y4575000D02*
Y4540000D01*
G01Y4545250D02*
X-4344000Y4542330D01*
X-4345500Y4540580D01*
X-4347250Y4540000D01*
X-4349250Y4541170D01*
X-4350750Y4544080D01*
X-4351750Y4547580D01*
X-4352000Y4551670D01*
X-4351750Y4555750D01*
X-4350750Y4559250D01*
X-4349250Y4562170D01*
X-4347250Y4563330D01*
X-4345500Y4562750D01*
X-4344250Y4561580D01*
X-4343000Y4559250D01*
G01X-4327500Y4563330D02*
Y4540000D01*
G01Y4572670D02*
X-4328000Y4573250D01*
Y4574420D01*
X-4327500Y4575000D01*
X-4327000Y4574420D01*
Y4573250D01*
X-4327500Y4572670D01*
G01X-4303000Y4540000D02*
Y4563330D01*
G01Y4559250D02*
X-4304000Y4561580D01*
X-4305500Y4562750D01*
X-4307250Y4563330D01*
X-4309000Y4562170D01*
X-4310500Y4559830D01*
X-4311500Y4556330D01*
X-4312000Y4551670D01*
X-4311500Y4547000D01*
X-4310500Y4543500D01*
X-4309000Y4541170D01*
X-4307250Y4540000D01*
X-4305500Y4540580D01*
X-4304000Y4542330D01*
X-4303000Y4544670D01*
G01X-4267500Y4575000D02*
X-4269500Y4573830D01*
X-4271000Y4570920D01*
X-4272000Y4567420D01*
X-4272750Y4562750D01*
X-4273000Y4557500D01*
X-4272750Y4552250D01*
X-4272000Y4547580D01*
X-4271000Y4544080D01*
X-4269500Y4541170D01*
X-4267500Y4540000D01*
X-4265500Y4541170D01*
X-4264000Y4544080D01*
X-4263000Y4547580D01*
X-4262250Y4552250D01*
X-4262000Y4557500D01*
X-4262250Y4562750D01*
X-4263000Y4567420D01*
X-4264000Y4570920D01*
X-4265500Y4573830D01*
X-4267500Y4575000D01*
G01X-4247500Y4538830D02*
X-4248000Y4539420D01*
Y4540580D01*
X-4247500Y4541170D01*
X-4247000Y4540580D01*
Y4539420D01*
X-4247500Y4538830D01*
G01X-4231750Y4544080D02*
X-4230000Y4541170D01*
X-4228000Y4540000D01*
X-4226000Y4541170D01*
X-4224250Y4544670D01*
X-4223000Y4549920D01*
X-4222500Y4555170D01*
Y4561580D01*
X-4223000Y4566830D01*
X-4224250Y4571500D01*
X-4225750Y4573830D01*
X-4227500Y4575000D01*
X-4229500Y4573830D01*
X-4231000Y4571500D01*
X-4232000Y4568000D01*
X-4232500Y4563330D01*
X-4232000Y4559250D01*
X-4230750Y4555170D01*
X-4229250Y4552830D01*
X-4227500Y4552250D01*
X-4225500Y4553420D01*
X-4224000Y4556330D01*
X-4222500Y4561580D01*
G01X-4213000Y4545250D02*
X-4211500Y4542330D01*
X-4209750Y4540580D01*
X-4207500Y4540000D01*
X-4205250Y4541170D01*
X-4203500Y4543500D01*
X-4202250Y4547580D01*
X-4202000Y4552250D01*
X-4202500Y4556920D01*
X-4203750Y4559830D01*
X-4205500Y4562170D01*
X-4207250Y4562750D01*
X-4209000Y4562170D01*
X-4211250Y4559830D01*
X-4210500Y4575000D01*
X-4203750D01*
G01X-4195000Y4540000D02*
Y4563330D01*
G01Y4556920D02*
X-4194250Y4559830D01*
X-4193000Y4562170D01*
X-4191250Y4563330D01*
X-4189500Y4562170D01*
X-4188250Y4559830D01*
X-4187500Y4556920D01*
Y4540000D01*
G01Y4556920D02*
X-4186750Y4559830D01*
X-4185500Y4562170D01*
X-4183750Y4563330D01*
X-4182000Y4562170D01*
X-4180750Y4559830D01*
X-4180000Y4556330D01*
Y4540000D01*
G01X-4175000D02*
Y4563330D01*
G01Y4556920D02*
X-4174250Y4559830D01*
X-4173000Y4562170D01*
X-4171250Y4563330D01*
X-4169500Y4562170D01*
X-4168250Y4559830D01*
X-4167500Y4556920D01*
Y4540000D01*
G01Y4556920D02*
X-4166750Y4559830D01*
X-4165500Y4562170D01*
X-4163750Y4563330D01*
X-4162000Y4562170D01*
X-4160750Y4559830D01*
X-4160000Y4556330D01*
Y4540000D01*
G01X-4130250Y4551670D02*
X-4124250D01*
G01X-4127500Y4559250D02*
Y4544080D01*
G01X-4107500Y4575000D02*
X-4109500Y4573830D01*
X-4111000Y4570920D01*
X-4112000Y4567420D01*
X-4112750Y4562750D01*
X-4113000Y4557500D01*
X-4112750Y4552250D01*
X-4112000Y4547580D01*
X-4111000Y4544080D01*
X-4109500Y4541170D01*
X-4107500Y4540000D01*
X-4105500Y4541170D01*
X-4104000Y4544080D01*
X-4103000Y4547580D01*
X-4102250Y4552250D01*
X-4102000Y4557500D01*
X-4102250Y4562750D01*
X-4103000Y4567420D01*
X-4104000Y4570920D01*
X-4105500Y4573830D01*
X-4107500Y4575000D01*
G01X-4087500Y4538830D02*
X-4088000Y4539420D01*
Y4540580D01*
X-4087500Y4541170D01*
X-4087000Y4540580D01*
Y4539420D01*
X-4087500Y4538830D01*
G01X-4067500Y4575000D02*
X-4069500Y4573830D01*
X-4071000Y4570920D01*
X-4072000Y4567420D01*
X-4072750Y4562750D01*
X-4073000Y4557500D01*
X-4072750Y4552250D01*
X-4072000Y4547580D01*
X-4071000Y4544080D01*
X-4069500Y4541170D01*
X-4067500Y4540000D01*
X-4065500Y4541170D01*
X-4064000Y4544080D01*
X-4063000Y4547580D01*
X-4062250Y4552250D01*
X-4062000Y4557500D01*
X-4062250Y4562750D01*
X-4063000Y4567420D01*
X-4064000Y4570920D01*
X-4065500Y4573830D01*
X-4067500Y4575000D01*
G01X-4053000Y4545250D02*
X-4051500Y4542330D01*
X-4049750Y4540580D01*
X-4047500Y4540000D01*
X-4045250Y4541170D01*
X-4043500Y4543500D01*
X-4042250Y4547580D01*
X-4042000Y4552250D01*
X-4042500Y4556920D01*
X-4043750Y4559830D01*
X-4045500Y4562170D01*
X-4047250Y4562750D01*
X-4049000Y4562170D01*
X-4051250Y4559830D01*
X-4050500Y4575000D01*
X-4043750D01*
G01X-4032000Y4538830D02*
X-4023000Y4575000D01*
G01X-4010750Y4551670D02*
X-4004250D01*
G01X-3987500Y4575000D02*
X-3989500Y4573830D01*
X-3991000Y4570920D01*
X-3992000Y4567420D01*
X-3992750Y4562750D01*
X-3993000Y4557500D01*
X-3992750Y4552250D01*
X-3992000Y4547580D01*
X-3991000Y4544080D01*
X-3989500Y4541170D01*
X-3987500Y4540000D01*
X-3985500Y4541170D01*
X-3984000Y4544080D01*
X-3983000Y4547580D01*
X-3982250Y4552250D01*
X-3982000Y4557500D01*
X-3982250Y4562750D01*
X-3983000Y4567420D01*
X-3984000Y4570920D01*
X-3985500Y4573830D01*
X-3987500Y4575000D01*
G01X-3967500Y4538830D02*
X-3968000Y4539420D01*
Y4540580D01*
X-3967500Y4541170D01*
X-3967000Y4540580D01*
Y4539420D01*
X-3967500Y4538830D01*
G01X-3947500Y4575000D02*
X-3949500Y4573830D01*
X-3951000Y4570920D01*
X-3952000Y4567420D01*
X-3952750Y4562750D01*
X-3953000Y4557500D01*
X-3952750Y4552250D01*
X-3952000Y4547580D01*
X-3951000Y4544080D01*
X-3949500Y4541170D01*
X-3947500Y4540000D01*
X-3945500Y4541170D01*
X-3944000Y4544080D01*
X-3943000Y4547580D01*
X-3942250Y4552250D01*
X-3942000Y4557500D01*
X-3942250Y4562750D01*
X-3943000Y4567420D01*
X-3944000Y4570920D01*
X-3945500Y4573830D01*
X-3947500Y4575000D01*
G01X-3933000Y4545250D02*
X-3931500Y4542330D01*
X-3929750Y4540580D01*
X-3927500Y4540000D01*
X-3925250Y4541170D01*
X-3923500Y4543500D01*
X-3922250Y4547580D01*
X-3922000Y4552250D01*
X-3922500Y4556920D01*
X-3923750Y4559830D01*
X-3925500Y4562170D01*
X-3927250Y4562750D01*
X-3929000Y4562170D01*
X-3931250Y4559830D01*
X-3930500Y4575000D01*
X-3923750D01*
G01X-4331750Y4664080D02*
X-4330000Y4661170D01*
X-4328000Y4660000D01*
X-4326000Y4661170D01*
X-4324250Y4664670D01*
X-4323000Y4669920D01*
X-4322500Y4675170D01*
Y4681580D01*
X-4323000Y4686830D01*
X-4324250Y4691500D01*
X-4325750Y4693830D01*
X-4327500Y4695000D01*
X-4329500Y4693830D01*
X-4331000Y4691500D01*
X-4332000Y4688000D01*
X-4332500Y4683330D01*
X-4332000Y4679250D01*
X-4330750Y4675170D01*
X-4329250Y4672830D01*
X-4327500Y4672250D01*
X-4325500Y4673420D01*
X-4324000Y4676330D01*
X-4322500Y4681580D01*
G01X-4311250Y4683330D02*
X-4303750Y4660000D01*
G01Y4683330D02*
X-4311250Y4660000D01*
G01X-4272500D02*
Y4695000D01*
X-4266500D01*
X-4264500Y4693250D01*
X-4263000Y4689170D01*
X-4262500Y4684500D01*
X-4263000Y4679830D01*
X-4264250Y4676330D01*
X-4266500Y4674580D01*
X-4272500D01*
G01X-4252500Y4660000D02*
Y4695000D01*
X-4246250D01*
X-4244250Y4693250D01*
X-4243000Y4690920D01*
X-4242500Y4686250D01*
X-4243000Y4681580D01*
X-4244500Y4678670D01*
X-4246250Y4676920D01*
X-4252500D01*
G01X-4246250D02*
X-4242500Y4660000D01*
G01X-4222500D02*
X-4232500D01*
Y4695000D01*
X-4222500D01*
G01X-4226500Y4678080D02*
X-4232500D01*
G01X-4212750Y4664670D02*
X-4210750Y4661750D01*
X-4208500Y4660000D01*
X-4206500D01*
X-4204500Y4661750D01*
X-4203000Y4664670D01*
X-4202250Y4668750D01*
X-4202750Y4672830D01*
X-4204000Y4676330D01*
X-4206250Y4678670D01*
X-4209250Y4679830D01*
X-4211000Y4682170D01*
X-4211750Y4686250D01*
X-4211250Y4690330D01*
X-4210000Y4693250D01*
X-4208250Y4695000D01*
X-4206500D01*
X-4204750Y4693830D01*
X-4203250Y4690920D01*
G01X-4192750Y4664670D02*
X-4190750Y4661750D01*
X-4188500Y4660000D01*
X-4186500D01*
X-4184500Y4661750D01*
X-4183000Y4664670D01*
X-4182250Y4668750D01*
X-4182750Y4672830D01*
X-4184000Y4676330D01*
X-4186250Y4678670D01*
X-4189250Y4679830D01*
X-4191000Y4682170D01*
X-4191750Y4686250D01*
X-4191250Y4690330D01*
X-4190000Y4693250D01*
X-4188250Y4695000D01*
X-4186500D01*
X-4184750Y4693830D01*
X-4183250Y4690920D01*
G01X-4170750Y4671670D02*
X-4164250D01*
G01X-4152250Y4660000D02*
Y4695000D01*
X-4142750D01*
G01X-4146250Y4678080D02*
X-4152250D01*
G01X-4130500Y4695000D02*
X-4124500D01*
G01X-4127500D02*
Y4660000D01*
G01X-4130500D02*
X-4124500D01*
G01X-4107500Y4695000D02*
Y4660000D01*
G01X-4113250Y4695000D02*
X-4101750D01*
G01X-4067500D02*
Y4660000D01*
G01X-4073250Y4695000D02*
X-4061750D01*
G01X-4042500Y4660000D02*
X-4052500D01*
Y4695000D01*
X-4042500D01*
G01X-4046500Y4678080D02*
X-4052500D01*
G01X-4022000Y4692080D02*
X-4023500Y4693830D01*
X-4025250Y4695000D01*
X-4027250D01*
X-4029500Y4693250D01*
X-4031250Y4690330D01*
X-4032500Y4686830D01*
X-4033500Y4681000D01*
X-4033750Y4675750D01*
X-4033250Y4670500D01*
X-4032500Y4667000D01*
X-4031000Y4663500D01*
X-4029250Y4661170D01*
X-4027500Y4660000D01*
X-4025750D01*
X-4024000Y4661170D01*
X-4022500Y4662920D01*
X-4021250Y4665250D01*
G01X-4012750Y4660000D02*
Y4695000D01*
G01X-4002250D02*
Y4660000D01*
G01Y4677500D02*
X-4012750D01*
G01X-3993250Y4660000D02*
Y4695000D01*
X-3981750Y4660000D01*
Y4695000D01*
G01X-3967500Y4660000D02*
X-3969500Y4660580D01*
X-3971250Y4662920D01*
X-3972750Y4666420D01*
X-3973750Y4670500D01*
X-3974250Y4675170D01*
Y4679830D01*
X-3973750Y4684500D01*
X-3972750Y4688580D01*
X-3971250Y4692080D01*
X-3969500Y4694420D01*
X-3967500Y4695000D01*
X-3965500Y4694420D01*
X-3963750Y4692080D01*
X-3962250Y4688580D01*
X-3961250Y4684500D01*
X-3960750Y4679830D01*
Y4675170D01*
X-3961250Y4670500D01*
X-3962250Y4666420D01*
X-3963750Y4662920D01*
X-3965500Y4660580D01*
X-3967500Y4660000D01*
G01X-3952500Y4695000D02*
Y4660000D01*
X-3942500D01*
G01X-3927500D02*
X-3929500Y4660580D01*
X-3931250Y4662920D01*
X-3932750Y4666420D01*
X-3933750Y4670500D01*
X-3934250Y4675170D01*
Y4679830D01*
X-3933750Y4684500D01*
X-3932750Y4688580D01*
X-3931250Y4692080D01*
X-3929500Y4694420D01*
X-3927500Y4695000D01*
X-3925500Y4694420D01*
X-3923750Y4692080D01*
X-3922250Y4688580D01*
X-3921250Y4684500D01*
X-3920750Y4679830D01*
Y4675170D01*
X-3921250Y4670500D01*
X-3922250Y4666420D01*
X-3923750Y4662920D01*
X-3925500Y4660580D01*
X-3927500Y4660000D01*
G01X-3906000Y4677500D02*
X-3901000D01*
Y4667000D01*
X-3902500Y4663500D01*
X-3904250Y4661170D01*
X-3906750Y4660000D01*
X-3909250Y4661170D01*
X-3911000Y4663500D01*
X-3912500Y4667000D01*
X-3913500Y4671080D01*
X-3914000Y4675750D01*
Y4679830D01*
X-3913500Y4683330D01*
X-3912500Y4687420D01*
X-3911000Y4690920D01*
X-3909500Y4693250D01*
X-3907500Y4695000D01*
X-3905750D01*
X-3903750Y4693830D01*
X-3902250Y4691500D01*
G01X-3887500Y4660000D02*
Y4675750D01*
X-3892500Y4695000D01*
G01X-3882500D02*
X-3887500Y4675750D01*
G54D14*
X-5460000Y380000D03*
X-5475000Y6050000D03*
X0Y0D03*
Y6300000D03*
X3680800Y2552500D03*
G54D24*
G01X18465830Y-7359340D02*
X18442830Y-7346830D01*
X18416000Y-7338500D01*
X18385340D01*
X18350830Y-7351000D01*
X18324000Y-7371830D01*
X18304830Y-7396840D01*
X18289500Y-7438500D01*
X18285660Y-7476000D01*
X18293330Y-7513500D01*
X18304830Y-7538500D01*
X18327830Y-7563510D01*
X18354670Y-7580170D01*
X18381500Y-7588500D01*
X18408330D01*
X18435170Y-7580170D01*
X18458170Y-7567670D01*
X18477340Y-7551010D01*
G01X19059170Y-7338500D02*
Y-7517670D01*
X19074500Y-7555170D01*
X19105160Y-7580170D01*
X19143500Y-7588500D01*
X19181840Y-7580170D01*
X19212500Y-7555170D01*
X19227830Y-7517670D01*
Y-7338500D01*
G01X19383500Y-7588500D02*
X19360500Y-7584330D01*
X19337500Y-7567670D01*
X19322160Y-7538500D01*
X19314500Y-7505170D01*
X19322160Y-7471840D01*
X19337500Y-7442670D01*
X19360500Y-7426000D01*
X19383500Y-7421840D01*
X19406500Y-7426000D01*
X19429500Y-7442670D01*
X19444830Y-7471840D01*
X19448670Y-7505170D01*
X19444830Y-7538500D01*
X19429500Y-7567670D01*
X19406500Y-7584330D01*
X19383500Y-7588500D01*
G01X19654160Y-7455160D02*
X19669500Y-7442670D01*
X19681000Y-7421840D01*
X19688670Y-7392660D01*
X19681000Y-7367670D01*
X19665670Y-7351000D01*
X19638830Y-7338500D01*
X19535330D01*
Y-7588500D01*
X19661840D01*
X19688670Y-7571840D01*
X19704000Y-7546830D01*
X19711670Y-7517670D01*
X19704000Y-7488510D01*
X19681000Y-7463500D01*
X19654160Y-7455160D01*
X19535330D01*
G01X20030660Y-7380170D02*
X20053670Y-7355170D01*
X20080500Y-7342670D01*
X20111170Y-7338500D01*
X20149500Y-7346830D01*
X20176340Y-7367670D01*
X20184000Y-7392660D01*
X20180170Y-7417670D01*
X20164830Y-7438500D01*
X20088170Y-7480170D01*
X20053670Y-7509330D01*
X20030660Y-7551010D01*
X20023000Y-7588500D01*
X20184000D01*
G01X20343500Y-7338500D02*
X20312830Y-7346830D01*
X20289830Y-7367670D01*
X20274500Y-7392660D01*
X20263000Y-7426000D01*
X20259170Y-7463500D01*
X20263000Y-7501000D01*
X20274500Y-7534340D01*
X20289830Y-7559340D01*
X20312830Y-7580170D01*
X20343500Y-7588500D01*
X20374160Y-7580170D01*
X20397170Y-7559340D01*
X20412500Y-7534340D01*
X20424000Y-7501000D01*
X20427830Y-7463500D01*
X20424000Y-7426000D01*
X20412500Y-7392660D01*
X20397170Y-7367670D01*
X20374160Y-7346830D01*
X20343500Y-7338500D01*
G54D15*
X-5030000Y2296000D03*
Y2550000D03*
Y2804000D03*
X-4710000Y130000D03*
X-4964000D03*
X-4710000Y470000D03*
X-4964000D03*
X-4680000Y2296000D03*
Y2550000D03*
Y2804000D03*
X-4456000Y130000D03*
Y470000D03*
X-3840000D03*
X-4094000D03*
X-4020900Y1387600D03*
Y1133600D03*
Y1641600D03*
X-3586000Y470000D03*
X-1277000Y-110000D03*
X-1531000D03*
X-1023000D03*
X-769000D03*
X-710000Y2276000D03*
Y2530000D03*
Y2784000D03*
Y3950000D03*
Y3696000D03*
Y4204000D03*
X3680800Y3822500D03*
G54D25*
G01X-14678670Y-10255500D02*
Y-10065500D01*
X-14605000Y-10223830D01*
X-14531330Y-10065500D01*
Y-10255500D01*
G01X-14500840D02*
X-14430000Y-10065500D01*
X-14359160Y-10255500D01*
G01X-14384670Y-10189000D02*
X-14475340D01*
G01X-14255000Y-10065500D02*
Y-10255500D01*
G01X-14320170Y-10065500D02*
X-14189830D01*
G01X-14023330Y-10255500D02*
X-14136670D01*
Y-10065500D01*
X-14023330D01*
G01X-14068670Y-10157330D02*
X-14136670D01*
G01X-13961670Y-10255500D02*
Y-10065500D01*
X-13890830D01*
X-13868170Y-10075000D01*
X-13854000Y-10087670D01*
X-13848330Y-10113000D01*
X-13854000Y-10138340D01*
X-13871000Y-10154170D01*
X-13890830Y-10163670D01*
X-13961670D01*
G01X-13890830D02*
X-13848330Y-10255500D01*
G01X-13764000Y-10065500D02*
X-13696000D01*
G01X-13730000D02*
Y-10255500D01*
G01X-13764000D02*
X-13696000D01*
G01X-13625840D02*
X-13555000Y-10065500D01*
X-13484160Y-10255500D01*
G01X-13509670Y-10189000D02*
X-13600340D01*
G01X-13436670Y-10065500D02*
Y-10255500D01*
X-13323330D01*
G01X-12945000Y-10318830D02*
X-13086670Y-10128840D01*
Y-10097170D01*
X-13058340Y-10065500D01*
X-13030000D01*
X-13001660Y-10097170D01*
Y-10128840D01*
X-13030000Y-10160500D01*
X-13086670Y-10192170D01*
X-13115000Y-10223830D01*
Y-10287170D01*
X-13086670Y-10318830D01*
X-13001660D01*
X-12945000Y-10255500D01*
G01X-12739500Y-10230170D02*
X-12716830Y-10246000D01*
X-12691330Y-10255500D01*
X-12668670D01*
X-12646000Y-10246000D01*
X-12629000Y-10230170D01*
X-12620500Y-10208000D01*
X-12626170Y-10185840D01*
X-12640330Y-10166830D01*
X-12665830Y-10154170D01*
X-12699830Y-10147830D01*
X-12719670Y-10135170D01*
X-12728170Y-10113000D01*
X-12722500Y-10090830D01*
X-12708340Y-10075000D01*
X-12688500Y-10065500D01*
X-12668670D01*
X-12648830Y-10071830D01*
X-12631830Y-10087670D01*
G01X-12561670Y-10255500D02*
Y-10065500D01*
X-12493670D01*
X-12471000Y-10075000D01*
X-12454000Y-10097170D01*
X-12448330Y-10122500D01*
X-12454000Y-10147830D01*
X-12468170Y-10166830D01*
X-12493670Y-10176340D01*
X-12561670D01*
G01X-12273330Y-10255500D02*
X-12386670D01*
Y-10065500D01*
X-12273330D01*
G01X-12318670Y-10157330D02*
X-12386670D01*
G01X-12092670Y-10081340D02*
X-12109670Y-10071830D01*
X-12129500Y-10065500D01*
X-12152160D01*
X-12177670Y-10075000D01*
X-12197500Y-10090830D01*
X-12211670Y-10109840D01*
X-12223000Y-10141500D01*
X-12225840Y-10170000D01*
X-12220170Y-10198500D01*
X-12211670Y-10217500D01*
X-12194670Y-10236500D01*
X-12174830Y-10249170D01*
X-12155000Y-10255500D01*
X-12135170D01*
X-12115330Y-10249170D01*
X-12098330Y-10239670D01*
X-12084160Y-10227010D01*
G01X-14605000Y-8414500D02*
Y-8604500D01*
G01X-14670170Y-8414500D02*
X-14539830D01*
G01X-14430000Y-8604500D02*
X-14452670Y-8601330D01*
X-14472500Y-8588670D01*
X-14489500Y-8569670D01*
X-14500840Y-8547500D01*
X-14506500Y-8522170D01*
Y-8496830D01*
X-14500840Y-8471500D01*
X-14489500Y-8449330D01*
X-14472500Y-8430340D01*
X-14452670Y-8417670D01*
X-14430000Y-8414500D01*
X-14407340Y-8417670D01*
X-14387500Y-8430340D01*
X-14370500Y-8449330D01*
X-14359160Y-8471500D01*
X-14353500Y-8496830D01*
Y-8522170D01*
X-14359160Y-8547500D01*
X-14370500Y-8569670D01*
X-14387500Y-8588670D01*
X-14407340Y-8601330D01*
X-14430000Y-8604500D01*
G01X-14311670Y-8414500D02*
Y-8604500D01*
X-14198330D01*
G01X-14023330D02*
X-14136670D01*
Y-8414500D01*
X-14023330D01*
G01X-14068670Y-8506330D02*
X-14136670D01*
G01X-13961670Y-8604500D02*
Y-8414500D01*
X-13890830D01*
X-13868170Y-8424000D01*
X-13854000Y-8436670D01*
X-13848330Y-8462000D01*
X-13854000Y-8487340D01*
X-13871000Y-8503170D01*
X-13890830Y-8512670D01*
X-13961670D01*
G01X-13890830D02*
X-13848330Y-8604500D01*
G01X-13800840D02*
X-13730000Y-8414500D01*
X-13659160Y-8604500D01*
G01X-13684670Y-8538000D02*
X-13775340D01*
G01X-13620170Y-8604500D02*
Y-8414500D01*
X-13489830Y-8604500D01*
Y-8414500D01*
G01X-13317670Y-8430340D02*
X-13334670Y-8420830D01*
X-13354500Y-8414500D01*
X-13377160D01*
X-13402670Y-8424000D01*
X-13422500Y-8439830D01*
X-13436670Y-8458840D01*
X-13448000Y-8490500D01*
X-13450840Y-8519000D01*
X-13445170Y-8547500D01*
X-13436670Y-8566500D01*
X-13419670Y-8585500D01*
X-13399830Y-8598170D01*
X-13380000Y-8604500D01*
X-13360170D01*
X-13340330Y-8598170D01*
X-13323330Y-8588670D01*
X-13309160Y-8576010D01*
G01X-13148330Y-8604500D02*
X-13261670D01*
Y-8414500D01*
X-13148330D01*
G01X-13193670Y-8506330D02*
X-13261670D01*
G01X-12917330Y-8414500D02*
Y-8550670D01*
X-12906000Y-8579170D01*
X-12883340Y-8598170D01*
X-12855000Y-8604500D01*
X-12826660Y-8598170D01*
X-12804000Y-8579170D01*
X-12792670Y-8550670D01*
Y-8414500D01*
G01X-12745170Y-8604500D02*
Y-8414500D01*
X-12614830Y-8604500D01*
Y-8414500D01*
G01X-12561670D02*
Y-8604500D01*
X-12448330D01*
G01X-12273330D02*
X-12386670D01*
Y-8414500D01*
X-12273330D01*
G01X-12318670Y-8506330D02*
X-12386670D01*
G01X-12214500Y-8579170D02*
X-12191830Y-8595000D01*
X-12166330Y-8604500D01*
X-12143670D01*
X-12121000Y-8595000D01*
X-12104000Y-8579170D01*
X-12095500Y-8557000D01*
X-12101170Y-8534840D01*
X-12115330Y-8515830D01*
X-12140830Y-8503170D01*
X-12174830Y-8496830D01*
X-12194670Y-8484170D01*
X-12203170Y-8462000D01*
X-12197500Y-8439830D01*
X-12183340Y-8424000D01*
X-12163500Y-8414500D01*
X-12143670D01*
X-12123830Y-8420830D01*
X-12106830Y-8436670D01*
G01X-12039500Y-8579170D02*
X-12016830Y-8595000D01*
X-11991330Y-8604500D01*
X-11968670D01*
X-11946000Y-8595000D01*
X-11929000Y-8579170D01*
X-11920500Y-8557000D01*
X-11926170Y-8534840D01*
X-11940330Y-8515830D01*
X-11965830Y-8503170D01*
X-11999830Y-8496830D01*
X-12019670Y-8484170D01*
X-12028170Y-8462000D01*
X-12022500Y-8439830D01*
X-12008340Y-8424000D01*
X-11988500Y-8414500D01*
X-11968670D01*
X-11948830Y-8420830D01*
X-11931830Y-8436670D01*
G01X-11689500Y-8579170D02*
X-11666830Y-8595000D01*
X-11641330Y-8604500D01*
X-11618670D01*
X-11596000Y-8595000D01*
X-11579000Y-8579170D01*
X-11570500Y-8557000D01*
X-11576170Y-8534840D01*
X-11590330Y-8515830D01*
X-11615830Y-8503170D01*
X-11649830Y-8496830D01*
X-11669670Y-8484170D01*
X-11678170Y-8462000D01*
X-11672500Y-8439830D01*
X-11658340Y-8424000D01*
X-11638500Y-8414500D01*
X-11618670D01*
X-11598830Y-8420830D01*
X-11581830Y-8436670D01*
G01X-11455000Y-8414500D02*
Y-8604500D01*
G01X-11520170Y-8414500D02*
X-11389830D01*
G01X-11350840Y-8604500D02*
X-11280000Y-8414500D01*
X-11209160Y-8604500D01*
G01X-11234670Y-8538000D02*
X-11325340D01*
G01X-11105000Y-8414500D02*
Y-8604500D01*
G01X-11170170Y-8414500D02*
X-11039830D01*
G01X-10873330Y-8604500D02*
X-10986670D01*
Y-8414500D01*
X-10873330D01*
G01X-10918670Y-8506330D02*
X-10986670D01*
G01X-10817330Y-8604500D02*
Y-8414500D01*
X-10760670D01*
X-10738000Y-8424000D01*
X-10721000Y-8436670D01*
X-10706830Y-8455660D01*
X-10695500Y-8477840D01*
X-10692670Y-8509500D01*
X-10695500Y-8541170D01*
X-10706830Y-8563340D01*
X-10721000Y-8582340D01*
X-10738000Y-8595000D01*
X-10760670Y-8604500D01*
X-10817330D01*
G01X-8886000Y-10230170D02*
X-8863330Y-10246000D01*
X-8837830Y-10255500D01*
X-8815170D01*
X-8792500Y-10246000D01*
X-8775500Y-10230170D01*
X-8767000Y-10208000D01*
X-8772670Y-10185840D01*
X-8786830Y-10166830D01*
X-8812330Y-10154170D01*
X-8846330Y-10147830D01*
X-8866170Y-10135170D01*
X-8874670Y-10113000D01*
X-8869000Y-10090830D01*
X-8854840Y-10075000D01*
X-8835000Y-10065500D01*
X-8815170D01*
X-8795330Y-10071830D01*
X-8778330Y-10087670D01*
G01X-8713830Y-10065500D02*
Y-10201670D01*
X-8702500Y-10230170D01*
X-8679840Y-10249170D01*
X-8651500Y-10255500D01*
X-8623160Y-10249170D01*
X-8600500Y-10230170D01*
X-8589170Y-10201670D01*
Y-10065500D01*
G01X-8533170Y-10255500D02*
Y-10065500D01*
X-8462330D01*
X-8439670Y-10075000D01*
X-8425500Y-10087670D01*
X-8419830Y-10113000D01*
X-8425500Y-10138340D01*
X-8442500Y-10154170D01*
X-8462330Y-10163670D01*
X-8533170D01*
G01X-8462330D02*
X-8419830Y-10255500D01*
G01X-8355330D02*
Y-10065500D01*
X-8247670D01*
G01X-8287330Y-10157330D02*
X-8355330D01*
G01X-8197340Y-10255500D02*
X-8126500Y-10065500D01*
X-8055660Y-10255500D01*
G01X-8081170Y-10189000D02*
X-8171840D01*
G01X-7889170Y-10081340D02*
X-7906170Y-10071830D01*
X-7926000Y-10065500D01*
X-7948660D01*
X-7974170Y-10075000D01*
X-7994000Y-10090830D01*
X-8008170Y-10109840D01*
X-8019500Y-10141500D01*
X-8022340Y-10170000D01*
X-8016670Y-10198500D01*
X-8008170Y-10217500D01*
X-7991170Y-10236500D01*
X-7971330Y-10249170D01*
X-7951500Y-10255500D01*
X-7931670D01*
X-7911830Y-10249170D01*
X-7894830Y-10239670D01*
X-7880660Y-10227010D01*
G01X-7719830Y-10255500D02*
X-7833170D01*
Y-10065500D01*
X-7719830D01*
G01X-7765170Y-10157330D02*
X-7833170D01*
G01X-7426500Y-10065500D02*
Y-10255500D01*
G01X-7491670Y-10065500D02*
X-7361330D01*
G01X-7194830Y-10255500D02*
X-7308170D01*
Y-10065500D01*
X-7194830D01*
G01X-7240170Y-10157330D02*
X-7308170D01*
G01X-7136000Y-10255500D02*
X-7017000Y-10065500D01*
G01X-7136000D02*
X-7017000Y-10255500D01*
G01X-6901500Y-10065500D02*
Y-10255500D01*
G01X-6966670Y-10065500D02*
X-6836330D01*
G01X-6788830D02*
Y-10201670D01*
X-6777500Y-10230170D01*
X-6754840Y-10249170D01*
X-6726500Y-10255500D01*
X-6698160Y-10249170D01*
X-6675500Y-10230170D01*
X-6664170Y-10201670D01*
Y-10065500D01*
G01X-6608170Y-10255500D02*
Y-10065500D01*
X-6537330D01*
X-6514670Y-10075000D01*
X-6500500Y-10087670D01*
X-6494830Y-10113000D01*
X-6500500Y-10138340D01*
X-6517500Y-10154170D01*
X-6537330Y-10163670D01*
X-6608170D01*
G01X-6537330D02*
X-6494830Y-10255500D01*
G01X-6319830D02*
X-6433170D01*
Y-10065500D01*
X-6319830D01*
G01X-6365170Y-10157330D02*
X-6433170D01*
G01X-6111500Y-10255500D02*
Y-10128840D01*
G01Y-10163670D02*
X-6103000Y-10147830D01*
X-6088830Y-10135170D01*
X-6069000Y-10128840D01*
X-6049170Y-10135170D01*
X-6035000Y-10147830D01*
X-6026500Y-10163670D01*
Y-10255500D01*
G01Y-10163670D02*
X-6018000Y-10147830D01*
X-6003840Y-10135170D01*
X-5984000Y-10128840D01*
X-5964170Y-10135170D01*
X-5950000Y-10147830D01*
X-5941500Y-10166830D01*
Y-10255500D01*
G01X-5851500Y-10128840D02*
Y-10255500D01*
G01Y-10078170D02*
X-5857170Y-10075000D01*
Y-10068670D01*
X-5851500Y-10065500D01*
X-5845830Y-10068670D01*
Y-10075000D01*
X-5851500Y-10078170D01*
G01X-5631170Y-10144670D02*
X-5651000Y-10132000D01*
X-5668000Y-10128840D01*
X-5690670Y-10135170D01*
X-5707670Y-10147830D01*
X-5719000Y-10170000D01*
X-5721840Y-10192170D01*
X-5719000Y-10214340D01*
X-5707670Y-10233340D01*
X-5690670Y-10249170D01*
X-5668000Y-10255500D01*
X-5648160Y-10249170D01*
X-5631170Y-10236500D01*
G01X-5541170Y-10255500D02*
Y-10128840D01*
G01Y-10154170D02*
X-5527000Y-10141500D01*
X-5512830Y-10132000D01*
X-5493000Y-10128840D01*
X-5478840Y-10132000D01*
X-5461830Y-10141500D01*
G01X-5326500Y-10255500D02*
X-5343500Y-10252330D01*
X-5360500Y-10239670D01*
X-5371840Y-10217500D01*
X-5377500Y-10192170D01*
X-5371840Y-10166830D01*
X-5360500Y-10144670D01*
X-5343500Y-10132000D01*
X-5326500Y-10128840D01*
X-5309500Y-10132000D01*
X-5292500Y-10144670D01*
X-5281170Y-10166830D01*
X-5278330Y-10192170D01*
X-5281170Y-10217500D01*
X-5292500Y-10239670D01*
X-5309500Y-10252330D01*
X-5326500Y-10255500D01*
G01X-5061500D02*
Y-10128840D01*
G01Y-10163670D02*
X-5053000Y-10147830D01*
X-5038830Y-10135170D01*
X-5019000Y-10128840D01*
X-4999170Y-10135170D01*
X-4985000Y-10147830D01*
X-4976500Y-10163670D01*
Y-10255500D01*
G01Y-10163670D02*
X-4968000Y-10147830D01*
X-4953840Y-10135170D01*
X-4934000Y-10128840D01*
X-4914170Y-10135170D01*
X-4900000Y-10147830D01*
X-4891500Y-10166830D01*
Y-10255500D01*
G01X-8880330Y-8604500D02*
Y-8414500D01*
X-8772670D01*
G01X-8812330Y-8506330D02*
X-8880330D01*
G01X-8685500Y-8414500D02*
X-8617500D01*
G01X-8651500D02*
Y-8604500D01*
G01X-8685500D02*
X-8617500D01*
G01X-8541670D02*
Y-8414500D01*
X-8411330Y-8604500D01*
Y-8414500D01*
G01X-8335500D02*
X-8267500D01*
G01X-8301500D02*
Y-8604500D01*
G01X-8335500D02*
X-8267500D01*
G01X-8186000Y-8579170D02*
X-8163330Y-8595000D01*
X-8137830Y-8604500D01*
X-8115170D01*
X-8092500Y-8595000D01*
X-8075500Y-8579170D01*
X-8067000Y-8557000D01*
X-8072670Y-8534840D01*
X-8086830Y-8515830D01*
X-8112330Y-8503170D01*
X-8146330Y-8496830D01*
X-8166170Y-8484170D01*
X-8174670Y-8462000D01*
X-8169000Y-8439830D01*
X-8154840Y-8424000D01*
X-8135000Y-8414500D01*
X-8115170D01*
X-8095330Y-8420830D01*
X-8078330Y-8436670D01*
G01X-8011000Y-8604500D02*
Y-8414500D01*
G01X-7892000D02*
Y-8604500D01*
G01Y-8509500D02*
X-8011000D01*
G01X-7486170Y-9811000D02*
Y-9621000D01*
X-7415330D01*
X-7392670Y-9630500D01*
X-7378500Y-9643170D01*
X-7372830Y-9668500D01*
X-7378500Y-9693840D01*
X-7395500Y-9709670D01*
X-7415330Y-9719170D01*
X-7486170D01*
G01X-7415330D02*
X-7372830Y-9811000D01*
G01X-7197830D02*
X-7311170D01*
Y-9621000D01*
X-7197830D01*
G01X-7243170Y-9712830D02*
X-7311170D01*
G01X-7153170Y-9811000D02*
Y-9621000D01*
X-7079500Y-9779330D01*
X-7005830Y-9621000D01*
Y-9811000D01*
G01X-6904500D02*
X-6927170Y-9807830D01*
X-6947000Y-9795170D01*
X-6964000Y-9776170D01*
X-6975340Y-9754000D01*
X-6981000Y-9728670D01*
Y-9703330D01*
X-6975340Y-9678000D01*
X-6964000Y-9655830D01*
X-6947000Y-9636840D01*
X-6927170Y-9624170D01*
X-6904500Y-9621000D01*
X-6881840Y-9624170D01*
X-6862000Y-9636840D01*
X-6845000Y-9655830D01*
X-6833660Y-9678000D01*
X-6828000Y-9703330D01*
Y-9728670D01*
X-6833660Y-9754000D01*
X-6845000Y-9776170D01*
X-6862000Y-9795170D01*
X-6881840Y-9807830D01*
X-6904500Y-9811000D01*
G01X-6800340Y-9621000D02*
X-6729500Y-9811000D01*
X-6658660Y-9621000D01*
G01X-6497830Y-9811000D02*
X-6611170D01*
Y-9621000D01*
X-6497830D01*
G01X-6543170Y-9712830D02*
X-6611170D01*
G01X-6275340Y-9811000D02*
X-6204500Y-9621000D01*
X-6133660Y-9811000D01*
G01X-6159170Y-9744500D02*
X-6249840D01*
G01X-6094670Y-9811000D02*
Y-9621000D01*
X-5964330Y-9811000D01*
Y-9621000D01*
G01X-5854500Y-9811000D02*
Y-9725500D01*
X-5911170Y-9621000D01*
G01X-5797830D02*
X-5854500Y-9725500D01*
G01X-5481840Y-9709670D02*
X-5470500Y-9700170D01*
X-5462000Y-9684340D01*
X-5456330Y-9662160D01*
X-5462000Y-9643170D01*
X-5473330Y-9630500D01*
X-5493170Y-9621000D01*
X-5569670D01*
Y-9811000D01*
X-5476160D01*
X-5456330Y-9798340D01*
X-5445000Y-9779330D01*
X-5439330Y-9757170D01*
X-5445000Y-9735000D01*
X-5462000Y-9716000D01*
X-5481840Y-9709670D01*
X-5569670D01*
G01X-5391830Y-9621000D02*
Y-9757170D01*
X-5380500Y-9785670D01*
X-5357840Y-9804670D01*
X-5329500Y-9811000D01*
X-5301160Y-9804670D01*
X-5278500Y-9785670D01*
X-5267170Y-9757170D01*
Y-9621000D01*
G01X-5211170Y-9811000D02*
Y-9621000D01*
X-5140330D01*
X-5117670Y-9630500D01*
X-5103500Y-9643170D01*
X-5097830Y-9668500D01*
X-5103500Y-9693840D01*
X-5120500Y-9709670D01*
X-5140330Y-9719170D01*
X-5211170D01*
G01X-5140330D02*
X-5097830Y-9811000D01*
G01X-5036170D02*
Y-9621000D01*
X-4965330D01*
X-4942670Y-9630500D01*
X-4928500Y-9643170D01*
X-4922830Y-9668500D01*
X-4928500Y-9693840D01*
X-4945500Y-9709670D01*
X-4965330Y-9719170D01*
X-5036170D01*
G01X-4965330D02*
X-4922830Y-9811000D01*
G01X-4864000Y-9785670D02*
X-4841330Y-9801500D01*
X-4815830Y-9811000D01*
X-4793170D01*
X-4770500Y-9801500D01*
X-4753500Y-9785670D01*
X-4745000Y-9763500D01*
X-4750670Y-9741340D01*
X-4764830Y-9722330D01*
X-4790330Y-9709670D01*
X-4824330Y-9703330D01*
X-4844170Y-9690670D01*
X-4852670Y-9668500D01*
X-4847000Y-9646330D01*
X-4832840Y-9630500D01*
X-4813000Y-9621000D01*
X-4793170D01*
X-4773330Y-9627330D01*
X-4756330Y-9643170D01*
G01X-5396330Y-11272000D02*
Y-11408170D01*
X-5385000Y-11436670D01*
X-5362340Y-11455670D01*
X-5334000Y-11462000D01*
X-5305660Y-11455670D01*
X-5283000Y-11436670D01*
X-5271670Y-11408170D01*
Y-11272000D01*
G01X-5224170Y-11462000D02*
Y-11272000D01*
X-5093830Y-11462000D01*
Y-11272000D01*
G01X-5040670D02*
Y-11462000D01*
X-4927330D01*
G01X-4752330D02*
X-4865670D01*
Y-11272000D01*
X-4752330D01*
G01X-4797670Y-11363830D02*
X-4865670D01*
G01X-4693500Y-11436670D02*
X-4670830Y-11452500D01*
X-4645330Y-11462000D01*
X-4622670D01*
X-4600000Y-11452500D01*
X-4583000Y-11436670D01*
X-4574500Y-11414500D01*
X-4580170Y-11392340D01*
X-4594330Y-11373330D01*
X-4619830Y-11360670D01*
X-4653830Y-11354330D01*
X-4673670Y-11341670D01*
X-4682170Y-11319500D01*
X-4676500Y-11297330D01*
X-4662340Y-11281500D01*
X-4642500Y-11272000D01*
X-4622670D01*
X-4602830Y-11278330D01*
X-4585830Y-11294170D01*
G01X-4518500Y-11436670D02*
X-4495830Y-11452500D01*
X-4470330Y-11462000D01*
X-4447670D01*
X-4425000Y-11452500D01*
X-4408000Y-11436670D01*
X-4399500Y-11414500D01*
X-4405170Y-11392340D01*
X-4419330Y-11373330D01*
X-4444830Y-11360670D01*
X-4478830Y-11354330D01*
X-4498670Y-11341670D01*
X-4507170Y-11319500D01*
X-4501500Y-11297330D01*
X-4487340Y-11281500D01*
X-4467500Y-11272000D01*
X-4447670D01*
X-4427830Y-11278330D01*
X-4410830Y-11294170D01*
G01X-4168500Y-11436670D02*
X-4145830Y-11452500D01*
X-4120330Y-11462000D01*
X-4097670D01*
X-4075000Y-11452500D01*
X-4058000Y-11436670D01*
X-4049500Y-11414500D01*
X-4055170Y-11392340D01*
X-4069330Y-11373330D01*
X-4094830Y-11360670D01*
X-4128830Y-11354330D01*
X-4148670Y-11341670D01*
X-4157170Y-11319500D01*
X-4151500Y-11297330D01*
X-4137340Y-11281500D01*
X-4117500Y-11272000D01*
X-4097670D01*
X-4077830Y-11278330D01*
X-4060830Y-11294170D01*
G01X-3934000Y-11272000D02*
Y-11462000D01*
G01X-3999170Y-11272000D02*
X-3868830D01*
G01X-3829840Y-11462000D02*
X-3759000Y-11272000D01*
X-3688160Y-11462000D01*
G01X-3713670Y-11395500D02*
X-3804340D01*
G01X-3584000Y-11272000D02*
Y-11462000D01*
G01X-3649170Y-11272000D02*
X-3518830D01*
G01X-3352330Y-11462000D02*
X-3465670D01*
Y-11272000D01*
X-3352330D01*
G01X-3397670Y-11363830D02*
X-3465670D01*
G01X-3296330Y-11462000D02*
Y-11272000D01*
X-3239670D01*
X-3217000Y-11281500D01*
X-3200000Y-11294170D01*
X-3185830Y-11313160D01*
X-3174500Y-11335340D01*
X-3171670Y-11367000D01*
X-3174500Y-11398670D01*
X-3185830Y-11420840D01*
X-3200000Y-11439840D01*
X-3217000Y-11452500D01*
X-3239670Y-11462000D01*
X-3296330D01*
G01X-2603500Y-10510000D02*
X-2626170Y-10516330D01*
X-2643170Y-10532170D01*
X-2654500Y-10551160D01*
X-2663000Y-10576500D01*
X-2665830Y-10605000D01*
X-2663000Y-10633500D01*
X-2654500Y-10658840D01*
X-2643170Y-10677840D01*
X-2626170Y-10693670D01*
X-2603500Y-10700000D01*
X-2580840Y-10693670D01*
X-2563830Y-10677840D01*
X-2552500Y-10658840D01*
X-2544000Y-10633500D01*
X-2541170Y-10605000D01*
X-2544000Y-10576500D01*
X-2552500Y-10551160D01*
X-2563830Y-10532170D01*
X-2580840Y-10516330D01*
X-2603500Y-10510000D01*
G01Y-8604500D02*
X-2626170Y-8601330D01*
X-2646000Y-8588670D01*
X-2663000Y-8569670D01*
X-2674340Y-8547500D01*
X-2680000Y-8522170D01*
Y-8496830D01*
X-2674340Y-8471500D01*
X-2663000Y-8449330D01*
X-2646000Y-8430340D01*
X-2626170Y-8417670D01*
X-2603500Y-8414500D01*
X-2580840Y-8417670D01*
X-2561000Y-8430340D01*
X-2544000Y-8449330D01*
X-2532660Y-8471500D01*
X-2527000Y-8496830D01*
Y-8522170D01*
X-2532660Y-8547500D01*
X-2544000Y-8569670D01*
X-2561000Y-8588670D01*
X-2580840Y-8601330D01*
X-2603500Y-8604500D01*
G01X-2485170D02*
Y-8414500D01*
X-2414330D01*
X-2391670Y-8424000D01*
X-2377500Y-8436670D01*
X-2371830Y-8462000D01*
X-2377500Y-8487340D01*
X-2394500Y-8503170D01*
X-2414330Y-8512670D01*
X-2485170D01*
G01X-2414330D02*
X-2371830Y-8604500D01*
G01X-2287500Y-8414500D02*
X-2219500D01*
G01X-2253500D02*
Y-8604500D01*
G01X-2287500D02*
X-2219500D01*
G01X-2061500Y-8509500D02*
X-2004830D01*
Y-8566500D01*
X-2021830Y-8585500D01*
X-2041670Y-8598170D01*
X-2070000Y-8604500D01*
X-2098330Y-8598170D01*
X-2118170Y-8585500D01*
X-2135170Y-8566500D01*
X-2146500Y-8544330D01*
X-2152170Y-8519000D01*
Y-8496830D01*
X-2146500Y-8477840D01*
X-2135170Y-8455660D01*
X-2118170Y-8436670D01*
X-2101170Y-8424000D01*
X-2078500Y-8414500D01*
X-2058670D01*
X-2036000Y-8420830D01*
X-2019000Y-8433500D01*
G01X-1937500Y-8414500D02*
X-1869500D01*
G01X-1903500D02*
Y-8604500D01*
G01X-1937500D02*
X-1869500D01*
G01X-1793670D02*
Y-8414500D01*
X-1663330Y-8604500D01*
Y-8414500D01*
G01X-1624340Y-8604500D02*
X-1553500Y-8414500D01*
X-1482660Y-8604500D01*
G01X-1508170Y-8538000D02*
X-1598840D01*
G01X-1435170Y-8414500D02*
Y-8604500D01*
X-1321830D01*
G01X-1088000Y-8579170D02*
X-1065330Y-8595000D01*
X-1039830Y-8604500D01*
X-1017170D01*
X-994500Y-8595000D01*
X-977500Y-8579170D01*
X-969000Y-8557000D01*
X-974670Y-8534840D01*
X-988830Y-8515830D01*
X-1014330Y-8503170D01*
X-1048330Y-8496830D01*
X-1068170Y-8484170D01*
X-1076670Y-8462000D01*
X-1071000Y-8439830D01*
X-1056840Y-8424000D01*
X-1037000Y-8414500D01*
X-1017170D01*
X-997330Y-8420830D01*
X-980330Y-8436670D01*
G01X-791170Y-8430340D02*
X-808170Y-8420830D01*
X-828000Y-8414500D01*
X-850660D01*
X-876170Y-8424000D01*
X-896000Y-8439830D01*
X-910170Y-8458840D01*
X-921500Y-8490500D01*
X-924340Y-8519000D01*
X-918670Y-8547500D01*
X-910170Y-8566500D01*
X-893170Y-8585500D01*
X-873330Y-8598170D01*
X-853500Y-8604500D01*
X-833670D01*
X-813830Y-8598170D01*
X-796830Y-8588670D01*
X-782660Y-8576010D01*
G01X-749340Y-8604500D02*
X-678500Y-8414500D01*
X-607660Y-8604500D01*
G01X-633170Y-8538000D02*
X-723840D01*
G01X-560170Y-8414500D02*
Y-8604500D01*
X-446830D01*
G01X-271830D02*
X-385170D01*
Y-8414500D01*
X-271830D01*
G01X-317170Y-8506330D02*
X-385170D01*
G01X2391500Y-10700000D02*
Y-10573340D01*
G01Y-10608170D02*
X2400000Y-10592330D01*
X2414170Y-10579670D01*
X2434000Y-10573340D01*
X2453830Y-10579670D01*
X2468000Y-10592330D01*
X2476500Y-10608170D01*
Y-10700000D01*
G01Y-10608170D02*
X2485000Y-10592330D01*
X2499160Y-10579670D01*
X2519000Y-10573340D01*
X2538830Y-10579670D01*
X2553000Y-10592330D01*
X2561500Y-10611330D01*
Y-10700000D01*
G01X2566500D02*
Y-10573340D01*
G01Y-10608170D02*
X2575000Y-10592330D01*
X2589170Y-10579670D01*
X2609000Y-10573340D01*
X2628830Y-10579670D01*
X2643000Y-10592330D01*
X2651500Y-10608170D01*
Y-10700000D01*
G01Y-10608170D02*
X2660000Y-10592330D01*
X2674160Y-10579670D01*
X2694000Y-10573340D01*
X2713830Y-10579670D01*
X2728000Y-10592330D01*
X2736500Y-10611330D01*
Y-10700000D01*
G01X3287000Y-8825500D02*
Y-8985500D01*
G01X3233330Y-8825500D02*
X3340670D01*
G01X3404000D02*
X3460000D01*
G01X3432000D02*
Y-8985500D01*
G01X3404000D02*
X3460000D01*
G01X3577000Y-8825500D02*
Y-8985500D01*
G01X3523330Y-8825500D02*
X3630670D01*
G01X3675330D02*
Y-8985500D01*
X3768670D01*
G01X3913670D02*
X3820330D01*
Y-8825500D01*
X3913670D01*
G01X3876330Y-8902830D02*
X3820330D01*
G01X3172170Y-7238000D02*
Y-7352670D01*
X3181500Y-7376670D01*
X3200170Y-7392670D01*
X3223500Y-7398000D01*
X3246830Y-7392670D01*
X3265500Y-7376670D01*
X3274830Y-7352670D01*
Y-7238000D01*
G01X3319500Y-7376670D02*
X3338170Y-7390000D01*
X3359170Y-7398000D01*
X3377830D01*
X3396500Y-7390000D01*
X3410500Y-7376670D01*
X3417500Y-7358000D01*
X3412830Y-7339340D01*
X3401170Y-7323330D01*
X3380170Y-7312670D01*
X3352170Y-7307330D01*
X3335830Y-7296670D01*
X3328830Y-7278000D01*
X3333500Y-7259330D01*
X3345170Y-7246000D01*
X3361500Y-7238000D01*
X3377830D01*
X3394170Y-7243330D01*
X3408170Y-7256670D01*
G01X3560170Y-7398000D02*
X3466830D01*
Y-7238000D01*
X3560170D01*
G01X3522830Y-7315330D02*
X3466830D01*
G01X3607170Y-7398000D02*
Y-7238000D01*
X3653830D01*
X3672500Y-7246000D01*
X3686500Y-7256670D01*
X3698170Y-7272660D01*
X3707500Y-7291340D01*
X3709830Y-7318000D01*
X3707500Y-7344670D01*
X3698170Y-7363340D01*
X3686500Y-7379340D01*
X3672500Y-7390000D01*
X3653830Y-7398000D01*
X3607170D01*
G01X3948500D02*
X3929830Y-7395330D01*
X3913500Y-7384670D01*
X3899500Y-7368670D01*
X3890160Y-7350000D01*
X3885500Y-7328670D01*
Y-7307330D01*
X3890160Y-7286000D01*
X3899500Y-7267330D01*
X3913500Y-7251340D01*
X3929830Y-7240670D01*
X3948500Y-7238000D01*
X3967160Y-7240670D01*
X3983500Y-7251340D01*
X3997500Y-7267330D01*
X4006840Y-7286000D01*
X4011500Y-7307330D01*
Y-7328670D01*
X4006840Y-7350000D01*
X3997500Y-7368670D01*
X3983500Y-7384670D01*
X3967160Y-7395330D01*
X3948500Y-7398000D01*
G01X4039830D02*
Y-7238000D01*
X4147170Y-7398000D01*
Y-7238000D01*
G01X14717000Y-11683000D02*
Y-11843000D01*
G01X14663330Y-11683000D02*
X14770670D01*
G01X14862000Y-11843000D02*
X14843330Y-11840330D01*
X14827000Y-11829670D01*
X14813000Y-11813670D01*
X14803660Y-11795000D01*
X14799000Y-11773670D01*
Y-11752330D01*
X14803660Y-11731000D01*
X14813000Y-11712330D01*
X14827000Y-11696340D01*
X14843330Y-11685670D01*
X14862000Y-11683000D01*
X14880660Y-11685670D01*
X14897000Y-11696340D01*
X14911000Y-11712330D01*
X14920340Y-11731000D01*
X14925000Y-11752330D01*
Y-11773670D01*
X14920340Y-11795000D01*
X14911000Y-11813670D01*
X14897000Y-11829670D01*
X14880660Y-11840330D01*
X14862000Y-11843000D01*
G01X15007000Y-11683000D02*
Y-11843000D01*
G01X14953330Y-11683000D02*
X15060670D01*
G01X15093660Y-11843000D02*
X15152000Y-11683000D01*
X15210340Y-11843000D01*
G01X15189330Y-11787000D02*
X15114660D01*
G01X15250330Y-11683000D02*
Y-11843000D01*
X15343670D01*
G01X15533330D02*
Y-11683000D01*
X15640670Y-11843000D01*
Y-11683000D01*
G01X15732000Y-11843000D02*
X15713330Y-11840330D01*
X15697000Y-11829670D01*
X15683000Y-11813670D01*
X15673660Y-11795000D01*
X15669000Y-11773670D01*
Y-11752330D01*
X15673660Y-11731000D01*
X15683000Y-11712330D01*
X15697000Y-11696340D01*
X15713330Y-11685670D01*
X15732000Y-11683000D01*
X15750660Y-11685670D01*
X15767000Y-11696340D01*
X15781000Y-11712330D01*
X15790340Y-11731000D01*
X15795000Y-11752330D01*
Y-11773670D01*
X15790340Y-11795000D01*
X15781000Y-11813670D01*
X15767000Y-11829670D01*
X15750660Y-11840330D01*
X15732000Y-11843000D01*
G01X15877000Y-11848330D02*
X15872330Y-11845670D01*
Y-11840330D01*
X15877000Y-11837670D01*
X15881670Y-11840330D01*
Y-11845670D01*
X15877000Y-11848330D01*
G01X16167000Y-11843000D02*
X16148330Y-11840330D01*
X16132000Y-11829670D01*
X16118000Y-11813670D01*
X16108660Y-11795000D01*
X16104000Y-11773670D01*
Y-11752330D01*
X16108660Y-11731000D01*
X16118000Y-11712330D01*
X16132000Y-11696340D01*
X16148330Y-11685670D01*
X16167000Y-11683000D01*
X16185660Y-11685670D01*
X16202000Y-11696340D01*
X16216000Y-11712330D01*
X16225340Y-11731000D01*
X16230000Y-11752330D01*
Y-11773670D01*
X16225340Y-11795000D01*
X16216000Y-11813670D01*
X16202000Y-11829670D01*
X16185660Y-11840330D01*
X16167000Y-11843000D01*
G01X16267670D02*
Y-11683000D01*
X16356330D01*
G01X16323670Y-11760330D02*
X16267670D01*
G01X16553000Y-11821670D02*
X16571670Y-11835000D01*
X16592670Y-11843000D01*
X16611330D01*
X16630000Y-11835000D01*
X16644000Y-11821670D01*
X16651000Y-11803000D01*
X16646330Y-11784340D01*
X16634670Y-11768330D01*
X16613670Y-11757670D01*
X16585670Y-11752330D01*
X16569330Y-11741670D01*
X16562330Y-11723000D01*
X16567000Y-11704330D01*
X16578670Y-11691000D01*
X16595000Y-11683000D01*
X16611330D01*
X16627670Y-11688330D01*
X16641670Y-11701670D01*
G01X16698000Y-11843000D02*
Y-11683000D01*
G01X16796000D02*
Y-11843000D01*
G01Y-11763000D02*
X16698000D01*
G01X16938670Y-11843000D02*
X16845330D01*
Y-11683000D01*
X16938670D01*
G01X16901330Y-11760330D02*
X16845330D01*
G01X17083670Y-11843000D02*
X16990330D01*
Y-11683000D01*
X17083670D01*
G01X17046330Y-11760330D02*
X16990330D01*
G01X17182000Y-11683000D02*
Y-11843000D01*
G01X17128330Y-11683000D02*
X17235670D01*
G01X17278000Y-11821670D02*
X17296670Y-11835000D01*
X17317670Y-11843000D01*
X17336330D01*
X17355000Y-11835000D01*
X17369000Y-11821670D01*
X17376000Y-11803000D01*
X17371330Y-11784340D01*
X17359670Y-11768330D01*
X17338670Y-11757670D01*
X17310670Y-11752330D01*
X17294330Y-11741670D01*
X17287330Y-11723000D01*
X17292000Y-11704330D01*
X17303670Y-11691000D01*
X17320000Y-11683000D01*
X17336330D01*
X17352670Y-11688330D01*
X17366670Y-11701670D01*
G01X15240000Y-8224000D02*
Y-8414000D01*
G01X15174830Y-8224000D02*
X15305170D01*
G01X15355500Y-8471000D02*
X15372500Y-8477330D01*
X15395170Y-8471000D01*
X15409330Y-8458340D01*
X15420670Y-8442500D01*
X15437660Y-8391840D01*
X15474500Y-8287340D01*
G01X15383830D02*
X15437660Y-8391840D01*
G01X15541830Y-8414000D02*
Y-8287340D01*
G01Y-8319000D02*
X15553170Y-8303170D01*
X15570170Y-8290500D01*
X15592840Y-8287340D01*
X15612660Y-8290500D01*
X15629670Y-8303170D01*
X15638170Y-8325330D01*
Y-8414000D01*
G01X15816000Y-8224000D02*
Y-8414000D01*
G01Y-8385510D02*
X15804670Y-8401340D01*
X15787660Y-8410830D01*
X15767840Y-8414000D01*
X15745170Y-8407670D01*
X15728170Y-8391840D01*
X15716830Y-8372840D01*
X15714000Y-8350670D01*
X15716830Y-8328500D01*
X15728170Y-8309500D01*
X15745170Y-8293670D01*
X15767840Y-8287340D01*
X15787660Y-8290500D01*
X15801830Y-8296840D01*
X15816000Y-8309500D01*
G01X15991000Y-8414000D02*
Y-8287340D01*
G01Y-8309500D02*
X15979670Y-8296840D01*
X15962660Y-8290500D01*
X15942840Y-8287340D01*
X15923000Y-8293670D01*
X15906000Y-8306330D01*
X15894660Y-8325330D01*
X15889000Y-8350670D01*
X15894660Y-8376000D01*
X15906000Y-8395000D01*
X15923000Y-8407670D01*
X15942840Y-8414000D01*
X15962660Y-8410830D01*
X15979670Y-8401340D01*
X15991000Y-8388670D01*
G01X16115000Y-8414000D02*
Y-8224000D01*
G01X16290000Y-8414000D02*
Y-8224000D01*
G01X16569160Y-8414000D02*
X16640000Y-8224000D01*
X16710840Y-8414000D01*
G01X16685330Y-8347500D02*
X16594660D01*
G01X16764000Y-8287340D02*
X16815000Y-8414000D01*
X16866000Y-8287340D01*
G01X16947500Y-8328500D02*
X17038170D01*
X17029670Y-8306330D01*
X17015500Y-8293670D01*
X16995670Y-8287340D01*
X16975830Y-8290500D01*
X16958830Y-8300000D01*
X16947500Y-8322170D01*
X16941830Y-8341170D01*
Y-8360170D01*
X16947500Y-8379170D01*
X16961660Y-8398170D01*
X16978670Y-8410830D01*
X16998500Y-8414000D01*
X17018340Y-8407670D01*
X17038170Y-8388670D01*
G01X17116830Y-8414000D02*
Y-8287340D01*
G01Y-8319000D02*
X17128170Y-8303170D01*
X17145170Y-8290500D01*
X17167840Y-8287340D01*
X17187660Y-8290500D01*
X17204670Y-8303170D01*
X17213170Y-8325330D01*
Y-8414000D01*
G01X17291830Y-8287340D02*
Y-8376000D01*
X17303170Y-8398170D01*
X17320170Y-8410830D01*
X17340000Y-8414000D01*
X17359830Y-8410830D01*
X17376830Y-8398170D01*
X17388170Y-8376000D01*
G01Y-8414000D02*
Y-8287340D01*
G01X17472500Y-8328500D02*
X17563170D01*
X17554670Y-8306330D01*
X17540500Y-8293670D01*
X17520670Y-8287340D01*
X17500830Y-8290500D01*
X17483830Y-8300000D01*
X17472500Y-8322170D01*
X17466830Y-8341170D01*
Y-8360170D01*
X17472500Y-8379170D01*
X17486660Y-8398170D01*
X17503670Y-8410830D01*
X17523500Y-8414000D01*
X17543340Y-8407670D01*
X17563170Y-8388670D01*
G01X17684330Y-8448830D02*
X17695670Y-8407670D01*
G01X18062660Y-8312670D02*
X18074000Y-8303170D01*
X18082500Y-8287340D01*
X18088170Y-8265160D01*
X18082500Y-8246170D01*
X18071170Y-8233500D01*
X18051330Y-8224000D01*
X17974830D01*
Y-8414000D01*
X18068340D01*
X18088170Y-8401340D01*
X18099500Y-8382330D01*
X18105170Y-8360170D01*
X18099500Y-8338000D01*
X18082500Y-8319000D01*
X18062660Y-8312670D01*
X17974830D01*
G01X18155500Y-8388670D02*
X18178170Y-8404500D01*
X18203670Y-8414000D01*
X18226330D01*
X18249000Y-8404500D01*
X18266000Y-8388670D01*
X18274500Y-8366500D01*
X18268830Y-8344340D01*
X18254670Y-8325330D01*
X18229170Y-8312670D01*
X18195170Y-8306330D01*
X18175330Y-8293670D01*
X18166830Y-8271500D01*
X18172500Y-8249330D01*
X18186660Y-8233500D01*
X18206500Y-8224000D01*
X18226330D01*
X18246170Y-8230330D01*
X18263170Y-8246170D01*
G01X18390000Y-8414000D02*
X18409830Y-8410830D01*
X18432500Y-8401340D01*
X18446670Y-8385510D01*
X18452330Y-8363330D01*
X18446670Y-8341170D01*
X18429670Y-8322170D01*
X18404170Y-8312670D01*
X18375830D01*
X18358830Y-8306330D01*
X18344660Y-8290500D01*
X18339000Y-8268340D01*
X18347500Y-8246170D01*
X18367330Y-8230330D01*
X18390000Y-8224000D01*
X18412660Y-8230330D01*
X18432500Y-8246170D01*
X18441000Y-8268340D01*
X18435330Y-8290500D01*
X18421170Y-8306330D01*
X18404170Y-8312670D01*
X18375830D01*
X18350330Y-8322170D01*
X18333330Y-8341170D01*
X18327670Y-8363330D01*
X18333330Y-8385510D01*
X18347500Y-8401340D01*
X18370170Y-8410830D01*
X18390000Y-8414000D01*
G01X18740000D02*
Y-8224000D01*
X18706000Y-8262000D01*
G01Y-8414000D02*
X18774000D01*
G01X18915000Y-8224000D02*
Y-8414000D01*
G01X18849830Y-8224000D02*
X18980170D01*
G01X19033330D02*
Y-8414000D01*
X19146670D01*
G01X15180500Y-8096500D02*
Y-7906500D01*
G01X15299500D02*
Y-8096500D01*
G01Y-8001500D02*
X15180500D01*
G01X15415000Y-8102830D02*
X15409330Y-8099670D01*
Y-8093330D01*
X15415000Y-8090170D01*
X15420670Y-8093330D01*
Y-8099670D01*
X15415000Y-8102830D01*
G01X15530500Y-8096500D02*
Y-7906500D01*
G01X15649500D02*
Y-8096500D01*
G01Y-8001500D02*
X15530500D01*
G01X15765000Y-8102830D02*
X15759330Y-8099670D01*
Y-8093330D01*
X15765000Y-8090170D01*
X15770670Y-8093330D01*
Y-8099670D01*
X15765000Y-8102830D01*
G01X16030000Y-7906500D02*
X16069660Y-8096500D01*
X16115000Y-7906500D01*
X16160330Y-8096500D01*
X16200000Y-7906500D01*
G01X16290000Y-7969840D02*
Y-8096500D01*
G01Y-7919170D02*
X16284330Y-7916000D01*
Y-7909670D01*
X16290000Y-7906500D01*
X16295670Y-7909670D01*
Y-7916000D01*
X16290000Y-7919170D01*
G01X16465000Y-8096500D02*
Y-7906500D01*
G01X16640000Y-8096500D02*
Y-7906500D01*
G01X16772500Y-8074340D02*
X16786660Y-8087000D01*
X16806500Y-8096500D01*
X16823500D01*
X16840500Y-8090170D01*
X16851830Y-8080670D01*
X16857500Y-8068010D01*
X16854670Y-8049000D01*
X16843340Y-8039500D01*
X16792330Y-8020500D01*
X16781000Y-7998330D01*
X16786660Y-7982500D01*
X16798000Y-7973000D01*
X16815000Y-7969840D01*
X16832000Y-7973000D01*
X16849000Y-7982500D01*
G01X17108330Y-8096500D02*
Y-7906500D01*
X17176330D01*
X17199000Y-7916000D01*
X17216000Y-7938170D01*
X17221670Y-7963500D01*
X17216000Y-7988830D01*
X17201830Y-8007830D01*
X17176330Y-8017340D01*
X17108330D01*
G01X17291830Y-8096500D02*
Y-7906500D01*
G01Y-7998330D02*
X17306000Y-7982500D01*
X17320170Y-7973000D01*
X17342840Y-7969840D01*
X17359830Y-7973000D01*
X17379670Y-7985670D01*
X17388170Y-8004670D01*
Y-8096500D01*
G01X17455500Y-8153500D02*
X17472500Y-8159830D01*
X17495170Y-8153500D01*
X17509330Y-8140840D01*
X17520670Y-8125000D01*
X17537660Y-8074340D01*
X17574500Y-7969840D01*
G01X17483830D02*
X17537660Y-8074340D01*
G01X17647500D02*
X17661660Y-8087000D01*
X17681500Y-8096500D01*
X17698500D01*
X17715500Y-8090170D01*
X17726830Y-8080670D01*
X17732500Y-8068010D01*
X17729670Y-8049000D01*
X17718340Y-8039500D01*
X17667330Y-8020500D01*
X17656000Y-7998330D01*
X17661660Y-7982500D01*
X17673000Y-7973000D01*
X17690000Y-7969840D01*
X17707000Y-7973000D01*
X17724000Y-7982500D01*
G01X17865000Y-7969840D02*
Y-8096500D01*
G01Y-7919170D02*
X17859330Y-7916000D01*
Y-7909670D01*
X17865000Y-7906500D01*
X17870670Y-7909670D01*
Y-7916000D01*
X17865000Y-7919170D01*
G01X18085330Y-7985670D02*
X18065500Y-7973000D01*
X18048500Y-7969840D01*
X18025830Y-7976170D01*
X18008830Y-7988830D01*
X17997500Y-8011000D01*
X17994660Y-8033170D01*
X17997500Y-8055340D01*
X18008830Y-8074340D01*
X18025830Y-8090170D01*
X18048500Y-8096500D01*
X18068340Y-8090170D01*
X18085330Y-8077500D01*
G01X18172500Y-8074340D02*
X18186660Y-8087000D01*
X18206500Y-8096500D01*
X18223500D01*
X18240500Y-8090170D01*
X18251830Y-8080670D01*
X18257500Y-8068010D01*
X18254670Y-8049000D01*
X18243340Y-8039500D01*
X18192330Y-8020500D01*
X18181000Y-7998330D01*
X18186660Y-7982500D01*
X18198000Y-7973000D01*
X18215000Y-7969840D01*
X18232000Y-7973000D01*
X18249000Y-7982500D01*
G01X18508330Y-7906500D02*
Y-8096500D01*
X18621670D01*
G01X18791000D02*
Y-7969840D01*
G01Y-7992000D02*
X18779670Y-7979340D01*
X18762660Y-7973000D01*
X18742840Y-7969840D01*
X18723000Y-7976170D01*
X18706000Y-7988830D01*
X18694660Y-8007830D01*
X18689000Y-8033170D01*
X18694660Y-8058500D01*
X18706000Y-8077500D01*
X18723000Y-8090170D01*
X18742840Y-8096500D01*
X18762660Y-8093330D01*
X18779670Y-8083840D01*
X18791000Y-8071170D01*
G01X18864000Y-8096500D02*
Y-7906500D01*
G01Y-8001500D02*
X18878170Y-7982500D01*
X18895170Y-7973000D01*
X18912160Y-7969840D01*
X18937660Y-7976170D01*
X18954670Y-7988830D01*
X18966000Y-8011000D01*
Y-8036330D01*
X18960330Y-8061670D01*
X18949000Y-8080670D01*
X18929170Y-8093330D01*
X18912160Y-8096500D01*
X18895170Y-8093330D01*
X18878170Y-8083840D01*
X18864000Y-8068010D01*
G01X19090000Y-8096500D02*
X19073000Y-8093330D01*
X19056000Y-8080670D01*
X19044660Y-8058500D01*
X19039000Y-8033170D01*
X19044660Y-8007830D01*
X19056000Y-7985670D01*
X19073000Y-7973000D01*
X19090000Y-7969840D01*
X19107000Y-7973000D01*
X19124000Y-7985670D01*
X19135330Y-8007830D01*
X19138170Y-8033170D01*
X19135330Y-8058500D01*
X19124000Y-8080670D01*
X19107000Y-8093330D01*
X19090000Y-8096500D01*
G01X19225330D02*
Y-7969840D01*
G01Y-7995170D02*
X19239500Y-7982500D01*
X19253670Y-7973000D01*
X19273500Y-7969840D01*
X19287660Y-7973000D01*
X19304670Y-7982500D01*
G01X19491000Y-8096500D02*
Y-7969840D01*
G01Y-7992000D02*
X19479670Y-7979340D01*
X19462660Y-7973000D01*
X19442840Y-7969840D01*
X19423000Y-7976170D01*
X19406000Y-7988830D01*
X19394660Y-8007830D01*
X19389000Y-8033170D01*
X19394660Y-8058500D01*
X19406000Y-8077500D01*
X19423000Y-8090170D01*
X19442840Y-8096500D01*
X19462660Y-8093330D01*
X19479670Y-8083840D01*
X19491000Y-8071170D01*
G01X19615000Y-7906500D02*
Y-8096500D01*
G01X19575330Y-7969840D02*
X19654670D01*
G01X19790000Y-8096500D02*
X19773000Y-8093330D01*
X19756000Y-8080670D01*
X19744660Y-8058500D01*
X19739000Y-8033170D01*
X19744660Y-8007830D01*
X19756000Y-7985670D01*
X19773000Y-7973000D01*
X19790000Y-7969840D01*
X19807000Y-7973000D01*
X19824000Y-7985670D01*
X19835330Y-8007830D01*
X19838170Y-8033170D01*
X19835330Y-8058500D01*
X19824000Y-8080670D01*
X19807000Y-8093330D01*
X19790000Y-8096500D01*
G01X19925330D02*
Y-7969840D01*
G01Y-7995170D02*
X19939500Y-7982500D01*
X19953670Y-7973000D01*
X19973500Y-7969840D01*
X19987660Y-7973000D01*
X20004670Y-7982500D01*
G01X20080500Y-8153500D02*
X20097500Y-8159830D01*
X20120170Y-8153500D01*
X20134330Y-8140840D01*
X20145670Y-8125000D01*
X20162660Y-8074340D01*
X20199500Y-7969840D01*
G01X20108830D02*
X20162660Y-8074340D01*
G01X20309330Y-8131330D02*
X20320670Y-8090170D01*
G54D16*
X-3810000Y3835600D03*
Y5260600D03*
X-3340000Y3835600D03*
Y5260600D03*
X-2840000Y3835600D03*
Y5260600D03*
X-2380000Y4068100D03*
Y4548100D03*
Y5028100D03*
X3680800Y4457500D03*
G54D26*
G01X-15134500Y-11361010D02*
X-15604500Y-11173510D01*
X-15134500Y-10985990D01*
G01X-15298990Y-11053510D02*
Y-11293510D01*
G01X-15228490Y-10640000D02*
X-15173660Y-10595010D01*
X-15142330Y-10535010D01*
X-15134500Y-10467490D01*
X-15142330Y-10407490D01*
X-15181490Y-10347490D01*
X-15228490Y-10310000D01*
X-15275500Y-10302500D01*
X-15330320Y-10317500D01*
X-15369490Y-10370000D01*
X-15385170Y-10422500D01*
Y-10490000D01*
G01Y-10422500D02*
X-15408670Y-10377500D01*
X-15447820Y-10339990D01*
X-15494830Y-10325000D01*
X-15541830Y-10339990D01*
X-15580990Y-10377500D01*
X-15604500Y-10445000D01*
X-15596670Y-10512500D01*
X-15565330Y-10580000D01*
G01X-15291160Y-10112500D02*
Y-9917500D01*
G01X-15604500Y-9555010D02*
X-15134500D01*
G01X-15604500Y-9727500D02*
Y-9382500D01*
G01X-15134500Y-8945000D02*
Y-9245000D01*
X-15604500D01*
Y-8945000D01*
G01X-15377340Y-9065000D02*
Y-9245000D01*
G01X-15291160Y-8732500D02*
Y-8537500D01*
G01X-15478010Y15843000D02*
X-15290510Y16313000D01*
X-15102990Y15843000D01*
G01X-15170510Y16007490D02*
X-15410510D01*
G01X-14566500Y15936990D02*
X-14521510Y15882160D01*
X-14461510Y15850830D01*
X-14393990Y15843000D01*
X-14333990Y15850830D01*
X-14273990Y15889990D01*
X-14236500Y15936990D01*
X-14229000Y15984000D01*
X-14244000Y16038820D01*
X-14296500Y16077990D01*
X-14349000Y16093670D01*
X-14416500D01*
G01X-14349000D02*
X-14304000Y16117170D01*
X-14266490Y16156320D01*
X-14251500Y16203330D01*
X-14266490Y16250330D01*
X-14304000Y16289490D01*
X-14371500Y16313000D01*
X-14439000Y16305170D01*
X-14506500Y16273830D01*
G01X-14039000Y15999660D02*
X-13844000D01*
G01X-13481510Y16313000D02*
Y15843000D01*
G01X-13654000Y16313000D02*
X-13309000D01*
G01X-12871500Y15843000D02*
X-13171500D01*
Y16313000D01*
X-12871500D01*
G01X-12991500Y16085840D02*
X-13171500D01*
G01X-12659000Y15999660D02*
X-12464000D01*
G01X-2569000Y-9747500D02*
Y-9307500D01*
X-2429000D01*
X-2373000Y-9329510D01*
X-2331000Y-9358840D01*
X-2295990Y-9402830D01*
X-2268000Y-9454180D01*
X-2261000Y-9527510D01*
X-2268000Y-9600840D01*
X-2295990Y-9652170D01*
X-2331000Y-9696180D01*
X-2373000Y-9725500D01*
X-2429000Y-9747500D01*
X-2569000D01*
G01X-1985010D02*
X-2041010Y-9740170D01*
X-2090000Y-9710840D01*
X-2132000Y-9666840D01*
X-2160010Y-9615500D01*
X-2174000Y-9556830D01*
Y-9498170D01*
X-2160010Y-9439500D01*
X-2132000Y-9388160D01*
X-2090000Y-9344170D01*
X-2041010Y-9314830D01*
X-1985010Y-9307500D01*
X-1929010Y-9314830D01*
X-1880000Y-9344170D01*
X-1838000Y-9388160D01*
X-1809990Y-9439500D01*
X-1796000Y-9498170D01*
Y-9556830D01*
X-1809990Y-9615500D01*
X-1838000Y-9666840D01*
X-1880000Y-9710840D01*
X-1929010Y-9740170D01*
X-1985010Y-9747500D01*
G01X-1286000D02*
Y-9307500D01*
X-964000Y-9747500D01*
Y-9307500D01*
G01X-695010Y-9747500D02*
X-751010Y-9740170D01*
X-800000Y-9710840D01*
X-842000Y-9666840D01*
X-870010Y-9615500D01*
X-884000Y-9556830D01*
Y-9498170D01*
X-870010Y-9439500D01*
X-842000Y-9388160D01*
X-800000Y-9344170D01*
X-751010Y-9314830D01*
X-695010Y-9307500D01*
X-639010Y-9314830D01*
X-590000Y-9344170D01*
X-548000Y-9388160D01*
X-519990Y-9439500D01*
X-506000Y-9498170D01*
Y-9556830D01*
X-519990Y-9615500D01*
X-548000Y-9666840D01*
X-590000Y-9710840D01*
X-639010Y-9740170D01*
X-695010Y-9747500D01*
G01X-265010Y-9307500D02*
Y-9747500D01*
G01X-426000Y-9307500D02*
X-104000D01*
G01X448000Y-9688850D02*
X504000Y-9725500D01*
X567000Y-9747500D01*
X623000D01*
X679000Y-9725500D01*
X721010Y-9688850D01*
X742000Y-9637500D01*
X728000Y-9586170D01*
X693000Y-9542170D01*
X630000Y-9512830D01*
X546000Y-9498170D01*
X497000Y-9468840D01*
X475990Y-9417500D01*
X490000Y-9366170D01*
X525000Y-9329510D01*
X574000Y-9307500D01*
X623000D01*
X672000Y-9322160D01*
X714010Y-9358840D01*
G01X1179000Y-9344170D02*
X1137000Y-9322160D01*
X1088010Y-9307500D01*
X1032000D01*
X968990Y-9329510D01*
X920000Y-9366170D01*
X885000Y-9410170D01*
X856990Y-9483500D01*
X849990Y-9549500D01*
X864000Y-9615500D01*
X885000Y-9659510D01*
X927000Y-9703510D01*
X976000Y-9732840D01*
X1024990Y-9747500D01*
X1074000D01*
X1123000Y-9732840D01*
X1165000Y-9710840D01*
X1200010Y-9681510D01*
G01X1279990Y-9747500D02*
X1454990Y-9307500D01*
X1630010Y-9747500D01*
G01X1567000Y-9593510D02*
X1342990D01*
G01X1745000Y-9307500D02*
Y-9747500D01*
X2025000D01*
G01X2455000D02*
X2175000D01*
Y-9307500D01*
X2455000D01*
G01X2343000Y-9520160D02*
X2175000D01*
G01X3394820Y-11271500D02*
X3648990Y-10641500D01*
X3903180Y-11271500D01*
G01X3811660Y-11051010D02*
X3486320D01*
G01X4631830Y-11145510D02*
X4692820Y-11219010D01*
X4774160Y-11261000D01*
X4865670Y-11271500D01*
X4947010Y-11261000D01*
X5028340Y-11208510D01*
X5079170Y-11145510D01*
X5089330Y-11082500D01*
X5069000Y-11009020D01*
X4997830Y-10956510D01*
X4926660Y-10935490D01*
X4835160D01*
G01X4926660D02*
X4987670Y-10904000D01*
X5038510Y-10851510D01*
X5058840Y-10788510D01*
X5038510Y-10725500D01*
X4987670Y-10673010D01*
X4896170Y-10641500D01*
X4804670Y-10652000D01*
X4713170Y-10694010D01*
G01X5343330Y-11061510D02*
X5607670D01*
G01X6095490Y-10641500D02*
Y-11271500D01*
G01X5861670Y-10641500D02*
X6329330D01*
G01X6918840Y-11271500D02*
X6512160D01*
Y-10641500D01*
X6918840D01*
G01X6756170Y-10945990D02*
X6512160D01*
G01X7203330Y-11061510D02*
X7467670D01*
G01X-15833000Y-11589000D02*
Y16605000D01*
X22140000D01*
Y-11589000D01*
X-15833000D01*
G01Y-10763500D02*
X-14817000D01*
G01Y-11589000D02*
Y-2064000D01*
X-15833000D01*
G01D02*
X-15325000D01*
G01X-15833000Y2508000D02*
X-15960000Y2381000D01*
Y2635000D01*
X-15833000Y2508000D01*
G01X-5038000Y15589000D02*
X-15833000D01*
G01X-14817000Y-9938000D02*
X2963000D01*
G01X-14817000Y16605000D02*
Y15589000D01*
G01X-9038500Y-8287000D02*
Y-11589000D01*
G01X-4390000Y-300000D02*
X-7880000D01*
G01X-7830000Y-345000D02*
Y-300000D01*
G01X-5460000Y-40000D02*
X-7880000D01*
G01X-7830000Y45000D02*
Y-40000D01*
G01X-5460000D02*
X-7470000D01*
G01X-7420000Y-125000D02*
Y-40000D01*
G01X-6610000Y170000D02*
X-7470000D01*
G01X-7420000Y265000D02*
Y170000D01*
G01X-6610000D02*
X-7200000D01*
G01X-7150000Y3145000D02*
Y170000D01*
G01Y3535000D02*
Y6270000D01*
G01X-6610000D02*
X-7200000D01*
G01X-6610000D02*
X-6840000D01*
G01X-6560000Y-650000D02*
Y-1000000D01*
G01X-6302250Y-950000D02*
X-6560000D01*
G01X-6560010Y114990D02*
Y-550000D01*
G01X1090000Y6600000D02*
X-3850000D01*
Y6370000D01*
G02X-3950000Y6270000I-100000J0D01*
G01X-6560000D01*
Y170000D01*
X-5510000D01*
G02X-5410000Y70000I0J-100000D01*
G01Y-40000D01*
X-4440000D01*
G02X-4340000Y-140000I0J-100000D01*
G01Y-300000D01*
X1090000D01*
Y6600000D01*
G01X-6560000Y720000D02*
Y5720000D01*
X-3160000D01*
Y720000D01*
X-6560000D01*
G01Y6180000D02*
Y7100000D01*
G01X-6560010Y6319990D02*
Y6850000D01*
G01X-6560000Y6320000D02*
Y6570000D01*
G01X-5602250Y6800000D02*
X-6560010D01*
G01X-3202250Y7050000D02*
X-6560000D01*
G01X-5673000Y-11335000D02*
X-5863500D01*
X-5736500Y-11462000D01*
X-5609500Y-11208000D01*
G01X-5597750Y-950000D02*
X-5410000D01*
G01X-5439060Y140480D02*
X-5690000Y-160000D01*
X-5789250D01*
G01X-5410000Y-600000D02*
Y-1000000D01*
G01X-5202250Y-950000D02*
X-5410000D01*
G01D02*
Y-900000D01*
G01Y-90000D02*
Y-550000D01*
G01X-4897750Y6800000D02*
X-3850000D01*
G01X-5038000Y15589000D02*
Y16605000D01*
G01X-4340000Y-650000D02*
Y-1000000D01*
G01X-1952250Y-950000D02*
X-4340000D01*
G01D02*
Y-900000D01*
G01X-4497750Y-950000D02*
X-4340000D01*
G01Y-350000D02*
Y-550000D01*
G01X-4359970Y-80040D02*
X-4500000Y-190000D01*
X-4619250D01*
G01X-3870120Y6309850D02*
X-4120000Y6590000D01*
X-4289250D01*
G01X-3850000Y6650000D02*
Y6850000D01*
G01Y6650000D02*
Y6850000D01*
G01X-1702250Y6800000D02*
X-3850000D01*
G01X-2879000Y-8287000D02*
Y-11589000D01*
G01X-2625000Y-11017500D02*
Y-10827000D01*
G01Y-11017500D02*
X2376260D01*
G01X-2879000Y-9112500D02*
X2963000D01*
G01X-2497750Y7050000D02*
X1090000D01*
G01X-1624240Y-11017500D02*
Y-10827000D01*
G01X-1247750Y-950000D02*
X1090000D01*
G01X-997750Y6800000D02*
X1090000D01*
G01X-623480Y-11017500D02*
Y-10827000D01*
G01X0Y-50000D02*
Y-650000D01*
G01X147750Y-600000D02*
X0D01*
G01X377280Y-11017500D02*
Y-10827000D01*
G01X50000Y0D02*
X1450000D01*
G01X852250Y-600000D02*
X1090000D01*
G01Y-650000D02*
Y-1000000D01*
G01X1140000Y-300000D02*
X1800000D01*
G01X1090000Y6650000D02*
Y7100000D01*
G01Y6650000D02*
Y6850000D01*
G01X1378040Y-11017500D02*
Y-10827000D01*
G01X1440000Y-300000D02*
X1450000D01*
G01X1400000Y-345000D02*
Y-300000D01*
G01Y45000D02*
Y0D01*
G01X1440000Y6600000D02*
X1800000D01*
G01X1750000Y3055000D02*
Y-300000D01*
G01Y3445000D02*
Y6600000D01*
G01X2378800Y-11017500D02*
Y-10827000D01*
G01X2540000Y-305000D02*
Y8600000D01*
X15128100D01*
Y-305000D01*
X2540000D01*
G01Y330000D02*
X15128100D01*
G01X2540000Y965000D02*
X15128100D01*
G01X2540000Y1600000D02*
X15128100D01*
G01X2540000Y2235000D02*
X15128100D01*
G01X2540000Y2870000D02*
X15128100D01*
G01X2540000Y3505000D02*
X15128100D01*
G01X2540000Y4140000D02*
X15128100D01*
G01X2540000Y4775000D02*
X15128100D01*
G01X2540000Y5410000D02*
X15128100D01*
G01X2540000Y6045000D02*
X15128100D01*
G01X2540000Y6680000D02*
X15128100D01*
G01X2540000Y7315000D02*
X15128100D01*
G01X2540000Y7950000D02*
X15128100D01*
G01X2963000Y-11589000D02*
Y-7144000D01*
G01X22140000Y-10319000D02*
X2963000D01*
G01X22140000Y-8668000D02*
X2963000D01*
G01X22140000Y-7779000D02*
X2963000D01*
G01Y-7144000D02*
Y-3969000D01*
G01Y-7144000D02*
X22140000D01*
G01Y-6128000D02*
X2963000D01*
G01X22140000Y-5112000D02*
X2963000D01*
G01X22140000Y-4096000D02*
X2963000D01*
G01X3153500Y-11589000D02*
X3026500Y-11716000D01*
X3280500D01*
X3153500Y-11589000D01*
G01Y16605000D02*
X3026500Y16732000D01*
X3280500D01*
X3153500Y16605000D01*
G01X4296500Y-10319000D02*
Y-11589000D01*
G01X4614000Y-7144000D02*
Y-3969000D01*
G01X4821600Y7315000D02*
Y-305000D01*
G01X5503000Y15081000D02*
Y16605000D01*
G01X13758000D02*
Y15081000D01*
X5503000D01*
G01X7535000Y-7144000D02*
Y-3969000D01*
G01X9567000Y15843000D02*
X10710000D01*
G01X10600780D02*
G03I-462280J0D01*
G01X9935500Y7315000D02*
Y-305000D01*
G01X10138500Y16414500D02*
Y15271500D01*
G01X10329000Y15843000D02*
G03I-190500J0D01*
G01X10456000Y-7144000D02*
Y-3969000D01*
G01X11218000Y15843000D02*
X12234000D01*
G01X11345000Y16033500D02*
Y15652500D01*
X12107000Y15398500D01*
Y16287500D01*
X11345000Y16033500D01*
G01X13161200Y7315000D02*
Y-305000D01*
G01X13377000Y-7144000D02*
Y-3969000D01*
G01X13758000Y15589000D02*
X22140000D01*
G01X19282500Y-11589000D02*
Y-11970000D01*
X14456500D01*
Y-11589000D01*
G01X16298000Y-7144000D02*
Y-3969000D01*
G01X17695000Y-7144000D02*
Y-7779000D01*
G01X19219000Y-7144000D02*
Y-3969000D01*
G01X22140000Y2508000D02*
X22267000Y2635000D01*
Y2381000D01*
X22140000Y2508000D01*
G54D17*
X-2990000Y4070000D03*
Y5030000D03*
X3680800Y1282500D03*
G54D27*
G01X3097300Y-6445500D02*
X3191690D01*
G01X3144500D02*
Y-6763000D01*
G01X3097300D02*
X3191690D01*
G01X3376600Y-6720680D02*
X3408070Y-6747130D01*
X3443470Y-6763000D01*
X3474930D01*
X3506400Y-6747130D01*
X3530000Y-6720680D01*
X3541800Y-6683620D01*
X3533940Y-6646590D01*
X3514270Y-6614840D01*
X3478870Y-6593660D01*
X3431670Y-6583080D01*
X3404130Y-6561920D01*
X3392330Y-6524880D01*
X3400200Y-6487830D01*
X3419860Y-6461380D01*
X3447400Y-6445500D01*
X3474930D01*
X3502470Y-6456080D01*
X3526070Y-6482540D01*
G01X3691300Y-6720680D02*
X3722770Y-6747130D01*
X3758170Y-6763000D01*
X3789630D01*
X3821100Y-6747130D01*
X3844700Y-6720680D01*
X3856500Y-6683620D01*
X3848640Y-6646590D01*
X3828970Y-6614840D01*
X3793570Y-6593660D01*
X3746370Y-6583080D01*
X3718830Y-6561920D01*
X3707030Y-6524880D01*
X3714900Y-6487830D01*
X3734560Y-6461380D01*
X3762100Y-6445500D01*
X3789630D01*
X3817170Y-6456080D01*
X3840770Y-6482540D01*
G01X4002070Y-6445500D02*
Y-6673040D01*
X4017800Y-6720680D01*
X4049260Y-6752420D01*
X4088600Y-6763000D01*
X4127940Y-6752420D01*
X4159400Y-6720680D01*
X4175130Y-6673040D01*
Y-6445500D01*
G01X4481970Y-6763000D02*
X4324630D01*
Y-6445500D01*
X4481970D01*
G01X4419030Y-6598950D02*
X4324630D01*
G01X2819310Y6838750D02*
Y7156250D01*
X2968790D01*
G01X2913720Y7002800D02*
X2819310D01*
G01X3161550Y7156250D02*
X3255940D01*
G01X3208750D02*
Y6838750D01*
G01X3161550D02*
X3255940D01*
G01X3547050Y6997500D02*
X3625720D01*
Y6902250D01*
X3602120Y6870490D01*
X3574580Y6849330D01*
X3535250Y6838750D01*
X3495920Y6849330D01*
X3468380Y6870490D01*
X3444780Y6902250D01*
X3429040Y6939290D01*
X3421180Y6981620D01*
Y7018670D01*
X3429040Y7050410D01*
X3444780Y7087460D01*
X3468380Y7119210D01*
X3491980Y7140370D01*
X3523450Y7156250D01*
X3550980D01*
X3582450Y7145670D01*
X3606050Y7124500D01*
G01X3751620Y7156250D02*
Y6928710D01*
X3767350Y6881070D01*
X3798810Y6849330D01*
X3838150Y6838750D01*
X3877490Y6849330D01*
X3908950Y6881070D01*
X3924680Y6928710D01*
Y7156250D01*
G01X4074180Y6838750D02*
Y7156250D01*
X4172520D01*
X4203980Y7140370D01*
X4223650Y7119210D01*
X4231520Y7076870D01*
X4223650Y7034540D01*
X4200050Y7008090D01*
X4172520Y6992200D01*
X4074180D01*
G01X4172520D02*
X4231520Y6838750D01*
G01X4546220D02*
X4388880D01*
Y7156250D01*
X4546220D01*
G01X4483280Y7002800D02*
X4388880D01*
G01X3311970Y-7969500D02*
Y-8197040D01*
X3327700Y-8244680D01*
X3359160Y-8276420D01*
X3398500Y-8287000D01*
X3437840Y-8276420D01*
X3469300Y-8244680D01*
X3485030Y-8197040D01*
Y-7969500D01*
G01X3646330Y-8287000D02*
Y-8075340D01*
G01Y-8128250D02*
X3662070Y-8101790D01*
X3685670Y-8080630D01*
X3717140Y-8075340D01*
X3744660Y-8080630D01*
X3768270Y-8101790D01*
X3780070Y-8138840D01*
Y-8287000D01*
G01X4027900Y-8075340D02*
Y-8287000D01*
G01Y-7990670D02*
X4020030Y-7985380D01*
Y-7974790D01*
X4027900Y-7969500D01*
X4035770Y-7974790D01*
Y-7985380D01*
X4027900Y-7990670D01*
G01X4271800Y-8075340D02*
X4342600Y-8287000D01*
X4413400Y-8075340D01*
G01X4598300Y-8144130D02*
X4724170D01*
X4712370Y-8107080D01*
X4692700Y-8085920D01*
X4665170Y-8075340D01*
X4637630Y-8080630D01*
X4614030Y-8096500D01*
X4598300Y-8133550D01*
X4590430Y-8165300D01*
Y-8197040D01*
X4598300Y-8228790D01*
X4617960Y-8260550D01*
X4641570Y-8281710D01*
X4669100Y-8287000D01*
X4696640Y-8276420D01*
X4724170Y-8244680D01*
G01X4916930Y-8287000D02*
Y-8075340D01*
G01Y-8117660D02*
X4936600Y-8096500D01*
X4956270Y-8080630D01*
X4983800Y-8075340D01*
X5003460Y-8080630D01*
X5027070Y-8096500D01*
G01X5227700Y-8249970D02*
X5247360Y-8271130D01*
X5274900Y-8287000D01*
X5298500D01*
X5322100Y-8276420D01*
X5337830Y-8260550D01*
X5345700Y-8239390D01*
X5341770Y-8207620D01*
X5326040Y-8191750D01*
X5255230Y-8160010D01*
X5239500Y-8122950D01*
X5247360Y-8096500D01*
X5263100Y-8080630D01*
X5286700Y-8075340D01*
X5310300Y-8080630D01*
X5333900Y-8096500D01*
G01X5601400Y-8075340D02*
Y-8287000D01*
G01Y-7990670D02*
X5593530Y-7985380D01*
Y-7974790D01*
X5601400Y-7969500D01*
X5609270Y-7974790D01*
Y-7985380D01*
X5601400Y-7990670D01*
G01X5916100Y-7969500D02*
Y-8287000D01*
G01X5861030Y-8075340D02*
X5971170D01*
G01X6148200Y-8382250D02*
X6171800Y-8392830D01*
X6203270Y-8382250D01*
X6222930Y-8361090D01*
X6238670Y-8334620D01*
X6262260Y-8249970D01*
X6313400Y-8075340D01*
G01X6187530D02*
X6262260Y-8249970D01*
G01X6860200Y-8287000D02*
X6836600Y-8281710D01*
X6813000Y-8260550D01*
X6797260Y-8223500D01*
X6789400Y-8181170D01*
X6797260Y-8138840D01*
X6813000Y-8101790D01*
X6836600Y-8080630D01*
X6860200Y-8075340D01*
X6883800Y-8080630D01*
X6907400Y-8101790D01*
X6923130Y-8138840D01*
X6927070Y-8181170D01*
X6923130Y-8223500D01*
X6907400Y-8260550D01*
X6883800Y-8281710D01*
X6860200Y-8287000D01*
G01X7151300D02*
Y-8017120D01*
X7159170Y-7990670D01*
X7174900Y-7974790D01*
X7198500Y-7969500D01*
X7222100Y-7980080D01*
X7233900Y-8006540D01*
G01X7186700Y-8096500D02*
X7108030D01*
G01X7835760Y-8117660D02*
X7851500Y-8101790D01*
X7863300Y-8075340D01*
X7871170Y-8038290D01*
X7863300Y-8006540D01*
X7847570Y-7985380D01*
X7820030Y-7969500D01*
X7713830D01*
Y-8287000D01*
X7843640D01*
X7871170Y-8265840D01*
X7886900Y-8234080D01*
X7894770Y-8197040D01*
X7886900Y-8160010D01*
X7863300Y-8128250D01*
X7835760Y-8117660D01*
X7713830D01*
G01X8063930Y-8287000D02*
Y-8075340D01*
G01Y-8117660D02*
X8083600Y-8096500D01*
X8103270Y-8080630D01*
X8130800Y-8075340D01*
X8150460Y-8080630D01*
X8174070Y-8096500D01*
G01X8433700Y-8075340D02*
Y-8287000D01*
G01Y-7990670D02*
X8425830Y-7985380D01*
Y-7974790D01*
X8433700Y-7969500D01*
X8441570Y-7974790D01*
Y-7985380D01*
X8433700Y-7990670D01*
G01X8689400Y-8249970D02*
X8709060Y-8271130D01*
X8736600Y-8287000D01*
X8760200D01*
X8783800Y-8276420D01*
X8799530Y-8260550D01*
X8807400Y-8239390D01*
X8803470Y-8207620D01*
X8787740Y-8191750D01*
X8716930Y-8160010D01*
X8701200Y-8122950D01*
X8709060Y-8096500D01*
X8724800Y-8080630D01*
X8748400Y-8075340D01*
X8772000Y-8080630D01*
X8795600Y-8096500D01*
G01X9063100Y-7969500D02*
Y-8287000D01*
G01X9008030Y-8075340D02*
X9118170D01*
G01X9377800Y-8287000D02*
X9354200Y-8281710D01*
X9330600Y-8260550D01*
X9314860Y-8223500D01*
X9307000Y-8181170D01*
X9314860Y-8138840D01*
X9330600Y-8101790D01*
X9354200Y-8080630D01*
X9377800Y-8075340D01*
X9401400Y-8080630D01*
X9425000Y-8101790D01*
X9440730Y-8138840D01*
X9444670Y-8181170D01*
X9440730Y-8223500D01*
X9425000Y-8260550D01*
X9401400Y-8281710D01*
X9377800Y-8287000D01*
G01X9692500D02*
Y-7969500D01*
G01X10239300Y-8287000D02*
Y-7969500D01*
G01X10404500D02*
Y-8287000D01*
G01Y-8128250D02*
X10239300D01*
G01X10715270Y-8287000D02*
X10557930D01*
Y-7969500D01*
X10715270D01*
G01X10652330Y-8122950D02*
X10557930D01*
G01X10872630Y-8287000D02*
Y-7969500D01*
X10967030D01*
X10998500Y-7985380D01*
X11022100Y-8022420D01*
X11029970Y-8064750D01*
X11022100Y-8107080D01*
X11002430Y-8138840D01*
X10967030Y-8154720D01*
X10872630D01*
G01X4487260Y7473750D02*
X4585600Y7791250D01*
X4683940Y7473750D01*
G01X4648530Y7584870D02*
X4522660D01*
G01X4821630Y7791250D02*
Y7473750D01*
X4978970D01*
G01X5136330Y7791250D02*
Y7473750D01*
X5293670D01*
G01X5757870Y7791250D02*
Y7563710D01*
X5773600Y7516070D01*
X5805060Y7484330D01*
X5844400Y7473750D01*
X5883740Y7484330D01*
X5915200Y7516070D01*
X5930930Y7563710D01*
Y7791250D01*
G01X6068630Y7473750D02*
Y7791250D01*
X6249570Y7473750D01*
Y7791250D01*
G01X6426600D02*
X6520990D01*
G01X6473800D02*
Y7473750D01*
G01X6426600D02*
X6520990D01*
G01X6788500Y7791250D02*
Y7473750D01*
G01X6698030Y7791250D02*
X6878970D01*
G01X7020600Y7516070D02*
X7052070Y7489620D01*
X7087470Y7473750D01*
X7118930D01*
X7150400Y7489620D01*
X7174000Y7516070D01*
X7185800Y7553130D01*
X7177940Y7590160D01*
X7158270Y7621910D01*
X7122870Y7643090D01*
X7075670Y7653670D01*
X7048130Y7674830D01*
X7036330Y7711870D01*
X7044200Y7748920D01*
X7063860Y7775370D01*
X7091400Y7791250D01*
X7118930D01*
X7146470Y7780670D01*
X7170070Y7754210D01*
G01X7634260Y7473750D02*
X7732600Y7791250D01*
X7830940Y7473750D01*
G01X7795530Y7584870D02*
X7669660D01*
G01X7968630Y7473750D02*
Y7791250D01*
X8066970D01*
X8098430Y7775370D01*
X8118100Y7754210D01*
X8125970Y7711870D01*
X8118100Y7669540D01*
X8094500Y7643090D01*
X8066970Y7627200D01*
X7968630D01*
G01X8066970D02*
X8125970Y7473750D01*
G01X8440670D02*
X8283330D01*
Y7791250D01*
X8440670D01*
G01X8377730Y7637800D02*
X8283330D01*
G01X8944200Y7791250D02*
X9038590D01*
G01X8991400D02*
Y7473750D01*
G01X8944200D02*
X9038590D01*
G01X9215630D02*
Y7791250D01*
X9396570Y7473750D01*
Y7791250D01*
G01X9833230Y7473750D02*
Y7791250D01*
X9935500Y7526670D01*
X10037770Y7791250D01*
Y7473750D01*
G01X10203000Y7791250D02*
X10297390D01*
G01X10250200D02*
Y7473750D01*
G01X10203000D02*
X10297390D01*
G01X10486230Y7791250D02*
Y7473750D01*
X10643570D01*
G01X10800930Y7791250D02*
Y7473750D01*
X10958270D01*
G01X11147100Y7791250D02*
X11241490D01*
G01X11194300D02*
Y7473750D01*
G01X11147100D02*
X11241490D01*
G01X11406730D02*
Y7791250D01*
X11509000Y7526670D01*
X11611270Y7791250D01*
Y7473750D01*
G01X11902370D02*
X11745030D01*
Y7791250D01*
X11902370D01*
G01X11839430Y7637800D02*
X11745030D01*
G01X12138400Y7791250D02*
Y7473750D01*
G01X12047930Y7791250D02*
X12228870D01*
G01X12531770Y7473750D02*
X12374430D01*
Y7791250D01*
X12531770D01*
G01X12468830Y7637800D02*
X12374430D01*
G01X12689130Y7473750D02*
Y7791250D01*
X12787470D01*
X12818930Y7775370D01*
X12838600Y7754210D01*
X12846470Y7711870D01*
X12838600Y7669540D01*
X12815000Y7643090D01*
X12787470Y7627200D01*
X12689130D01*
G01X12787470D02*
X12846470Y7473750D01*
G01X12999900Y7516070D02*
X13031370Y7489620D01*
X13066770Y7473750D01*
X13098230D01*
X13129700Y7489620D01*
X13153300Y7516070D01*
X13165100Y7553130D01*
X13157240Y7590160D01*
X13137570Y7621910D01*
X13102170Y7643090D01*
X13054970Y7653670D01*
X13027430Y7674830D01*
X13015630Y7711870D01*
X13023500Y7748920D01*
X13043160Y7775370D01*
X13070700Y7791250D01*
X13098230D01*
X13125770Y7780670D01*
X13149370Y7754210D01*
G01X4813770Y8123750D02*
Y8441250D01*
X4892430D01*
X4923900Y8425370D01*
X4947500Y8404210D01*
X4967170Y8372460D01*
X4982900Y8335410D01*
X4986830Y8282500D01*
X4982900Y8229580D01*
X4967170Y8192540D01*
X4947500Y8160780D01*
X4923900Y8139620D01*
X4892430Y8123750D01*
X4813770D01*
G01X5136330D02*
Y8441250D01*
X5234670D01*
X5266130Y8425370D01*
X5285800Y8404210D01*
X5293670Y8361870D01*
X5285800Y8319540D01*
X5262200Y8293090D01*
X5234670Y8277200D01*
X5136330D01*
G01X5234670D02*
X5293670Y8123750D01*
G01X5482500Y8441250D02*
X5576890D01*
G01X5529700D02*
Y8123750D01*
G01X5482500D02*
X5576890D01*
G01X5765730Y8441250D02*
Y8123750D01*
X5923070D01*
G01X6080430Y8441250D02*
Y8123750D01*
X6237770D01*
G01X6875030Y8414790D02*
X6851430Y8430670D01*
X6823900Y8441250D01*
X6792440D01*
X6757030Y8425370D01*
X6729500Y8398920D01*
X6709830Y8367160D01*
X6694090Y8314250D01*
X6690160Y8266620D01*
X6698030Y8219000D01*
X6709830Y8187250D01*
X6733430Y8155490D01*
X6760970Y8134330D01*
X6788500Y8123750D01*
X6816030D01*
X6843570Y8134330D01*
X6867170Y8150200D01*
X6886840Y8171360D01*
G01X7020600Y8123750D02*
Y8441250D01*
G01X7185800D02*
Y8123750D01*
G01Y8282500D02*
X7020600D01*
G01X7319560Y8123750D02*
X7417900Y8441250D01*
X7516240Y8123750D01*
G01X7480830Y8234870D02*
X7354960D01*
G01X7653930Y8123750D02*
Y8441250D01*
X7752270D01*
X7783730Y8425370D01*
X7803400Y8404210D01*
X7811270Y8361870D01*
X7803400Y8319540D01*
X7779800Y8293090D01*
X7752270Y8277200D01*
X7653930D01*
G01X7752270D02*
X7811270Y8123750D01*
G01X8047300Y8441250D02*
Y8123750D01*
G01X7956830Y8441250D02*
X8137770D01*
G01X8362000Y8113170D02*
X8354130Y8118460D01*
Y8129040D01*
X8362000Y8134330D01*
X8369870Y8129040D01*
Y8118460D01*
X8362000Y8113170D01*
G01Y8256030D02*
X8354130Y8261330D01*
Y8271910D01*
X8362000Y8277200D01*
X8369870Y8271910D01*
Y8261330D01*
X8362000Y8256030D01*
G01X8991400Y8441250D02*
Y8123750D01*
G01X8900930Y8441250D02*
X9081870D01*
G01X9306100Y8123750D02*
X9274630Y8129040D01*
X9247100Y8150200D01*
X9223500Y8181960D01*
X9207760Y8219000D01*
X9199900Y8261330D01*
Y8303670D01*
X9207760Y8346000D01*
X9223500Y8383040D01*
X9247100Y8414790D01*
X9274630Y8435960D01*
X9306100Y8441250D01*
X9337560Y8435960D01*
X9365100Y8414790D01*
X9388700Y8383040D01*
X9404440Y8346000D01*
X9412300Y8303670D01*
Y8261330D01*
X9404440Y8219000D01*
X9388700Y8181960D01*
X9365100Y8150200D01*
X9337560Y8129040D01*
X9306100Y8123750D01*
G01X9542130D02*
Y8441250D01*
X9636530D01*
X9668000Y8425370D01*
X9691600Y8388330D01*
X9699470Y8346000D01*
X9691600Y8303670D01*
X9671930Y8271910D01*
X9636530Y8256030D01*
X9542130D01*
G01X10250200Y8441250D02*
Y8123750D01*
G01X10195130Y8335410D02*
X10305270D01*
G01X10564900Y8123750D02*
X10541300Y8129040D01*
X10517700Y8150200D01*
X10501960Y8187250D01*
X10494100Y8229580D01*
X10501960Y8271910D01*
X10517700Y8308960D01*
X10541300Y8330120D01*
X10564900Y8335410D01*
X10588500Y8330120D01*
X10612100Y8308960D01*
X10627830Y8271910D01*
X10631770Y8229580D01*
X10627830Y8187250D01*
X10612100Y8150200D01*
X10588500Y8129040D01*
X10564900Y8123750D01*
G01X11225760Y8293090D02*
X11241500Y8308960D01*
X11253300Y8335410D01*
X11261170Y8372460D01*
X11253300Y8404210D01*
X11237570Y8425370D01*
X11210030Y8441250D01*
X11103830D01*
Y8123750D01*
X11233640D01*
X11261170Y8144910D01*
X11276900Y8176670D01*
X11284770Y8213710D01*
X11276900Y8250740D01*
X11253300Y8282500D01*
X11225760Y8293090D01*
X11103830D01*
G01X11509000Y8123750D02*
X11477530Y8129040D01*
X11450000Y8150200D01*
X11426400Y8181960D01*
X11410660Y8219000D01*
X11402800Y8261330D01*
Y8303670D01*
X11410660Y8346000D01*
X11426400Y8383040D01*
X11450000Y8414790D01*
X11477530Y8435960D01*
X11509000Y8441250D01*
X11540460Y8435960D01*
X11568000Y8414790D01*
X11591600Y8383040D01*
X11607340Y8346000D01*
X11615200Y8303670D01*
Y8261330D01*
X11607340Y8219000D01*
X11591600Y8181960D01*
X11568000Y8150200D01*
X11540460Y8129040D01*
X11509000Y8123750D01*
G01X11823700Y8441250D02*
Y8123750D01*
G01X11733230Y8441250D02*
X11914170D01*
G01X12138400D02*
Y8123750D01*
G01X12047930Y8441250D02*
X12228870D01*
G01X12453100Y8123750D02*
X12421630Y8129040D01*
X12394100Y8150200D01*
X12370500Y8181960D01*
X12354760Y8219000D01*
X12346900Y8261330D01*
Y8303670D01*
X12354760Y8346000D01*
X12370500Y8383040D01*
X12394100Y8414790D01*
X12421630Y8435960D01*
X12453100Y8441250D01*
X12484560Y8435960D01*
X12512100Y8414790D01*
X12535700Y8383040D01*
X12551440Y8346000D01*
X12559300Y8303670D01*
Y8261330D01*
X12551440Y8219000D01*
X12535700Y8181960D01*
X12512100Y8150200D01*
X12484560Y8129040D01*
X12453100Y8123750D01*
G01X12665530D02*
Y8441250D01*
X12767800Y8176670D01*
X12870070Y8441250D01*
Y8123750D01*
G01X5534470Y-6763000D02*
Y-6445500D01*
X5613130D01*
X5644600Y-6461380D01*
X5668200Y-6482540D01*
X5687870Y-6514290D01*
X5703600Y-6551340D01*
X5707530Y-6604250D01*
X5703600Y-6657170D01*
X5687870Y-6694210D01*
X5668200Y-6725970D01*
X5644600Y-6747130D01*
X5613130Y-6763000D01*
X5534470D01*
G01X5837360D02*
X5935700Y-6445500D01*
X6034040Y-6763000D01*
G01X5998630Y-6651880D02*
X5872760D01*
G01X6250400Y-6445500D02*
Y-6763000D01*
G01X6159930Y-6445500D02*
X6340870D01*
G01X6643770Y-6763000D02*
X6486430D01*
Y-6445500D01*
X6643770D01*
G01X6580830Y-6598950D02*
X6486430D01*
G01X5415610Y6838750D02*
Y7156250D01*
X5565090D01*
G01X5510020Y7002800D02*
X5415610D01*
G01X5757850Y7156250D02*
X5852240D01*
G01X5805050D02*
Y6838750D01*
G01X5757850D02*
X5852240D01*
G01X6029280D02*
Y7156250D01*
X6210220Y6838750D01*
Y7156250D01*
G01X6387250D02*
X6481640D01*
G01X6434450D02*
Y6838750D01*
G01X6387250D02*
X6481640D01*
G01X6666550Y6881070D02*
X6698020Y6854620D01*
X6733420Y6838750D01*
X6764880D01*
X6796350Y6854620D01*
X6819950Y6881070D01*
X6831750Y6918130D01*
X6823890Y6955160D01*
X6804220Y6986910D01*
X6768820Y7008090D01*
X6721620Y7018670D01*
X6694080Y7039830D01*
X6682280Y7076870D01*
X6690150Y7113920D01*
X6709810Y7140370D01*
X6737350Y7156250D01*
X6764880D01*
X6792420Y7145670D01*
X6816020Y7119210D01*
G01X6981250Y6838750D02*
Y7156250D01*
G01X7146450D02*
Y6838750D01*
G01Y6997500D02*
X6981250D01*
G01X7457220Y6838750D02*
X7299880D01*
Y7156250D01*
X7457220D01*
G01X7394280Y7002800D02*
X7299880D01*
G01X7606720Y6838750D02*
Y7156250D01*
X7685380D01*
X7716850Y7140370D01*
X7740450Y7119210D01*
X7760120Y7087460D01*
X7775850Y7050410D01*
X7779780Y6997500D01*
X7775850Y6944580D01*
X7760120Y6907540D01*
X7740450Y6875780D01*
X7716850Y6854620D01*
X7685380Y6838750D01*
X7606720D01*
G01X7889950Y6732920D02*
X8125950D01*
G01X8240050Y6881070D02*
X8271520Y6854620D01*
X8306920Y6838750D01*
X8338380D01*
X8369850Y6854620D01*
X8393450Y6881070D01*
X8405250Y6918130D01*
X8397390Y6955160D01*
X8377720Y6986910D01*
X8342320Y7008090D01*
X8295120Y7018670D01*
X8267580Y7039830D01*
X8255780Y7076870D01*
X8263650Y7113920D01*
X8283310Y7140370D01*
X8310850Y7156250D01*
X8338380D01*
X8365920Y7145670D01*
X8389520Y7119210D01*
G01X8590150Y7156250D02*
X8684540D01*
G01X8637350D02*
Y6838750D01*
G01X8590150D02*
X8684540D01*
G01X8877310Y7156250D02*
X9026790D01*
X8877310Y6838750D01*
X9026790D01*
G01X9345420D02*
X9188080D01*
Y7156250D01*
X9345420D01*
G01X9282480Y7002800D02*
X9188080D01*
G01X5859830Y15716000D02*
Y16033500D01*
X5954230D01*
X5985700Y16017620D01*
X6009300Y15980580D01*
X6017170Y15938250D01*
X6009300Y15895920D01*
X5989630Y15864160D01*
X5954230Y15848280D01*
X5859830D01*
G01X6174530Y15716000D02*
Y16033500D01*
X6272870D01*
X6304330Y16017620D01*
X6324000Y15996460D01*
X6331870Y15954120D01*
X6324000Y15911790D01*
X6300400Y15885340D01*
X6272870Y15869450D01*
X6174530D01*
G01X6272870D02*
X6331870Y15716000D01*
G01X6567900D02*
X6536430Y15721290D01*
X6508900Y15742450D01*
X6485300Y15774210D01*
X6469560Y15811250D01*
X6461700Y15853580D01*
Y15895920D01*
X6469560Y15938250D01*
X6485300Y15975290D01*
X6508900Y16007040D01*
X6536430Y16028210D01*
X6567900Y16033500D01*
X6599360Y16028210D01*
X6626900Y16007040D01*
X6650500Y15975290D01*
X6666240Y15938250D01*
X6674100Y15895920D01*
Y15853580D01*
X6666240Y15811250D01*
X6650500Y15774210D01*
X6626900Y15742450D01*
X6599360Y15721290D01*
X6567900Y15716000D01*
G01X6803930Y15779500D02*
X6823600Y15747740D01*
X6847200Y15726580D01*
X6874730Y15716000D01*
X6906200Y15726580D01*
X6929800Y15747740D01*
X6953400Y15779500D01*
X6961270Y15821830D01*
Y16033500D01*
G01X7275970Y15716000D02*
X7118630D01*
Y16033500D01*
X7275970D01*
G01X7213030Y15880050D02*
X7118630D01*
G01X7598530Y16007040D02*
X7574930Y16022920D01*
X7547400Y16033500D01*
X7515940D01*
X7480530Y16017620D01*
X7453000Y15991170D01*
X7433330Y15959410D01*
X7417590Y15906500D01*
X7413660Y15858870D01*
X7421530Y15811250D01*
X7433330Y15779500D01*
X7456930Y15747740D01*
X7484470Y15726580D01*
X7512000Y15716000D01*
X7539530D01*
X7567070Y15726580D01*
X7590670Y15742450D01*
X7610340Y15763610D01*
G01X7826700Y16033500D02*
Y15716000D01*
G01X7736230Y16033500D02*
X7917170D01*
G01X8094200D02*
X8188590D01*
G01X8141400D02*
Y15716000D01*
G01X8094200D02*
X8188590D01*
G01X8456100D02*
X8424630Y15721290D01*
X8397100Y15742450D01*
X8373500Y15774210D01*
X8357760Y15811250D01*
X8349900Y15853580D01*
Y15895920D01*
X8357760Y15938250D01*
X8373500Y15975290D01*
X8397100Y16007040D01*
X8424630Y16028210D01*
X8456100Y16033500D01*
X8487560Y16028210D01*
X8515100Y16007040D01*
X8538700Y15975290D01*
X8554440Y15938250D01*
X8562300Y15895920D01*
Y15853580D01*
X8554440Y15811250D01*
X8538700Y15774210D01*
X8515100Y15742450D01*
X8487560Y15721290D01*
X8456100Y15716000D01*
G01X8680330D02*
Y16033500D01*
X8861270Y15716000D01*
Y16033500D01*
G01X6359710Y118330D02*
X6383320Y150080D01*
X6410850Y165960D01*
X6442320Y171250D01*
X6481650Y160670D01*
X6509190Y134210D01*
X6517050Y102460D01*
X6513120Y70700D01*
X6497380Y44250D01*
X6418720Y-8670D01*
X6383320Y-45710D01*
X6359710Y-98640D01*
X6351850Y-146250D01*
X6517050D01*
G01X6749150Y-156830D02*
X6741280Y-151540D01*
Y-140960D01*
X6749150Y-135670D01*
X6757020Y-140960D01*
Y-151540D01*
X6749150Y-156830D01*
G01X7055980Y-146250D02*
X7063850Y-77460D01*
X7075650Y-19260D01*
X7091380Y33670D01*
X7111050Y91870D01*
X7142520Y171250D01*
X6985180D01*
G01X7319550Y65410D02*
X7437550Y-146250D01*
G01Y65410D02*
X7319550Y-146250D01*
G01X7693250Y171250D02*
X7661780Y160670D01*
X7638180Y134210D01*
X7622450Y102460D01*
X7610650Y60120D01*
X7606720Y12500D01*
X7610650Y-35130D01*
X7622450Y-77460D01*
X7638180Y-109220D01*
X7661780Y-135670D01*
X7693250Y-146250D01*
X7724710Y-135670D01*
X7748320Y-109220D01*
X7764050Y-77460D01*
X7775850Y-35130D01*
X7779780Y12500D01*
X7775850Y60120D01*
X7764050Y102460D01*
X7748320Y134210D01*
X7724710Y160670D01*
X7693250Y171250D01*
G01X8007950Y-156830D02*
X8000080Y-151540D01*
Y-140960D01*
X8007950Y-135670D01*
X8015820Y-140960D01*
Y-151540D01*
X8007950Y-156830D01*
G01X8255780Y-109220D02*
X8283310Y-135670D01*
X8314780Y-146250D01*
X8346250Y-135670D01*
X8373780Y-103930D01*
X8393450Y-56290D01*
X8401320Y-8670D01*
Y49540D01*
X8393450Y97160D01*
X8373780Y139500D01*
X8350180Y160670D01*
X8322650Y171250D01*
X8291180Y160670D01*
X8267580Y139500D01*
X8251850Y107750D01*
X8243980Y65410D01*
X8251850Y28380D01*
X8271520Y-8670D01*
X8295120Y-29840D01*
X8322650Y-35130D01*
X8354110Y-24550D01*
X8377720Y1910D01*
X8401320Y49540D01*
G01X6359710Y753330D02*
X6383320Y785080D01*
X6410850Y800960D01*
X6442320Y806250D01*
X6481650Y795670D01*
X6509190Y769210D01*
X6517050Y737460D01*
X6513120Y705700D01*
X6497380Y679250D01*
X6418720Y626330D01*
X6383320Y589290D01*
X6359710Y536360D01*
X6351850Y488750D01*
X6517050D01*
G01X6749150Y478170D02*
X6741280Y483460D01*
Y494040D01*
X6749150Y499330D01*
X6757020Y494040D01*
Y483460D01*
X6749150Y478170D01*
G01X7063850Y488750D02*
Y806250D01*
X7016650Y742750D01*
G01Y488750D02*
X7111040D01*
G01X7319550Y700410D02*
X7437550Y488750D01*
G01Y700410D02*
X7319550Y488750D01*
G01X7693250Y806250D02*
X7661780Y795670D01*
X7638180Y769210D01*
X7622450Y737460D01*
X7610650Y695120D01*
X7606720Y647500D01*
X7610650Y599870D01*
X7622450Y557540D01*
X7638180Y525780D01*
X7661780Y499330D01*
X7693250Y488750D01*
X7724710Y499330D01*
X7748320Y525780D01*
X7764050Y557540D01*
X7775850Y599870D01*
X7779780Y647500D01*
X7775850Y695120D01*
X7764050Y737460D01*
X7748320Y769210D01*
X7724710Y795670D01*
X7693250Y806250D01*
G01X8007950Y478170D02*
X8000080Y483460D01*
Y494040D01*
X8007950Y499330D01*
X8015820Y494040D01*
Y483460D01*
X8007950Y478170D01*
G01X8255780Y525780D02*
X8283310Y499330D01*
X8314780Y488750D01*
X8346250Y499330D01*
X8373780Y531070D01*
X8393450Y578710D01*
X8401320Y626330D01*
Y684540D01*
X8393450Y732160D01*
X8373780Y774500D01*
X8350180Y795670D01*
X8322650Y806250D01*
X8291180Y795670D01*
X8267580Y774500D01*
X8251850Y742750D01*
X8243980Y700410D01*
X8251850Y663380D01*
X8271520Y626330D01*
X8295120Y605160D01*
X8322650Y599870D01*
X8354110Y610450D01*
X8377720Y636910D01*
X8401320Y684540D01*
G01X6906500Y3028750D02*
Y3346250D01*
X6859300Y3282750D01*
G01Y3028750D02*
X6953690D01*
G01X7221200Y3018170D02*
X7213330Y3023460D01*
Y3034040D01*
X7221200Y3039330D01*
X7229070Y3034040D01*
Y3023460D01*
X7221200Y3018170D01*
G01X7535900Y3346250D02*
X7504430Y3335670D01*
X7480830Y3309210D01*
X7465100Y3277460D01*
X7453300Y3235120D01*
X7449370Y3187500D01*
X7453300Y3139870D01*
X7465100Y3097540D01*
X7480830Y3065780D01*
X7504430Y3039330D01*
X7535900Y3028750D01*
X7567360Y3039330D01*
X7590970Y3065780D01*
X7606700Y3097540D01*
X7618500Y3139870D01*
X7622430Y3187500D01*
X7618500Y3235120D01*
X7606700Y3277460D01*
X7590970Y3309210D01*
X7567360Y3335670D01*
X7535900Y3346250D01*
G01X7764070Y3076360D02*
X7787660Y3049910D01*
X7815200Y3034040D01*
X7850600Y3028750D01*
X7886000Y3039330D01*
X7913530Y3060490D01*
X7933200Y3097540D01*
X7937130Y3139870D01*
X7929270Y3182200D01*
X7909600Y3208670D01*
X7882060Y3229830D01*
X7854540Y3235120D01*
X7827000Y3229830D01*
X7791600Y3208670D01*
X7803400Y3346250D01*
X7909600D01*
G01X6906500Y4616250D02*
X6875030Y4605670D01*
X6851430Y4579210D01*
X6835700Y4547460D01*
X6823900Y4505120D01*
X6819970Y4457500D01*
X6823900Y4409870D01*
X6835700Y4367540D01*
X6851430Y4335780D01*
X6875030Y4309330D01*
X6906500Y4298750D01*
X6937960Y4309330D01*
X6961570Y4335780D01*
X6977300Y4367540D01*
X6989100Y4409870D01*
X6993030Y4457500D01*
X6989100Y4505120D01*
X6977300Y4547460D01*
X6961570Y4579210D01*
X6937960Y4605670D01*
X6906500Y4616250D01*
G01X7221200Y4288170D02*
X7213330Y4293460D01*
Y4304040D01*
X7221200Y4309330D01*
X7229070Y4304040D01*
Y4293460D01*
X7221200Y4288170D01*
G01X7469030Y4335780D02*
X7496560Y4309330D01*
X7528030Y4298750D01*
X7559500Y4309330D01*
X7587030Y4341070D01*
X7606700Y4388710D01*
X7614570Y4436330D01*
Y4494540D01*
X7606700Y4542160D01*
X7587030Y4584500D01*
X7563430Y4605670D01*
X7535900Y4616250D01*
X7504430Y4605670D01*
X7480830Y4584500D01*
X7465100Y4552750D01*
X7457230Y4510410D01*
X7465100Y4473380D01*
X7484770Y4436330D01*
X7508370Y4415160D01*
X7535900Y4409870D01*
X7567360Y4420450D01*
X7590970Y4446910D01*
X7614570Y4494540D01*
G01X7764070Y4346360D02*
X7787660Y4319910D01*
X7815200Y4304040D01*
X7850600Y4298750D01*
X7886000Y4309330D01*
X7913530Y4330490D01*
X7933200Y4367540D01*
X7937130Y4409870D01*
X7929270Y4452200D01*
X7909600Y4478670D01*
X7882060Y4499830D01*
X7854540Y4505120D01*
X7827000Y4499830D01*
X7791600Y4478670D01*
X7803400Y4616250D01*
X7909600D01*
G01X6591800Y5251250D02*
X6560330Y5240670D01*
X6536730Y5214210D01*
X6521000Y5182460D01*
X6509200Y5140120D01*
X6505270Y5092500D01*
X6509200Y5044870D01*
X6521000Y5002540D01*
X6536730Y4970780D01*
X6560330Y4944330D01*
X6591800Y4933750D01*
X6623260Y4944330D01*
X6646870Y4970780D01*
X6662600Y5002540D01*
X6674400Y5044870D01*
X6678330Y5092500D01*
X6674400Y5140120D01*
X6662600Y5182460D01*
X6646870Y5214210D01*
X6623260Y5240670D01*
X6591800Y5251250D01*
G01X6906500Y4923170D02*
X6898630Y4928460D01*
Y4939040D01*
X6906500Y4944330D01*
X6914370Y4939040D01*
Y4928460D01*
X6906500Y4923170D01*
G01X7221200Y4933750D02*
X7248730Y4939040D01*
X7280200Y4954910D01*
X7299870Y4981360D01*
X7307730Y5018420D01*
X7299870Y5055450D01*
X7276270Y5087200D01*
X7240870Y5103090D01*
X7201530D01*
X7177930Y5113670D01*
X7158260Y5140120D01*
X7150400Y5177160D01*
X7162200Y5214210D01*
X7189730Y5240670D01*
X7221200Y5251250D01*
X7252660Y5240670D01*
X7280200Y5214210D01*
X7292000Y5177160D01*
X7284130Y5140120D01*
X7264470Y5113670D01*
X7240870Y5103090D01*
X7201530D01*
X7166130Y5087200D01*
X7142530Y5055450D01*
X7134670Y5018420D01*
X7142530Y4981360D01*
X7162200Y4954910D01*
X7193670Y4939040D01*
X7221200Y4933750D01*
G01X7583100D02*
Y5251250D01*
X7437560Y5023710D01*
X7634240D01*
G01X7783730Y4970780D02*
X7811260Y4944330D01*
X7842730Y4933750D01*
X7874200Y4944330D01*
X7901730Y4976070D01*
X7921400Y5023710D01*
X7929270Y5071330D01*
Y5129540D01*
X7921400Y5177160D01*
X7901730Y5219500D01*
X7878130Y5240670D01*
X7850600Y5251250D01*
X7819130Y5240670D01*
X7795530Y5219500D01*
X7779800Y5187750D01*
X7771930Y5145410D01*
X7779800Y5108380D01*
X7799470Y5071330D01*
X7823070Y5050160D01*
X7850600Y5044870D01*
X7882060Y5055450D01*
X7905670Y5081910D01*
X7929270Y5129540D01*
G01X8098430Y4970780D02*
X8125960Y4944330D01*
X8157430Y4933750D01*
X8188900Y4944330D01*
X8216430Y4976070D01*
X8236100Y5023710D01*
X8243970Y5071330D01*
Y5129540D01*
X8236100Y5177160D01*
X8216430Y5219500D01*
X8192830Y5240670D01*
X8165300Y5251250D01*
X8133830Y5240670D01*
X8110230Y5219500D01*
X8094500Y5187750D01*
X8086630Y5145410D01*
X8094500Y5108380D01*
X8114170Y5071330D01*
X8137770Y5050160D01*
X8165300Y5044870D01*
X8196760Y5055450D01*
X8220370Y5081910D01*
X8243970Y5129540D01*
G01X6591800Y5886250D02*
X6560330Y5875670D01*
X6536730Y5849210D01*
X6521000Y5817460D01*
X6509200Y5775120D01*
X6505270Y5727500D01*
X6509200Y5679870D01*
X6521000Y5637540D01*
X6536730Y5605780D01*
X6560330Y5579330D01*
X6591800Y5568750D01*
X6623260Y5579330D01*
X6646870Y5605780D01*
X6662600Y5637540D01*
X6674400Y5679870D01*
X6678330Y5727500D01*
X6674400Y5775120D01*
X6662600Y5817460D01*
X6646870Y5849210D01*
X6623260Y5875670D01*
X6591800Y5886250D01*
G01X6906500Y5558170D02*
X6898630Y5563460D01*
Y5574040D01*
X6906500Y5579330D01*
X6914370Y5574040D01*
Y5563460D01*
X6906500Y5558170D01*
G01X7221200Y5568750D02*
X7248730Y5574040D01*
X7280200Y5589910D01*
X7299870Y5616360D01*
X7307730Y5653420D01*
X7299870Y5690450D01*
X7276270Y5722200D01*
X7240870Y5738090D01*
X7201530D01*
X7177930Y5748670D01*
X7158260Y5775120D01*
X7150400Y5812160D01*
X7162200Y5849210D01*
X7189730Y5875670D01*
X7221200Y5886250D01*
X7252660Y5875670D01*
X7280200Y5849210D01*
X7292000Y5812160D01*
X7284130Y5775120D01*
X7264470Y5748670D01*
X7240870Y5738090D01*
X7201530D01*
X7166130Y5722200D01*
X7142530Y5690450D01*
X7134670Y5653420D01*
X7142530Y5616360D01*
X7162200Y5589910D01*
X7193670Y5574040D01*
X7221200Y5568750D01*
G01X7535900D02*
Y5886250D01*
X7488700Y5822750D01*
G01Y5568750D02*
X7583090D01*
G01X7775860Y5833330D02*
X7799470Y5865080D01*
X7827000Y5880960D01*
X7858470Y5886250D01*
X7897800Y5875670D01*
X7925340Y5849210D01*
X7933200Y5817460D01*
X7929270Y5785700D01*
X7913530Y5759250D01*
X7834870Y5706330D01*
X7799470Y5669290D01*
X7775860Y5616360D01*
X7768000Y5568750D01*
X7933200D01*
G01X8165300D02*
X8192830Y5574040D01*
X8224300Y5589910D01*
X8243970Y5616360D01*
X8251830Y5653420D01*
X8243970Y5690450D01*
X8220370Y5722200D01*
X8184970Y5738090D01*
X8145630D01*
X8122030Y5748670D01*
X8102360Y5775120D01*
X8094500Y5812160D01*
X8106300Y5849210D01*
X8133830Y5875670D01*
X8165300Y5886250D01*
X8196760Y5875670D01*
X8224300Y5849210D01*
X8236100Y5812160D01*
X8228230Y5775120D01*
X8208570Y5748670D01*
X8184970Y5738090D01*
X8145630D01*
X8110230Y5722200D01*
X8086630Y5690450D01*
X8078770Y5653420D01*
X8086630Y5616360D01*
X8106300Y5589910D01*
X8137770Y5574040D01*
X8165300Y5568750D01*
G01X7063850Y1123750D02*
Y1441250D01*
X7016650Y1377750D01*
G01Y1123750D02*
X7111040D01*
G01X7378550Y1113170D02*
X7370680Y1118460D01*
Y1129040D01*
X7378550Y1134330D01*
X7386420Y1129040D01*
Y1118460D01*
X7378550Y1113170D01*
G01X7740450Y1123750D02*
Y1441250D01*
X7594910Y1213710D01*
X7791590D01*
G01X7063850Y1758750D02*
Y2076250D01*
X7016650Y2012750D01*
G01Y1758750D02*
X7111040D01*
G01X7378550Y1748170D02*
X7370680Y1753460D01*
Y1764040D01*
X7378550Y1769330D01*
X7386420Y1764040D01*
Y1753460D01*
X7378550Y1748170D01*
G01X7606720Y1822250D02*
X7630310Y1785200D01*
X7661780Y1764040D01*
X7697190Y1758750D01*
X7728650Y1764040D01*
X7760120Y1790490D01*
X7779780Y1822250D01*
X7783720Y1854000D01*
X7775850Y1891030D01*
X7748320Y1917500D01*
X7720780Y1928090D01*
X7685380D01*
G01X7720780D02*
X7744380Y1943960D01*
X7764050Y1970410D01*
X7771920Y2002160D01*
X7764050Y2033920D01*
X7744380Y2060370D01*
X7708980Y2076250D01*
X7673580Y2070960D01*
X7638180Y2049790D01*
G01X6989110Y2658330D02*
X7012720Y2690080D01*
X7040250Y2705960D01*
X7071720Y2711250D01*
X7111050Y2700670D01*
X7138590Y2674210D01*
X7146450Y2642460D01*
X7142520Y2610700D01*
X7126780Y2584250D01*
X7048120Y2531330D01*
X7012720Y2494290D01*
X6989110Y2441360D01*
X6981250Y2393750D01*
X7146450D01*
G01X7378550Y2383170D02*
X7370680Y2388460D01*
Y2399040D01*
X7378550Y2404330D01*
X7386420Y2399040D01*
Y2388460D01*
X7378550Y2383170D01*
G01X7685380Y2393750D02*
X7693250Y2462540D01*
X7705050Y2520740D01*
X7720780Y2573670D01*
X7740450Y2631870D01*
X7771920Y2711250D01*
X7614580D01*
G01X7063850Y3663750D02*
Y3981250D01*
X7016650Y3917750D01*
G01Y3663750D02*
X7111040D01*
G01X7378550Y3653170D02*
X7370680Y3658460D01*
Y3669040D01*
X7378550Y3674330D01*
X7386420Y3669040D01*
Y3658460D01*
X7378550Y3653170D01*
G01X7693250Y3981250D02*
X7661780Y3970670D01*
X7638180Y3944210D01*
X7622450Y3912460D01*
X7610650Y3870120D01*
X7606720Y3822500D01*
X7610650Y3774870D01*
X7622450Y3732540D01*
X7638180Y3700780D01*
X7661780Y3674330D01*
X7693250Y3663750D01*
X7724710Y3674330D01*
X7748320Y3700780D01*
X7764050Y3732540D01*
X7775850Y3774870D01*
X7779780Y3822500D01*
X7775850Y3870120D01*
X7764050Y3912460D01*
X7748320Y3944210D01*
X7724710Y3970670D01*
X7693250Y3981250D01*
G01X7063850Y6521250D02*
X7032380Y6510670D01*
X7008780Y6484210D01*
X6993050Y6452460D01*
X6981250Y6410120D01*
X6977320Y6362500D01*
X6981250Y6314870D01*
X6993050Y6272540D01*
X7008780Y6240780D01*
X7032380Y6214330D01*
X7063850Y6203750D01*
X7095310Y6214330D01*
X7118920Y6240780D01*
X7134650Y6272540D01*
X7146450Y6314870D01*
X7150380Y6362500D01*
X7146450Y6410120D01*
X7134650Y6452460D01*
X7118920Y6484210D01*
X7095310Y6510670D01*
X7063850Y6521250D01*
G01X7378550Y6193170D02*
X7370680Y6198460D01*
Y6209040D01*
X7378550Y6214330D01*
X7386420Y6209040D01*
Y6198460D01*
X7378550Y6193170D01*
G01X7606720Y6267250D02*
X7630310Y6230200D01*
X7661780Y6209040D01*
X7697190Y6203750D01*
X7728650Y6209040D01*
X7760120Y6235490D01*
X7779780Y6267250D01*
X7783720Y6299000D01*
X7775850Y6336030D01*
X7748320Y6362500D01*
X7720780Y6373090D01*
X7685380D01*
G01X7720780D02*
X7744380Y6388960D01*
X7764050Y6415410D01*
X7771920Y6447160D01*
X7764050Y6478920D01*
X7744380Y6505370D01*
X7708980Y6521250D01*
X7673580Y6515960D01*
X7638180Y6494790D01*
G01X8058730Y-6763000D02*
Y-6445500D01*
X8161000Y-6710080D01*
X8263270Y-6445500D01*
Y-6763000D01*
G01X8475700D02*
X8444230Y-6757710D01*
X8416700Y-6736550D01*
X8393100Y-6704790D01*
X8377360Y-6667750D01*
X8369500Y-6625420D01*
Y-6583080D01*
X8377360Y-6540750D01*
X8393100Y-6503710D01*
X8416700Y-6471960D01*
X8444230Y-6450790D01*
X8475700Y-6445500D01*
X8507160Y-6450790D01*
X8534700Y-6471960D01*
X8558300Y-6503710D01*
X8574040Y-6540750D01*
X8581900Y-6583080D01*
Y-6625420D01*
X8574040Y-6667750D01*
X8558300Y-6704790D01*
X8534700Y-6736550D01*
X8507160Y-6757710D01*
X8475700Y-6763000D01*
G01X8703870D02*
Y-6445500D01*
X8782530D01*
X8814000Y-6461380D01*
X8837600Y-6482540D01*
X8857270Y-6514290D01*
X8873000Y-6551340D01*
X8876930Y-6604250D01*
X8873000Y-6657170D01*
X8857270Y-6694210D01*
X8837600Y-6725970D01*
X8814000Y-6747130D01*
X8782530Y-6763000D01*
X8703870D01*
G01X9329330D02*
Y-6445500D01*
X9510270Y-6763000D01*
Y-6445500D01*
G01X9734500Y-6763000D02*
X9703030Y-6757710D01*
X9675500Y-6736550D01*
X9651900Y-6704790D01*
X9636160Y-6667750D01*
X9628300Y-6625420D01*
Y-6583080D01*
X9636160Y-6540750D01*
X9651900Y-6503710D01*
X9675500Y-6471960D01*
X9703030Y-6450790D01*
X9734500Y-6445500D01*
X9765960Y-6450790D01*
X9793500Y-6471960D01*
X9817100Y-6503710D01*
X9832840Y-6540750D01*
X9840700Y-6583080D01*
Y-6625420D01*
X9832840Y-6667750D01*
X9817100Y-6704790D01*
X9793500Y-6736550D01*
X9765960Y-6757710D01*
X9734500Y-6763000D01*
G01X10049200Y-6773580D02*
X10041330Y-6768290D01*
Y-6757710D01*
X10049200Y-6752420D01*
X10057070Y-6757710D01*
Y-6768290D01*
X10049200Y-6773580D01*
G01X10041730Y1123750D02*
Y1441250D01*
X10222670Y1123750D01*
Y1441250D01*
G01X10446900Y1123750D02*
X10415430Y1129040D01*
X10387900Y1150200D01*
X10364300Y1181960D01*
X10348560Y1219000D01*
X10340700Y1261330D01*
Y1303670D01*
X10348560Y1346000D01*
X10364300Y1383040D01*
X10387900Y1414790D01*
X10415430Y1435960D01*
X10446900Y1441250D01*
X10478360Y1435960D01*
X10505900Y1414790D01*
X10529500Y1383040D01*
X10545240Y1346000D01*
X10553100Y1303670D01*
Y1261330D01*
X10545240Y1219000D01*
X10529500Y1181960D01*
X10505900Y1150200D01*
X10478360Y1129040D01*
X10446900Y1123750D01*
G01X10671130D02*
Y1441250D01*
X10852070Y1123750D01*
Y1441250D01*
G01X11025170Y1229580D02*
X11127430D01*
G01X11312330Y1123750D02*
Y1441250D01*
X11406730D01*
X11438200Y1425370D01*
X11461800Y1388330D01*
X11469670Y1346000D01*
X11461800Y1303670D01*
X11442130Y1271910D01*
X11406730Y1256030D01*
X11312330D01*
G01X11627030Y1441250D02*
Y1123750D01*
X11784370D01*
G01X11922060D02*
X12020400Y1441250D01*
X12118740Y1123750D01*
G01X12083330Y1234870D02*
X11957460D01*
G01X12335100Y1441250D02*
Y1123750D01*
G01X12244630Y1441250D02*
X12425570D01*
G01X12728470Y1123750D02*
X12571130D01*
Y1441250D01*
X12728470D01*
G01X12665530Y1287800D02*
X12571130D01*
G01X12877970Y1123750D02*
Y1441250D01*
X12956630D01*
X12988100Y1425370D01*
X13011700Y1404210D01*
X13031370Y1372460D01*
X13047100Y1335410D01*
X13051030Y1282500D01*
X13047100Y1229580D01*
X13031370Y1192540D01*
X13011700Y1160780D01*
X12988100Y1139620D01*
X12956630Y1123750D01*
X12877970D01*
G01X10041730Y1758750D02*
Y2076250D01*
X10222670Y1758750D01*
Y2076250D01*
G01X10446900Y1758750D02*
X10415430Y1764040D01*
X10387900Y1785200D01*
X10364300Y1816960D01*
X10348560Y1854000D01*
X10340700Y1896330D01*
Y1938670D01*
X10348560Y1981000D01*
X10364300Y2018040D01*
X10387900Y2049790D01*
X10415430Y2070960D01*
X10446900Y2076250D01*
X10478360Y2070960D01*
X10505900Y2049790D01*
X10529500Y2018040D01*
X10545240Y1981000D01*
X10553100Y1938670D01*
Y1896330D01*
X10545240Y1854000D01*
X10529500Y1816960D01*
X10505900Y1785200D01*
X10478360Y1764040D01*
X10446900Y1758750D01*
G01X10671130D02*
Y2076250D01*
X10852070Y1758750D01*
Y2076250D01*
G01X11025170Y1864580D02*
X11127430D01*
G01X11312330Y1758750D02*
Y2076250D01*
X11406730D01*
X11438200Y2060370D01*
X11461800Y2023330D01*
X11469670Y1981000D01*
X11461800Y1938670D01*
X11442130Y1906910D01*
X11406730Y1891030D01*
X11312330D01*
G01X11627030Y2076250D02*
Y1758750D01*
X11784370D01*
G01X11922060D02*
X12020400Y2076250D01*
X12118740Y1758750D01*
G01X12083330Y1869870D02*
X11957460D01*
G01X12335100Y2076250D02*
Y1758750D01*
G01X12244630Y2076250D02*
X12425570D01*
G01X12728470Y1758750D02*
X12571130D01*
Y2076250D01*
X12728470D01*
G01X12665530Y1922800D02*
X12571130D01*
G01X12877970Y1758750D02*
Y2076250D01*
X12956630D01*
X12988100Y2060370D01*
X13011700Y2039210D01*
X13031370Y2007460D01*
X13047100Y1970410D01*
X13051030Y1917500D01*
X13047100Y1864580D01*
X13031370Y1827540D01*
X13011700Y1795780D01*
X12988100Y1774620D01*
X12956630Y1758750D01*
X12877970D01*
G01X10682930Y-146250D02*
Y171250D01*
X10777330D01*
X10808800Y155370D01*
X10832400Y118330D01*
X10840270Y76000D01*
X10832400Y33670D01*
X10812730Y1910D01*
X10777330Y-13970D01*
X10682930D01*
G01X10997630Y171250D02*
Y-146250D01*
X11154970D01*
G01X11292660D02*
X11391000Y171250D01*
X11489340Y-146250D01*
G01X11453930Y-35130D02*
X11328060D01*
G01X11705700Y171250D02*
Y-146250D01*
G01X11615230Y171250D02*
X11796170D01*
G01X12099070Y-146250D02*
X11941730D01*
Y171250D01*
X12099070D01*
G01X12036130Y17800D02*
X11941730D01*
G01X12248570Y-146250D02*
Y171250D01*
X12327230D01*
X12358700Y155370D01*
X12382300Y134210D01*
X12401970Y102460D01*
X12417700Y65410D01*
X12421630Y12500D01*
X12417700Y-40420D01*
X12401970Y-77460D01*
X12382300Y-109220D01*
X12358700Y-130380D01*
X12327230Y-146250D01*
X12248570D01*
G01X10682930Y488750D02*
Y806250D01*
X10777330D01*
X10808800Y790370D01*
X10832400Y753330D01*
X10840270Y711000D01*
X10832400Y668670D01*
X10812730Y636910D01*
X10777330Y621030D01*
X10682930D01*
G01X10997630Y806250D02*
Y488750D01*
X11154970D01*
G01X11292660D02*
X11391000Y806250D01*
X11489340Y488750D01*
G01X11453930Y599870D02*
X11328060D01*
G01X11705700Y806250D02*
Y488750D01*
G01X11615230Y806250D02*
X11796170D01*
G01X12099070Y488750D02*
X11941730D01*
Y806250D01*
X12099070D01*
G01X12036130Y652800D02*
X11941730D01*
G01X12248570Y488750D02*
Y806250D01*
X12327230D01*
X12358700Y790370D01*
X12382300Y769210D01*
X12401970Y737460D01*
X12417700Y700410D01*
X12421630Y647500D01*
X12417700Y594580D01*
X12401970Y557540D01*
X12382300Y525780D01*
X12358700Y504620D01*
X12327230Y488750D01*
X12248570D01*
G01X10682930Y2393750D02*
Y2711250D01*
X10777330D01*
X10808800Y2695370D01*
X10832400Y2658330D01*
X10840270Y2616000D01*
X10832400Y2573670D01*
X10812730Y2541910D01*
X10777330Y2526030D01*
X10682930D01*
G01X10997630Y2711250D02*
Y2393750D01*
X11154970D01*
G01X11292660D02*
X11391000Y2711250D01*
X11489340Y2393750D01*
G01X11453930Y2504870D02*
X11328060D01*
G01X11705700Y2711250D02*
Y2393750D01*
G01X11615230Y2711250D02*
X11796170D01*
G01X12099070Y2393750D02*
X11941730D01*
Y2711250D01*
X12099070D01*
G01X12036130Y2557800D02*
X11941730D01*
G01X12248570Y2393750D02*
Y2711250D01*
X12327230D01*
X12358700Y2695370D01*
X12382300Y2674210D01*
X12401970Y2642460D01*
X12417700Y2605410D01*
X12421630Y2552500D01*
X12417700Y2499580D01*
X12401970Y2462540D01*
X12382300Y2430780D01*
X12358700Y2409620D01*
X12327230Y2393750D01*
X12248570D01*
G01X10682930Y3028750D02*
Y3346250D01*
X10777330D01*
X10808800Y3330370D01*
X10832400Y3293330D01*
X10840270Y3251000D01*
X10832400Y3208670D01*
X10812730Y3176910D01*
X10777330Y3161030D01*
X10682930D01*
G01X10997630Y3346250D02*
Y3028750D01*
X11154970D01*
G01X11292660D02*
X11391000Y3346250D01*
X11489340Y3028750D01*
G01X11453930Y3139870D02*
X11328060D01*
G01X11705700Y3346250D02*
Y3028750D01*
G01X11615230Y3346250D02*
X11796170D01*
G01X12099070Y3028750D02*
X11941730D01*
Y3346250D01*
X12099070D01*
G01X12036130Y3192800D02*
X11941730D01*
G01X12248570Y3028750D02*
Y3346250D01*
X12327230D01*
X12358700Y3330370D01*
X12382300Y3309210D01*
X12401970Y3277460D01*
X12417700Y3240410D01*
X12421630Y3187500D01*
X12417700Y3134580D01*
X12401970Y3097540D01*
X12382300Y3065780D01*
X12358700Y3044620D01*
X12327230Y3028750D01*
X12248570D01*
G01X10682930Y3663750D02*
Y3981250D01*
X10777330D01*
X10808800Y3965370D01*
X10832400Y3928330D01*
X10840270Y3886000D01*
X10832400Y3843670D01*
X10812730Y3811910D01*
X10777330Y3796030D01*
X10682930D01*
G01X10997630Y3981250D02*
Y3663750D01*
X11154970D01*
G01X11292660D02*
X11391000Y3981250D01*
X11489340Y3663750D01*
G01X11453930Y3774870D02*
X11328060D01*
G01X11705700Y3981250D02*
Y3663750D01*
G01X11615230Y3981250D02*
X11796170D01*
G01X12099070Y3663750D02*
X11941730D01*
Y3981250D01*
X12099070D01*
G01X12036130Y3827800D02*
X11941730D01*
G01X12248570Y3663750D02*
Y3981250D01*
X12327230D01*
X12358700Y3965370D01*
X12382300Y3944210D01*
X12401970Y3912460D01*
X12417700Y3875410D01*
X12421630Y3822500D01*
X12417700Y3769580D01*
X12401970Y3732540D01*
X12382300Y3700780D01*
X12358700Y3679620D01*
X12327230Y3663750D01*
X12248570D01*
G01X10682930Y4298750D02*
Y4616250D01*
X10777330D01*
X10808800Y4600370D01*
X10832400Y4563330D01*
X10840270Y4521000D01*
X10832400Y4478670D01*
X10812730Y4446910D01*
X10777330Y4431030D01*
X10682930D01*
G01X10997630Y4616250D02*
Y4298750D01*
X11154970D01*
G01X11292660D02*
X11391000Y4616250D01*
X11489340Y4298750D01*
G01X11453930Y4409870D02*
X11328060D01*
G01X11705700Y4616250D02*
Y4298750D01*
G01X11615230Y4616250D02*
X11796170D01*
G01X12099070Y4298750D02*
X11941730D01*
Y4616250D01*
X12099070D01*
G01X12036130Y4462800D02*
X11941730D01*
G01X12248570Y4298750D02*
Y4616250D01*
X12327230D01*
X12358700Y4600370D01*
X12382300Y4579210D01*
X12401970Y4547460D01*
X12417700Y4510410D01*
X12421630Y4457500D01*
X12417700Y4404580D01*
X12401970Y4367540D01*
X12382300Y4335780D01*
X12358700Y4314620D01*
X12327230Y4298750D01*
X12248570D01*
G01X10682930Y4933750D02*
Y5251250D01*
X10777330D01*
X10808800Y5235370D01*
X10832400Y5198330D01*
X10840270Y5156000D01*
X10832400Y5113670D01*
X10812730Y5081910D01*
X10777330Y5066030D01*
X10682930D01*
G01X10997630Y5251250D02*
Y4933750D01*
X11154970D01*
G01X11292660D02*
X11391000Y5251250D01*
X11489340Y4933750D01*
G01X11453930Y5044870D02*
X11328060D01*
G01X11705700Y5251250D02*
Y4933750D01*
G01X11615230Y5251250D02*
X11796170D01*
G01X12099070Y4933750D02*
X11941730D01*
Y5251250D01*
X12099070D01*
G01X12036130Y5097800D02*
X11941730D01*
G01X12248570Y4933750D02*
Y5251250D01*
X12327230D01*
X12358700Y5235370D01*
X12382300Y5214210D01*
X12401970Y5182460D01*
X12417700Y5145410D01*
X12421630Y5092500D01*
X12417700Y5039580D01*
X12401970Y5002540D01*
X12382300Y4970780D01*
X12358700Y4949620D01*
X12327230Y4933750D01*
X12248570D01*
G01X10682930Y5568750D02*
Y5886250D01*
X10777330D01*
X10808800Y5870370D01*
X10832400Y5833330D01*
X10840270Y5791000D01*
X10832400Y5748670D01*
X10812730Y5716910D01*
X10777330Y5701030D01*
X10682930D01*
G01X10997630Y5886250D02*
Y5568750D01*
X11154970D01*
G01X11292660D02*
X11391000Y5886250D01*
X11489340Y5568750D01*
G01X11453930Y5679870D02*
X11328060D01*
G01X11705700Y5886250D02*
Y5568750D01*
G01X11615230Y5886250D02*
X11796170D01*
G01X12099070Y5568750D02*
X11941730D01*
Y5886250D01*
X12099070D01*
G01X12036130Y5732800D02*
X11941730D01*
G01X12248570Y5568750D02*
Y5886250D01*
X12327230D01*
X12358700Y5870370D01*
X12382300Y5849210D01*
X12401970Y5817460D01*
X12417700Y5780410D01*
X12421630Y5727500D01*
X12417700Y5674580D01*
X12401970Y5637540D01*
X12382300Y5605780D01*
X12358700Y5584620D01*
X12327230Y5568750D01*
X12248570D01*
G01X10682930Y6203750D02*
Y6521250D01*
X10777330D01*
X10808800Y6505370D01*
X10832400Y6468330D01*
X10840270Y6426000D01*
X10832400Y6383670D01*
X10812730Y6351910D01*
X10777330Y6336030D01*
X10682930D01*
G01X10997630Y6521250D02*
Y6203750D01*
X11154970D01*
G01X11292660D02*
X11391000Y6521250D01*
X11489340Y6203750D01*
G01X11453930Y6314870D02*
X11328060D01*
G01X11705700Y6521250D02*
Y6203750D01*
G01X11615230Y6521250D02*
X11796170D01*
G01X12099070Y6203750D02*
X11941730D01*
Y6521250D01*
X12099070D01*
G01X12036130Y6367800D02*
X11941730D01*
G01X12248570Y6203750D02*
Y6521250D01*
X12327230D01*
X12358700Y6505370D01*
X12382300Y6484210D01*
X12401970Y6452460D01*
X12417700Y6415410D01*
X12421630Y6362500D01*
X12417700Y6309580D01*
X12401970Y6272540D01*
X12382300Y6240780D01*
X12358700Y6219620D01*
X12327230Y6203750D01*
X12248570D01*
G01X10682930Y6838750D02*
Y7156250D01*
X10777330D01*
X10808800Y7140370D01*
X10832400Y7103330D01*
X10840270Y7061000D01*
X10832400Y7018670D01*
X10812730Y6986910D01*
X10777330Y6971030D01*
X10682930D01*
G01X10997630Y7156250D02*
Y6838750D01*
X11154970D01*
G01X11292660D02*
X11391000Y7156250D01*
X11489340Y6838750D01*
G01X11453930Y6949870D02*
X11328060D01*
G01X11705700Y7156250D02*
Y6838750D01*
G01X11615230Y7156250D02*
X11796170D01*
G01X12099070Y6838750D02*
X11941730D01*
Y7156250D01*
X12099070D01*
G01X12036130Y7002800D02*
X11941730D01*
G01X12248570Y6838750D02*
Y7156250D01*
X12327230D01*
X12358700Y7140370D01*
X12382300Y7119210D01*
X12401970Y7087460D01*
X12417700Y7050410D01*
X12421630Y6997500D01*
X12417700Y6944580D01*
X12401970Y6907540D01*
X12382300Y6875780D01*
X12358700Y6854620D01*
X12327230Y6838750D01*
X12248570D01*
G01X11185970Y-6763000D02*
Y-6445500D01*
X11264630D01*
X11296100Y-6461380D01*
X11319700Y-6482540D01*
X11339370Y-6514290D01*
X11355100Y-6551340D01*
X11359030Y-6604250D01*
X11355100Y-6657170D01*
X11339370Y-6694210D01*
X11319700Y-6725970D01*
X11296100Y-6747130D01*
X11264630Y-6763000D01*
X11185970D01*
G01X11508530D02*
Y-6445500D01*
X11606870D01*
X11638330Y-6461380D01*
X11658000Y-6482540D01*
X11665870Y-6524880D01*
X11658000Y-6567210D01*
X11634400Y-6593660D01*
X11606870Y-6609550D01*
X11508530D01*
G01X11606870D02*
X11665870Y-6763000D01*
G01X11803560D02*
X11901900Y-6445500D01*
X12000240Y-6763000D01*
G01X11964830Y-6651880D02*
X11838960D01*
G01X12098600Y-6445500D02*
X12153660Y-6763000D01*
X12216600Y-6445500D01*
X12279530Y-6763000D01*
X12334600Y-6445500D01*
G01X12440830Y-6763000D02*
Y-6445500D01*
X12621770Y-6763000D01*
Y-6445500D01*
G01X14026030Y-6471960D02*
X14002430Y-6456080D01*
X13974900Y-6445500D01*
X13943440D01*
X13908030Y-6461380D01*
X13880500Y-6487830D01*
X13860830Y-6519590D01*
X13845090Y-6572500D01*
X13841160Y-6620130D01*
X13849030Y-6667750D01*
X13860830Y-6699500D01*
X13884430Y-6731260D01*
X13911970Y-6752420D01*
X13939500Y-6763000D01*
X13967030D01*
X13994570Y-6752420D01*
X14018170Y-6736550D01*
X14037840Y-6715390D01*
G01X14171600Y-6763000D02*
Y-6445500D01*
G01X14336800D02*
Y-6763000D01*
G01Y-6604250D02*
X14171600D01*
G01X14647570Y-6763000D02*
X14490230D01*
Y-6445500D01*
X14647570D01*
G01X14584630Y-6598950D02*
X14490230D01*
G01X14970130Y-6471960D02*
X14946530Y-6456080D01*
X14919000Y-6445500D01*
X14887540D01*
X14852130Y-6461380D01*
X14824600Y-6487830D01*
X14804930Y-6519590D01*
X14789190Y-6572500D01*
X14785260Y-6620130D01*
X14793130Y-6667750D01*
X14804930Y-6699500D01*
X14828530Y-6731260D01*
X14856070Y-6752420D01*
X14883600Y-6763000D01*
X14911130D01*
X14938670Y-6752420D01*
X14962270Y-6736550D01*
X14981940Y-6715390D01*
G01X15111770Y-6763000D02*
Y-6445500D01*
G01X15261230D02*
X15111770Y-6641300D01*
G01X15284830Y-6763000D02*
X15178630Y-6551340D01*
G01X15591670Y-6763000D02*
X15434330D01*
Y-6445500D01*
X15591670D01*
G01X15528730Y-6598950D02*
X15434330D01*
G01X15741170Y-6763000D02*
Y-6445500D01*
X15819830D01*
X15851300Y-6461380D01*
X15874900Y-6482540D01*
X15894570Y-6514290D01*
X15910300Y-6551340D01*
X15914230Y-6604250D01*
X15910300Y-6657170D01*
X15894570Y-6694210D01*
X15874900Y-6725970D01*
X15851300Y-6747130D01*
X15819830Y-6763000D01*
X15741170D01*
G01X14069910Y118330D02*
X14093520Y150080D01*
X14121050Y165960D01*
X14152520Y171250D01*
X14191850Y160670D01*
X14219390Y134210D01*
X14227250Y102460D01*
X14223320Y70700D01*
X14207580Y44250D01*
X14128920Y-8670D01*
X14093520Y-45710D01*
X14069910Y-98640D01*
X14062050Y-146250D01*
X14227250D01*
G01X14069910Y753330D02*
X14093520Y785080D01*
X14121050Y800960D01*
X14152520Y806250D01*
X14191850Y795670D01*
X14219390Y769210D01*
X14227250Y737460D01*
X14223320Y705700D01*
X14207580Y679250D01*
X14128920Y626330D01*
X14093520Y589290D01*
X14069910Y536360D01*
X14062050Y488750D01*
X14227250D01*
G01X14069910Y1388330D02*
X14093520Y1420080D01*
X14121050Y1435960D01*
X14152520Y1441250D01*
X14191850Y1430670D01*
X14219390Y1404210D01*
X14227250Y1372460D01*
X14223320Y1340700D01*
X14207580Y1314250D01*
X14128920Y1261330D01*
X14093520Y1224290D01*
X14069910Y1171360D01*
X14062050Y1123750D01*
X14227250D01*
G01X14069910Y2023330D02*
X14093520Y2055080D01*
X14121050Y2070960D01*
X14152520Y2076250D01*
X14191850Y2065670D01*
X14219390Y2039210D01*
X14227250Y2007460D01*
X14223320Y1975700D01*
X14207580Y1949250D01*
X14128920Y1896330D01*
X14093520Y1859290D01*
X14069910Y1806360D01*
X14062050Y1758750D01*
X14227250D01*
G01X14191850Y2393750D02*
Y2711250D01*
X14046310Y2483710D01*
X14242990D01*
G01X13987300Y3028750D02*
Y3346250D01*
X13940100Y3282750D01*
G01Y3028750D02*
X14034490D01*
G01X14302000Y3346250D02*
X14270530Y3335670D01*
X14246930Y3309210D01*
X14231200Y3277460D01*
X14219400Y3235120D01*
X14215470Y3187500D01*
X14219400Y3139870D01*
X14231200Y3097540D01*
X14246930Y3065780D01*
X14270530Y3039330D01*
X14302000Y3028750D01*
X14333460Y3039330D01*
X14357070Y3065780D01*
X14372800Y3097540D01*
X14384600Y3139870D01*
X14388530Y3187500D01*
X14384600Y3235120D01*
X14372800Y3277460D01*
X14357070Y3309210D01*
X14333460Y3335670D01*
X14302000Y3346250D01*
G01X13912560Y3928330D02*
X13936170Y3960080D01*
X13963700Y3975960D01*
X13995170Y3981250D01*
X14034500Y3970670D01*
X14062040Y3944210D01*
X14069900Y3912460D01*
X14065970Y3880700D01*
X14050230Y3854250D01*
X13971570Y3801330D01*
X13936170Y3764290D01*
X13912560Y3711360D01*
X13904700Y3663750D01*
X14069900D01*
G01X14302000D02*
X14329530Y3669040D01*
X14361000Y3684910D01*
X14380670Y3711360D01*
X14388530Y3748420D01*
X14380670Y3785450D01*
X14357070Y3817200D01*
X14321670Y3833090D01*
X14282330D01*
X14258730Y3843670D01*
X14239060Y3870120D01*
X14231200Y3907160D01*
X14243000Y3944210D01*
X14270530Y3970670D01*
X14302000Y3981250D01*
X14333460Y3970670D01*
X14361000Y3944210D01*
X14372800Y3907160D01*
X14364930Y3870120D01*
X14345270Y3843670D01*
X14321670Y3833090D01*
X14282330D01*
X14246930Y3817200D01*
X14223330Y3785450D01*
X14215470Y3748420D01*
X14223330Y3711360D01*
X14243000Y3684910D01*
X14274470Y3669040D01*
X14302000Y3663750D01*
G01X14077780Y4335780D02*
X14105310Y4309330D01*
X14136780Y4298750D01*
X14168250Y4309330D01*
X14195780Y4341070D01*
X14215450Y4388710D01*
X14223320Y4436330D01*
Y4494540D01*
X14215450Y4542160D01*
X14195780Y4584500D01*
X14172180Y4605670D01*
X14144650Y4616250D01*
X14113180Y4605670D01*
X14089580Y4584500D01*
X14073850Y4552750D01*
X14065980Y4510410D01*
X14073850Y4473380D01*
X14093520Y4436330D01*
X14117120Y4415160D01*
X14144650Y4409870D01*
X14176110Y4420450D01*
X14199720Y4446910D01*
X14223320Y4494540D01*
G01X14144650Y4933750D02*
Y5251250D01*
X14097450Y5187750D01*
G01Y4933750D02*
X14191840D01*
G01X14058120Y5632250D02*
X14081710Y5595200D01*
X14113180Y5574040D01*
X14148590Y5568750D01*
X14180050Y5574040D01*
X14211520Y5600490D01*
X14231180Y5632250D01*
X14235120Y5664000D01*
X14227250Y5701030D01*
X14199720Y5727500D01*
X14172180Y5738090D01*
X14136780D01*
G01X14172180D02*
X14195780Y5753960D01*
X14215450Y5780410D01*
X14223320Y5812160D01*
X14215450Y5843920D01*
X14195780Y5870370D01*
X14160380Y5886250D01*
X14124980Y5880960D01*
X14089580Y5859790D01*
G01X13743420Y6251360D02*
X13767010Y6224910D01*
X13794550Y6209040D01*
X13829950Y6203750D01*
X13865350Y6214330D01*
X13892880Y6235490D01*
X13912550Y6272540D01*
X13916480Y6314870D01*
X13908620Y6357200D01*
X13888950Y6383670D01*
X13861410Y6404830D01*
X13833890Y6410120D01*
X13806350Y6404830D01*
X13770950Y6383670D01*
X13782750Y6521250D01*
X13888950D01*
G01X14191850Y6203750D02*
Y6521250D01*
X14046310Y6293710D01*
X14242990D01*
G01X14392480Y6240780D02*
X14420010Y6214330D01*
X14451480Y6203750D01*
X14482950Y6214330D01*
X14510480Y6246070D01*
X14530150Y6293710D01*
X14538020Y6341330D01*
Y6399540D01*
X14530150Y6447160D01*
X14510480Y6489500D01*
X14486880Y6510670D01*
X14459350Y6521250D01*
X14427880Y6510670D01*
X14404280Y6489500D01*
X14388550Y6457750D01*
X14380680Y6415410D01*
X14388550Y6378380D01*
X14408220Y6341330D01*
X14431820Y6320160D01*
X14459350Y6314870D01*
X14490810Y6325450D01*
X14514420Y6351910D01*
X14538020Y6399540D01*
G01X13829950Y6838750D02*
X13798480Y6844040D01*
X13770950Y6865200D01*
X13747350Y6896960D01*
X13731610Y6934000D01*
X13723750Y6976330D01*
Y7018670D01*
X13731610Y7061000D01*
X13747350Y7098040D01*
X13770950Y7129790D01*
X13798480Y7150960D01*
X13829950Y7156250D01*
X13861410Y7150960D01*
X13888950Y7129790D01*
X13912550Y7098040D01*
X13928290Y7061000D01*
X13936150Y7018670D01*
Y6976330D01*
X13928290Y6934000D01*
X13912550Y6896960D01*
X13888950Y6865200D01*
X13861410Y6844040D01*
X13829950Y6838750D01*
G01X13861410Y6923420D02*
X13908620Y6838750D01*
G01X14144650Y7156250D02*
Y6838750D01*
G01X14054180Y7156250D02*
X14235120D01*
G01X14459350Y6838750D02*
Y6981620D01*
X14380680Y7156250D01*
G01X14538020D02*
X14459350Y6981620D01*
G01X16571660Y-6763000D02*
X16670000Y-6445500D01*
X16768340Y-6763000D01*
G01X16732930Y-6651880D02*
X16607060D01*
G01X16906030Y-6763000D02*
Y-6445500D01*
X17000430D01*
X17031900Y-6461380D01*
X17055500Y-6498420D01*
X17063370Y-6540750D01*
X17055500Y-6583080D01*
X17035830Y-6614840D01*
X17000430Y-6630720D01*
X16906030D01*
G01X17220730Y-6763000D02*
Y-6445500D01*
X17315130D01*
X17346600Y-6461380D01*
X17370200Y-6498420D01*
X17378070Y-6540750D01*
X17370200Y-6583080D01*
X17350530Y-6614840D01*
X17315130Y-6630720D01*
X17220730D01*
G01X17535430Y-6763000D02*
Y-6445500D01*
X17633770D01*
X17665230Y-6461380D01*
X17684900Y-6482540D01*
X17692770Y-6524880D01*
X17684900Y-6567210D01*
X17661300Y-6593660D01*
X17633770Y-6609550D01*
X17535430D01*
G01X17633770D02*
X17692770Y-6763000D01*
G01X17928800D02*
X17897330Y-6757710D01*
X17869800Y-6736550D01*
X17846200Y-6704790D01*
X17830460Y-6667750D01*
X17822600Y-6625420D01*
Y-6583080D01*
X17830460Y-6540750D01*
X17846200Y-6503710D01*
X17869800Y-6471960D01*
X17897330Y-6450790D01*
X17928800Y-6445500D01*
X17960260Y-6450790D01*
X17987800Y-6471960D01*
X18011400Y-6503710D01*
X18027140Y-6540750D01*
X18035000Y-6583080D01*
Y-6625420D01*
X18027140Y-6667750D01*
X18011400Y-6704790D01*
X17987800Y-6736550D01*
X17960260Y-6757710D01*
X17928800Y-6763000D01*
G01X18145160Y-6445500D02*
X18243500Y-6763000D01*
X18341840Y-6445500D01*
G01X18636870Y-6763000D02*
X18479530D01*
Y-6445500D01*
X18636870D01*
G01X18573930Y-6598950D02*
X18479530D01*
G01X18786370Y-6763000D02*
Y-6445500D01*
X18865030D01*
X18896500Y-6461380D01*
X18920100Y-6482540D01*
X18939770Y-6514290D01*
X18955500Y-6551340D01*
X18959430Y-6604250D01*
X18955500Y-6657170D01*
X18939770Y-6694210D01*
X18920100Y-6725970D01*
X18896500Y-6747130D01*
X18865030Y-6763000D01*
X18786370D01*
G01X19825900Y-6720680D02*
X19857370Y-6747130D01*
X19892770Y-6763000D01*
X19924230D01*
X19955700Y-6747130D01*
X19979300Y-6720680D01*
X19991100Y-6683620D01*
X19983240Y-6646590D01*
X19963570Y-6614840D01*
X19928170Y-6593660D01*
X19880970Y-6583080D01*
X19853430Y-6561920D01*
X19841630Y-6524880D01*
X19849500Y-6487830D01*
X19869160Y-6461380D01*
X19896700Y-6445500D01*
X19924230D01*
X19951770Y-6456080D01*
X19975370Y-6482540D01*
G01X20223200Y-6445500D02*
Y-6763000D01*
G01X20132730Y-6445500D02*
X20313670D01*
G01X20439560Y-6763000D02*
X20537900Y-6445500D01*
X20636240Y-6763000D01*
G01X20600830Y-6651880D02*
X20474960D01*
G01X20852600Y-6445500D02*
Y-6763000D01*
G01X20762130Y-6445500D02*
X20943070D01*
G01X21080770D02*
Y-6673040D01*
X21096500Y-6720680D01*
X21127960Y-6752420D01*
X21167300Y-6763000D01*
X21206640Y-6752420D01*
X21238100Y-6720680D01*
X21253830Y-6673040D01*
Y-6445500D01*
G01X21399400Y-6720680D02*
X21430870Y-6747130D01*
X21466270Y-6763000D01*
X21497730D01*
X21529200Y-6747130D01*
X21552800Y-6720680D01*
X21564600Y-6683620D01*
X21556740Y-6646590D01*
X21537070Y-6614840D01*
X21501670Y-6593660D01*
X21454470Y-6583080D01*
X21426930Y-6561920D01*
X21415130Y-6524880D01*
X21423000Y-6487830D01*
X21442660Y-6461380D01*
X21470200Y-6445500D01*
X21497730D01*
X21525270Y-6456080D01*
X21548870Y-6482540D01*
G54D18*
X-3090000Y3835600D03*
X3680800Y5092500D03*
G54D28*
G01X2963000Y-8287000D02*
X-14817000D01*
G01X18594160Y-7461500D02*
G03I-200660J0D01*
G54D19*
X-2130000Y710000D03*
X-2410000D03*
X-1850000D03*
X3680800Y5727500D03*
M02*
