G04 ================== begin FILE IDENTIFICATION RECORD ==================*
G04 Layout Name:  pc053e_toplevel_66.brd*
G04 Film Name:    art_SOLDERMASK_BOTTOM_pc053e*
G04 File Format:  Gerber RS274X*
G04 File Origin:  Cadence Allegro 17.4-S012*
G04 Origin Date:  Fri Apr 16 14:59:15 2021*
G04 *
G04 Layer:  VIA CLASS/SOLDERMASK_BOTTOM*
G04 Layer:  PIN/SOLDERMASK_BOTTOM*
G04 Layer:  PACKAGE GEOMETRY/SOLDERMASK_BOTTOM*
G04 Layer:  BOARD GEOMETRY/SOLDERMASK_BOTTOM*
G04 *
G04 Offset:    (0.0000 0.0000)*
G04 Mirror:    No*
G04 Mode:      Positive*
G04 Rotation:  0*
G04 FullContactRelief:  No*
G04 UndefLineWidth:     0.2540*
G04 ================== end FILE IDENTIFICATION RECORD ====================*
%FSLAX25Y25*MOMM*%
%IR0*IPPOS*OFA0.00000B0.00000*MIA0B0*SFA1.00000B1.00000*%
%ADD25R,.4X1.*%
%ADD29R,2.X.5*%
%ADD17R,.9X1.*%
%ADD19R,1.X.9*%
%ADD43R,.6X1.6*%
%ADD42R,1.15X.6*%
%ADD41R,1.5X.45*%
%ADD14R,2.35X.28*%
%ADD44C,.64*%
%ADD15R,.6X.6*%
%ADD24R,1.778X.381*%
%ADD37R,2.159X.889*%
%ADD11O,3.2X1.4*%
%ADD18R,1.4X1.2*%
%ADD10O,2.6X1.4*%
%ADD33C,1.*%
%ADD40R,.3X.75*%
%ADD22R,.25X.8*%
%ADD39R,.75X.3*%
%ADD26R,.3X.85*%
%ADD23C,1.6*%
%ADD21R,.8X.25*%
%ADD28R,.85X.3*%
%ADD16C,1.7*%
%ADD13C,3.302*%
%ADD31R,.25X.85*%
%ADD34C,1.524*%
%ADD32R,.85X.25*%
%ADD12C,1.75*%
%ADD30R,1.6X1.6*%
%ADD27R,5.3X5.3*%
%ADD20R,3.25X3.25*%
%ADD35C,1.397*%
%ADD38R,1.85X1.85*%
%ADD36R,.508X.889*%
G75*
%LPD*%
G75*
G36*
G01X340000Y-70000D02*
Y-230000D01*
X1020000D01*
Y-70000D01*
X340000D01*
G37*
G54D10*
X-6379000Y1525000D03*
Y2975000D03*
G54D20*
X-3805800Y2782600D03*
G54D11*
X-5782000Y1525000D03*
Y2975000D03*
G54D30*
X-2895900Y3375300D03*
X-2600000Y2670000D03*
G54D12*
X-6090000Y3835600D03*
Y4693600D03*
X-5590000Y5260600D03*
X-5090000Y3835600D03*
X-4590000Y5260600D03*
X-4090000Y3835600D03*
Y4403600D03*
Y4943600D03*
X-3590000Y5260600D03*
X-2590000D03*
G54D21*
X-4050800Y2707600D03*
Y2657600D03*
Y2607600D03*
Y2957600D03*
Y2907600D03*
Y2857600D03*
Y2807600D03*
Y2757600D03*
X-3560800Y2607600D03*
Y2657600D03*
Y2707600D03*
Y2757600D03*
Y2807600D03*
Y2857600D03*
Y2907600D03*
Y2957600D03*
G54D31*
X-2970900Y3230300D03*
Y3520300D03*
X-2675000Y2525000D03*
X-2625000D03*
X-2575000D03*
Y2815000D03*
X-2625000D03*
X-2675000D03*
X-2920900Y3230300D03*
X-2870900D03*
X-2820900D03*
Y3520300D03*
X-2870900D03*
X-2920900D03*
X-2525000Y2525000D03*
Y2815000D03*
G54D13*
X-5460000Y380000D03*
X-5475000Y6050000D03*
X0Y0D03*
Y6300000D03*
G54D22*
X-3980800Y2537600D03*
X-3930800D03*
X-3880800D03*
X-3830800D03*
Y3027600D03*
X-3880800D03*
X-3930800D03*
X-3980800D03*
X-3780800Y2537600D03*
X-3730800D03*
X-3680800D03*
X-3630800D03*
Y3027600D03*
X-3680800D03*
X-3730800D03*
X-3780800D03*
G54D40*
X-1555000Y2920000D03*
X-1505000D03*
X-1455000D03*
X-1405000D03*
Y3220000D03*
X-1455000D03*
X-1505000D03*
X-1555000D03*
G54D32*
X-3040900Y3450300D03*
Y3400300D03*
Y3350300D03*
Y3300300D03*
X-2745000Y2695000D03*
Y2645000D03*
Y2595000D03*
Y2745000D03*
X-2750900Y3300300D03*
Y3350300D03*
Y3400300D03*
Y3450300D03*
X-2455000Y2595000D03*
Y2645000D03*
Y2695000D03*
Y2745000D03*
G54D23*
X-3810000Y3835600D03*
Y5260600D03*
X-3340000Y3835600D03*
Y5260600D03*
X-2840000Y3835600D03*
Y5260600D03*
X-2380000Y4068100D03*
Y4548100D03*
Y5028100D03*
G54D14*
X-5720000Y1800000D03*
Y1850000D03*
Y1900000D03*
Y1950000D03*
Y2000000D03*
Y2050000D03*
Y2100000D03*
Y2150000D03*
Y2200000D03*
Y2250000D03*
Y2300000D03*
Y2350000D03*
Y2400000D03*
Y2450000D03*
Y2500000D03*
Y2550000D03*
Y2600000D03*
Y2650000D03*
Y2700000D03*
G54D41*
X-1598500Y3996300D03*
Y3931300D03*
Y3866300D03*
Y3801300D03*
X-1158500D03*
Y3866300D03*
Y3931300D03*
Y3996300D03*
G54D33*
X-2990000Y4070000D03*
Y5030000D03*
X-106500Y434500D03*
X198500Y5872500D03*
G54D24*
X-3994000Y5715000D03*
Y5650000D03*
Y6040000D03*
Y5975000D03*
Y5910000D03*
Y5845000D03*
Y5780000D03*
X-3400000Y5650000D03*
Y5715000D03*
Y5780000D03*
Y5845000D03*
Y5910000D03*
Y5975000D03*
Y6040000D03*
X-1439200Y4861500D03*
Y4796500D03*
Y4731500D03*
Y5186500D03*
Y5121500D03*
Y5056500D03*
Y4991500D03*
Y4926500D03*
X-845200Y4731500D03*
Y4796500D03*
Y4861500D03*
Y5186500D03*
Y4926500D03*
Y4991500D03*
Y5056500D03*
Y5121500D03*
G54D15*
X-5215000Y1020000D03*
X-5125000D03*
Y1460000D03*
X-5215000D03*
Y1120000D03*
X-5125000D03*
Y1560000D03*
X-5215000D03*
X-5465000Y2300000D03*
X-5375000D03*
X-5465000Y2400000D03*
X-5375000D03*
X-5450000Y2725000D03*
X-5350000D03*
X-5450000Y2815000D03*
X-5350000D03*
X-4680000Y755000D03*
Y845000D03*
X-4490000Y755000D03*
Y845000D03*
X-4545000Y650000D03*
X-4635000D03*
X-4565000Y1610000D03*
X-4475000D03*
X-4380000Y2495000D03*
Y2585000D03*
X-3840000Y1305000D03*
Y1215000D03*
Y1465000D03*
X-3955000Y1850000D03*
X-4045000D03*
X-3840000Y1555000D03*
X-3820000Y2235000D03*
Y2325000D03*
X-3601000Y-95100D03*
X-3511000D03*
X-3645000Y90000D03*
X-3555000D03*
X-3385100Y-95100D03*
X-3645000Y190000D03*
X-3555000D03*
X-3405000Y660000D03*
X-3495000D03*
X-3763100Y660400D03*
X-3673100D03*
X-3365500Y3168100D03*
X-3385000Y2870000D03*
X-3365500Y3258100D03*
X-3170000Y35000D03*
Y-55000D03*
Y155000D03*
X-3295100Y-95100D03*
X-3010000Y35000D03*
Y-55000D03*
X-3136900Y615400D03*
X-3009900D03*
X-3054900Y190500D03*
X-2964900D03*
X-3170000Y245000D03*
X-3136900Y705400D03*
X-3009900D03*
X-3295000Y2870000D03*
X-2755900Y615400D03*
X-2882900D03*
X-2755900Y705400D03*
X-2882900D03*
X-2135000Y1920000D03*
X-2225000D03*
X-2145000Y2730000D03*
X-2235000D03*
X-2340000Y2635000D03*
Y2725000D03*
X-2210000Y5125000D03*
Y5215000D03*
X-1770000Y1195000D03*
Y1285000D03*
X-1660000Y3455000D03*
Y3365000D03*
X-1900000Y3775000D03*
Y3685000D03*
X-1755000Y3630000D03*
X-1665000D03*
X-1900000Y4025000D03*
Y4115000D03*
X-1910000Y5125000D03*
Y5215000D03*
X-2060000Y5125000D03*
Y5215000D03*
X-1330000Y3455000D03*
Y3365000D03*
X-1440000Y3455000D03*
Y3365000D03*
X-1550000Y3455000D03*
Y3365000D03*
X-1015000Y1680000D03*
X-925000D03*
X-960000Y2445000D03*
Y2535000D03*
Y2735000D03*
Y2645000D03*
X-1095000Y3010000D03*
X-1185000D03*
Y3120000D03*
X-1095000D03*
X-1205000Y3320000D03*
X-1115000D03*
X-964100Y3941000D03*
Y3737800D03*
Y3827800D03*
Y4031000D03*
X-855000Y5825000D03*
X-960000Y5740000D03*
Y5830000D03*
X-1060000Y5740000D03*
Y5830000D03*
X-960000Y6325000D03*
Y6415000D03*
X-855000Y6410000D03*
X-1060000Y6325000D03*
Y6415000D03*
X-765000Y5825000D03*
Y6410000D03*
G54D42*
X-1250000Y4395000D03*
Y4585000D03*
Y4490000D03*
X-980000Y1825000D03*
Y2015000D03*
Y1920000D03*
X-990000Y4395000D03*
Y4490000D03*
Y4585000D03*
X-720000Y1825000D03*
Y1920000D03*
Y2015000D03*
G54D34*
X-3090000Y3835600D03*
G54D16*
X-5030000Y2296000D03*
Y2550000D03*
Y2804000D03*
X-4710000Y130000D03*
X-4964000D03*
X-4710000Y470000D03*
X-4964000D03*
X-4680000Y2296000D03*
Y2550000D03*
Y2804000D03*
X-4456000Y130000D03*
Y470000D03*
X-3840000D03*
X-4094000D03*
X-4020900Y1387600D03*
Y1133600D03*
Y1641600D03*
X-3586000Y470000D03*
X-1277000Y-110000D03*
X-1531000D03*
X-1023000D03*
X-769000D03*
X-710000Y2276000D03*
Y2530000D03*
Y2784000D03*
Y3950000D03*
Y3696000D03*
Y4204000D03*
G54D43*
X-1130500Y705000D03*
X-1003500D03*
X-876500D03*
Y1235000D03*
X-1003500D03*
X-1130500D03*
X-749500Y705000D03*
Y1235000D03*
G54D25*
X-3430500Y41200D03*
Y251200D03*
X-3365500Y41200D03*
X-3300500D03*
Y251200D03*
X-3365500D03*
X-835000Y5720000D03*
Y5510000D03*
Y6095000D03*
Y6305000D03*
X-705000Y5720000D03*
X-770000D03*
Y5510000D03*
X-705000D03*
X-770000Y6095000D03*
X-705000D03*
Y6305000D03*
X-770000D03*
G54D35*
X-2130000Y710000D03*
X-2410000D03*
X-1850000D03*
G54D26*
X-3519400Y946700D03*
X-3469400D03*
X-3419400D03*
Y1636700D03*
X-3469400D03*
X-3519400D03*
X-3369400Y946700D03*
X-3319400D03*
X-3269400D03*
X-3219400D03*
X-3169400D03*
X-3119400D03*
X-3069400D03*
X-3019400D03*
Y1636700D03*
X-3069400D03*
X-3119400D03*
X-3169400D03*
X-3219400D03*
X-3269400D03*
X-3319400D03*
X-3369400D03*
G54D44*
X-373000Y677000D03*
Y804000D03*
Y931000D03*
X-246000Y677000D03*
Y804000D03*
Y931000D03*
X-119000Y677000D03*
Y804000D03*
Y931000D03*
X8000Y677000D03*
Y804000D03*
Y931000D03*
X-373000Y1058000D03*
Y1185000D03*
Y1312000D03*
Y1439000D03*
X-246000Y1058000D03*
Y1185000D03*
Y1312000D03*
Y1439000D03*
X-119000Y1058000D03*
Y1185000D03*
Y1312000D03*
Y1439000D03*
X8000Y1058000D03*
Y1185000D03*
Y1312000D03*
Y1439000D03*
X-373000Y1566000D03*
Y1693000D03*
Y1820000D03*
X-246000Y1566000D03*
Y1693000D03*
Y1820000D03*
X-119000Y1566000D03*
Y1693000D03*
Y1820000D03*
X8000Y1566000D03*
Y1693000D03*
Y1820000D03*
X-373000Y1947000D03*
Y2074000D03*
Y2201000D03*
X-246000Y1947000D03*
Y2074000D03*
Y2201000D03*
X-119000Y1947000D03*
Y2074000D03*
Y2201000D03*
X8000Y1947000D03*
Y2074000D03*
Y2201000D03*
X-373000Y2328000D03*
Y2455000D03*
Y2582000D03*
Y2709000D03*
X-246000Y2328000D03*
Y2455000D03*
Y2582000D03*
Y2709000D03*
X-119000Y2328000D03*
Y2455000D03*
Y2582000D03*
Y2709000D03*
X8000Y2328000D03*
Y2455000D03*
Y2582000D03*
Y2709000D03*
X-373000Y2836000D03*
Y2963000D03*
Y3090000D03*
X-246000Y2836000D03*
Y2963000D03*
Y3090000D03*
X-119000Y2836000D03*
Y2963000D03*
Y3090000D03*
X8000Y2836000D03*
Y2963000D03*
Y3090000D03*
X-373000Y3217000D03*
Y3344000D03*
Y3471000D03*
Y3598000D03*
X-246000Y3217000D03*
Y3344000D03*
Y3471000D03*
Y3598000D03*
X-119000Y3217000D03*
Y3344000D03*
Y3471000D03*
Y3598000D03*
X8000Y3217000D03*
Y3344000D03*
Y3471000D03*
Y3598000D03*
X-373000Y3725000D03*
Y3852000D03*
Y3979000D03*
X-246000Y3725000D03*
Y3852000D03*
Y3979000D03*
X-119000Y3725000D03*
Y3852000D03*
Y3979000D03*
X8000Y3725000D03*
Y3852000D03*
Y3979000D03*
X-373000Y4106000D03*
Y4233000D03*
Y4360000D03*
X-246000Y4106000D03*
Y4233000D03*
Y4360000D03*
X-119000Y4106000D03*
Y4233000D03*
Y4360000D03*
X8000Y4106000D03*
Y4233000D03*
Y4360000D03*
X-373000Y4487000D03*
Y4614000D03*
Y4741000D03*
Y4868000D03*
X-246000Y4487000D03*
Y4614000D03*
Y4741000D03*
Y4868000D03*
X-119000Y4487000D03*
Y4614000D03*
Y4741000D03*
Y4868000D03*
X8000Y4487000D03*
Y4614000D03*
Y4741000D03*
Y4868000D03*
X-373000Y4995000D03*
Y5122000D03*
X-246000Y4995000D03*
Y5122000D03*
Y5249000D03*
X-119000Y4995000D03*
Y5122000D03*
Y5249000D03*
X8000Y4995000D03*
Y5122000D03*
Y5249000D03*
X-373000Y5376000D03*
Y5503000D03*
Y5630000D03*
X-246000Y5376000D03*
Y5503000D03*
Y5630000D03*
X-119000Y5376000D03*
Y5503000D03*
Y5630000D03*
X8000Y5376000D03*
Y5503000D03*
Y5630000D03*
X135000Y677000D03*
Y804000D03*
Y931000D03*
X262000Y677000D03*
Y804000D03*
Y931000D03*
X389000Y677000D03*
Y804000D03*
Y931000D03*
X135000Y1058000D03*
Y1185000D03*
Y1312000D03*
Y1439000D03*
X262000Y1058000D03*
Y1185000D03*
Y1312000D03*
Y1439000D03*
X389000Y1058000D03*
Y1185000D03*
Y1312000D03*
Y1439000D03*
X135000Y1566000D03*
Y1693000D03*
Y1820000D03*
X262000Y1566000D03*
Y1693000D03*
Y1820000D03*
X389000Y1566000D03*
Y1693000D03*
Y1820000D03*
X135000Y1947000D03*
Y2074000D03*
Y2201000D03*
X262000Y1947000D03*
Y2074000D03*
Y2201000D03*
X389000Y1947000D03*
Y2074000D03*
Y2201000D03*
X135000Y2328000D03*
Y2455000D03*
Y2582000D03*
Y2709000D03*
X262000Y2328000D03*
Y2455000D03*
Y2582000D03*
Y2709000D03*
X389000Y2328000D03*
Y2455000D03*
Y2582000D03*
Y2709000D03*
X135000Y2836000D03*
Y2963000D03*
Y3090000D03*
X262000Y2836000D03*
Y2963000D03*
Y3090000D03*
X389000Y2836000D03*
Y2963000D03*
Y3090000D03*
X135000Y3217000D03*
Y3344000D03*
Y3471000D03*
Y3598000D03*
X262000Y3217000D03*
Y3344000D03*
Y3471000D03*
Y3598000D03*
X389000Y3217000D03*
Y3344000D03*
Y3471000D03*
Y3598000D03*
X135000Y3725000D03*
Y3852000D03*
Y3979000D03*
X262000Y3725000D03*
Y3852000D03*
Y3979000D03*
X389000Y3725000D03*
Y3852000D03*
Y3979000D03*
X135000Y4106000D03*
Y4233000D03*
Y4360000D03*
X262000Y4106000D03*
Y4233000D03*
Y4360000D03*
X389000Y4106000D03*
Y4233000D03*
Y4360000D03*
X135000Y4487000D03*
Y4614000D03*
Y4741000D03*
Y4868000D03*
X262000Y4487000D03*
Y4614000D03*
Y4741000D03*
Y4868000D03*
X389000Y4487000D03*
Y4614000D03*
Y4741000D03*
Y4868000D03*
X135000Y4995000D03*
Y5122000D03*
Y5249000D03*
X262000Y4995000D03*
Y5122000D03*
Y5249000D03*
X389000Y4995000D03*
Y5122000D03*
Y5249000D03*
X135000Y5376000D03*
Y5503000D03*
Y5630000D03*
X262000Y5376000D03*
Y5503000D03*
Y5630000D03*
X389000Y5376000D03*
Y5503000D03*
Y5630000D03*
X516000Y677000D03*
Y804000D03*
Y931000D03*
X643000Y677000D03*
Y804000D03*
Y931000D03*
X770000Y677000D03*
Y804000D03*
Y931000D03*
X516000Y1058000D03*
Y1185000D03*
Y1312000D03*
Y1439000D03*
X643000Y1058000D03*
Y1185000D03*
Y1312000D03*
Y1439000D03*
X770000Y1058000D03*
Y1185000D03*
Y1312000D03*
Y1439000D03*
X516000Y1566000D03*
Y1693000D03*
Y1820000D03*
X643000Y1566000D03*
Y1693000D03*
Y1820000D03*
X770000Y1566000D03*
Y1693000D03*
Y1820000D03*
X516000Y1947000D03*
Y2074000D03*
Y2201000D03*
X643000Y1947000D03*
Y2074000D03*
Y2201000D03*
X770000Y1947000D03*
Y2074000D03*
Y2201000D03*
X516000Y2328000D03*
Y2455000D03*
Y2582000D03*
Y2709000D03*
X643000Y2328000D03*
Y2455000D03*
Y2582000D03*
Y2709000D03*
X770000Y2328000D03*
Y2455000D03*
Y2582000D03*
Y2709000D03*
X516000Y2836000D03*
Y2963000D03*
Y3090000D03*
X643000Y2836000D03*
Y2963000D03*
Y3090000D03*
X770000Y2836000D03*
Y2963000D03*
Y3090000D03*
X516000Y3217000D03*
Y3344000D03*
Y3471000D03*
Y3598000D03*
X643000Y3217000D03*
Y3344000D03*
Y3471000D03*
Y3598000D03*
X770000Y3217000D03*
Y3344000D03*
Y3471000D03*
Y3598000D03*
X516000Y3725000D03*
Y3852000D03*
Y3979000D03*
X643000Y3725000D03*
Y3852000D03*
Y3979000D03*
X770000Y3725000D03*
Y3852000D03*
Y3979000D03*
X516000Y4106000D03*
Y4233000D03*
Y4360000D03*
X643000Y4106000D03*
Y4233000D03*
Y4360000D03*
X770000Y4106000D03*
Y4233000D03*
Y4360000D03*
X516000Y4487000D03*
Y4614000D03*
Y4741000D03*
Y4868000D03*
X643000Y4487000D03*
Y4614000D03*
Y4741000D03*
Y4868000D03*
X770000Y4487000D03*
Y4614000D03*
Y4741000D03*
Y4868000D03*
X516000Y4995000D03*
Y5122000D03*
Y5249000D03*
X643000Y4995000D03*
Y5122000D03*
Y5249000D03*
X770000Y4995000D03*
Y5122000D03*
Y5249000D03*
X516000Y5376000D03*
Y5503000D03*
Y5630000D03*
X643000Y5376000D03*
Y5503000D03*
Y5630000D03*
X770000Y5376000D03*
Y5503000D03*
Y5630000D03*
G54D17*
X-4205000Y2280000D03*
X-4415000Y5910000D03*
X-4265000D03*
X-4055000Y2280000D03*
X-3025000Y5650000D03*
X-3175000D03*
X-3025000Y6230000D03*
X-3175000D03*
G54D36*
X-2200000Y4850000D03*
X-2135000D03*
Y5028000D03*
X-2200000D03*
X-2070000Y4850000D03*
Y5028000D03*
G54D27*
X-3269400Y1291700D03*
G54D18*
X-4400000Y3080000D03*
Y3260000D03*
G54D28*
X-3614400Y1441700D03*
Y1391700D03*
Y1341700D03*
Y1291700D03*
Y1241700D03*
Y1191700D03*
Y1141700D03*
Y1091700D03*
Y1041700D03*
Y1541700D03*
Y1491700D03*
X-2924400Y1041700D03*
Y1091700D03*
Y1141700D03*
Y1191700D03*
Y1241700D03*
Y1291700D03*
Y1341700D03*
Y1391700D03*
Y1441700D03*
Y1491700D03*
Y1541700D03*
X-2175000Y2005000D03*
Y2055000D03*
Y2105000D03*
Y2155000D03*
X-2485000D03*
Y2105000D03*
Y2055000D03*
Y2005000D03*
G54D37*
X-2410000Y6140000D03*
Y6013000D03*
Y5886000D03*
Y5759000D03*
X-1840000D03*
Y5886000D03*
Y6013000D03*
Y6140000D03*
G54D19*
X-4203700Y3440500D03*
Y3290500D03*
X-3858400Y3442200D03*
Y3292200D03*
X-4028400Y3442200D03*
Y3292200D03*
X-3660000Y2225000D03*
Y2375000D03*
X-3390000Y2665000D03*
Y2515000D03*
X-3518400Y3442200D03*
Y3292200D03*
X-3688400Y3442200D03*
Y3292200D03*
X-3240000Y2665000D03*
Y2515000D03*
G54D38*
X-1480000Y3070000D03*
G54D29*
X-3400000Y4370000D03*
Y4290000D03*
Y4210000D03*
Y4850000D03*
Y4770000D03*
Y4690000D03*
Y4610000D03*
Y4530000D03*
Y4450000D03*
Y4930000D03*
X-2580000Y4250000D03*
Y4330000D03*
Y4170000D03*
Y4410000D03*
Y4730000D03*
Y4490000D03*
Y4570000D03*
Y4810000D03*
Y4650000D03*
Y4890000D03*
G54D39*
X-1330000Y2995000D03*
Y3045000D03*
Y3095000D03*
Y3145000D03*
X-1630000D03*
Y3095000D03*
Y3045000D03*
Y2995000D03*
M02*
