G04 ================== begin FILE IDENTIFICATION RECORD ==================*
G04 Layout Name:  pc053e_toplevel_66.brd*
G04 Film Name:    art_L6_BOT_pc053e*
G04 File Format:  Gerber RS274X*
G04 File Origin:  Cadence Allegro 17.4-S012*
G04 Origin Date:  Fri Apr 16 14:59:15 2021*
G04 *
G04 Layer:  VIA CLASS/BOTTOM*
G04 Layer:  PIN/BOTTOM*
G04 Layer:  ETCH/BOTTOM*
G04 *
G04 Offset:    (0.0000 0.0000)*
G04 Mirror:    No*
G04 Mode:      Positive*
G04 Rotation:  0*
G04 FullContactRelief:  No*
G04 UndefLineWidth:     0.2540*
G04 ================== end FILE IDENTIFICATION RECORD ====================*
%FSLAX25Y25*MOMM*%
%IR0*IPPOS*OFA0.00000B0.00000*MIA0B0*SFA1.00000B1.00000*%
%ADD26R,.4X1.*%
%ADD30R,2.X.5*%
%ADD18R,.9X1.*%
%ADD20R,1.X.9*%
%ADD44R,.6X1.6*%
%ADD43R,1.15X.6*%
%ADD42R,1.5X.45*%
%ADD11C,.6*%
%ADD15R,2.35X.28*%
%ADD45C,.64*%
%ADD16R,.6X.6*%
%ADD38R,1.905X.635*%
%ADD25R,1.778X.381*%
%ADD12O,3.2X1.4*%
%ADD19R,1.4X1.2*%
%ADD10O,2.6X1.4*%
%ADD34C,1.*%
%ADD41R,.3X.75*%
%ADD23R,.25X.8*%
%ADD40R,.75X.3*%
%ADD27R,.3X.85*%
%ADD24C,1.6*%
%ADD22R,.8X.25*%
%ADD29R,.85X.3*%
%ADD17C,1.7*%
%ADD14C,3.302*%
%ADD32R,.25X.85*%
%ADD35C,1.524*%
%ADD33R,.85X.25*%
%ADD13C,1.75*%
%ADD31R,1.6X1.6*%
%ADD28R,5.3X5.3*%
%ADD37R,.254X.635*%
%ADD21R,3.25X3.25*%
%ADD36C,1.397*%
%ADD39R,1.85X1.85*%
%ADD46C,.1*%
%ADD47C,.3*%
%ADD48C,.5*%
%ADD49C,.14*%
%ADD50C,.25*%
%ADD51C,.127*%
%ADD52C,.254*%
G75*
%LPD*%
G75*
G54D10*
X-6379000Y1525000D03*
Y2975000D03*
G54D11*
X-6415000Y1245000D03*
Y3255000D03*
X-6135000Y1245000D03*
Y3255000D03*
X-5880200Y1900000D03*
Y2200000D03*
Y2650000D03*
Y2500000D03*
Y2350000D03*
X-5508030Y2983530D03*
X-5290570D03*
X-5341980Y2932120D03*
X-5456620D03*
X-5060000Y5762500D03*
X-4938590Y970570D03*
X-4658350Y931150D03*
X-4990000Y1021980D03*
X-4697700Y1405000D03*
X-4700000Y1195000D03*
X-4938590Y1188030D03*
X-5051410Y1401270D03*
X-5000000Y1452680D03*
X-4990000Y1136620D03*
X-4650000Y1610000D03*
X-5051410Y1618730D03*
X-5000000Y1567320D03*
X-4639860Y3160040D03*
X-4640000Y2990000D03*
X-4710000Y3140910D03*
Y3031690D03*
X-5050000Y6057500D03*
X-4501150Y931150D03*
X-4322300Y1405000D03*
X-4390000Y1610000D03*
X-4328590Y2030570D03*
Y2248030D03*
X-4380000Y2081980D03*
Y2196620D03*
Y2670000D03*
Y2410000D03*
X-4400000Y2965000D03*
X-4245000Y3125000D03*
X-4267200Y2895600D03*
X-4400000Y3375000D03*
X-4527500Y5910000D03*
X-3860000Y880000D03*
X-4120000D03*
X-4130000Y1850000D03*
X-3870000D03*
X-3920000Y2230000D03*
X-4165600Y2628900D03*
X-3810000Y2430000D03*
X-3911600Y2667000D03*
X-4160000Y2550000D03*
X-4150000Y2425700D03*
X-4192570Y2696420D03*
X-4140000Y2957600D03*
X-3810000Y2781300D03*
X-3924300Y2895600D03*
X-3858400Y3566300D03*
X-3830000Y4420000D03*
Y4530000D03*
X-3940000Y6120000D03*
X-3859500Y5840500D03*
X-3540000Y0D03*
X-3695700Y-95100D03*
X-3350000Y360000D03*
X-3766100Y1430000D03*
X-3416300Y1295400D03*
Y1143000D03*
Y1435100D03*
X-3746500Y1143000D03*
X-3730000Y1683300D03*
X-3403600Y1803400D03*
X-3490000Y1810000D03*
X-3598000Y1820000D03*
X-3540000Y2225000D03*
X-3543300Y2476500D03*
X-3695700Y2667000D03*
X-3470000Y2400000D03*
X-3556000Y3124200D03*
X-3470000Y2970000D03*
X-3695700Y2895600D03*
X-3365500Y3352800D03*
X-3644900Y3568700D03*
X-3556000D03*
X-3550000Y4381500D03*
Y4254500D03*
X-3581400Y4156300D03*
X-3550000Y4826000D03*
Y4699000D03*
Y4572000D03*
Y4980000D03*
X-3607040Y4894030D03*
X-3400000Y5560000D03*
X-3551970Y5571410D03*
X-3769430D03*
X-3718020Y5520000D03*
X-3603380D03*
X-3590000Y6045200D03*
Y5930900D03*
X-3760000Y5850000D03*
X-2930000Y-55000D03*
X-3090000D03*
X-3140000Y340000D03*
X-3220000Y615400D03*
X-3009900Y520700D03*
X-2960000Y830000D03*
X-3280000Y660000D03*
X-3227300Y712700D03*
X-3149600Y825500D03*
X-3124200Y1295400D03*
Y1143000D03*
X-3263900Y1435100D03*
Y1143000D03*
X-3116410Y1436660D03*
X-3269400Y1291700D03*
X-3211610Y1803440D03*
X-3018150Y1738160D03*
X-3327400Y1778000D03*
X-3170000Y1880000D03*
X-2985000Y2440000D03*
X-3127700Y2700000D03*
X-3269700Y3168100D03*
X-3040000Y3130000D03*
X-3220000Y2870000D03*
X-2927900Y3130000D03*
X-3210000Y2970000D03*
X-3127700Y2860000D03*
X-2933700Y3416300D03*
X-3009900Y3644900D03*
X-2971800Y4419600D03*
X-2959100Y4241800D03*
X-3225800Y4381500D03*
Y4254500D03*
X-3240000Y4572000D03*
Y4699000D03*
Y4820000D03*
Y4953000D03*
X-2850000Y30000D03*
X-2857500Y190500D03*
X-2882900Y520700D03*
X-2755900D03*
X-2850000Y360000D03*
X-2882900Y800100D03*
X-2755900D03*
X-2518590Y906680D03*
X-2580000Y820000D03*
X-2570000Y958090D03*
X-2730000Y1241700D03*
X-2693150Y1403150D03*
X-2740000Y1070000D03*
X-2518590Y1118720D03*
X-2570000Y1067310D03*
X-2790000Y1550000D03*
X-2700000Y1920000D03*
X-2730000Y2430000D03*
X-2810000Y2350000D03*
X-2701970Y2360290D03*
X-2575000Y2427500D03*
X-2600000Y2670000D03*
X-2630000Y2350000D03*
X-2892300Y2700000D03*
X-2760000Y3130000D03*
X-2740000Y2910000D03*
X-2649570Y2910440D03*
X-2575000Y2912500D03*
X-2892300Y2860000D03*
X-2857500Y3340100D03*
X-2781300Y3644900D03*
X-2895600D03*
X-2781300Y4445000D03*
Y4584700D03*
X-2566600Y4957700D03*
X-2781300Y4890000D03*
X-2910000Y5502100D03*
Y5649600D03*
Y6080000D03*
Y5797100D03*
Y6380000D03*
Y6230000D03*
X-2106000Y352700D03*
X-2495000Y1830000D03*
X-2310000Y2230000D03*
X-2400000Y1950000D03*
X-2270000Y2320000D03*
X-2470000Y2430000D03*
X-2370000Y2350000D03*
X-2085000Y2670000D03*
X-2340000Y2562300D03*
X-2470000Y2910000D03*
X-2340580Y3022560D03*
X-2200000Y3030000D03*
X-2391990Y3073970D03*
X-2340000Y2797700D03*
X-2340580Y3240020D03*
X-2391990Y3188610D03*
X-2260000Y4440000D03*
X-2130000Y4770000D03*
X-2255400Y4850000D03*
X-2413000Y4813300D03*
Y4724400D03*
X-2137300Y5102450D03*
X-2210000Y5297300D03*
X-2137560Y5657710D03*
X-2240000Y6140000D03*
X-2270000Y5758200D03*
X-1716000Y352700D03*
X-1846000D03*
X-1976000D03*
X-1770000Y1370000D03*
Y1100000D03*
X-2050000Y2230000D03*
Y1920000D03*
X-1880000Y2320000D03*
X-1780000D03*
X-1730000Y3170000D03*
Y2970000D03*
X-1940000Y3590000D03*
X-1880000Y3460000D03*
X-1868200Y3550940D03*
X-1660000Y3540000D03*
X-1755000D03*
X-1932670Y3517320D03*
Y3402680D03*
X-1723700Y3996300D03*
X-1820800Y3950000D03*
X-1820000Y3870000D03*
X-1810000Y4115000D03*
X-1820000Y4210000D03*
X-2004600Y4860000D03*
X-1710000Y4660900D03*
X-1972700Y5125000D03*
X-2060000Y5297300D03*
X-1910000D03*
X-1990000Y5660000D03*
X-1820000D03*
X-1700000Y5765360D03*
Y5880000D03*
Y6134640D03*
Y6020000D03*
X-1630000Y345000D03*
X-1260000Y705000D03*
X-1341410Y2231970D03*
X-1290000Y2283380D03*
X-1341410Y2449430D03*
X-1630000Y2570000D03*
X-1600000Y2440000D03*
X-1290000Y2398020D03*
X-1530000Y3120000D03*
X-1430000D03*
X-1530000Y3020000D03*
X-1430000D03*
X-1480000Y3070000D03*
X-1536430Y2820000D03*
X-1427210D03*
X-1240000Y2910000D03*
X-1630000Y3220000D03*
X-1320000Y3590000D03*
X-1267500Y3517500D03*
X-1330000Y3220000D03*
X-1580000Y3560000D03*
X-1230000Y3220000D03*
X-1370000Y4395000D03*
X-1439200Y4660000D03*
X-1370000Y4470000D03*
Y4585000D03*
X-1610000Y4470000D03*
X-1284700Y5186500D03*
X-1238600Y4955000D03*
X-1233600Y5030000D03*
X-1630000Y5740000D03*
Y6000000D03*
Y6160000D03*
Y5900000D03*
X-870000Y305000D03*
X-1002400Y550000D03*
X-1120000Y540000D03*
X-876500Y900000D03*
X-1000000Y1480000D03*
X-1130500Y1360000D03*
X-840000Y1680000D03*
X-820200Y1825000D03*
X-1092500Y1820000D03*
X-1090000Y1680000D03*
X-1092500Y1920000D03*
X-850000D03*
X-1092500Y2015000D03*
X-1070000Y2445000D03*
X-1080000Y2680000D03*
X-1010000Y3120000D03*
Y3010000D03*
X-1046050Y3272500D03*
X-820000Y3540000D03*
X-1120000Y3680000D03*
X-964100Y3650000D03*
X-1040000Y3996300D03*
X-896920Y3890000D03*
X-964100Y4110000D03*
X-990000Y4322300D03*
X-1050000Y4796500D03*
X-1110000Y4560000D03*
X-1000000Y4730000D03*
X-1150000Y4796500D03*
Y4869200D03*
X-820000Y4585000D03*
X-1000000Y4950000D03*
X-970000Y5470000D03*
X-1180000Y5500400D03*
X-1060000Y5645000D03*
X-970000Y6055000D03*
X-1180000Y6085400D03*
X-960000Y5902700D03*
X-1060000D03*
X-1160000Y5750000D03*
X-880000Y5900000D03*
X-1180000Y6380400D03*
X-960000Y6490000D03*
X-1060000D03*
X-880000D03*
X-1060000Y6230000D03*
X-780000Y130000D03*
X-539430Y108590D03*
X-488020Y160000D03*
X-373380D03*
X-780000Y215000D03*
X-436500Y740500D03*
X-749500Y900000D03*
X-640000Y1340000D03*
Y1420000D03*
X-436500Y1629500D03*
Y1883500D03*
X-570000Y1905000D03*
X-437500Y2392500D03*
X-436500Y2645500D03*
Y3153500D03*
Y3407500D03*
X-570000Y3490000D03*
X-770000Y3400000D03*
X-670000Y3460000D03*
X-436500Y3915500D03*
X-482600Y4614000D03*
X-680000Y4580000D03*
X-669710Y4508030D03*
X-760000Y4510000D03*
X-413400Y5059160D03*
X-600000Y5140000D03*
X-570000Y4930000D03*
X-680000Y4991500D03*
X-630000Y5050000D03*
X-710000Y5121500D03*
X-436500Y5566500D03*
X-770000Y5615000D03*
X-520000Y5500000D03*
Y5710000D03*
X-600220Y5665490D03*
Y5550850D03*
X-680000Y5825000D03*
X-620000Y5900000D03*
X-560000Y6070000D03*
X-600220Y6135850D03*
X-620000Y6410000D03*
Y6490000D03*
X-770000Y6200000D03*
X-562340Y6312550D03*
X-600220Y6250490D03*
X-321970Y108590D03*
X-55500Y613500D03*
X-309500D03*
X-182500D03*
X-309500Y867500D03*
X-55500D03*
X-182500Y740500D03*
X-55500D03*
Y1248500D03*
X-309500D03*
X-182500Y1121500D03*
X-309000Y1121000D03*
X-52500Y1632500D03*
X-182500Y1883500D03*
Y1629500D03*
X-309500D03*
X-59000Y2141000D03*
X-311000Y2139000D03*
X-182500Y2137500D03*
X-178000Y2260000D03*
X-55500Y2391500D03*
X-182500D03*
Y2645500D03*
X-309500Y2391500D03*
X-61940Y2503220D03*
X-50800Y2641600D03*
X-182500Y3153500D03*
X-309500Y2899500D03*
X-58800Y2775800D03*
X-58000Y2902000D03*
X-49000Y3020000D03*
X-50000Y3148000D03*
X-299000Y3270000D03*
X-46000Y3290000D03*
X-50000Y3413000D03*
X-309500Y3661500D03*
X-182500Y3915500D03*
X-55500D03*
Y3661500D03*
X-309500Y3915500D03*
Y4296500D03*
X-51000Y4419000D03*
X-182500Y4296500D03*
X-55500D03*
Y4169500D03*
Y4804500D03*
X-182500Y4550500D03*
X-309500Y4804500D03*
X-177800Y4799800D03*
X-55880Y4551680D03*
X-53340Y4676140D03*
X-182500Y5058500D03*
X-309500D03*
X-55500Y5312500D03*
X-319000Y5249000D03*
X-177800Y4926800D03*
X-53340Y4929340D03*
Y5056340D03*
X-55500Y5693500D03*
X-309500D03*
X-310000Y5430000D03*
X-180000Y5690000D03*
X-182500Y5439500D03*
X-55880Y5440680D03*
X-53340Y5565140D03*
X325500Y613500D03*
X452500D03*
X198500D03*
X325500Y867500D03*
X452500Y740500D03*
Y994500D03*
Y867500D03*
X198500D03*
X199500Y739500D03*
X325500Y994500D03*
Y740500D03*
Y1121500D03*
X452500Y1248500D03*
Y1121500D03*
X198500Y1248500D03*
X195000Y1125000D03*
X452500Y1629500D03*
X198500D03*
X325500D03*
X452500Y1883500D03*
Y1756500D03*
Y2010500D03*
X325500Y2137500D03*
X452500D03*
X200000Y2012000D03*
X323000Y2013000D03*
X200000Y2270000D03*
X452500Y2518500D03*
X325500D03*
X71500Y2645500D03*
X452500D03*
X328500Y2388500D03*
X325500Y3026500D03*
X452500Y3153500D03*
X325500D03*
X77500Y3147500D03*
X329000Y2769000D03*
X77000Y2767000D03*
X198000Y3408000D03*
X452500Y3280500D03*
X325500Y3407500D03*
X71500Y3280500D03*
X325500Y3534500D03*
X198500Y3661500D03*
X201500Y3918500D03*
X325500Y3915500D03*
X325000Y3790000D03*
X325500Y3661500D03*
X452500Y4042500D03*
Y4169500D03*
X198500Y4423500D03*
Y4169500D03*
X327660Y4043680D03*
X453860Y4425660D03*
X453000Y4297000D03*
X329500Y4300500D03*
X325500Y4804500D03*
X200500Y4679500D03*
X325500Y4550500D03*
X71500Y5185500D03*
X325000Y5185000D03*
X325500Y5058500D03*
X326500Y5313500D03*
X70000Y5060000D03*
X325500Y4931500D03*
Y5439500D03*
X326000Y5694000D03*
X71500Y5439500D03*
X325000Y5565000D03*
X71500Y5566500D03*
X706500Y613500D03*
Y994500D03*
X579500Y867500D03*
Y740500D03*
Y1248500D03*
Y1375500D03*
X706500Y1121500D03*
Y1502500D03*
X579500Y1756500D03*
X706500Y1629500D03*
X579500Y1883500D03*
Y2264500D03*
X706500Y2010500D03*
Y2137500D03*
Y2645500D03*
X579500Y2391500D03*
X706500Y2518500D03*
X704500Y2774500D03*
X579500Y3026500D03*
X706500Y3153500D03*
X579500Y3407500D03*
X706500Y3280500D03*
X579500Y3534500D03*
X579000Y3661000D03*
X579500Y3915500D03*
X580500Y3789500D03*
X706500Y3661500D03*
Y3788500D03*
Y4296500D03*
X579500D03*
Y4042500D03*
X706500Y4169500D03*
X579500D03*
X580680Y4423880D03*
X706500Y4804500D03*
Y4550500D03*
X579500Y4677500D03*
X572500Y4797500D03*
X579500Y4931500D03*
X706500Y5185500D03*
Y5312500D03*
X578500Y5311500D03*
X577000Y5183000D03*
X579500Y5058500D03*
Y5439500D03*
X706500Y5693500D03*
X577500Y5692500D03*
X579500Y5566500D03*
G54D20*
X-4203700Y3440500D03*
Y3290500D03*
X-3858400Y3442200D03*
Y3292200D03*
X-4028400Y3442200D03*
Y3292200D03*
X-3660000Y2225000D03*
Y2375000D03*
X-3390000Y2665000D03*
Y2515000D03*
X-3518400Y3442200D03*
Y3292200D03*
X-3688400Y3442200D03*
Y3292200D03*
X-3240000Y2665000D03*
Y2515000D03*
G54D21*
X-3805800Y2782600D03*
G54D12*
X-5782000Y1525000D03*
Y2975000D03*
G54D30*
X-3400000Y4370000D03*
Y4290000D03*
Y4210000D03*
Y4850000D03*
Y4770000D03*
Y4690000D03*
Y4610000D03*
Y4530000D03*
Y4450000D03*
Y4930000D03*
X-2580000Y4250000D03*
Y4330000D03*
Y4170000D03*
Y4410000D03*
Y4730000D03*
Y4490000D03*
Y4570000D03*
Y4810000D03*
Y4650000D03*
Y4890000D03*
G54D31*
X-2895900Y3375300D03*
X-2600000Y2670000D03*
G54D13*
X-6090000Y3835600D03*
Y4693600D03*
X-5590000Y5260600D03*
X-5090000Y3835600D03*
X-4590000Y5260600D03*
X-4090000Y3835600D03*
Y4403600D03*
Y4943600D03*
X-3590000Y5260600D03*
X-2590000D03*
G54D22*
X-4050800Y2707600D03*
Y2657600D03*
Y2607600D03*
Y2957600D03*
Y2907600D03*
Y2857600D03*
Y2807600D03*
Y2757600D03*
X-3560800Y2607600D03*
Y2657600D03*
Y2707600D03*
Y2757600D03*
Y2807600D03*
Y2857600D03*
Y2907600D03*
Y2957600D03*
G54D40*
X-1330000Y2995000D03*
Y3045000D03*
Y3095000D03*
Y3145000D03*
X-1630000D03*
Y3095000D03*
Y3045000D03*
Y2995000D03*
G54D50*
G01X-980000Y2015000D02*
X-1092500D01*
G01X-835000Y5510000D02*
X-970000Y5645000D01*
X-1060000D01*
G01X-835000Y6095000D02*
X-970000Y6230000D01*
X-1060000D01*
G54D32*
X-2970900Y3230300D03*
Y3520300D03*
X-2675000Y2525000D03*
X-2625000D03*
X-2575000D03*
Y2815000D03*
X-2625000D03*
X-2675000D03*
X-2920900Y3230300D03*
X-2870900D03*
X-2820900D03*
Y3520300D03*
X-2870900D03*
X-2920900D03*
X-2525000Y2525000D03*
Y2815000D03*
G54D14*
X-5460000Y380000D03*
X-5475000Y6050000D03*
X0Y0D03*
Y6300000D03*
G54D23*
X-3980800Y2537600D03*
X-3930800D03*
X-3880800D03*
X-3830800D03*
Y3027600D03*
X-3880800D03*
X-3930800D03*
X-3980800D03*
X-3780800Y2537600D03*
X-3730800D03*
X-3680800D03*
X-3630800D03*
Y3027600D03*
X-3680800D03*
X-3730800D03*
X-3780800D03*
G54D41*
X-1555000Y2920000D03*
X-1505000D03*
X-1455000D03*
X-1405000D03*
Y3220000D03*
X-1455000D03*
X-1505000D03*
X-1555000D03*
G54D51*
G01X-2455000Y2695000D02*
X-2370000D01*
X-2340000Y2725000D01*
G01X-2455000Y2645000D02*
X-2350000D01*
X-2340000Y2635000D01*
G01X-2235000Y2730000D02*
X-2285940D01*
X-2290940Y2725000D01*
X-2340000D01*
G01X-1330000Y3145000D02*
X-1307500D01*
X-1267200Y3185300D01*
X-1264700D01*
X-1230000Y3220000D01*
G01X-1330000Y3095000D02*
X-1259060D01*
X-1234060Y3120000D01*
X-1185000D01*
G01X-1330000Y3045000D02*
X-1269060D01*
X-1234060Y3010000D01*
X-1185000D01*
G01X-1240000Y2910000D02*
X-1279020Y2949020D01*
Y2966520D01*
X-1307500Y2995000D01*
X-1330000D01*
G01X-1455000Y3220000D02*
Y3300940D01*
X-1440000Y3315940D01*
Y3365000D01*
G01D02*
X-1330000D01*
G01X-1505000Y3220000D02*
Y3320000D01*
X-1550000Y3365000D01*
G01X-1660000D02*
X-1550000D01*
G54D33*
X-3040900Y3450300D03*
Y3400300D03*
Y3350300D03*
Y3300300D03*
X-2745000Y2695000D03*
Y2645000D03*
Y2595000D03*
Y2745000D03*
X-2750900Y3300300D03*
Y3350300D03*
Y3400300D03*
Y3450300D03*
X-2455000Y2595000D03*
Y2645000D03*
Y2695000D03*
Y2745000D03*
G54D24*
X-3810000Y3835600D03*
Y5260600D03*
X-3340000Y3835600D03*
Y5260600D03*
X-2840000Y3835600D03*
Y5260600D03*
X-2380000Y4068100D03*
Y4548100D03*
Y5028100D03*
G54D15*
X-5720000Y1800000D03*
Y1850000D03*
Y1900000D03*
Y1950000D03*
Y2000000D03*
Y2050000D03*
Y2100000D03*
Y2150000D03*
Y2200000D03*
Y2250000D03*
Y2300000D03*
Y2350000D03*
Y2400000D03*
Y2450000D03*
Y2500000D03*
Y2550000D03*
Y2600000D03*
Y2650000D03*
Y2700000D03*
G54D42*
X-1598500Y3996300D03*
Y3931300D03*
Y3866300D03*
Y3801300D03*
X-1158500D03*
Y3866300D03*
Y3931300D03*
Y3996300D03*
G54D52*
G01X-5215000Y1020000D02*
X-5234300Y1039300D01*
X-5639300D01*
X-6271400Y1671400D01*
Y2537150D01*
X-6146460Y2662090D01*
X-5950000D01*
X-5904190Y2707900D01*
X-5845400D01*
X-5837500Y2700000D01*
X-5720000D01*
G01X-5215000Y1120000D02*
Y1115000D01*
X-5249300Y1080700D01*
X-5622150D01*
X-6230000Y1688550D01*
Y2520000D01*
X-6129310Y2620690D01*
X-5950000D01*
X-5921410Y2592100D01*
X-5845400D01*
X-5837500Y2600000D01*
X-5720000D01*
G01X-5215000Y1560000D02*
X-5270400D01*
X-5299700Y1530700D01*
X-5335630D01*
X-5370000Y1565070D01*
Y2120000D01*
X-5470300Y2220300D01*
X-5547400D01*
X-5577100Y2250000D01*
X-5720000D01*
G01X-5215000Y1460000D02*
X-5270400D01*
X-5299700Y1489300D01*
X-5352780D01*
X-5411400Y1547920D01*
Y2102850D01*
X-5487450Y2178900D01*
X-5548200D01*
X-5577100Y2150000D01*
X-5720000D01*
G01X-5465000Y2300000D02*
X-5494300Y2329300D01*
X-5547800D01*
X-5577100Y2300000D01*
X-5720000D01*
G01X-5350000Y2725000D02*
Y2669600D01*
X-5379300Y2640300D01*
Y2587220D01*
X-5487220Y2479300D01*
X-5547800D01*
X-5577100Y2450000D01*
X-5720000D01*
G01X-5450000Y2725000D02*
Y2669600D01*
X-5420700Y2640300D01*
Y2604370D01*
X-5504370Y2520700D01*
X-5547800D01*
X-5577100Y2550000D01*
X-5720000D01*
G01X-5465000Y2400000D02*
X-5494300Y2370700D01*
X-5547800D01*
X-5577100Y2400000D01*
X-5720000D01*
G01X-4990000Y1021980D02*
X-5022540Y1054520D01*
X-5090480D01*
X-5125000Y1020000D01*
G01X-4990000Y1136620D02*
X-5030700Y1095920D01*
X-5100920D01*
X-5125000Y1120000D01*
G01Y1460000D02*
X-5095700Y1489300D01*
X-5036620D01*
X-5000000Y1452680D01*
G01X-5125000Y1560000D02*
X-5095700Y1530700D01*
X-5036620D01*
X-5000000Y1567320D01*
G01X-5375000Y2300000D02*
X-5319600D01*
X-5290300Y2329300D01*
X-5254370D01*
X-5211400Y2286330D01*
Y2231410D01*
X-5089990Y2110000D01*
X-4420000D01*
X-4391980Y2081980D01*
X-4380000D01*
G01X-5375000Y2400000D02*
X-5319600D01*
X-5290300Y2370700D01*
X-5237220D01*
X-5170000Y2303480D01*
Y2248560D01*
X-5072840Y2151400D01*
X-4425220D01*
X-4380000Y2196620D01*
G01X-5350000Y2815000D02*
X-5378600Y2843600D01*
Y2906720D01*
X-5353200Y2932120D01*
X-5341980D01*
G01X-5450000Y2815000D02*
X-5420000Y2845000D01*
Y2906720D01*
X-5445400Y2932120D01*
X-5456620D01*
G01X-4710000Y470000D02*
X-4707000Y473000D01*
X-4657000D01*
X-4610000Y520000D01*
Y625000D01*
X-4635000Y650000D01*
G01X-4658350Y931150D02*
X-4680000Y909500D01*
Y845000D01*
G01X-4628140Y783060D02*
X-4641940D01*
X-4670000Y755000D01*
X-4680000D01*
G01X-5000000Y1452680D02*
X-4963380Y1489300D01*
X-4101500D01*
G01X-3960000D02*
X-3920800D01*
X-3896500Y1465000D01*
X-3840000D01*
G01X-5000000Y1567320D02*
X-4963380Y1530700D01*
X-4101500D01*
G01X-3960000D02*
X-3920800D01*
X-3896500Y1555000D01*
X-3840000D01*
G01X-4680000Y2296000D02*
X-4467100Y2508900D01*
Y2664790D01*
X-4374290Y2757600D01*
X-4050800D01*
G01X-4680000Y2550000D02*
X-4422400Y2807600D01*
X-4050800D01*
G01X-4456000Y470000D02*
X-4459000Y473000D01*
X-4510350D01*
X-4560000Y522650D01*
Y635000D01*
X-4545000Y650000D01*
G01X-4501150Y931150D02*
X-4482300Y912300D01*
Y852700D01*
X-4490000Y845000D01*
G01Y755000D02*
X-4499460D01*
X-4519460Y775000D01*
X-4535920D01*
G01D02*
X-4561330Y749590D01*
Y666330D01*
X-4545000Y650000D01*
G01X-3614400Y1041700D02*
X-3808300D01*
X-3870000Y980000D01*
X-3956270D01*
X-3956970Y979300D01*
X-4084830D01*
X-4085530Y980000D01*
X-4140000D01*
X-4168600Y1008600D01*
X-4533650D01*
X-4559050Y983200D01*
Y800850D01*
X-4535920Y777720D01*
Y775000D01*
G01X-4635000Y650000D02*
X-4602900Y682100D01*
Y686660D01*
X-4602730Y686830D01*
Y757650D01*
X-4628140Y783060D01*
G01X-3614400Y1091700D02*
X-3695570D01*
X-3704170Y1083100D01*
X-3825450D01*
X-3887150Y1021400D01*
X-3973420D01*
X-3974120Y1020700D01*
X-4067680D01*
X-4068380Y1021400D01*
X-4122850D01*
X-4151450Y1050000D01*
X-4550800D01*
X-4600450Y1000350D01*
Y810750D01*
X-4628140Y783060D01*
G01X-4050800Y2857600D02*
X-4229200D01*
X-4267200Y2895600D01*
G01X-4149000Y5910000D02*
X-4265000D01*
G01X-4415000D02*
X-4527500D01*
G01X-3769100Y473000D02*
X-3743700Y447600D01*
Y330770D01*
X-3832430Y242040D01*
Y168950D01*
X-3782780Y119300D01*
X-3729700D01*
X-3700400Y90000D01*
X-3645000D01*
G01X-3840000Y470000D02*
X-3837000Y473000D01*
X-3769100D01*
G01X-3840000Y1305000D02*
X-3856500D01*
X-3880200Y1281300D01*
X-3995500D01*
X-4020900Y1306700D01*
Y1387600D01*
G01X-3614400Y1291700D02*
X-3826700D01*
X-3840000Y1305000D01*
G01Y1215000D02*
X-3856500D01*
X-3881400Y1239900D01*
X-3994900D01*
X-4020900Y1213900D01*
Y1133600D01*
G01X-3840000Y1215000D02*
X-3809000Y1246000D01*
X-3707700D01*
X-3703400Y1241700D01*
X-3614400D01*
G01Y1491700D02*
X-3703400D01*
X-3707700Y1496000D01*
X-3809000D01*
X-3840000Y1465000D01*
G01X-3614400Y1541700D02*
X-3703400D01*
X-3707700Y1537400D01*
X-3822400D01*
X-3840000Y1555000D01*
G01X-4205000Y2280000D02*
X-4085000Y2400000D01*
X-4003000D01*
X-3930800Y2472200D01*
Y2537600D01*
G01X-4055000Y2280000D02*
X-3880800Y2454200D01*
Y2537600D01*
G01X-3660000Y2375000D02*
X-3770000D01*
X-3820000Y2325000D01*
G01X-4150000Y2425700D02*
X-4038100Y2537600D01*
X-3980800D01*
G01X-4050800Y2707600D02*
X-4181390D01*
X-4192570Y2696420D01*
G01X-3880800Y3027600D02*
Y3205740D01*
X-3858400Y3228140D01*
Y3292200D01*
G01X-4203700Y3290500D02*
X-4074970Y3161770D01*
X-4001500D01*
X-3976100Y3136370D01*
Y3110970D01*
X-3980800Y3106270D01*
Y3027600D01*
G01X-4028400Y3292200D02*
X-4051300Y3269300D01*
Y3227770D01*
X-4025900Y3202370D01*
X-3984680D01*
X-3935500Y3153190D01*
Y3110970D01*
X-3930800Y3106270D01*
Y3027600D01*
G01X-3830800D02*
Y3149800D01*
X-3688400Y3292200D01*
G01X-3040900Y3300300D02*
X-3101370D01*
X-3156070Y3355000D01*
X-3198290D01*
X-3473290Y3630000D01*
X-4003000D01*
X-4091630Y3541370D01*
Y3505430D01*
X-4028400Y3442200D01*
G01X-4203700Y3440500D02*
Y3496300D01*
X-4028600Y3671400D01*
X-3456140D01*
X-3181140Y3396400D01*
X-3155270D01*
X-3101370Y3450300D01*
X-3040900D01*
G01X-3830000Y4420000D02*
X-3800000Y4450000D01*
X-3400000D01*
G01Y4530000D02*
X-3510110D01*
X-3526010Y4514100D01*
X-3814100D01*
X-3830000Y4530000D01*
G01X-3400000Y5715000D02*
X-3685000D01*
X-3750000Y5650000D01*
X-3994000D01*
G01Y5845000D02*
X-3864000D01*
X-3859500Y5840500D01*
G01D02*
Y5954800D01*
X-3879700Y5975000D01*
X-3994000D01*
G01Y5910000D02*
X-4149000D01*
G01D02*
Y5820700D01*
X-4108300Y5780000D01*
X-3994000D01*
G01Y5715000D02*
X-3785000D01*
X-3720000Y5780000D01*
X-3400000D01*
G01X-3676900Y473000D02*
X-3702300Y447600D01*
Y313620D01*
X-3791030Y224890D01*
Y186100D01*
X-3765630Y160700D01*
X-3729700D01*
X-3700400Y190000D01*
X-3645000D01*
G01X-3555000Y90000D02*
X-3495000D01*
X-3466400Y118600D01*
X-3454500D01*
X-3430500Y94600D01*
Y41200D01*
G01X-3586000Y470000D02*
X-3589000Y473000D01*
X-3676900D01*
G01D02*
Y482200D01*
X-3688600Y493900D01*
Y494950D01*
X-3700000Y506350D01*
Y633500D01*
X-3673100Y660400D01*
G01X-3769100Y473000D02*
Y474000D01*
X-3741400Y501700D01*
Y638700D01*
X-3763100Y660400D01*
G01X-3495000Y660000D02*
X-3471400Y636400D01*
Y551410D01*
X-3338590Y418600D01*
X-677150D01*
X-505970Y247420D01*
X-476800D01*
X-451400Y222020D01*
Y196620D01*
X-488020Y160000D01*
G01X-3405000Y660000D02*
X-3430000Y635000D01*
Y568560D01*
X-3321440Y460000D01*
X-660000D01*
X-488820Y288820D01*
X-459650D01*
X-410000Y239170D01*
Y196620D01*
X-373380Y160000D01*
G01X-3555000Y190000D02*
X-3495000D01*
X-3491800Y186800D01*
X-3440500D01*
X-3430500Y196800D01*
Y251200D01*
G01X-3469400Y946700D02*
Y873670D01*
X-3565940Y777130D01*
X-3663100D01*
X-3673100Y767130D01*
Y660400D01*
G01X-3519400Y946700D02*
Y882220D01*
X-3583090Y818530D01*
X-3681470D01*
X-3738800Y761200D01*
Y741200D01*
X-3763100Y716900D01*
Y660400D01*
G01X-3495000Y660000D02*
X-3471400Y683600D01*
Y787160D01*
X-3412300Y846260D01*
Y939600D01*
X-3419400Y946700D01*
G01X-3405000Y660000D02*
X-3430000Y685000D01*
Y770010D01*
X-3370900Y829110D01*
Y945200D01*
X-3369400Y946700D01*
G01X-3614400Y1141700D02*
X-3615700Y1143000D01*
X-3746500D01*
G01X-3730000Y1683300D02*
X-3683400Y1636700D01*
X-3519400D01*
G01X-3403600Y1803400D02*
Y1765300D01*
X-3369400Y1731100D01*
Y1636700D01*
G01X-3490000Y1810000D02*
Y1778790D01*
X-3419400Y1708190D01*
Y1636700D01*
G01X-3490000Y1810000D02*
X-3195000Y2105000D01*
X-2485000D01*
G01X-3598000Y1820000D02*
X-3469400Y1691400D01*
Y1636700D01*
G01X-2485000Y2155000D02*
X-3263000D01*
X-3598000Y1820000D01*
G01X-3560800Y2757600D02*
X-3560600Y2757400D01*
X-3417840D01*
X-3411140Y2750700D01*
X-3363890D01*
X-3352060Y2738870D01*
Y2702940D01*
X-3390000Y2665000D01*
G01X-3630800Y2537600D02*
Y2430400D01*
X-3660000Y2401200D01*
Y2375000D01*
G01X-2745000Y2645000D02*
X-2835000D01*
X-2880000Y2600000D01*
X-3158560D01*
X-3168560Y2590000D01*
X-3290000D01*
X-3292100Y2587900D01*
X-3312100D01*
X-3385000Y2515000D01*
X-3390000D01*
G01X-3560800Y2807600D02*
X-3552000Y2798800D01*
X-3400690D01*
X-3393990Y2792100D01*
X-3322100D01*
X-3240000Y2710000D01*
Y2665000D01*
G01X-3385000Y2870000D02*
X-3397400Y2857600D01*
X-3560800D01*
G01X-3780800Y3027600D02*
Y3140700D01*
X-3721100Y3200400D01*
X-3610200D01*
X-3518400Y3292200D01*
G01X-3644900Y3568700D02*
Y3485700D01*
X-3688400Y3442200D01*
G01X-3556000Y3568700D02*
Y3479800D01*
X-3518400Y3442200D01*
G01X-3400000Y4370000D02*
X-3237300D01*
X-3225800Y4381500D01*
G01Y4254500D02*
X-3261300Y4290000D01*
X-3400000D01*
G01Y4610000D02*
X-3278000D01*
X-3240000Y4572000D01*
G01X-3400000Y4690000D02*
X-3249000D01*
X-3240000Y4699000D01*
G01Y4953000D02*
Y4901890D01*
X-3291890Y4850000D01*
X-3400000D01*
G01X-3240000Y4820000D02*
X-3290000Y4770000D01*
X-3400000D01*
G01Y5910000D02*
X-3275400D01*
X-3250000Y5935400D01*
Y6013000D01*
G01D02*
X-3273000D01*
X-3300000Y6040000D01*
X-3400000D01*
G01Y5845000D02*
X-3482410D01*
X-3516800Y5879390D01*
Y5940610D01*
X-3514300Y5943110D01*
Y5975000D01*
G01D02*
X-3400000D01*
G01X-3175000Y6230000D02*
X-3365400D01*
X-3516800Y6078600D01*
Y6009390D01*
X-3514300Y6006890D01*
Y5975000D01*
G01X-2410000Y5886000D02*
X-3179700D01*
X-3285700Y5780000D01*
X-3400000D01*
G01X-3175000Y5650000D02*
X-3240000Y5715000D01*
X-3400000D01*
G01X-3170000Y155000D02*
Y35000D01*
G01D02*
X-3191600Y13400D01*
X-3300500D01*
G01D02*
Y-89700D01*
X-3295100Y-95100D01*
G01X-3300500Y13400D02*
Y41200D01*
G01X-3170000Y35000D02*
X-3010000D01*
G01X-2857500Y190500D02*
X-2964900D01*
G01X-3009900Y615400D02*
Y520700D01*
G01X-3300500Y251200D02*
X-3176200D01*
X-3170000Y245000D01*
G01D02*
X-3109400D01*
X-3054900Y190500D01*
G01X-3169400Y946700D02*
Y845300D01*
X-3149600Y825500D01*
G01X-3136900Y705400D02*
X-3219400Y787900D01*
Y946700D01*
G01X-3009900Y705400D02*
Y769300D01*
X-3119400Y878800D01*
Y946700D01*
G01X-3327400Y1778000D02*
X-3319400Y1770000D01*
Y1636700D01*
G01X-3170000Y1880000D02*
X-3244110D01*
X-3269510Y1854600D01*
Y1802000D01*
X-3269500Y1801990D01*
Y1704700D01*
X-3269400Y1704600D01*
Y1636700D01*
G01X-1630000Y3095000D02*
X-1631500Y3093500D01*
X-1661910D01*
X-1663410Y3095000D01*
X-1791750D01*
X-1850000Y3036750D01*
Y2581450D01*
X-1711400Y2442850D01*
Y1887150D01*
X-1848550Y1750000D01*
X-2731450D01*
X-2842850Y1861400D01*
X-3050860D01*
X-3169400Y1742860D01*
Y1636700D01*
G01X-1630000Y3045000D02*
X-1637100Y3052100D01*
X-1679060D01*
X-1680560Y3053600D01*
X-1774600D01*
X-1808600Y3019600D01*
Y2598600D01*
X-1670000Y2460000D01*
Y1870000D01*
X-1831400Y1708600D01*
X-2748600D01*
X-2860000Y1820000D01*
X-3033700D01*
X-3121550Y1732150D01*
Y1727850D01*
X-3119400Y1725700D01*
Y1636700D01*
G01X-2745000Y2595000D02*
X-2826450D01*
X-2862850Y2558600D01*
X-3141410D01*
X-3185010Y2515000D01*
X-3240000D01*
G01X-3127700Y2700000D02*
X-3068400Y2759300D01*
X-2857860D01*
X-2814290Y2715730D01*
X-2814280D01*
X-2793550Y2695000D01*
X-2745000D01*
G01X-3127700Y2860000D02*
X-3068400Y2800700D01*
X-2840700D01*
X-2785000Y2745000D01*
X-2745000D01*
G01X-3025000Y5650000D02*
X-2910400D01*
X-2910000Y5649600D01*
G01X-3250000Y6013000D02*
X-2410000D01*
G01X-2910000Y6230000D02*
X-3025000D01*
G01X-2924400Y1041700D02*
X-2896900D01*
X-2565200Y710000D01*
X-2410000D01*
G01X-2570000Y958090D02*
Y980000D01*
X-2682100Y1092100D01*
Y1112400D01*
X-2712100Y1142400D01*
X-2834700D01*
X-2835400Y1141700D01*
X-2924400D01*
G01Y1341700D02*
X-2581700D01*
X-2130000Y890000D01*
Y710000D01*
G01X-2924400Y1291700D02*
X-2771890D01*
X-2763990Y1299600D01*
X-2689610D01*
X-2680010Y1290000D01*
X-2607980D01*
X-2273990Y956010D01*
Y653980D01*
X-2200010Y580000D01*
X-1980000D01*
X-1850000Y710000D01*
G01X-1290000Y2398020D02*
X-1253380Y2361400D01*
X-1202850D01*
X-1130000Y2288550D01*
Y2081450D01*
X-1742850Y1468600D01*
X-2709700D01*
X-2736600Y1441700D01*
X-2924400D01*
G01X-2570000Y1067310D02*
X-2598760D01*
X-2640700Y1109250D01*
Y1129550D01*
X-2694950Y1183800D01*
X-2827500D01*
X-2835400Y1191700D01*
X-2924400D01*
G01X-1290000Y2283380D02*
X-1253380Y2320000D01*
X-1220000D01*
X-1171400Y2271400D01*
Y2098600D01*
X-1760000Y1510000D01*
X-2739020D01*
X-2757320Y1491700D01*
X-2924400D01*
G01X-2391990Y3073970D02*
X-2403970D01*
X-2440000Y3110000D01*
X-2509930D01*
X-2560170Y3160240D01*
Y3281620D01*
X-2583150Y3304600D01*
X-2636500D01*
X-2640800Y3300300D01*
X-2750900D01*
G01X-2391990Y3188610D02*
X-2429200Y3151400D01*
X-2492780D01*
X-2518770Y3177390D01*
Y3298770D01*
X-2566000Y3346000D01*
X-2636500D01*
X-2640800Y3350300D01*
X-2750900D01*
G01X-1932670Y3517320D02*
X-1949990Y3500000D01*
X-2389990D01*
X-2443990Y3446000D01*
X-2657600D01*
X-2661900Y3450300D01*
X-2750900D01*
G01X-1932670Y3402680D02*
X-1988590Y3458600D01*
X-2372840D01*
X-2426840Y3404600D01*
X-2657600D01*
X-2661900Y3400300D01*
X-2750900D01*
G01X-1550000Y3455000D02*
X-1481400Y3523600D01*
Y4131400D01*
X-1630000Y4280000D01*
X-2100000D01*
X-2129630Y4250370D01*
X-2474460D01*
X-2485590Y4261500D01*
X-2557770D01*
X-2569270Y4250000D01*
X-2580000D01*
G01X-1440000Y3455000D02*
Y4148550D01*
X-1612850Y4321400D01*
X-2117150D01*
X-2146780Y4291770D01*
X-2457310D01*
X-2468440Y4302900D01*
X-2552900D01*
X-2580000Y4330000D01*
G01X-2781300Y4584700D02*
X-2766600Y4570000D01*
X-2580000D01*
G01X-2260000Y4440000D02*
X-2294600Y4405400D01*
X-2435270D01*
X-2442700Y4412830D01*
Y4437160D01*
X-2495540Y4490000D01*
X-2580000D01*
G01X-2413000Y4813300D02*
X-2416300Y4810000D01*
X-2580000D01*
G01Y4730000D02*
X-2456330D01*
X-2456320Y4729990D01*
X-2418590D01*
X-2413000Y4724400D01*
G01X-2175000Y2155000D02*
X-2043110D01*
X-1919180Y2278930D01*
Y2280820D01*
X-1880000Y2320000D01*
G01X-2175000Y2105000D02*
X-1995000D01*
X-1780000Y2320000D01*
G01X-2175000Y2005000D02*
Y2055000D01*
G01X-2225000Y1920000D02*
Y1955000D01*
X-2175000Y2005000D01*
G01X-2455000Y2595000D02*
X-2442700D01*
X-2410000Y2562300D01*
X-2340000D01*
G01X-2455000Y2745000D02*
X-2448100D01*
X-2395400Y2797700D01*
X-2340000D01*
G01X-1439200Y5056500D02*
X-1703500D01*
X-2047900Y4712100D01*
X-2153990D01*
X-2200000Y4758110D01*
Y4808610D01*
G01D02*
Y4850000D01*
G01Y4808610D02*
X-2214010D01*
X-2255400Y4850000D01*
G01X-2210000Y5215000D02*
Y5297300D01*
G01X-2200000Y5028000D02*
Y5115000D01*
X-2210000Y5125000D01*
G01X-1630000Y3145000D02*
X-1705000D01*
X-1730000Y3170000D01*
G01X-1630000Y2995000D02*
X-1635000Y3000000D01*
X-1692900D01*
X-1722900Y2970000D01*
X-1730000D01*
G01X-1820800Y3950000D02*
X-1825000D01*
X-1900000Y4025000D01*
G01X-1820800Y3950000D02*
X-1802100Y3931300D01*
X-1598500D01*
G01X-1820000Y3870000D02*
X-1816300Y3866300D01*
X-1598500D01*
G01X-1820000Y3870000D02*
X-1900000Y3790000D01*
Y3775000D01*
G01X-2070000Y4850000D02*
X-2014600D01*
X-2004600Y4860000D01*
G01D02*
X-1743100Y5121500D01*
X-1439200D01*
G01X-1710000Y4660900D02*
Y4920000D01*
X-1638500Y4991500D01*
X-1439200D01*
G01X-2060000Y5215000D02*
Y5297300D01*
G01X-1910000D02*
Y5215000D01*
G01X-2060000Y5125000D02*
X-2070000Y5115000D01*
Y5028000D01*
G01X-1700000Y5765360D02*
X-1733640Y5799000D01*
X-1800000D01*
X-1840000Y5759000D01*
G01X-1700000Y5880000D02*
X-1730000Y5850000D01*
X-1804000D01*
X-1840000Y5886000D01*
G01X-1700000Y6134640D02*
X-1724640Y6110000D01*
X-1810000D01*
X-1840000Y6140000D01*
G01X-1700000Y6020000D02*
X-1733000Y6053000D01*
X-1800000D01*
X-1840000Y6013000D01*
G01X-960000Y2645000D02*
X-995000Y2610000D01*
X-1487420D01*
X-1527420Y2570000D01*
X-1630000D01*
G01X-1600000Y2440000D02*
X-1432730D01*
X-1337730Y2535000D01*
X-960000D01*
G01X-1555000Y2920000D02*
Y2897500D01*
X-1580000Y2872500D01*
Y2858320D01*
X-1594330Y2843990D01*
Y2796010D01*
X-1560420Y2762100D01*
X-1512440D01*
X-1506090Y2768450D01*
X-1457550D01*
X-1451200Y2762100D01*
X-1403220D01*
X-1369310Y2796010D01*
Y2843990D01*
X-1375660Y2850340D01*
Y2868160D01*
X-1405000Y2897500D01*
Y2920000D01*
G01X-1505000D02*
X-1500700Y2915700D01*
Y2867140D01*
X-1489070Y2855510D01*
X-1514580Y2830000D01*
X-1526430D01*
X-1536430Y2820000D01*
G01X-1427210D02*
X-1446620Y2839410D01*
Y2871610D01*
X-1455000Y2879990D01*
Y2920000D01*
G01X-1665000Y3630000D02*
X-1598500Y3696500D01*
Y3801300D01*
G01X-1250000Y4585000D02*
X-1370000D01*
G01X-1610000Y4470000D02*
Y4870000D01*
X-1553500Y4926500D01*
X-1439200D01*
G01X-876500Y900000D02*
Y705000D01*
G01Y900000D02*
X-560000Y1216500D01*
Y1336720D01*
X-397820Y1498900D01*
X456100D01*
X516000Y1439000D01*
G01X-1000000Y1480000D02*
X-1003500Y1476500D01*
Y1235000D01*
G01X-1130500Y1360000D02*
Y1235000D01*
G01X-710000Y2530000D02*
X-825000Y2645000D01*
X-960000D01*
G01X-710000Y2276000D02*
Y2340400D01*
X-904600Y2535000D01*
X-960000D01*
G01X-964100Y3827800D02*
X-1002600Y3866300D01*
X-1158500D01*
G01X-710000Y3950000D02*
X-832200Y3827800D01*
X-964100D01*
G01Y3941000D02*
X-973800Y3931300D01*
X-1158500D01*
G01X-964100Y3941000D02*
X-913100Y3890000D01*
X-896920D01*
G01D02*
Y3952780D01*
X-758600Y4091100D01*
X-663220D01*
X-581220Y4173100D01*
X-186100D01*
X-152280Y4139280D01*
G01X-820000Y4585000D02*
X-990000D01*
G01X-570000Y4930000D02*
X-573500Y4926500D01*
X-845200D01*
G01Y4991500D02*
X-680000D01*
G01X-845200Y5056500D02*
X-636500D01*
X-630000Y5050000D01*
G01X-710000Y5121500D02*
X-845200D01*
G01X-119000Y5122000D02*
X-186100Y5189100D01*
X-339100D01*
X-341100Y5191100D01*
X-342990D01*
X-419390Y5267500D01*
X-963950D01*
X-1175700Y5055750D01*
Y5006010D01*
X-1209610Y4972100D01*
X-1221500D01*
X-1238600Y4955000D01*
G01X-119000Y5249000D02*
X-178900Y5308900D01*
X-981100D01*
X-1233600Y5056400D01*
Y5030000D01*
G01X-855000Y5740000D02*
X-835000Y5720000D01*
G01X-960000Y5740000D02*
X-855000D01*
G01X-960000D02*
X-1060000D01*
G01X-855000D02*
Y5825000D01*
G01Y6410000D02*
Y6325000D01*
G01D02*
X-835000Y6305000D01*
G01X-960000Y6325000D02*
X-1060000D01*
G01X-960000D02*
X-855000D01*
G01X-749500Y705000D02*
Y900000D01*
G01D02*
X-480000Y1169500D01*
Y1289720D01*
X-397820Y1371900D01*
X329100D01*
X389000Y1312000D01*
G01X-720000Y2015000D02*
X-398720D01*
X-397820Y2014100D01*
X-59100D01*
X8000Y1947000D01*
G01X-770000Y3400000D02*
X-528720D01*
X-397820Y3530900D01*
X-185120D01*
X-119000Y3597020D01*
G01X-670000Y3460000D02*
Y3520000D01*
X-400000Y3790000D01*
X-184000D01*
X-119000Y3725000D01*
G01X-710000Y3950000D02*
X-621100Y4038900D01*
X-178900D01*
X-150150Y4010150D01*
G01X-600220Y5665490D02*
Y5675490D01*
X-644730Y5720000D01*
X-705000D01*
G01X-600220Y5550850D02*
X-639400Y5511670D01*
X-657930D01*
X-659600Y5510000D01*
X-705000D01*
G01X-600220Y6135850D02*
X-639400Y6096670D01*
X-657930D01*
X-659600Y6095000D01*
X-705000D01*
G01X-600220Y6250490D02*
Y6260490D01*
X-644730Y6305000D01*
X-705000D01*
G01X-119000Y2074000D02*
X-182500Y2137500D01*
G01X-119000Y2201000D02*
X-178000Y2260000D01*
G01X-119000Y2455000D02*
X-110160D01*
X-61940Y2503220D01*
G01X-50800Y2641600D02*
Y2611510D01*
X-80310Y2582000D01*
X-119000D01*
G01Y2836000D02*
X-58800Y2775800D01*
G01X-119000Y2963000D02*
X-58000Y2902000D01*
G01X8000Y2963000D02*
X-49000Y3020000D01*
G01X8000Y3090000D02*
X-50000Y3148000D01*
G01X8000Y3344000D02*
X-46000Y3290000D01*
G01X8000Y3471000D02*
X-50000Y3413000D01*
G01X-150150Y4010150D02*
X-119000Y3979000D01*
G01Y3597020D02*
Y3598000D01*
G01Y4106000D02*
X-152280Y4139280D01*
G01X8000Y4233000D02*
X-55500Y4296500D01*
G01X8000Y4106000D02*
X-55500Y4169500D01*
G01X-119000Y4741000D02*
X-177800Y4799800D01*
G01X8000Y4487000D02*
X-55880Y4550880D01*
Y4551680D01*
G01X8000Y4614000D02*
X-53340Y4675340D01*
Y4676140D01*
G01X-119000Y4868000D02*
X-177800Y4926800D01*
G01X8000Y4868000D02*
X-53340Y4929340D01*
G01X8000Y4995000D02*
X-53340Y5056340D01*
G01X8000Y5376000D02*
X-55880Y5439880D01*
Y5440680D01*
G01X-53340Y5565140D02*
X-32730Y5544530D01*
X-32060Y5543060D01*
X8000Y5503000D01*
G01X516000Y1820000D02*
X452500Y1756500D01*
G01X389000Y1947000D02*
Y1820000D01*
G01X516000Y1947000D02*
X452500Y1883500D01*
G01X389000Y3471000D02*
X325500Y3534500D01*
G01X389000Y3598000D02*
X325500Y3661500D01*
G01X389000Y3979000D02*
Y3982340D01*
X327660Y4043680D01*
G01X453860Y4425660D02*
X454660D01*
X516000Y4487000D01*
G01X453000Y4297000D02*
X389000Y4233000D01*
G01X329500Y4300500D02*
X389000Y4360000D01*
G01X580680Y4423880D02*
X579880D01*
X516000Y4360000D01*
G54D34*
X-2990000Y4070000D03*
Y5030000D03*
X-106500Y434500D03*
X198500Y5872500D03*
G54D25*
X-3994000Y5715000D03*
Y5650000D03*
Y6040000D03*
Y5975000D03*
Y5910000D03*
Y5845000D03*
Y5780000D03*
X-3400000Y5650000D03*
Y5715000D03*
Y5780000D03*
Y5845000D03*
Y5910000D03*
Y5975000D03*
Y6040000D03*
X-1439200Y4861500D03*
Y4796500D03*
Y4731500D03*
Y5186500D03*
Y5121500D03*
Y5056500D03*
Y4991500D03*
Y4926500D03*
X-845200Y4731500D03*
Y4796500D03*
Y4861500D03*
Y5186500D03*
Y4926500D03*
Y4991500D03*
Y5056500D03*
Y5121500D03*
G54D16*
X-5215000Y1020000D03*
X-5125000D03*
Y1460000D03*
X-5215000D03*
Y1120000D03*
X-5125000D03*
Y1560000D03*
X-5215000D03*
X-5465000Y2300000D03*
X-5375000D03*
X-5465000Y2400000D03*
X-5375000D03*
X-5450000Y2725000D03*
X-5350000D03*
X-5450000Y2815000D03*
X-5350000D03*
X-4680000Y755000D03*
Y845000D03*
X-4490000Y755000D03*
Y845000D03*
X-4545000Y650000D03*
X-4635000D03*
X-4565000Y1610000D03*
X-4475000D03*
X-4380000Y2495000D03*
Y2585000D03*
X-3840000Y1305000D03*
Y1215000D03*
Y1465000D03*
X-3955000Y1850000D03*
X-4045000D03*
X-3840000Y1555000D03*
X-3820000Y2235000D03*
Y2325000D03*
X-3601000Y-95100D03*
X-3511000D03*
X-3645000Y90000D03*
X-3555000D03*
X-3385100Y-95100D03*
X-3645000Y190000D03*
X-3555000D03*
X-3405000Y660000D03*
X-3495000D03*
X-3763100Y660400D03*
X-3673100D03*
X-3365500Y3168100D03*
X-3385000Y2870000D03*
X-3365500Y3258100D03*
X-3170000Y35000D03*
Y-55000D03*
Y155000D03*
X-3295100Y-95100D03*
X-3010000Y35000D03*
Y-55000D03*
X-3136900Y615400D03*
X-3009900D03*
X-3054900Y190500D03*
X-2964900D03*
X-3170000Y245000D03*
X-3136900Y705400D03*
X-3009900D03*
X-3295000Y2870000D03*
X-2755900Y615400D03*
X-2882900D03*
X-2755900Y705400D03*
X-2882900D03*
X-2135000Y1920000D03*
X-2225000D03*
X-2145000Y2730000D03*
X-2235000D03*
X-2340000Y2635000D03*
Y2725000D03*
X-2210000Y5125000D03*
Y5215000D03*
X-1770000Y1195000D03*
Y1285000D03*
X-1660000Y3455000D03*
Y3365000D03*
X-1900000Y3775000D03*
Y3685000D03*
X-1755000Y3630000D03*
X-1665000D03*
X-1900000Y4025000D03*
Y4115000D03*
X-1910000Y5125000D03*
Y5215000D03*
X-2060000Y5125000D03*
Y5215000D03*
X-1330000Y3455000D03*
Y3365000D03*
X-1440000Y3455000D03*
Y3365000D03*
X-1550000Y3455000D03*
Y3365000D03*
X-1015000Y1680000D03*
X-925000D03*
X-960000Y2445000D03*
Y2535000D03*
Y2735000D03*
Y2645000D03*
X-1095000Y3010000D03*
X-1185000D03*
Y3120000D03*
X-1095000D03*
X-1205000Y3320000D03*
X-1115000D03*
X-964100Y3941000D03*
Y3737800D03*
Y3827800D03*
Y4031000D03*
X-855000Y5825000D03*
X-960000Y5740000D03*
Y5830000D03*
X-1060000Y5740000D03*
Y5830000D03*
X-960000Y6325000D03*
Y6415000D03*
X-855000Y6410000D03*
X-1060000Y6325000D03*
Y6415000D03*
X-765000Y5825000D03*
Y6410000D03*
G54D43*
X-1250000Y4395000D03*
Y4585000D03*
Y4490000D03*
X-980000Y1825000D03*
Y2015000D03*
Y1920000D03*
X-990000Y4395000D03*
Y4490000D03*
Y4585000D03*
X-720000Y1825000D03*
Y1920000D03*
Y2015000D03*
G54D35*
X-3090000Y3835600D03*
G54D17*
X-5030000Y2296000D03*
Y2550000D03*
Y2804000D03*
X-4710000Y130000D03*
X-4964000D03*
X-4710000Y470000D03*
X-4964000D03*
X-4680000Y2296000D03*
Y2550000D03*
Y2804000D03*
X-4456000Y130000D03*
Y470000D03*
X-3840000D03*
X-4094000D03*
X-4020900Y1387600D03*
Y1133600D03*
Y1641600D03*
X-3586000Y470000D03*
X-1277000Y-110000D03*
X-1531000D03*
X-1023000D03*
X-769000D03*
X-710000Y2276000D03*
Y2530000D03*
Y2784000D03*
Y3950000D03*
Y3696000D03*
Y4204000D03*
G54D44*
X-1130500Y705000D03*
X-1003500D03*
X-876500D03*
Y1235000D03*
X-1003500D03*
X-1130500D03*
X-749500Y705000D03*
Y1235000D03*
G54D26*
X-3430500Y41200D03*
Y251200D03*
X-3365500Y41200D03*
X-3300500D03*
Y251200D03*
X-3365500D03*
X-835000Y5720000D03*
Y5510000D03*
Y6095000D03*
Y6305000D03*
X-705000Y5720000D03*
X-770000D03*
Y5510000D03*
X-705000D03*
X-770000Y6095000D03*
X-705000D03*
Y6305000D03*
X-770000D03*
G54D36*
X-2130000Y710000D03*
X-2410000D03*
X-1850000D03*
G54D27*
X-3519400Y946700D03*
X-3469400D03*
X-3419400D03*
Y1636700D03*
X-3469400D03*
X-3519400D03*
X-3369400Y946700D03*
X-3319400D03*
X-3269400D03*
X-3219400D03*
X-3169400D03*
X-3119400D03*
X-3069400D03*
X-3019400D03*
Y1636700D03*
X-3069400D03*
X-3119400D03*
X-3169400D03*
X-3219400D03*
X-3269400D03*
X-3319400D03*
X-3369400D03*
G54D45*
X-373000Y677000D03*
Y804000D03*
Y931000D03*
X-246000Y677000D03*
Y804000D03*
Y931000D03*
X-119000Y677000D03*
Y804000D03*
Y931000D03*
X8000Y677000D03*
Y804000D03*
Y931000D03*
X-373000Y1058000D03*
Y1185000D03*
Y1312000D03*
Y1439000D03*
X-246000Y1058000D03*
Y1185000D03*
Y1312000D03*
Y1439000D03*
X-119000Y1058000D03*
Y1185000D03*
Y1312000D03*
Y1439000D03*
X8000Y1058000D03*
Y1185000D03*
Y1312000D03*
Y1439000D03*
X-373000Y1566000D03*
Y1693000D03*
Y1820000D03*
X-246000Y1566000D03*
Y1693000D03*
Y1820000D03*
X-119000Y1566000D03*
Y1693000D03*
Y1820000D03*
X8000Y1566000D03*
Y1693000D03*
Y1820000D03*
X-373000Y1947000D03*
Y2074000D03*
Y2201000D03*
X-246000Y1947000D03*
Y2074000D03*
Y2201000D03*
X-119000Y1947000D03*
Y2074000D03*
Y2201000D03*
X8000Y1947000D03*
Y2074000D03*
Y2201000D03*
X-373000Y2328000D03*
Y2455000D03*
Y2582000D03*
Y2709000D03*
X-246000Y2328000D03*
Y2455000D03*
Y2582000D03*
Y2709000D03*
X-119000Y2328000D03*
Y2455000D03*
Y2582000D03*
Y2709000D03*
X8000Y2328000D03*
Y2455000D03*
Y2582000D03*
Y2709000D03*
X-373000Y2836000D03*
Y2963000D03*
Y3090000D03*
X-246000Y2836000D03*
Y2963000D03*
Y3090000D03*
X-119000Y2836000D03*
Y2963000D03*
Y3090000D03*
X8000Y2836000D03*
Y2963000D03*
Y3090000D03*
X-373000Y3217000D03*
Y3344000D03*
Y3471000D03*
Y3598000D03*
X-246000Y3217000D03*
Y3344000D03*
Y3471000D03*
Y3598000D03*
X-119000Y3217000D03*
Y3344000D03*
Y3471000D03*
Y3598000D03*
X8000Y3217000D03*
Y3344000D03*
Y3471000D03*
Y3598000D03*
X-373000Y3725000D03*
Y3852000D03*
Y3979000D03*
X-246000Y3725000D03*
Y3852000D03*
Y3979000D03*
X-119000Y3725000D03*
Y3852000D03*
Y3979000D03*
X8000Y3725000D03*
Y3852000D03*
Y3979000D03*
X-373000Y4106000D03*
Y4233000D03*
Y4360000D03*
X-246000Y4106000D03*
Y4233000D03*
Y4360000D03*
X-119000Y4106000D03*
Y4233000D03*
Y4360000D03*
X8000Y4106000D03*
Y4233000D03*
Y4360000D03*
X-373000Y4487000D03*
Y4614000D03*
Y4741000D03*
Y4868000D03*
X-246000Y4487000D03*
Y4614000D03*
Y4741000D03*
Y4868000D03*
X-119000Y4487000D03*
Y4614000D03*
Y4741000D03*
Y4868000D03*
X8000Y4487000D03*
Y4614000D03*
Y4741000D03*
Y4868000D03*
X-373000Y4995000D03*
Y5122000D03*
X-246000Y4995000D03*
Y5122000D03*
Y5249000D03*
X-119000Y4995000D03*
Y5122000D03*
Y5249000D03*
X8000Y4995000D03*
Y5122000D03*
Y5249000D03*
X-373000Y5376000D03*
Y5503000D03*
Y5630000D03*
X-246000Y5376000D03*
Y5503000D03*
Y5630000D03*
X-119000Y5376000D03*
Y5503000D03*
Y5630000D03*
X8000Y5376000D03*
Y5503000D03*
Y5630000D03*
X135000Y677000D03*
Y804000D03*
Y931000D03*
X262000Y677000D03*
Y804000D03*
Y931000D03*
X389000Y677000D03*
Y804000D03*
Y931000D03*
X135000Y1058000D03*
Y1185000D03*
Y1312000D03*
Y1439000D03*
X262000Y1058000D03*
Y1185000D03*
Y1312000D03*
Y1439000D03*
X389000Y1058000D03*
Y1185000D03*
Y1312000D03*
Y1439000D03*
X135000Y1566000D03*
Y1693000D03*
Y1820000D03*
X262000Y1566000D03*
Y1693000D03*
Y1820000D03*
X389000Y1566000D03*
Y1693000D03*
Y1820000D03*
X135000Y1947000D03*
Y2074000D03*
Y2201000D03*
X262000Y1947000D03*
Y2074000D03*
Y2201000D03*
X389000Y1947000D03*
Y2074000D03*
Y2201000D03*
X135000Y2328000D03*
Y2455000D03*
Y2582000D03*
Y2709000D03*
X262000Y2328000D03*
Y2455000D03*
Y2582000D03*
Y2709000D03*
X389000Y2328000D03*
Y2455000D03*
Y2582000D03*
Y2709000D03*
X135000Y2836000D03*
Y2963000D03*
Y3090000D03*
X262000Y2836000D03*
Y2963000D03*
Y3090000D03*
X389000Y2836000D03*
Y2963000D03*
Y3090000D03*
X135000Y3217000D03*
Y3344000D03*
Y3471000D03*
Y3598000D03*
X262000Y3217000D03*
Y3344000D03*
Y3471000D03*
Y3598000D03*
X389000Y3217000D03*
Y3344000D03*
Y3471000D03*
Y3598000D03*
X135000Y3725000D03*
Y3852000D03*
Y3979000D03*
X262000Y3725000D03*
Y3852000D03*
Y3979000D03*
X389000Y3725000D03*
Y3852000D03*
Y3979000D03*
X135000Y4106000D03*
Y4233000D03*
Y4360000D03*
X262000Y4106000D03*
Y4233000D03*
Y4360000D03*
X389000Y4106000D03*
Y4233000D03*
Y4360000D03*
X135000Y4487000D03*
Y4614000D03*
Y4741000D03*
Y4868000D03*
X262000Y4487000D03*
Y4614000D03*
Y4741000D03*
Y4868000D03*
X389000Y4487000D03*
Y4614000D03*
Y4741000D03*
Y4868000D03*
X135000Y4995000D03*
Y5122000D03*
Y5249000D03*
X262000Y4995000D03*
Y5122000D03*
Y5249000D03*
X389000Y4995000D03*
Y5122000D03*
Y5249000D03*
X135000Y5376000D03*
Y5503000D03*
Y5630000D03*
X262000Y5376000D03*
Y5503000D03*
Y5630000D03*
X389000Y5376000D03*
Y5503000D03*
Y5630000D03*
X516000Y677000D03*
Y804000D03*
Y931000D03*
X643000Y677000D03*
Y804000D03*
Y931000D03*
X770000Y677000D03*
Y804000D03*
Y931000D03*
X516000Y1058000D03*
Y1185000D03*
Y1312000D03*
Y1439000D03*
X643000Y1058000D03*
Y1185000D03*
Y1312000D03*
Y1439000D03*
X770000Y1058000D03*
Y1185000D03*
Y1312000D03*
Y1439000D03*
X516000Y1566000D03*
Y1693000D03*
Y1820000D03*
X643000Y1566000D03*
Y1693000D03*
Y1820000D03*
X770000Y1566000D03*
Y1693000D03*
Y1820000D03*
X516000Y1947000D03*
Y2074000D03*
Y2201000D03*
X643000Y1947000D03*
Y2074000D03*
Y2201000D03*
X770000Y1947000D03*
Y2074000D03*
Y2201000D03*
X516000Y2328000D03*
Y2455000D03*
Y2582000D03*
Y2709000D03*
X643000Y2328000D03*
Y2455000D03*
Y2582000D03*
Y2709000D03*
X770000Y2328000D03*
Y2455000D03*
Y2582000D03*
Y2709000D03*
X516000Y2836000D03*
Y2963000D03*
Y3090000D03*
X643000Y2836000D03*
Y2963000D03*
Y3090000D03*
X770000Y2836000D03*
Y2963000D03*
Y3090000D03*
X516000Y3217000D03*
Y3344000D03*
Y3471000D03*
Y3598000D03*
X643000Y3217000D03*
Y3344000D03*
Y3471000D03*
Y3598000D03*
X770000Y3217000D03*
Y3344000D03*
Y3471000D03*
Y3598000D03*
X516000Y3725000D03*
Y3852000D03*
Y3979000D03*
X643000Y3725000D03*
Y3852000D03*
Y3979000D03*
X770000Y3725000D03*
Y3852000D03*
Y3979000D03*
X516000Y4106000D03*
Y4233000D03*
Y4360000D03*
X643000Y4106000D03*
Y4233000D03*
Y4360000D03*
X770000Y4106000D03*
Y4233000D03*
Y4360000D03*
X516000Y4487000D03*
Y4614000D03*
Y4741000D03*
Y4868000D03*
X643000Y4487000D03*
Y4614000D03*
Y4741000D03*
Y4868000D03*
X770000Y4487000D03*
Y4614000D03*
Y4741000D03*
Y4868000D03*
X516000Y4995000D03*
Y5122000D03*
Y5249000D03*
X643000Y4995000D03*
Y5122000D03*
Y5249000D03*
X770000Y4995000D03*
Y5122000D03*
Y5249000D03*
X516000Y5376000D03*
Y5503000D03*
Y5630000D03*
X643000Y5376000D03*
Y5503000D03*
Y5630000D03*
X770000Y5376000D03*
Y5503000D03*
Y5630000D03*
G54D18*
X-4205000Y2280000D03*
X-4415000Y5910000D03*
X-4265000D03*
X-4055000Y2280000D03*
X-3025000Y5650000D03*
X-3175000D03*
X-3025000Y6230000D03*
X-3175000D03*
G54D46*
G01X938100Y-157170D02*
X945100Y-147830D01*
X951100Y-142500D01*
X959100Y-139830D01*
X966100Y-142500D01*
X971100Y-147830D01*
X975100Y-155830D01*
X976100Y-165170D01*
X975100Y-173170D01*
X971100Y-181170D01*
X965100Y-187830D01*
X958100Y-190500D01*
X950100Y-187830D01*
X943100Y-179840D01*
X939100Y-167830D01*
X938100Y-154500D01*
X940100Y-137170D01*
X943100Y-127830D01*
X948100Y-118500D01*
X955100Y-111830D01*
X962100Y-110500D01*
X969100Y-113170D01*
X974100Y-119830D01*
G54D37*
X-2200000Y4850000D03*
X-2135000D03*
Y5028000D03*
X-2200000D03*
X-2070000Y4850000D03*
Y5028000D03*
G54D28*
X-3269400Y1291700D03*
G54D19*
X-4400000Y3080000D03*
Y3260000D03*
G54D47*
G01X-5720000Y2200000D02*
X-5880200D01*
G01X-5720000Y1900000D02*
X-5880200D01*
G01X-5720000Y2650000D02*
X-5880200D01*
G01X-5720000Y2500000D02*
X-5880200D01*
G01X-5720000Y2350000D02*
X-5880200D01*
G01X-4475000Y1610000D02*
X-4390000D01*
G01X-4565000D02*
X-4650000D01*
G01X-4380000Y2585000D02*
Y2670000D01*
G01Y2495000D02*
Y2410000D01*
G01X-4400000Y3080000D02*
Y2965000D01*
G01Y3260000D02*
Y3375000D01*
G01X-4045000Y1850000D02*
X-4130000D01*
G01X-3955000D02*
X-3870000D01*
G01X-3920000Y2230000D02*
X-3825000D01*
X-3820000Y2235000D01*
G01X-4050800Y2657600D02*
X-4136900D01*
X-4165600Y2628900D01*
G01X-3780800Y2537600D02*
Y2459200D01*
X-3810000Y2430000D01*
G01D02*
X-3743190D01*
X-3680800Y2492390D01*
Y2537600D01*
G01X-4050800Y2607600D02*
X-4078300D01*
X-4135900Y2550000D01*
X-4160000D01*
G01X-3830800Y2537600D02*
Y2586200D01*
X-3911600Y2667000D01*
G01X-4050800Y2957600D02*
X-4140000D01*
G01X-4050800Y2907600D02*
X-3936300D01*
X-3924300Y2895600D01*
G01X-3858400Y3442200D02*
Y3566300D01*
G01X-3994000Y6040000D02*
X-3595200D01*
X-3590000Y6045200D01*
G01X-3511000Y-95100D02*
Y-29000D01*
X-3540000Y0D01*
G01X-3385100Y-95100D02*
X-3365500Y-75500D01*
Y41200D01*
G01X-3511000Y-95100D02*
X-3385100D01*
G01X-3601000D02*
X-3695700D01*
G01X-3614400Y1391700D02*
X-3658400D01*
Y1441700D01*
G01D02*
X-3614400D01*
G01X-3658400D02*
X-3754400D01*
X-3766100Y1430000D01*
G01X-3540000Y2225000D02*
X-3660000D01*
G01X-3560800Y2607600D02*
Y2657600D01*
G01D02*
Y2707600D01*
G01X-3730800Y2537600D02*
Y2631900D01*
X-3695700Y2667000D01*
G01X-3560800Y2707600D02*
X-3655100D01*
X-3695700Y2667000D01*
G01X-3560800Y2957600D02*
X-3517800D01*
G01D02*
Y2907600D01*
X-3560800D01*
G01X-3365500Y3168100D02*
X-3467800Y3065800D01*
Y2957600D01*
X-3517800D01*
G01X-3630800Y3027600D02*
Y3074200D01*
G01D02*
X-3680800D01*
Y3027600D01*
G01X-3556000Y3124200D02*
X-3630800D01*
Y3074200D01*
G01X-3730800Y3027600D02*
Y2930700D01*
X-3695700Y2895600D01*
G01X-3400000Y4210000D02*
X-3470000D01*
X-3523700Y4156300D01*
X-3581400D01*
G01X-3607040Y4894030D02*
X-3542530D01*
X-3506560Y4930000D01*
X-3400000D01*
G01Y5560000D02*
Y5650000D01*
G01X-3090000Y-55000D02*
X-3170000D01*
G01X-3010000D02*
X-2930000D01*
G01X-3365500Y251200D02*
Y344500D01*
X-3350000Y360000D01*
G01X-3019400Y946700D02*
X-2960000Y887300D01*
Y830000D01*
G01X-3136900Y615400D02*
X-3220000D01*
G01X-3319400Y946700D02*
Y699400D01*
X-3280000Y660000D01*
G01X-3227300Y712700D02*
X-3269400Y754800D01*
Y946700D01*
G01X-3219400Y1636700D02*
Y1795650D01*
X-3211610Y1803440D01*
G01X-3018150Y1738160D02*
X-3069400Y1686910D01*
Y1636700D01*
G01X-2970900Y3230300D02*
X-3011100D01*
X-3040000Y3201400D01*
Y3130000D01*
G01X-3295000Y2870000D02*
X-3220000D01*
G01X-2970900Y3520300D02*
Y3605900D01*
X-3009900Y3644900D01*
G01X-3365500Y3168100D02*
X-3269700D01*
G01X-3365500Y3258100D02*
Y3352800D01*
G01X-2882900Y615400D02*
Y520700D01*
G01X-2755900Y615400D02*
Y520700D01*
G01X-2882900Y705400D02*
Y800100D01*
G01X-2755900Y705400D02*
Y800100D01*
G01X-2580000Y820000D02*
X-2851700Y1091700D01*
X-2924400D01*
G01X-2730000Y1241700D02*
X-2924400D01*
G01X-2693150Y1403150D02*
X-2704600Y1391700D01*
X-2924400D01*
G01X-2790000Y1550000D02*
X-2798300Y1541700D01*
X-2924400D01*
G01X-2700000Y1920000D02*
X-2565000Y2055000D01*
X-2485000D01*
G01X-2470000Y2430000D02*
X-2525000Y2485000D01*
Y2525000D01*
G01X-2730000Y2430000D02*
X-2675000Y2485000D01*
Y2525000D01*
G01X-2575000D02*
Y2427500D01*
G01X-2625000Y2525000D02*
Y2437260D01*
X-2701970Y2360290D01*
G01X-2470000Y2910000D02*
X-2525000Y2855000D01*
Y2815000D01*
G01X-2740000Y2910000D02*
X-2675000Y2845000D01*
Y2815000D01*
G01X-2760000Y3130000D02*
Y3169400D01*
X-2820900Y3230300D01*
G01X-2575000Y2815000D02*
Y2912500D01*
G01X-2649570Y2910440D02*
X-2625000Y2885870D01*
Y2815000D01*
G01X-2820900Y3520300D02*
Y3605300D01*
X-2781300Y3644900D01*
G01X-2920900Y3230300D02*
Y3350300D01*
X-2895900Y3375300D01*
G01X-2870900Y3230300D02*
Y3350300D01*
X-2895900Y3375300D01*
G01X-2920900Y3520300D02*
Y3400300D01*
X-2895900Y3375300D01*
G01X-2870900Y3520300D02*
Y3400300D01*
X-2895900Y3375300D01*
G01X-2870900Y3520300D02*
Y3620200D01*
X-2895600Y3644900D01*
G01X-2580000Y4170000D02*
X-2705100D01*
X-2722200Y4187100D01*
Y4404190D01*
G01D02*
X-2585810D01*
X-2580000Y4410000D01*
G01X-2722200Y4404190D02*
X-2740490D01*
X-2781300Y4445000D01*
G01Y4890000D02*
Y4724400D01*
X-2706900Y4650000D01*
X-2580000D01*
G01Y4890000D02*
X-2781300D01*
G01X-2400000Y1950000D02*
Y1975000D01*
X-2430000Y2005000D01*
X-2485000D01*
G01X-2050000Y1920000D02*
X-2135000D01*
G01X-2145000Y2730000D02*
X-2085000Y2670000D01*
G01X-2130000Y4770000D02*
X-2135000Y4775000D01*
Y4850000D01*
G01X-2137300Y5102450D02*
X-2135000Y5100150D01*
Y5028000D01*
G01X-2270000Y5758200D02*
X-2270800Y5759000D01*
X-2410000D01*
G01Y6140000D02*
X-2240000D01*
G01X-1770000Y1285000D02*
Y1370000D01*
G01Y1195000D02*
Y1100000D01*
G01X-1755000Y3630000D02*
Y3540000D01*
G01X-1598500Y3996300D02*
X-1723700D01*
G01X-1940000Y3590000D02*
Y3645000D01*
X-1900000Y3685000D01*
G01X-1810000Y4115000D02*
X-1900000D01*
G01X-1910000Y5125000D02*
X-1972700D01*
G01X-1130500Y705000D02*
X-1260000D01*
G01X-1480000Y3070000D02*
X-1430000Y3120000D01*
G01X-1480000Y3070000D02*
X-1530000Y3020000D01*
G01X-1480000Y3070000D02*
X-1430000Y3020000D01*
G01X-1530000Y3120000D02*
X-1480000Y3070000D01*
G01X-1555000Y3220000D02*
Y3145000D01*
X-1530000Y3120000D01*
G01X-1555000Y3220000D02*
X-1630000D01*
G01X-1660000Y3455000D02*
Y3540000D01*
G01X-1330000Y3455000D02*
X-1267500Y3517500D01*
G01X-1405000Y3220000D02*
X-1330000D01*
G01D02*
X-1230000Y3320000D01*
X-1205000D01*
G01X-1370000Y4395000D02*
X-1250000D01*
G01X-1439200Y4731500D02*
Y4660000D01*
G01X-1250000Y4490000D02*
X-1350000D01*
X-1370000Y4470000D01*
G01X-1439200Y5186500D02*
X-1284700D01*
G01X-1003500Y705000D02*
Y551100D01*
X-1002400Y550000D01*
G01X-925000Y1680000D02*
X-840000D01*
G01X-980000Y1920000D02*
X-1092500D01*
G01X-850000D02*
X-720000D01*
G01X-960000Y2445000D02*
X-1070000D01*
G01X-1080000Y2680000D02*
Y2700000D01*
X-1045000Y2735000D01*
X-960000D01*
G01X-1095000Y3120000D02*
X-1010000D01*
G01X-1095000Y3010000D02*
X-1010000D01*
G01X-1046050Y3272500D02*
X-1067500D01*
X-1115000Y3320000D01*
G01X-1120000Y3680000D02*
Y3762800D01*
X-1158500Y3801300D01*
G01X-964100Y3737800D02*
Y3650000D01*
G01Y4031000D02*
Y4110000D01*
G01X-845200Y4796500D02*
X-1050000D01*
G01X-845200Y4861500D02*
X-969200D01*
X-1000000Y4892300D01*
Y4950000D01*
G01X-990000Y4490000D02*
X-1040000D01*
X-1110000Y4560000D01*
G01X-845200Y5186500D02*
X-771300D01*
X-766500Y5181700D01*
X-685060D01*
X-653970Y5150610D01*
X-610610D01*
X-600000Y5140000D01*
G01X-960000Y5830000D02*
Y5902700D01*
G01X-1060000Y5830000D02*
Y5902700D01*
G01X-960000Y6415000D02*
Y6490000D01*
G01X-1060000Y6415000D02*
Y6490000D01*
G01X-373000Y804000D02*
X-436500Y740500D01*
G01X-373000Y1566000D02*
X-436500Y1629500D01*
G01X-373000Y1947000D02*
X-436500Y1883500D01*
G01X-373000Y2709000D02*
X-436500Y2645500D01*
G01X-373000Y2328000D02*
X-437500Y2392500D01*
G01X-373000Y3090000D02*
X-436500Y3153500D01*
G01X-373000Y3471000D02*
X-436500Y3407500D01*
G01X-373000Y3852000D02*
X-436500Y3915500D01*
G01X-373000Y4614000D02*
X-482600D01*
G01X-413400Y5059160D02*
X-373000Y5018760D01*
Y4995000D01*
G01Y5503000D02*
X-436500Y5566500D01*
G01X-770000Y5510000D02*
Y5615000D01*
G01X-765000Y5825000D02*
X-770000Y5820000D01*
Y5720000D01*
G01X-680000Y5825000D02*
X-765000D01*
G01X-770000Y6095000D02*
Y6200000D01*
G01X-765000Y6410000D02*
X-770000Y6405000D01*
Y6305000D01*
G01X-620000Y6410000D02*
X-765000D01*
G01X8000Y677000D02*
X-55500Y613500D01*
G01X-119000Y804000D02*
X-182500Y740500D01*
G01X-246000Y677000D02*
X-309500Y613500D01*
G01X8000Y931000D02*
X-55500Y867500D01*
G01X-246000Y931000D02*
X-309500Y867500D01*
G01X-119000Y1185000D02*
X-182500Y1121500D01*
G01X-246000Y1312000D02*
X-309500Y1248500D01*
G01X8000Y1312000D02*
X-55500Y1248500D01*
G01X-373000Y1185000D02*
X-309000Y1121000D01*
G01X-246000Y1693000D02*
X-309500Y1629500D01*
G01X-119000Y1947000D02*
X-182500Y1883500D01*
G01X-119000Y1566000D02*
X-182500Y1629500D01*
G01X8000Y1693000D02*
X-52500Y1632500D01*
G01X8000Y2074000D02*
X-59000Y2141000D01*
G01X-246000Y2074000D02*
X-311000Y2139000D01*
G01X-246000Y2455000D02*
X-309500Y2391500D01*
G01X-119000Y2328000D02*
X-182500Y2391500D01*
G01X8000Y2455000D02*
X-55500Y2391500D01*
G01X-119000Y2709000D02*
X-182500Y2645500D01*
G01X-246000Y2836000D02*
X-309500Y2899500D01*
G01X-119000Y3090000D02*
X-182500Y3153500D01*
G01X8000Y2836000D02*
X77000Y2767000D01*
G01X-119000Y3471000D02*
X8000Y3598000D01*
G01Y3217000D02*
X71500Y3280500D01*
G01X-246000Y3217000D02*
X-299000Y3270000D01*
G01X-246000Y3598000D02*
X-309500Y3661500D01*
G01X-119000Y3852000D02*
X-182500Y3915500D01*
G01X8000Y3598000D02*
X-55500Y3661500D01*
G01X-246000Y3979000D02*
X-309500Y3915500D01*
G01X8000Y3979000D02*
X-55500Y3915500D01*
G01X-373000Y4233000D02*
X-309500Y4296500D01*
G01X-246000Y4360000D02*
X-309500Y4296500D01*
G01X-119000Y4233000D02*
X-182500Y4296500D01*
G01X8000Y4360000D02*
X-51000Y4419000D01*
G01X8000Y4741000D02*
X-55500Y4804500D01*
G01X-119000Y4614000D02*
X-182500Y4550500D01*
G01X-246000Y4741000D02*
X-309500Y4804500D01*
G01X-119000Y4995000D02*
X-182500Y5058500D01*
G01X-246000Y5122000D02*
X-309500Y5058500D01*
G01X8000Y5249000D02*
X-55500Y5312500D01*
G01X8000Y5122000D02*
X71500Y5185500D01*
G01X-246000Y5249000D02*
X-319000D01*
G01X8000Y5630000D02*
X-55500Y5693500D01*
G01X-246000Y5630000D02*
X-309500Y5693500D01*
G01X-119000Y5376000D02*
X-182500Y5439500D01*
G01X-119000Y5503000D02*
X-181200Y5565200D01*
Y5688800D01*
X-180000Y5690000D01*
G01X-373000Y5376000D02*
X-319000Y5430000D01*
X-310000D01*
G01X389000Y677000D02*
X325500Y613500D01*
G01X389000Y931000D02*
X325500Y867500D01*
G01X516000Y804000D02*
X452500Y740500D01*
G01X516000Y1058000D02*
X452500Y994500D01*
G01X516000Y677000D02*
X452500Y613500D01*
G01X389000Y1058000D02*
X325500Y994500D01*
G01X389000Y804000D02*
X325500Y740500D01*
G01X262000Y677000D02*
X198500Y613500D01*
G01X262000Y931000D02*
X198500Y867500D01*
G01X516000Y931000D02*
X452500Y867500D01*
G01X135000Y804000D02*
X199500Y739500D01*
G01X389000Y1185000D02*
X325500Y1121500D01*
G01X516000Y1312000D02*
X452500Y1248500D01*
G01X516000Y1185000D02*
X452500Y1121500D01*
G01X262000Y1312000D02*
X198500Y1248500D01*
G01X135000Y1185000D02*
X195000Y1125000D01*
G01X452500Y1629500D02*
X516000Y1693000D01*
G01Y1566000D02*
X452500Y1629500D01*
G01X135000Y1566000D02*
X198500Y1629500D01*
G01X262000Y1693000D02*
X198500Y1629500D01*
G01X389000Y1693000D02*
X325500Y1629500D01*
G01X516000Y2074000D02*
X452500Y2010500D01*
G01X389000Y2201000D02*
X325500Y2137500D01*
G01X516000Y2201000D02*
X452500Y2137500D01*
G01X323000Y2013000D02*
X262000Y2074000D01*
G01X135000Y1947000D02*
X200000Y2012000D01*
G01X135000Y2328000D02*
X193000Y2270000D01*
X200000D01*
G01X516000Y2582000D02*
X452500Y2518500D01*
G01X389000Y2582000D02*
X325500Y2518500D01*
G01X516000Y2709000D02*
X452500Y2645500D01*
G01X135000Y2709000D02*
X71500Y2645500D01*
G01X262000Y2455000D02*
X328500Y2388500D01*
G01X389000Y2963000D02*
X325500Y3026500D01*
G01X262000Y3217000D02*
X325500Y3153500D01*
G01X262000Y2836000D02*
X329000Y2769000D01*
G01X77500Y3147500D02*
X135000Y3090000D01*
G01X389000Y3344000D02*
X325500Y3407500D01*
G01X516000Y3090000D02*
X452500Y3153500D01*
G01X516000Y3217000D02*
X452500Y3280500D01*
G01X135000Y3471000D02*
X198000Y3408000D01*
G01X262000Y3598000D02*
X198500Y3661500D01*
G01X389000Y3725000D02*
X325000Y3789000D01*
Y3790000D01*
G01X135000Y3852000D02*
X201500Y3918500D01*
G01X262000Y3979000D02*
X325500Y3915500D01*
G01X389000Y4106000D02*
X452500Y4042500D01*
G01X516000Y4106000D02*
X452500Y4169500D01*
G01X262000Y4360000D02*
X198500Y4423500D01*
G01X135000Y4233000D02*
X198500Y4169500D01*
G01X389000Y4487000D02*
X325500Y4550500D01*
G01X262000Y4741000D02*
X325500Y4804500D01*
G01X135000Y4614000D02*
X200500Y4679500D01*
G01X389000Y4995000D02*
X325500Y5058500D01*
G01X389000Y4868000D02*
X325500Y4931500D01*
G01X135000Y4995000D02*
X70000Y5060000D01*
G01X262000Y5122000D02*
X325000Y5185000D01*
G01X262000Y5249000D02*
X326500Y5313500D01*
G01X389000Y5376000D02*
X325500Y5439500D01*
G01X389000Y5503000D02*
X327000Y5565000D01*
X325000D01*
G01X135000Y5503000D02*
X71500Y5566500D01*
G01X135000Y5376000D02*
X71500Y5439500D01*
G01X262000Y5630000D02*
X326000Y5694000D01*
G01X579500Y740500D02*
X643000Y804000D01*
G01X706500Y613500D02*
X770000Y677000D01*
G01X643000Y931000D02*
X579500Y867500D01*
G01X770000Y1058000D02*
X706500Y994500D01*
G01X579500Y1248500D02*
X643000Y1312000D01*
G01X770000Y1185000D02*
X706500Y1121500D01*
G01X643000Y1439000D02*
X579500Y1375500D01*
G01X770000Y1566000D02*
X706500Y1502500D01*
G01X770000Y1693000D02*
X706500Y1629500D01*
G01X579500Y1883500D02*
X643000Y1947000D01*
G01Y1820000D02*
X579500Y1756500D01*
G01X770000Y2074000D02*
X706500Y2010500D01*
G01X770000Y2201000D02*
X706500Y2137500D01*
G01X643000Y2328000D02*
X579500Y2264500D01*
G01X643000Y2455000D02*
X579500Y2391500D01*
G01X770000Y2582000D02*
X706500Y2518500D01*
G01X770000Y2709000D02*
X706500Y2645500D01*
G01X770000Y3090000D02*
X706500Y3153500D01*
G01X643000Y2963000D02*
X579500Y3026500D01*
G01X643000Y2836000D02*
X704500Y2774500D01*
G01X643000Y3471000D02*
X579500Y3534500D01*
G01X770000Y3217000D02*
X706500Y3280500D01*
G01X643000Y3344000D02*
X579500Y3407500D01*
G01X770000Y3598000D02*
X706500Y3661500D01*
G01X770000Y3725000D02*
X706500Y3788500D01*
G01X643000Y3852000D02*
X579500Y3915500D01*
G01X643000Y3979000D02*
X579500Y4042500D01*
G01X516000Y3598000D02*
X579000Y3661000D01*
G01X516000Y3725000D02*
X580500Y3789500D01*
G01X770000Y4233000D02*
X706500Y4296500D01*
G01Y4169500D02*
X770000Y4106000D01*
G01X643000Y4360000D02*
X579500Y4296500D01*
G01X516000Y4233000D02*
X579500Y4169500D01*
G01X770000Y4741000D02*
X706500Y4804500D01*
G01X579500Y4677500D02*
X516000Y4614000D01*
G01X770000D02*
X706500Y4550500D01*
G01D02*
X643000Y4487000D01*
G01X516000Y4741000D02*
X572500Y4797500D01*
G01X770000Y5122000D02*
X706500Y5185500D01*
G01X770000Y5249000D02*
X706500Y5312500D01*
G01X643000Y4868000D02*
X579500Y4931500D01*
G01X643000Y4995000D02*
X579500Y5058500D01*
G01X516000Y5122000D02*
X577000Y5183000D01*
G01X516000Y5249000D02*
X578500Y5311500D01*
G01X770000Y5630000D02*
X706500Y5693500D01*
G01X516000Y5630000D02*
X515000D01*
G01X643000Y5376000D02*
X579500Y5439500D01*
G01X643000Y5503000D02*
X579500Y5566500D01*
G01X577500Y5692500D02*
X515000Y5630000D01*
G54D29*
X-3614400Y1441700D03*
Y1391700D03*
Y1341700D03*
Y1291700D03*
Y1241700D03*
Y1191700D03*
Y1141700D03*
Y1091700D03*
Y1041700D03*
Y1541700D03*
Y1491700D03*
X-2924400Y1041700D03*
Y1091700D03*
Y1141700D03*
Y1191700D03*
Y1241700D03*
Y1291700D03*
Y1341700D03*
Y1391700D03*
Y1441700D03*
Y1491700D03*
Y1541700D03*
X-2175000Y2005000D03*
Y2055000D03*
Y2105000D03*
Y2155000D03*
X-2485000D03*
Y2105000D03*
Y2055000D03*
Y2005000D03*
G54D38*
X-2410000Y6140000D03*
Y6013000D03*
Y5886000D03*
Y5759000D03*
X-1840000D03*
Y5886000D03*
Y6013000D03*
Y6140000D03*
G54D48*
G01X-1439200Y4796500D02*
X-1150000D01*
G01Y4869200D02*
X-1157700Y4861500D01*
X-1439200D01*
G01X-820200Y1825000D02*
X-720000D01*
G01X-1092500Y1820000D02*
X-1087500Y1825000D01*
X-980000D01*
G01X-1015000Y1680000D02*
Y1790000D01*
X-980000Y1825000D01*
G01X-1015000Y1680000D02*
X-1090000D01*
G01X-1158500Y3996300D02*
X-1040000D01*
G01X-990000Y4322300D02*
Y4395000D01*
G01X-1000000Y4730000D02*
X-998500Y4731500D01*
X-845200D01*
G01X-640000Y1420000D02*
X-707700D01*
X-749500Y1378200D01*
Y1235000D01*
G01X-119000Y677000D02*
X-182500Y613500D01*
G01X8000Y804000D02*
X-55500Y740500D01*
G54D39*
X-1480000Y3070000D03*
G54D49*
G01X-4101500Y1489300D02*
X-4098000D01*
X-4090800Y1496500D01*
X-3970700D01*
X-3963500Y1489300D01*
X-3960000D01*
G01X-4101500Y1530700D02*
X-4098000D01*
X-4090800Y1523500D01*
X-3970700D01*
X-3963500Y1530700D01*
X-3960000D01*
M02*
