G04 ================== begin FILE IDENTIFICATION RECORD ==================*
G04 Layout Name:  pc053e_toplevel_66.brd*
G04 Film Name:    art_drill-1-4_pc053e*
G04 File Format:  Gerber RS274X*
G04 File Origin:  Cadence Allegro 17.4-S012*
G04 Origin Date:  Fri Apr 16 14:45:17 2021*
G04 *
G04 Layer:  BOARD GEOMETRY/DESIGN_OUTLINE*
G04 Layer:  MANUFACTURING/NCLEGEND-1-4*
G04 Layer:  DRAWING FORMAT/OUTLINE*
G04 Layer:  BOARD GEOMETRY/DIMENSION*
G04 Layer:  BOARD GEOMETRY/CART_TOP*
G04 *
G04 Offset:    (-315.1182 -288.1259)*
G04 Mirror:    No*
G04 Mode:      Positive*
G04 Rotation:  0*
G04 FullContactRelief:  No*
G04 UndefLineWidth:     0.2540*
G04 ================== end FILE IDENTIFICATION RECORD ====================*
%FSLAX25Y25*MOMM*%
%IR0*IPPOS*OFA-315.11820B-288.12590*MIA0B0*SFA1.00000B1.00000*%
%ADD10C,.1*%
%ADD11C,.12*%
%ADD12C,.001*%
%ADD13C,.254*%
G75*
%LPD*%
G75*
G36*
G01X-7792500Y-500000D02*
X-7830000Y-300000D01*
X-7867500Y-500000D01*
X-7792500D01*
G37*
G36*
G01X-7867500Y160000D02*
X-7830000Y-40000D01*
X-7792500Y160000D01*
X-7867500D01*
G37*
G36*
G01X-7382500Y-240000D02*
X-7420000Y-40000D01*
X-7457500Y-240000D01*
X-7382500D01*
G37*
G36*
G01X-7457500Y370000D02*
X-7420000Y170000D01*
X-7382500Y370000D01*
X-7457500D01*
G37*
G36*
G01X-7187500D02*
X-7150000Y170000D01*
X-7112500Y370000D01*
X-7187500D01*
G37*
G36*
G01X-7112500Y6070000D02*
X-7150000Y6270000D01*
X-7187500Y6070000D01*
X-7112500D01*
G37*
G36*
G01X-6360000Y-912500D02*
X-6560000Y-950000D01*
X-6360000Y-987500D01*
Y-912500D01*
G37*
G36*
G01X-6360010Y6837500D02*
X-6560010Y6800000D01*
X-6360010Y6762500D01*
Y6837500D01*
G37*
G36*
G01X-6360000Y7087500D02*
X-6560000Y7050000D01*
X-6360000Y7012500D01*
Y7087500D01*
G37*
G36*
G01X-5610000Y-987500D02*
X-5410000Y-950000D01*
X-5610000Y-912500D01*
Y-987500D01*
G37*
G36*
G01X-5538480Y-37070D02*
X-5439060Y140480D01*
X-5596040Y11010D01*
X-5538480Y-37070D01*
G37*
G36*
G01X-5210000Y-912500D02*
X-5410000Y-950000D01*
X-5210000Y-987500D01*
Y-912500D01*
G37*
G36*
G01X-4140000D02*
X-4340000Y-950000D01*
X-4140000Y-987500D01*
Y-912500D01*
G37*
G36*
G01X-4540000Y-987500D02*
X-4340000Y-950000D01*
X-4540000Y-912500D01*
Y-987500D01*
G37*
G36*
G01X-4494110Y-233050D02*
X-4359970Y-80040D01*
X-4540430Y-174070D01*
X-4494110Y-233050D01*
G37*
G36*
G01X-4031230Y6434140D02*
X-3870120Y6309850D01*
X-3975260Y6484070D01*
X-4031230Y6434140D01*
G37*
G36*
G01X-4050000Y6762500D02*
X-3850000Y6800000D01*
X-4050000Y6837500D01*
Y6762500D01*
G37*
G36*
G01X-3650000Y6837500D02*
X-3850000Y6800000D01*
X-3650000Y6762500D01*
Y6837500D01*
G37*
G36*
G01X200000Y-562500D02*
X0Y-600000D01*
X200000Y-637500D01*
Y-562500D01*
G37*
G36*
G01X890000Y-987500D02*
X1090000Y-950000D01*
X890000Y-912500D01*
Y-987500D01*
G37*
G36*
G01Y-637500D02*
X1090000Y-600000D01*
X890000Y-562500D01*
Y-637500D01*
G37*
G36*
G01Y6762500D02*
X1090000Y6800000D01*
X890000Y6837500D01*
Y6762500D01*
G37*
G36*
G01Y7012500D02*
X1090000Y7050000D01*
X890000Y7087500D01*
Y7012500D01*
G37*
G36*
G01X1437500Y-500000D02*
X1400000Y-300000D01*
X1362500Y-500000D01*
X1437500D01*
G37*
G36*
G01X1362500Y200000D02*
X1400000Y0D01*
X1437500Y200000D01*
X1362500D01*
G37*
G36*
G01X1712500Y-100000D02*
X1750000Y-300000D01*
X1787500Y-100000D01*
X1712500D01*
G37*
G36*
G01X1787500Y6400000D02*
X1750000Y6600000D01*
X1712500Y6400000D01*
X1787500D01*
G37*
G54D10*
G01X-7996000Y-183330D02*
X-7993000Y-178330D01*
X-7989500Y-175830D01*
X-7985500Y-175000D01*
X-7980500Y-176670D01*
X-7977000Y-180830D01*
X-7976000Y-185830D01*
X-7976500Y-190830D01*
X-7978500Y-195000D01*
X-7988500Y-203330D01*
X-7993000Y-209170D01*
X-7996000Y-217500D01*
X-7997000Y-225000D01*
X-7976000D01*
G01X-7951500Y-226670D02*
X-7952500Y-225830D01*
Y-224170D01*
X-7951500Y-223330D01*
X-7950500Y-224170D01*
Y-225830D01*
X-7951500Y-226670D01*
G01X-7926000Y-204170D02*
X-7922500Y-198330D01*
X-7919500Y-195000D01*
X-7915500Y-193330D01*
X-7912000Y-195000D01*
X-7909500Y-198330D01*
X-7907500Y-203330D01*
X-7907000Y-209170D01*
X-7907500Y-214170D01*
X-7909500Y-219170D01*
X-7912500Y-223330D01*
X-7916000Y-225000D01*
X-7920000Y-223330D01*
X-7923500Y-218330D01*
X-7925500Y-210830D01*
X-7926000Y-202500D01*
X-7925000Y-191670D01*
X-7923500Y-185830D01*
X-7921000Y-180000D01*
X-7917500Y-175830D01*
X-7914000Y-175000D01*
X-7910500Y-176670D01*
X-7908000Y-180830D01*
G01X-7586000Y36670D02*
X-7583000Y41670D01*
X-7579500Y44170D01*
X-7575500Y45000D01*
X-7570500Y43330D01*
X-7567000Y39170D01*
X-7566000Y34170D01*
X-7566500Y29170D01*
X-7568500Y25000D01*
X-7578500Y16670D01*
X-7583000Y10830D01*
X-7586000Y2500D01*
X-7587000Y-5000D01*
X-7566000D01*
G01X-7541500Y-6670D02*
X-7542500Y-5830D01*
Y-4170D01*
X-7541500Y-3330D01*
X-7540500Y-4170D01*
Y-5830D01*
X-7541500Y-6670D01*
G01X-7506500Y-5000D02*
Y45000D01*
X-7512500Y35000D01*
G01Y-5000D02*
X-7500500D01*
G01X-7255250Y3285830D02*
X-7251750Y3291670D01*
X-7248750Y3295000D01*
X-7244750Y3296670D01*
X-7241250Y3295000D01*
X-7238750Y3291670D01*
X-7236750Y3286670D01*
X-7236250Y3280830D01*
X-7236750Y3275830D01*
X-7238750Y3270830D01*
X-7241750Y3266670D01*
X-7245250Y3265000D01*
X-7249250Y3266670D01*
X-7252750Y3271670D01*
X-7254750Y3279170D01*
X-7255250Y3287500D01*
X-7254250Y3298330D01*
X-7252750Y3304170D01*
X-7250250Y3310000D01*
X-7246750Y3314170D01*
X-7243250Y3315000D01*
X-7239750Y3313330D01*
X-7237250Y3309170D01*
G01X-7210750Y3265000D02*
Y3315000D01*
X-7216750Y3305000D01*
G01Y3265000D02*
X-7204750D01*
G01X-6162250Y-1025000D02*
Y-965000D01*
X-6170250Y-977000D01*
G01Y-1025000D02*
X-6154250D01*
G01X-6117250D02*
Y-965000D01*
X-6125250Y-977000D01*
G01Y-1025000D02*
X-6109250D01*
G01X-6072250Y-1027000D02*
X-6073580Y-1026000D01*
Y-1024000D01*
X-6072250Y-1023000D01*
X-6070920Y-1024000D01*
Y-1026000D01*
X-6072250Y-1027000D01*
G01X-6041920Y-1016000D02*
X-6037920Y-1021000D01*
X-6033250Y-1024000D01*
X-6027250Y-1025000D01*
X-6021250Y-1023000D01*
X-6016580Y-1019000D01*
X-6013250Y-1012000D01*
X-6012580Y-1004000D01*
X-6013920Y-996000D01*
X-6017250Y-991000D01*
X-6021920Y-987000D01*
X-6026580Y-986000D01*
X-6031250Y-987000D01*
X-6037250Y-991000D01*
X-6035250Y-965000D01*
X-6017250D01*
G01X-6125750Y-235000D02*
Y-185000D01*
X-6113250D01*
X-6109250Y-187500D01*
X-6106750Y-190830D01*
X-6105750Y-197500D01*
X-6106750Y-204170D01*
X-6109750Y-208330D01*
X-6113250Y-210830D01*
X-6125750D01*
G01X-6113250D02*
X-6105750Y-235000D01*
G01X-6080750D02*
Y-185000D01*
X-6086750Y-195000D01*
G01Y-235000D02*
X-6074750D01*
G01X-5476750Y6766670D02*
X-5473750Y6771670D01*
X-5470250Y6774170D01*
X-5466250Y6775000D01*
X-5461250Y6773330D01*
X-5457750Y6769170D01*
X-5456750Y6764170D01*
X-5457250Y6759170D01*
X-5459250Y6755000D01*
X-5469250Y6746670D01*
X-5473750Y6740830D01*
X-5476750Y6732500D01*
X-5477750Y6725000D01*
X-5456750D01*
G01X-5433250D02*
X-5432250Y6735830D01*
X-5430750Y6745000D01*
X-5428750Y6753330D01*
X-5426250Y6762500D01*
X-5422250Y6775000D01*
X-5442250D01*
G01X-5397250Y6723330D02*
X-5398250Y6724170D01*
Y6725830D01*
X-5397250Y6726670D01*
X-5396250Y6725830D01*
Y6724170D01*
X-5397250Y6723330D01*
G01X-5362250Y6725000D02*
Y6775000D01*
X-5368250Y6765000D01*
G01Y6725000D02*
X-5356250D01*
G01X-5062250Y-1025000D02*
Y-965000D01*
X-5070250Y-977000D01*
G01Y-1025000D02*
X-5054250D01*
G01X-5017250Y-965000D02*
X-5022580Y-967000D01*
X-5026580Y-972000D01*
X-5029250Y-978000D01*
X-5031250Y-986000D01*
X-5031920Y-995000D01*
X-5031250Y-1004000D01*
X-5029250Y-1012000D01*
X-5026580Y-1018000D01*
X-5022580Y-1023000D01*
X-5017250Y-1025000D01*
X-5011920Y-1023000D01*
X-5007920Y-1018000D01*
X-5005250Y-1012000D01*
X-5003250Y-1004000D01*
X-5002580Y-995000D01*
X-5003250Y-986000D01*
X-5005250Y-978000D01*
X-5007920Y-972000D01*
X-5011920Y-967000D01*
X-5017250Y-965000D01*
G01X-4972250Y-1027000D02*
X-4973580Y-1026000D01*
Y-1024000D01*
X-4972250Y-1023000D01*
X-4970920Y-1024000D01*
Y-1026000D01*
X-4972250Y-1027000D01*
G01X-4928580Y-1025000D02*
X-4927250Y-1012000D01*
X-4925250Y-1001000D01*
X-4922580Y-991000D01*
X-4919250Y-980000D01*
X-4913920Y-965000D01*
X-4940580D01*
G01X-4955750Y-265000D02*
Y-215000D01*
X-4943250D01*
X-4939250Y-217500D01*
X-4936750Y-220830D01*
X-4935750Y-227500D01*
X-4936750Y-234170D01*
X-4939750Y-238330D01*
X-4943250Y-240830D01*
X-4955750D01*
G01X-4943250D02*
X-4935750Y-265000D01*
G01X-4910750D02*
Y-215000D01*
X-4916750Y-225000D01*
G01Y-265000D02*
X-4904750D01*
G01X-4625750Y6515000D02*
Y6565000D01*
X-4613250D01*
X-4609250Y6562500D01*
X-4606750Y6559170D01*
X-4605750Y6552500D01*
X-4606750Y6545830D01*
X-4609750Y6541670D01*
X-4613250Y6539170D01*
X-4625750D01*
G01X-4613250D02*
X-4605750Y6515000D01*
G01X-4580750D02*
Y6565000D01*
X-4586750Y6555000D01*
G01Y6515000D02*
X-4574750D01*
G01X-3068250Y6975000D02*
X-3067250Y6985830D01*
X-3065750Y6995000D01*
X-3063750Y7003330D01*
X-3061250Y7012500D01*
X-3057250Y7025000D01*
X-3077250D01*
G01X-3041750Y6995830D02*
X-3038250Y7001670D01*
X-3035250Y7005000D01*
X-3031250Y7006670D01*
X-3027750Y7005000D01*
X-3025250Y7001670D01*
X-3023250Y6996670D01*
X-3022750Y6990830D01*
X-3023250Y6985830D01*
X-3025250Y6980830D01*
X-3028250Y6976670D01*
X-3031750Y6975000D01*
X-3035750Y6976670D01*
X-3039250Y6981670D01*
X-3041250Y6989170D01*
X-3041750Y6997500D01*
X-3040750Y7008330D01*
X-3039250Y7014170D01*
X-3036750Y7020000D01*
X-3033250Y7024170D01*
X-3029750Y7025000D01*
X-3026250Y7023330D01*
X-3023750Y7019170D01*
G01X-2997250Y6973330D02*
X-2998250Y6974170D01*
Y6975830D01*
X-2997250Y6976670D01*
X-2996250Y6975830D01*
Y6974170D01*
X-2997250Y6973330D01*
G01X-2973250Y6982500D02*
X-2970250Y6978330D01*
X-2966750Y6975830D01*
X-2962250Y6975000D01*
X-2957750Y6976670D01*
X-2954250Y6980000D01*
X-2951750Y6985830D01*
X-2951250Y6992500D01*
X-2952250Y6999170D01*
X-2954750Y7003330D01*
X-2958250Y7006670D01*
X-2961750Y7007500D01*
X-2965250Y7006670D01*
X-2969750Y7003330D01*
X-2968250Y7025000D01*
X-2954750D01*
G01X-1826920Y-1016000D02*
X-1822920Y-1021000D01*
X-1818250Y-1024000D01*
X-1812250Y-1025000D01*
X-1806250Y-1023000D01*
X-1801580Y-1019000D01*
X-1798250Y-1012000D01*
X-1797580Y-1004000D01*
X-1798920Y-996000D01*
X-1802250Y-991000D01*
X-1806920Y-987000D01*
X-1811580Y-986000D01*
X-1816250Y-987000D01*
X-1822250Y-991000D01*
X-1820250Y-965000D01*
X-1802250D01*
G01X-1759250Y-1025000D02*
Y-965000D01*
X-1783920Y-1008000D01*
X-1750580D01*
G01X-1722250Y-1027000D02*
X-1723580Y-1026000D01*
Y-1024000D01*
X-1722250Y-1023000D01*
X-1720920Y-1024000D01*
Y-1026000D01*
X-1722250Y-1027000D01*
G01X-1691920Y-1013000D02*
X-1687920Y-1020000D01*
X-1682580Y-1024000D01*
X-1676580Y-1025000D01*
X-1671250Y-1024000D01*
X-1665920Y-1019000D01*
X-1662580Y-1013000D01*
X-1661920Y-1007000D01*
X-1663250Y-1000000D01*
X-1667920Y-995000D01*
X-1672580Y-993000D01*
X-1678580D01*
G01X-1672580D02*
X-1668580Y-990000D01*
X-1665250Y-985000D01*
X-1663920Y-979000D01*
X-1665250Y-973000D01*
X-1668580Y-968000D01*
X-1674580Y-965000D01*
X-1680580Y-966000D01*
X-1686580Y-970000D01*
G01X-1561250Y6725000D02*
Y6775000D01*
X-1579750Y6739170D01*
X-1554750D01*
G01X-1540750Y6730830D02*
X-1537250Y6726670D01*
X-1533250Y6725000D01*
X-1529250Y6726670D01*
X-1525750Y6731670D01*
X-1523250Y6739170D01*
X-1522250Y6746670D01*
Y6755830D01*
X-1523250Y6763330D01*
X-1525750Y6770000D01*
X-1528750Y6773330D01*
X-1532250Y6775000D01*
X-1536250Y6773330D01*
X-1539250Y6770000D01*
X-1541250Y6765000D01*
X-1542250Y6758330D01*
X-1541250Y6752500D01*
X-1538750Y6746670D01*
X-1535750Y6743330D01*
X-1532250Y6742500D01*
X-1528250Y6744170D01*
X-1525250Y6748330D01*
X-1522250Y6755830D01*
G01X-1497250Y6723330D02*
X-1498250Y6724170D01*
Y6725830D01*
X-1497250Y6726670D01*
X-1496250Y6725830D01*
Y6724170D01*
X-1497250Y6723330D01*
G01X-1456250Y6725000D02*
Y6775000D01*
X-1474750Y6739170D01*
X-1449750D01*
G01X287750Y-675000D02*
Y-615000D01*
X279750Y-627000D01*
G01Y-675000D02*
X295750D01*
G01X332750Y-615000D02*
X327420Y-617000D01*
X323420Y-622000D01*
X320750Y-628000D01*
X318750Y-636000D01*
X318080Y-645000D01*
X318750Y-654000D01*
X320750Y-662000D01*
X323420Y-668000D01*
X327420Y-673000D01*
X332750Y-675000D01*
X338080Y-673000D01*
X342080Y-668000D01*
X344750Y-662000D01*
X346750Y-654000D01*
X347420Y-645000D01*
X346750Y-636000D01*
X344750Y-628000D01*
X342080Y-622000D01*
X338080Y-617000D01*
X332750Y-615000D01*
G01X377750Y-677000D02*
X376420Y-676000D01*
Y-674000D01*
X377750Y-673000D01*
X379080Y-674000D01*
Y-676000D01*
X377750Y-677000D01*
G01X411420Y-668000D02*
X416080Y-673000D01*
X421420Y-675000D01*
X426750Y-673000D01*
X431420Y-667000D01*
X434750Y-658000D01*
X436080Y-649000D01*
Y-638000D01*
X434750Y-629000D01*
X431420Y-621000D01*
X427420Y-617000D01*
X422750Y-615000D01*
X417420Y-617000D01*
X413420Y-621000D01*
X410750Y-627000D01*
X409420Y-635000D01*
X410750Y-642000D01*
X414080Y-649000D01*
X418080Y-653000D01*
X422750Y-654000D01*
X428080Y-652000D01*
X432080Y-647000D01*
X436080Y-638000D01*
G01X1355330Y-213000D02*
X1359330Y-220000D01*
X1364670Y-224000D01*
X1370670Y-225000D01*
X1376000Y-224000D01*
X1381330Y-219000D01*
X1384670Y-213000D01*
X1385330Y-207000D01*
X1384000Y-200000D01*
X1379330Y-195000D01*
X1374670Y-193000D01*
X1368670D01*
G01X1374670D02*
X1378670Y-190000D01*
X1382000Y-185000D01*
X1383330Y-179000D01*
X1382000Y-173000D01*
X1378670Y-168000D01*
X1372670Y-165000D01*
X1366670Y-166000D01*
X1360670Y-170000D01*
G01X1646580Y3200000D02*
X1651250Y3207000D01*
X1655250Y3211000D01*
X1660580Y3213000D01*
X1665250Y3211000D01*
X1668580Y3207000D01*
X1671250Y3201000D01*
X1671920Y3194000D01*
X1671250Y3188000D01*
X1668580Y3182000D01*
X1664580Y3177000D01*
X1659920Y3175000D01*
X1654580Y3177000D01*
X1649920Y3183000D01*
X1647250Y3192000D01*
X1646580Y3202000D01*
X1647920Y3215000D01*
X1649920Y3222000D01*
X1653250Y3229000D01*
X1657920Y3234000D01*
X1662580Y3235000D01*
X1667250Y3233000D01*
X1670580Y3228000D01*
G01X1692920Y3182000D02*
X1697580Y3177000D01*
X1702920Y3175000D01*
X1708250Y3177000D01*
X1712920Y3183000D01*
X1716250Y3192000D01*
X1717580Y3201000D01*
Y3212000D01*
X1716250Y3221000D01*
X1712920Y3229000D01*
X1708920Y3233000D01*
X1704250Y3235000D01*
X1698920Y3233000D01*
X1694920Y3229000D01*
X1692250Y3223000D01*
X1690920Y3215000D01*
X1692250Y3208000D01*
X1695580Y3201000D01*
X1699580Y3197000D01*
X1704250Y3196000D01*
X1709580Y3198000D01*
X1713580Y3203000D01*
X1717580Y3212000D01*
G54D11*
G01X-6220000Y3720000D02*
X-6310000D01*
X-6410000Y3620000D01*
Y3530000D01*
G01X-3310000Y3300000D02*
X-2810000D01*
G54D12*
G01X-5823000Y4885000D02*
Y4850000D01*
G01Y4855250D02*
X-5824000Y4852330D01*
X-5825500Y4850580D01*
X-5827250Y4850000D01*
X-5829250Y4851170D01*
X-5830750Y4854080D01*
X-5831750Y4857580D01*
X-5832000Y4861670D01*
X-5831750Y4865750D01*
X-5830750Y4869250D01*
X-5829250Y4872170D01*
X-5827250Y4873330D01*
X-5825500Y4872750D01*
X-5824250Y4871580D01*
X-5823000Y4869250D01*
G01X-5807500Y4873330D02*
Y4850000D01*
G01Y4882670D02*
X-5808000Y4883250D01*
Y4884420D01*
X-5807500Y4885000D01*
X-5807000Y4884420D01*
Y4883250D01*
X-5807500Y4882670D01*
G01X-5783000Y4850000D02*
Y4873330D01*
G01Y4869250D02*
X-5784000Y4871580D01*
X-5785500Y4872750D01*
X-5787250Y4873330D01*
X-5789000Y4872170D01*
X-5790500Y4869830D01*
X-5791500Y4866330D01*
X-5792000Y4861670D01*
X-5791500Y4857000D01*
X-5790500Y4853500D01*
X-5789000Y4851170D01*
X-5787250Y4850000D01*
X-5785500Y4850580D01*
X-5784000Y4852330D01*
X-5783000Y4854670D01*
G01X-5747500Y4850000D02*
Y4885000D01*
X-5750500Y4878000D01*
G01Y4850000D02*
X-5744500D01*
G01X-5727500Y4848830D02*
X-5728000Y4849420D01*
Y4850580D01*
X-5727500Y4851170D01*
X-5727000Y4850580D01*
Y4849420D01*
X-5727500Y4848830D01*
G01X-5707500Y4885000D02*
X-5709500Y4883830D01*
X-5711000Y4880920D01*
X-5712000Y4877420D01*
X-5712750Y4872750D01*
X-5713000Y4867500D01*
X-5712750Y4862250D01*
X-5712000Y4857580D01*
X-5711000Y4854080D01*
X-5709500Y4851170D01*
X-5707500Y4850000D01*
X-5705500Y4851170D01*
X-5704000Y4854080D01*
X-5703000Y4857580D01*
X-5702250Y4862250D01*
X-5702000Y4867500D01*
X-5702250Y4872750D01*
X-5703000Y4877420D01*
X-5704000Y4880920D01*
X-5705500Y4883830D01*
X-5707500Y4885000D01*
G01X-5693000Y4855250D02*
X-5691500Y4852330D01*
X-5689750Y4850580D01*
X-5687500Y4850000D01*
X-5685250Y4851170D01*
X-5683500Y4853500D01*
X-5682250Y4857580D01*
X-5682000Y4862250D01*
X-5682500Y4866920D01*
X-5683750Y4869830D01*
X-5685500Y4872170D01*
X-5687250Y4872750D01*
X-5689000Y4872170D01*
X-5691250Y4869830D01*
X-5690500Y4885000D01*
X-5683750D01*
G01X-5675000Y4850000D02*
Y4873330D01*
G01Y4866920D02*
X-5674250Y4869830D01*
X-5673000Y4872170D01*
X-5671250Y4873330D01*
X-5669500Y4872170D01*
X-5668250Y4869830D01*
X-5667500Y4866920D01*
Y4850000D01*
G01Y4866920D02*
X-5666750Y4869830D01*
X-5665500Y4872170D01*
X-5663750Y4873330D01*
X-5662000Y4872170D01*
X-5660750Y4869830D01*
X-5660000Y4866330D01*
Y4850000D01*
G01X-5655000D02*
Y4873330D01*
G01Y4866920D02*
X-5654250Y4869830D01*
X-5653000Y4872170D01*
X-5651250Y4873330D01*
X-5649500Y4872170D01*
X-5648250Y4869830D01*
X-5647500Y4866920D01*
Y4850000D01*
G01Y4866920D02*
X-5646750Y4869830D01*
X-5645500Y4872170D01*
X-5643750Y4873330D01*
X-5642000Y4872170D01*
X-5640750Y4869830D01*
X-5640000Y4866330D01*
Y4850000D01*
G01X-5610250Y4861670D02*
X-5604250D01*
G01X-5607500Y4869250D02*
Y4854080D01*
G01X-5587500Y4885000D02*
X-5589500Y4883830D01*
X-5591000Y4880920D01*
X-5592000Y4877420D01*
X-5592750Y4872750D01*
X-5593000Y4867500D01*
X-5592750Y4862250D01*
X-5592000Y4857580D01*
X-5591000Y4854080D01*
X-5589500Y4851170D01*
X-5587500Y4850000D01*
X-5585500Y4851170D01*
X-5584000Y4854080D01*
X-5583000Y4857580D01*
X-5582250Y4862250D01*
X-5582000Y4867500D01*
X-5582250Y4872750D01*
X-5583000Y4877420D01*
X-5584000Y4880920D01*
X-5585500Y4883830D01*
X-5587500Y4885000D01*
G01X-5567500Y4848830D02*
X-5568000Y4849420D01*
Y4850580D01*
X-5567500Y4851170D01*
X-5567000Y4850580D01*
Y4849420D01*
X-5567500Y4848830D01*
G01X-5547500Y4885000D02*
X-5549500Y4883830D01*
X-5551000Y4880920D01*
X-5552000Y4877420D01*
X-5552750Y4872750D01*
X-5553000Y4867500D01*
X-5552750Y4862250D01*
X-5552000Y4857580D01*
X-5551000Y4854080D01*
X-5549500Y4851170D01*
X-5547500Y4850000D01*
X-5545500Y4851170D01*
X-5544000Y4854080D01*
X-5543000Y4857580D01*
X-5542250Y4862250D01*
X-5542000Y4867500D01*
X-5542250Y4872750D01*
X-5543000Y4877420D01*
X-5544000Y4880920D01*
X-5545500Y4883830D01*
X-5547500Y4885000D01*
G01X-5533000Y4855250D02*
X-5531500Y4852330D01*
X-5529750Y4850580D01*
X-5527500Y4850000D01*
X-5525250Y4851170D01*
X-5523500Y4853500D01*
X-5522250Y4857580D01*
X-5522000Y4862250D01*
X-5522500Y4866920D01*
X-5523750Y4869830D01*
X-5525500Y4872170D01*
X-5527250Y4872750D01*
X-5529000Y4872170D01*
X-5531250Y4869830D01*
X-5530500Y4885000D01*
X-5523750D01*
G01X-5512000Y4848830D02*
X-5503000Y4885000D01*
G01X-5490750Y4861670D02*
X-5484250D01*
G01X-5467500Y4885000D02*
X-5469500Y4883830D01*
X-5471000Y4880920D01*
X-5472000Y4877420D01*
X-5472750Y4872750D01*
X-5473000Y4867500D01*
X-5472750Y4862250D01*
X-5472000Y4857580D01*
X-5471000Y4854080D01*
X-5469500Y4851170D01*
X-5467500Y4850000D01*
X-5465500Y4851170D01*
X-5464000Y4854080D01*
X-5463000Y4857580D01*
X-5462250Y4862250D01*
X-5462000Y4867500D01*
X-5462250Y4872750D01*
X-5463000Y4877420D01*
X-5464000Y4880920D01*
X-5465500Y4883830D01*
X-5467500Y4885000D01*
G01X-5447500Y4848830D02*
X-5448000Y4849420D01*
Y4850580D01*
X-5447500Y4851170D01*
X-5447000Y4850580D01*
Y4849420D01*
X-5447500Y4848830D01*
G01X-5427500Y4885000D02*
X-5429500Y4883830D01*
X-5431000Y4880920D01*
X-5432000Y4877420D01*
X-5432750Y4872750D01*
X-5433000Y4867500D01*
X-5432750Y4862250D01*
X-5432000Y4857580D01*
X-5431000Y4854080D01*
X-5429500Y4851170D01*
X-5427500Y4850000D01*
X-5425500Y4851170D01*
X-5424000Y4854080D01*
X-5423000Y4857580D01*
X-5422250Y4862250D01*
X-5422000Y4867500D01*
X-5422250Y4872750D01*
X-5423000Y4877420D01*
X-5424000Y4880920D01*
X-5425500Y4883830D01*
X-5427500Y4885000D01*
G01X-5413000Y4855250D02*
X-5411500Y4852330D01*
X-5409750Y4850580D01*
X-5407500Y4850000D01*
X-5405250Y4851170D01*
X-5403500Y4853500D01*
X-5402250Y4857580D01*
X-5402000Y4862250D01*
X-5402500Y4866920D01*
X-5403750Y4869830D01*
X-5405500Y4872170D01*
X-5407250Y4872750D01*
X-5409000Y4872170D01*
X-5411250Y4869830D01*
X-5410500Y4885000D01*
X-5403750D01*
G01X-5827500Y4970000D02*
Y5005000D01*
X-5830500Y4998000D01*
G01Y4970000D02*
X-5824500D01*
G01X-5807500Y5005000D02*
X-5809500Y5003830D01*
X-5811000Y5000920D01*
X-5812000Y4997420D01*
X-5812750Y4992750D01*
X-5813000Y4987500D01*
X-5812750Y4982250D01*
X-5812000Y4977580D01*
X-5811000Y4974080D01*
X-5809500Y4971170D01*
X-5807500Y4970000D01*
X-5805500Y4971170D01*
X-5804000Y4974080D01*
X-5803000Y4977580D01*
X-5802250Y4982250D01*
X-5802000Y4987500D01*
X-5802250Y4992750D01*
X-5803000Y4997420D01*
X-5804000Y5000920D01*
X-5805500Y5003830D01*
X-5807500Y5005000D01*
G01X-5791250Y4993330D02*
X-5783750Y4970000D01*
G01Y4993330D02*
X-5791250Y4970000D01*
G01X-5752500D02*
Y5005000D01*
X-5746500D01*
X-5744500Y5003250D01*
X-5743000Y4999170D01*
X-5742500Y4994500D01*
X-5743000Y4989830D01*
X-5744250Y4986330D01*
X-5746500Y4984580D01*
X-5752500D01*
G01X-5732500Y4970000D02*
Y5005000D01*
X-5726250D01*
X-5724250Y5003250D01*
X-5723000Y5000920D01*
X-5722500Y4996250D01*
X-5723000Y4991580D01*
X-5724500Y4988670D01*
X-5726250Y4986920D01*
X-5732500D01*
G01X-5726250D02*
X-5722500Y4970000D01*
G01X-5702500D02*
X-5712500D01*
Y5005000D01*
X-5702500D01*
G01X-5706500Y4988080D02*
X-5712500D01*
G01X-5692750Y4974670D02*
X-5690750Y4971750D01*
X-5688500Y4970000D01*
X-5686500D01*
X-5684500Y4971750D01*
X-5683000Y4974670D01*
X-5682250Y4978750D01*
X-5682750Y4982830D01*
X-5684000Y4986330D01*
X-5686250Y4988670D01*
X-5689250Y4989830D01*
X-5691000Y4992170D01*
X-5691750Y4996250D01*
X-5691250Y5000330D01*
X-5690000Y5003250D01*
X-5688250Y5005000D01*
X-5686500D01*
X-5684750Y5003830D01*
X-5683250Y5000920D01*
G01X-5672750Y4974670D02*
X-5670750Y4971750D01*
X-5668500Y4970000D01*
X-5666500D01*
X-5664500Y4971750D01*
X-5663000Y4974670D01*
X-5662250Y4978750D01*
X-5662750Y4982830D01*
X-5664000Y4986330D01*
X-5666250Y4988670D01*
X-5669250Y4989830D01*
X-5671000Y4992170D01*
X-5671750Y4996250D01*
X-5671250Y5000330D01*
X-5670000Y5003250D01*
X-5668250Y5005000D01*
X-5666500D01*
X-5664750Y5003830D01*
X-5663250Y5000920D01*
G01X-5650750Y4981670D02*
X-5644250D01*
G01X-5632250Y4970000D02*
Y5005000D01*
X-5622750D01*
G01X-5626250Y4988080D02*
X-5632250D01*
G01X-5610500Y5005000D02*
X-5604500D01*
G01X-5607500D02*
Y4970000D01*
G01X-5610500D02*
X-5604500D01*
G01X-5587500Y5005000D02*
Y4970000D01*
G01X-5593250Y5005000D02*
X-5581750D01*
G01X-5547500D02*
Y4970000D01*
G01X-5553250Y5005000D02*
X-5541750D01*
G01X-5522500Y4970000D02*
X-5532500D01*
Y5005000D01*
X-5522500D01*
G01X-5526500Y4988080D02*
X-5532500D01*
G01X-5502000Y5002080D02*
X-5503500Y5003830D01*
X-5505250Y5005000D01*
X-5507250D01*
X-5509500Y5003250D01*
X-5511250Y5000330D01*
X-5512500Y4996830D01*
X-5513500Y4991000D01*
X-5513750Y4985750D01*
X-5513250Y4980500D01*
X-5512500Y4977000D01*
X-5511000Y4973500D01*
X-5509250Y4971170D01*
X-5507500Y4970000D01*
X-5505750D01*
X-5504000Y4971170D01*
X-5502500Y4972920D01*
X-5501250Y4975250D01*
G01X-5492750Y4970000D02*
Y5005000D01*
G01X-5482250D02*
Y4970000D01*
G01Y4987500D02*
X-5492750D01*
G01X-5473250Y4970000D02*
Y5005000D01*
X-5461750Y4970000D01*
Y5005000D01*
G01X-5447500Y4970000D02*
X-5449500Y4970580D01*
X-5451250Y4972920D01*
X-5452750Y4976420D01*
X-5453750Y4980500D01*
X-5454250Y4985170D01*
Y4989830D01*
X-5453750Y4994500D01*
X-5452750Y4998580D01*
X-5451250Y5002080D01*
X-5449500Y5004420D01*
X-5447500Y5005000D01*
X-5445500Y5004420D01*
X-5443750Y5002080D01*
X-5442250Y4998580D01*
X-5441250Y4994500D01*
X-5440750Y4989830D01*
Y4985170D01*
X-5441250Y4980500D01*
X-5442250Y4976420D01*
X-5443750Y4972920D01*
X-5445500Y4970580D01*
X-5447500Y4970000D01*
G01X-5432500Y5005000D02*
Y4970000D01*
X-5422500D01*
G01X-5407500D02*
X-5409500Y4970580D01*
X-5411250Y4972920D01*
X-5412750Y4976420D01*
X-5413750Y4980500D01*
X-5414250Y4985170D01*
Y4989830D01*
X-5413750Y4994500D01*
X-5412750Y4998580D01*
X-5411250Y5002080D01*
X-5409500Y5004420D01*
X-5407500Y5005000D01*
X-5405500Y5004420D01*
X-5403750Y5002080D01*
X-5402250Y4998580D01*
X-5401250Y4994500D01*
X-5400750Y4989830D01*
Y4985170D01*
X-5401250Y4980500D01*
X-5402250Y4976420D01*
X-5403750Y4972920D01*
X-5405500Y4970580D01*
X-5407500Y4970000D01*
G01X-5386000Y4987500D02*
X-5381000D01*
Y4977000D01*
X-5382500Y4973500D01*
X-5384250Y4971170D01*
X-5386750Y4970000D01*
X-5389250Y4971170D01*
X-5391000Y4973500D01*
X-5392500Y4977000D01*
X-5393500Y4981080D01*
X-5394000Y4985750D01*
Y4989830D01*
X-5393500Y4993330D01*
X-5392500Y4997420D01*
X-5391000Y5000920D01*
X-5389500Y5003250D01*
X-5387500Y5005000D01*
X-5385750D01*
X-5383750Y5003830D01*
X-5382250Y5001500D01*
G01X-5367500Y4970000D02*
Y4985750D01*
X-5372500Y5005000D01*
G01X-5362500D02*
X-5367500Y4985750D01*
G01X-4343000Y4575000D02*
Y4540000D01*
G01Y4545250D02*
X-4344000Y4542330D01*
X-4345500Y4540580D01*
X-4347250Y4540000D01*
X-4349250Y4541170D01*
X-4350750Y4544080D01*
X-4351750Y4547580D01*
X-4352000Y4551670D01*
X-4351750Y4555750D01*
X-4350750Y4559250D01*
X-4349250Y4562170D01*
X-4347250Y4563330D01*
X-4345500Y4562750D01*
X-4344250Y4561580D01*
X-4343000Y4559250D01*
G01X-4327500Y4563330D02*
Y4540000D01*
G01Y4572670D02*
X-4328000Y4573250D01*
Y4574420D01*
X-4327500Y4575000D01*
X-4327000Y4574420D01*
Y4573250D01*
X-4327500Y4572670D01*
G01X-4303000Y4540000D02*
Y4563330D01*
G01Y4559250D02*
X-4304000Y4561580D01*
X-4305500Y4562750D01*
X-4307250Y4563330D01*
X-4309000Y4562170D01*
X-4310500Y4559830D01*
X-4311500Y4556330D01*
X-4312000Y4551670D01*
X-4311500Y4547000D01*
X-4310500Y4543500D01*
X-4309000Y4541170D01*
X-4307250Y4540000D01*
X-4305500Y4540580D01*
X-4304000Y4542330D01*
X-4303000Y4544670D01*
G01X-4267500Y4575000D02*
X-4269500Y4573830D01*
X-4271000Y4570920D01*
X-4272000Y4567420D01*
X-4272750Y4562750D01*
X-4273000Y4557500D01*
X-4272750Y4552250D01*
X-4272000Y4547580D01*
X-4271000Y4544080D01*
X-4269500Y4541170D01*
X-4267500Y4540000D01*
X-4265500Y4541170D01*
X-4264000Y4544080D01*
X-4263000Y4547580D01*
X-4262250Y4552250D01*
X-4262000Y4557500D01*
X-4262250Y4562750D01*
X-4263000Y4567420D01*
X-4264000Y4570920D01*
X-4265500Y4573830D01*
X-4267500Y4575000D01*
G01X-4247500Y4538830D02*
X-4248000Y4539420D01*
Y4540580D01*
X-4247500Y4541170D01*
X-4247000Y4540580D01*
Y4539420D01*
X-4247500Y4538830D01*
G01X-4231750Y4544080D02*
X-4230000Y4541170D01*
X-4228000Y4540000D01*
X-4226000Y4541170D01*
X-4224250Y4544670D01*
X-4223000Y4549920D01*
X-4222500Y4555170D01*
Y4561580D01*
X-4223000Y4566830D01*
X-4224250Y4571500D01*
X-4225750Y4573830D01*
X-4227500Y4575000D01*
X-4229500Y4573830D01*
X-4231000Y4571500D01*
X-4232000Y4568000D01*
X-4232500Y4563330D01*
X-4232000Y4559250D01*
X-4230750Y4555170D01*
X-4229250Y4552830D01*
X-4227500Y4552250D01*
X-4225500Y4553420D01*
X-4224000Y4556330D01*
X-4222500Y4561580D01*
G01X-4213000Y4545250D02*
X-4211500Y4542330D01*
X-4209750Y4540580D01*
X-4207500Y4540000D01*
X-4205250Y4541170D01*
X-4203500Y4543500D01*
X-4202250Y4547580D01*
X-4202000Y4552250D01*
X-4202500Y4556920D01*
X-4203750Y4559830D01*
X-4205500Y4562170D01*
X-4207250Y4562750D01*
X-4209000Y4562170D01*
X-4211250Y4559830D01*
X-4210500Y4575000D01*
X-4203750D01*
G01X-4195000Y4540000D02*
Y4563330D01*
G01Y4556920D02*
X-4194250Y4559830D01*
X-4193000Y4562170D01*
X-4191250Y4563330D01*
X-4189500Y4562170D01*
X-4188250Y4559830D01*
X-4187500Y4556920D01*
Y4540000D01*
G01Y4556920D02*
X-4186750Y4559830D01*
X-4185500Y4562170D01*
X-4183750Y4563330D01*
X-4182000Y4562170D01*
X-4180750Y4559830D01*
X-4180000Y4556330D01*
Y4540000D01*
G01X-4175000D02*
Y4563330D01*
G01Y4556920D02*
X-4174250Y4559830D01*
X-4173000Y4562170D01*
X-4171250Y4563330D01*
X-4169500Y4562170D01*
X-4168250Y4559830D01*
X-4167500Y4556920D01*
Y4540000D01*
G01Y4556920D02*
X-4166750Y4559830D01*
X-4165500Y4562170D01*
X-4163750Y4563330D01*
X-4162000Y4562170D01*
X-4160750Y4559830D01*
X-4160000Y4556330D01*
Y4540000D01*
G01X-4130250Y4551670D02*
X-4124250D01*
G01X-4127500Y4559250D02*
Y4544080D01*
G01X-4107500Y4575000D02*
X-4109500Y4573830D01*
X-4111000Y4570920D01*
X-4112000Y4567420D01*
X-4112750Y4562750D01*
X-4113000Y4557500D01*
X-4112750Y4552250D01*
X-4112000Y4547580D01*
X-4111000Y4544080D01*
X-4109500Y4541170D01*
X-4107500Y4540000D01*
X-4105500Y4541170D01*
X-4104000Y4544080D01*
X-4103000Y4547580D01*
X-4102250Y4552250D01*
X-4102000Y4557500D01*
X-4102250Y4562750D01*
X-4103000Y4567420D01*
X-4104000Y4570920D01*
X-4105500Y4573830D01*
X-4107500Y4575000D01*
G01X-4087500Y4538830D02*
X-4088000Y4539420D01*
Y4540580D01*
X-4087500Y4541170D01*
X-4087000Y4540580D01*
Y4539420D01*
X-4087500Y4538830D01*
G01X-4067500Y4575000D02*
X-4069500Y4573830D01*
X-4071000Y4570920D01*
X-4072000Y4567420D01*
X-4072750Y4562750D01*
X-4073000Y4557500D01*
X-4072750Y4552250D01*
X-4072000Y4547580D01*
X-4071000Y4544080D01*
X-4069500Y4541170D01*
X-4067500Y4540000D01*
X-4065500Y4541170D01*
X-4064000Y4544080D01*
X-4063000Y4547580D01*
X-4062250Y4552250D01*
X-4062000Y4557500D01*
X-4062250Y4562750D01*
X-4063000Y4567420D01*
X-4064000Y4570920D01*
X-4065500Y4573830D01*
X-4067500Y4575000D01*
G01X-4053000Y4545250D02*
X-4051500Y4542330D01*
X-4049750Y4540580D01*
X-4047500Y4540000D01*
X-4045250Y4541170D01*
X-4043500Y4543500D01*
X-4042250Y4547580D01*
X-4042000Y4552250D01*
X-4042500Y4556920D01*
X-4043750Y4559830D01*
X-4045500Y4562170D01*
X-4047250Y4562750D01*
X-4049000Y4562170D01*
X-4051250Y4559830D01*
X-4050500Y4575000D01*
X-4043750D01*
G01X-4032000Y4538830D02*
X-4023000Y4575000D01*
G01X-4010750Y4551670D02*
X-4004250D01*
G01X-3987500Y4575000D02*
X-3989500Y4573830D01*
X-3991000Y4570920D01*
X-3992000Y4567420D01*
X-3992750Y4562750D01*
X-3993000Y4557500D01*
X-3992750Y4552250D01*
X-3992000Y4547580D01*
X-3991000Y4544080D01*
X-3989500Y4541170D01*
X-3987500Y4540000D01*
X-3985500Y4541170D01*
X-3984000Y4544080D01*
X-3983000Y4547580D01*
X-3982250Y4552250D01*
X-3982000Y4557500D01*
X-3982250Y4562750D01*
X-3983000Y4567420D01*
X-3984000Y4570920D01*
X-3985500Y4573830D01*
X-3987500Y4575000D01*
G01X-3967500Y4538830D02*
X-3968000Y4539420D01*
Y4540580D01*
X-3967500Y4541170D01*
X-3967000Y4540580D01*
Y4539420D01*
X-3967500Y4538830D01*
G01X-3947500Y4575000D02*
X-3949500Y4573830D01*
X-3951000Y4570920D01*
X-3952000Y4567420D01*
X-3952750Y4562750D01*
X-3953000Y4557500D01*
X-3952750Y4552250D01*
X-3952000Y4547580D01*
X-3951000Y4544080D01*
X-3949500Y4541170D01*
X-3947500Y4540000D01*
X-3945500Y4541170D01*
X-3944000Y4544080D01*
X-3943000Y4547580D01*
X-3942250Y4552250D01*
X-3942000Y4557500D01*
X-3942250Y4562750D01*
X-3943000Y4567420D01*
X-3944000Y4570920D01*
X-3945500Y4573830D01*
X-3947500Y4575000D01*
G01X-3933000Y4545250D02*
X-3931500Y4542330D01*
X-3929750Y4540580D01*
X-3927500Y4540000D01*
X-3925250Y4541170D01*
X-3923500Y4543500D01*
X-3922250Y4547580D01*
X-3922000Y4552250D01*
X-3922500Y4556920D01*
X-3923750Y4559830D01*
X-3925500Y4562170D01*
X-3927250Y4562750D01*
X-3929000Y4562170D01*
X-3931250Y4559830D01*
X-3930500Y4575000D01*
X-3923750D01*
G01X-4331750Y4664080D02*
X-4330000Y4661170D01*
X-4328000Y4660000D01*
X-4326000Y4661170D01*
X-4324250Y4664670D01*
X-4323000Y4669920D01*
X-4322500Y4675170D01*
Y4681580D01*
X-4323000Y4686830D01*
X-4324250Y4691500D01*
X-4325750Y4693830D01*
X-4327500Y4695000D01*
X-4329500Y4693830D01*
X-4331000Y4691500D01*
X-4332000Y4688000D01*
X-4332500Y4683330D01*
X-4332000Y4679250D01*
X-4330750Y4675170D01*
X-4329250Y4672830D01*
X-4327500Y4672250D01*
X-4325500Y4673420D01*
X-4324000Y4676330D01*
X-4322500Y4681580D01*
G01X-4311250Y4683330D02*
X-4303750Y4660000D01*
G01Y4683330D02*
X-4311250Y4660000D01*
G01X-4272500D02*
Y4695000D01*
X-4266500D01*
X-4264500Y4693250D01*
X-4263000Y4689170D01*
X-4262500Y4684500D01*
X-4263000Y4679830D01*
X-4264250Y4676330D01*
X-4266500Y4674580D01*
X-4272500D01*
G01X-4252500Y4660000D02*
Y4695000D01*
X-4246250D01*
X-4244250Y4693250D01*
X-4243000Y4690920D01*
X-4242500Y4686250D01*
X-4243000Y4681580D01*
X-4244500Y4678670D01*
X-4246250Y4676920D01*
X-4252500D01*
G01X-4246250D02*
X-4242500Y4660000D01*
G01X-4222500D02*
X-4232500D01*
Y4695000D01*
X-4222500D01*
G01X-4226500Y4678080D02*
X-4232500D01*
G01X-4212750Y4664670D02*
X-4210750Y4661750D01*
X-4208500Y4660000D01*
X-4206500D01*
X-4204500Y4661750D01*
X-4203000Y4664670D01*
X-4202250Y4668750D01*
X-4202750Y4672830D01*
X-4204000Y4676330D01*
X-4206250Y4678670D01*
X-4209250Y4679830D01*
X-4211000Y4682170D01*
X-4211750Y4686250D01*
X-4211250Y4690330D01*
X-4210000Y4693250D01*
X-4208250Y4695000D01*
X-4206500D01*
X-4204750Y4693830D01*
X-4203250Y4690920D01*
G01X-4192750Y4664670D02*
X-4190750Y4661750D01*
X-4188500Y4660000D01*
X-4186500D01*
X-4184500Y4661750D01*
X-4183000Y4664670D01*
X-4182250Y4668750D01*
X-4182750Y4672830D01*
X-4184000Y4676330D01*
X-4186250Y4678670D01*
X-4189250Y4679830D01*
X-4191000Y4682170D01*
X-4191750Y4686250D01*
X-4191250Y4690330D01*
X-4190000Y4693250D01*
X-4188250Y4695000D01*
X-4186500D01*
X-4184750Y4693830D01*
X-4183250Y4690920D01*
G01X-4170750Y4671670D02*
X-4164250D01*
G01X-4152250Y4660000D02*
Y4695000D01*
X-4142750D01*
G01X-4146250Y4678080D02*
X-4152250D01*
G01X-4130500Y4695000D02*
X-4124500D01*
G01X-4127500D02*
Y4660000D01*
G01X-4130500D02*
X-4124500D01*
G01X-4107500Y4695000D02*
Y4660000D01*
G01X-4113250Y4695000D02*
X-4101750D01*
G01X-4067500D02*
Y4660000D01*
G01X-4073250Y4695000D02*
X-4061750D01*
G01X-4042500Y4660000D02*
X-4052500D01*
Y4695000D01*
X-4042500D01*
G01X-4046500Y4678080D02*
X-4052500D01*
G01X-4022000Y4692080D02*
X-4023500Y4693830D01*
X-4025250Y4695000D01*
X-4027250D01*
X-4029500Y4693250D01*
X-4031250Y4690330D01*
X-4032500Y4686830D01*
X-4033500Y4681000D01*
X-4033750Y4675750D01*
X-4033250Y4670500D01*
X-4032500Y4667000D01*
X-4031000Y4663500D01*
X-4029250Y4661170D01*
X-4027500Y4660000D01*
X-4025750D01*
X-4024000Y4661170D01*
X-4022500Y4662920D01*
X-4021250Y4665250D01*
G01X-4012750Y4660000D02*
Y4695000D01*
G01X-4002250D02*
Y4660000D01*
G01Y4677500D02*
X-4012750D01*
G01X-3993250Y4660000D02*
Y4695000D01*
X-3981750Y4660000D01*
Y4695000D01*
G01X-3967500Y4660000D02*
X-3969500Y4660580D01*
X-3971250Y4662920D01*
X-3972750Y4666420D01*
X-3973750Y4670500D01*
X-3974250Y4675170D01*
Y4679830D01*
X-3973750Y4684500D01*
X-3972750Y4688580D01*
X-3971250Y4692080D01*
X-3969500Y4694420D01*
X-3967500Y4695000D01*
X-3965500Y4694420D01*
X-3963750Y4692080D01*
X-3962250Y4688580D01*
X-3961250Y4684500D01*
X-3960750Y4679830D01*
Y4675170D01*
X-3961250Y4670500D01*
X-3962250Y4666420D01*
X-3963750Y4662920D01*
X-3965500Y4660580D01*
X-3967500Y4660000D01*
G01X-3952500Y4695000D02*
Y4660000D01*
X-3942500D01*
G01X-3927500D02*
X-3929500Y4660580D01*
X-3931250Y4662920D01*
X-3932750Y4666420D01*
X-3933750Y4670500D01*
X-3934250Y4675170D01*
Y4679830D01*
X-3933750Y4684500D01*
X-3932750Y4688580D01*
X-3931250Y4692080D01*
X-3929500Y4694420D01*
X-3927500Y4695000D01*
X-3925500Y4694420D01*
X-3923750Y4692080D01*
X-3922250Y4688580D01*
X-3921250Y4684500D01*
X-3920750Y4679830D01*
Y4675170D01*
X-3921250Y4670500D01*
X-3922250Y4666420D01*
X-3923750Y4662920D01*
X-3925500Y4660580D01*
X-3927500Y4660000D01*
G01X-3906000Y4677500D02*
X-3901000D01*
Y4667000D01*
X-3902500Y4663500D01*
X-3904250Y4661170D01*
X-3906750Y4660000D01*
X-3909250Y4661170D01*
X-3911000Y4663500D01*
X-3912500Y4667000D01*
X-3913500Y4671080D01*
X-3914000Y4675750D01*
Y4679830D01*
X-3913500Y4683330D01*
X-3912500Y4687420D01*
X-3911000Y4690920D01*
X-3909500Y4693250D01*
X-3907500Y4695000D01*
X-3905750D01*
X-3903750Y4693830D01*
X-3902250Y4691500D01*
G01X-3887500Y4660000D02*
Y4675750D01*
X-3892500Y4695000D01*
G01X-3882500D02*
X-3887500Y4675750D01*
G54D13*
G01X-4390000Y-300000D02*
X-7880000D01*
G01X-7830000Y-345000D02*
Y-300000D01*
G01X-5460000Y-40000D02*
X-7880000D01*
G01X-7830000Y45000D02*
Y-40000D01*
G01X-5460000D02*
X-7470000D01*
G01X-7420000Y-125000D02*
Y-40000D01*
G01X-6610000Y170000D02*
X-7470000D01*
G01X-7420000Y265000D02*
Y170000D01*
G01X-6610000D02*
X-7200000D01*
G01X-7150000Y3145000D02*
Y170000D01*
G01Y3535000D02*
Y6270000D01*
G01X-6610000D02*
X-7200000D01*
G01X-6610000D02*
X-6840000D01*
G01X-6560000Y-650000D02*
Y-1000000D01*
G01X-6302250Y-950000D02*
X-6560000D01*
G01X-6560010Y114990D02*
Y-550000D01*
G01X1090000Y6600000D02*
X-3850000D01*
Y6370000D01*
G02X-3950000Y6270000I-100000J0D01*
G01X-6560000D01*
Y170000D01*
X-5510000D01*
G02X-5410000Y70000I0J-100000D01*
G01Y-40000D01*
X-4440000D01*
G02X-4340000Y-140000I0J-100000D01*
G01Y-300000D01*
X1090000D01*
Y6600000D01*
G01X-6560000Y720000D02*
Y5720000D01*
X-3160000D01*
Y720000D01*
X-6560000D01*
G01Y6180000D02*
Y7100000D01*
G01X-6560010Y6319990D02*
Y6850000D01*
G01X-6560000Y6320000D02*
Y6570000D01*
G01X-5602250Y6800000D02*
X-6560010D01*
G01X-3202250Y7050000D02*
X-6560000D01*
G01X-5597750Y-950000D02*
X-5410000D01*
G01X-5439060Y140480D02*
X-5690000Y-160000D01*
X-5789250D01*
G01X-5410000Y-600000D02*
Y-1000000D01*
G01X-5202250Y-950000D02*
X-5410000D01*
G01D02*
Y-900000D01*
G01Y-90000D02*
Y-550000D01*
G01X-4897750Y6800000D02*
X-3850000D01*
G01X-4340000Y-650000D02*
Y-1000000D01*
G01X-1952250Y-950000D02*
X-4340000D01*
G01D02*
Y-900000D01*
G01X-4497750Y-950000D02*
X-4340000D01*
G01Y-350000D02*
Y-550000D01*
G01X-4359970Y-80040D02*
X-4500000Y-190000D01*
X-4619250D01*
G01X-3870120Y6309850D02*
X-4120000Y6590000D01*
X-4289250D01*
G01X-3850000Y6650000D02*
Y6850000D01*
G01Y6650000D02*
Y6850000D01*
G01X-1702250Y6800000D02*
X-3850000D01*
G01X-2497750Y7050000D02*
X1090000D01*
G01X-1247750Y-950000D02*
X1090000D01*
G01X-997750Y6800000D02*
X1090000D01*
G01X0Y-50000D02*
Y-650000D01*
G01X147750Y-600000D02*
X0D01*
G01X50000Y0D02*
X1450000D01*
G01X852250Y-600000D02*
X1090000D01*
G01Y-650000D02*
Y-1000000D01*
G01X1140000Y-300000D02*
X1800000D01*
G01X1090000Y6650000D02*
Y7100000D01*
G01Y6650000D02*
Y6850000D01*
G01X1440000Y-300000D02*
X1450000D01*
G01X1400000Y-345000D02*
Y-300000D01*
G01Y45000D02*
Y0D01*
G01X1440000Y6600000D02*
X1800000D01*
G01X1750000Y3055000D02*
Y-300000D01*
G01Y3445000D02*
Y6600000D01*
M02*
