G04 ================== begin FILE IDENTIFICATION RECORD ==================*
G04 Layout Name:  pc069a_toplevel_13.brd*
G04 Film Name:    art_L4_SIGN_pc069a*
G04 File Format:  Gerber RS274X*
G04 File Origin:  Cadence Allegro 17.4-S026*
G04 Origin Date:  Thu Jun 30 14:02:34 2022*
G04 *
G04 Layer:  ETCH/L4_SIGN*
G04 Layer:  PIN/L4_SIGN*
G04 Layer:  VIA CLASS/L4_SIGN*
G04 *
G04 Offset:    (0.0000 0.0000)*
G04 Mirror:    No*
G04 Mode:      Positive*
G04 Rotation:  0*
G04 FullContactRelief:  No*
G04 UndefLineWidth:     0.2540*
G04 ================== end FILE IDENTIFICATION RECORD ====================*
%FSLAX25Y25*MOMM*%
%IR0*IPPOS*OFA0.00000B0.00000*MIA0B0*SFA1.00000B1.00000*%
%ADD10C,.6*%
%ADD18C,1.*%
%ADD13C,1.2*%
%ADD15C,1.6*%
%ADD16C,1.7*%
%ADD12C,3.302*%
%ADD17C,1.524*%
%ADD11C,1.75*%
%ADD14C,1.397*%
%ADD19C,.1*%
%ADD20C,.2*%
%ADD21C,.3*%
%ADD22C,.4*%
%ADD24C,2.0514*%
%ADD23C,1.2544*%
%ADD26C,2.3544*%
%ADD25C,1.8544*%
G75*
%LPD*%
G75*
G36*
G01X-4162040Y3710000D02*
X-3169580D01*
G02X-3162400Y3692660I-6J-10159D01*
G01X-3205740Y3649310D01*
G03X-3218240Y3627380I33732J-33754D01*
G03X-3228610Y3612010I46239J-42380D01*
G02X-3234830Y3609390I-4583J2187D01*
G03X-3255000Y3612720I-20165J-59391D01*
G03Y3487280I0J-62720D01*
G03X-3198390Y3522990I0J62726D01*
G02X-3192170Y3525610I4583J-2187D01*
G03X-3172000Y3522280I20165J59391D01*
G03X-3125390Y3543030I0J62724D01*
G02X-3110240Y3542970I7548J-6799D01*
G03X-3063290Y3521840I46950J41595D01*
G03X-3052560Y3522770I-31J62717D01*
G02X-3046690Y3518680I872J-5006D01*
G03X-2985000Y3467280I61690J11320D01*
G03Y3592720I0J62720D01*
G03X-2995730Y3591790I31J-62717D01*
G02X-3001600Y3595880I-872J5006D01*
G03X-3003510Y3603540I-61691J-11314D01*
G01X-3004450Y3606490D01*
X-3000960Y3609980D01*
G03X-2998520Y3612600I-33676J33809D01*
G01X-2976180Y3634940D01*
X-2762000D01*
Y3307570D01*
G03Y3072430I6003J-117570D01*
G01Y2221740D01*
G02X-2773950Y2211740I-10159J0D01*
G03X-2785000Y2212720I-11044J-61741D01*
G03Y2087280I0J-62720D01*
G03X-2773950Y2088260I6J62721D01*
G02X-2762000Y2078260I1791J-10000D01*
G01Y1432720D01*
X-3717670D01*
X-3745690Y1460740D01*
G02X-3742480Y1477270I7185J7181D01*
G03X-3704280Y1535000I-24522J57730D01*
G03X-3741540Y1592320I-62720J0D01*
G02X-3744320Y1609050I4130J9282D01*
G03X-3724290Y1655000I-42691J45950D01*
G03X-3787010Y1717720I-62720J0D01*
G03X-3789040Y1717690I-88J-62721D01*
G02X-3798800Y1731630I-332J10154D01*
G03X-3794280Y1755000I-58198J23378D01*
G03X-3813250Y1799940I-62717J0D01*
G02X-3806700Y1817370I7086J7283D01*
G03X-3747280Y1880000I-3297J62630D01*
G03X-3872720I-62720J0D01*
G03X-3853750Y1835060I62717J0D01*
G02X-3860300Y1817630I-7086J-7283D01*
G03X-3889580Y1808600I3284J-62635D01*
G02X-3904940Y1816060I-5276J8680D01*
G03X-3997000Y1897720I-92060J-11062D01*
G03Y1712280I0J-92720D01*
G03X-3932780Y1738120I0J92723D01*
G02X-3916160Y1734170I7038J-7327D01*
G03X-3857000Y1692280I59160J20830D01*
G03X-3854970Y1692310I88J62721D01*
G02X-3845210Y1678370I332J-10154D01*
G03X-3849730Y1655000I58198J-23378D01*
G03X-3812470Y1597680I62720J0D01*
G02X-3809690Y1580950I-4130J-9282D01*
G03X-3824730Y1559520I42688J-45952D01*
G02X-3841260Y1556310I-9349J3975D01*
G01X-3963900Y1678950D01*
G03X-4001180Y1694390I-37280J-37286D01*
G01X-4810200D01*
X-4928540Y1812720D01*
X-4927610Y1815670D01*
G03X-4924680Y1834600I-59788J18946D01*
G03X-4970160Y1894910I-62728J0D01*
G02X-4976430Y1909270I2789J9767D01*
G03X-4969660Y1937620I-55951J28345D01*
G03X-5095100I-62720J0D01*
G03X-5049620Y1877310I62728J0D01*
G02X-5043350Y1862950I-2789J-9767D01*
G03X-5050120Y1834600I55951J-28345D01*
G03X-5047870Y1817960I62719J8D01*
G02X-5060360Y1805470I-9799J-2691D01*
G03X-5077000Y1807720I-16648J-60469D01*
G03X-5104400Y1801420I0J-62734D01*
G02X-5118060Y1806300I-4437J9139D01*
G03X-5175000Y1842720I-56940J-26301D01*
G03Y1717280I0J-62720D01*
G03X-5147600Y1723580I0J62734D01*
G02X-5133940Y1718700I4437J-9139D01*
G03X-5077000Y1682280I56940J26301D01*
G03X-5050370Y1688210I8J62722D01*
G01X-5047140Y1689730D01*
X-4896410Y1538990D01*
G03X-4859130Y1523550I37280J37286D01*
G01X-4706020D01*
G02X-4696400Y1510130I-3J-10160D01*
G03X-4699720Y1490000I59399J-20135D01*
G03X-4674660Y1439840I62730J0D01*
G02X-4675360Y1423120I-6101J-8119D01*
G03X-4704720Y1370000I33374J-53120D01*
G03X-4579280I62720J0D01*
G03X-4604340Y1420160I-62730J0D01*
G02X-4603640Y1436880I6101J8119D01*
G03X-4574280Y1490000I-33374J53120D01*
G03X-4577600Y1510130I-62719J-5D01*
G02X-4567980Y1523550I9623J3260D01*
G01X-4219990D01*
G02X-4211620Y1507620I6J-10161D01*
G03X-4222720Y1472000I51618J-35625D01*
G03X-4160000Y1409280I62720J0D01*
G03X-4112670Y1430850I0J62712D01*
G02X-4097330I7670J-6667D01*
G03X-4050000Y1409280I47330J41142D01*
G03X-3992670Y1446570I0J62715D01*
G02X-3976190Y1449640I9292J-4114D01*
G01X-3803880Y1277320D01*
G03X-3766600Y1261880I37280J37286D01*
G01X-2762000D01*
Y1177720D01*
X-3617010D01*
G03X-3654290Y1162280I0J-52726D01*
G01X-3731570Y1085000D01*
X-4283480D01*
G02X-4293040Y1098620I-6J10161D01*
G03X-4289280Y1120000I-58958J21389D01*
G03X-4414720I-62720J0D01*
G03X-4410960Y1098620I62718J9D01*
G02X-4420520Y1085000I-9554J-3459D01*
G01X-5597330D01*
X-5597980Y1089320D01*
G03X-5660000Y1142720I-62020J-9316D01*
G03X-5722020Y1089320I0J-62716D01*
G01X-5722670Y1085000D01*
X-5909850D01*
G03X-5940000Y1092720I-30147J-55001D01*
G03X-5970150Y1085000I-3J-62721D01*
G01X-6312000D01*
Y1400450D01*
X-6308800Y1401730D01*
G03Y1518270I-23198J58270D01*
G01X-6312000Y1519550D01*
Y2042000D01*
G02X-6294200Y2048690I10158J-3D01*
G03X-6247000Y2027280I47200J41323D01*
G03Y2152720I0J62720D01*
G03X-6294200Y2131310I0J-62733D01*
G02X-6312000Y2138000I-7642J6693D01*
G01Y2492490D01*
G02X-6295550Y2500470I10160J2D01*
G03X-6256740Y2487020I38810J49268D01*
G03Y2612460I0J62720D01*
G03X-6295550Y2599010I0J-62718D01*
G02X-6312000Y2606990I-6290J7978D01*
G01Y3710000D01*
X-6013490D01*
G02X-6004220Y3695680I0J-10160D01*
G03X-6009720Y3670000I57219J-25684D01*
G03X-5884280I62720J0D01*
G03X-5889780Y3695680I-62719J-4D01*
G02X-5880510Y3710000I9270J4160D01*
G01X-5658030D01*
G02X-5649520Y3694290I2J-10159D01*
G03X-5659720Y3660000I52521J-34285D01*
G03X-5534280I62720J0D01*
G03X-5544480Y3694290I-62721J5D01*
G02X-5535970Y3710000I8508J5551D01*
G01X-4981030D01*
G02X-4972520Y3694290I2J-10159D01*
G03X-4982720Y3660000I52521J-34285D01*
G03X-4931700Y3598380I62721J0D01*
G02X-4927520Y3580260I-1899J-9980D01*
G03X-4952720Y3530000I37520J-50260D01*
G03X-4827280I62720J0D01*
G03X-4829490Y3546510I-62721J7D01*
G01X-4830270Y3549360D01*
X-4824590Y3555040D01*
X-4811330Y3541770D01*
X-4810990Y3540370D01*
G03X-4750000Y3492280I60990J14630D01*
G03X-4691950Y3531260I0J62715D01*
G02X-4673820Y3532630I9407J-3843D01*
G03X-4671830Y3529520I53800J32234D01*
G02X-4675320Y3514900I-8399J-5722D01*
G03X-4707720Y3460000I30313J-54900D01*
G03X-4654830Y3398060I62714J0D01*
G02X-4649240Y3380840I-1594J-10035D01*
G01X-4686720Y3343360D01*
X-5171360D01*
G03X-5205100Y3329380I5J-47718D01*
G01X-5360740Y3173740D01*
G03X-5374720Y3140000I33738J-33745D01*
G01Y2929840D01*
G02X-5387090Y2919920I-10161J-1D01*
G03X-5400700Y2921420I-13635J-61217D01*
G03Y2795980I0J-62720D01*
G03X-5394820Y2796260I-40J62718D01*
G02X-5383750Y2785190I953J-10117D01*
G03X-5384030Y2779310I62438J-5920D01*
G03X-5258590I62720J0D01*
G03X-5268070Y2812460I-62718J-5D01*
G01X-5228000Y2852540D01*
G03X-5187000Y2837280I41000J47449D01*
G03Y2962720I0J62720D01*
G03X-5217090Y2955030I0J-62714D01*
G02X-5223970Y2957010I-2443J4455D01*
G03X-5231890Y2967480I-41655J-23279D01*
G01X-5234040Y2969640D01*
Y3101490D01*
X-5222760Y3112780D01*
G02X-5208110Y3112480I7181J-7188D01*
G03X-5162000Y3092280I46110J42527D01*
G03X-5099280Y3155000I0J62720D01*
G03X-5108230Y3187290I-62723J0D01*
G02X-5099520Y3202680I8710J5230D01*
G01X-4969490D01*
G02X-4959390Y3191470I-4J-10158D01*
G03X-4959720Y3185000I62392J-6426D01*
G03X-4897000Y3122280I62720J0D01*
G03X-4837580Y3164930I0J62717D01*
G02X-4818760Y3166010I9627J-3246D01*
G03X-4762000Y3129980I56760J26694D01*
G03X-4699280Y3192550I0J62720D01*
G02X-4689120Y3202680I10160J-30D01*
G01X-4684880D01*
G02X-4674720Y3192550I0J-10160D01*
G03X-4612000Y3129980I62720J150D01*
G03X-4549280Y3192700I0J62720D01*
G03X-4573140Y3241930I-62718J0D01*
G02X-4574030Y3257090I6293J7976D01*
G01X-4420600Y3410530D01*
G02X-4406240Y3410550I7190J-7183D01*
G03X-4362000Y3392280I44248J44447D01*
G03X-4310360Y3419400I0J62725D01*
G02X-4293640I8360J-5770D01*
G03X-4242000Y3392280I51640J35605D01*
G03X-4179280Y3455000I0J62720D01*
G03X-4197550Y3499240I-62717J-8D01*
G02X-4197530Y3513600I7203J7170D01*
G01X-4176020Y3535110D01*
G03X-4162040Y3568850I-33738J33745D01*
G01Y3710000D01*
G37*
G36*
G01X-4491570D02*
X-4306870D01*
G02X-4316940Y3692500I-6014J-8186D01*
G03X-4342000Y3697720I-25051J-57502D01*
G03X-4404720Y3635000I0J-62720D01*
G03X-4402390Y3618070I62719J6D01*
G02X-4410850Y3605260I-9783J-2738D01*
G03X-4438390Y3591680I6212J-47314D01*
G01X-4565840Y3464240D01*
G02X-4583060Y3469830I-7185J7184D01*
G03X-4593170Y3495310I-61941J-9831D01*
G02X-4589680Y3509930I8399J5722D01*
G03X-4557280Y3564830I-30313J54900D01*
G03X-4557310Y3566610I-62717J-167D01*
G01X-4557370Y3568800D01*
X-4505550Y3620620D01*
G03X-4491570Y3654360I-33738J33745D01*
G01Y3710000D01*
G37*
%LPC*%
G75*
G36*
G01X-5563400Y1434890D02*
G03X-5569580Y1450070I-8653J5325D01*
G02X-5639720Y1540000I22582J89930D01*
G02X-5454280I92720J0D01*
G02X-5482460Y1473430I-92720J0D01*
G03X-5480210Y1457200I7073J-7290D01*
G02X-5447280Y1402000I-29800J-55200D01*
G02X-5572720I-62720J0D01*
G02X-5563400Y1434890I62718J-7D01*
G37*
G36*
G01X-2976510Y1706020D02*
G03X-2970070Y1721010I-2344J9886D01*
G02X-2978550Y1752500I54228J31490D01*
G02X-2853110I62720J0D01*
G02X-2901320Y1691480I-62722J0D01*
G03X-2907760Y1676490I2344J-9886D01*
G02X-2899280Y1645000I-54228J-31490D01*
G02X-2962000Y1582280I-62720J0D01*
G02X-2982840Y1585840I-10J62722D01*
G03X-2989320Y1582730I-1687J-4791D01*
G02X-3048500Y1540780I-59180J20768D01*
G02Y1666220I0J62720D01*
G02X-3027660Y1662660I10J-62722D01*
G03X-3021180Y1665770I1687J4791D01*
G02X-2976510Y1706020I59182J-20768D01*
G37*
G36*
G01X-3236070Y1819930D02*
G03X-3239100Y1826300I-4815J1615D01*
G02X-3279720Y1885000I22104J58700D01*
G02X-3154280I62720J0D01*
G02X-3157530Y1865070I-62733J0D01*
G03X-3154500Y1858700I4815J-1615D01*
G02X-3113880Y1800000I-22104J-58700D01*
G02X-3239320I-62720J0D01*
G02X-3236070Y1819930I62733J0D01*
G37*
G36*
G01X-5443660Y1931490D02*
G03X-5455510Y1943340I-9986J1864D01*
G02X-5467000Y1942280I-11482J61661D01*
G02X-5404280Y2005000I0J62720D01*
G02X-5405340Y1993510I-62721J-8D01*
G03X-5393490Y1981660I9986J-1864D01*
G02X-5382000Y1982720I11482J-61661D01*
G02X-5444720Y1920000I0J-62720D01*
G02X-5443660Y1931490I62721J8D01*
G37*
G36*
G01X-3059880Y2089070D02*
G03X-3066020Y2085320I-1201J-4935D01*
G02X-3127000Y2037280I-60980J14683D01*
G02Y2162720I0J62720D01*
G02X-3112120Y2160930I3J-62720D01*
G03X-3105980Y2164680I1201J4935D01*
G02X-3045000Y2212720I60980J-14683D01*
G02Y2087280I0J-62720D01*
G02X-3059880Y2089070I-3J62720D01*
G37*
G36*
G01X-5009320Y2269530D02*
G03X-5026040Y2272320I-9282J-4128D01*
G02X-5072000Y2252280I-45960J42683D01*
G02Y2377720I0J62720D01*
G02X-5014680Y2340470I0J-62727D01*
G03X-4997960Y2337680I9282J4128D01*
G02X-4952000Y2357720I45960J-42683D01*
G02Y2232280I0J-62720D01*
G02X-5009320Y2269530I0J62727D01*
G37*
G36*
G01X-3275870Y2612010D02*
G03X-3276950Y2626650I-7547J6803D01*
G02X-3299720Y2675000I39948J48350D01*
G02X-3174280I62720J0D01*
G02X-3190430Y2632990I-62714J0D01*
G03X-3189350Y2618350I7547J-6803D01*
G02X-3166580Y2570000I-39948J-48350D01*
G02X-3292020I-62720J0D01*
G02X-3275870Y2612010I62714J0D01*
G37*
G36*
G01X-4263740Y2884890D02*
G03X-4245260I9240J4231D01*
G02X-4188250Y2921470I57010J-26135D01*
G02X-4125530Y2858750I0J-62720D01*
G02X-4162110Y2801740I-62715J0D01*
G03Y2783260I4231J-9240D01*
G02Y2669240I-26135J-57010D01*
G03Y2650760I4231J-9240D01*
G02Y2536740I-26135J-57010D01*
G03Y2518260I4231J-9240D01*
G02X-4125530Y2461250I-26135J-57010D01*
G02X-4188250Y2398530I-62720J0D01*
G02X-4245260Y2435110I0J62715D01*
G03X-4263740I-9240J-4231D01*
G02X-4377760I-57010J26135D01*
G03X-4396240I-9240J-4231D01*
G02X-4510260I-57010J26135D01*
G03X-4528740I-9240J-4231D01*
G02X-4585750Y2398530I-57010J26135D01*
G02X-4648470Y2461250I0J62720D01*
G02X-4611890Y2518260I62715J0D01*
G03Y2536740I-4231J9240D01*
G02Y2650760I26135J57010D01*
G03Y2669240I-4231J9240D01*
G02Y2783260I26135J57010D01*
G03Y2801740I-4231J9240D01*
G02X-4648470Y2858750I26135J57010D01*
G02X-4585750Y2921470I62720J0D01*
G02X-4528740Y2884890I0J-62715D01*
G03X-4510260I9240J4231D01*
G02X-4396240I57010J-26135D01*
G03X-4377760I9240J4231D01*
G02X-4263740I57010J-26135D01*
G37*
G36*
G01X-5473290Y3343860D02*
G03Y3360430I-5873J8285D01*
G02X-5499720Y3411590I36300J51160D01*
G02X-5374280I62720J0D01*
G02X-5400710Y3360430I-62730J0D01*
G03Y3343860I5873J-8285D01*
G02X-5374280Y3292700I-36300J-51160D01*
G02X-5499720I-62720J0D01*
G02X-5473290Y3343860I62730J0D01*
G37*
G36*
G01X-3804230Y2851110D02*
G02X-3857000Y2822280I-52770J33880D01*
G02Y2947720I0J62720D01*
G02X-3797900Y2905990I0J-62715D01*
G03X-3779770Y2903890I9580J3392D01*
G02X-3727000Y2932720I52770J-33880D01*
G02Y2807280I0J-62720D01*
G02X-3786100Y2849010I0J62715D01*
G03X-3804230Y2851110I-9580J-3392D01*
G37*
G54D24*
X-4132000Y1265000D03*
X-3567000Y3230000D03*
G54D23*
X-6152000Y1320000D03*
X-4786000Y1221000D03*
X-3892000Y1195000D03*
X-5962000Y1460000D03*
X-3557000Y1755000D03*
X-3510000Y1530000D03*
X-3307300Y1630000D03*
X-2845000Y1547300D03*
X-5962000Y2090000D03*
X-6117000Y1970000D03*
X-5082000Y2110000D03*
X-4902000Y2070000D03*
X-4612000Y2130000D03*
X-4554100Y1997900D03*
X-4262000Y2095000D03*
X-3457000Y2070000D03*
X-3650000Y1920000D03*
X-5971740Y2549740D03*
X-5172000Y2510000D03*
X-4922000Y2525000D03*
X-3617000Y2210000D03*
X-3597000Y2485000D03*
X-3237000Y2285000D03*
X-3384500Y2467500D03*
X-3342000Y2190000D03*
X-2977000Y2285000D03*
X-6117000Y2645000D03*
X-5947000Y2790000D03*
X-5577000Y2795000D03*
X-5187000Y2730000D03*
X-4919700Y2885000D03*
Y2735000D03*
X-3847000Y2635000D03*
X-3567000Y2675000D03*
X-3597000Y3005000D03*
X-3187000D03*
X-5952000Y3245000D03*
X-5622000Y3230000D03*
X-4412000Y3190000D03*
X-4262000D03*
X-4022000Y3385000D03*
X-3854300Y3035000D03*
X-5315000Y3530000D03*
G54D26*
X-3010000Y3190000D03*
X-3264000D03*
X-3966000Y3580000D03*
X-3712000D03*
X-3458000D03*
G54D25*
X-5547000Y1745000D03*
X-5737000Y1630000D03*
X-4300000Y1810000D03*
X-4510000D03*
%LPD*%
G75*
G54D10*
X-6152000Y1320000D03*
X-5962000Y1460000D03*
X-6332000D03*
X-5962000Y2090000D03*
X-6247000D03*
X-6117000Y1970000D03*
X-5971740Y2549740D03*
X-6256740D03*
X-6117000Y2645000D03*
X-5635000Y910000D03*
X-5849710Y800400D03*
X-5760110Y890000D03*
X-5660000Y1080000D03*
X-5940000Y1030000D03*
X-5587000Y2060000D03*
X-5787000Y1910000D03*
X-5937000Y2310000D03*
X-5737000D03*
X-5947000Y2790000D03*
X-5577000Y2795000D03*
X-5587000Y2610000D03*
X-5787000Y2710000D03*
X-5952000Y3245000D03*
X-5622000Y3230000D03*
X-5597000Y3660000D03*
X-5947000Y3670000D03*
X-5525000Y822300D03*
X-5510000Y1402000D03*
X-5382000Y1920000D03*
X-5467000Y2005000D03*
X-5175000Y1780000D03*
X-5172000Y2510000D03*
X-5187000Y2900000D03*
Y2730000D03*
X-5437000Y2610000D03*
X-5321310Y2779310D03*
X-5400700Y2858700D03*
X-5162000Y3155000D03*
X-5437000Y3292700D03*
Y3411590D03*
X-5315000Y3530000D03*
X-4786000Y1221000D03*
X-5077000Y1745000D03*
X-5032380Y1937620D03*
X-5082000Y2110000D03*
X-4902000Y2070000D03*
X-4987400Y1834600D03*
X-4922000Y2525000D03*
X-5072000Y2315000D03*
X-4952000Y2295000D03*
X-4919700Y2885000D03*
Y2735000D03*
X-4762000Y3192700D03*
X-4897000Y3185000D03*
X-4927000Y3035000D03*
X-4890000Y3530000D03*
X-4920000Y3660000D03*
X-4750000Y3555000D03*
X-4962700Y5762500D03*
Y6057500D03*
X-4352000Y1120000D03*
X-4642000Y1370000D03*
X-4637000Y1490000D03*
X-4612000Y2130000D03*
X-4554100Y1997900D03*
X-4585750Y2593750D03*
X-4453250D03*
X-4320750D03*
X-4585750Y2461250D03*
X-4453250D03*
X-4320750D03*
Y2726250D03*
X-4453250D03*
X-4585750D03*
Y2858750D03*
X-4453250D03*
X-4320750D03*
X-4612000Y3192700D03*
X-4412000Y3190000D03*
X-4342000Y3635000D03*
X-4700000Y3625000D03*
X-4362000Y3455000D03*
X-4645000Y3460000D03*
X-4481590Y3669590D03*
X-4620000Y3564830D03*
Y3675790D03*
X-4667500Y5762500D03*
X-4527500Y5910000D03*
X-4652500Y6057500D03*
X-3892000Y1195000D03*
X-4050000Y1472000D03*
X-4160000D03*
X-4262000Y2095000D03*
X-4188250Y2593750D03*
Y2461250D03*
Y2726250D03*
Y2858750D03*
X-4262000Y3190000D03*
X-4022000Y3385000D03*
X-4112000Y3192700D03*
X-4242000Y3455000D03*
X-3917000Y5520000D03*
X-3787010Y1655000D03*
X-3557000Y1755000D03*
X-3767000Y1535000D03*
X-3857000Y1755000D03*
X-3510000Y1530000D03*
X-3457000Y2070000D03*
X-3650000Y1920000D03*
X-3810000Y1880000D03*
X-3497000Y1890000D03*
X-3617000Y2210000D03*
X-3597000Y2485000D03*
X-3847000D03*
X-3857000Y2885000D03*
X-3847000Y2635000D03*
X-3567000Y2675000D03*
X-3727000Y2870000D03*
X-3597000Y3005000D03*
X-3854300Y3035000D03*
X-3550000Y4254500D03*
X-3581400Y4156300D03*
X-3550000Y4381500D03*
Y4572000D03*
X-3830000Y4530000D03*
Y4420000D03*
X-3550000Y4826000D03*
Y4980000D03*
Y4699000D03*
X-3607040Y4894030D03*
X-3677000Y5060000D03*
X-3590000Y5930900D03*
X-3551970Y5571410D03*
X-3769430D03*
X-3760000Y5850000D03*
X-3859500Y5840500D03*
X-3590000Y6045200D03*
X-3804200Y6117900D03*
X-3307300Y1630000D03*
X-3048500Y1603500D03*
X-3387000Y1712300D03*
X-3045000Y2150000D03*
X-3127000Y2100000D03*
X-3212200Y1995000D03*
X-3217000Y1885000D03*
X-3176600Y1800000D03*
X-3229300Y2570000D03*
X-3237000Y2285000D03*
X-3407000Y2275000D03*
X-3384500Y2467500D03*
X-3342000Y2190000D03*
X-3237000Y2675000D03*
X-3187000Y3005000D03*
X-3255000Y3550000D03*
X-3063290Y3584560D03*
X-3172000Y3585000D03*
X-3225800Y4254500D03*
X-3240000Y4572000D03*
X-3225800Y4381500D03*
X-3240000Y4699000D03*
Y4953000D03*
X-3122000Y5105000D03*
X-3240000Y4820000D03*
X-3400000Y5588250D03*
X-2890000Y1215000D03*
X-2845000Y1547300D03*
X-2915830Y1752500D03*
X-2962000Y1645000D03*
X-2785000Y2150000D03*
X-2672000Y1910000D03*
X-2977000Y2285000D03*
X-2985000Y3530000D03*
X-2959100Y4241800D03*
X-2971800Y4419600D03*
X-2722700Y4650000D03*
X-2730000Y4416820D03*
X-2781300Y4584700D03*
X-2796000Y5502100D03*
Y5797100D03*
X-2910000Y5649600D03*
X-2792700Y6082500D03*
X-2910000Y6230000D03*
X-2792700Y6377500D03*
X-2582000Y2100000D03*
Y1915000D03*
X-2467000Y1990000D03*
X-2377400Y1900400D03*
X-2592000Y2215000D03*
X-2455000Y2470000D03*
X-2305000D03*
X-2602000Y2725000D03*
X-2570000Y2870000D03*
Y3130000D03*
X-2520000Y3340000D03*
X-2431000Y3201000D03*
X-2590000Y3540000D03*
X-2580000Y4064100D03*
X-2362000Y4388100D03*
X-2566600Y4957700D03*
X-2258010Y5041300D03*
X-2482100Y5502100D03*
X-2210000Y5297300D03*
Y5642700D03*
X-2270000Y5758200D03*
X-2240000Y6140000D03*
X-2492500Y6377500D03*
X-1982000Y980000D03*
X-1987000Y1435000D03*
X-2122000Y1645000D03*
X-2170000Y2057300D03*
X-1982000Y1860000D03*
X-2170000Y1935000D03*
X-2106720Y2010500D03*
X-1992080D03*
X-1902000Y2215000D03*
X-2015000Y2475000D03*
X-2165000D03*
X-1872000Y2725000D03*
X-1909590Y2984590D03*
X-1942000Y2845000D03*
X-1970000Y3340000D03*
X-2050000Y3190000D03*
X-1842000Y3251300D03*
X-1985000Y3612700D03*
X-1852000Y4250030D03*
X-1927380Y4261990D03*
X-2110000Y4312000D03*
X-1860000Y4530000D03*
Y4430000D03*
X-1810000Y4480000D03*
X-1937000Y4625000D03*
X-2070000Y4647000D03*
X-2042000Y4485900D03*
X-2137300Y5102450D03*
X-2130000Y4770000D03*
X-1867000Y4710000D03*
X-1972700Y5125000D03*
X-2060000Y5297300D03*
X-1910000D03*
X-2060000Y5642700D03*
X-1910000D03*
X-1612000Y985000D03*
X-1657000Y1420000D03*
X-1422140Y2032440D03*
X-1632000Y1850000D03*
X-1752000Y1900000D03*
X-1382000Y1905000D03*
X-1757000Y2355000D03*
X-1427000Y2340000D03*
X-1402000Y2770000D03*
X-1752000Y2780000D03*
X-1647000Y2925000D03*
X-1663700Y3381300D03*
X-1767300Y3095000D03*
X-1760800Y3335000D03*
X-1750000Y3500000D03*
X-1760000Y3595000D03*
X-1772000Y4249800D03*
X-1694800Y4260000D03*
X-1439200Y4669750D03*
X-1760000Y4530000D03*
Y4430000D03*
X-1687000Y4625000D03*
X-1570800Y4796500D03*
X-1762000Y4710000D03*
X-1652000Y4855000D03*
X-1498600Y5500400D03*
X-1757000Y5160000D03*
X-1627000Y5190000D03*
X-1575000Y5715000D03*
X-1520000Y5905000D03*
X-1700000Y5765360D03*
Y5880000D03*
X-1565000Y6200000D03*
Y5970000D03*
X-1700000Y6134640D03*
Y6020000D03*
X-1498600Y6380400D03*
X-1003500Y580000D03*
X-1203200Y705000D03*
X-1000000Y1480000D03*
X-1130500Y1360000D03*
X-977380Y2172380D03*
X-1110000Y2130000D03*
X-1041020Y2348980D03*
X-1070000Y2445000D03*
X-1194070Y2214070D03*
X-1080000Y2680000D03*
X-1060000Y3065000D03*
X-980000Y3381300D03*
X-1157380Y3707380D03*
X-1118300Y3806300D03*
X-1291820Y3911820D03*
X-1197000Y4125000D03*
X-1197690Y3885690D03*
X-1050000Y4796500D03*
X-976800Y4861500D03*
X-1313500D03*
X-1000000Y4730000D03*
X-1107000Y4985000D03*
X-1307600Y5186500D03*
X-970000Y5470000D03*
X-1193200Y5500400D03*
X-1077000Y5165000D03*
X-960000Y5902700D03*
X-1060000D03*
X-1193200Y5795400D03*
X-1060000Y5645000D03*
X-970000Y6055000D03*
X-1193200Y6085400D03*
X-1060000Y6230000D03*
X-1193200Y6380400D03*
X-960000Y6490000D03*
X-1060000D03*
X-780000Y130000D03*
Y215000D03*
X-876500Y900000D03*
X-749500D03*
X-640000Y1340000D03*
Y1420000D03*
X-904100Y3035000D03*
X-655360Y3273360D03*
X-632000Y3395000D03*
X-904100Y3495000D03*
X-742000Y3465000D03*
X-570000Y3490000D03*
X-795000Y4630000D03*
X-590000Y4895000D03*
X-680000Y4991500D03*
X-713600Y5190000D03*
X-680000Y5825000D03*
X-620000Y5900000D03*
X-770000Y5615000D03*
X-880000Y5900000D03*
X-600220Y5665490D03*
Y5550850D03*
X-770000Y6200000D03*
X-600220Y6250490D03*
Y6135850D03*
X-620000Y6410000D03*
Y6490000D03*
X-880000D03*
X-436500Y740500D03*
X-309500Y613500D03*
Y867500D03*
X-182500Y740500D03*
Y613500D03*
X-309500Y1248500D03*
X-182500Y1121500D03*
X-309000Y1121000D03*
X-436500Y1629500D03*
X-182500D03*
X-309500D03*
X-182500Y1883500D03*
X-436500D03*
X-311000Y2139000D03*
X-182500Y2137500D03*
Y2391500D03*
X-437500Y2392500D03*
X-309500Y2391500D03*
X-182500Y2518500D03*
Y2264500D03*
Y2772500D03*
X-436500Y2645500D03*
X-309500Y2899500D03*
X-182500Y2645500D03*
X-436500Y3407500D03*
X-182500Y3153500D03*
X-436500D03*
X-299000Y3270000D03*
X-309500Y3661500D03*
X-436500Y3915500D03*
X-182500D03*
X-309500D03*
Y4296500D03*
X-482600Y4614000D03*
X-182500Y4296500D03*
Y4550500D03*
X-309500Y4804500D03*
X-413400Y5059160D03*
X-182500Y5058500D03*
X-309500D03*
X-310000Y5430000D03*
X-182500Y5439500D03*
X-319000Y5249000D03*
X-182500Y5185500D03*
Y5312500D03*
X-309500Y5693500D03*
X-436500Y5566500D03*
X-180000Y5690000D03*
X-500000Y6305000D03*
Y6065000D03*
X-55500Y613500D03*
X198500Y867500D03*
X199500Y739500D03*
X-55500Y867500D03*
X198500Y613500D03*
X-55500Y740500D03*
X198500Y1248500D03*
X-55500D03*
X195000Y1125000D03*
X-52500Y1632500D03*
X198500Y1629500D03*
X200000Y2012000D03*
X-59000Y2141000D03*
X-55500Y2010500D03*
Y2391500D03*
X200000Y2270000D03*
X71500Y2645500D03*
X77000Y2767000D03*
X-58800Y2775800D03*
X-58000Y2902000D03*
X77500Y3147500D03*
X198000Y3408000D03*
X71500Y3280500D03*
X-55500Y3026500D03*
Y3153500D03*
Y3280500D03*
Y3407500D03*
X198500Y3661500D03*
X-55500D03*
X201500Y3918500D03*
X-55500Y3915500D03*
X198500Y4169500D03*
X71500Y4677500D03*
X200500Y4679500D03*
X198500Y4423500D03*
X-51000Y4419000D03*
X-55880Y4551680D03*
X-53340Y4676140D03*
X70000Y5060000D03*
X-55500Y4804500D03*
Y4931500D03*
X71500Y5185500D03*
Y5439500D03*
X-55500Y5312500D03*
Y5439500D03*
Y5693500D03*
X71500Y5566500D03*
X-55500D03*
X325500Y613500D03*
Y867500D03*
X452500Y740500D03*
X706500Y613500D03*
X452500D03*
Y867500D03*
X579500D03*
X325500Y740500D03*
X579500D03*
X325500Y1121500D03*
X452500Y1248500D03*
Y994500D03*
X706500D03*
X579500Y1248500D03*
X452500Y1121500D03*
X325500Y994500D03*
X706500Y1121500D03*
Y1502500D03*
X579500Y1756500D03*
X452500Y1629500D03*
X579500Y1375500D03*
X706500Y1629500D03*
X325500D03*
X452500Y1756500D03*
Y2010500D03*
X325500Y2137500D03*
X706500Y2010500D03*
X452500Y2137500D03*
X323000Y2013000D03*
X579500Y1883500D03*
X706500Y2137500D03*
X452500Y1883500D03*
X579500Y2264500D03*
X452500Y2518500D03*
X325500D03*
X328500Y2388500D03*
X579500Y2391500D03*
X706500Y2518500D03*
Y2645500D03*
X704500Y2774500D03*
X452500Y2645500D03*
X329000Y2769000D03*
X325500Y3026500D03*
X452500Y3153500D03*
X579500Y3407500D03*
X325500Y3153500D03*
X452500Y3280500D03*
X325500Y3407500D03*
X579500Y3026500D03*
X706500Y3153500D03*
Y3280500D03*
X579000Y3661000D03*
X580500Y3789500D03*
X325000Y3790000D03*
X706500Y3661500D03*
X579500Y3534500D03*
X706500Y3788500D03*
X325500Y3661500D03*
Y3534500D03*
X579500Y3915500D03*
X452500Y4042500D03*
X325500Y3915500D03*
X579500Y4042500D03*
X706500Y4169500D03*
X452500D03*
X579500D03*
X327660Y4043680D03*
X706500Y4296500D03*
X579500D03*
X706500Y4550500D03*
X579500Y4677500D03*
X325500Y4550500D03*
X580680Y4423880D03*
X453860Y4425660D03*
X453000Y4297000D03*
X329500Y4300500D03*
X325500Y4804500D03*
X579500Y4931500D03*
X706500Y4804500D03*
X325500Y5058500D03*
Y4931500D03*
X579500Y5058500D03*
X572500Y4797500D03*
X706500Y5185500D03*
X325000Y5185000D03*
X579500Y5439500D03*
X325500D03*
X706500Y5312500D03*
X326500Y5313500D03*
X578500Y5311500D03*
X577000Y5183000D03*
X706500Y5693500D03*
X326000Y5694000D03*
X577500Y5692500D03*
X325000Y5565000D03*
X579500Y5566500D03*
G54D20*
G01X-1700000Y6134640D02*
X-1665360Y6100000D01*
X-1510000D01*
X-1423220Y6013220D01*
X-1002760D01*
X-991840Y6002300D01*
X68080D01*
X101180Y6035400D01*
X624600D01*
X901700Y5758300D01*
Y3081700D01*
X641700Y2821700D01*
X-12900D01*
X-58800Y2775800D01*
G01X-1700000Y6020000D02*
X-1665400Y6054600D01*
X-1528810D01*
X-1442030Y5967820D01*
X-1021570D01*
X-1010650Y5956900D01*
X86890D01*
X119990Y5990000D01*
X605790D01*
X856300Y5739490D01*
Y3100510D01*
X622890Y2867100D01*
X-23100D01*
X-58000Y2902000D01*
G54D11*
X-6090000Y3835600D03*
Y4693600D03*
X-5590000Y5260600D03*
X-5090000Y3835600D03*
X-4590000Y5260600D03*
X-4090000Y3835600D03*
Y4403600D03*
Y4943600D03*
X-3590000Y5260600D03*
X-2590000D03*
G54D21*
G01X-182500Y5185500D02*
X-241700Y5244700D01*
Y5253310D01*
X-295090Y5306700D01*
X-350350D01*
X-597010Y5060040D01*
X-1659280D01*
X-1659320Y5060000D01*
X-1678020D01*
X-1910320Y4827700D01*
X-2153910D01*
X-2194550Y4787060D01*
X-2798260D01*
X-3111760Y4473560D01*
Y4131260D01*
X-3193260Y4049760D01*
X-4179760D01*
X-4209760Y4019760D01*
Y3568850D01*
X-4265910Y3512700D01*
X-4385910D01*
X-4648210Y3250400D01*
X-5152620D01*
X-5281760Y3121260D01*
Y2949870D01*
X-5265630Y2933740D01*
Y2882390D01*
X-5321310Y2826710D01*
Y2779310D01*
G01X-182500Y5312500D02*
X-236910D01*
X-276350Y5351940D01*
X-369040D01*
X-615740Y5105240D01*
X-1696760D01*
X-1929060Y4872940D01*
X-2172650D01*
X-2213290Y4832300D01*
X-2817000D01*
X-3157000Y4492300D01*
Y4150000D01*
X-3212000Y4095000D01*
X-4198500D01*
X-4255000Y4038500D01*
Y3587590D01*
X-4284650Y3557940D01*
X-4404650D01*
X-4666950Y3295640D01*
X-5171360D01*
X-5327000Y3140000D01*
Y2931130D01*
X-5310870Y2915000D01*
Y2901130D01*
X-5353300Y2858700D01*
X-5400700D01*
G01X-55500Y5439500D02*
X-91300Y5475300D01*
X-136690D01*
X-158590Y5497200D01*
X-324410D01*
X-517010Y5304600D01*
X-1562950D01*
X-1750900Y5492550D01*
X-2256100D01*
X-2359650Y5389000D01*
X-2956860D01*
X-2957460Y5389600D01*
X-4104050D01*
X-4500000Y4993650D01*
Y3822100D01*
X-4505000Y3817100D01*
X-4509290D01*
X-4539290Y3787100D01*
Y3654360D01*
X-4620000Y3573650D01*
Y3564830D01*
G01Y3675790D02*
X-4599690D01*
X-4594690Y3680790D01*
Y3810050D01*
X-4555400Y3849340D01*
Y5016600D01*
X-4127000Y5445000D01*
X-2934510D01*
X-2933910Y5444400D01*
X-2382600D01*
X-2279050Y5547950D01*
X-1727950D01*
X-1540000Y5360000D01*
X-539960D01*
X-347360Y5552600D01*
X-135640D01*
X-113740Y5530700D01*
X-91300D01*
X-55500Y5566500D01*
G01X-3063290Y3584560D02*
Y3615130D01*
X-3034700Y3643720D01*
Y3643910D01*
X-3000910Y3677700D01*
X-3000720D01*
X-2995760Y3682660D01*
X-1289340D01*
X-1165700Y3806300D01*
X-1118300D01*
G01X-3172000Y3585000D02*
Y3615570D01*
X-3059670Y3727900D01*
X-1308080D01*
X-1197690Y3838290D01*
Y3885690D01*
G01X-55500Y3026500D02*
X-69400Y3040400D01*
X-583260D01*
X-726960Y2896700D01*
X-756690D01*
X-763590Y2889800D01*
X-986850D01*
X-1924120Y1952530D01*
X-2012470D01*
X-2012740Y1952800D01*
X-2015990D01*
X-2037760Y1974570D01*
X-2070790D01*
X-2106720Y2010500D01*
G01X-1992080D02*
X-1989510Y2007930D01*
X-1947070D01*
X-1009800Y2945200D01*
X-786540D01*
X-779640Y2952100D01*
X-749910D01*
X-606210Y3095800D01*
X-113200D01*
X-55500Y3153500D01*
G01X-182500Y2518500D02*
X-218300Y2554300D01*
X-357310D01*
X-495200Y2416410D01*
Y2096450D01*
X-692050Y1899600D01*
X-1130490D01*
X-1192940Y1962050D01*
Y2043800D01*
X-1110000Y2126740D01*
Y2130000D01*
G01X-182500Y2645500D02*
X-218300Y2609700D01*
X-380260D01*
X-550600Y2439360D01*
Y2119400D01*
X-715000Y1955000D01*
X-1107540D01*
X-1137540Y1985000D01*
Y2020850D01*
X-1052300Y2106090D01*
Y2153910D01*
X-1086100Y2187710D01*
X-1167710D01*
X-1194070Y2214070D01*
G01X452500Y1248500D02*
X533400Y1167600D01*
Y1075400D01*
X452500Y994500D01*
G54D12*
X-5460000Y380000D03*
X-5475000Y6050000D03*
X0Y0D03*
Y6300000D03*
G54D22*
G01X-5849710Y800400D02*
X-5815410D01*
X-5699610Y684600D01*
X-4734600D01*
X-4661600Y611600D01*
X-4037920D01*
X-3589920Y1059600D01*
X-2705390D01*
X-2220830Y1544160D01*
Y1897150D01*
X-2232700Y1909020D01*
Y1960980D01*
X-2220830Y1972850D01*
Y2019450D01*
X-2232700Y2031320D01*
Y2083280D01*
X-2195980Y2120000D01*
X-2188720D01*
X-2031020Y2277700D01*
X-2006810D01*
X-1196600Y3087910D01*
Y3443910D01*
X-942600Y3697910D01*
Y4300810D01*
X-358150Y4885260D01*
X-235260D01*
X-195000Y4845000D01*
X-96000D01*
X-55500Y4804500D01*
G01X-5760110Y890000D02*
X-5751890Y881780D01*
Y829370D01*
X-5672520Y750000D01*
X-4707510D01*
X-4634510Y677000D01*
X-4065010D01*
X-3617010Y1125000D01*
X-2732480D01*
X-2286230Y1571250D01*
Y1870060D01*
X-2298100Y1881930D01*
Y1988070D01*
X-2295020Y1991150D01*
Y2001150D01*
X-2298100Y2004230D01*
Y2110370D01*
X-2223070Y2185400D01*
X-2215810D01*
X-2058110Y2343100D01*
X-2033900D01*
X-1262000Y3115000D01*
Y3471000D01*
X-1008000Y3725000D01*
Y4327900D01*
X-385240Y4950660D01*
X-208170D01*
X-167910Y4910400D01*
X-76600D01*
X-55500Y4931500D01*
G01X-2467000Y1990000D02*
Y1956780D01*
X-2519300Y1904480D01*
Y1598200D01*
X-2737500Y1380000D01*
X-3739510D01*
X-4001180Y1641670D01*
X-4832040D01*
X-4987400Y1797030D01*
Y1834600D01*
G01X-2377400Y1900400D02*
X-2430890D01*
X-2453900Y1877390D01*
Y1571110D01*
X-2710410Y1314600D01*
X-3766600D01*
X-4028270Y1576270D01*
X-4859130D01*
X-5027860Y1745000D01*
X-5077000D01*
G01X-3859500Y5840500D02*
X-4256500D01*
X-4794340Y5302660D01*
Y3599340D01*
X-4750000Y3555000D01*
G54D13*
X-5547000Y1540000D03*
Y1745000D03*
X-5737000Y1630000D03*
X-4300000Y1810000D03*
X-4510000D03*
X-3997000Y1805000D03*
G54D14*
X-4132000Y1265000D03*
X-3567000Y3230000D03*
G54D15*
X-3810000Y3835600D03*
Y5260600D03*
X-3340000Y3835600D03*
Y5260600D03*
X-2840000Y3835600D03*
Y5260600D03*
X-2380000Y4068100D03*
Y4548100D03*
Y5028100D03*
G54D16*
X-3966000Y3580000D03*
X-3712000D03*
X-3458000D03*
X-3010000Y3190000D03*
X-3264000D03*
X-2756000D03*
X-1531000Y-110000D03*
X-1412000Y481000D03*
Y735000D03*
Y989000D03*
X-1023000Y-110000D03*
X-1277000D03*
X-769000D03*
X-710000Y2530000D03*
Y2276000D03*
Y2784000D03*
Y3696000D03*
Y3950000D03*
Y4204000D03*
G54D17*
X-3090000Y3835600D03*
G54D18*
X-2990000Y4070000D03*
Y5030000D03*
X-106500Y434500D03*
X198500Y5872500D03*
G54D19*
G01X740500Y-190500D02*
Y-110500D01*
X703500Y-167830D01*
X753500D01*
M02*
