  0
SECTION
  2
HEADER
  9
$ACADVER
  1
AC1009
  9
$INSBASE
 10
0.000000
 20
0.000000
  9
$LIMMIN
 10
-499.999000
 20
-499.999000
  9
$LIMMAX
 10
499.999000
 20
499.999000
  9
$EXTMIN
 10
-499.999000
 20
-499.999000
  9
$EXTMAX
 10
499.999000
 20
499.999000
  9
$ATTMODE
 70
0
  9
$LUNITS
 70
2
  9
$LUPREC
 70
1
  9
$THICKNESS
 40
0.264160
  0
ENDSEC
  0
SECTION
  2
TABLES
  0
TABLE
  2
LTYPE
 70
1
  0
LTYPE
  3
Solid Line
  2
CONTINUOUS
 70
0
 72
65
 73
0
 40
0.000000
  0
ENDTAB
  0
TABLE
  2
LAYER
 70
28
  0
LAYER
  2
COND
 70
0
 62
80
  6
CONTINUOUS
  0
LAYER
  2
COND2
 70
0
 62
2
  6
CONTINUOUS
  0
LAYER
  2
PACKAGES
 70
0
 62
234
  6
CONTINUOUS
  0
LAYER
  2
PACKAGES
 70
0
 62
234
  6
CONTINUOUS
  0
LAYER
  2
PACKAGES
 70
0
 62
234
  6
CONTINUOUS
  0
LAYER
  2
COND
 70
0
 62
80
  6
CONTINUOUS
  0
LAYER
  2
SOLDER_MASK
 70
0
 62
85
  6
CONTINUOUS
  0
LAYER
  2
BOND
 70
0
 62
85
  6
CONTINUOUS
  0
LAYER
  2
COND2
 70
0
 62
2
  6
CONTINUOUS
  0
LAYER
  2
SOLDER_MASK
 70
0
 62
85
  6
CONTINUOUS
  0
LAYER
  2
SOLDER_MASK
 70
0
 62
85
  6
CONTINUOUS
  0
LAYER
  2
SILK_SCREEN
 70
0
 62
85
  6
CONTINUOUS
  0
LAYER
  2
SILK_SCREEN2
 70
0
 62
85
  6
CONTINUOUS
  0
LAYER
  2
SOLDER_MASK
 70
0
 62
85
  6
CONTINUOUS
  0
LAYER
  2
SOLDER_MASK
 70
0
 62
85
  6
CONTINUOUS
  0
LAYER
  2
SILK_SCREEN
 70
0
 62
85
  6
CONTINUOUS
  0
LAYER
  2
SILK_SCREEN
 70
0
 62
85
  6
CONTINUOUS
  0
LAYER
  2
BOUND
 70
0
 62
85
  6
CONTINUOUS
  0
LAYER
  2
BOUND
 70
0
 62
85
  6
CONTINUOUS
  0
LAYER
  2
TEXT
 70
0
 62
85
  6
CONTINUOUS
  0
LAYER
  2
TEXT
 70
0
 62
85
  6
CONTINUOUS
  0
LAYER
  2
ASSEMBLY
 70
0
 62
111
  6
CONTINUOUS
  0
LAYER
  2
ASSEMBLY
 70
0
 62
12
  6
CONTINUOUS
  0
LAYER
  2
TEXT
 70
0
 62
142
  6
CONTINUOUS
  0
LAYER
  2
TEXT
 70
0
 62
142
  6
CONTINUOUS
  0
LAYER
  2
TEXT
 70
0
 62
142
  6
CONTINUOUS
  0
LAYER
  2
TEXT
 70
0
 62
142
  6
CONTINUOUS
  0
LAYER
  2
PACKAGES
 70
0
 62
202
  6
CONTINUOUS
  0
ENDTAB
  0
TABLE
  2
STYLE
 70
1
  0
STYLE
  2
STANDARD
 70
0
 40
0.000000
 41
1.000000
 50
0.000000
 71
0
 42
0.200000
  3
txt
  0
ENDTAB
  0
ENDSEC
  0
SECTION
  2
BLOCKS
  0
BLOCK
  8
0
  2
FIGURE_CIRCLE
 70
0
 10
0.000000
 20
0.000000
  0
CIRCLE
  8
0
 10
0.000000
 20
0.000000
 40
0.500000
  0
ENDBLK
  0
BLOCK
  8
0
  2
FIGURE_SQUARE
 70
0
 10
0.000000
 20
0.000000
  0
POLYLINE
  8
0
 66
1
 70
1
 40
0.000000
 41
0.000000
 39
0.000000
  0
VERTEX
  8
0
 10
-0.500000
 20
-0.500000
 40
0.000000
 41
0.000000
 42
0.000000
  0
VERTEX
  8
0
 10
-0.500000
 20
0.500000
 40
0.000000
 41
0.000000
 42
0.000000
  0
VERTEX
  8
0
 10
0.500000
 20
0.500000
 40
0.000000
 41
0.000000
 42
0.000000
  0
VERTEX
  8
0
 10
0.500000
 20
-0.500000
 40
0.000000
 41
0.000000
 42
0.000000
  0
SEQEND
  0
ENDBLK
  0
BLOCK
  8
0
  2
FIGURE_HEX
 70
0
 10
0.000000
 20
0.000000
  0
POLYLINE
  8
0
 66
1
 70
1
 40
0.000000
 41
0.000000
 39
0.000000
  0
VERTEX
  8
0
 10
-0.500000
 20
0.000000
 40
0.000000
 41
0.000000
 42
0.000000
  0
VERTEX
  8
0
 10
-0.250000
 20
0.500000
 40
0.000000
 41
0.000000
 42
0.000000
  0
VERTEX
  8
0
 10
0.250000
 20
0.500000
 40
0.000000
 41
0.000000
 42
0.000000
  0
VERTEX
  8
0
 10
0.500000
 20
0.000000
 40
0.000000
 41
0.000000
 42
0.000000
  0
VERTEX
  8
0
 10
0.250000
 20
-0.500000
 40
0.000000
 41
0.000000
 42
0.000000
  0
VERTEX
  8
0
 10
-0.250000
 20
-0.500000
 40
0.000000
 41
0.000000
 42
0.000000
  0
SEQEND
  0
ENDBLK
  0
BLOCK
  8
0
  2
FIGURE_OCT
 70
0
 10
0.000000
 20
0.000000
  0
POLYLINE
  8
0
 66
1
 70
1
 40
0.000000
 41
0.000000
 39
0.000000
  0
VERTEX
  8
0
 10
-0.500000
 20
-0.207100
 40
0.000000
 41
0.000000
 42
0.000000
  0
VERTEX
  8
0
 10
-0.500000
 20
0.207100
 40
0.000000
 41
0.000000
 42
0.000000
  0
VERTEX
  8
0
 10
-0.207100
 20
0.500000
 40
0.000000
 41
0.000000
 42
0.000000
  0
VERTEX
  8
0
 10
0.207100
 20
0.500000
 40
0.000000
 41
0.000000
 42
0.000000
  0
VERTEX
  8
0
 10
0.500000
 20
0.207100
 40
0.000000
 41
0.000000
 42
0.000000
  0
VERTEX
  8
0
 10
0.500000
 20
-0.207100
 40
0.000000
 41
0.000000
 42
0.000000
  0
VERTEX
  8
0
 10
0.207100
 20
-0.500000
 40
0.000000
 41
0.000000
 42
0.000000
  0
VERTEX
  8
0
 10
-0.207100
 20
-0.500000
 40
0.000000
 41
0.000000
 42
0.000000
  0
SEQEND
  0
ENDBLK
  0
BLOCK
  8
0
  2
FIGURE_OBLONG
 70
0
 10
0.000000
 20
0.000000
  0
POLYLINE
  8
0
 66
1
 70
1
 40
0.000000
 41
0.000000
 39
0.000000
  0
VERTEX
  8
0
 10
-0.500000
 20
-0.125000
 40
0.000000
 41
0.000000
 42
0.000000
  0
VERTEX
  8
0
 10
-0.500000
 20
0.125000
 40
0.000000
 41
0.000000
 42
0.000000
  0
VERTEX
  8
0
 10
-0.416000
 20
0.375000
 40
0.000000
 41
0.000000
 42
0.000000
  0
VERTEX
  8
0
 10
-0.250000
 20
0.500000
 40
0.000000
 41
0.000000
 42
0.000000
  0
VERTEX
  8
0
 10
0.250000
 20
0.500000
 40
0.000000
 41
0.000000
 42
0.000000
  0
VERTEX
  8
0
 10
0.416000
 20
0.375000
 40
0.000000
 41
0.000000
 42
0.000000
  0
VERTEX
  8
0
 10
0.500000
 20
0.125000
 40
0.000000
 41
0.000000
 42
0.000000
  0
VERTEX
  8
0
 10
0.500000
 20
-0.125000
 40
0.000000
 41
0.000000
 42
0.000000
  0
VERTEX
  8
0
 10
0.416000
 20
-0.375000
 40
0.000000
 41
0.000000
 42
0.000000
  0
VERTEX
  8
0
 10
0.250000
 20
-0.500000
 40
0.000000
 41
0.000000
 42
0.000000
  0
VERTEX
  8
0
 10
-0.250000
 20
-0.500000
 40
0.000000
 41
0.000000
 42
0.000000
  0
VERTEX
  8
0
 10
-0.416000
 20
-0.375000
 40
0.000000
 41
0.000000
 42
0.000000
  0
SEQEND
  0
ENDBLK
  0
BLOCK
  8
0
  2
FIGURE_TRI
 70
0
 10
0.000000
 20
0.000000
  0
POLYLINE
  8
0
 66
1
 70
1
 40
0.000000
 41
0.000000
 39
0.000000
  0
VERTEX
  8
0
 10
-0.500000
 20
-0.500000
 40
0.000000
 41
0.000000
 42
0.000000
  0
VERTEX
  8
0
 10
0.000000
 20
0.500000
 40
0.000000
 41
0.000000
 42
0.000000
  0
VERTEX
  8
0
 10
0.500000
 20
-0.500000
 40
0.000000
 41
0.000000
 42
0.000000
  0
SEQEND
  0
ENDBLK
  0
BLOCK
  8
0
  2
FIGURE_CROSS
 70
0
 10
0.000000
 20
0.000000
  0
POLYLINE
  8
0
 66
1
 70
0
 40
0.000000
 41
0.000000
 39
0.000000
  0
VERTEX
  8
0
 10
-0.500000
 20
0.000000
 40
0.000000
 41
0.000000
 42
0.000000
  0
VERTEX
  8
0
 10
0.500000
 20
0.000000
 40
0.000000
 41
0.000000
 42
0.000000
  0
SEQEND
  0
POLYLINE
  8
0
 66
1
 70
0
 40
0.000000
 41
0.000000
 39
0.000000
  0
VERTEX
  8
0
 10
0.000000
 20
0.500000
 40
0.000000
 41
0.000000
 42
0.000000
  0
VERTEX
  8
0
 10
0.000000
 20
-0.500000
 40
0.000000
 41
0.000000
 42
0.000000
  0
SEQEND
  0
ENDBLK
  0
BLOCK
  8
0
  2
FIGURE_DIAMOND
 70
0
 10
0.000000
 20
0.000000
  0
POLYLINE
  8
0
 66
1
 70
1
 40
0.000000
 41
0.000000
 39
0.000000
  0
VERTEX
  8
0
 10
-0.500000
 20
0.000000
 40
0.000000
 41
0.000000
 42
0.000000
  0
VERTEX
  8
0
 10
0.000000
 20
0.500000
 40
0.000000
 41
0.000000
 42
0.000000
  0
VERTEX
  8
0
 10
0.500000
 20
0.000000
 40
0.000000
 41
0.000000
 42
0.000000
  0
VERTEX
  8
0
 10
0.000000
 20
-0.500000
 40
0.000000
 41
0.000000
 42
0.000000
  0
SEQEND
  0
ENDBLK
  0
ENDSEC
  0
SECTION
  2
ENTITIES
  0
POLYLINE
  8
SILK_SCREEN
 66
1
 70
0
 40
0.000000
 41
0.000000
 39
0.000000
  0
VERTEX
  8
SILK_SCREEN
 10
9.906000
 20
-24.587200
 40
0.000000
 41
0.000000
 42
0.000000
  0
VERTEX
  8
SILK_SCREEN
 10
9.906000
 20
8.128000
 40
0.000000
 41
0.000000
 42
0.000000
  0
VERTEX
  8
SILK_SCREEN
 10
-9.906000
 20
8.128000
 40
0.000000
 41
0.000000
 42
0.000000
  0
VERTEX
  8
SILK_SCREEN
 10
-9.906000
 20
-24.587200
 40
0.000000
 41
0.000000
 42
0.000000
  0
VERTEX
  8
SILK_SCREEN
 10
9.906000
 20
-24.587200
 40
0.000000
 41
0.000000
 42
0.000000
  0
SEQEND
  0
POLYLINE
  8
ASSEMBLY
 66
1
 70
0
 40
0.000000
 41
0.000000
 39
0.000000
  0
VERTEX
  8
ASSEMBLY
 10
8.890000
 20
-24.587200
 40
0.000000
 41
0.000000
 42
0.000000
  0
VERTEX
  8
ASSEMBLY
 10
8.890000
 20
6.146800
 40
0.000000
 41
0.000000
 42
0.000000
  0
VERTEX
  8
ASSEMBLY
 10
-8.890000
 20
6.146800
 40
0.000000
 41
0.000000
 42
0.000000
  0
VERTEX
  8
ASSEMBLY
 10
-8.890000
 20
-24.587200
 40
0.000000
 41
0.000000
 42
0.000000
  0
VERTEX
  8
ASSEMBLY
 10
-7.010400
 20
-24.587200
 40
0.000000
 41
0.000000
 42
0.414214
  0
VERTEX
  8
ASSEMBLY
 10
-6.502400
 20
-24.079200
 40
0.000000
 41
0.000000
 42
0.000000
  0
VERTEX
  8
ASSEMBLY
 10
-6.502400
 20
-16.967200
 40
0.000000
 41
0.000000
 42
0.414214
  0
VERTEX
  8
ASSEMBLY
 10
-7.010400
 20
-16.459200
 40
0.000000
 41
0.000000
 42
0.000000
  0
VERTEX
  8
ASSEMBLY
 10
-7.010400
 20
-16.459200
 40
0.000000
 41
0.000000
 42
-0.414214
  0
VERTEX
  8
ASSEMBLY
 10
-7.518400
 20
-15.951200
 40
0.000000
 41
0.000000
 42
0.000000
  0
VERTEX
  8
ASSEMBLY
 10
-7.518400
 20
-2.362200
 40
0.000000
 41
0.000000
 42
-0.414214
  0
VERTEX
  8
ASSEMBLY
 10
-7.010400
 20
-1.854200
 40
0.000000
 41
0.000000
 42
0.000000
  0
VERTEX
  8
ASSEMBLY
 10
7.010400
 20
-1.854200
 40
0.000000
 41
0.000000
 42
-0.414214
  0
VERTEX
  8
ASSEMBLY
 10
7.518400
 20
-2.362200
 40
0.000000
 41
0.000000
 42
0.000000
  0
VERTEX
  8
ASSEMBLY
 10
7.518400
 20
-15.951200
 40
0.000000
 41
0.000000
 42
-0.414214
  0
VERTEX
  8
ASSEMBLY
 10
7.010400
 20
-16.459200
 40
0.000000
 41
0.000000
 42
0.000000
  0
VERTEX
  8
ASSEMBLY
 10
7.010400
 20
-16.459200
 40
0.000000
 41
0.000000
 42
0.414214
  0
VERTEX
  8
ASSEMBLY
 10
6.502400
 20
-16.967200
 40
0.000000
 41
0.000000
 42
0.000000
  0
VERTEX
  8
ASSEMBLY
 10
6.502400
 20
-24.079200
 40
0.000000
 41
0.000000
 42
0.414214
  0
VERTEX
  8
ASSEMBLY
 10
7.010400
 20
-24.587200
 40
0.000000
 41
0.000000
 42
0.000000
  0
VERTEX
  8
ASSEMBLY
 10
8.890000
 20
-24.587200
 40
0.000000
 41
0.000000
 42
0.000000
  0
SEQEND
  0
POLYLINE
  8
ASSEMBLY
 66
1
 70
0
 40
0.000000
 41
0.000000
 39
0.000000
  0
VERTEX
  8
ASSEMBLY
 10
-7.879080
 20
0.000000
 40
0.000000
 41
0.000000
 42
0.000000
  0
VERTEX
  8
ASSEMBLY
 10
7.879080
 20
0.000000
 40
0.000000
 41
0.000000
 42
0.000000
  0
SEQEND
  0
POLYLINE
  8
ASSEMBLY
 66
1
 70
0
 40
0.000000
 41
0.000000
 39
0.000000
  0
VERTEX
  8
ASSEMBLY
 10
0.000000
 20
-25.999440
 40
0.000000
 41
0.000000
 42
0.000000
  0
VERTEX
  8
ASSEMBLY
 10
0.000000
 20
5.999480
 40
0.000000
 41
0.000000
 42
0.000000
  0
SEQEND
  0
POLYLINE
  8
BOUND
 66
1
 70
1
 40
0.000000
 41
0.000000
 39
0.000000
  0
VERTEX
  8
BOUND
 10
9.906000
 20
-27.127200
 40
0.000000
 41
0.000000
 42
0.000000
  0
VERTEX
  8
BOUND
 10
9.906000
 20
6.146800
 40
0.000000
 41
0.000000
 42
0.000000
  0
VERTEX
  8
BOUND
 10
-9.906000
 20
6.146800
 40
0.000000
 41
0.000000
 42
0.000000
  0
VERTEX
  8
BOUND
 10
-9.906000
 20
-27.127200
 40
0.000000
 41
0.000000
 42
0.000000
  0
SEQEND
  0
CIRCLE
  8
COND
 10
8.788400
 20
-13.843000
 40
1.016000
  0
CIRCLE
  8
COND2
 10
8.788400
 20
-13.843000
 40
1.016000
  0
CIRCLE
  8
SOLDER_MASK
 10
8.788400
 20
-13.843000
 40
1.143000
  0
TEXT
  8
TEXT
 10
10.881360
 20
-14.721840
 11
0.000000
 21
0.000000
 40
0.640080
 41
0.873016
 50
0.000000
  7
STANDARD
 71
0
 72
0
  1
23
 73
0
  0
CIRCLE
  8
COND
 10
8.788400
 20
-8.128000
 40
1.016000
  0
CIRCLE
  8
COND2
 10
8.788400
 20
-8.128000
 40
1.016000
  0
CIRCLE
  8
SOLDER_MASK
 10
8.788400
 20
-8.128000
 40
1.143000
  0
TEXT
  8
TEXT
 10
10.241280
 20
-8.961120
 11
0.000000
 21
0.000000
 40
0.640080
 41
0.873016
 50
0.000000
  7
STANDARD
 71
0
 72
0
  1
22
 73
0
  0
CIRCLE
  8
COND
 10
-8.788400
 20
-11.303000
 40
1.016000
  0
CIRCLE
  8
COND2
 10
-8.788400
 20
-11.303000
 40
1.016000
  0
CIRCLE
  8
SOLDER_MASK
 10
-8.788400
 20
-11.303000
 40
1.143000
  0
TEXT
  8
TEXT
 10
-10.881360
 20
-12.801600
 11
0.000000
 21
0.000000
 40
0.640080
 41
0.873016
 50
0.000000
  7
STANDARD
 71
0
 72
0
  1
21
 73
0
  0
CIRCLE
  8
COND
 10
-8.788400
 20
-5.588000
 40
1.016000
  0
CIRCLE
  8
COND2
 10
-8.788400
 20
-5.588000
 40
1.016000
  0
CIRCLE
  8
SOLDER_MASK
 10
-8.788400
 20
-5.588000
 40
1.143000
  0
TEXT
  8
TEXT
 10
-10.881360
 20
-7.040880
 11
0.000000
 21
0.000000
 40
0.640080
 41
0.873016
 50
0.000000
  7
STANDARD
 71
0
 72
0
  1
20
 73
0
  0
CIRCLE
  8
COND
 10
-7.518400
 20
-21.412200
 40
0.762000
  0
CIRCLE
  8
COND2
 10
-7.518400
 20
-21.412200
 40
0.762000
  0
CIRCLE
  8
SOLDER_MASK
 10
-7.518400
 20
-21.412200
 40
0.889000
  0
TEXT
  8
TEXT
 10
-6.883400
 20
-22.428200
 11
0.000000
 21
0.000000
 40
0.640080
 41
0.873016
 50
0.000000
  7
STANDARD
 71
0
 72
0
  1
19
 73
0
  0
CIRCLE
  8
COND
 10
-7.518400
 20
-19.634200
 40
0.762000
  0
CIRCLE
  8
COND2
 10
-7.518400
 20
-19.634200
 40
0.762000
  0
CIRCLE
  8
SOLDER_MASK
 10
-7.518400
 20
-19.634200
 40
0.889000
  0
TEXT
  8
TEXT
 10
-6.883400
 20
-20.650200
 11
0.000000
 21
0.000000
 40
0.640080
 41
0.873016
 50
0.000000
  7
STANDARD
 71
0
 72
0
  1
18
 73
0
  0
CIRCLE
  8
COND
 10
7.518400
 20
-21.412200
 40
0.762000
  0
CIRCLE
  8
COND2
 10
7.518400
 20
-21.412200
 40
0.762000
  0
CIRCLE
  8
SOLDER_MASK
 10
7.518400
 20
-21.412200
 40
0.889000
  0
TEXT
  8
TEXT
 10
8.153400
 20
-22.428200
 11
0.000000
 21
0.000000
 40
0.640080
 41
0.873016
 50
0.000000
  7
STANDARD
 71
0
 72
0
  1
17
 73
0
  0
CIRCLE
  8
COND
 10
7.518400
 20
-19.634200
 40
0.762000
  0
CIRCLE
  8
COND2
 10
7.518400
 20
-19.634200
 40
0.762000
  0
CIRCLE
  8
SOLDER_MASK
 10
7.518400
 20
-19.634200
 40
0.889000
  0
TEXT
  8
TEXT
 10
8.153400
 20
-20.650200
 11
0.000000
 21
0.000000
 40
0.640080
 41
0.873016
 50
0.000000
  7
STANDARD
 71
0
 72
0
  1
16
 73
0
  0
CIRCLE
  8
COND
 10
-5.080000
 20
4.318000
 40
0.698500
  0
CIRCLE
  8
COND2
 10
-5.080000
 20
4.318000
 40
0.698500
  0
CIRCLE
  8
SOLDER_MASK
 10
-5.080000
 20
4.318000
 40
0.889000
  0
TEXT
  8
TEXT
 10
-4.622800
 20
5.334000
 11
0.000000
 21
0.000000
 40
0.640080
 41
0.873016
 50
0.000000
  7
STANDARD
 71
0
 72
0
  1
15
 73
0
  0
CIRCLE
  8
COND
 10
-3.048000
 20
4.318000
 40
0.698500
  0
CIRCLE
  8
COND2
 10
-3.048000
 20
4.318000
 40
0.698500
  0
CIRCLE
  8
SOLDER_MASK
 10
-3.048000
 20
4.318000
 40
0.889000
  0
TEXT
  8
TEXT
 10
-2.311400
 20
5.308600
 11
0.000000
 21
0.000000
 40
0.640080
 41
0.873016
 50
0.000000
  7
STANDARD
 71
0
 72
0
  1
14
 73
0
  0
CIRCLE
  8
COND
 10
5.080000
 20
4.318000
 40
0.698500
  0
CIRCLE
  8
COND2
 10
5.080000
 20
4.318000
 40
0.698500
  0
CIRCLE
  8
SOLDER_MASK
 10
5.080000
 20
4.318000
 40
0.889000
  0
TEXT
  8
TEXT
 10
5.765800
 20
5.334000
 11
0.000000
 21
0.000000
 40
0.640080
 41
0.873016
 50
0.000000
  7
STANDARD
 71
0
 72
0
  1
13
 73
0
  0
CIRCLE
  8
COND
 10
-5.080000
 20
-0.762000
 40
0.698500
  0
CIRCLE
  8
COND2
 10
-5.080000
 20
-0.762000
 40
0.698500
  0
CIRCLE
  8
SOLDER_MASK
 10
-5.080000
 20
-0.762000
 40
0.889000
  0
TEXT
  8
TEXT
 10
-4.480560
 20
-2.672080
 11
0.000000
 21
0.000000
 40
0.640080
 41
0.873016
 50
0.000000
  7
STANDARD
 71
0
 72
0
  1
6
 73
0
  0
CIRCLE
  8
COND
 10
-3.048000
 20
-0.762000
 40
0.698500
  0
CIRCLE
  8
COND2
 10
-3.048000
 20
-0.762000
 40
0.698500
  0
CIRCLE
  8
SOLDER_MASK
 10
-3.048000
 20
-0.762000
 40
0.889000
  0
TEXT
  8
TEXT
 10
-2.560320
 20
-2.672080
 11
0.000000
 21
0.000000
 40
0.640080
 41
0.873016
 50
0.000000
  7
STANDARD
 71
0
 72
0
  1
5
 73
0
  0
CIRCLE
  8
COND
 10
-1.016000
 20
-0.762000
 40
0.698500
  0
CIRCLE
  8
COND2
 10
-1.016000
 20
-0.762000
 40
0.698500
  0
CIRCLE
  8
SOLDER_MASK
 10
-1.016000
 20
-0.762000
 40
0.889000
  0
TEXT
  8
TEXT
 10
-0.640080
 20
-2.672080
 11
0.000000
 21
0.000000
 40
0.640080
 41
0.873016
 50
0.000000
  7
STANDARD
 71
0
 72
0
  1
4
 73
0
  0
CIRCLE
  8
COND
 10
1.016000
 20
-0.762000
 40
0.698500
  0
CIRCLE
  8
COND2
 10
1.016000
 20
-0.762000
 40
0.698500
  0
CIRCLE
  8
SOLDER_MASK
 10
1.016000
 20
-0.762000
 40
0.889000
  0
TEXT
  8
TEXT
 10
1.280160
 20
-2.672080
 11
0.000000
 21
0.000000
 40
0.640080
 41
0.873016
 50
0.000000
  7
STANDARD
 71
0
 72
0
  1
3
 73
0
  0
CIRCLE
  8
COND
 10
6.096000
 20
1.778000
 40
0.698500
  0
CIRCLE
  8
COND2
 10
6.096000
 20
1.778000
 40
0.698500
  0
CIRCLE
  8
SOLDER_MASK
 10
6.096000
 20
1.778000
 40
0.889000
  0
TEXT
  8
TEXT
 10
6.731000
 20
2.667000
 11
0.000000
 21
0.000000
 40
0.640080
 41
0.873016
 50
0.000000
  7
STANDARD
 71
0
 72
0
  1
7
 73
0
  0
CIRCLE
  8
COND
 10
4.064000
 20
1.778000
 40
0.698500
  0
CIRCLE
  8
COND2
 10
4.064000
 20
1.778000
 40
0.698500
  0
CIRCLE
  8
SOLDER_MASK
 10
4.064000
 20
1.778000
 40
0.889000
  0
TEXT
  8
TEXT
 10
4.699000
 20
2.667000
 11
0.000000
 21
0.000000
 40
0.640080
 41
0.873016
 50
0.000000
  7
STANDARD
 71
0
 72
0
  1
8
 73
0
  0
CIRCLE
  8
COND
 10
2.032000
 20
1.778000
 40
0.698500
  0
CIRCLE
  8
COND2
 10
2.032000
 20
1.778000
 40
0.698500
  0
CIRCLE
  8
SOLDER_MASK
 10
2.032000
 20
1.778000
 40
0.889000
  0
TEXT
  8
TEXT
 10
2.667000
 20
2.667000
 11
0.000000
 21
0.000000
 40
0.640080
 41
0.873016
 50
0.000000
  7
STANDARD
 71
0
 72
0
  1
9
 73
0
  0
CIRCLE
  8
COND
 10
3.048000
 20
-0.762000
 40
0.698500
  0
CIRCLE
  8
COND2
 10
3.048000
 20
-0.762000
 40
0.698500
  0
CIRCLE
  8
SOLDER_MASK
 10
3.048000
 20
-0.762000
 40
0.889000
  0
TEXT
  8
TEXT
 10
3.200400
 20
-2.672080
 11
0.000000
 21
0.000000
 40
0.640080
 41
0.873016
 50
0.000000
  7
STANDARD
 71
0
 72
0
  1
2
 73
0
  0
CIRCLE
  8
COND
 10
-2.032000
 20
1.778000
 40
0.698500
  0
CIRCLE
  8
COND2
 10
-2.032000
 20
1.778000
 40
0.698500
  0
CIRCLE
  8
SOLDER_MASK
 10
-2.032000
 20
1.778000
 40
0.889000
  0
TEXT
  8
TEXT
 10
-1.397000
 20
2.540000
 11
0.000000
 21
0.000000
 40
0.640080
 41
0.873016
 50
0.000000
  7
STANDARD
 71
0
 72
0
  1
10
 73
0
  0
CIRCLE
  8
COND
 10
-4.064000
 20
1.778000
 40
0.698500
  0
CIRCLE
  8
COND2
 10
-4.064000
 20
1.778000
 40
0.698500
  0
CIRCLE
  8
SOLDER_MASK
 10
-4.064000
 20
1.778000
 40
0.889000
  0
TEXT
  8
TEXT
 10
-3.302000
 20
2.540000
 11
0.000000
 21
0.000000
 40
0.640080
 41
0.873016
 50
0.000000
  7
STANDARD
 71
0
 72
0
  1
11
 73
0
  0
CIRCLE
  8
COND
 10
-6.096000
 20
1.778000
 40
0.698500
  0
CIRCLE
  8
COND2
 10
-6.096000
 20
1.778000
 40
0.698500
  0
CIRCLE
  8
SOLDER_MASK
 10
-6.096000
 20
1.778000
 40
0.889000
  0
TEXT
  8
TEXT
 10
-5.334000
 20
2.540000
 11
0.000000
 21
0.000000
 40
0.640080
 41
0.873016
 50
0.000000
  7
STANDARD
 71
0
 72
0
  1
12
 73
0
  0
POLYLINE
  8
COND
 66
1
 70
1
 40
0.000000
 41
0.000000
 39
0.000000
  0
VERTEX
  8
COND
 10
5.369319
 20
-1.460500
 40
0.000000
 41
0.000000
 42
0.000000
  0
VERTEX
  8
COND
 10
4.790681
 20
-1.460500
 40
0.000000
 41
0.000000
 42
0.000000
  0
VERTEX
  8
COND
 10
4.381500
 20
-1.051319
 40
0.000000
 41
0.000000
 42
0.000000
  0
VERTEX
  8
COND
 10
4.381500
 20
-0.472681
 40
0.000000
 41
0.000000
 42
0.000000
  0
VERTEX
  8
COND
 10
4.790681
 20
-0.063500
 40
0.000000
 41
0.000000
 42
0.000000
  0
VERTEX
  8
COND
 10
5.369319
 20
-0.063500
 40
0.000000
 41
0.000000
 42
0.000000
  0
VERTEX
  8
COND
 10
5.778500
 20
-0.472681
 40
0.000000
 41
0.000000
 42
0.000000
  0
VERTEX
  8
COND
 10
5.778500
 20
-1.051319
 40
0.000000
 41
0.000000
 42
0.000000
  0
SEQEND
  0
POLYLINE
  8
COND2
 66
1
 70
1
 40
0.000000
 41
0.000000
 39
0.000000
  0
VERTEX
  8
COND2
 10
5.369319
 20
-1.460500
 40
0.000000
 41
0.000000
 42
0.000000
  0
VERTEX
  8
COND2
 10
4.790681
 20
-1.460500
 40
0.000000
 41
0.000000
 42
0.000000
  0
VERTEX
  8
COND2
 10
4.381500
 20
-1.051319
 40
0.000000
 41
0.000000
 42
0.000000
  0
VERTEX
  8
COND2
 10
4.381500
 20
-0.472681
 40
0.000000
 41
0.000000
 42
0.000000
  0
VERTEX
  8
COND2
 10
4.790681
 20
-0.063500
 40
0.000000
 41
0.000000
 42
0.000000
  0
VERTEX
  8
COND2
 10
5.369319
 20
-0.063500
 40
0.000000
 41
0.000000
 42
0.000000
  0
VERTEX
  8
COND2
 10
5.778500
 20
-0.472681
 40
0.000000
 41
0.000000
 42
0.000000
  0
VERTEX
  8
COND2
 10
5.778500
 20
-1.051319
 40
0.000000
 41
0.000000
 42
0.000000
  0
SEQEND
  0
POLYLINE
  8
SOLDER_MASK
 66
1
 70
1
 40
0.000000
 41
0.000000
 39
0.000000
  0
VERTEX
  8
SOLDER_MASK
 10
5.448224
 20
-1.651000
 40
0.000000
 41
0.000000
 42
0.000000
  0
VERTEX
  8
SOLDER_MASK
 10
4.711776
 20
-1.651000
 40
0.000000
 41
0.000000
 42
0.000000
  0
VERTEX
  8
SOLDER_MASK
 10
4.191000
 20
-1.130224
 40
0.000000
 41
0.000000
 42
0.000000
  0
VERTEX
  8
SOLDER_MASK
 10
4.191000
 20
-0.393776
 40
0.000000
 41
0.000000
 42
0.000000
  0
VERTEX
  8
SOLDER_MASK
 10
4.711776
 20
0.127000
 40
0.000000
 41
0.000000
 42
0.000000
  0
VERTEX
  8
SOLDER_MASK
 10
5.448224
 20
0.127000
 40
0.000000
 41
0.000000
 42
0.000000
  0
VERTEX
  8
SOLDER_MASK
 10
5.969000
 20
-0.393776
 40
0.000000
 41
0.000000
 42
0.000000
  0
VERTEX
  8
SOLDER_MASK
 10
5.969000
 20
-1.130224
 40
0.000000
 41
0.000000
 42
0.000000
  0
SEQEND
  0
TEXT
  8
TEXT
 10
5.547360
 20
-2.672080
 11
5.760720
 21
-2.672080
 40
0.640080
 41
0.873016
 50
0.000000
  7
STANDARD
 71
0
 72
2
  1
1
 73
0
  0
CIRCLE
  8
COND
 10
-7.874000
 20
3.556000
 40
1.270000
  0
CIRCLE
  8
COND
 10
7.874000
 20
0.000000
 40
1.270000
  0
TEXT
  8
TEXT
 10
11.226800
 20
-18.440400
 11
0.000000
 21
0.000000
 40
1.270000
 41
1.024000
 50
0.000000
  7
STANDARD
 71
0
 72
0
  1
J*
 73
0
  0
TEXT
  8
TEXT
 10
-1.244600
 20
-10.388600
 11
0.000000
 21
0.000000
 40
1.270000
 41
1.024000
 50
0.000000
  7
STANDARD
 71
0
 72
0
  1
J*
 73
0
  0
TEXT
  8
ASSEMBLY
 10
-8.864600
 20
7.086600
 11
0.000000
 21
0.000000
 40
0.640080
 41
0.873016
 50
0.000000
  7
STANDARD
 71
0
 72
0
  1
FOOT PRINT (COMPONENT SIDE SHOWN)
 73
0
  0
ENDSEC
  0
EOF
