G04 ================== begin FILE IDENTIFICATION RECORD ==================*
G04 Layout Name:  pc053c_toplevel_61.brd*
G04 Film Name:    art_SOLDERMASK_TOP_pc053c*
G04 File Format:  Gerber RS274X*
G04 File Origin:  Cadence Allegro 17.2-060*
G04 Origin Date:  Thu Jan 16 16:49:43 2020*
G04 *
G04 Layer:  VIA CLASS/SOLDERMASK_TOP*
G04 Layer:  PIN/SOLDERMASK_TOP*
G04 Layer:  PACKAGE GEOMETRY/SOLDERMASK_TOP*
G04 Layer:  BOARD GEOMETRY/SOLDERMASK_TOP*
G04 Layer:  BOARD GEOMETRY/CART_TOP*
G04 Layer:  BOARD GEOMETRY/OUTLINE50*
G04 *
G04 Offset:    (-315.1182 -288.1259)*
G04 Mirror:    No*
G04 Mode:      Positive*
G04 Rotation:  0*
G04 FullContactRelief:  No*
G04 UndefLineWidth:     0.2540*
G04 ================== end FILE IDENTIFICATION RECORD ====================*
%FSLAX25Y25*MOMM*%
%IR0*IPPOS*OFA-315.11820B-288.12590*MIA0B0*SFA1.00000B1.00000*%
%ADD19R,1.X.5*%
%ADD25R,.9X1.*%
%ADD18R,1.X.8*%
%ADD29R,1.05X.6*%
%ADD10R,.6X.6*%
%ADD17R,1.X1.05*%
%ADD12O,3.2X1.4*%
%ADD28R,1.4X1.2*%
%ADD16R,2.2X1.05*%
%ADD11O,2.6X1.4*%
%ADD21C,1.*%
%ADD24R,1.55X2.7*%
%ADD23R,2.7X1.55*%
%ADD20C,1.6*%
%ADD15C,1.7*%
%ADD14C,3.302*%
%ADD22C,1.524*%
%ADD27R,.95X.7*%
%ADD13C,1.75*%
%ADD26C,1.397*%
%ADD30C,1.27*%
G75*
%LPD*%
G75*
G36*
G01X340000Y-70000D02*
Y-230000D01*
X1020000D01*
Y-70000D01*
X340000D01*
G37*
G54D10*
X-6415000Y1330000D03*
Y3170000D03*
X-6325000Y1330000D03*
X-6135000D03*
X-6225000D03*
X-6325000Y3170000D03*
X-6135000D03*
X-6225000D03*
X-4295000Y1190000D03*
Y1290000D03*
X-4260000Y2585000D03*
Y2495000D03*
X-3945000Y880000D03*
X-4035000D03*
X-4205000Y1190000D03*
Y1290000D03*
X-3790000Y1885000D03*
Y1975000D03*
X-4051300Y2647400D03*
Y2737400D03*
X-4170000Y3035000D03*
Y3125000D03*
X-3804200Y6045200D03*
Y5930900D03*
X-3651800Y1422400D03*
X-3561800D03*
X-3651800Y1143000D03*
X-3561800D03*
X-3690000Y1885000D03*
X-3390000D03*
X-3416300Y1593300D03*
Y1683300D03*
X-3530600Y1593300D03*
Y1683300D03*
X-3490000Y1885000D03*
X-3690000Y1975000D03*
X-3390000D03*
X-3490000D03*
X-3543300Y2571200D03*
Y2661200D03*
X-3778800Y2552700D03*
X-3688800D03*
X-3385000Y2970000D03*
X-3365500Y3168100D03*
X-3695700Y3118400D03*
Y3028400D03*
X-3365500Y3258100D03*
X-3435900Y4381500D03*
Y4254500D03*
Y4826000D03*
Y4572000D03*
Y4699000D03*
Y4953000D03*
X-3714200Y6045200D03*
Y5930900D03*
X-2965000Y300000D03*
X-3055000D03*
X-3149600Y907500D03*
Y997500D03*
X-2978700Y1117600D03*
Y1257300D03*
X-3187700Y1683300D03*
Y1593300D03*
X-2978700Y1536700D03*
X-3250000Y1885000D03*
X-3302000Y1593300D03*
Y1683300D03*
X-3250000Y1975000D03*
X-2985000Y2350000D03*
X-2965000Y2700000D03*
X-3055000D03*
X-3295000Y2970000D03*
X-2965000Y2860000D03*
X-3055000D03*
X-3345900Y4381500D03*
Y4254500D03*
Y4826000D03*
Y4572000D03*
Y4699000D03*
Y4953000D03*
X-2888700Y1117600D03*
Y1257300D03*
Y1536700D03*
X-2585000Y1920000D03*
X-2545000Y2350000D03*
X-2895000D03*
X-2837900Y3517900D03*
X-2927900D03*
X-2837900Y3238500D03*
X-2927900D03*
X-2558500Y4470400D03*
X-2648500D03*
Y4597400D03*
X-2558500D03*
X-2106000Y190000D03*
Y280000D03*
X-2495000Y1920000D03*
X-2135000Y2230000D03*
X-2225000D03*
X-2455000Y2350000D03*
X-2340000Y2725000D03*
Y2635000D03*
X-2130000Y5015000D03*
Y4925000D03*
X-2300000Y5985000D03*
Y5895000D03*
X-2410000Y5985000D03*
Y5895000D03*
X-1976000Y190000D03*
Y280000D03*
X-1846000Y190000D03*
Y280000D03*
X-1716000Y190000D03*
Y280000D03*
X-1855000Y1750000D03*
X-1945000D03*
X-1855000Y1650000D03*
X-1945000D03*
X-2000000Y2635000D03*
Y2725000D03*
Y2915000D03*
Y2825000D03*
X-1730000Y4075000D03*
Y4165000D03*
X-1800000Y6035000D03*
Y6125000D03*
Y5865000D03*
Y5775000D03*
X-1275000Y440000D03*
X-1450000Y4385000D03*
Y4475000D03*
X-860000Y125000D03*
X-1185000Y440000D03*
X-860000Y215000D03*
X-880000Y655000D03*
Y745000D03*
X-1120000Y1135000D03*
Y1225000D03*
X-1000000Y1135000D03*
Y1225000D03*
X-1120000Y3945000D03*
Y3855000D03*
X-1110000Y4385000D03*
X-889500Y4759000D03*
Y4849000D03*
X-1110000Y4475000D03*
X-1060000Y5560000D03*
Y5470000D03*
Y6145000D03*
Y6055000D03*
X-740000Y655000D03*
Y745000D03*
X-670000Y1135000D03*
Y1225000D03*
X-650000Y1815000D03*
Y1905000D03*
X-795000Y5900000D03*
X-705000D03*
X-795000Y6490000D03*
X-705000D03*
G54D20*
X-3810000Y3835600D03*
Y5260600D03*
X-3340000Y3835600D03*
Y5260600D03*
X-2840000Y3835600D03*
Y5260600D03*
X-2380000Y4068100D03*
Y4548100D03*
Y5028100D03*
G54D11*
X-6379000Y1525000D03*
Y2975000D03*
G54D30*
G01X1090000Y6600000D02*
Y-300000D01*
X-4340000D01*
Y-140000D01*
G03X-4440000Y-40000I-100000J0D01*
G01X-5410000D01*
Y70000D01*
G03X-5510000Y170000I-100000J0D01*
G01X-6560000D01*
Y6270000D01*
X-3950000D01*
G03X-3850000Y6370000I0J100000D01*
G01Y6600000D01*
X1090000D01*
G54D21*
X-2990000Y4070000D03*
Y5030000D03*
X-106500Y434500D03*
X198500Y5872500D03*
G54D12*
X-5782000Y1525000D03*
Y2975000D03*
G54D13*
X-6090000Y3835600D03*
Y4693600D03*
X-5590000Y5260600D03*
X-5090000Y3835600D03*
X-4590000Y5260600D03*
X-4090000Y3835600D03*
Y4403600D03*
Y4943600D03*
X-3590000Y5260600D03*
X-2590000D03*
G54D22*
X-3090000Y3835600D03*
G54D14*
X-5460000Y380000D03*
X-5475000Y6050000D03*
X0Y0D03*
Y6300000D03*
G54D23*
X-2971800Y4556300D03*
Y4816300D03*
G54D15*
X-5030000Y2296000D03*
Y2550000D03*
Y2804000D03*
X-4710000Y130000D03*
X-4964000D03*
X-4710000Y470000D03*
X-4964000D03*
X-4680000Y2296000D03*
Y2550000D03*
Y2804000D03*
X-4456000Y130000D03*
Y470000D03*
X-3840000D03*
X-4094000D03*
X-4020900Y1387600D03*
Y1133600D03*
Y1641600D03*
X-3586000Y470000D03*
X-1277000Y-110000D03*
X-1531000D03*
X-1023000D03*
X-769000D03*
X-710000Y2276000D03*
Y2530000D03*
Y2784000D03*
Y3950000D03*
Y3696000D03*
Y4204000D03*
G54D24*
X-2562400Y4241800D03*
X-2822400D03*
G54D16*
X-4810000Y5762500D03*
Y6057500D03*
X-2590800Y43000D03*
Y338000D03*
X-2643300Y5502100D03*
Y5797100D03*
X-2640000Y6082500D03*
Y6377500D03*
X-1345900Y5500400D03*
Y5795400D03*
Y6085400D03*
Y6380400D03*
G54D25*
X-2716600Y4762500D03*
X-2566600D03*
G54D26*
X-2130000Y710000D03*
X-2410000D03*
X-1850000D03*
G54D17*
X-4657500Y5910000D03*
X-2743300Y190500D03*
X-2795800Y5649600D03*
X-2792500Y6230000D03*
X-1193400Y5647900D03*
Y6232900D03*
G54D27*
X-2210000Y5375000D03*
Y5565000D03*
X-2060000Y5375000D03*
Y5565000D03*
X-1910000Y5375000D03*
Y5565000D03*
G54D18*
X-4415000Y1405000D03*
Y1195000D03*
X-4605000D03*
Y1405000D03*
G54D28*
X-1506000Y165000D03*
Y345000D03*
G54D19*
X-4415000Y1300000D03*
X-4605000D03*
G54D29*
X-1250000Y115000D03*
Y305000D03*
X-990000Y115000D03*
Y305000D03*
Y210000D03*
M02*
