G04 ================== begin FILE IDENTIFICATION RECORD ==================*
G04 Layout Name:  pc053c_toplevel_61.brd*
G04 Film Name:    art_L1_TOP_pc053c*
G04 File Format:  Gerber RS274X*
G04 File Origin:  Cadence Allegro 17.2-060*
G04 Origin Date:  Thu Jan 16 16:49:44 2020*
G04 *
G04 Layer:  VIA CLASS/TOP*
G04 Layer:  PIN/TOP*
G04 Layer:  ETCH/TOP*
G04 Layer:  BOARD GEOMETRY/ASSEMBLY_NOTES*
G04 Layer:  BOARD GEOMETRY/TEXT_TOP*
G04 Layer:  BOARD GEOMETRY/CART_TOP*
G04 *
G04 Offset:    (-315.1182 -288.1259)*
G04 Mirror:    No*
G04 Mode:      Positive*
G04 Rotation:  0*
G04 FullContactRelief:  No*
G04 UndefLineWidth:     0.2540*
G04 ================== end FILE IDENTIFICATION RECORD ====================*
%FSLAX25Y25*MOMM*%
%IR0*IPPOS*OFA-315.11820B-288.12590*MIA0B0*SFA1.00000B1.00000*%
%ADD20R,1.X.5*%
%ADD26R,.9X1.*%
%ADD19R,1.X.8*%
%ADD30R,1.05X.6*%
%ADD12C,.6*%
%ADD10R,.6X.6*%
%ADD18R,1.X1.05*%
%ADD13O,3.2X1.4*%
%ADD29R,1.4X1.2*%
%ADD17R,2.2X1.05*%
%ADD11O,2.6X1.4*%
%ADD22C,1.*%
%ADD25R,1.55X2.7*%
%ADD24R,2.7X1.55*%
%ADD21C,1.6*%
%ADD16C,1.7*%
%ADD15C,3.302*%
%ADD23C,1.524*%
%ADD28R,.95X.7*%
%ADD14C,1.75*%
%ADD27C,1.397*%
%ADD31C,.1*%
%ADD32C,.3*%
%ADD33C,.4*%
%ADD34C,.25*%
%ADD35C,.127*%
%ADD36C,.227*%
%ADD37C,.254*%
%ADD38C,.8544*%
%ADD40C,1.1084*%
%ADD39C,1.9054*%
%ADD41C,1.9544*%
G75*
%LPD*%
G75*
G36*
G01X-6088320Y3290000D02*
X-5770000D01*
G02X-5570000Y3090000I0J-200000D01*
G01Y1410000D01*
G02X-5770000Y1210000I-200000J0D01*
G01X-6088320D01*
G02X-6097290Y1224930I1J10160D01*
G03X-6092280Y1245000I-37709J20074D01*
G03X-6103450Y1273800I-42713J0D01*
G01X-6104780Y1275260D01*
Y1286740D01*
X-6101210Y1287860D01*
G03X-6092280Y1300000I-3787J12140D01*
G01Y1360000D01*
G03X-6105000Y1372720I-12720J0D01*
G01X-6255000D01*
G03X-6267540Y1362140I0J-12722D01*
G01X-6268260Y1357920D01*
X-6281740D01*
X-6282460Y1362140D01*
G03X-6295000Y1372720I-12540J-2142D01*
G01X-6445000D01*
G03X-6457720Y1360000I0J-12720D01*
G01Y1300000D01*
G03X-6445000Y1287280I12720J0D01*
G01X-6295000D01*
G03X-6282460Y1297860I0J12722D01*
G01X-6281740Y1302080D01*
X-6268260D01*
X-6267540Y1297860D01*
G03X-6255000Y1287280I12540J2142D01*
G01X-6165220D01*
Y1275260D01*
X-6166550Y1273800D01*
G03X-6177720Y1245000I31543J-28800D01*
G03X-6172710Y1224930I42719J4D01*
G02X-6181680Y1210000I-8971J-4770D01*
G01X-6490000D01*
Y1441580D01*
G02X-6475370Y1450710I10161J4D01*
G03X-6439000Y1442280I36381J74288D01*
G01X-6319000D01*
G03Y1607720I0J82720D01*
G01X-6439000D01*
G03X-6475370Y1599290I11J-82718D01*
G02X-6490000Y1608420I-4469J9126D01*
G01Y2891580D01*
G02X-6475370Y2900710I10161J4D01*
G03X-6439000Y2892280I36381J74288D01*
G01X-6319000D01*
G03Y3057720I0J82720D01*
G01X-6439000D01*
G03X-6475370Y3049290I11J-82718D01*
G02X-6490000Y3058420I-4469J9126D01*
G01Y3290000D01*
X-6181680D01*
G02X-6172710Y3275070I-1J-10160D01*
G03X-6177720Y3255000I37709J-20074D01*
G03X-6166550Y3226200I42713J0D01*
G01X-6165220Y3224740D01*
Y3212720D01*
X-6255000D01*
G03X-6267540Y3202140I0J-12722D01*
G01X-6268260Y3197920D01*
X-6281740D01*
X-6282460Y3202140D01*
G03X-6295000Y3212720I-12540J-2142D01*
G01X-6445000D01*
G03X-6457720Y3200000I0J-12720D01*
G01Y3140000D01*
G03X-6445000Y3127280I12720J0D01*
G01X-6295000D01*
G03X-6282460Y3137860I0J12722D01*
G01X-6281740Y3142080D01*
X-6268260D01*
X-6267540Y3137860D01*
G03X-6255000Y3127280I12540J2142D01*
G01X-6105000D01*
G03X-6092280Y3140000I0J12720D01*
G01Y3200000D01*
G03X-6101210Y3212140I-12717J0D01*
G01X-6104780Y3213260D01*
Y3224740D01*
X-6103450Y3226200D01*
G03X-6092280Y3255000I-31543J28800D01*
G03X-6097290Y3275070I-42719J-4D01*
G02X-6088320Y3290000I8971J4770D01*
G37*
G36*
G01X-3860000Y2090000D02*
X-2380000D01*
G02X-2280000Y1990000I0J-100000D01*
G01Y1753710D01*
G03X-2316020Y1701800I19395J-51910D01*
G03X-2312390Y1682060I55422J-12D01*
G02X-2322220Y1668290I-9491J-3618D01*
G03X-2324100Y1668320I-1824J-55391D01*
G03X-2379520Y1612900I0J-55420D01*
G03X-2364850Y1575340I55418J0D01*
G02Y1561560I-7467J-6890D01*
G03X-2379520Y1524000I40748J-37560D01*
G03X-2324100Y1468580I55420J0D01*
G03X-2320150Y1468720I13J55420D01*
G02X-2314820Y1464700I359J-5068D01*
G03X-2280000Y1424250I54220J11462D01*
G01Y320000D01*
G03X-2180000Y220000I100000J0D01*
G01X-2161420D01*
Y160000D01*
G03X-2136000Y134580I25420J0D01*
G01X-2076000D01*
G03X-2050580Y160000I0J25420D01*
G01Y220000D01*
X-2031420D01*
Y160000D01*
G03X-2006000Y134580I25420J0D01*
G01X-1946000D01*
G03X-1920580Y160000I0J25420D01*
G01Y220000D01*
X-1901420D01*
Y160000D01*
G03X-1876000Y134580I25420J0D01*
G01X-1816000D01*
G03X-1790580Y160000I0J25420D01*
G01Y220000D01*
X-1771420D01*
Y160000D01*
G03X-1746000Y134580I25420J0D01*
G01X-1686000D01*
G03X-1660580Y160000I0J25420D01*
G01Y220000D01*
X-1601420D01*
Y105000D01*
G03X-1576000Y79580I25420J0D01*
G01X-1436000D01*
G03X-1410580Y105000I0J25420D01*
G01Y225000D01*
G03X-1413170Y236180I-25425J0D01*
G03X-1400000Y270000I-36839J33820D01*
G01Y1770000D01*
G02X-1300000Y1870000I100000J0D01*
G01X-1116400D01*
G03X-1092500Y1864580I23903J49999D01*
G03X-1068600Y1870000I-3J55419D01*
G01X-1030000D01*
G02X-930000Y1770000I0J-100000D01*
G01Y1730000D01*
G02X-1030000Y1630000I-100000J0D01*
G01X-1220000D01*
G03X-1320000Y1530000I0J-100000D01*
G01Y578360D01*
G03X-1335420Y540000I40004J-38360D01*
G03X-1321860Y503680I55421J0D01*
G01X-1320620Y502250D01*
Y490050D01*
G03X-1330420Y470000I15610J-20050D01*
G01Y410000D01*
G03X-1320000Y389480I25415J0D01*
G01Y353440D01*
G03X-1327920Y335000I17507J-18440D01*
G01Y275000D01*
G03X-1302500Y249580I25420J0D01*
G01X-1291030D01*
X-1289550Y248150D01*
G03X-1220000Y220000I69550J71843D01*
G02X-1120000Y120000I0J-100000D01*
G01Y-57240D01*
G03X-1133420Y-110000I97002J-52760D01*
G03X-1123420Y-155920I110432J0D01*
G02X-1220000Y-230000I-96580J25917D01*
G01X-1227250D01*
G02X-1231450Y-210590I-3J10159D01*
G03X-1166580Y-110000I-45554J100590D01*
G03X-1387420I-110420J0D01*
G03X-1288050Y-219870I110425J0D01*
G01X-1283480Y-220330D01*
Y-230000D01*
X-1320000D01*
G02X-1420000Y-130000I0J100000D01*
G01Y-70000D01*
X-1428080D01*
G03X-1531000Y420I-102920J-40000D01*
G03X-1633920Y-70000I0J-110420D01*
G01X-2360000D01*
G02X-2455380Y-40I0J99998D01*
G01Y95500D01*
G03X-2459230Y108950I-25419J0D01*
G01X-2460000Y110190D01*
Y270810D01*
X-2459230Y272050D01*
G03X-2455380Y285500I-21569J13450D01*
G01Y390500D01*
G03X-2459230Y403950I-25419J0D01*
G01X-2460000Y405190D01*
Y460000D01*
G03X-2560000Y560000I-100000J0D01*
G01X-2716820D01*
G03X-2794980I-39080J-39311D01*
G01X-2843820D01*
G03X-2921980I-39080J-39311D01*
G01X-2970820D01*
G03X-3048980I-39080J-39311D01*
G01X-3220000D01*
G02Y760000I0J100000D01*
G01X-2921150D01*
G03X-2844650I38250J40090D01*
G01X-2794150D01*
G03X-2755900Y744680I38250J40090D01*
G03X-2719040Y758710I5J55422D01*
G01X-2717600Y760000D01*
X-2710000D01*
G03X-2610000Y860000I0J100000D01*
G01Y899690D01*
G02X-2595220Y908740I10159J2D01*
G03X-2573870Y902810I25207J49354D01*
G03X-2518590Y851260I55280J3865D01*
G03X-2463170Y906680I0J55420D01*
G03X-2514720Y961960I-55415J0D01*
G03X-2539310Y1004240I-55285J-3863D01*
G02Y1021160I5620J8460D01*
G03X-2514720Y1063440I-30695J46143D01*
G03X-2463170Y1118720I-3865J55280D01*
G03X-2518590Y1174140I-55420J0D01*
G03X-2573870Y1122590I0J-55415D01*
G03X-2595220Y1116660I3857J-55284D01*
G02X-2610000Y1125710I-4621J9048D01*
G01Y1600000D01*
G03X-2710000Y1700000I-100000J0D01*
G01X-3010000D01*
G02X-3110000Y1800000I0J100000D01*
G01Y1900000D01*
G03X-3160000Y1950000I-50000J0D01*
G01X-3194580D01*
Y2005000D01*
G03X-3220000Y2030420I-25420J0D01*
G01X-3280000D01*
G03X-3305420Y2005000I0J-25420D01*
G01Y1950000D01*
X-3334580D01*
Y2005000D01*
G03X-3360000Y2030420I-25420J0D01*
G01X-3420000D01*
G03X-3436670Y2024190I0J-25417D01*
G02X-3443330I-3330J3837D01*
G03X-3460000Y2030420I-16670J-19187D01*
G01X-3520000D01*
G03X-3545420Y2005000I0J-25420D01*
G01Y1950000D01*
X-3634580D01*
Y2005000D01*
G03X-3660000Y2030420I-25420J0D01*
G01X-3720000D01*
G03X-3736670Y2024190I0J-25417D01*
G02X-3743330I-3330J3837D01*
G03X-3760000Y2030420I-16670J-19187D01*
G01X-3820000D01*
G03X-3845420Y2005000I0J-25420D01*
G01Y1950000D01*
X-3860000D01*
G02X-3910000Y2000000I0J50000D01*
G01Y2040000D01*
G02X-3860000Y2090000I50000J0D01*
G37*
G36*
G01X-1130000Y4920000D02*
X-1030410D01*
G03X-1001940Y4907320I30418J29996D01*
G01X-999970Y4907230D01*
X-932220Y4839480D01*
Y4729000D01*
G03X-919500Y4716280I12720J0D01*
G01X-870000D01*
Y3940150D01*
G02X-883380Y3930520I-10159J5D01*
G03X-896920Y3932720I-13533J-40521D01*
G03Y3847280I0J-42720D01*
G03X-883380Y3849480I7J42721D01*
G02X-870000Y3839850I3221J-9635D01*
G01Y2380000D01*
G03X-807080Y2287130I99998J0D01*
G03X-807720Y2276000I97078J-11166D01*
G03X-710000Y2178280I97720J0D01*
G03X-612290Y2274970I0J97715D01*
G01X-612230Y2280000D01*
X-229960D01*
G02X-219970Y2267950I6J-10161D01*
G03X-220720Y2260000I41968J-7970D01*
G03X-135280I42720J0D01*
G03X-136030Y2267950I-42718J-20D01*
G02X-126040Y2280000I9984J1889D01*
G01X-87300D01*
G02X12700Y2180000I0J-100000D01*
G01Y600000D01*
G02X-57670Y504490I-100001J0D01*
G03X-106500Y519840I-48830J-69992D01*
G03X-161210Y500000I0J-85353D01*
G01X-540000D01*
G03X-640000Y400000I0J-100000D01*
G01Y-130000D01*
G02X-740000Y-230000I-100000J0D01*
G01X-800000D01*
G02X-900000Y-130000I0J100000D01*
G01Y-80000D01*
G02X-800000Y20000I100000J0D01*
G01X-790000D01*
G03X-740000Y70000I0J50000D01*
G01Y114970D01*
X-739710Y115790D01*
G03X-737280Y130000I-40291J14203D01*
G03X-739710Y144210I-42721J7D01*
G01X-740000Y145030D01*
Y199970D01*
X-739710Y200790D01*
G03X-737280Y215000I-40291J14203D01*
G03X-739710Y229210I-42721J7D01*
G01X-740000Y230030D01*
Y400000D01*
G03X-840000Y500000I-100000J0D01*
G01X-967630D01*
G02X-974310Y517810I3J10159D01*
G03X-959680Y550000I-28098J32190D01*
G03X-1045120I-42720J0D01*
G03X-1030490Y517810I42728J0D01*
G02X-1037170Y500000I-6683J-7651D01*
G01X-1089780D01*
Y509740D01*
X-1088450Y511200D01*
G03X-1077280Y540000I-31543J28800D01*
G03X-1120000Y582720I-42720J0D01*
G03X-1160070Y554820I0J-42724D01*
G02X-1178600Y553630I-9529J3521D01*
G02X-1190000Y600000I88606J46370D01*
G01Y1510000D01*
G02X-1090000Y1610000I100000J0D01*
G01X-1010000D01*
G03X-910000Y1710000I0J100000D01*
G01Y1780000D01*
G03X-1004790Y1879860I-99996J0D01*
G03X-1030000Y1882720I-25230J-109858D01*
G01X-1047100D01*
G02X-1055830Y1898090I-6J10161D01*
G03X-1049780Y1920000I-36668J21916D01*
G03X-1073730Y1958370I-42711J0D01*
G02Y1976630I4468J9130D01*
G03X-1049780Y2015000I-18761J38370D01*
G03X-1135220I-42720J0D01*
G03X-1111270Y1976630I42711J0D01*
G02Y1958370I-4468J-9130D01*
G03X-1135220Y1920000I18761J-38370D01*
G03X-1129170Y1898090I42718J6D01*
G02X-1137900Y1882720I-8724J-5209D01*
G01X-1300000D01*
G03X-1324080Y1880120I-9J-112721D01*
G01X-1324620Y1880000D01*
X-2070000D01*
G02X-2170000Y1980000I0J100000D01*
G01Y2170000D01*
G02X-2168500Y2187280I100002J24D01*
G01X-2105000D01*
G03X-2092280Y2200000I0J12720D01*
G01Y2260000D01*
G03X-2092500Y2262350I-12719J-5D01*
G02X-2088440Y2268280I4991J938D01*
G02X-2070000Y2270000I18467J-98277D01*
G01X-1386350D01*
G02X-1377710Y2254490I2J-10160D01*
G03X-1384130Y2231970I36288J-22520D01*
G03X-1341410Y2189250I42720J0D01*
G03X-1298710Y2230800I0J42716D01*
G02X-1288830Y2240680I10159J-279D01*
G03X-1250590Y2266880I-1163J42704D01*
G01X-1249290Y2270000D01*
X-1220000D01*
G03X-1120000Y2370000I0J100000D01*
G01Y3420000D01*
G03X-1206300Y3519060I-100003J0D01*
G01X-1210680Y3519660D01*
Y4879080D01*
G02X-1130000Y4920000I80680J-59076D01*
G37*
%LPC*%
G75*
G36*
G01X-5872000Y1607720D02*
X-5692000D01*
G02Y1442280I0J-82720D01*
G01X-5872000D01*
G02Y1607720I0J82720D01*
G37*
G36*
G01Y3057720D02*
X-5692000D01*
G02Y2892280I0J-82720D01*
G01X-5872000D01*
G02Y3057720I0J82720D01*
G37*
G36*
G01X-1327920Y85000D02*
Y145000D01*
G02X-1302500Y170420I25420J0D01*
G01X-1197500D01*
G02X-1172080Y145000I0J-25420D01*
G01Y85000D01*
G02X-1197500Y59580I-25420J0D01*
G01X-1302500D01*
G02X-1327920Y85000I0J25420D01*
G37*
G36*
G01X-2640420Y1890000D02*
Y1950000D01*
G02X-2615000Y1975420I25420J0D01*
G01X-2465000D01*
G02X-2439580Y1950000I0J-25420D01*
G01Y1890000D01*
G02X-2449420Y1869920I-25408J0D01*
G03X-2450390Y1862890I3116J-4012D01*
G02X-2439580Y1830000I-44612J-32884D01*
G02X-2550420I-55420J0D01*
G02X-2546430Y1850640I55419J-8D01*
G03X-2555860Y1864580I-9432J3779D01*
G01X-2615000D01*
G02X-2640420Y1890000I0J25420D01*
G37*
G36*
G01X-2896700Y1953200D02*
G02X-2852130Y1981560I48439J-26922D01*
G02X-2796850Y2033110I55280J-3865D01*
G02X-2741430Y1977690I0J-55420D01*
G02X-2792980Y1922410I-55415J0D01*
G02X-2848260Y1870860I-55280J3865D01*
G02X-2896700Y1899360I0J55416D01*
G03X-2914460I-8880J-4941D01*
G02X-2962900Y1870860I-48440J26916D01*
G02X-3018180Y1922410I0J55415D01*
G02X-3069730Y1977690I3865J55280D01*
G02X-3014310Y2033110I55420J0D01*
G02X-2959030Y1981560I0J-55415D01*
G02X-2914460Y1953200I-3869J-55282D01*
G03X-2896700I8880J4941D01*
G37*
G36*
G01X-907920Y788260D02*
Y871060D01*
G02X-919220Y900000I31409J28940D01*
G02X-833780I42720J0D01*
G02X-852080Y864950I-42716J0D01*
G01Y788260D01*
X-847860Y787540D01*
G02X-837280Y775000I-2142J-12540D01*
G01Y625000D01*
G02X-850000Y612280I-12720J0D01*
G01X-910000D01*
G02X-922720Y625000I0J12720D01*
G01Y775000D01*
G02X-912140Y787540I12722J0D01*
G01X-907920Y788260D01*
G37*
G36*
G01X-777420Y785330D02*
Y867670D01*
G02X-792220Y900000I27912J32330D01*
G02X-706780I42720J0D01*
G02X-721580Y867670I-42712J0D01*
G01Y787720D01*
X-710000D01*
G02X-697280Y775000I0J-12720D01*
G01Y625000D01*
G02X-710000Y612280I-12720J0D01*
G01X-770000D01*
G02X-782720Y625000I0J12720D01*
G01Y775000D01*
G02X-777420Y785330I12717J0D01*
G37*
G36*
G01X-700220Y1310000D02*
G02X-691370Y1331370I30226J0D01*
G01X-682770Y1339970D01*
X-682680Y1341940D01*
G02X-640000Y1382720I42680J-1944D01*
G02X-597280Y1340000I0J-42720D01*
G02X-635260Y1297540I-42724J0D01*
G01X-639780Y1297040D01*
Y1268260D01*
X-636210Y1267140D01*
G02X-627280Y1255000I-3787J-12140D01*
G01Y1105000D01*
G02X-640000Y1092280I-12720J0D01*
G01X-700000D01*
G02X-712720Y1105000I0J12720D01*
G01Y1255000D01*
G02X-703790Y1267140I12717J0D01*
G01X-700220Y1268260D01*
Y1310000D01*
G37*
G36*
G01X-1147920Y1268260D02*
Y1320990D01*
G02X-1173220Y1360000I17425J39010D01*
G02X-1087780I42720J0D01*
G02X-1091620Y1342290I-42722J-8D01*
G01X-1092080Y1341290D01*
Y1268260D01*
X-1087860Y1267540D01*
G02X-1077280Y1255000I-2142J-12540D01*
G01Y1105000D01*
G02X-1090000Y1092280I-12720J0D01*
G01X-1150000D01*
G02X-1162720Y1105000I0J12720D01*
G01Y1255000D01*
G02X-1152140Y1267540I12722J0D01*
G01X-1147920Y1268260D01*
G37*
G36*
G01X-1027920D02*
Y1447670D01*
G02X-1042720Y1480000I27912J32330D01*
G02X-957280I42720J0D01*
G02X-972080Y1447670I-42712J0D01*
G01Y1268260D01*
X-967860Y1267540D01*
G02X-957280Y1255000I-2142J-12540D01*
G01Y1105000D01*
G02X-970000Y1092280I-12720J0D01*
G01X-1030000D01*
G02X-1042720Y1105000I0J12720D01*
G01Y1255000D01*
G02X-1032140Y1267540I12722J0D01*
G01X-1027920Y1268260D01*
G37*
G36*
G01X-607860Y1938790D02*
X-606740Y1935220D01*
X-600260D01*
X-598800Y1936550D01*
G02X-570000Y1947720I28800J-31543D01*
G02Y1862280I0J-42720D01*
G02X-591910Y1868330I6J42718D01*
G03X-607280Y1859600I-5209J-8724D01*
G01Y1785000D01*
G02X-620000Y1772280I-12720J0D01*
G01X-680000D01*
G02X-692720Y1785000I0J12720D01*
G01Y1935000D01*
G02X-680000Y1947720I12720J0D01*
G01X-620000D01*
G02X-607860Y1938790I0J-12717D01*
G37*
G36*
G01X-1940720Y2011650D02*
G03X-1950600Y2021530I-10160J-280D01*
G02X-1992150Y2064230I1166J42700D01*
G02X-1949430Y2106950I42720J0D01*
G02X-1906730Y2065400I0J-42716D01*
G03X-1896850Y2055520I10160J280D01*
G02X-1855300Y2012820I-1166J-42700D01*
G02X-1898020Y1970100I-42720J0D01*
G02X-1940720Y2011650I0J42716D01*
G37*
G36*
G01X-1784550Y2055520D02*
G03X-1774670Y2065400I-280J10160D01*
G02X-1731970Y2106950I42700J-1166D01*
G02X-1689250Y2064230I0J-42720D01*
G02X-1730800Y2021530I-42716J0D01*
G03X-1740680Y2011650I280J-10160D01*
G02X-1783380Y1970100I-42700J1166D01*
G02X-1826100Y2012820I0J42720D01*
G02X-1784550Y2055520I42716J0D01*
G37*
G36*
G01X-1162720Y3825000D02*
Y3975000D01*
G02X-1150000Y3987720I12720J0D01*
G01X-1090000D01*
G02X-1077280Y3975000I0J-12720D01*
G01Y3825000D01*
G02X-1086210Y3812860I-12717J0D01*
G01X-1089780Y3811740D01*
Y3710200D01*
G02X-1077280Y3680000I-30232J-30200D01*
G02X-1162720I-42720J0D01*
G02X-1150220Y3710200I42732J0D01*
G01Y3811740D01*
X-1153790Y3812860D01*
G02X-1162720Y3825000I3787J12140D01*
G37*
G36*
G01X-1140220Y4518260D02*
Y4529740D01*
X-1141550Y4531200D01*
G02X-1152720Y4560000I31543J28800D01*
G02X-1067280I42720J0D01*
G02X-1078450Y4531200I-42713J0D01*
G01X-1079780Y4529740D01*
Y4518260D01*
X-1076210Y4517140D01*
G02X-1067280Y4505000I-3787J-12140D01*
G01Y4355000D01*
G02X-1080000Y4342280I-12720J0D01*
G01X-1140000D01*
G02X-1152720Y4355000I0J12720D01*
G01Y4505000D01*
G02X-1143790Y4517140I12717J0D01*
G01X-1140220Y4518260D01*
G37*
G54D38*
X-5880200Y2650000D03*
Y1900000D03*
Y2500000D03*
Y2350000D03*
Y2200000D03*
X-55500Y867500D03*
X-436500Y1629500D03*
X-1050000Y4796500D03*
X-309500Y867500D03*
Y1629500D03*
X-182500Y740500D03*
X-309500Y613500D03*
X-309000Y1121000D03*
X-182500Y1629500D03*
X-59000Y2141000D03*
X-436500Y1883500D03*
X-182500Y1121500D03*
X-55500Y1248500D03*
Y613500D03*
X-436500Y740500D03*
X-309500Y1248500D03*
X-52500Y1632500D03*
X-182500Y1883500D03*
X-311000Y2139000D03*
X-850000Y1920000D03*
X-182500Y2137500D03*
X-840000Y1680000D03*
G54D40*
X-2370000Y1830000D03*
G54D39*
X-2410000Y710000D03*
G54D41*
X-769000Y-110000D03*
%LPD*%
G75*
G54D10*
X-6415000Y1330000D03*
Y3170000D03*
X-6325000Y1330000D03*
X-6135000D03*
X-6225000D03*
X-6325000Y3170000D03*
X-6135000D03*
X-6225000D03*
X-4295000Y1190000D03*
Y1290000D03*
X-4260000Y2585000D03*
Y2495000D03*
X-3945000Y880000D03*
X-4035000D03*
X-4205000Y1190000D03*
Y1290000D03*
X-3790000Y1885000D03*
Y1975000D03*
X-4051300Y2647400D03*
Y2737400D03*
X-4170000Y3035000D03*
Y3125000D03*
X-3804200Y6045200D03*
Y5930900D03*
X-3651800Y1422400D03*
X-3561800D03*
X-3651800Y1143000D03*
X-3561800D03*
X-3690000Y1885000D03*
X-3390000D03*
X-3416300Y1593300D03*
Y1683300D03*
X-3530600Y1593300D03*
Y1683300D03*
X-3490000Y1885000D03*
X-3690000Y1975000D03*
X-3390000D03*
X-3490000D03*
X-3543300Y2571200D03*
Y2661200D03*
X-3778800Y2552700D03*
X-3688800D03*
X-3385000Y2970000D03*
X-3365500Y3168100D03*
X-3695700Y3118400D03*
Y3028400D03*
X-3365500Y3258100D03*
X-3435900Y4381500D03*
Y4254500D03*
Y4826000D03*
Y4572000D03*
Y4699000D03*
Y4953000D03*
X-3714200Y6045200D03*
Y5930900D03*
X-2965000Y300000D03*
X-3055000D03*
X-3149600Y907500D03*
Y997500D03*
X-2978700Y1117600D03*
Y1257300D03*
X-3187700Y1683300D03*
Y1593300D03*
X-2978700Y1536700D03*
X-3250000Y1885000D03*
X-3302000Y1593300D03*
Y1683300D03*
X-3250000Y1975000D03*
X-2985000Y2350000D03*
X-2965000Y2700000D03*
X-3055000D03*
X-3295000Y2970000D03*
X-2965000Y2860000D03*
X-3055000D03*
X-3345900Y4381500D03*
Y4254500D03*
Y4826000D03*
Y4572000D03*
Y4699000D03*
Y4953000D03*
X-2888700Y1117600D03*
Y1257300D03*
Y1536700D03*
X-2585000Y1920000D03*
X-2545000Y2350000D03*
X-2895000D03*
X-2837900Y3517900D03*
X-2927900D03*
X-2837900Y3238500D03*
X-2927900D03*
X-2558500Y4470400D03*
X-2648500D03*
Y4597400D03*
X-2558500D03*
X-2106000Y190000D03*
Y280000D03*
X-2495000Y1920000D03*
X-2135000Y2230000D03*
X-2225000D03*
X-2455000Y2350000D03*
X-2340000Y2725000D03*
Y2635000D03*
X-2130000Y5015000D03*
Y4925000D03*
X-2300000Y5985000D03*
Y5895000D03*
X-2410000Y5985000D03*
Y5895000D03*
X-1976000Y190000D03*
Y280000D03*
X-1846000Y190000D03*
Y280000D03*
X-1716000Y190000D03*
Y280000D03*
X-1855000Y1750000D03*
X-1945000D03*
X-1855000Y1650000D03*
X-1945000D03*
X-2000000Y2635000D03*
Y2725000D03*
Y2915000D03*
Y2825000D03*
X-1730000Y4075000D03*
Y4165000D03*
X-1800000Y6035000D03*
Y6125000D03*
Y5865000D03*
Y5775000D03*
X-1275000Y440000D03*
X-1450000Y4385000D03*
Y4475000D03*
X-860000Y125000D03*
X-1185000Y440000D03*
X-860000Y215000D03*
X-880000Y655000D03*
Y745000D03*
X-1120000Y1135000D03*
Y1225000D03*
X-1000000Y1135000D03*
Y1225000D03*
X-1120000Y3945000D03*
Y3855000D03*
X-1110000Y4385000D03*
X-889500Y4759000D03*
Y4849000D03*
X-1110000Y4475000D03*
X-1060000Y5560000D03*
Y5470000D03*
Y6145000D03*
Y6055000D03*
X-740000Y655000D03*
Y745000D03*
X-670000Y1135000D03*
Y1225000D03*
X-650000Y1815000D03*
Y1905000D03*
X-795000Y5900000D03*
X-705000D03*
X-795000Y6490000D03*
X-705000D03*
G54D11*
X-6379000Y1525000D03*
Y2975000D03*
G54D20*
X-4415000Y1300000D03*
X-4605000D03*
G54D21*
X-3810000Y3835600D03*
Y5260600D03*
X-3340000Y3835600D03*
Y5260600D03*
X-2840000Y3835600D03*
Y5260600D03*
X-2380000Y4068100D03*
Y4548100D03*
Y5028100D03*
G54D12*
X-6415000Y1245000D03*
Y3255000D03*
X-6135000Y1245000D03*
Y3255000D03*
X-5880200Y1900000D03*
Y2200000D03*
Y2650000D03*
Y2500000D03*
Y2350000D03*
X-5508030Y2983530D03*
X-5290570D03*
X-5341980Y2932120D03*
X-5456620D03*
X-5060000Y5762500D03*
X-4938590Y970570D03*
X-4658350Y931150D03*
X-4990000Y1021980D03*
X-4697700Y1405000D03*
X-4700000Y1195000D03*
X-4938590Y1188030D03*
X-5051410Y1401270D03*
X-5000000Y1452680D03*
X-4990000Y1136620D03*
X-4650000Y1610000D03*
X-5051410Y1618730D03*
X-5000000Y1567320D03*
X-4639860Y3160040D03*
X-4640000Y2990000D03*
X-4710000Y3140910D03*
Y3031690D03*
X-5050000Y6057500D03*
X-4501150Y931150D03*
X-4322300Y1405000D03*
X-4390000Y1610000D03*
X-4328590Y2030570D03*
Y2248030D03*
X-4380000Y2081980D03*
Y2196620D03*
Y2670000D03*
Y2410000D03*
X-4400000Y2965000D03*
X-4245000Y3125000D03*
X-4267200Y2895600D03*
X-4400000Y3375000D03*
X-4527500Y5910000D03*
X-3860000Y880000D03*
X-4120000D03*
X-4130000Y1850000D03*
X-3870000D03*
X-3920000Y2230000D03*
X-4165600Y2628900D03*
X-3810000Y2430000D03*
X-3911600Y2667000D03*
X-4160000Y2550000D03*
X-4150000Y2425700D03*
X-4192570Y2696420D03*
X-4140000Y2957600D03*
X-3810000Y2781300D03*
X-3924300Y2895600D03*
X-3858400Y3566300D03*
X-3830000Y4420000D03*
Y4530000D03*
X-3940000Y6120000D03*
X-3859500Y5840500D03*
X-3540000Y0D03*
X-3695700Y-95100D03*
X-3350000Y360000D03*
X-3766100Y1430000D03*
X-3416300Y1295400D03*
Y1143000D03*
Y1435100D03*
X-3746500Y1143000D03*
X-3730000Y1683300D03*
X-3403600Y1803400D03*
X-3490000Y1810000D03*
X-3598000Y1820000D03*
X-3540000Y2225000D03*
X-3543300Y2476500D03*
X-3695700Y2667000D03*
X-3470000Y2400000D03*
X-3556000Y3124200D03*
X-3470000Y2970000D03*
X-3695700Y2895600D03*
X-3365500Y3352800D03*
X-3644900Y3568700D03*
X-3556000D03*
X-3550000Y4381500D03*
Y4254500D03*
X-3581400Y4156300D03*
X-3550000Y4826000D03*
Y4699000D03*
Y4572000D03*
Y4980000D03*
X-3607040Y4894030D03*
X-3400000Y5560000D03*
X-3551970Y5571410D03*
X-3769430D03*
X-3718020Y5520000D03*
X-3603380D03*
X-3590000Y6045200D03*
Y5930900D03*
X-2930000Y-55000D03*
X-3090000D03*
X-3140000Y340000D03*
X-3220000Y615400D03*
X-3009900Y520700D03*
X-2960000Y830000D03*
X-3280000Y660000D03*
X-3227300Y712700D03*
X-3149600Y825500D03*
X-3124200Y1295400D03*
Y1143000D03*
X-3263900Y1435100D03*
Y1143000D03*
X-3116410Y1436660D03*
X-3269400Y1291700D03*
X-3211610Y1803440D03*
X-3327400Y1778000D03*
X-3170000Y1880000D03*
X-3014310Y1977690D03*
X-2962900Y1926280D03*
X-3070000Y2350000D03*
X-3127700Y2700000D03*
X-3269700Y3168100D03*
X-3040000Y3130000D03*
X-3220000Y2870000D03*
X-2927900Y3130000D03*
X-3210000Y2970000D03*
X-3127700Y2860000D03*
X-2933700Y3416300D03*
X-3009900Y3644900D03*
X-2971800Y4419600D03*
X-2959100Y4241800D03*
X-3225800Y4381500D03*
Y4254500D03*
X-3240000Y4572000D03*
Y4699000D03*
Y4820000D03*
Y4953000D03*
X-2850000Y30000D03*
X-2857500Y190500D03*
X-2882900Y520700D03*
X-2755900D03*
X-2850000Y360000D03*
X-2882900Y800100D03*
X-2755900D03*
X-2518590Y906680D03*
X-2580000Y820000D03*
X-2570000Y958090D03*
X-2730000Y1241700D03*
X-2693150Y1403150D03*
X-2740000Y1070000D03*
X-2518590Y1118720D03*
X-2570000Y1067310D03*
X-2790000Y1550000D03*
X-2910000Y1740000D03*
X-2796850Y1977690D03*
X-2700000Y1920000D03*
X-2848260Y1926280D03*
X-2730000Y2430000D03*
X-2810000Y2350000D03*
X-2701970Y2360290D03*
X-2575000Y2427500D03*
X-2600000Y2670000D03*
X-2630000Y2350000D03*
X-2892300Y2700000D03*
X-2760000Y3130000D03*
X-2740000Y2910000D03*
X-2649570Y2910440D03*
X-2575000Y2912500D03*
X-2892300Y2860000D03*
X-2857500Y3340100D03*
X-2781300Y3644900D03*
X-2895600D03*
X-2781300Y4445000D03*
Y4584700D03*
X-2566600Y4957700D03*
X-2781300Y4890000D03*
X-2910000Y5502100D03*
Y5649600D03*
Y6080000D03*
Y5797100D03*
Y6380000D03*
Y6230000D03*
X-2106000Y110000D03*
Y352700D03*
X-2209800Y1333500D03*
X-2100000Y1100000D03*
X-2260600Y1476160D03*
X-2495000Y1830000D03*
X-2370000D03*
X-2260600Y1701800D03*
X-2140000Y1830000D03*
X-2324100Y1524000D03*
Y1612900D03*
X-2310000Y2230000D03*
X-2270000Y2320000D03*
X-2470000Y2430000D03*
X-2370000Y2350000D03*
X-2340000Y2562300D03*
X-2470000Y2910000D03*
X-2340580Y3022560D03*
X-2200000Y3030000D03*
X-2391990Y3073970D03*
X-2340000Y2797700D03*
X-2340580Y3240020D03*
X-2391990Y3188610D03*
X-2260000Y4440000D03*
X-2130000Y4770000D03*
X-2255400Y4850000D03*
X-2413000Y4813300D03*
Y4724400D03*
X-2137300Y5102450D03*
X-2210000Y5297300D03*
X-2137560Y5657710D03*
X-2240000Y6140000D03*
X-2270000Y5758200D03*
X-1716000Y106300D03*
X-1846000Y106900D03*
X-1976000Y109900D03*
X-1716000Y352700D03*
X-1846000D03*
X-1976000D03*
X-1990000Y1100000D03*
X-1770000Y1370000D03*
X-1880000Y1100000D03*
X-1770000D03*
X-1760000Y1752600D03*
Y1664300D03*
Y1500000D03*
X-1680000Y1830000D03*
X-2010000Y1530000D03*
Y1650000D03*
X-1890000Y1830000D03*
X-1731970Y2064230D03*
X-1949430D03*
X-2050000Y2230000D03*
Y1920000D03*
X-1898020Y2012820D03*
X-1783380D03*
X-1920000Y2725000D03*
Y2635000D03*
X-2000000Y3000000D03*
X-1825770Y3370570D03*
Y3588030D03*
X-1877180Y3536620D03*
Y3421980D03*
X-1723700Y3996300D03*
X-1810000Y3685000D03*
X-1820800Y3950000D03*
X-1820000Y3870000D03*
X-1810000Y4115000D03*
X-1820000Y4210000D03*
X-2004600Y4860000D03*
X-1710000Y4660900D03*
X-1972700Y5125000D03*
X-2060000Y5297300D03*
X-1910000D03*
X-1990000Y5660000D03*
X-1820000D03*
X-1700000Y5765360D03*
Y5880000D03*
Y6134640D03*
Y6020000D03*
X-1506000Y49600D03*
X-1630000Y345000D03*
X-1280000Y540000D03*
X-1260000Y705000D03*
X-1585000Y1330000D03*
X-1341410Y2231970D03*
X-1290000Y2283380D03*
X-1341410Y2449430D03*
X-1410570Y2391410D03*
X-1628030D03*
X-1290000Y2398020D03*
X-1461980Y2340000D03*
X-1576620D03*
X-1370000Y4395000D03*
X-1340570Y4301410D03*
X-1558030D03*
X-1391980Y4250000D03*
X-1506620D03*
X-1439200Y4660000D03*
X-1370000Y4470000D03*
Y4585000D03*
X-1610000Y4470000D03*
X-1284700Y5186500D03*
X-1630000Y5740000D03*
Y6000000D03*
Y6160000D03*
Y5900000D03*
X-870000Y305000D03*
X-1002400Y550000D03*
X-1120000Y540000D03*
X-876500Y900000D03*
X-1000000Y1480000D03*
X-1130500Y1360000D03*
X-840000Y1680000D03*
X-820200Y1825000D03*
X-1092500Y1820000D03*
X-1090000Y1680000D03*
X-1092500Y1920000D03*
X-850000D03*
X-1092500Y2015000D03*
X-1070000Y2445000D03*
Y2735000D03*
X-1100000Y3570000D03*
X-820000Y3540000D03*
X-1120000Y3680000D03*
X-964100Y3650000D03*
X-1040000Y3996300D03*
X-896920Y3890000D03*
X-964100Y4110000D03*
X-990000Y4322300D03*
X-1050000Y4796500D03*
X-1110000Y4560000D03*
X-1000000Y4730000D03*
X-1150000Y4796500D03*
Y4869200D03*
X-820000Y4585000D03*
X-1000000Y4950000D03*
X-970000Y5470000D03*
X-1180000Y5500400D03*
X-1060000Y5645000D03*
X-970000Y6055000D03*
X-1180000Y6085400D03*
X-960000Y5902700D03*
X-1060000D03*
X-1160000Y5750000D03*
X-880000Y5900000D03*
X-1180000Y6380400D03*
X-960000Y6490000D03*
X-1060000D03*
X-880000D03*
X-1060000Y6230000D03*
X-780000Y130000D03*
X-539430Y108590D03*
X-488020Y160000D03*
X-373380D03*
X-780000Y215000D03*
X-436500Y740500D03*
X-749500Y900000D03*
X-640000Y1340000D03*
Y1420000D03*
X-436500Y1629500D03*
Y1883500D03*
X-570000Y1905000D03*
X-437500Y2392500D03*
X-436500Y2645500D03*
Y3153500D03*
Y3407500D03*
X-570000Y3490000D03*
X-770000Y3400000D03*
X-670000Y3460000D03*
X-436500Y3915500D03*
X-482600Y4614000D03*
X-680000Y4580000D03*
X-669710Y4508030D03*
X-760000Y4510000D03*
X-413400Y5059160D03*
X-600000Y5140000D03*
X-570000Y4930000D03*
X-680000Y4991500D03*
X-630000Y5050000D03*
X-710000Y5121500D03*
X-436500Y5566500D03*
X-770000Y5615000D03*
X-520000Y5500000D03*
Y5710000D03*
X-600220Y5665490D03*
Y5550850D03*
X-680000Y5825000D03*
X-620000Y5900000D03*
X-560000Y6070000D03*
X-600220Y6135850D03*
X-620000Y6410000D03*
Y6490000D03*
X-770000Y6200000D03*
X-562340Y6312550D03*
X-600220Y6250490D03*
X-321970Y108590D03*
X-55500Y613500D03*
X-309500D03*
X-182500D03*
X-309500Y867500D03*
X-55500D03*
X-182500Y740500D03*
X-55500D03*
Y1248500D03*
X-309500D03*
X-182500Y1121500D03*
X-309000Y1121000D03*
X-52500Y1632500D03*
X-182500Y1883500D03*
Y1629500D03*
X-309500D03*
X-59000Y2141000D03*
X-311000Y2139000D03*
X-182500Y2137500D03*
X-178000Y2260000D03*
X-55500Y2391500D03*
X-182500D03*
Y2645500D03*
X-309500Y2391500D03*
X-61940Y2503220D03*
X-50800Y2641600D03*
X-182500Y3153500D03*
X-309500Y2899500D03*
X-58800Y2775800D03*
X-58000Y2902000D03*
X-53340Y3027680D03*
X-299000Y3270000D03*
X-46000Y3290000D03*
X-50000Y3413000D03*
X-309500Y3661500D03*
X-182500Y3915500D03*
X-55500D03*
Y3661500D03*
X-309500Y3915500D03*
Y4296500D03*
X-51000Y4419000D03*
X-182500Y4296500D03*
X-55500D03*
Y4169500D03*
Y4804500D03*
X-182500Y4550500D03*
X-309500Y4804500D03*
X-177800Y4799800D03*
X-55880Y4551680D03*
X-53340Y4676140D03*
X-182500Y5058500D03*
X-309500D03*
Y5312500D03*
X-55500D03*
X-177800Y4926800D03*
X-53340Y4929340D03*
Y5056340D03*
X-170000Y5173000D03*
Y5300000D03*
X-55500Y5693500D03*
X-309500D03*
X-310000Y5430000D03*
X-180000Y5690000D03*
X-182500Y5439500D03*
X-55880Y5440680D03*
X-53340Y5565140D03*
X325500Y613500D03*
X452500D03*
X198500D03*
X325500Y867500D03*
X452500Y740500D03*
Y994500D03*
Y867500D03*
X198500D03*
X199500Y739500D03*
X325500Y994500D03*
Y740500D03*
Y1121500D03*
X452500Y1248500D03*
Y1121500D03*
X198500Y1248500D03*
X195000Y1125000D03*
X452500Y1629500D03*
X198500D03*
X325500D03*
X452500Y1883500D03*
Y1756500D03*
Y2010500D03*
X325500Y2137500D03*
X452500D03*
X200000Y2012000D03*
X323000Y2013000D03*
X200000Y2270000D03*
X452500Y2518500D03*
X325500D03*
X71500Y2645500D03*
X452500D03*
X328500Y2388500D03*
X325500Y3026500D03*
X452500Y3153500D03*
X325500D03*
X77500Y3147500D03*
X329000Y2769000D03*
X77000Y2767000D03*
X71120Y3027680D03*
X198000Y3408000D03*
X452500Y3280500D03*
X325500Y3407500D03*
X71500Y3280500D03*
X325500Y3534500D03*
X198500Y3661500D03*
X201500Y3918500D03*
X325500Y3915500D03*
X325000Y3790000D03*
X325500Y3661500D03*
X452500Y4042500D03*
Y4169500D03*
X198500Y4423500D03*
Y4169500D03*
X327660Y4043680D03*
X453860Y4425660D03*
X453000Y4297000D03*
X329500Y4300500D03*
X325500Y4804500D03*
X200500Y4679500D03*
X325500Y4550500D03*
X71500Y5185500D03*
X325000Y5185000D03*
X325500Y5058500D03*
X326500Y5313500D03*
X70000Y5060000D03*
X325500Y4931500D03*
Y5439500D03*
X326000Y5694000D03*
X71500Y5439500D03*
X325000Y5565000D03*
X71500Y5566500D03*
X706500Y613500D03*
Y994500D03*
X579500Y867500D03*
Y740500D03*
Y1248500D03*
Y1375500D03*
X706500Y1121500D03*
Y1502500D03*
X579500Y1756500D03*
X706500Y1629500D03*
X579500Y1883500D03*
Y2264500D03*
X706500Y2010500D03*
Y2137500D03*
Y2645500D03*
X579500Y2391500D03*
X706500Y2518500D03*
X704500Y2774500D03*
X579500Y3026500D03*
X706500Y3153500D03*
X579500Y3407500D03*
X706500Y3280500D03*
X579500Y3534500D03*
X579000Y3661000D03*
X579500Y3915500D03*
X580500Y3789500D03*
X706500Y3661500D03*
Y3788500D03*
Y4296500D03*
X579500D03*
Y4042500D03*
X706500Y4169500D03*
X579500D03*
X580680Y4423880D03*
X706500Y4804500D03*
Y4550500D03*
X579500Y4677500D03*
X572500Y4797500D03*
X579500Y4931500D03*
X706500Y5185500D03*
Y5312500D03*
X578500Y5311500D03*
X577000Y5183000D03*
X579500Y5058500D03*
Y5439500D03*
X706500Y5693500D03*
X577500Y5692500D03*
X579500Y5566500D03*
G54D30*
X-1250000Y115000D03*
Y305000D03*
X-990000Y115000D03*
Y305000D03*
Y210000D03*
G54D31*
G01X385600Y-190500D02*
Y-110500D01*
X373600Y-126500D01*
G01Y-190500D02*
X397600D01*
G54D22*
X-2990000Y4070000D03*
Y5030000D03*
X-106500Y434500D03*
X198500Y5872500D03*
G54D13*
X-5782000Y1525000D03*
Y2975000D03*
G54D32*
G01X-6135000Y1330000D02*
Y1245000D01*
G01Y3170000D02*
Y3255000D01*
G01X-4605000Y1405000D02*
X-4697700D01*
G01X-4605000Y1195000D02*
X-4700000D01*
G01X-4810000Y5762500D02*
X-5060000D01*
G01X-4810000Y6057500D02*
X-5050000D01*
G01X-4322300Y1405000D02*
X-4415000D01*
G01X-4260000Y2585000D02*
X-4216100Y2628900D01*
X-4165600D01*
G01X-4260000Y2495000D02*
X-4215000D01*
X-4160000Y2550000D01*
G01X-4170000Y3125000D02*
X-4245000D01*
G01X-3945000Y880000D02*
X-3860000D01*
G01X-4035000D02*
X-4120000D01*
G01X-4165600Y2628900D02*
X-4147100Y2647400D01*
X-4051300D01*
G01X-3778800Y2552700D02*
Y2461200D01*
X-3810000Y2430000D01*
G01X-4170000Y3035000D02*
Y2987600D01*
X-4140000Y2957600D01*
G01X-3804200Y6045200D02*
X-3865200D01*
X-3940000Y6120000D01*
G01D02*
Y6066700D01*
X-3804200Y5930900D01*
G01X-3766100Y1430000D02*
X-3758500Y1422400D01*
X-3651800D01*
G01X-3416300Y1435100D02*
X-3530600Y1549400D01*
Y1593300D01*
G01X-3416300D02*
Y1435100D01*
G01X-3561800Y1143000D02*
X-3416300D01*
G01Y1295400D02*
X-3434800D01*
X-3561800Y1422400D01*
G01X-3790000Y1975000D02*
X-3690000D01*
G01X-3490000D02*
X-3390000D01*
G01X-3543300Y2571200D02*
Y2476500D01*
G01X-3688800Y2552700D02*
Y2660100D01*
X-3695700Y2667000D01*
G01X-3470000Y2400000D02*
Y2600610D01*
X-3530590Y2661200D01*
X-3543300D01*
G01X-3695700Y3118400D02*
X-3689900Y3124200D01*
X-3556000D01*
G01X-3385000Y2970000D02*
X-3470000D01*
G01X-3695700Y3028400D02*
Y2895600D01*
G01X-3435900Y4381500D02*
X-3550000D01*
G01X-3435900Y4254500D02*
X-3550000D01*
G01X-3435900Y4826000D02*
X-3550000D01*
G01X-3435900Y4699000D02*
X-3550000D01*
G01X-3435900Y4572000D02*
X-3550000D01*
G01X-3435900Y4953000D02*
X-3523000D01*
X-3550000Y4980000D01*
G01X-3590000Y6045200D02*
X-3714200D01*
G01Y5930900D02*
X-3590000D01*
G01X-3055000Y300000D02*
X-3100000D01*
X-3140000Y340000D01*
G01X-3149600Y997500D02*
Y1117600D01*
X-3124200Y1143000D01*
G01X-3302000Y1593300D02*
Y1473200D01*
X-3263900Y1435100D01*
G01X-3187700Y1593300D02*
Y1507950D01*
X-3116410Y1436660D01*
G01D02*
X-3016370Y1536700D01*
X-2978700D01*
G01Y1257300D02*
X-3086100D01*
X-3124200Y1295400D01*
G01X-2978700Y1117600D02*
X-3098800D01*
X-3124200Y1143000D01*
G01X-3211610Y1803440D02*
X-3187700Y1779530D01*
Y1683300D01*
G01X-2985000Y2350000D02*
X-3070000D01*
G01X-3295000Y2970000D02*
X-3210000D01*
G01X-3365500Y3168100D02*
X-3269700D01*
G01X-3365500Y3258100D02*
Y3352800D01*
G01X-2971800Y4556300D02*
Y4419600D01*
G01X-2822400Y4241800D02*
X-2959100D01*
G01X-2590800Y43000D02*
X-2837000D01*
X-2850000Y30000D01*
G01X-2590800Y338000D02*
X-2828000D01*
X-2850000Y360000D01*
G01X-2730000Y1241700D02*
X-2745600Y1257300D01*
X-2888700D01*
G01X-2740000Y1070000D02*
X-2787600Y1117600D01*
X-2888700D01*
G01X-2790000Y1550000D02*
X-2803300Y1536700D01*
X-2888700D01*
G01X-2895000Y2350000D02*
X-2810000D01*
G01X-2545000D02*
X-2630000D01*
G01X-2760000Y3130000D02*
Y3198840D01*
X-2799660Y3238500D01*
X-2837900D01*
G01X-2927900D02*
Y3130000D01*
G01X-2837900Y3517900D02*
Y3588300D01*
X-2781300Y3644900D01*
G01X-2927900Y3517900D02*
X-2933700Y3512100D01*
Y3416300D01*
G01X-2558500Y4597400D02*
X-2429300D01*
X-2380000Y4548100D01*
G01X-2781300Y4445000D02*
X-2755900Y4470400D01*
X-2648500D01*
G01X-2566600Y4762500D02*
Y4957700D01*
G01X-2643300Y5502100D02*
X-2910000D01*
G01Y6080000D02*
X-2907500Y6082500D01*
X-2640000D01*
G01X-2643300Y5797100D02*
X-2910000D01*
G01Y6380000D02*
X-2907500Y6377500D01*
X-2640000D01*
G01X-2106000Y190000D02*
Y110000D01*
G01Y280000D02*
Y352700D01*
G01X-2495000Y1920000D02*
Y1830000D01*
G01X-2225000Y2230000D02*
X-2310000D01*
G01X-2135000D02*
X-2050000D01*
G01X-2455000Y2350000D02*
X-2370000D01*
G01X-2130000Y4770000D02*
Y4925000D01*
G01Y5015000D02*
X-2137300Y5022300D01*
Y5102450D01*
G01X-2137560Y5657710D02*
X-2210000Y5585270D01*
Y5565000D01*
G01X-2410000Y5985000D02*
X-2300000D01*
G01D02*
X-2240000Y6045000D01*
Y6140000D01*
G01X-2410000Y5895000D02*
X-2300000D01*
G01D02*
X-2270000Y5865000D01*
Y5758200D01*
G01X-1716000Y190000D02*
Y106300D01*
G01X-1846000Y190000D02*
Y106900D01*
G01X-1976000Y190000D02*
Y109900D01*
G01Y280000D02*
Y352700D01*
G01X-1846000Y280000D02*
Y352700D01*
G01X-1716000Y280000D02*
Y352700D01*
G01X-1760000Y1664300D02*
X-1770000D01*
X-1784300Y1650000D01*
X-1855000D01*
G01X-1760000Y1752600D02*
X-1852400D01*
X-1855000Y1750000D01*
G01X-1945000D02*
Y1650000D01*
G01D02*
X-2010000D01*
G01Y1530000D02*
X-1965260D01*
X-1945000Y1550260D01*
Y1650000D01*
G01X-2000000Y2915000D02*
Y3000000D01*
G01X-1723700Y3996300D02*
Y4068700D01*
X-1730000Y4075000D01*
G01Y4165000D02*
X-1775000Y4210000D01*
X-1820000D01*
G01Y5660000D02*
X-1910000Y5570000D01*
Y5565000D01*
G01X-1990000Y5660000D02*
X-2060000Y5590000D01*
Y5565000D01*
G01X-1506000Y165000D02*
Y49600D01*
G01Y345000D02*
X-1630000D01*
G01X-1370000Y4395000D02*
X-1440000D01*
X-1450000Y4385000D01*
G01X-1370000Y4470000D02*
X-1445000D01*
X-1450000Y4475000D01*
G01X-1345900Y5500400D02*
X-1180000D01*
G01X-1345900Y6085400D02*
X-1180000D01*
G01X-1345900Y5795400D02*
X-1205400D01*
X-1160000Y5750000D01*
G01X-1345900Y6380400D02*
X-1180000D01*
G01X-780000Y130000D02*
X-795000Y115000D01*
X-860000D01*
G01D02*
X-990000D01*
G01X-860000D02*
Y125000D01*
G01X-990000Y305000D02*
X-870000D01*
G01X-860000Y215000D02*
X-865000Y210000D01*
X-990000D01*
G01X-780000Y215000D02*
X-860000D01*
G01X-1185000Y440000D02*
X-1120000Y505000D01*
Y540000D01*
G01Y3680000D02*
Y3855000D01*
G01X-889500Y4849000D02*
X-899000D01*
X-1000000Y4950000D01*
G01X-1110000Y4475000D02*
Y4560000D01*
G01X-889500Y4759000D02*
X-918500Y4730000D01*
X-1000000D01*
G01X-1060000Y5470000D02*
X-970000D01*
G01X-1060000Y6055000D02*
X-970000D01*
G01X-795000Y5900000D02*
X-880000D01*
G01X-795000Y6490000D02*
X-880000D01*
G01X-640000Y1340000D02*
X-670000Y1310000D01*
Y1225000D01*
G01X-650000Y1905000D02*
X-570000D01*
G01X-705000Y5900000D02*
X-620000D01*
G01X-705000Y6490000D02*
X-620000D01*
G54D14*
X-6090000Y3835600D03*
Y4693600D03*
X-5590000Y5260600D03*
X-5090000Y3835600D03*
X-4590000Y5260600D03*
X-4090000Y3835600D03*
Y4403600D03*
Y4943600D03*
X-3590000Y5260600D03*
X-2590000D03*
G54D23*
X-3090000Y3835600D03*
G54D33*
G01X-3850500Y1975000D02*
X-3790000D01*
G01X-3690000D02*
Y2035500D01*
G01Y1975000D02*
X-3629500D01*
G01X-3490000D02*
Y2035500D01*
G01X-3550500Y1975000D02*
X-3490000D01*
G01X-3390000D02*
Y2035500D01*
G01Y1975000D02*
X-3329500D01*
G01X-3790000D02*
Y2035500D01*
G01X-3250000Y1975000D02*
Y2035500D01*
G01X-3310500Y1975000D02*
X-3250000D01*
G01D02*
X-3189500D01*
G01X-2585000Y1859500D02*
Y1920000D01*
G01D02*
Y1980500D01*
G01X-2645500Y1920000D02*
X-2585000D01*
G01X-2166500Y190000D02*
X-2106000D01*
G01D02*
X-2045500D01*
G01X-1906500D02*
X-1846000D01*
G01D02*
X-1785500D01*
G01X-1776500D02*
X-1716000D01*
G01D02*
X-1655500D01*
G01X-2036500D02*
X-1976000D01*
G01D02*
X-1915500D01*
G01X-1250000Y54500D02*
Y115000D01*
G01D02*
Y175500D01*
G01X-1333000Y115000D02*
X-1250000D01*
G01D02*
X-1167000D01*
G01X-1606500Y165000D02*
X-1506000D01*
G01D02*
X-1405500D01*
G01X-1363750Y-196750D02*
X-1277000Y-110000D01*
G01D02*
X-1190250Y-23250D01*
G01X-1363750D02*
X-1277000Y-110000D01*
G01D02*
X-1190250Y-196750D01*
G01X-871800Y-110000D02*
X-769000D01*
G01X-880000Y607200D02*
Y655000D01*
G01X-927800D02*
X-880000D01*
G01D02*
X-832200D01*
G01X-1120000Y1087200D02*
Y1135000D01*
G01X-1167800D02*
X-1120000D01*
G01D02*
X-1072200D01*
G01X-1000000Y1087200D02*
Y1135000D01*
G01X-1047800D02*
X-1000000D01*
G01D02*
X-952200D01*
G01X-1120000Y3945000D02*
Y3992800D01*
G01X-1167800Y3945000D02*
X-1120000D01*
G01D02*
X-1072200D01*
G01X-1110000Y4337200D02*
Y4385000D01*
G01X-1157800D02*
X-1110000D01*
G01D02*
X-1062200D01*
G01X-889500Y4711200D02*
Y4759000D01*
G01X-937300D02*
X-889500D01*
G01X-769000Y-110000D02*
Y-7200D01*
G01Y-110000D02*
X-666200D01*
G01X-740000Y607200D02*
Y655000D01*
G01X-787800D02*
X-740000D01*
G01D02*
X-692200D01*
G01X-670000Y1087200D02*
Y1135000D01*
G01X-717800D02*
X-670000D01*
G01D02*
X-622200D01*
G01X-650000Y1767200D02*
Y1815000D01*
G01X-697800D02*
X-650000D01*
G01D02*
X-602200D01*
G54D15*
X-5460000Y380000D03*
X-5475000Y6050000D03*
X0Y0D03*
Y6300000D03*
G54D24*
X-2971800Y4556300D03*
Y4816300D03*
G54D34*
G01X-1060000Y5645000D02*
X-1062900Y5647900D01*
X-1193400D01*
G01X-1060000Y5560000D02*
Y5645000D01*
G01Y6145000D02*
Y6230000D01*
G01D02*
X-1062900Y6232900D01*
X-1193400D01*
G54D16*
X-5030000Y2296000D03*
Y2550000D03*
Y2804000D03*
X-4710000Y130000D03*
X-4964000D03*
X-4710000Y470000D03*
X-4964000D03*
X-4680000Y2296000D03*
Y2550000D03*
Y2804000D03*
X-4456000Y130000D03*
Y470000D03*
X-3840000D03*
X-4094000D03*
X-4020900Y1387600D03*
Y1133600D03*
Y1641600D03*
X-3586000Y470000D03*
X-1277000Y-110000D03*
X-1531000D03*
X-1023000D03*
X-769000D03*
X-710000Y2276000D03*
Y2530000D03*
Y2784000D03*
Y3950000D03*
Y3696000D03*
Y4204000D03*
G54D25*
X-2562400Y4241800D03*
X-2822400D03*
G54D35*
G01X-2000000Y2635000D02*
X-1920000D01*
G01X-2000000Y2825000D02*
Y2725000D01*
G01D02*
X-1920000D01*
G54D17*
X-4810000Y5762500D03*
Y6057500D03*
X-2590800Y43000D03*
Y338000D03*
X-2643300Y5502100D03*
Y5797100D03*
X-2640000Y6082500D03*
Y6377500D03*
X-1345900Y5500400D03*
Y5795400D03*
Y6085400D03*
Y6380400D03*
G54D26*
X-2716600Y4762500D03*
X-2566600D03*
G54D36*
G01X-6415000Y1330000D02*
Y1377800D01*
G01X-6462800Y1330000D02*
X-6415000D01*
G01X-6379000Y1437200D02*
Y1525000D01*
G01D02*
Y1612800D01*
G01Y1525000D02*
X-6231200D01*
G01X-6415000Y3122200D02*
Y3170000D01*
G01X-6379000Y2887200D02*
Y2975000D01*
G01D02*
Y3062800D01*
G01Y2975000D02*
X-6231200D01*
G01X-6462800Y3170000D02*
X-6415000D01*
G01X-5959800Y1525000D02*
X-5782000D01*
G01X-5959800Y2975000D02*
X-5782000D01*
G01Y1437200D02*
Y1525000D01*
G01D02*
Y1612800D01*
G01Y1525000D02*
X-5604200D01*
G01X-5782000Y2887200D02*
Y2975000D01*
G01D02*
Y3062800D01*
G01Y2975000D02*
X-5604200D01*
G54D27*
X-2130000Y710000D03*
X-2410000D03*
X-1850000D03*
G54D18*
X-4657500Y5910000D03*
X-2743300Y190500D03*
X-2795800Y5649600D03*
X-2792500Y6230000D03*
X-1193400Y5647900D03*
Y6232900D03*
G54D37*
G01X-6415000Y1245000D02*
Y1330000D01*
G01Y3170000D02*
Y3255000D01*
G01X-6225000Y1330000D02*
X-6325000D01*
G01X-6225000Y3170000D02*
X-6325000D01*
G01X-5000000Y1452680D02*
X-5036620Y1489300D01*
X-5072550D01*
X-5148600Y1413250D01*
Y487150D01*
X-4982850Y321400D01*
X-4671410D01*
X-4562300Y212290D01*
Y155400D01*
X-4536900Y130000D01*
X-4456000D01*
G01X-5000000Y1567320D02*
X-5036620Y1530700D01*
X-5089700D01*
X-5190000Y1430400D01*
Y470000D01*
X-5000000Y280000D01*
X-4688560D01*
X-4603700Y195140D01*
Y155400D01*
X-4629100Y130000D01*
X-4710000D01*
G01X-4658350Y931150D02*
X-4628850D01*
X-4601400Y958600D01*
Y1022860D01*
X-4664240Y1085700D01*
X-4745700D01*
X-4860710Y1200710D01*
Y3037840D01*
X-4794270Y3104280D01*
X-4746630D01*
X-4710000Y3140910D01*
G01X-4501150Y931150D02*
X-4524600D01*
X-4560000Y966550D01*
Y1040010D01*
X-4647090Y1127100D01*
X-4728550D01*
X-4819310Y1217860D01*
Y3020690D01*
X-4777120Y3062880D01*
X-4741190D01*
X-4710000Y3031690D01*
G01X-4680000Y2296000D02*
X-4467100Y2508900D01*
Y3692900D01*
X-3770000Y4390000D01*
Y4470000D01*
X-3830000Y4530000D01*
G01Y4420000D02*
X-4567100Y3682900D01*
Y2662900D01*
X-4680000Y2550000D01*
G01X-4657500Y5910000D02*
X-4527500D01*
G01X-4415000Y1195000D02*
X-4410000Y1190000D01*
X-4295000D01*
G01Y1290000D02*
X-4305000Y1300000D01*
X-4415000D01*
G01X-4020900Y1387600D02*
Y1339650D01*
X-4070550Y1290000D01*
X-4205000D01*
G01X-4020900Y1133600D02*
Y1210480D01*
X-4046300Y1235880D01*
X-4159120D01*
X-4205000Y1190000D01*
G01X-4051300Y2737400D02*
X-4151590D01*
X-4192570Y2696420D01*
G01X-3718020Y5520000D02*
X-3681400Y5483380D01*
Y5457980D01*
X-3706800Y5432580D01*
X-3875970D01*
X-3981400Y5327150D01*
Y5142850D01*
X-3718800Y4880250D01*
Y4110250D01*
X-3621150Y4012600D01*
Y3639240D01*
X-3644900Y3615490D01*
Y3568700D01*
G01X-3603380Y5520000D02*
X-3640000Y5483380D01*
Y5440830D01*
X-3689650Y5391180D01*
X-3858820D01*
X-3940000Y5310000D01*
Y5160000D01*
X-3677400Y4897400D01*
Y4127400D01*
X-3579750Y4029750D01*
Y3639240D01*
X-3556000Y3615490D01*
Y3568700D01*
G01X-3651800Y1143000D02*
X-3746500D01*
G01X-3530600Y1683300D02*
X-3730000D01*
G01X-3403600Y1803400D02*
X-3416300Y1790700D01*
Y1683300D01*
G01X-3490000Y1885000D02*
Y1810000D01*
G01X-3598000Y1820000D02*
X-3625000D01*
X-3690000Y1885000D01*
G01X-3390000D02*
X-3490000D01*
G01X-3790000D02*
X-3690000D01*
G01X-2857500Y190500D02*
Y192500D01*
X-2965000Y300000D01*
G01X-3149600Y907500D02*
Y825500D01*
G01X-3302000Y1683300D02*
Y1752600D01*
X-3327400Y1778000D01*
G01X-3170000Y1880000D02*
X-3245000D01*
X-3250000Y1885000D01*
G01X-2965000Y2700000D02*
X-2892300D01*
G01X-3055000D02*
X-3127700D01*
G01X-2965000Y2860000D02*
X-2892300D01*
G01X-3055000D02*
X-3127700D01*
G01X-3225800Y4381500D02*
X-3345900D01*
G01Y4254500D02*
X-3225800D01*
G01X-3240000Y4572000D02*
X-3345900D01*
G01X-3240000Y4699000D02*
X-3345900D01*
G01X-2716600Y4762500D02*
X-2770400Y4816300D01*
X-2971800D01*
G01X-3345900Y4826000D02*
X-3246000D01*
X-3240000Y4820000D01*
G01X-3345900Y4953000D02*
X-3240000D01*
G01X-2743300Y190500D02*
X-2857500D01*
G01X-2558500Y4470400D02*
X-2562400Y4466500D01*
Y4241800D01*
G01X-2648500Y4597400D02*
X-2661200Y4584700D01*
X-2781300D01*
G01D02*
X-2716600Y4649400D01*
Y4762500D01*
G01X-2260000Y4440000D02*
X-2528100D01*
X-2558500Y4470400D01*
G01X-2795800Y5649600D02*
X-2910000D01*
G01Y6230000D02*
X-2792500D01*
G01X-2260600Y1476160D02*
Y1701800D01*
G01X-1890000Y1830000D02*
X-2140000D01*
G01X-2255400Y4850000D02*
X-2202100Y4796700D01*
Y4397900D01*
X-2270000Y4330000D01*
Y2320000D01*
G01X-2340000Y2635000D02*
Y2562300D01*
G01Y2725000D02*
Y2797700D01*
G01X-2200000Y3030000D02*
Y4342580D01*
X-2004600Y4537980D01*
Y4860000D01*
G01X-2210000Y5297300D02*
Y5375000D01*
G01X-55880Y5440680D02*
X-97410Y5482210D01*
X-143320D01*
X-159710Y5498600D01*
X-361410D01*
X-490010Y5370000D01*
X-1451440D01*
X-1818600Y5002840D01*
Y4511400D01*
X-2018600Y4311400D01*
Y3547160D01*
X-1972840Y3501400D01*
X-1912400D01*
X-1877180Y3536620D01*
G01X-53340Y5565140D02*
X-55880D01*
X-97410Y5523610D01*
X-126170D01*
X-142560Y5540000D01*
X-378560D01*
X-507160Y5411400D01*
X-1468590D01*
X-1860000Y5019990D01*
Y4528550D01*
X-2060000Y4328550D01*
Y3530010D01*
X-1989990Y3460000D01*
X-1909990D01*
X-1877180Y3427190D01*
Y3421980D01*
G01X-2060000Y5297300D02*
Y5375000D01*
G01X-1910000D02*
Y5297300D01*
G01X-1800000Y5775000D02*
X-1795000D01*
X-1785360Y5765360D01*
X-1700000D01*
G01X-1800000Y5865000D02*
X-1785000Y5880000D01*
X-1700000D01*
G01X-1800000Y6125000D02*
X-1790360Y6134640D01*
X-1700000D01*
G01X-1800000Y6035000D02*
X-1785000Y6020000D01*
X-1700000D01*
G01X-1280000Y540000D02*
Y445000D01*
X-1275000Y440000D01*
G01D02*
X-1250000Y415000D01*
Y305000D01*
G01X-170000Y5173000D02*
X-210200Y5213200D01*
X-1018250D01*
X-1238600Y4992850D01*
Y3507160D01*
X-1150650Y3419210D01*
Y2369650D01*
X-1200300Y2320000D01*
X-1253380D01*
X-1290000Y2283380D01*
G01X-170000Y5300000D02*
X-215400Y5254600D01*
X-1035400D01*
X-1280000Y5010000D01*
Y3490010D01*
X-1192050Y3402060D01*
Y2386800D01*
X-1217450Y2361400D01*
X-1253380D01*
X-1290000Y2398020D01*
G01X-1461980Y2340000D02*
X-1470650D01*
X-1508600Y2377950D01*
Y2702850D01*
X-1428600Y2782850D01*
Y4213380D01*
X-1391980Y4250000D01*
G01X-1576620Y2340000D02*
Y2360930D01*
X-1550000Y2387550D01*
Y2720000D01*
X-1470000Y2800000D01*
Y4213380D01*
X-1506620Y4250000D01*
G01X-876500Y900000D02*
X-880000Y896500D01*
Y745000D01*
G01X-1000000Y1480000D02*
Y1225000D01*
G01X-1130500Y1360000D02*
X-1120000Y1349500D01*
Y1225000D01*
G01X-770000Y3400000D02*
X-822900Y3347100D01*
Y2642900D01*
X-710000Y2530000D01*
G01X-820000Y4585000D02*
X-822900Y4582100D01*
Y3542900D01*
X-820000Y3540000D01*
G01X-488020Y160000D02*
X-451400Y196620D01*
Y249700D01*
X-381100Y320000D01*
X-59990D01*
X58600Y438590D01*
Y2527160D01*
X160000Y2628560D01*
Y3273890D01*
X50790Y3383100D01*
Y4938770D01*
X17420Y4972140D01*
X-10540D01*
X-53340Y4929340D01*
G01X-373380Y160000D02*
X-410000Y196620D01*
Y232550D01*
X-363950Y278600D01*
X-42840D01*
X100000Y421440D01*
Y2510010D01*
X201400Y2611410D01*
Y3291040D01*
X92190Y3400250D01*
Y4955920D01*
X34570Y5013540D01*
X-10540D01*
X-53340Y5056340D01*
G01X-740000Y745000D02*
X-749500Y754500D01*
Y900000D01*
G01X-670000Y3460000D02*
X-570000Y3360000D01*
Y2416000D01*
X-710000Y2276000D01*
G01X-570000Y4930000D02*
Y3490000D01*
G01X-680000Y4580000D02*
Y4991500D01*
G01X-760000Y4510000D02*
Y5071500D01*
X-710000Y5121500D01*
G54D28*
X-2210000Y5375000D03*
Y5565000D03*
X-2060000Y5375000D03*
Y5565000D03*
X-1910000Y5375000D03*
Y5565000D03*
G54D19*
X-4415000Y1405000D03*
Y1195000D03*
X-4605000D03*
Y1405000D03*
G54D29*
X-1506000Y165000D03*
Y345000D03*
M02*
