G04 ================== begin FILE IDENTIFICATION RECORD ==================*
G04 Layout Name:  pc053c_toplevel_61.brd*
G04 Film Name:    art_L5_PWR_pc053c*
G04 File Format:  Gerber RS274X*
G04 File Origin:  Cadence Allegro 17.2-060*
G04 Origin Date:  Thu Jan 16 16:49:47 2020*
G04 *
G04 Layer:  VIA CLASS/L5_PWR*
G04 Layer:  PIN/L5_PWR*
G04 Layer:  ETCH/L5_PWR*
G04 Layer:  BOARD GEOMETRY/ASSEMBLY_NOTES*
G04 Layer:  BOARD GEOMETRY/OUTLINE50*
G04 *
G04 Offset:    (-315.1182 -288.1259)*
G04 Mirror:    No*
G04 Mode:      Positive*
G04 Rotation:  0*
G04 FullContactRelief:  No*
G04 UndefLineWidth:     0.2540*
G04 ================== end FILE IDENTIFICATION RECORD ====================*
%FSLAX25Y25*MOMM*%
%IR0*IPPOS*OFA-315.11820B-288.12590*MIA0B0*SFA1.00000B1.00000*%
%ADD11C,.6*%
%ADD12O,3.2X1.4*%
%ADD10O,2.6X1.4*%
%ADD17C,1.*%
%ADD16C,1.6*%
%ADD15C,1.7*%
%ADD14C,3.302*%
%ADD18C,1.524*%
%ADD13C,1.75*%
%ADD19C,1.397*%
%ADD20C,.1*%
%ADD21C,.4*%
%ADD22C,1.27*%
%ADD24C,.8544*%
%ADD28C,2.0044*%
%ADD31C,1.6514*%
%ADD30C,1.7068*%
%ADD29C,1.8544*%
%ADD26C,1.8068*%
%ADD25C,1.9544*%
%ADD23C,3.5564*%
%ADD27C,1.7784*%
G75*
%LPD*%
G75*
G36*
G01X-841580Y6536490D02*
X1026490D01*
Y-63500D01*
X330200D01*
Y-236490D01*
X-4276490D01*
Y-140000D01*
G03X-4413800Y21400I-163513J0D01*
G02X-4416300Y40710I1630J10028D01*
G03X-4358280Y130000I-39697J89290D01*
G03X-4553720I-97720J0D01*
G03X-4499990Y42740I97722J0D01*
G02X-4504560Y23510I-4575J-9071D01*
G01X-4661440D01*
G02X-4666010Y42740I5J10159D01*
G03X-4612280Y130000I-43992J87260D01*
G03X-4807720I-97720J0D01*
G03X-4753990Y42740I97722J0D01*
G02X-4758560Y23510I-4575J-9071D01*
G01X-4915440D01*
G02X-4920010Y42740I5J10159D01*
G03X-4866280Y130000I-43992J87260D01*
G03X-5061720I-97720J0D01*
G03X-5007990Y42740I97722J0D01*
G02X-5012560Y23510I-4575J-9071D01*
G01X-5346490D01*
Y70000D01*
G03X-5404400Y194840I-163517J0D01*
G02X-5401200Y212180I6561J7754D01*
G03X-5282180Y380000I-58804J167820D01*
G03X-5637820I-177820J0D01*
G03X-5582430Y251040I177819J0D01*
G02X-5589420Y233510I-6993J-7370D01*
G01X-6490000D01*
Y1441580D01*
G02X-6475370Y1450710I10161J4D01*
G03X-6439000Y1442280I36381J74288D01*
G01X-6319000D01*
G03Y1607720I0J82720D01*
G01X-6439000D01*
G03X-6475370Y1599290I11J-82718D01*
G02X-6490000Y1608420I-4469J9126D01*
G01Y2891580D01*
G02X-6475370Y2900710I10161J4D01*
G03X-6439000Y2892280I36381J74288D01*
G01X-6319000D01*
G03Y3057720I0J82720D01*
G01X-6439000D01*
G03X-6475370Y3049290I11J-82718D01*
G02X-6490000Y3058420I-4469J9126D01*
G01Y6206490D01*
X-5593000D01*
G02X-5586620Y6188420I2J-10160D01*
G03X-5652820Y6050000I111614J-138420D01*
G03X-5297180I177820J0D01*
G03X-5363380Y6188420I-177814J0D01*
G02X-5357000Y6206490I6378J7910D01*
G01X-3950000D01*
G03X-3786490Y6370000I0J163510D01*
G01Y6536490D01*
X-1098420D01*
G02X-1091040Y6519350I-3J-10160D01*
G03X-1102720Y6490000I31036J-29350D01*
G03X-1017280I42720J0D01*
G03X-1028960Y6519350I-42716J0D01*
G02X-1021580Y6536490I7383J6980D01*
G01X-998420D01*
G02X-991040Y6519350I-3J-10160D01*
G03X-1002720Y6490000I31036J-29350D01*
G03X-960000Y6447280I42720J0D01*
G03X-927690Y6462060I-5J42718D01*
G02X-912310I7690J-6647D01*
G03X-880000Y6447280I32315J27938D01*
G03X-837280Y6490000I0J42720D01*
G03X-848960Y6519350I-42716J0D01*
G02X-841580Y6536490I7383J6980D01*
G37*
%LPC*%
G75*
G36*
G01X-5872000Y1607720D02*
X-5692000D01*
G02Y1442280I0J-82720D01*
G01X-5872000D01*
G02Y1607720I0J82720D01*
G37*
G36*
G01Y3057720D02*
X-5692000D01*
G02Y2892280I0J-82720D01*
G01X-5872000D01*
G02Y3057720I0J82720D01*
G37*
G36*
G01X-540600Y151290D02*
G03X-530720Y161170I-280J10160D01*
G02X-488020Y202720I42700J-1166D01*
G02X-445300Y160000I0J-42720D01*
G02X-486850Y117300I-42716J0D01*
G03X-496730Y107420I280J-10160D01*
G02X-539430Y65870I-42700J1166D01*
G02X-582150Y108590I0J42720D01*
G02X-540600Y151290I42716J0D01*
G37*
G36*
G01X-364670Y107420D02*
G03X-374550Y117300I-10160J-280D01*
G02X-416100Y160000I1166J42700D01*
G02X-373380Y202720I42720J0D01*
G02X-330680Y161170I0J-42716D01*
G03X-320800Y151290I10160J280D01*
G02X-279250Y108590I-1166J-42700D01*
G02X-321970Y65870I-42720J0D01*
G02X-364670Y107420I0J42716D01*
G37*
G36*
G01X-3280140Y702720D02*
G03X-3270020Y712840I-39J10159D01*
G02X-3227300Y755420I42720J-140D01*
G02Y669980I0J-42720D01*
G02X-3231930Y670230I-15J42721D01*
G03X-3237530Y664630I-552J-5048D01*
G02X-3237300Y661440I-42466J-4665D01*
G03X-3230930Y656700I5075J170D01*
G02X-3220000Y658120I10923J-41301D01*
G02Y572680I0J-42720D01*
G02X-3262260Y609160I0J42718D01*
G03X-3273790Y617730I-10051J-1481D01*
G02X-3280000Y617280I-6184J42272D01*
G02X-3322720Y660000I0J42720D01*
G02X-3280140Y702720I42720J0D01*
G37*
G36*
G01X-2561290Y905510D02*
G03X-2571170Y915390I-10159J-279D01*
G02X-2612720Y958090I1166J42700D01*
G02X-2570000Y1000810I42720J0D01*
G02X-2527300Y959260I0J-42716D01*
G03X-2517420Y949380I10159J279D01*
G02X-2475870Y906680I-1166J-42700D01*
G02X-2518590Y863960I-42720J0D01*
G02X-2561290Y905510I0J42716D01*
G37*
G36*
G01X-4981290Y969400D02*
G03X-4991170Y979280I-10159J-279D01*
G02X-5032720Y1021980I1166J42700D01*
G02X-4990000Y1064700I42720J0D01*
G02X-4947300Y1023150I0J-42716D01*
G03X-4937420Y1013270I10159J279D01*
G02X-4895870Y970570I-1166J-42700D01*
G02X-4938590Y927850I-42720J0D01*
G02X-4981290Y969400I0J42716D01*
G37*
G36*
G01X-2571170Y1110010D02*
G03X-2561290Y1119890I-279J10159D01*
G02X-2518590Y1161440I42700J-1166D01*
G02X-2475870Y1118720I0J-42720D01*
G02X-2517420Y1076020I-42716J0D01*
G03X-2527300Y1066140I279J-10159D01*
G02X-2570000Y1024590I-42700J1166D01*
G02X-2612720Y1067310I0J42720D01*
G02X-2571170Y1110010I42716J0D01*
G37*
G36*
G01X-4991170Y1179320D02*
G03X-4981290Y1189200I-279J10159D01*
G02X-4938590Y1230750I42700J-1166D01*
G02X-4895870Y1188030I0J-42720D01*
G02X-4937420Y1145330I-42716J0D01*
G03X-4947300Y1135450I279J-10159D01*
G02X-4990000Y1093900I-42700J1166D01*
G02X-5032720Y1136620I0J42720D01*
G02X-4991170Y1179320I42716J0D01*
G37*
G36*
G01X-667940Y1372310D02*
G03Y1387690I-6647J7690D01*
G02X-682720Y1420000I27938J32315D01*
G02X-597280I42720J0D01*
G02X-612060Y1387690I-42718J5D01*
G03Y1372310I6647J-7690D01*
G02X-597280Y1340000I-27938J-32315D01*
G02X-682720I-42720J0D01*
G02X-667940Y1372310I42718J-5D01*
G37*
G36*
G01X-5052580Y1443970D02*
G03X-5042700Y1453850I-279J10159D01*
G02X-5000000Y1495400I42700J-1166D01*
G02X-4957280Y1452680I0J-42720D01*
G02X-4998830Y1409980I-42716J0D01*
G03X-5008710Y1400100I279J-10159D01*
G02X-5051410Y1358550I-42700J1166D01*
G02X-5094130Y1401270I0J42720D01*
G02X-5052580Y1443970I42716J0D01*
G37*
G36*
G01X-5042700Y1566150D02*
G03X-5052580Y1576030I-10159J-279D01*
G02X-5094130Y1618730I1166J42700D01*
G02X-5051410Y1661450I42720J0D01*
G02X-5008710Y1619900I0J-42716D01*
G03X-4998830Y1610020I10159J279D01*
G02X-4957280Y1567320I-1166J-42700D01*
G02X-5000000Y1524600I-42720J0D01*
G02X-5042700Y1566150I0J42716D01*
G37*
G36*
G01X-3005600Y1925110D02*
G03X-3015480Y1934990I-10159J-279D01*
G02X-3057030Y1977690I1166J42700D01*
G02X-3014310Y2020410I42720J0D01*
G02X-2971610Y1978860I0J-42716D01*
G03X-2961730Y1968980I10159J279D01*
G02X-2920180Y1926280I-1166J-42700D01*
G02X-2962900Y1883560I-42720J0D01*
G02X-3005600Y1925110I0J42716D01*
G37*
G36*
G01X-2849430Y1968980D02*
G03X-2839550Y1978860I-279J10159D01*
G02X-2796850Y2020410I42700J-1166D01*
G02X-2754130Y1977690I0J-42720D01*
G02X-2795680Y1934990I-42716J0D01*
G03X-2805560Y1925110I279J-10159D01*
G02X-2848260Y1883560I-42700J1166D01*
G02X-2890980Y1926280I0J42720D01*
G02X-2849430Y1968980I42716J0D01*
G37*
G36*
G01X-1940720Y2011650D02*
G03X-1950600Y2021530I-10160J-280D01*
G02X-1992150Y2064230I1166J42700D01*
G02X-1949430Y2106950I42720J0D01*
G02X-1906730Y2065400I0J-42716D01*
G03X-1896850Y2055520I10160J280D01*
G02X-1855300Y2012820I-1166J-42700D01*
G02X-1898020Y1970100I-42720J0D01*
G02X-1940720Y2011650I0J42716D01*
G37*
G36*
G01X-1784550Y2055520D02*
G03X-1774670Y2065400I-280J10160D01*
G02X-1731970Y2106950I42700J-1166D01*
G02X-1689250Y2064230I0J-42720D01*
G02X-1730800Y2021530I-42716J0D01*
G03X-1740680Y2011650I280J-10160D01*
G02X-1783380Y1970100I-42700J1166D01*
G02X-1826100Y2012820I0J42720D01*
G02X-1784550Y2055520I42716J0D01*
G37*
G36*
G01X-4371290Y2029400D02*
G03X-4381170Y2039280I-10159J-279D01*
G02X-4422720Y2081980I1166J42700D01*
G02X-4380000Y2124700I42720J0D01*
G02X-4337300Y2083150I0J-42716D01*
G03X-4327420Y2073270I10159J279D01*
G02X-4285870Y2030570I-1166J-42700D01*
G02X-4328590Y1987850I-42720J0D01*
G02X-4371290Y2029400I0J42716D01*
G37*
G36*
G01X-4381170Y2239320D02*
G03X-4371290Y2249200I-279J10159D01*
G02X-4328590Y2290750I42700J-1166D01*
G02X-4285870Y2248030I0J-42720D01*
G02X-4327420Y2205330I-42716J0D01*
G03X-4337300Y2195450I279J-10159D01*
G02X-4380000Y2153900I-42700J1166D01*
G02X-4422720Y2196620I0J42720D01*
G02X-4381170Y2239320I42716J0D01*
G37*
G36*
G01X-1342580Y2274670D02*
G03X-1332700Y2284550I-280J10160D01*
G02X-1290000Y2326100I42700J-1166D01*
G02X-1247280Y2283380I0J-42720D01*
G02X-1288830Y2240680I-42716J0D01*
G03X-1298710Y2230800I279J-10159D01*
G02X-1341410Y2189250I-42700J1166D01*
G02X-1384130Y2231970I0J42720D01*
G02X-1342580Y2274670I42716J0D01*
G37*
G36*
G01X-1619320Y2338830D02*
G03X-1629200Y2348710I-10160J-280D01*
G02X-1670750Y2391410I1166J42700D01*
G02X-1628030Y2434130I42720J0D01*
G02X-1585330Y2392580I0J-42716D01*
G03X-1575450Y2382700I10160J280D01*
G02X-1533900Y2340000I-1166J-42700D01*
G02X-1576620Y2297280I-42720J0D01*
G02X-1619320Y2338830I0J42716D01*
G37*
G36*
G01X-2604290Y2881400D02*
G03X-2618610Y2881000I-6959J-7400D01*
G02X-2649570Y2867720I-30960J29449D01*
G02Y2953160I0J42720D01*
G02X-2620280Y2941540I0J-42725D01*
G03X-2605960Y2941940I6959J7400D01*
G02X-2575000Y2955220I30960J-29449D01*
G02Y2869780I0J-42720D01*
G02X-2604290Y2881400I0J42725D01*
G37*
G36*
G01X-5499320Y2930950D02*
G03X-5509200Y2940830I-10160J-280D01*
G02X-5550750Y2983530I1166J42700D01*
G02X-5508030Y3026250I42720J0D01*
G02X-5465330Y2984700I0J-42716D01*
G03X-5455450Y2974820I10160J280D01*
G02X-5413900Y2932120I-1166J-42700D01*
G02X-5456620Y2889400I-42720J0D01*
G02X-5499320Y2930950I0J42716D01*
G37*
G36*
G01X-5343150Y2974820D02*
G03X-5333270Y2984700I-280J10160D01*
G02X-5290570Y3026250I42700J-1166D01*
G02X-5247850Y2983530I0J-42720D01*
G02X-5289400Y2940830I-42716J0D01*
G03X-5299280Y2930950I280J-10160D01*
G02X-5341980Y2889400I-42700J1166D01*
G02X-5384700Y2932120I0J42720D01*
G02X-5343150Y2974820I42716J0D01*
G37*
G36*
G01X-4682210Y2983440D02*
G03X-4695660Y2991450I-10040J-1562D01*
G02X-4710000Y2988970I-14344J40239D01*
G02Y3074410I0J42720D01*
G02X-4667790Y3038250I0J-42716D01*
G03X-4654340Y3030240I10040J1562D01*
G02X-4640000Y3032720I14344J-40239D01*
G02Y2947280I0J-42720D01*
G02X-4682210Y2983440I0J42716D01*
G37*
G36*
G01X-2383280Y3021390D02*
G03X-2393160Y3031270I-10159J-279D01*
G02X-2434710Y3073970I1166J42700D01*
G02X-2391990Y3116690I42720J0D01*
G02X-2349290Y3075140I0J-42716D01*
G03X-2339410Y3065260I10159J279D01*
G02X-2297860Y3022560I-1166J-42700D01*
G02X-2340580Y2979840I-42720J0D01*
G02X-2383280Y3021390I0J42716D01*
G37*
G36*
G01X-4660030Y3122380D02*
G03X-4673500Y3118710I-4795J-8956D01*
G02X-4710000Y3098190I-36500J22202D01*
G02Y3183630I0J42720D01*
G02X-4689830Y3178570I0J-42730D01*
G03X-4676360Y3182240I4795J8956D01*
G02X-4639860Y3202760I36500J-22202D01*
G02Y3117320I0J-42720D01*
G02X-4660030Y3122380I0J42730D01*
G37*
G36*
G01X-2393160Y3231310D02*
G03X-2383280Y3241190I-279J10159D01*
G02X-2340580Y3282740I42700J-1166D01*
G02X-2297860Y3240020I0J-42720D01*
G02X-2339410Y3197320I-42716J0D01*
G03X-2349290Y3187440I279J-10159D01*
G02X-2391990Y3145890I-42700J1166D01*
G02X-2434710Y3188610I0J42720D01*
G02X-2393160Y3231310I42716J0D01*
G37*
G36*
G01X-1868470Y3369400D02*
G03X-1878350Y3379280I-10159J-279D01*
G02X-1919900Y3421980I1166J42700D01*
G02X-1877180Y3464700I42720J0D01*
G02X-1834480Y3423150I0J-42716D01*
G03X-1824600Y3413270I10159J279D01*
G02X-1783050Y3370570I-1166J-42700D01*
G02X-1825770Y3327850I-42720J0D01*
G02X-1868470Y3369400I0J42716D01*
G37*
G36*
G01X-1878350Y3579320D02*
G03X-1868470Y3589200I-279J10159D01*
G02X-1825770Y3630750I42700J-1166D01*
G02X-1783050Y3588030I0J-42720D01*
G02X-1824600Y3545330I-42716J0D01*
G03X-1834480Y3535450I279J-10159D01*
G02X-1877180Y3493900I-42700J1166D01*
G02X-1919900Y3536620I0J42720D01*
G02X-1878350Y3579320I42716J0D01*
G37*
G36*
G01X-1848260Y3902040D02*
G03X-1848420Y3917410I-6723J7616D01*
G02X-1863520Y3950000I27619J32590D01*
G02X-1778080I42720J0D01*
G02X-1792540Y3917960I-42727J0D01*
G03X-1792380Y3902590I6723J-7616D01*
G02X-1777280Y3870000I-27619J-32590D01*
G02X-1862720I-42720J0D01*
G02X-1848260Y3902040I42727J0D01*
G37*
G36*
G01X-1549320Y4248830D02*
G03X-1559200Y4258710I-10159J-279D01*
G02X-1600750Y4301410I1166J42700D01*
G02X-1558030Y4344130I42720J0D01*
G02X-1515330Y4302580I0J-42716D01*
G03X-1505450Y4292700I10159J279D01*
G02X-1463900Y4250000I-1166J-42700D01*
G02X-1506620Y4207280I-42720J0D01*
G02X-1549320Y4248830I0J42716D01*
G37*
G36*
G01X-1393150Y4292700D02*
G03X-1383270Y4302580I-279J10159D01*
G02X-1340570Y4344130I42700J-1166D01*
G02X-1297850Y4301410I0J-42720D01*
G02X-1339400Y4258710I-42716J0D01*
G03X-1349280Y4248830I279J-10159D01*
G02X-1391980Y4207280I-42700J1166D01*
G02X-1434700Y4250000I0J42720D01*
G02X-1393150Y4292700I42716J0D01*
G37*
G36*
G01X-1041280Y4741010D02*
G03X-1050880Y4753790I-9814J2623D01*
G02X-1092720Y4796500I879J42710D01*
G02X-1007280I42720J0D01*
G02X-1008720Y4785490I-42722J-12D01*
G03X-999120Y4772710I9814J-2623D01*
G02X-957280Y4730000I-879J-42710D01*
G02X-1042720I-42720J0D01*
G02X-1041280Y4741010I42722J12D01*
G37*
G36*
G01X-1181030Y4825870D02*
G03Y4839830I-7375J6980D01*
G02X-1192720Y4869200I31033J29363D01*
G02X-1107280I42720J0D01*
G02X-1118970Y4839830I-42723J-7D01*
G03Y4825870I7375J-6980D01*
G02X-1107280Y4796500I-31033J-29363D01*
G02X-1192720I-42720J0D01*
G02X-1181030Y4825870I42723J7D01*
G37*
G36*
G01X-3760720Y5518830D02*
G03X-3770600Y5528710I-10160J-280D01*
G02X-3812150Y5571410I1166J42700D01*
G02X-3769430Y5614130I42720J0D01*
G02X-3726730Y5572580I0J-42716D01*
G03X-3716850Y5562700I10160J280D01*
G02X-3675300Y5520000I-1166J-42700D01*
G02X-3718020Y5477280I-42720J0D01*
G02X-3760720Y5518830I0J42716D01*
G37*
G36*
G01X-3604550Y5562700D02*
G03X-3594670Y5572580I-280J10160D01*
G02X-3551970Y5614130I42700J-1166D01*
G02X-3509250Y5571410I0J-42720D01*
G02X-3550800Y5528710I-42716J0D01*
G03X-3560680Y5518830I280J-10160D01*
G02X-3603380Y5477280I-42700J1166D01*
G02X-3646100Y5520000I0J42720D01*
G02X-3604550Y5562700I42716J0D01*
G37*
G36*
G01X-1668610Y5721720D02*
G03X-1682060Y5726590I-9182J-4350D01*
G02X-1700000Y5722640I-17940J38765D01*
G02Y5808080I0J42720D01*
G02X-1661390Y5783640I0J-42718D01*
G03X-1647940Y5778770I9182J4350D01*
G02X-1630000Y5782720I17940J-38765D01*
G02Y5697280I0J-42720D01*
G02X-1668610Y5721720I0J42718D01*
G37*
G36*
G01X-1649760Y5862130D02*
G03X-1663210Y5858280I-4697J-9009D01*
G02X-1700000Y5837280I-36790J21726D01*
G02Y5922720I0J42720D01*
G02X-1680240Y5917870I-10J-42718D01*
G03X-1666790Y5921720I4697J9009D01*
G02X-1630000Y5942720I36790J-21726D01*
G02Y5857280I0J-42720D01*
G02X-1649760Y5862130I10J42718D01*
G37*
G36*
G01X-913260Y5873190D02*
G03X-928630Y5873700I-7905J-6381D01*
G02X-960000Y5859980I-31370J29003D01*
G02Y5945420I0J42720D01*
G02X-926740Y5929510I0J-42720D01*
G03X-911370Y5929000I7905J6381D01*
G02X-880000Y5942720I31370J-29003D01*
G02Y5857280I0J-42720D01*
G02X-913260Y5873190I0J42720D01*
G37*
G36*
G01X-1666790Y5978280D02*
G03X-1680240Y5982130I-8753J-5159D01*
G02X-1700000Y5977280I-19770J37868D01*
G02Y6062720I0J42720D01*
G02X-1663210Y6041720I0J-42726D01*
G03X-1649760Y6037870I8753J5159D01*
G02X-1630000Y6042720I19770J-37868D01*
G02Y5957280I0J-42720D01*
G02X-1666790Y5978280I0J42726D01*
G37*
G36*
G01X-601180Y6081370D02*
G03X-608910Y6094020I-9792J2703D01*
G02X-642940Y6135850I8694J41830D01*
G02X-557500I42720J0D01*
G02X-559040Y6124480I-42720J-3D01*
G03X-551310Y6111830I9792J-2703D01*
G02X-517280Y6070000I-8694J-41830D01*
G02X-602720I-42720J0D01*
G02X-601180Y6081370I42720J3D01*
G37*
G36*
G01X-1647940Y6121230D02*
G03X-1661390Y6116360I-4268J-9220D01*
G02X-1700000Y6091920I-38610J18278D01*
G02Y6177360I0J42720D01*
G02X-1682060Y6173410I0J-42715D01*
G03X-1668610Y6178280I4268J9220D01*
G02X-1630000Y6202720I38610J-18278D01*
G02Y6117280I0J-42720D01*
G02X-1647940Y6121230I0J42715D01*
G37*
G36*
G01X-611400Y6291720D02*
G03X-604120Y6303640I-2658J9806D01*
G02X-605060Y6312550I41780J8912D01*
G02X-519620I42720J0D01*
G02X-551160Y6271320I-42719J0D01*
G03X-558440Y6259400I2658J-9806D01*
G02X-557500Y6250490I-41780J-8912D01*
G02X-642940I-42720J0D01*
G02X-611400Y6291720I42719J0D01*
G37*
G36*
G01X-1683460Y325020D02*
G02X-1716000Y309980I-32540J27681D01*
G02Y395420I0J42720D01*
G02X-1679060Y374160I0J-42722D01*
G03X-1662540Y372680I8784J5105D01*
G02X-1630000Y387720I32540J-27681D01*
G02Y302280I0J-42720D01*
G02X-1666940Y323540I0J42722D01*
G03X-1683460Y325020I-8784J-5105D01*
G37*
G36*
G01X-2347240Y1576990D02*
G02X-2366820Y1612900I23140J35910D01*
G02X-2281380I42720J0D01*
G02X-2300960Y1576990I-42720J0D01*
G03Y1559910I5504J-8540D01*
G02X-2281500Y1527180I-23141J-35909D01*
G03X-2269300Y1517990I10130J755D01*
G02X-2260600Y1518880I8675J-41833D01*
G02Y1433440I0J-42720D01*
G02X-2303200Y1472980I0J42718D01*
G03X-2315400Y1482170I-10130J-755D01*
G02X-2324100Y1481280I-8675J41833D01*
G02X-2366820Y1524000I0J42720D01*
G02X-2347240Y1559910I42720J0D01*
G03Y1576990I-5504J8540D01*
G37*
G36*
G01X-3456970Y1782910D02*
G02X-3490000Y1767280I-33030J27085D01*
G02Y1852720I0J42720D01*
G02X-3453230Y1831760I0J-42733D01*
G03X-3436630Y1830490I8744J5170D01*
G02X-3403600Y1846120I33030J-27085D01*
G02X-3364030Y1819500I0J-42720D01*
G03X-3349390Y1814620I9411J3833D01*
G02X-3327400Y1820720I21999J-36618D01*
G02Y1735280I0J-42720D01*
G02X-3366970Y1761900I0J42720D01*
G03X-3381610Y1766780I-9411J-3833D01*
G02X-3403600Y1760680I-21999J36618D01*
G02X-3440370Y1781640I0J42733D01*
G03X-3456970Y1782910I-8744J-5170D01*
G37*
G36*
G01X-1111270Y1976630D02*
G02X-1135220Y2015000I18761J38370D01*
G02X-1049780I42720J0D01*
G02X-1073730Y1976630I-42711J0D01*
G03Y1958370I4468J-9130D01*
G02X-1049780Y1920000I-18761J-38370D01*
G02X-1135220I-42720J0D01*
G02X-1111270Y1958370I42711J0D01*
G03Y1976630I-4468J9130D01*
G37*
G36*
G01X-2612500Y2407040D02*
G02X-2617720Y2427500I37487J20460D01*
G02X-2575000Y2384780I42720J0D01*
G02X-2581930Y2385350I25J42718D01*
G03X-2592500Y2370460I-1648J-10027D01*
G02X-2587280Y2350000I-37487J-20460D01*
G02X-2630000Y2307280I-42720J0D01*
G02X-2663460Y2323440I0J42720D01*
G03X-2677290Y2325420I-7960J-6313D01*
G02X-2701970Y2317570I-24680J34871D01*
G02Y2403010I0J42720D01*
G02X-2668510Y2386850I0J-42720D01*
G03X-2654680Y2384870I7960J6313D01*
G02X-2630000Y2392720I24680J-34871D01*
G02X-2623070Y2392150I-25J-42718D01*
G03X-2612500Y2407040I1648J10027D01*
G37*
G36*
G01X-1383650Y2443040D02*
G02X-1384130Y2449430I42240J6386D01*
G02X-1341410Y2492150I42720J0D01*
G02X-1298710Y2450600I0J-42716D01*
G03X-1288830Y2440720I10159J279D01*
G02X-1247280Y2398020I-1166J-42700D01*
G02X-1290000Y2355300I-42720J0D01*
G02X-1332700Y2396850I0J42716D01*
G03X-1342580Y2406730I-10160J-280D01*
G02X-1355040Y2408940I1148J42704D01*
G03X-1368330Y2397800I-3245J-9627D01*
G02X-1367850Y2391410I-42240J-6386D01*
G02X-1409400Y2348710I-42716J0D01*
G03X-1419280Y2338830I280J-10160D01*
G02X-1461980Y2297280I-42700J1166D01*
G02X-1504700Y2340000I0J42720D01*
G02X-1463150Y2382700I42716J0D01*
G03X-1453270Y2392580I-280J10160D01*
G02X-1410570Y2434130I42700J-1166D01*
G02X-1396940Y2431900I8J-42721D01*
G03X-1383650Y2443040I3245J9627D01*
G37*
G36*
G01X-1942440Y2688650D02*
G02X-1962720Y2725000I22437J36350D01*
G02X-1877280I42720J0D01*
G02X-1897560Y2688650I-42717J0D01*
G03Y2671350I5332J-8650D01*
G02X-1877280Y2635000I-22437J-36350D01*
G02X-1962720I-42720J0D01*
G02X-1942440Y2671350I42717J0D01*
G03Y2688650I-5332J8650D01*
G37*
G36*
G01X-3184920Y2845620D02*
G02X-3220000Y2827280I-35080J24380D01*
G02Y2912720I0J42720D01*
G02X-3180510Y2886300I0J-42723D01*
G03X-3162780Y2884380I9389J3880D01*
G02X-3127700Y2902720I35080J-24380D01*
G02Y2817280I0J-42720D01*
G02X-3167190Y2843700I0J42723D01*
G03X-3184920Y2845620I-9389J-3880D01*
G37*
G36*
G01X-3608990Y3545560D02*
G02X-3644900Y3525980I-35910J23140D01*
G02Y3611420I0J42720D01*
G02X-3608990Y3591840I0J-42720D01*
G03X-3591910I8540J5504D01*
G02X-3556000Y3611420I35910J-23140D01*
G02Y3525980I0J-42720D01*
G02X-3591910Y3545560I0J42720D01*
G03X-3608990I-8540J-5504D01*
G37*
G36*
G01X-706560Y4546540D02*
G02X-722720Y4580000I26560J33460D01*
G02X-637280I42720J0D01*
G02X-645130Y4555320I-42721J0D01*
G03X-643150Y4541490I8293J-5870D01*
G02X-626990Y4508030I-26560J-33460D01*
G02X-669710Y4465310I-42720J0D01*
G02X-706670Y4486600I0J42727D01*
G03X-724010Y4486980I-8786J-5098D01*
G02X-760000Y4467280I-35990J23025D01*
G02Y4552720I0J42720D01*
G02X-723040Y4531430I0J-42727D01*
G03X-705700Y4531050I8786J5098D01*
G02X-704580Y4532710I35964J-23057D01*
G03X-706560Y4546540I-8293J5870D01*
G37*
G36*
G01X-2436140Y4777390D02*
G02X-2455720Y4813300I23140J35910D01*
G02X-2370280I42720J0D01*
G02X-2389860Y4777390I-42720J0D01*
G03Y4760310I5504J-8540D01*
G02X-2370280Y4724400I-23140J-35910D01*
G02X-2455720I-42720J0D01*
G02X-2436140Y4760310I42720J0D01*
G03Y4777390I-5504J8540D01*
G37*
G36*
G01X-630030Y5109620D02*
G02X-642720Y5140000I30020J30380D01*
G02X-557280I42720J0D01*
G02X-594210Y5097670I-42725J0D01*
G03X-599970Y5080380I1382J-10065D01*
G02X-587280Y5050000I-30020J-30380D01*
G02X-627920Y5007330I-42721J0D01*
G03X-637530Y4996090I492J-10148D01*
G02X-637280Y4991500I-42469J-4615D01*
G02X-722720I-42720J0D01*
G02X-682080Y5034170I42721J0D01*
G03X-672470Y5045410I-492J10148D01*
G02X-672720Y5050000I42469J4615D01*
G02X-635790Y5092330I42725J0D01*
G03X-630030Y5109620I-1382J10065D01*
G37*
G36*
G01X-577880Y5514440D02*
G02X-600220Y5508130I-22345J36409D01*
G02X-557500Y5550850I0J42720D01*
G02X-557760Y5546180I-42718J36D01*
G03X-542340Y5536410I10101J-1111D01*
G02X-520000Y5542720I22345J-36409D01*
G02X-562720Y5500000I0J-42720D01*
G02X-562460Y5504670I42718J-36D01*
G03X-577880Y5514440I-10101J1111D01*
G37*
G36*
G01X-562720Y5710610D02*
G02X-520000Y5752720I42720J-614D01*
G02Y5667280I0J-42720D01*
G02X-542090Y5673440I8J42718D01*
G03X-557500Y5664880I-5251J-8698D01*
G02X-600220Y5622770I-42720J614D01*
G02Y5708210I0J42720D01*
G02X-578130Y5702050I-8J-42718D01*
G03X-562720Y5710610I5251J8698D01*
G37*
G54D24*
X579500Y3407500D03*
X452500Y3153500D03*
X325500D03*
X329000Y2769000D03*
X579000Y3661000D03*
X198500Y3661500D03*
X579500Y3915500D03*
X706500Y4296500D03*
X-436500Y2645500D03*
X-55500Y867500D03*
X-436500Y1629500D03*
X-309500Y4296500D03*
X-182500Y2391500D03*
X579500Y4931500D03*
X-1280000Y540000D03*
X579500Y4296500D03*
X706500Y4550500D03*
X452500Y2645500D03*
Y3280500D03*
X-3416300Y1435100D03*
X-436500Y3915500D03*
X580500Y3789500D03*
X579500Y4042500D03*
X325500Y5058500D03*
X325000Y3790000D03*
X325500Y3407500D03*
X328500Y2388500D03*
X323000Y2013000D03*
X-182500Y3915500D03*
X-55500Y740500D03*
X-309500Y2391500D03*
X200000Y2270000D03*
X198500Y613500D03*
X-309500Y867500D03*
X452500Y2137500D03*
X-437500Y2392500D03*
X-182500Y2645500D03*
X706500Y2010500D03*
X71500Y2645500D03*
X325500Y740500D03*
Y994500D03*
X579500Y740500D03*
X-309500Y1629500D03*
X706500Y1121500D03*
Y1629500D03*
X579500Y1883500D03*
X706500Y2137500D03*
X325000Y5185000D03*
X579500Y2391500D03*
X706500Y2518500D03*
X579500Y3026500D03*
X706500Y3153500D03*
X-482600Y4614000D03*
X706500Y3280500D03*
Y3661500D03*
Y3788500D03*
X-182500Y740500D03*
X579500Y867500D03*
X452500Y4169500D03*
X706500D03*
X198500Y1248500D03*
X-309500Y613500D03*
X-309000Y1121000D03*
X200000Y2012000D03*
X579500Y1375500D03*
X198500Y1629500D03*
X-182500D03*
X-59000Y2141000D03*
X-436500Y1883500D03*
X195000Y1125000D03*
X579500Y4677500D03*
X198000Y3408000D03*
X199500Y739500D03*
X452500Y1629500D03*
X706500Y4804500D03*
X201500Y3918500D03*
X325500Y3915500D03*
X-2755900Y520700D03*
X-3124200Y1295400D03*
X579500Y3534500D03*
X-182500Y1121500D03*
X325000Y5565000D03*
X452500Y867500D03*
X325500Y5439500D03*
X-55500Y2391500D03*
Y1248500D03*
X452500Y4042500D03*
X-1370000Y4585000D03*
X325500Y2518500D03*
X77500Y3147500D03*
X-55500Y613500D03*
X706500Y2645500D03*
X198500Y867500D03*
X704500Y2774500D03*
X579500Y5439500D03*
X706500Y5693500D03*
X579500Y1756500D03*
X-309500Y5693500D03*
X-55500D03*
X706500Y613500D03*
X452500D03*
X-436500Y740500D03*
X706500Y994500D03*
X71500Y5439500D03*
X579500Y2264500D03*
X452500Y1121500D03*
X-309500Y1248500D03*
X-52500Y1632500D03*
X-182500Y1883500D03*
X706500Y5312500D03*
X577500Y5692500D03*
X325500Y3026500D03*
X706500Y1502500D03*
Y5185500D03*
X326000Y5694000D03*
X-2882900Y520700D03*
X579500Y1248500D03*
X452500Y2010500D03*
X325500Y2137500D03*
X452500Y2518500D03*
X200500Y4679500D03*
X71500Y5566500D03*
X579500D03*
X326500Y5313500D03*
X578500Y5311500D03*
X577000Y5183000D03*
X70000Y5060000D03*
X325500Y4931500D03*
X579500Y5058500D03*
X572500Y4797500D03*
X-3911600Y2667000D03*
X-4700000Y1195000D03*
X-436500Y3407500D03*
X-2910000Y5797100D03*
X-1180000Y6380400D03*
X-2140000Y1830000D03*
X-2580000Y820000D03*
X71500Y5185500D03*
X-2910000Y5649600D03*
X-2106000Y110000D03*
X-2910000Y6380000D03*
X325500Y3534500D03*
X-3225800Y4381500D03*
X-2260000Y4440000D03*
X-3240000Y4820000D03*
X-3263900Y1435100D03*
X-1370000Y4470000D03*
X-1120000Y3680000D03*
X-4658350Y931150D03*
X-3225800Y4254500D03*
X-3940000Y6120000D03*
X-3400000Y5560000D03*
X-2910000Y6230000D03*
X-1585000Y1330000D03*
X-3695700Y2667000D03*
X-180000Y5690000D03*
X325500Y1629500D03*
X-3859500Y5840500D03*
X-2910000Y6080000D03*
X-3416300Y1295400D03*
X-309500Y5312500D03*
X-2910000Y5502100D03*
X-2927900Y3130000D03*
X-3858400Y3566300D03*
X-55500Y4804500D03*
X-182500Y5058500D03*
X-710000Y5121500D03*
X-749500Y900000D03*
X-182500Y5439500D03*
X-4501150Y931150D03*
X-3090000Y-55000D03*
X-1910000Y5297300D03*
X-3540000Y2225000D03*
X-3263900Y1143000D03*
X-3009900Y520700D03*
X-2930000Y-55000D03*
X-4267200Y2895600D03*
X-1000000Y1480000D03*
X-2857500Y3340100D03*
X-3240000Y4572000D03*
X-3920000Y2230000D03*
X-1890000Y1830000D03*
X-770000Y5615000D03*
X-309500Y2899500D03*
X-876500Y900000D03*
X452500Y994500D03*
X-3240000Y4953000D03*
X-53340Y4929340D03*
Y5056340D03*
X-310000Y5430000D03*
X-182500Y4296500D03*
X-55500Y4169500D03*
X-182500Y4550500D03*
X-4192570Y2696420D03*
X-1820000Y4210000D03*
X-53340Y4676140D03*
X-2910000Y1740000D03*
X-55500Y4296500D03*
X198500Y4169500D03*
X-55500Y3915500D03*
Y3661500D03*
X-436500Y3153500D03*
X-309500Y5058500D03*
X-436500Y5566500D03*
X327660Y4043680D03*
X-413400Y5059160D03*
X-2260600Y1701800D03*
X-1716000Y106300D03*
X-3140000Y340000D03*
X71500Y3280500D03*
X-311000Y2139000D03*
X-1002400Y550000D03*
X-2100000Y1100000D03*
X-770000Y6200000D03*
X-53340Y3027680D03*
X-2895600Y3644900D03*
X-1680000Y1830000D03*
X-1846000Y106900D03*
X-3730000Y1683300D03*
X-1284700Y5186500D03*
X-3350000Y360000D03*
X452500Y1883500D03*
X-3924300Y2895600D03*
X-3695700Y-95100D03*
X-3416300Y1143000D03*
X-1760000Y1500000D03*
X-1506000Y49600D03*
X-53340Y5565140D03*
X-55880Y5440680D03*
X-170000Y5300000D03*
X-1976000Y109900D03*
X-3695700Y2895600D03*
X-170000Y5173000D03*
X-2850000Y30000D03*
X-2933700Y3416300D03*
X-1976000Y352700D03*
X-780000Y215000D03*
X325500Y4550500D03*
X-51000Y4419000D03*
X77000Y2767000D03*
X-2106000Y352700D03*
X-1846000D03*
X-1260000Y705000D03*
X-850000Y1920000D03*
X-3830000Y4420000D03*
X-2781300Y4890000D03*
X198500Y4423500D03*
X-55500Y5312500D03*
X453860Y4425660D03*
X580680Y4423880D03*
X-2130000Y4770000D03*
X325500Y3661500D03*
X-1120000Y540000D03*
X-55880Y4551680D03*
X-182500Y613500D03*
X452500Y1756500D03*
X-1820000Y5660000D03*
X-770000Y3400000D03*
X-309500Y3915500D03*
X-299000Y3270000D03*
X-2060000Y5297300D03*
X-3240000Y4699000D03*
X-2857500Y190500D03*
X-182500Y3153500D03*
X452500Y1248500D03*
X-1990000Y5660000D03*
X-3116410Y1436660D03*
X-3810000Y2781300D03*
X-2210000Y5297300D03*
X329500Y4300500D03*
X71120Y3027680D03*
X-1000000Y4950000D03*
X-570000Y4930000D03*
X-3830000Y4530000D03*
X-2137560Y5657710D03*
X-1880000Y1100000D03*
X453000Y4297000D03*
X-820000Y4585000D03*
X-309500Y4804500D03*
X579500Y4169500D03*
X-2781300Y4445000D03*
X-2850000Y360000D03*
X-1180000Y6085400D03*
X-3149600Y825500D03*
X325500Y4804500D03*
X-3124200Y1143000D03*
X-2004600Y4860000D03*
X-3581400Y4156300D03*
X-2255400Y4850000D03*
X-1130500Y1360000D03*
X-3070000Y2350000D03*
X-3607040Y4894030D03*
X-309500Y3661500D03*
X-3365500Y3352800D03*
X-3870000Y1850000D03*
X-964100Y4110000D03*
X-1770000Y1100000D03*
X-2340000Y2562300D03*
X-58800Y2775800D03*
X-5880200Y2650000D03*
X-2781300Y4584700D03*
X-3746500Y1143000D03*
X-2566600Y4957700D03*
X-964100Y3650000D03*
X-58000Y2902000D03*
X-3127700Y2700000D03*
X-177800Y4926800D03*
Y4799800D03*
X-4527500Y5910000D03*
X-2892300Y2860000D03*
X-61940Y2503220D03*
X-4150000Y2425700D03*
X-2892300Y2700000D03*
X-50800Y2641600D03*
X-2340000Y2797700D03*
X-3269400Y1291700D03*
X-5880200Y1900000D03*
X-5050000Y6057500D03*
X-5880200Y2500000D03*
Y2350000D03*
Y2200000D03*
X-5060000Y5762500D03*
X-1160000Y5750000D03*
X-1180000Y5500400D03*
X-2270000Y5758200D03*
X-1060000Y5902700D03*
X-970000Y5470000D03*
X-1060000Y5645000D03*
Y6230000D03*
X-970000Y6055000D03*
X-6135000Y3255000D03*
X-570000Y3490000D03*
X-3170000Y1880000D03*
X-46000Y3290000D03*
X-1110000Y4560000D03*
X-1092500Y1820000D03*
X-820200Y1825000D03*
X-2600000Y2670000D03*
X-1070000Y2735000D03*
X-2050000Y1920000D03*
X-50000Y3413000D03*
X-4160000Y2550000D03*
X-4245000Y3125000D03*
X-4400000Y3375000D03*
X-1710000Y4660900D03*
X-3470000Y2400000D03*
X-1070000Y2445000D03*
X-820000Y3540000D03*
X-2310000Y2230000D03*
X-2050000D03*
X-2200000Y3030000D03*
X-4120000Y880000D03*
X-670000Y3460000D03*
X-2270000Y2320000D03*
X-178000Y2260000D03*
X-6415000Y3255000D03*
X-6135000Y1245000D03*
X-6415000D03*
X-4380000Y2410000D03*
X-3210000Y2970000D03*
X-4650000Y1610000D03*
X-1610000Y4470000D03*
X-182500Y2137500D03*
X-990000Y4322300D03*
X-1040000Y3996300D03*
X-1100000Y3570000D03*
X-840000Y1680000D03*
X-3598000Y1820000D03*
X-570000Y1905000D03*
X-2700000Y1920000D03*
X-2370000Y1830000D03*
X-2495000D03*
X-896920Y3890000D03*
X-1090000Y1680000D03*
X-2010000Y1530000D03*
Y1650000D03*
G54D28*
X-4090000Y3835600D03*
X-5090000D03*
X-6090000D03*
X-5590000Y5260600D03*
X-4590000D03*
X-3590000D03*
X-2590000D03*
X-4090000Y4403600D03*
Y4943600D03*
X-6090000Y4693600D03*
G54D31*
X-1850000Y710000D03*
X-2130000D03*
X-2410000D03*
G54D30*
X-106500Y434500D03*
X198500Y5872500D03*
G54D29*
X-3810000Y3835600D03*
Y5260600D03*
X-3340000Y3835600D03*
Y5260600D03*
X-2840000Y3835600D03*
Y5260600D03*
X-2380000Y4068100D03*
Y4548100D03*
Y5028100D03*
G54D26*
X-2990000Y5030000D03*
Y4070000D03*
G54D25*
X-4680000Y2804000D03*
X-4020900Y1387600D03*
X-4680000Y2296000D03*
Y2550000D03*
X-4020900Y1133600D03*
X-710000Y2276000D03*
Y2530000D03*
Y2784000D03*
X-5030000Y2804000D03*
Y2550000D03*
Y2296000D03*
X-4456000Y470000D03*
X-4710000D03*
X-4964000D03*
X-4020900Y1641600D03*
X-3586000Y470000D03*
X-3840000D03*
X-4094000D03*
X-769000Y-110000D03*
X-1023000D03*
X-1277000D03*
X-1531000D03*
X-710000Y3696000D03*
Y3950000D03*
Y4204000D03*
G54D23*
X0Y6300000D03*
Y0D03*
G54D27*
X-3090000Y3835600D03*
%LPD*%
G75*
G54D10*
X-6379000Y1525000D03*
Y2975000D03*
G54D20*
G01X820800Y-178500D02*
X826800Y-185170D01*
X833800Y-189170D01*
X842800Y-190500D01*
X851800Y-187830D01*
X858800Y-182500D01*
X863800Y-173170D01*
X864800Y-162500D01*
X862800Y-151830D01*
X857800Y-145170D01*
X850800Y-139830D01*
X843800Y-138500D01*
X836800Y-139830D01*
X827800Y-145170D01*
X830800Y-110500D01*
X857800D01*
G54D11*
X-6415000Y1245000D03*
Y3255000D03*
X-6135000Y1245000D03*
Y3255000D03*
X-5880200Y1900000D03*
Y2200000D03*
Y2650000D03*
Y2500000D03*
Y2350000D03*
X-5508030Y2983530D03*
X-5290570D03*
X-5341980Y2932120D03*
X-5456620D03*
X-5060000Y5762500D03*
X-4938590Y970570D03*
X-4658350Y931150D03*
X-4990000Y1021980D03*
X-4697700Y1405000D03*
X-4700000Y1195000D03*
X-4938590Y1188030D03*
X-5051410Y1401270D03*
X-5000000Y1452680D03*
X-4990000Y1136620D03*
X-4650000Y1610000D03*
X-5051410Y1618730D03*
X-5000000Y1567320D03*
X-4639860Y3160040D03*
X-4640000Y2990000D03*
X-4710000Y3140910D03*
Y3031690D03*
X-5050000Y6057500D03*
X-4501150Y931150D03*
X-4322300Y1405000D03*
X-4390000Y1610000D03*
X-4328590Y2030570D03*
Y2248030D03*
X-4380000Y2081980D03*
Y2196620D03*
Y2670000D03*
Y2410000D03*
X-4400000Y2965000D03*
X-4245000Y3125000D03*
X-4267200Y2895600D03*
X-4400000Y3375000D03*
X-4527500Y5910000D03*
X-3860000Y880000D03*
X-4120000D03*
X-4130000Y1850000D03*
X-3870000D03*
X-3920000Y2230000D03*
X-4165600Y2628900D03*
X-3810000Y2430000D03*
X-3911600Y2667000D03*
X-4160000Y2550000D03*
X-4150000Y2425700D03*
X-4192570Y2696420D03*
X-4140000Y2957600D03*
X-3810000Y2781300D03*
X-3924300Y2895600D03*
X-3858400Y3566300D03*
X-3830000Y4420000D03*
Y4530000D03*
X-3940000Y6120000D03*
X-3859500Y5840500D03*
X-3540000Y0D03*
X-3695700Y-95100D03*
X-3350000Y360000D03*
X-3766100Y1430000D03*
X-3416300Y1295400D03*
Y1143000D03*
Y1435100D03*
X-3746500Y1143000D03*
X-3730000Y1683300D03*
X-3403600Y1803400D03*
X-3490000Y1810000D03*
X-3598000Y1820000D03*
X-3540000Y2225000D03*
X-3543300Y2476500D03*
X-3695700Y2667000D03*
X-3470000Y2400000D03*
X-3556000Y3124200D03*
X-3470000Y2970000D03*
X-3695700Y2895600D03*
X-3365500Y3352800D03*
X-3644900Y3568700D03*
X-3556000D03*
X-3550000Y4381500D03*
Y4254500D03*
X-3581400Y4156300D03*
X-3550000Y4826000D03*
Y4699000D03*
Y4572000D03*
Y4980000D03*
X-3607040Y4894030D03*
X-3400000Y5560000D03*
X-3551970Y5571410D03*
X-3769430D03*
X-3718020Y5520000D03*
X-3603380D03*
X-3590000Y6045200D03*
Y5930900D03*
X-2930000Y-55000D03*
X-3090000D03*
X-3140000Y340000D03*
X-3220000Y615400D03*
X-3009900Y520700D03*
X-2960000Y830000D03*
X-3280000Y660000D03*
X-3227300Y712700D03*
X-3149600Y825500D03*
X-3124200Y1295400D03*
Y1143000D03*
X-3263900Y1435100D03*
Y1143000D03*
X-3116410Y1436660D03*
X-3269400Y1291700D03*
X-3211610Y1803440D03*
X-3327400Y1778000D03*
X-3170000Y1880000D03*
X-3014310Y1977690D03*
X-2962900Y1926280D03*
X-3070000Y2350000D03*
X-3127700Y2700000D03*
X-3269700Y3168100D03*
X-3040000Y3130000D03*
X-3220000Y2870000D03*
X-2927900Y3130000D03*
X-3210000Y2970000D03*
X-3127700Y2860000D03*
X-2933700Y3416300D03*
X-3009900Y3644900D03*
X-2971800Y4419600D03*
X-2959100Y4241800D03*
X-3225800Y4381500D03*
Y4254500D03*
X-3240000Y4572000D03*
Y4699000D03*
Y4820000D03*
Y4953000D03*
X-2850000Y30000D03*
X-2857500Y190500D03*
X-2882900Y520700D03*
X-2755900D03*
X-2850000Y360000D03*
X-2882900Y800100D03*
X-2755900D03*
X-2518590Y906680D03*
X-2580000Y820000D03*
X-2570000Y958090D03*
X-2730000Y1241700D03*
X-2693150Y1403150D03*
X-2740000Y1070000D03*
X-2518590Y1118720D03*
X-2570000Y1067310D03*
X-2790000Y1550000D03*
X-2910000Y1740000D03*
X-2796850Y1977690D03*
X-2700000Y1920000D03*
X-2848260Y1926280D03*
X-2730000Y2430000D03*
X-2810000Y2350000D03*
X-2701970Y2360290D03*
X-2575000Y2427500D03*
X-2600000Y2670000D03*
X-2630000Y2350000D03*
X-2892300Y2700000D03*
X-2760000Y3130000D03*
X-2740000Y2910000D03*
X-2649570Y2910440D03*
X-2575000Y2912500D03*
X-2892300Y2860000D03*
X-2857500Y3340100D03*
X-2781300Y3644900D03*
X-2895600D03*
X-2781300Y4445000D03*
Y4584700D03*
X-2566600Y4957700D03*
X-2781300Y4890000D03*
X-2910000Y5502100D03*
Y5649600D03*
Y6080000D03*
Y5797100D03*
Y6380000D03*
Y6230000D03*
X-2106000Y110000D03*
Y352700D03*
X-2209800Y1333500D03*
X-2100000Y1100000D03*
X-2260600Y1476160D03*
X-2495000Y1830000D03*
X-2370000D03*
X-2260600Y1701800D03*
X-2140000Y1830000D03*
X-2324100Y1524000D03*
Y1612900D03*
X-2310000Y2230000D03*
X-2270000Y2320000D03*
X-2470000Y2430000D03*
X-2370000Y2350000D03*
X-2340000Y2562300D03*
X-2470000Y2910000D03*
X-2340580Y3022560D03*
X-2200000Y3030000D03*
X-2391990Y3073970D03*
X-2340000Y2797700D03*
X-2340580Y3240020D03*
X-2391990Y3188610D03*
X-2260000Y4440000D03*
X-2130000Y4770000D03*
X-2255400Y4850000D03*
X-2413000Y4813300D03*
Y4724400D03*
X-2137300Y5102450D03*
X-2210000Y5297300D03*
X-2137560Y5657710D03*
X-2240000Y6140000D03*
X-2270000Y5758200D03*
X-1716000Y106300D03*
X-1846000Y106900D03*
X-1976000Y109900D03*
X-1716000Y352700D03*
X-1846000D03*
X-1976000D03*
X-1990000Y1100000D03*
X-1770000Y1370000D03*
X-1880000Y1100000D03*
X-1770000D03*
X-1760000Y1752600D03*
Y1664300D03*
Y1500000D03*
X-1680000Y1830000D03*
X-2010000Y1530000D03*
Y1650000D03*
X-1890000Y1830000D03*
X-1731970Y2064230D03*
X-1949430D03*
X-2050000Y2230000D03*
Y1920000D03*
X-1898020Y2012820D03*
X-1783380D03*
X-1920000Y2725000D03*
Y2635000D03*
X-2000000Y3000000D03*
X-1825770Y3370570D03*
Y3588030D03*
X-1877180Y3536620D03*
Y3421980D03*
X-1723700Y3996300D03*
X-1810000Y3685000D03*
X-1820800Y3950000D03*
X-1820000Y3870000D03*
X-1810000Y4115000D03*
X-1820000Y4210000D03*
X-2004600Y4860000D03*
X-1710000Y4660900D03*
X-1972700Y5125000D03*
X-2060000Y5297300D03*
X-1910000D03*
X-1990000Y5660000D03*
X-1820000D03*
X-1700000Y5765360D03*
Y5880000D03*
Y6134640D03*
Y6020000D03*
X-1506000Y49600D03*
X-1630000Y345000D03*
X-1280000Y540000D03*
X-1260000Y705000D03*
X-1585000Y1330000D03*
X-1341410Y2231970D03*
X-1290000Y2283380D03*
X-1341410Y2449430D03*
X-1410570Y2391410D03*
X-1628030D03*
X-1290000Y2398020D03*
X-1461980Y2340000D03*
X-1576620D03*
X-1370000Y4395000D03*
X-1340570Y4301410D03*
X-1558030D03*
X-1391980Y4250000D03*
X-1506620D03*
X-1439200Y4660000D03*
X-1370000Y4470000D03*
Y4585000D03*
X-1610000Y4470000D03*
X-1284700Y5186500D03*
X-1630000Y5740000D03*
Y6000000D03*
Y6160000D03*
Y5900000D03*
X-870000Y305000D03*
X-1002400Y550000D03*
X-1120000Y540000D03*
X-876500Y900000D03*
X-1000000Y1480000D03*
X-1130500Y1360000D03*
X-840000Y1680000D03*
X-820200Y1825000D03*
X-1092500Y1820000D03*
X-1090000Y1680000D03*
X-1092500Y1920000D03*
X-850000D03*
X-1092500Y2015000D03*
X-1070000Y2445000D03*
Y2735000D03*
X-1100000Y3570000D03*
X-820000Y3540000D03*
X-1120000Y3680000D03*
X-964100Y3650000D03*
X-1040000Y3996300D03*
X-896920Y3890000D03*
X-964100Y4110000D03*
X-990000Y4322300D03*
X-1050000Y4796500D03*
X-1110000Y4560000D03*
X-1000000Y4730000D03*
X-1150000Y4796500D03*
Y4869200D03*
X-820000Y4585000D03*
X-1000000Y4950000D03*
X-970000Y5470000D03*
X-1180000Y5500400D03*
X-1060000Y5645000D03*
X-970000Y6055000D03*
X-1180000Y6085400D03*
X-960000Y5902700D03*
X-1060000D03*
X-1160000Y5750000D03*
X-880000Y5900000D03*
X-1180000Y6380400D03*
X-960000Y6490000D03*
X-1060000D03*
X-880000D03*
X-1060000Y6230000D03*
X-780000Y130000D03*
X-539430Y108590D03*
X-488020Y160000D03*
X-373380D03*
X-780000Y215000D03*
X-436500Y740500D03*
X-749500Y900000D03*
X-640000Y1340000D03*
Y1420000D03*
X-436500Y1629500D03*
Y1883500D03*
X-570000Y1905000D03*
X-437500Y2392500D03*
X-436500Y2645500D03*
Y3153500D03*
Y3407500D03*
X-570000Y3490000D03*
X-770000Y3400000D03*
X-670000Y3460000D03*
X-436500Y3915500D03*
X-482600Y4614000D03*
X-680000Y4580000D03*
X-669710Y4508030D03*
X-760000Y4510000D03*
X-413400Y5059160D03*
X-600000Y5140000D03*
X-570000Y4930000D03*
X-680000Y4991500D03*
X-630000Y5050000D03*
X-710000Y5121500D03*
X-436500Y5566500D03*
X-770000Y5615000D03*
X-520000Y5500000D03*
Y5710000D03*
X-600220Y5665490D03*
Y5550850D03*
X-680000Y5825000D03*
X-620000Y5900000D03*
X-560000Y6070000D03*
X-600220Y6135850D03*
X-620000Y6410000D03*
Y6490000D03*
X-770000Y6200000D03*
X-562340Y6312550D03*
X-600220Y6250490D03*
X-321970Y108590D03*
X-55500Y613500D03*
X-309500D03*
X-182500D03*
X-309500Y867500D03*
X-55500D03*
X-182500Y740500D03*
X-55500D03*
Y1248500D03*
X-309500D03*
X-182500Y1121500D03*
X-309000Y1121000D03*
X-52500Y1632500D03*
X-182500Y1883500D03*
Y1629500D03*
X-309500D03*
X-59000Y2141000D03*
X-311000Y2139000D03*
X-182500Y2137500D03*
X-178000Y2260000D03*
X-55500Y2391500D03*
X-182500D03*
Y2645500D03*
X-309500Y2391500D03*
X-61940Y2503220D03*
X-50800Y2641600D03*
X-182500Y3153500D03*
X-309500Y2899500D03*
X-58800Y2775800D03*
X-58000Y2902000D03*
X-53340Y3027680D03*
X-299000Y3270000D03*
X-46000Y3290000D03*
X-50000Y3413000D03*
X-309500Y3661500D03*
X-182500Y3915500D03*
X-55500D03*
Y3661500D03*
X-309500Y3915500D03*
Y4296500D03*
X-51000Y4419000D03*
X-182500Y4296500D03*
X-55500D03*
Y4169500D03*
Y4804500D03*
X-182500Y4550500D03*
X-309500Y4804500D03*
X-177800Y4799800D03*
X-55880Y4551680D03*
X-53340Y4676140D03*
X-182500Y5058500D03*
X-309500D03*
Y5312500D03*
X-55500D03*
X-177800Y4926800D03*
X-53340Y4929340D03*
Y5056340D03*
X-170000Y5173000D03*
Y5300000D03*
X-55500Y5693500D03*
X-309500D03*
X-310000Y5430000D03*
X-180000Y5690000D03*
X-182500Y5439500D03*
X-55880Y5440680D03*
X-53340Y5565140D03*
X325500Y613500D03*
X452500D03*
X198500D03*
X325500Y867500D03*
X452500Y740500D03*
Y994500D03*
Y867500D03*
X198500D03*
X199500Y739500D03*
X325500Y994500D03*
Y740500D03*
Y1121500D03*
X452500Y1248500D03*
Y1121500D03*
X198500Y1248500D03*
X195000Y1125000D03*
X452500Y1629500D03*
X198500D03*
X325500D03*
X452500Y1883500D03*
Y1756500D03*
Y2010500D03*
X325500Y2137500D03*
X452500D03*
X200000Y2012000D03*
X323000Y2013000D03*
X200000Y2270000D03*
X452500Y2518500D03*
X325500D03*
X71500Y2645500D03*
X452500D03*
X328500Y2388500D03*
X325500Y3026500D03*
X452500Y3153500D03*
X325500D03*
X77500Y3147500D03*
X329000Y2769000D03*
X77000Y2767000D03*
X71120Y3027680D03*
X198000Y3408000D03*
X452500Y3280500D03*
X325500Y3407500D03*
X71500Y3280500D03*
X325500Y3534500D03*
X198500Y3661500D03*
X201500Y3918500D03*
X325500Y3915500D03*
X325000Y3790000D03*
X325500Y3661500D03*
X452500Y4042500D03*
Y4169500D03*
X198500Y4423500D03*
Y4169500D03*
X327660Y4043680D03*
X453860Y4425660D03*
X453000Y4297000D03*
X329500Y4300500D03*
X325500Y4804500D03*
X200500Y4679500D03*
X325500Y4550500D03*
X71500Y5185500D03*
X325000Y5185000D03*
X325500Y5058500D03*
X326500Y5313500D03*
X70000Y5060000D03*
X325500Y4931500D03*
Y5439500D03*
X326000Y5694000D03*
X71500Y5439500D03*
X325000Y5565000D03*
X71500Y5566500D03*
X706500Y613500D03*
Y994500D03*
X579500Y867500D03*
Y740500D03*
Y1248500D03*
Y1375500D03*
X706500Y1121500D03*
Y1502500D03*
X579500Y1756500D03*
X706500Y1629500D03*
X579500Y1883500D03*
Y2264500D03*
X706500Y2010500D03*
Y2137500D03*
Y2645500D03*
X579500Y2391500D03*
X706500Y2518500D03*
X704500Y2774500D03*
X579500Y3026500D03*
X706500Y3153500D03*
X579500Y3407500D03*
X706500Y3280500D03*
X579500Y3534500D03*
X579000Y3661000D03*
X579500Y3915500D03*
X580500Y3789500D03*
X706500Y3661500D03*
Y3788500D03*
Y4296500D03*
X579500D03*
Y4042500D03*
X706500Y4169500D03*
X579500D03*
X580680Y4423880D03*
X706500Y4804500D03*
Y4550500D03*
X579500Y4677500D03*
X572500Y4797500D03*
X579500Y4931500D03*
X706500Y5185500D03*
Y5312500D03*
X578500Y5311500D03*
X577000Y5183000D03*
X579500Y5058500D03*
Y5439500D03*
X706500Y5693500D03*
X577500Y5692500D03*
X579500Y5566500D03*
G54D21*
G01X-1023000Y-212800D02*
Y-110000D01*
G01D02*
Y-7200D01*
G01X-1125800Y-110000D02*
X-1023000D01*
G01D02*
X-920200D01*
G54D12*
X-5782000Y1525000D03*
Y2975000D03*
G54D22*
G01X1090000Y6600000D02*
Y-300000D01*
X-4340000D01*
Y-140000D01*
G03X-4440000Y-40000I-100000J0D01*
G01X-5410000D01*
Y70000D01*
G03X-5510000Y170000I-100000J0D01*
G01X-6560000D01*
Y6270000D01*
X-3950000D01*
G03X-3850000Y6370000I0J100000D01*
G01Y6600000D01*
X1090000D01*
G54D13*
X-6090000Y3835600D03*
Y4693600D03*
X-5590000Y5260600D03*
X-5090000Y3835600D03*
X-4590000Y5260600D03*
X-4090000Y3835600D03*
Y4403600D03*
Y4943600D03*
X-3590000Y5260600D03*
X-2590000D03*
G54D14*
X-5460000Y380000D03*
X-5475000Y6050000D03*
X0Y0D03*
Y6300000D03*
G54D15*
X-5030000Y2296000D03*
Y2550000D03*
Y2804000D03*
X-4710000Y130000D03*
X-4964000D03*
X-4710000Y470000D03*
X-4964000D03*
X-4680000Y2296000D03*
Y2550000D03*
Y2804000D03*
X-4456000Y130000D03*
Y470000D03*
X-3840000D03*
X-4094000D03*
X-4020900Y1387600D03*
Y1133600D03*
Y1641600D03*
X-3586000Y470000D03*
X-1277000Y-110000D03*
X-1531000D03*
X-1023000D03*
X-769000D03*
X-710000Y2276000D03*
Y2530000D03*
Y2784000D03*
Y3950000D03*
Y3696000D03*
Y4204000D03*
G54D16*
X-3810000Y3835600D03*
Y5260600D03*
X-3340000Y3835600D03*
Y5260600D03*
X-2840000Y3835600D03*
Y5260600D03*
X-2380000Y4068100D03*
Y4548100D03*
Y5028100D03*
G54D17*
X-2990000Y4070000D03*
Y5030000D03*
X-106500Y434500D03*
X198500Y5872500D03*
G54D18*
X-3090000Y3835600D03*
G54D19*
X-2130000Y710000D03*
X-2410000D03*
X-1850000D03*
M02*
