M48
METRIC
T01C.3
T02C.8128
T03C.8499
T04C.95
T05C1.
T06C1.05
T07C2.7
T08C1.3
T09C1.4
;LEADER: 12 
;HEADER: 
;CODE  : ASCII 
;FILE  : pc053e-1-6.drl for  ... layers TOP and BOTTOM
;DESIGN: pc053e_toplevel_66.brd
;T01 Holesize 1. = 0.300000 Tolerance = +0.000000/-0.000000 PLATED MM Quantity = 549
;T02 Holesize 2. = 0.812800 Tolerance = +0.000000/-0.000000 PLATED MM Quantity = 3
;T03 Holesize 3. = 0.849900 Tolerance = +0.000000/-0.000000 PLATED MM Quantity = 1
;T04 Holesize 4. = 0.950000 Tolerance = +0.050000/-0.050000 PLATED MM Quantity = 9
;T05 Holesize 5. = 1.000000 Tolerance = +0.000000/-0.000000 PLATED MM Quantity = 28
;T06 Holesize 6. = 1.050000 Tolerance = +0.050000/-0.050000 PLATED MM Quantity = 10
;T07 Holesize 7. = 2.700000 Tolerance = +0.000000/-0.000000 PLATED MM Quantity = 4
;T08 Holesize 8. = 1.300000 Tolerance = +0.000000/-0.000000 NON_PLATED MM Quantity = 2
;T09 Holesize 9. = 1.400000 Tolerance = +0.000000/-0.000000 NON_PLATED MM Quantity = 2
%
G90
T01
X-1240000Y2910000
X-2910000Y5649600
X-2910000Y6230000
X-0178000Y2260000
X-4380000Y2196620
X-0182500Y2137500
X-4380000Y2081980
X-2570000Y0958090
X-4990000Y1021980
X-2570000Y1067310
X-4990000Y1136620
X-3859500Y5840500
X-3009900Y0520700
X-0053340Y5565140
X-1932670Y3402680
X-0055880Y5440680
X-1932670Y3517320
X-0050800Y2641600
X-0061940Y2503220
X-1233600Y5030000
X-1290000Y2398020
X-1238600Y4955000
X-1290000Y2283380
X-1427210Y2820000
X-0050000Y3148000
X-1536430Y2820000
X-0049000Y3020000
X-2857500Y0190500
X0329500Y4300500
X-0600220Y5550850
X0453000Y4297000
X-0600220Y5665490
X-0600220Y6135850
X0453860Y4425660
X-0600220Y6250490
X0580680Y4423880
X-2413000Y4724400
X-2413000Y4813300
X-0050000Y3413000
X-5456620Y2932120
X-0046000Y3290000
X-5341980Y2932120
X-1700000Y6020000
X-0058000Y2902000
X-1700000Y6134640
X-0058800Y2775800
X-1700000Y5880000
X-0053340Y4676140
X-1700000Y5765360
X-0055880Y4551680
X-0053340Y5056340
X-0373380Y0160000
X-0053340Y4929340
X-0488020Y0160000
X-0177800Y4926800
X-3603380Y5520000
X-3556000Y3568700
X-0177800Y4799800
X-3718020Y5520000
X-3644900Y3568700
X-1730000Y2970000
X-1730000Y3170000
X-1230000Y3220000
X-0055500Y4169500
X-0760000Y4510000
X-0710000Y5121500
X-0055500Y4296500
X-0669710Y4508030
X-0630000Y5050000
X-3170000Y1880000
X-1710000Y4660900
X-3240000Y4820000
X-0680000Y4991500
X-0680000Y4580000
X0327660Y4043680
X-5000000Y1567320
X-5000000Y1452680
X-4192570Y2696420
X-1780000Y2320000
X-1600000Y2440000
X-0670000Y3460000
X-1880000Y2320000
X-1630000Y2570000
X-0770000Y3400000
X-3598000Y1820000
X-3490000Y1810000
X-1910000Y5297300
R02X-0150000
X-3327400Y1778000
X-3403600Y1803400
X-3730000Y1683300
X-1610000Y4470000
X-3225800Y4254500
X-1370000Y4585000
X-3225800Y4381500
X-3830000Y4420000
X-1820000Y3870000
X-3830000Y4530000
X-1820800Y3950000
X-4501150Y0931150
X-4710000Y3031690
X-2391990Y3073970
X-4658350Y0931150
X-4710000Y3140910
X-2391990Y3188610
X-3149600Y0825500
X-3746500Y1143000
X-0570000Y4930000
X-0570000Y3490000
X0325500Y3534500
X0325500Y3661500
X-0820000Y3540000
X-0820000Y4585000
X-2700000Y1920000
X-1090000Y1680000
X-3018150Y1738160
X-2580000Y0820000
X-3227300Y0712700
X-3280000Y0660000
X-3220000Y0615400
X-0896920Y3890000
X-2004600Y4860000
X-2200000Y3030000
X-4267200Y2895600
X-2255400Y4850000
X-4150000Y2425700
X-2270000Y2320000
X-3240000Y4953000
X-2260000Y4440000
X-2781300Y4584700
X-3240000Y4699000
X-3240000Y4572000
X-1580000Y3560000
X-1010000Y3010000
X-1330000Y3220000
X-1755000Y3540000
X-1267500Y3517500
X-1660000Y3540000
X-1150000Y4869200
X-1150000Y4796500
X-1000000Y4730000
X-0990000Y4322300
X-0964100Y4110000
X-1040000Y3996300
X-0964100Y3650000
X-0640000Y1420000
X-0055500Y0740500
X-0182500Y0613500
X0452500Y1756500
X-1130500Y1360000
X-1000000Y1480000
X0452500Y1883500
X-0749500Y0900000
X-0876500Y0900000
X0325500Y1629500
X-3760000Y5850000
X-0319000Y5249000
X-1320000Y3590000
X-1046050Y3272500
X-1630000Y3220000
X-1010000Y3120000
X-1480000Y3070000
X-1430000Y3020000
X-1530000Y3020000
X-1430000Y3120000
X-1530000Y3120000
X-5051410Y1401270
X-5051410Y1618730
X-3269400Y1291700
X-1341410Y2231970
X-1341410Y2449430
X-5508030Y2983530
X-5290570Y2983530
X-0850000Y1920000
X-2400000Y1950000
X-2495000Y1830000
X-2518590Y1118720
X-2518590Y0906680
X-2340580Y3240020
X-2340580Y3022560
X-4640000Y2990000
X-4639860Y3160040
X-3769430Y5571410
X-3551970Y5571410
X-0321970Y0108590
X-0539430Y0108590
X-3470000Y2400000
X-4328590Y2248030
X-4328590Y2030570
X-4938590Y1188030
X-4938590Y0970570
X-1868200Y3550940
X-1880000Y3460000
X-2600000Y2670000
X-4245000Y3125000
X-4160000Y2550000
X-0299000Y3270000
X-0520000Y5710000
X-0520000Y5500000
X-1180000Y5500400
X-1160000Y5750000
X-0770000Y5615000
X-0560000Y6070000
X-0562340Y6312550
X-0770000Y6200000
X-1180000Y6085400
X-1180000Y6380400
X-1630000Y5900000
X-1630000Y5740000
X-1630000Y6160000
X-1630000Y6000000
X-3365500Y3352800
X-1370000Y4470000
X-3581400Y4156300
X-2781300Y4445000
X-2781300Y4890000
X-1120000Y3680000
X-3695700Y-0095100
X-3090000Y-0055000
X-2927900Y3130000
X-3920000Y2230000
X-3540000Y2225000
X-3116410Y1436660
X-3263900Y1143000
X-3263900Y1435100
X-3416300Y1435100
X-1284700Y5186500
X-0600000Y5140000
X-1820000Y4210000
X-3858400Y3566300
X-1820000Y5660000
X-2137560Y5657710
X-3220000Y2870000
X-1000000Y4950000
X-1050000Y4796500
X-2130000Y4770000
X-0309500Y3915500
X-0311000Y2139000
X-0436500Y3153500
X0077000Y2767000
X-0309500Y2899500
X-0055500Y5312500
X-0182500Y5439500
X-0180000Y5690000
X-0436500Y5566500
X-0310000Y5430000
X-0309500Y5058500
X-0182500Y5058500
X-0413400Y5059160
X-0309500Y4804500
X-0182500Y4550500
X-0182500Y4296500
X0198500Y4169500
X-0182500Y3153500
X0071500Y3280500
X-0436500Y3407500
X-0055500Y3661500
X-0055500Y3915500
X-0051000Y4419000
X0198500Y4423500
X0325500Y4550500
X0200500Y4679500
X-0055500Y4804500
X0579500Y4169500
X-3350000Y0360000
X-2850000Y0030000
X-2850000Y0360000
X-1976000Y0352700
R02X0130000
X-1630000Y0345000
X-0780000Y0215000
X-1120000Y0540000
X-1260000Y0705000
X-1002400Y0550000
X-4700000Y1195000
X-2755900Y0520700
X-2882900Y0520700
X-3940000Y6120000
X-3400000Y5560000
X-2910000Y5502100
X-2910000Y5797100
X-2910000Y6380000
X-2910000Y6080000
X0572500Y4797500
X0579500Y5058500
X0325500Y4931500
X0070000Y5060000
X0577000Y5183000
X0578500Y5311500
X0326500Y5313500
X0579500Y5566500
X0071500Y5566500
X0325000Y5565000
X-0482600Y4614000
X0579500Y4677500
X0452500Y4169500
X0706500Y4169500
X0706500Y3788500
X0579500Y3534500
X0706500Y3661500
X0706500Y3280500
X0706500Y3153500
X0579500Y3026500
X0706500Y2518500
X0579500Y2391500
X0706500Y2137500
X0579500Y1883500
X0706500Y1629500
X0706500Y1121500
X0579500Y0740500
X0325500Y0740500
X0198500Y0613500
X0200000Y2270000
X-0309500Y2391500
X-0182500Y3915500
X-0182500Y0740500
X0579500Y0867500
X0323000Y2013000
X0328500Y2388500
X0329000Y2769000
X0325500Y3407500
X0325000Y3790000
X0325500Y5058500
X-0059000Y2141000
X-0436500Y1883500
X-0309500Y1629500
X-0182500Y1629500
X0198500Y1629500
X0579500Y1375500
X0200000Y2012000
X-0309000Y1121000
X-0182500Y1121500
X0195000Y1125000
X0579500Y4042500
X0580500Y3789500
X-0436500Y3915500
X0452500Y3280500
X0452500Y2645500
X0706500Y4550500
X-0436500Y2645500
X-0182500Y2645500
X-0437500Y2392500
X0071500Y2645500
X0452500Y2137500
X0706500Y2010500
X0325500Y0994500
X-0055500Y0867500
X-0309500Y0867500
X-0309500Y0613500
X-0309500Y4296500
X0325500Y3915500
X0201500Y3918500
X0706500Y4804500
X0452500Y1629500
X0199500Y0739500
X0198000Y3408000
X0071500Y5439500
X-0182500Y1883500
X0577500Y5692500
X0706500Y5312500
X-0309500Y5693500
X-0055500Y5693500
X0326000Y5694000
X0706500Y5693500
X0325500Y5439500
X0579500Y5439500
X0325000Y5185000
X0706500Y5185500
X0579500Y4931500
X0579500Y4296500
X0452500Y4042500
X0706500Y4296500
X0579500Y3915500
X0198500Y3661500
X0579000Y3661000
X0077500Y3147500
X0325500Y3153500
X0579500Y3407500
X0452500Y3153500
X0325500Y3026500
X0704500Y2774500
X0706500Y2645500
X-0182500Y2391500
X-0055500Y2391500
X0325500Y2518500
X0452500Y2518500
X0579500Y2264500
X0325500Y2137500
X0452500Y2010500
X0579500Y1756500
X0706500Y1502500
X-0052500Y1632500
X-0436500Y1629500
X-0309500Y1248500
R02X0254000
X0452500Y1121500
X0579500Y1248500
X0198500Y0867500
X0452500Y0867500
X0706500Y0994500
X-0436500Y0740500
X-0055500Y0613500
X0452500Y0613500
X0706500Y0613500
X-2106000Y0352700
X0325500Y4804500
X0071500Y5185500
X-1990000Y5660000
X-3924300Y2895600
X-3695700Y2895600
X-3695700Y2667000
X-3911600Y2667000
X-3810000Y2781300
X-2933700Y3416300
X-2857500Y3340100
X-2895600Y3644900
X-3416300Y1143000
X-3124200Y1143000
X-3416300Y1295400
X-3124200Y1295400
X-2930000Y-0055000
X-0309500Y3661500
X-3607040Y4894030
X-2566600Y4957700
X0452500Y0994500
X0452500Y1248500
X-2085000Y2670000
X-2790000Y1550000
X-1439200Y4660000
X-4322300Y1405000
X-0680000Y5825000
X-0620000Y6410000
X-3540000Y0000000
X-0870000Y0305000
X-0780000Y0130000
X-2960000Y0830000
X-2755900Y0800100
X-2882900Y0800100
X0452500Y0740500
X0325500Y0867500
X0325500Y0613500
X-4697700Y1405000
X-3766100Y1430000
X-2740000Y1070000
X-2693150Y1403150
X-2730000Y1241700
X0325500Y1121500
X-3211610Y1803440
X-3810000Y2430000
X-4165600Y2628900
X-3543300Y2476500
X-4140000Y2957600
X-3556000Y3124200
X-3040000Y3130000
X-3269700Y3168100
X-2760000Y3130000
X-1940000Y3590000
X-2781300Y3644900
X-3009900Y3644900
X-1810000Y4115000
X-1723700Y3996300
X-1370000Y4395000
X-3550000Y4254500
X-2959100Y4241800
X-3550000Y4572000
X-3550000Y4699000
X-3550000Y4381500
X-2971800Y4419600
X-2137300Y5102450
X-1972700Y5125000
X-3550000Y4980000
X-3550000Y4826000
X-3590000Y5930900
X-3590000Y6045200
X-4650000Y1610000
X-4390000Y1610000
X-4380000Y2410000
X-4380000Y2670000
X-1770000Y1100000
X-1770000Y1370000
X-3870000Y1850000
X-4130000Y1850000
X-2050000Y2230000
X-2310000Y2230000
X-0640000Y1340000
X-4400000Y3375000
X-4400000Y2965000
X-3210000Y2970000
X-3470000Y2970000
X-4120000Y0880000
X-3860000Y0880000
X-0960000Y6490000
X-0960000Y5902700
X-0880000Y6490000
X-0620000Y6490000
X-0880000Y5900000
X-0620000Y5900000
X-0840000Y1680000
X-0570000Y1905000
X-1110000Y4560000
X-2985000Y2440000
X-2810000Y2350000
X-2630000Y2350000
X-2370000Y2350000
X-6415000Y1245000
X-6415000Y3255000
X-2270000Y5758200
X-2240000Y6140000
X-2575000Y2427500
X-2701970Y2360290
X-2575000Y2912500
X-2649570Y2910440
X-2470000Y2430000
X-2730000Y2430000
X-2470000Y2910000
X-2740000Y2910000
X-1092500Y2015000
X-1092500Y1820000
X-0820200Y1825000
X-1092500Y1920000
X-5880200Y1900000
X-5880200Y2200000
X-5880200Y2350000
R02Y0150000
X-4527500Y5910000
X-5050000Y6057500
X-5060000Y5762500
X-2050000Y1920000
X-3140000Y0340000
X-1060000Y6230000
X-0970000Y6055000
X-1060000Y5645000
X-0970000Y5470000
X-1060000Y6490000
X-1060000Y5902700
X-1070000Y2445000
X-3127700Y2860000
X-2892300Y2860000
X-3127700Y2700000
X-2892300Y2700000
X-2340000Y2797700
X-2340000Y2562300
X-6135000Y1245000
X-6135000Y3255000
X-1080000Y2680000
T02
X-2410000Y0710000
R02X0280000
T03
X-3090000Y3835600
T04
X-3810000Y3835600
X-3810000Y5260600
X-3340000Y3835600
X-3340000Y5260600
X-2840000Y3835600
X-2840000Y5260600
X-2380000Y4068100
R02Y0480000
T05
X-1531000Y-0110000
R03X0254000
X-4964000Y0130000
R02X0254000
X-4020900Y1641600
R02Y-0254000
X-4964000Y0470000
R02X0254000
X-4680000Y2804000
R02Y-0254000
X-5030000Y2804000
R02Y-0254000
X-0710000Y2784000
R02Y-0254000
X-4094000Y0470000
R02X0254000
X-0710000Y4204000
R02Y-0254000
T06
X-4090000Y3835600
R02X-1000000
X-5590000Y5260600
R03X1000000
X-4090000Y4403600
X-4090000Y4943600
X-6090000Y4693600
T07
X-5460000Y0380000
X-5475000Y6050000
X0000000Y0000000
X0000000Y6300000
T08
X0198500Y5872500
X-0106500Y0434500
T09
X-2990000Y4070000
X-2990000Y5030000
M30
